<svg xmlns="http://www.w3.org/2000/svg" width="617.807" height="487.435" viewBox="0 0 617.807 487.435">
  <g id="Grupo_137391" data-name="Grupo 137391" transform="translate(-87.098 -78.764)">
    <path id="Trazado_200365" data-name="Trazado 200365" d="M332.642,181.968a3.919,3.919,0,0,1-3.386-1.955l-27.535-47.691a3.928,3.928,0,0,1,0-3.912l27.534-47.69a3.923,3.923,0,0,1,3.387-1.956H459.36a3.92,3.92,0,0,1,3.386,1.956l27.535,47.69a3.925,3.925,0,0,1,0,3.913l-27.533,47.689a3.921,3.921,0,0,1-3.387,1.956Z" fill="#00c5ff"/>
    <path id="Trazado_200366" data-name="Trazado 200366" d="M118.541,341.03a3.917,3.917,0,0,1-3.386-1.954L87.62,291.385a3.925,3.925,0,0,1,0-3.913l27.534-47.689a3.92,3.92,0,0,1,3.387-1.956H245.258a3.918,3.918,0,0,1,3.386,1.955l27.536,47.691a3.923,3.923,0,0,1,0,3.912l-27.533,47.689a3.918,3.918,0,0,1-3.387,1.956Z" fill="#a6ebff"/>
    <text id="Principios_pedagógicos_en_simulación" data-name="Principios
pedagógicos en
simulación" transform="translate(396.001 117.658)" font-size="16" font-family="Roboto-Bold, Roboto" font-weight="700"><tspan x="-36.234" y="0">Principios</tspan><tspan x="-57.008" y="19.2">pedagógicos en</tspan><tspan x="-39.344" y="38.4">simulación</tspan></text>
    <text id="Formación_por_competencias_con_estándares_establecidos" data-name="Formación por
competencias con
estándares
establecidos" transform="translate(181.899 268.32)" font-size="14" font-family="Roboto-Bold, Roboto" font-weight="700"><tspan x="-45.667" y="0">Formación por</tspan><tspan x="-57.593" y="16.8">competencias con</tspan><tspan x="-35.055" y="33.6">estándares</tspan><tspan x="-40.089" y="50.4">establecidos</tspan></text>
    <path id="Trazado_200367" data-name="Trazado 200367" d="M546.744,341.03a3.917,3.917,0,0,1-3.386-1.954l-27.535-47.691a3.925,3.925,0,0,1,0-3.913l27.534-47.689a3.92,3.92,0,0,1,3.387-1.956H673.461a3.918,3.918,0,0,1,3.386,1.955l27.536,47.691a3.923,3.923,0,0,1,0,3.912l-27.533,47.689a3.918,3.918,0,0,1-3.387,1.956Z" fill="#a6ebff"/>
    <text id="El_aprendiz_Constructivismo_" data-name="El aprendiz
(Constructivismo)" transform="translate(610.102 285.12)" font-size="14" font-family="Roboto-Bold, Roboto" font-weight="700"><tspan x="-34.85" y="0">El aprendiz</tspan><tspan x="-56.701" y="16.8">(Constructivismo)</tspan></text>
    <path id="Trazado_200368" data-name="Trazado 200368" d="M174.064,471.324a3.918,3.918,0,0,1-3.386-1.955l-27.536-47.691a3.928,3.928,0,0,1,0-3.912l27.535-47.689a3.92,3.92,0,0,1,3.387-1.956H300.781a3.918,3.918,0,0,1,3.386,1.955l27.535,47.69a3.923,3.923,0,0,1,0,3.913l-27.533,47.689a3.92,3.92,0,0,1-3.387,1.956Z" fill="#a6ebff"/>
    <text id="Estrategias_de_evaluación_formativa_con_instrumentos_de_evaluación" data-name="Estrategias 
de evaluación formativa
con instrumentos de
evaluación" transform="translate(237.422 398.614)" font-size="14" font-family="Roboto-Bold, Roboto" font-weight="700"><tspan x="-37.201" y="0">Estrategias </tspan><tspan x="-75.397" y="16.8">de evaluación formativa</tspan><tspan x="-64.538" y="33.6">con instrumentos de</tspan><tspan x="-33.889" y="50.4">evaluación</tspan></text>
    <path id="Trazado_200369" data-name="Trazado 200369" d="M501.161,455.895a3.917,3.917,0,0,1-3.386-1.955l-27.536-47.691a3.93,3.93,0,0,1,0-3.913l27.534-47.689a3.924,3.924,0,0,1,3.388-1.956H627.878a3.922,3.922,0,0,1,3.386,1.955L658.8,402.337a3.923,3.923,0,0,1,0,3.912l-27.533,47.69a3.921,3.921,0,0,1-3.387,1.956Z" fill="#a6ebff"/>
    <text id="Escenarios_y_eventos_clínicos_habilidades_destrezas_conocimiento_y_actitudes_" data-name="Escenarios y eventos
clínicos (habilidades,
destrezas, conocimiento
y actitudes)" transform="translate(564.518 383.184)" font-size="14" font-family="Roboto-Bold, Roboto" font-weight="700"><tspan x="-66.411" y="0">Escenarios y eventos</tspan><tspan x="-66.521" y="16.8">clínicos (habilidades,</tspan><tspan x="-77.229" y="33.6">destrezas, conocimiento</tspan><tspan x="-36.958" y="50.4">y actitudes)</tspan></text>
    <path id="Trazado_200370" data-name="Trazado 200370" d="M332.642,566.2a3.919,3.919,0,0,1-3.386-1.955l-27.535-47.691a3.93,3.93,0,0,1,0-3.913l27.534-47.689a3.923,3.923,0,0,1,3.387-1.956H459.36a3.92,3.92,0,0,1,3.386,1.956l27.535,47.69a3.925,3.925,0,0,1,0,3.913l-27.533,47.689a3.921,3.921,0,0,1-3.387,1.956Z" fill="#a6ebff"/>
    <text id="Fortalecimiento_e_integración_de_las_ciencias_básicas_con_las_clínicas" data-name="Fortalecimiento e 
integración de las 
ciencias básicas 
con las clínicas" transform="translate(396.001 493.487)" font-size="14" font-family="Roboto-Bold, Roboto" font-weight="700"><tspan x="-56.82" y="0">Fortalecimiento e </tspan><tspan x="-57.675" y="16.8">integración de las </tspan><tspan x="-53.707" y="33.6">ciencias básicas </tspan><tspan x="-48.426" y="50.4">con las clínicas</tspan></text>
    <line id="Línea_523" data-name="Línea 523" y1="277.956" transform="translate(396.001 185.039)" fill="none" stroke="#d100c9" stroke-linecap="round" stroke-linejoin="round" stroke-width="2"/>
    <path id="Trazado_200371" data-name="Trazado 200371" d="M402.679,456.316,396,462.994l-6.678-6.678" fill="none" stroke="#d100c9" stroke-linecap="round" stroke-linejoin="round" stroke-width="2"/>
    <line id="Línea_524" data-name="Línea 524" y1="183.082" x2="90.391" transform="translate(305.611 185.039)" fill="none" stroke="#d100c9" stroke-linecap="round" stroke-linejoin="round" stroke-width="2"/>
    <path id="Trazado_200372" data-name="Trazado 200372" d="M316.2,364.981l-10.755,3.14-3.14-10.755" fill="none" stroke="#d100c9" stroke-linecap="round" stroke-linejoin="round" stroke-width="2"/>
    <line id="Línea_525" data-name="Línea 525" x1="91.397" y1="183.082" transform="translate(396.001 185.039)" fill="none" stroke="#d100c9" stroke-linecap="round" stroke-linejoin="round" stroke-width="2"/>
    <path id="Trazado_200373" data-name="Trazado 200373" d="M490.3,358.256l-2.041,10.034-10.034-2.041" fill="none" stroke="#d100c9" stroke-linecap="round" stroke-linejoin="round" stroke-width="2"/>
    <line id="Línea_526" data-name="Línea 526" x1="137.096" y1="68.049" transform="translate(396.001 185.039)" fill="none" stroke="#d100c9" stroke-linecap="round" stroke-linejoin="round" stroke-width="2"/>
    <path id="Trazado_200374" data-name="Trazado 200374" d="M529.579,244.347l4.292,9.311H522.12" fill="none" stroke="#d100c9" stroke-linecap="round" stroke-linejoin="round" stroke-width="2"/>
    <line id="Línea_527" data-name="Línea 527" y1="68.049" x2="137.096" transform="translate(258.906 185.039)" fill="none" stroke="#d100c9" stroke-linecap="round" stroke-linejoin="round" stroke-width="2"/>
    <path id="Trazado_200375" data-name="Trazado 200375" d="M264.123,243.052l-6.139,9.882,12.278-.153" fill="none" stroke="#d100c9" stroke-linecap="round" stroke-linejoin="round" stroke-width="2"/>
  </g>
</svg>
