<svg xmlns="http://www.w3.org/2000/svg" width="280.603" height="149.432" viewBox="0 0 280.603 149.432">
  <g id="Grupo_137428" data-name="Grupo 137428" transform="translate(-38.802 -70.555)">
    <g id="Grupo_137400" data-name="Grupo 137400" transform="translate(275.76 168.423)">
      <path id="Trazado_200376" data-name="Trazado 200376" d="M634.715,334.82s-3.91-11.418-2.346-15.8,4.536,2.034,4.692,7.039,5.162.625,1.877-10.793-3.6-17.361,0-17.518,7.038,9.854,7.038,21.741,3.754,10.948,7.977,3.6,4.288,5.285-.626,16.423c-2.346,5.318,1.877,9.228,1.877,9.228H640.189Z" transform="translate(-613.425 -297.749)" fill="#d9f6ff"/>
      <path id="Trazado_200377" data-name="Trazado 200377" d="M598.283,361.334h20.646s-4.536-1.408-4.692-9.228-3.285-9.854-7.664-10.323.156-10.167-5.318-12.513-2.19-4.849-7.038-8.915-7.664,4.849-2.816,10.167.939,7.038.47,12.357,3.128,7.82,6.1,8.759S598.283,361.334,598.283,361.334Z" transform="translate(-588.881 -310.029)" fill="#a6ebff"/>
    </g>
    <g id="Grupo_137404" data-name="Grupo 137404" transform="translate(196.109 89.506)">
      <g id="Grupo_137402" data-name="Grupo 137402" transform="translate(3.838 1.088)">
        <path id="Trazado_200378" data-name="Trazado 200378" d="M451.942,204.385c-5.914-3.263-34.055,33.851-37.93,51.388-5.133,23.236,8.7,21.412,13.527,18.557S482.832,221.428,451.942,204.385Z" transform="translate(-412.888 -166.659)" fill="#fba6ee"/>
        <path id="Trazado_200379" data-name="Trazado 200379" d="M496.4,198.465s3.39,1.2,9.572,12.165,8.149,80.065,8.149,80.065H455.492s.466-77.807,17.2-89.7S496.4,198.465,496.4,198.465Z" transform="translate(-437.139 -161.408)" fill="#b6a6eb"/>
        <path id="Trazado_200380" data-name="Trazado 200380" d="M493.642,150.861c.5,3.091,3.091,5.584,5.584,5.883l.419,5.417.379,4.854,11.467-4.686-.86-9.622,3.2-15.77s-13.2-11.2-20.183-2.328C493.642,134.608,493.143,147.77,493.642,150.861Z" transform="translate(-458.729 -125.109)" fill="#ff966f"/>
        <path id="Trazado_200381" data-name="Trazado 200381" d="M506.9,183.441l.419,5.417c.08-.016.164-.04.247-.064,6.382-1.8,8.24-10.706,8.24-10.706A12.634,12.634,0,0,1,506.9,183.441Z" transform="translate(-466.401 -151.805)" fill="#d1664e"/>
        <ellipse id="Elipse_4975" data-name="Elipse 4975" cx="0.814" cy="1.113" rx="0.814" ry="1.113" transform="translate(41.419 17.659)" fill="#005469"/>
        <path id="Trazado_200382" data-name="Trazado 200382" d="M495.034,159.318c0,.615.364,1.114.814,1.114s.814-.5.814-1.114-.364-1.114-.814-1.114S495.034,158.7,495.034,159.318Z" transform="translate(-459.648 -140.487)" fill="#005469"/>
        <g id="Grupo_137401" data-name="Grupo 137401" transform="translate(36.575 19.57)">
          <path id="Trazado_200383" data-name="Trazado 200383" d="M499.87,167.292a.2.2,0,0,0,.061-.389c-.517-.167-1.837-.766-1.733-1.528a7.711,7.711,0,0,1,1.235-2.552.2.2,0,0,0-.323-.234,7.951,7.951,0,0,0-1.307,2.732c-.17,1.248,1.917,1.933,2.006,1.962A.2.2,0,0,0,499.87,167.292Z" transform="translate(-497.793 -162.506)" fill="#c66442"/>
        </g>
        <path id="Trazado_200384" data-name="Trazado 200384" d="M486.986,119.167s-7.392-4.486-12.49,1.376,1.121,11.828,4.945,12.236a7.843,7.843,0,0,0,6.016-1.682s2.243,2.192,4.537,1.529,2.5-1.173,2.5-1.173-.051,2.651,2.192,3.365c0,0-.815,3.059.51,3.824,0,0,1.173-4.181,3.314-3.569s1.122,4.231.306,5.608a2.8,2.8,0,0,1-2.447,1.274l2.294,3.263s13.408-14.784,5.506-19.322C504.167,125.9,504.473,116.924,486.986,119.167Z" transform="translate(-446.862 -117.331)" fill="#005469"/>
        <ellipse id="Elipse_4976" data-name="Elipse 4976" cx="5.149" cy="5.914" rx="5.149" ry="5.914" transform="translate(55.164)" fill="#005469"/>
        <path id="Trazado_200385" data-name="Trazado 200385" d="M448.158,354.98a6.922,6.922,0,0,1,1.224,4.079c0,2.549-1.224,3.976-1.835,3.976s-1.223-3.467-1.529-4.079l-.306-.612s.238,3.3-.442,3.908-1.971.2-2.583-.2a1.925,1.925,0,0,1-1.767.815,2.379,2.379,0,0,1-1.7-1.155s-.476,1.02-2.311.68-3.263-1.632-3.263-3.127c0,0-7.069-2.311-7.749-2.787s-1.36-4.486,3.195-6.525,10.6,2.787,10.6,2.787S446.357,352.465,448.158,354.98Z" transform="translate(-420.014 -249.348)" fill="#d1664e"/>
        <path id="Trazado_200386" data-name="Trazado 200386" d="M470.81,338.93l-13.866.408s-7.069-2.855-10.842-1.223-4.18,3.671-4.588,5.608-.816,4.486.714,5.506,2.141-3.161,2.141-3.161a15.289,15.289,0,0,0,5.914,2.753,7.544,7.544,0,0,0,4.792-.51l16.518,2.753Z" transform="translate(-428.969 -242.61)" fill="#ff966f"/>
        <path id="Trazado_200387" data-name="Trazado 200387" d="M500.731,194.943c-1,1.332-2.5,3.976.714,6.627s16.161-4.129,17.486-6.577-2.651-5.353-4.537-5.149c0,0-6.576,7.829-11.292,5.7l-.23-3S501.214,194.3,500.731,194.943Z" transform="translate(-462.187 -158.492)" fill="#fba6ee"/>
        <path id="Trazado_200388" data-name="Trazado 200388" d="M516.54,268.805s-2.855-38.133,5.3-46.086,15.906,13.459,17.538,24.063,4.486,38.745.612,41.8-38.337,2.447-38.337,2.447-4.079-7.341-1.836-20.392Z" transform="translate(-461.988 -176.224)" fill="#fba6ee"/>
        <path id="Trazado_200389" data-name="Trazado 200389" d="M502.208,176.5l3.067.184s-.572,2.332-1.792,2.172S502.208,176.5,502.208,176.5Z" transform="translate(-463.731 -150.899)" fill="#fff"/>
        <path id="Trazado_200390" data-name="Trazado 200390" d="M542.524,335.628s8.565,11.147,9.924,10.468-8.7-11.42-8.7-11.42" transform="translate(-486.681 -240.94)" fill="none" stroke="#979b9b" stroke-miterlimit="10" stroke-width="1"/>
        <path id="Trazado_200391" data-name="Trazado 200391" d="M509.331,337.2s-1.733,13.153,1.53,17.843" transform="translate(-467.525 -242.377)" fill="none" stroke="#979b9b" stroke-miterlimit="10" stroke-width="1"/>
        <path id="Trazado_200392" data-name="Trazado 200392" d="M434.767,327.551s-7.477-3.671-12.1,0-.714-3.127,3.161-3.433a13.564,13.564,0,0,1,6.424.918" transform="translate(-417.261 -234.902)" fill="none" stroke="#979b9b" stroke-miterlimit="10" stroke-width="1"/>
      </g>
      <g id="Grupo_137403" data-name="Grupo 137403">
        <path id="Trazado_200393" data-name="Trazado 200393" d="M423.673,114.549H409.027a5.048,5.048,0,0,0-5.048,5.048v6.968a5.048,5.048,0,0,0,5.048,5.048h9.309l3.906,4.313a.863.863,0,0,0,1.5-.579v-3.737a5.046,5.046,0,0,0,4.977-5.044V119.6A5.048,5.048,0,0,0,423.673,114.549Z" transform="translate(-403.979 -114.549)" fill="#009fcf"/>
        <circle id="Elipse_4977" data-name="Elipse 4977" cx="1.529" cy="1.529" r="1.529" transform="translate(3.739 6.798)" fill="#fff"/>
        <path id="Trazado_200394" data-name="Trazado 200394" d="M432.285,131.859a1.529,1.529,0,1,1-1.529-1.529A1.529,1.529,0,0,1,432.285,131.859Z" transform="translate(-418.35 -123.532)" fill="#fff"/>
        <circle id="Elipse_4978" data-name="Elipse 4978" cx="1.529" cy="1.529" r="1.529" transform="translate(17.554 6.798)" fill="#fff"/>
      </g>
    </g>
    <g id="Grupo_137412" data-name="Grupo 137412" transform="translate(67.774 81.622)">
      <g id="Grupo_137410" data-name="Grupo 137410" transform="translate(0 7.369)">
        <path id="Trazado_200395" data-name="Trazado 200395" d="M326.681,132.964s4.387,1.994,3.29,10.171-6.481,8.774-6.481,8.774Z" transform="translate(-229.827 -124.516)" fill="#005469"/>
        <g id="Grupo_137409" data-name="Grupo 137409">
          <g id="Grupo_137406" data-name="Grupo 137406" transform="translate(0 32.745)">
            <path id="Trazado_200396" data-name="Trazado 200396" d="M245.374,387.261H227.711v-22.48l17.79,4.036Z" transform="translate(-175.307 -289.218)" fill="#24009d"/>
            <rect id="Rectángulo_41951" data-name="Rectángulo 41951" width="17.663" height="22.48" transform="translate(55.501 75.563)" fill="#b6a6eb"/>
            <path id="Rectángulo_41952" data-name="Rectángulo 41952" d="M16.508,0h99.564a0,0,0,0,1,0,0V81.663a0,0,0,0,1,0,0H16.508A16.508,16.508,0,0,1,0,65.155V16.508A16.508,16.508,0,0,1,16.508,0Z" fill="#24009d"/>
            <path id="Rectángulo_41953" data-name="Rectángulo 41953" d="M16.508,0h87.05a12.514,12.514,0,0,1,12.514,12.514V69.149a12.514,12.514,0,0,1-12.514,12.514H16.508A16.508,16.508,0,0,1,0,65.155V16.508A16.508,16.508,0,0,1,16.508,0Z" transform="translate(7.111)" fill="#b6a6eb"/>
            <path id="Rectángulo_41954" data-name="Rectángulo 41954" d="M14.839,0H93.086a11.249,11.249,0,0,1,11.249,11.249V62.157A11.249,11.249,0,0,1,93.086,73.405H14.839A14.839,14.839,0,0,1,0,58.567V14.839A14.839,14.839,0,0,1,14.839,0Z" transform="translate(14.586 3.785)" fill="#cefbff"/>
            <path id="Rectángulo_41955" data-name="Rectángulo 41955" d="M12.925,0H82.564a9.8,9.8,0,0,1,9.8,9.8V53.114a9.8,9.8,0,0,1-9.8,9.8H12.925A12.925,12.925,0,0,1,0,49.987V12.925A12.925,12.925,0,0,1,12.925,0Z" transform="translate(21.14 8.828)" fill="#b4eeef"/>
            <path id="Trazado_200397" data-name="Trazado 200397" d="M235.326,378.8l17.376,4.645.086-4.9Z" transform="translate(-179.642 -297.051)" fill="#24009d"/>
            <g id="Grupo_137405" data-name="Grupo 137405" transform="translate(27.054 14.537)">
              <circle id="Elipse_4979" data-name="Elipse 4979" cx="9.992" cy="9.992" r="9.992" fill="#009fcf"/>
              <path id="Trazado_200398" data-name="Trazado 200398" d="M190.269,235.324h-3.993V231.4h-5v3.926h-3.857v5h3.857v3.926h5V240.32h3.993Z" transform="translate(-173.735 -227.83)" fill="#fff"/>
            </g>
            <rect id="Rectángulo_41956" data-name="Rectángulo 41956" width="21.344" height="1.767" transform="translate(26.782 37.581)" fill="#8fcccc"/>
            <rect id="Rectángulo_41957" data-name="Rectángulo 41957" width="21.344" height="1.767" transform="translate(26.782 42.611)" fill="#8fcccc"/>
            <rect id="Rectángulo_41958" data-name="Rectángulo 41958" width="21.344" height="1.767" transform="translate(26.782 47.641)" fill="#8fcccc"/>
          </g>
          <g id="Grupo_137408" data-name="Grupo 137408" transform="translate(47.995)">
            <path id="Trazado_200399" data-name="Trazado 200399" d="M420.1,216.815a3.9,3.9,0,0,0,1.346,3.291c1.645,1.546,4.287,1,4.287,1l-1.1-7.827A4.235,4.235,0,0,0,420.1,216.815Z" transform="translate(-332.804 -170.227)" fill="#8c999b"/>
            <path id="Trazado_200400" data-name="Trazado 200400" d="M236.819,191.522s-3.391,1.2-9.573,12.165-9.772,62.22-9.772,62.22h58.63s1.157-59.963-15.575-71.861S236.819,191.522,236.819,191.522Z" transform="translate(-217.475 -155.852)" fill="#fff"/>
            <path id="Trazado_200401" data-name="Trazado 200401" d="M323.49,229.026s7.279,20.74,24.13,24.728,20.441-22.236,20.441-22.236" transform="translate(-277.822 -179.197)" fill="none" stroke="#033844" stroke-miterlimit="10" stroke-width="3"/>
            <path id="Trazado_200402" data-name="Trazado 200402" d="M383.75,231.839l5.784-3.889s4.188-7.279,6.381-8.675,6.78-2.094,7.977-1.2-4.088,2.891-4.088,2.891,4.188.4,3.59,2.493a2.687,2.687,0,0,1,.8,3.291,2.862,2.862,0,0,1,.2,2.991c-.9,1.5-3.989,4.088-6.681,4.188l-8.176,8.575Z" transform="translate(-312.124 -172.737)" fill="#ff966f"/>
            <path id="Trazado_200403" data-name="Trazado 200403" d="M239.944,218.765a11.769,11.769,0,0,0-3.581,13.319c3.9,10.255,11.5,27.263,20.832,32.971,13.694,8.376,38.688-1.329,49.058-21.538l-7.578-16.087s-20.474,14.757-26.191,14.757c-3.285,0-9.818-10.755-14.782-19.9a11.765,11.765,0,0,0-17.758-3.519Z" transform="translate(-227.789 -171.856)" fill="#dddcdb"/>
            <path id="Trazado_200404" data-name="Trazado 200404" d="M303.163,148.733c-.5,3.091-3.091,5.584-5.584,5.883l-.419,5.416-.379,4.854L285.314,160.2l-3.49-28.717s14.359-7.877,21.339,1C303.163,132.48,303.661,145.642,303.163,148.733Z" transform="translate(-254.104 -121.838)" fill="#ff966f"/>
            <path id="Trazado_200405" data-name="Trazado 200405" d="M291.546,185.663s.532,10.1,6.847,14.159,8.176.4,7.644-2.924a49.321,49.321,0,0,0-2.659-9.639" transform="translate(-259.638 -154.514)" fill="none" stroke="#033844" stroke-miterlimit="10" stroke-width="3"/>
            <path id="Trazado_200406" data-name="Trazado 200406" d="M306.628,182.371l-.419,5.416c-.08-.016-.164-.04-.247-.064-6.381-1.795-8.24-10.705-8.24-10.705A12.634,12.634,0,0,0,306.628,182.371Z" transform="translate(-263.154 -149.593)" fill="#d1664e"/>
            <path id="Trazado_200407" data-name="Trazado 200407" d="M275.545,123.994a2.923,2.923,0,0,0-3.457-.5c-1.795,1.13.2,5.65-4.121,6.448s-5.983-.2-7.312,2.858,3.39,9.174-1.263,18.015-15.156,13.428-20.807,10.437-6.847-10.171-3.191-13.96,6.648-5.517,5.185-10.7,2.526-11.168,6.913-12.7,4.853-11.234,14.758-10.5S275.877,119.241,275.545,123.994Z" transform="translate(-226.487 -113.352)" fill="#005469"/>
            <ellipse id="Elipse_4980" data-name="Elipse 4980" cx="3.41" cy="3.925" rx="3.41" ry="3.925" transform="translate(37.862 15.77)" fill="none" stroke="#033844" stroke-miterlimit="10" stroke-width="1"/>
            <ellipse id="Elipse_4981" data-name="Elipse 4981" cx="3.184" cy="3.925" rx="3.184" ry="3.925" transform="translate(46.18 15.642)" fill="none" stroke="#033844" stroke-miterlimit="10" stroke-width="1"/>
            <ellipse id="Elipse_4982" data-name="Elipse 4982" cx="0.814" cy="1.113" rx="0.814" ry="1.113" transform="translate(40.925 18.802)" fill="#005469"/>
            <path id="Trazado_200408" data-name="Trazado 200408" d="M328.11,158.248c0,.615-.364,1.114-.814,1.114s-.813-.5-.813-1.114.364-1.114.813-1.114S328.11,157.632,328.11,158.248Z" transform="translate(-279.526 -138.274)" fill="#005469"/>
            <g id="Grupo_137407" data-name="Grupo 137407" transform="translate(45.12 20.713)">
              <path id="Trazado_200409" data-name="Trazado 200409" d="M322.416,166.222a.2.2,0,0,1-.061-.389c.517-.166,1.837-.766,1.733-1.528a7.725,7.725,0,0,0-1.235-2.552.2.2,0,0,1,.323-.234,7.948,7.948,0,0,1,1.308,2.732c.17,1.248-1.917,1.933-2.007,1.962A.2.2,0,0,1,322.416,166.222Z" transform="translate(-322.217 -161.436)" fill="#c66442"/>
            </g>
            <path id="Trazado_200410" data-name="Trazado 200410" d="M318.137,174.7l-3.058-.3s.2,2.393,1.429,2.427S318.137,174.7,318.137,174.7Z" transform="translate(-273.034 -148.101)" fill="#fff"/>
            <path id="Trazado_200411" data-name="Trazado 200411" d="M318.86,223.159l1.147,3.041,1.895-.8-1.346-2.742Z" transform="translate(-275.187 -175.574)" fill="#8c999b"/>
            <path id="Trazado_200412" data-name="Trazado 200412" d="M430.662,210.211l3.822-2.327,1,10.769-3.723-.615Z" transform="translate(-338.827 -167.163)" fill="#aab1b2"/>
            <line id="Línea_528" data-name="Línea 528" x2="3.523" y2="4.653" transform="translate(78.507 55.213)" fill="none" stroke="#c66442" stroke-linecap="round" stroke-miterlimit="10" stroke-width="1"/>
            <line id="Línea_529" data-name="Línea 529" x1="2.892" y2="0.066" transform="translate(88.046 50.494)" fill="none" stroke="#c66442" stroke-linecap="round" stroke-miterlimit="10" stroke-width="1"/>
            <line id="Línea_530" data-name="Línea 530" x1="2.892" y2="0.133" transform="translate(88.611 53.984)" fill="none" stroke="#c66442" stroke-linecap="round" stroke-miterlimit="10" stroke-width="1"/>
            <path id="Trazado_200413" data-name="Trazado 200413" d="M314,282.531s-2.393,10.37-3.723,10.237,2.128-10.5,2.128-10.5" transform="translate(-270.129 -209.502)" fill="none" stroke="#979b9b" stroke-miterlimit="10" stroke-width="1"/>
            <line id="Línea_531" data-name="Línea 531" x2="10.104" y2="14.89" transform="translate(64.879 60.531)" fill="none" stroke="#979b9b" stroke-miterlimit="10" stroke-width="1"/>
            <ellipse id="Elipse_4983" data-name="Elipse 4983" cx="0.395" cy="0.408" rx="0.395" ry="0.408" transform="translate(36.438 22.939)" fill="#d1664e"/>
            <path id="Trazado_200414" data-name="Trazado 200414" d="M307.847,169.252a.319.319,0,1,1-.318-.312A.315.315,0,0,1,307.847,169.252Z" transform="translate(-268.555 -144.994)" fill="#d1664e"/>
            <path id="Trazado_200415" data-name="Trazado 200415" d="M304.794,170.537a.286.286,0,1,1-.286-.3A.291.291,0,0,1,304.794,170.537Z" transform="translate(-266.854 -145.735)" fill="#d1664e"/>
            <path id="Trazado_200416" data-name="Trazado 200416" d="M327.98,171.087a.319.319,0,1,0,.319-.312A.316.316,0,0,0,327.98,171.087Z" transform="translate(-280.378 -146.039)" fill="#d1664e"/>
            <path id="Trazado_200417" data-name="Trazado 200417" d="M329.979,169.29a.286.286,0,1,0,.286-.3A.29.29,0,0,0,329.979,169.29Z" transform="translate(-281.516 -145.026)" fill="#d1664e"/>
          </g>
        </g>
      </g>
      <g id="Grupo_137411" data-name="Grupo 137411" transform="translate(36.978 0)">
        <path id="Trazado_200418" data-name="Trazado 200418" d="M211.594,96.245H196.948a5.048,5.048,0,0,0-5.048,5.048v6.968a5.048,5.048,0,0,0,5.048,5.048h9.309l3.906,4.313a.863.863,0,0,0,1.5-.579v-3.737a5.046,5.046,0,0,0,4.977-5.044v-6.968A5.048,5.048,0,0,0,211.594,96.245Z" transform="translate(-191.9 -96.245)" fill="#fba6ee"/>
        <path id="Trazado_200419" data-name="Trazado 200419" d="M203.874,113.633a1.529,1.529,0,1,1-1.529-1.529A1.529,1.529,0,0,1,203.874,113.633Z" transform="translate(-196.975 -105.272)" fill="#fff"/>
        <path id="Trazado_200420" data-name="Trazado 200420" d="M220.443,113.633a1.529,1.529,0,1,1-1.529-1.529A1.53,1.53,0,0,1,220.443,113.633Z" transform="translate(-206.406 -105.272)" fill="#fff"/>
        <path id="Trazado_200421" data-name="Trazado 200421" d="M235.947,113.633a1.529,1.529,0,1,1-1.53-1.529A1.53,1.53,0,0,1,235.947,113.633Z" transform="translate(-215.232 -105.272)" fill="#fff"/>
      </g>
    </g>
    <g id="Grupo_137413" data-name="Grupo 137413" transform="translate(45.236 75.548)">
      <path id="Trazado_200422" data-name="Trazado 200422" d="M413.467,172.5h-.728a.514.514,0,0,1-.514-.514v-.9a.514.514,0,0,0-.514-.514h-1.456a.514.514,0,0,0-.514.514v.9a.514.514,0,0,1-.514.514H408.5a.514.514,0,0,0-.514.514v1.456a.514.514,0,0,0,.514.514h.728a.514.514,0,0,1,.514.514v.814a.514.514,0,0,0,.514.514h1.456a.514.514,0,0,0,.514-.514v-.814a.514.514,0,0,1,.514-.514h.728a.514.514,0,0,0,.514-.514v-1.456A.514.514,0,0,0,413.467,172.5Z" transform="translate(-255.386 -132.478)" fill="#a6ebff"/>
      <path id="Trazado_200423" data-name="Trazado 200423" d="M657.761,88.294h-.774a.546.546,0,0,1-.546-.546v-.955a.546.546,0,0,0-.546-.546h-1.547a.546.546,0,0,0-.546.546v.955a.546.546,0,0,1-.546.546h-.774a.546.546,0,0,0-.546.546v1.547a.546.546,0,0,0,.546.546h.774a.546.546,0,0,1,.546.546v.865a.546.546,0,0,0,.546.546H655.9a.546.546,0,0,0,.546-.546v-.865a.546.546,0,0,1,.546-.546h.774a.546.546,0,0,0,.546-.546V88.84A.546.546,0,0,0,657.761,88.294Z" transform="translate(-394.251 -84.479)" fill="#a6ebff"/>
      <path id="Trazado_200424" data-name="Trazado 200424" d="M59.222,294.889h-.728a.514.514,0,0,1-.514-.514v-.9a.514.514,0,0,0-.514-.514H56.009a.514.514,0,0,0-.514.514v.9a.514.514,0,0,1-.514.514h-.728a.514.514,0,0,0-.514.514v1.456a.514.514,0,0,0,.514.514h.728a.514.514,0,0,1,.514.514v.814a.514.514,0,0,0,.514.514h1.456a.514.514,0,0,0,.514-.514v-.814a.514.514,0,0,1,.514-.514h.728a.514.514,0,0,0,.514-.514V295.4A.514.514,0,0,0,59.222,294.889Z" transform="translate(-53.739 -202.148)" fill="#a6ebff"/>
      <path id="Trazado_200425" data-name="Trazado 200425" d="M294.654,84.073h-.728a.514.514,0,0,1-.514-.514v-.9a.514.514,0,0,0-.514-.514h-1.456a.514.514,0,0,0-.514.514v.9a.514.514,0,0,1-.514.514h-.728a.514.514,0,0,0-.514.514v1.456a.514.514,0,0,0,.514.514h.728a.514.514,0,0,1,.514.514v.814a.514.514,0,0,0,.514.514H292.9a.514.514,0,0,0,.514-.514v-.814a.514.514,0,0,1,.514-.514h.728a.514.514,0,0,0,.514-.514V84.587A.514.514,0,0,0,294.654,84.073Z" transform="translate(-187.754 -82.145)" fill="#a6ebff"/>
      <path id="Trazado_200426" data-name="Trazado 200426" d="M155.75,392.075h-.728a.514.514,0,0,1-.514-.514v-.9a.514.514,0,0,0-.514-.514h-1.456a.514.514,0,0,0-.514.514v.9a.514.514,0,0,1-.514.514h-.728a.514.514,0,0,0-.514.514v1.456a.514.514,0,0,0,.514.514h.728a.514.514,0,0,1,.514.514v.814a.514.514,0,0,0,.514.514h1.456a.514.514,0,0,0,.514-.514v-.814a.514.514,0,0,1,.514-.514h.728a.514.514,0,0,0,.514-.514v-1.456A.514.514,0,0,0,155.75,392.075Z" transform="translate(-108.686 -257.469)" fill="#a6ebff"/>
      <path id="Trazado_200427" data-name="Trazado 200427" d="M83.838,136.461H83.11a.514.514,0,0,1-.514-.514v-.9a.514.514,0,0,0-.514-.514H80.626a.514.514,0,0,0-.514.514v.9a.514.514,0,0,1-.514.514h-.728a.515.515,0,0,0-.514.514v1.456a.514.514,0,0,0,.514.514H79.6a.514.514,0,0,1,.514.514v.814a.514.514,0,0,0,.514.514h1.456a.514.514,0,0,0,.514-.514v-.814a.515.515,0,0,1,.514-.514h.728a.514.514,0,0,0,.514-.514v-1.456A.514.514,0,0,0,83.838,136.461Z" transform="translate(-67.751 -111.966)" fill="#a6ebff"/>
      <circle id="Elipse_4984" data-name="Elipse 4984" cx="1.835" cy="1.835" r="1.835" transform="translate(5.162 56.443)" fill="#a6ebff"/>
      <circle id="Elipse_4985" data-name="Elipse 4985" cx="1.835" cy="1.835" r="1.835" transform="translate(51.657 34.147)" fill="#a6ebff"/>
      <path id="Trazado_200428" data-name="Trazado 200428" d="M374.67,131.06a1.835,1.835,0,1,1-1.835-1.835A1.835,1.835,0,0,1,374.67,131.06Z" transform="translate(-234.333 -108.944)" fill="#a6ebff"/>
      <circle id="Elipse_4986" data-name="Elipse 4986" cx="1.835" cy="1.835" r="1.835" transform="translate(240.259 76.291)" fill="#a6ebff"/>
      <circle id="Elipse_4987" data-name="Elipse 4987" cx="1.835" cy="1.835" r="1.835" transform="translate(219.867 42.576)" fill="#a6ebff"/>
      <circle id="Elipse_4988" data-name="Elipse 4988" cx="1.835" cy="1.835" r="1.835" transform="translate(173.601 2.41)" fill="#a6ebff"/>
      <path id="Trazado_200429" data-name="Trazado 200429" d="M666.91,127.747a1.835,1.835,0,1,1-1.836-1.836A1.835,1.835,0,0,1,666.91,127.747Z" transform="translate(-400.685 -107.058)" fill="#a6ebff"/>
    </g>
    <g id="Grupo_137425" data-name="Grupo 137425" transform="translate(45.652 70.555)">
      <g id="Grupo_137418" data-name="Grupo 137418" transform="translate(231.4 31.742)">
        <rect id="Rectángulo_41959" data-name="Rectángulo 41959" width="24.471" height="31.2" rx="9.231" transform="translate(9.478) rotate(17.686)" fill="#24009d"/>
        <rect id="Rectángulo_41960" data-name="Rectángulo 41960" width="21.061" height="27.187" rx="4.702" transform="translate(10.549 2.265) rotate(17.685)" fill="#dddcdb"/>
        <g id="Grupo_137414" data-name="Grupo 137414" transform="translate(12.16 6.654)">
          <rect id="Rectángulo_41961" data-name="Rectángulo 41961" width="15.039" height="0.765" transform="matrix(0.949, 0.316, -0.316, 0.949, 0.241, 0)" fill="#c1c1c1"/>
          <rect id="Rectángulo_41962" data-name="Rectángulo 41962" width="12.592" height="0.765" transform="translate(0.887 1.612) rotate(18.399)" fill="#c1c1c1"/>
          <rect id="Rectángulo_41963" data-name="Rectángulo 41963" width="9.992" height="0.765" transform="translate(1.872 3.175) rotate(18.399)" fill="#c1c1c1"/>
        </g>
        <g id="Grupo_137415" data-name="Grupo 137415" transform="translate(10.631 11.651)">
          <rect id="Rectángulo_41964" data-name="Rectángulo 41964" width="15.039" height="0.765" transform="translate(0.241) rotate(18.399)" fill="#c1c1c1"/>
          <rect id="Rectángulo_41965" data-name="Rectángulo 41965" width="12.592" height="0.765" transform="translate(0.887 1.612) rotate(18.399)" fill="#c1c1c1"/>
          <rect id="Rectángulo_41966" data-name="Rectángulo 41966" width="9.992" height="0.765" transform="translate(1.872 3.175) rotate(18.399)" fill="#c1c1c1"/>
        </g>
        <g id="Grupo_137416" data-name="Grupo 137416" transform="translate(8.999 16.086)">
          <rect id="Rectángulo_41967" data-name="Rectángulo 41967" width="15.039" height="0.765" transform="translate(0.241 0) rotate(18.399)" fill="#c1c1c1"/>
          <rect id="Rectángulo_41968" data-name="Rectángulo 41968" width="12.592" height="0.765" transform="translate(0.887 1.612) rotate(18.399)" fill="#c1c1c1"/>
          <rect id="Rectángulo_41969" data-name="Rectángulo 41969" width="9.992" height="0.765" transform="translate(1.872 3.175) rotate(18.399)" fill="#c1c1c1"/>
        </g>
        <g id="Grupo_137417" data-name="Grupo 137417" transform="translate(7.572 20.725)">
          <rect id="Rectángulo_41970" data-name="Rectángulo 41970" width="15.039" height="0.765" transform="translate(0.241) rotate(18.399)" fill="#c1c1c1"/>
          <rect id="Rectángulo_41971" data-name="Rectángulo 41971" width="12.592" height="0.765" transform="translate(0.887 1.612) rotate(18.399)" fill="#c1c1c1"/>
          <rect id="Rectángulo_41972" data-name="Rectángulo 41972" width="9.992" height="0.765" transform="translate(1.872 3.175) rotate(18.399)" fill="#c1c1c1"/>
        </g>
        <path id="Rectángulo_41973" data-name="Rectángulo 41973" d="M0,0H7.832a0,0,0,0,1,0,0V.242A2.973,2.973,0,0,1,4.859,3.215H2.973A2.973,2.973,0,0,1,0,.242V0A0,0,0,0,1,0,0Z" transform="translate(17.453 3.581) rotate(18.262)" fill="none" stroke="#555189" stroke-miterlimit="10" stroke-width="2"/>
      </g>
      <g id="Grupo_137419" data-name="Grupo 137419" transform="translate(16.352 10.273)">
        <rect id="Rectángulo_41974" data-name="Rectángulo 41974" width="15.772" height="29.504" rx="3.805" transform="matrix(0.946, -0.325, 0.325, 0.946, 0, 5.12)" fill="#dddcdb"/>
        <rect id="Rectángulo_41975" data-name="Rectángulo 41975" width="13.554" height="0.68" transform="translate(2.955 10.192) rotate(-18.319)" fill="#c1c1c1"/>
        <rect id="Rectángulo_41976" data-name="Rectángulo 41976" width="13.554" height="0.68" transform="translate(4.714 15.161) rotate(-18.319)" fill="#c1c1c1"/>
        <rect id="Rectángulo_41977" data-name="Rectángulo 41977" width="13.554" height="0.68" transform="translate(6.81 20.622) rotate(-18.319)" fill="#c1c1c1"/>
        <rect id="Rectángulo_41978" data-name="Rectángulo 41978" width="13.554" height="0.68" transform="translate(8.568 25.591) rotate(-18.319)" fill="#c1c1c1"/>
        <path id="Trazado_200430" data-name="Trazado 200430" d="M102.811,108.263a1.761,1.761,0,1,1-2.124-1.188A1.721,1.721,0,0,1,102.811,108.263Z" transform="translate(-96.472 -101.582)" fill="#009fcf"/>
        <path id="Trazado_200431" data-name="Trazado 200431" d="M120.5,102.467a1.761,1.761,0,1,1-2.124-1.188A1.722,1.722,0,0,1,120.5,102.467Z" transform="translate(-106.543 -98.283)" fill="#009fcf"/>
        <path id="Trazado_200432" data-name="Trazado 200432" d="M107.3,120.426a1.761,1.761,0,1,1-2.124-1.189A1.722,1.722,0,0,1,107.3,120.426Z" transform="translate(-99.027 -108.506)" fill="#009fcf"/>
        <path id="Trazado_200433" data-name="Trazado 200433" d="M124.992,114.63a1.761,1.761,0,1,1-2.124-1.189A1.722,1.722,0,0,1,124.992,114.63Z" transform="translate(-109.099 -105.207)" fill="#009fcf"/>
        <path id="Trazado_200434" data-name="Trazado 200434" d="M111.585,132.276a1.761,1.761,0,1,1-2.124-1.188A1.722,1.722,0,0,1,111.585,132.276Z" transform="translate(-101.467 -115.251)" fill="#009fcf"/>
        <path id="Trazado_200435" data-name="Trazado 200435" d="M129.278,126.48a1.761,1.761,0,1,1-2.124-1.188A1.722,1.722,0,0,1,129.278,126.48Z" transform="translate(-111.538 -111.952)" fill="#009fcf"/>
        <path id="Trazado_200436" data-name="Trazado 200436" d="M116.444,143.977a1.761,1.761,0,1,1-2.124-1.188A1.722,1.722,0,0,1,116.444,143.977Z" transform="translate(-104.233 -121.912)" fill="#009fcf"/>
        <path id="Trazado_200437" data-name="Trazado 200437" d="M134.137,138.181a1.761,1.761,0,1,1-2.124-1.188A1.722,1.722,0,0,1,134.137,138.181Z" transform="translate(-114.304 -118.612)" fill="#009fcf"/>
        <path id="Trazado_200438" data-name="Trazado 200438" d="M121.217,155.823a1.761,1.761,0,1,1-2.124-1.189A1.722,1.722,0,0,1,121.217,155.823Z" transform="translate(-106.95 -128.655)" fill="#009fcf"/>
        <path id="Trazado_200439" data-name="Trazado 200439" d="M138.91,150.026a1.76,1.76,0,1,1-2.124-1.189A1.722,1.722,0,0,1,138.91,150.026Z" transform="translate(-117.021 -125.355)" fill="#009fcf"/>
      </g>
      <g id="Grupo_137421" data-name="Grupo 137421" transform="translate(0 73.226)">
        <path id="Trazado_200440" data-name="Trazado 200440" d="M61.989,255.438a2.855,2.855,0,1,1-2.855-2.855A2.855,2.855,0,0,1,61.989,255.438Z" transform="translate(-55.601 -247.397)" fill="#ff6878"/>
        <path id="Trazado_200441" data-name="Trazado 200441" d="M60.414,255.438a2.839,2.839,0,0,1-1.187,2.312,2.525,2.525,0,0,1-.677.363,2.745,2.745,0,0,1-.991.179,2.852,2.852,0,0,1-1.986-4.9,2.788,2.788,0,0,1,.624-.465,2.86,2.86,0,0,1,4.217,2.512Z" transform="translate(-54.704 -247.397)" fill="#f995a4"/>
        <path id="Trazado_200442" data-name="Trazado 200442" d="M60.756,258.108a2.512,2.512,0,0,1-.682.373l-3-4.862a2.832,2.832,0,0,1,.628-.479Z" transform="translate(-56.054 -247.714)" fill="#ff6878"/>
        <g id="Grupo_137420" data-name="Grupo 137420" transform="translate(8.733)">
          <path id="Trazado_200443" data-name="Trazado 200443" d="M80.169,242.3l2.277,6.224a2.677,2.677,0,0,1-5.029,1.84L75.14,244.14a2.677,2.677,0,1,1,5.029-1.84Z" transform="translate(-74.977 -240.544)" fill="#96d5ff"/>
          <path id="Trazado_200444" data-name="Trazado 200444" d="M80.169,242.3l1.253,3.424-5.029,1.84L75.14,244.14a2.677,2.677,0,1,1,5.029-1.84Z" transform="translate(-74.977 -240.544)" fill="#00c5ff"/>
        </g>
      </g>
      <g id="Grupo_137423" data-name="Grupo 137423" transform="translate(254.092 78.459)">
        <path id="Trazado_200445" data-name="Trazado 200445" d="M670.769,277.214a2.855,2.855,0,1,1-2.855-2.855A2.855,2.855,0,0,1,670.769,277.214Z" transform="translate(-656.228 -265.026)" fill="#93007c"/>
        <path id="Trazado_200446" data-name="Trazado 200446" d="M669.194,277.214a2.839,2.839,0,0,1-1.187,2.312,2.523,2.523,0,0,1-.677.363,2.745,2.745,0,0,1-.991.179,2.852,2.852,0,0,1-1.986-4.9,2.79,2.79,0,0,1,.624-.465,2.86,2.86,0,0,1,4.217,2.512Z" transform="translate(-655.331 -265.026)" fill="#fba6ee"/>
        <path id="Trazado_200447" data-name="Trazado 200447" d="M669.536,279.884a2.519,2.519,0,0,1-.682.373l-3-4.862a2.831,2.831,0,0,1,.628-.479Z" transform="translate(-656.681 -265.343)" fill="#93007c"/>
        <g id="Grupo_137422" data-name="Grupo 137422">
          <path id="Trazado_200448" data-name="Trazado 200448" d="M653.1,256.831l-3.621,5.551a2.677,2.677,0,0,1-4.485-2.926l3.621-5.551a2.678,2.678,0,1,1,4.485,2.926Z" transform="translate(-644.558 -252.692)" fill="#96d5ff"/>
          <path id="Trazado_200449" data-name="Trazado 200449" d="M655.827,256.831l-1.992,3.054-4.485-2.926,1.992-3.054a2.678,2.678,0,1,1,4.485,2.926Z" transform="translate(-647.286 -252.692)" fill="#009fcf"/>
        </g>
      </g>
      <g id="Grupo_137424" data-name="Grupo 137424" transform="translate(220.558)">
        <path id="Trazado_200450" data-name="Trazado 200450" d="M586.033,77.989c-.024.119-.048.242-.075.361a.532.532,0,0,1-.017.078c-.021.1-.044.191-.068.283-1.357,5.3-7.042,9.879-7.042,9.879s-6.612-1.378-10.063-5.617c-.085-.1-.164-.2-.242-.3a.367.367,0,0,0-.031-.037c-.065-.089-.126-.177-.188-.266a8.594,8.594,0,0,1-1.442-3.383c-1.385-7.366,6.987-7.547,9.108-4.3l-.024-.133c.682-3.833,8.587-6.868,10.07.515A7.857,7.857,0,0,1,586.033,77.989Z" transform="translate(-566.711 -70.555)" fill="#f400ce"/>
        <path id="Trazado_200451" data-name="Trazado 200451" d="M573.75,96.972l-.041.211-2.827.525-.031-.037Z" transform="translate(-569.068 -85.592)" fill="#009fcf"/>
        <path id="Trazado_200452" data-name="Trazado 200452" d="M578.392,87.171l2.23,3.489-.355.085-2.322.559-.365.089Z" transform="translate(-572.898 -80.014)" fill="#009fcf"/>
        <path id="Trazado_200453" data-name="Trazado 200453" d="M584.642,95.256l.048-.01-.017.061Z" transform="translate(-576.918 -84.61)" fill="#009fcf"/>
        <path id="Trazado_200454" data-name="Trazado 200454" d="M585.333,90.148l1.112,1.787-.348.085-.968.232-.375.092Z" transform="translate(-576.981 -81.708)" fill="#009fcf"/>
        <path id="Trazado_200455" data-name="Trazado 200455" d="M589.914,93.495l.351-.085-.31,2.428-1.275-2.046.351-.085Z" transform="translate(-579.216 -83.564)" fill="#009fcf"/>
        <path id="Trazado_200456" data-name="Trazado 200456" d="M592.6,89.055l1.19,1.531-.361.089-.713.171-.358.085Z" transform="translate(-581.312 -81.086)" fill="#009fcf"/>
        <path id="Trazado_200457" data-name="Trazado 200457" d="M602.439,87.383l-4.307,1.037-2.07.5-.368.089.556-2.725,1.408,1.876,4.8-.856Z" transform="translate(-583.209 -79.509)" fill="#009fcf"/>
        <path id="Trazado_200458" data-name="Trazado 200458" d="M588.05,86.311c-.021.1-.044.191-.068.283l-4.239.753-.624.113-1.074-1.436-.372,1.824-.18.887-.553-.709-.593-.764-.119.935-.454,3.509-1.838-2.957-.634-1.023-.334,1.255-.263.993-.515-.8-1.7-2.667-.62,3.226-.113.593-2.878.535c-.085-.1-.164-.2-.242-.3l-.031-.037c-.065-.089-.126-.177-.188-.266l2.756-.511.972-5.047,2.3,3.6.6-2.271,1.593,2.554.709,1.139.174-1.35.361-2.817,1.241,1.6.556-2.745,1.739,2.315,4.726-.846c-.024.119-.048.242-.075.361Z" transform="translate(-568.82 -78.437)" fill="#fff"/>
      </g>
    </g>
    <g id="Grupo_137426" data-name="Grupo 137426" transform="translate(38.802 168.423)">
      <path id="Trazado_200459" data-name="Trazado 200459" d="M84.865,335.006s-3.929-11.475-2.358-15.877,4.558,2.044,4.716,7.074,5.187.628,1.886-10.847-3.615-17.449,0-17.606,7.074,9.9,7.074,21.85,3.773,11,8.017,3.615,4.31,5.311-.628,16.506c-2.358,5.345,1.886,9.274,1.886,9.274H90.367Z" transform="translate(-63.469 -297.749)" fill="#d9f6ff"/>
      <path id="Trazado_200460" data-name="Trazado 200460" d="M48.251,361.653H69s-4.559-1.415-4.716-9.275-3.3-9.9-7.7-10.375.157-10.218-5.345-12.576-2.2-4.873-7.074-8.96-7.7,4.873-2.83,10.218.943,7.074.472,12.418,3.144,7.86,6.131,8.8S48.251,361.653,48.251,361.653Z" transform="translate(-38.802 -310.091)" fill="#a6ebff"/>
    </g>
  </g>
</svg>
