<svg xmlns="http://www.w3.org/2000/svg" width="64.093" height="64.094" viewBox="0 0 64.093 64.094">
  <path id="Trazado_200206" data-name="Trazado 200206" d="M49.164,54.945,38.249,52.9V50.655h-.006a10.774,10.774,0,0,0,.871-.726,10.335,10.335,0,0,0,2.41-3.427,5.165,5.165,0,0,0,5-5.151V28.859a6.3,6.3,0,0,0-4.343-5.981l-.113-.142a13.752,13.752,0,0,0-24.49,8.59V41.351a5.17,5.17,0,0,0,5.089,5.161,10.669,10.669,0,0,0,3.258,4.143h-.077V52.9L14.93,54.945a9.306,9.306,0,0,0-7.111,6.2l-.983,2.947H57.257l-.983-2.947A9.307,9.307,0,0,0,49.164,54.945ZM40.317,36.182H23.777a1.034,1.034,0,0,1,1.034-1.034h4.135a8.463,8.463,0,0,0,6.025-2.5l.178-.178.178.178a8.515,8.515,0,0,0,4.181,2.294,1.022,1.022,0,0,1,.811,1Zm-16.54,5.883V38.249h16.54v4.135H23.791C23.788,42.278,23.777,42.172,23.777,42.065Zm18.415,2.257a10.267,10.267,0,0,0,.192-1.937V38.44a3.083,3.083,0,0,1-.192,5.882ZM31.325,19.642a11.628,11.628,0,0,1,9.123,4.384l.529.662.33.088a4.227,4.227,0,0,1,3.145,4.083v8.384a5.118,5.118,0,0,0-2.068-.955v-.338a3.081,3.081,0,0,0-2.431-3.022,6.424,6.424,0,0,1-3.166-1.737l-1.639-1.639-1.64,1.639a6.411,6.411,0,0,1-4.563,1.89H24.81a3.105,3.105,0,0,0-3.1,3.1v.1a5.13,5.13,0,0,0-2.068.955V31.324A11.7,11.7,0,0,1,31.325,19.642ZM19.642,41.351a3.1,3.1,0,0,1,2.068-2.911v3.625a10.977,10.977,0,0,0,.245,2.272A3.1,3.1,0,0,1,19.642,41.351Zm4.462,3.1H40.048a8.256,8.256,0,0,1-8.555,6.185A8.331,8.331,0,0,1,24.1,44.452ZM31.361,52.7c.233.015.465.022.7.022a10.256,10.256,0,0,0,4.125-.866v1.7a4.223,4.223,0,0,1-4.135,2.266,4.24,4.24,0,0,1-4.135-2.27V51.829A9.95,9.95,0,0,0,31.361,52.7ZM9.705,62.026l.074-.225a7.243,7.243,0,0,1,5.533-4.825L26.3,54.915a6.3,6.3,0,0,0,5.743,2.976,6.3,6.3,0,0,0,5.743-2.975l10.992,2.061A7.245,7.245,0,0,1,54.314,61.8l.074.224Zm4.768-31.013H0V53.756H14.473ZM12.405,51.688H2.068V33.08H12.405ZM10.338,37.216h-6.2V35.148h6.2Zm0,4.135h-6.2V39.283h6.2Zm0,4.135h-6.2V43.418h6.2Zm0,4.135h-6.2V47.553h6.2Zm16.54-36.182H24.81v-6.2h-6.2v6.2H16.54V3.1h-6.2V13.439H8.27V0h-6.2V13.439H0v2.068H26.878ZM20.675,9.3h2.068v4.135H20.675Zm-8.27-4.135h2.068v8.27H12.405Zm-8.27-3.1H6.2V13.439H4.135ZM50.226,0H64.093V2.068H51.082L37.946,15.2l-1.462-1.462Zm1.462,4.135H64.093V6.2H51.688Zm0,4.135H64.093v2.068H51.688Zm10.338,4.135h2.068v2.068H62.026Zm-10.338,0h8.27v2.068h-8.27Zm5.169,11.371h2.068v3.1H56.857Zm-.428,3.279-1.462,1.462-2.193-2.193,1.462-1.462Zm-4.741,1.89h3.1v2.068h-3.1Zm3.279,2.5L56.429,32.9,54.236,35.1l-1.462-1.462Zm1.89,1.639h2.068v3.1H56.857Zm3.957-1.639,2.193,2.193L61.545,35.1,59.353,32.9Zm.178-2.5h3.1v2.068h-3.1Zm-1.64-1.89,2.193-2.193,1.462,1.462-2.193,2.193Zm-2.5,11.194h2.068v7.236H56.857Zm0,9.3h2.068v2.068H56.857Z" fill="#262626"/>
</svg>
