<svg xmlns="http://www.w3.org/2000/svg" width="1028.35" height="714.783" viewBox="0 0 1028.35 714.783">
  <g id="Grupo_239788" data-name="Grupo 239788" transform="translate(-286.649 -17284)">
    <path id="Trazado_200735" data-name="Trazado 200735" d="M128.847,832.442H1153.73L638.9,117.658,128.847,832.442" transform="translate(161.269 17166.342)" fill="#27279d"/>
    <path id="Trazado_200736" data-name="Trazado 200736" d="M847.166,313.808H307.237L192.519,474.582H962.964Z" transform="translate(224.232 17346.764)" fill="#3636d1"/>
    <path id="Trazado_200737" data-name="Trazado 200737" d="M792.2,494.229,520.973,117.658l-268.7,376.572Z" transform="translate(279.195 17166.342)" fill="#4545ff"/>
    <path id="Trazado_200738" data-name="Trazado 200738" d="M474.724,117.658,302.556,358.944H648.513Z" transform="translate(325.444 17166.342)" fill="#bebeff"/>
    <path id="Trazado_231839" data-name="Trazado 231839" d="M21.383-8.185a8.828,8.828,0,0,1-1.361,4.458,8.216,8.216,0,0,1-3.495,3A11.894,11.894,0,0,1,11.389.332a9.492,9.492,0,0,1-7.5-3.1q-2.739-3.1-2.739-8.766v-1.2a14.631,14.631,0,0,1,1.237-6.217,9.371,9.371,0,0,1,3.561-4.117,9.936,9.936,0,0,1,5.379-1.453A10.419,10.419,0,0,1,18.395-22.2a9.15,9.15,0,0,1,3.038,6.383H15.622a4.329,4.329,0,0,0-1.112-3.171,4.575,4.575,0,0,0-3.187-.963,3.481,3.481,0,0,0-3.187,1.627,10.457,10.457,0,0,0-1.062,5.2v1.71q0,3.868.971,5.528a3.554,3.554,0,0,0,3.345,1.66A4.475,4.475,0,0,0,14.46-5.18a4.016,4.016,0,0,0,1.129-3ZM43.1-24.172V-8.351a9.093,9.093,0,0,1-1.146,4.657,7.421,7.421,0,0,1-3.287,3A11.58,11.58,0,0,1,33.6.332a10,10,0,0,1-6.956-2.291,8.171,8.171,0,0,1-2.59-6.275V-24.172h5.86V-8.118q.1,3.968,3.686,3.968a3.567,3.567,0,0,0,2.739-1,4.656,4.656,0,0,0,.93-3.237V-24.172Zm17,19.656H52.112L50.718,0H44.492l8.865-24.172h5.479L67.768,0H61.509Zm-6.591-4.5h5.2L56.1-17.4Zm25,.465H75.354V0H69.527V-24.172H79.04a10.618,10.618,0,0,1,6.724,1.907,6.462,6.462,0,0,1,2.424,5.39A7.848,7.848,0,0,1,87.167-12.7a7.247,7.247,0,0,1-3.2,2.687l5.047,9.76V0H82.775Zm-3.154-4.482H79.04a3.308,3.308,0,0,0,2.5-.874,3.378,3.378,0,0,0,.838-2.438A3.418,3.418,0,0,0,81.53-18.8a3.277,3.277,0,0,0-2.49-.89H75.354Zm34.5-6.641H102.6V0H96.771V-19.673H89.648v-4.5h20.2ZM124.047-4.516h-7.985L114.667,0h-6.226l8.865-24.172h5.479L131.717,0h-6.259Zm-6.591-4.5h5.2L120.046-17.4Zm39.711-.614h-9.4V0h-5.827V-24.172h16.17v4.5H147.771v5.562h9.4Zm13.912,5.113h-7.985L161.7,0h-6.226l8.865-24.172h5.479L178.749,0H172.49Zm-6.591-4.5h5.2L167.078-17.4Zm28.488,2.59a2.394,2.394,0,0,0-.9-1.992,11.246,11.246,0,0,0-3.179-1.478,30.5,30.5,0,0,1-3.719-1.478q-4.7-2.308-4.7-6.342a5.687,5.687,0,0,1,1.17-3.544,7.57,7.57,0,0,1,3.312-2.391,12.889,12.889,0,0,1,4.814-.855,11.274,11.274,0,0,1,4.673.93,7.4,7.4,0,0,1,3.212,2.648A6.915,6.915,0,0,1,198.8-17h-5.811a2.922,2.922,0,0,0-.9-2.291,3.527,3.527,0,0,0-2.449-.813,3.977,3.977,0,0,0-2.465.689,2.113,2.113,0,0,0-.9,1.751,2.128,2.128,0,0,0,1,1.685,12.562,12.562,0,0,0,3.5,1.561,21.458,21.458,0,0,1,4.117,1.735q3.918,2.258,3.918,6.226a5.9,5.9,0,0,1-2.391,4.98,10.633,10.633,0,0,1-6.558,1.81,13.01,13.01,0,0,1-5.321-1.054,8.022,8.022,0,0,1-3.586-2.889,7.527,7.527,0,0,1-1.2-4.225h5.844a3.707,3.707,0,0,0,1,2.864,4.747,4.747,0,0,0,3.262.921,3.75,3.75,0,0,0,2.283-.623A2.055,2.055,0,0,0,192.977-6.425Zm23.807-3.835h-9.164v5.777h10.824V0H201.792V-24.172h16.685v4.5H207.619v5.1h9.164Z" transform="translate(688.881 17482.514)" fill="#27279d"/>
    <path id="Trazado_231838" data-name="Trazado 231838" d="M20.8-19.673H13.547V0H7.72V-19.673H.6v-4.5H20.8ZM38.25-10.26H29.086v5.777H39.91V0H23.259V-24.172H39.943v4.5H29.086v5.1H38.25ZM51.266-8.55H48.111V0H42.284V-24.172H51.8a10.618,10.618,0,0,1,6.724,1.907,6.462,6.462,0,0,1,2.424,5.39A7.848,7.848,0,0,1,59.923-12.7a7.247,7.247,0,0,1-3.2,2.687l5.047,9.76V0H55.532Zm-3.154-4.482H51.8a3.308,3.308,0,0,0,2.5-.874,3.378,3.378,0,0,0,.838-2.438,3.418,3.418,0,0,0-.847-2.455,3.277,3.277,0,0,0-2.49-.89H48.111ZM84.021-8.185a8.828,8.828,0,0,1-1.361,4.458,8.216,8.216,0,0,1-3.495,3A11.894,11.894,0,0,1,74.026.332a9.492,9.492,0,0,1-7.5-3.1q-2.739-3.1-2.739-8.766v-1.2a14.631,14.631,0,0,1,1.237-6.217,9.371,9.371,0,0,1,3.561-4.117,9.936,9.936,0,0,1,5.379-1.453A10.419,10.419,0,0,1,81.032-22.2a9.15,9.15,0,0,1,3.038,6.383H78.26a4.329,4.329,0,0,0-1.112-3.171,4.575,4.575,0,0,0-3.187-.963,3.481,3.481,0,0,0-3.187,1.627,10.457,10.457,0,0,0-1.062,5.2v1.71q0,3.868.971,5.528a3.554,3.554,0,0,0,3.345,1.66A4.475,4.475,0,0,0,77.1-5.18a4.016,4.016,0,0,0,1.129-3Zm17.747-2.075H92.6v5.777h10.824V0H86.776V-24.172h16.685v4.5H92.6v5.1h9.164Zm13.016,1.71h-3.154V0H105.8V-24.172h9.513a10.618,10.618,0,0,1,6.724,1.907,6.462,6.462,0,0,1,2.424,5.39,7.848,7.848,0,0,1-1.021,4.179,7.247,7.247,0,0,1-3.2,2.687l5.047,9.76V0H119.05Zm-3.154-4.482h3.686a3.308,3.308,0,0,0,2.5-.874,3.378,3.378,0,0,0,.838-2.438A3.418,3.418,0,0,0,117.8-18.8a3.277,3.277,0,0,0-2.49-.89h-3.686Zm30.082,8.517h-7.985L132.331,0h-6.226l8.865-24.172h5.479L149.381,0h-6.259Zm-6.591-4.5h5.2L137.71-17.4Zm39.711-.614h-9.4V0h-5.827V-24.172h16.17v4.5H165.435v5.562h9.4Zm13.912,5.113h-7.985L179.363,0h-6.226L182-24.172h5.479L196.413,0h-6.259Zm-6.591-4.5h5.2L184.742-17.4Zm28.488,2.59a2.394,2.394,0,0,0-.9-1.992,11.246,11.246,0,0,0-3.179-1.478,30.5,30.5,0,0,1-3.719-1.478q-4.7-2.308-4.7-6.342a5.687,5.687,0,0,1,1.17-3.544,7.57,7.57,0,0,1,3.312-2.391,12.889,12.889,0,0,1,4.814-.855,11.274,11.274,0,0,1,4.673.93,7.4,7.4,0,0,1,3.212,2.648A6.915,6.915,0,0,1,216.468-17h-5.811a2.922,2.922,0,0,0-.9-2.291A3.527,3.527,0,0,0,207.3-20.1a3.977,3.977,0,0,0-2.465.689,2.113,2.113,0,0,0-.9,1.751,2.128,2.128,0,0,0,1,1.685,12.562,12.562,0,0,0,3.5,1.561,21.458,21.458,0,0,1,4.117,1.735q3.918,2.258,3.918,6.226a5.9,5.9,0,0,1-2.391,4.98A10.633,10.633,0,0,1,207.52.332,13.01,13.01,0,0,1,202.2-.722a8.022,8.022,0,0,1-3.586-2.889,7.527,7.527,0,0,1-1.2-4.225h5.844a3.707,3.707,0,0,0,1,2.864,4.747,4.747,0,0,0,3.262.921,3.75,3.75,0,0,0,2.283-.623A2.055,2.055,0,0,0,210.641-6.425Zm23.807-3.835h-9.164v5.777h10.824V0H219.456V-24.172h16.685v4.5H225.283v5.1h9.164Z" transform="translate(679.904 17605.018)" fill="#27279d"/>
    <path id="Trazado_231837" data-name="Trazado 231837" d="M14.294-6.425a2.394,2.394,0,0,0-.9-1.992A11.246,11.246,0,0,0,10.21-9.895a30.5,30.5,0,0,1-3.719-1.478q-4.7-2.308-4.7-6.342a5.687,5.687,0,0,1,1.17-3.544,7.57,7.57,0,0,1,3.312-2.391A12.889,12.889,0,0,1,11.09-24.5a11.274,11.274,0,0,1,4.673.93,7.4,7.4,0,0,1,3.212,2.648A6.915,6.915,0,0,1,20.121-17H14.311a2.922,2.922,0,0,0-.9-2.291,3.527,3.527,0,0,0-2.449-.813,3.977,3.977,0,0,0-2.465.689,2.113,2.113,0,0,0-.9,1.751,2.128,2.128,0,0,0,1,1.685,12.561,12.561,0,0,0,3.5,1.561A21.458,21.458,0,0,1,16.2-12.684q3.918,2.258,3.918,6.226a5.9,5.9,0,0,1-2.391,4.98A10.633,10.633,0,0,1,11.173.332,13.01,13.01,0,0,1,5.852-.722,8.022,8.022,0,0,1,2.266-3.611a7.527,7.527,0,0,1-1.2-4.225H6.906a3.707,3.707,0,0,0,1,2.864,4.747,4.747,0,0,0,3.262.921,3.75,3.75,0,0,0,2.283-.623A2.055,2.055,0,0,0,14.294-6.425ZM38.1-10.26H28.937v5.777H39.761V0H23.109V-24.172H39.794v4.5H28.937v5.1H38.1ZM61.924-2.988A9.369,9.369,0,0,1,57.989-.581a16.97,16.97,0,0,1-5.678.913,10.124,10.124,0,0,1-7.587-2.905,11.76,11.76,0,0,1-3.038-8.085L41.67-12.75a14.425,14.425,0,0,1,1.262-6.234,9.369,9.369,0,0,1,3.611-4.1,10.214,10.214,0,0,1,5.437-1.436,10.708,10.708,0,0,1,7.014,2.067,8.758,8.758,0,0,1,2.914,6.167H56.3A4.583,4.583,0,0,0,55-19.175a4.178,4.178,0,0,0-2.822-.863,3.8,3.8,0,0,0-3.387,1.859,9.928,9.928,0,0,0-1.212,5.313v1.461a9.719,9.719,0,0,0,1.237,5.437A4.375,4.375,0,0,0,52.71-4.15,4.9,4.9,0,0,0,56.1-5.163V-8.915H52.046v-4h9.878ZM84.27-24.172V-8.351a9.093,9.093,0,0,1-1.146,4.657,7.421,7.421,0,0,1-3.287,3A11.58,11.58,0,0,1,74.773.332a10,10,0,0,1-6.956-2.291,8.171,8.171,0,0,1-2.59-6.275V-24.172h5.86V-8.118q.1,3.968,3.686,3.968a3.567,3.567,0,0,0,2.739-1,4.656,4.656,0,0,0,.93-3.237V-24.172ZM108.093,0H102.3L93.732-15.041V0H87.905V-24.172h5.827l8.55,15.041V-24.172h5.811Zm3.686,0V-24.172h7.786a11.454,11.454,0,0,1,5.761,1.453,10.211,10.211,0,0,1,3.993,4.1,12.38,12.38,0,0,1,1.453,5.935v1.112a12.452,12.452,0,0,1-1.4,5.952A10.255,10.255,0,0,1,125.417-1.5,11.2,11.2,0,0,1,119.73,0Zm5.827-19.673v15.19h2.025a4.533,4.533,0,0,0,3.852-1.785,8.746,8.746,0,0,0,1.345-5.3v-1.046a8.674,8.674,0,0,0-1.345-5.279,4.612,4.612,0,0,0-3.918-1.776ZM147.14-4.516h-7.985L137.76,0h-6.226L140.4-24.172h5.479L154.81,0h-6.259Zm-6.591-4.5h5.2L143.139-17.4Zm39.711-.614h-9.4V0h-5.827V-24.172h16.17v4.5H170.863v5.562h9.4Zm13.912,5.113h-7.985L184.792,0h-6.226l8.865-24.172h5.479L201.842,0h-6.259Zm-6.591-4.5h5.2L190.171-17.4Zm28.488,2.59a2.394,2.394,0,0,0-.9-1.992,11.246,11.246,0,0,0-3.179-1.478,30.5,30.5,0,0,1-3.719-1.478q-4.7-2.308-4.7-6.342a5.687,5.687,0,0,1,1.17-3.544,7.57,7.57,0,0,1,3.312-2.391,12.889,12.889,0,0,1,4.814-.855,11.274,11.274,0,0,1,4.673.93,7.4,7.4,0,0,1,3.212,2.648A6.915,6.915,0,0,1,221.9-17h-5.811a2.922,2.922,0,0,0-.9-2.291,3.527,3.527,0,0,0-2.449-.813,3.977,3.977,0,0,0-2.465.689,2.113,2.113,0,0,0-.9,1.751,2.128,2.128,0,0,0,1,1.685,12.562,12.562,0,0,0,3.5,1.561,21.458,21.458,0,0,1,4.117,1.735q3.918,2.258,3.918,6.226a5.9,5.9,0,0,1-2.391,4.98,10.633,10.633,0,0,1-6.558,1.81,13.01,13.01,0,0,1-5.321-1.054,8.022,8.022,0,0,1-3.586-2.889,7.527,7.527,0,0,1-1.2-4.225h5.844a3.707,3.707,0,0,0,1,2.864,4.747,4.747,0,0,0,3.262.921,3.75,3.75,0,0,0,2.283-.623A2.055,2.055,0,0,0,216.069-6.425Zm23.807-3.835h-9.164v5.777h10.824V0H224.885V-24.172h16.685v4.5H230.712v5.1h9.164Z" transform="translate(676.969 17749.578)" fill="#bebeff"/>
    <path id="Trazado_231836" data-name="Trazado 231836" d="M7.653-8.2V0H1.826V-24.172h9.646a11.234,11.234,0,0,1,4.906,1.021,7.7,7.7,0,0,1,3.3,2.905,7.934,7.934,0,0,1,1.17,4.275,6.994,6.994,0,0,1-2.532,5.653A10.5,10.5,0,0,1,11.372-8.2Zm0-4.5h3.818a3.6,3.6,0,0,0,2.582-.847,3.146,3.146,0,0,0,.888-2.391,3.888,3.888,0,0,0-.913-2.706,3.233,3.233,0,0,0-2.49-1.029H7.653ZM32.938-8.55H29.783V0H23.956V-24.172h9.513a10.618,10.618,0,0,1,6.724,1.907,6.462,6.462,0,0,1,2.424,5.39A7.848,7.848,0,0,1,41.6-12.7a7.247,7.247,0,0,1-3.2,2.687l5.047,9.76V0H37.2Zm-3.154-4.482h3.686a3.308,3.308,0,0,0,2.5-.874,3.378,3.378,0,0,0,.838-2.438,3.418,3.418,0,0,0-.847-2.455,3.277,3.277,0,0,0-2.49-.89H29.783ZM52.345,0H46.534V-24.172h5.811Zm11.7-24.172,5.4,16.817,5.379-16.817h7.67V0H76.649V-5.645L77.214-17.2,71.37,0H67.519l-5.86-17.216.564,11.571V0H56.4V-24.172ZM101.187-10.26H92.022v5.777h10.824V0H86.2V-24.172H102.88v4.5H92.022v5.1h9.164ZM114.2-8.55h-3.154V0h-5.827V-24.172h9.513a10.618,10.618,0,0,1,6.724,1.907,6.462,6.462,0,0,1,2.424,5.39A7.848,7.848,0,0,1,122.86-12.7a7.247,7.247,0,0,1-3.2,2.687l5.047,9.76V0h-6.242Zm-3.154-4.482h3.686a3.308,3.308,0,0,0,2.5-.874,3.378,3.378,0,0,0,.838-2.438,3.418,3.418,0,0,0-.847-2.455,3.277,3.277,0,0,0-2.49-.89h-3.686ZM141.13-4.516h-7.985L131.75,0h-6.226l8.865-24.172h5.479L148.8,0h-6.259Zm-6.591-4.5h5.2L137.129-17.4Zm39.711-.614h-9.4V0h-5.827V-24.172H175.2v4.5H164.854v5.562h9.4Zm13.912,5.113h-7.985L178.782,0h-6.226l8.865-24.172H186.9L195.832,0h-6.259Zm-6.591-4.5h5.2L184.161-17.4Zm28.488,2.59a2.394,2.394,0,0,0-.9-1.992,11.246,11.246,0,0,0-3.179-1.478,30.5,30.5,0,0,1-3.719-1.478q-4.7-2.308-4.7-6.342a5.687,5.687,0,0,1,1.17-3.544,7.57,7.57,0,0,1,3.312-2.391,12.889,12.889,0,0,1,4.814-.855,11.274,11.274,0,0,1,4.673.93,7.4,7.4,0,0,1,3.212,2.648A6.915,6.915,0,0,1,215.887-17h-5.811a2.922,2.922,0,0,0-.9-2.291,3.527,3.527,0,0,0-2.449-.813,3.977,3.977,0,0,0-2.465.689,2.113,2.113,0,0,0-.9,1.751,2.128,2.128,0,0,0,1,1.685,12.562,12.562,0,0,0,3.5,1.561,21.458,21.458,0,0,1,4.117,1.735q3.918,2.258,3.918,6.226a5.9,5.9,0,0,1-2.391,4.98,10.633,10.633,0,0,1-6.558,1.81,13.01,13.01,0,0,1-5.321-1.054,8.022,8.022,0,0,1-3.586-2.889,7.527,7.527,0,0,1-1.2-4.225h5.844a3.707,3.707,0,0,0,1,2.864,4.747,4.747,0,0,0,3.262.921,3.75,3.75,0,0,0,2.283-.623A2.055,2.055,0,0,0,210.06-6.425Zm23.807-3.835H224.7v5.777h10.824V0H218.875V-24.172H235.56v4.5H224.7v5.1h9.164Z" transform="translate(680.2 17930.902)" fill="#e4e4ff"/>
    <path id="Trazado_231840" data-name="Trazado 231840" d="M-80.923-4.824V0h-3.428V-14.219h5.674a6.608,6.608,0,0,1,2.886.6,4.526,4.526,0,0,1,1.943,1.709,4.667,4.667,0,0,1,.688,2.515,4.114,4.114,0,0,1-1.489,3.325,6.179,6.179,0,0,1-4.087,1.245Zm0-2.646h2.246a2.118,2.118,0,0,0,1.519-.5,1.85,1.85,0,0,0,.522-1.406,2.287,2.287,0,0,0-.537-1.592,1.9,1.9,0,0,0-1.465-.605h-2.285ZM-68.013,0h-3.3V-10.566h3.3Zm-3.5-13.291A1.469,1.469,0,0,1-71-14.443a1.916,1.916,0,0,1,1.318-.449,1.916,1.916,0,0,1,1.318.449,1.469,1.469,0,0,1,.508,1.152,1.469,1.469,0,0,1-.508,1.152,1.916,1.916,0,0,1-1.318.449A1.916,1.916,0,0,1-71-12.139,1.469,1.469,0,0,1-71.509-13.291Zm11.914,5.7-1.084-.078a1.947,1.947,0,0,0-1.992.977V0h-3.291V-10.566h3.086l.107,1.357a2.548,2.548,0,0,1,2.314-1.553,3.209,3.209,0,0,1,.918.117ZM-52.749,0a3.716,3.716,0,0,1-.312-.947A3.06,3.06,0,0,1-55.6.2a3.749,3.749,0,0,1-2.539-.9,2.875,2.875,0,0,1-1.045-2.271,2.955,2.955,0,0,1,1.27-2.6,6.468,6.468,0,0,1,3.691-.879h1.016v-.559q0-1.462-1.26-1.462A1.03,1.03,0,0,0-55.64-7.319h-3.291a2.95,2.95,0,0,1,1.3-2.487,5.479,5.479,0,0,1,3.325-.956,4.8,4.8,0,0,1,3.193.986,3.429,3.429,0,0,1,1.2,2.705v4.678a4.79,4.79,0,0,0,.449,2.227V0ZM-54.81-2.148a1.836,1.836,0,0,0,1.021-.264,1.653,1.653,0,0,0,.581-.6V-4.7h-.957q-1.719,0-1.719,1.543a.942.942,0,0,0,.3.728A1.1,1.1,0,0,0-54.81-2.148ZM-53.989-15h3.477l-2.715,3.066-2.686,0Zm9.014,4.434.107,1.24a3.633,3.633,0,0,1,3.018-1.436A2.675,2.675,0,0,1-39.146-9.17a3.516,3.516,0,0,1,3.105-1.592q3.213,0,3.3,3.887V0h-3.3V-6.67a2.014,2.014,0,0,0-.273-1.182,1.164,1.164,0,0,0-1-.371,1.559,1.559,0,0,0-1.455.869l.01.137V0h-3.3V-6.65a2.117,2.117,0,0,0-.264-1.2,1.161,1.161,0,0,0-1.006-.371,1.578,1.578,0,0,0-1.445.869V0h-3.291V-10.566ZM-27.388,0h-3.3V-10.566h3.3Zm-3.5-13.291a1.469,1.469,0,0,1,.508-1.152,1.916,1.916,0,0,1,1.318-.449,1.916,1.916,0,0,1,1.318.449,1.469,1.469,0,0,1,.508,1.152,1.469,1.469,0,0,1-.508,1.152,1.916,1.916,0,0,1-1.318.449,1.916,1.916,0,0,1-1.318-.449A1.469,1.469,0,0,1-30.884-13.291Zm5.107,7.93a6.455,6.455,0,0,1,1.084-3.955,3.568,3.568,0,0,1,3.027-1.445,3.035,3.035,0,0,1,2.383,1.113V-15h3.3V0H-18.94l-.166-1.133A3.116,3.116,0,0,1-21.685.2,3.562,3.562,0,0,1-24.673-1.25,6.659,6.659,0,0,1-25.776-5.361Zm3.291.205q0,2.813,1.641,2.813a1.62,1.62,0,0,0,1.563-.918V-7.285a1.576,1.576,0,0,0-1.543-.937q-1.523,0-1.65,2.461ZM-9,.2a5.432,5.432,0,0,1-3.936-1.45,5.008,5.008,0,0,1-1.5-3.774V-5.3a6.489,6.489,0,0,1,.6-2.861,4.395,4.395,0,0,1,1.753-1.919,5.292,5.292,0,0,1,2.734-.679A4.574,4.574,0,0,1-5.835-9.38,5.43,5.43,0,0,1-4.546-5.527v1.279h-6.543a2.372,2.372,0,0,0,.771,1.4,2.3,2.3,0,0,0,1.543.508A2.958,2.958,0,0,0-6.333-3.437l1.5,1.777A4.2,4.2,0,0,1-6.572-.308,5.891,5.891,0,0,1-9,.2ZM-9.37-8.223q-1.445,0-1.719,1.914h3.32v-.254a1.63,1.63,0,0,0-.4-1.226A1.593,1.593,0,0,0-9.37-8.223ZM1.343-5.361A6.455,6.455,0,0,1,2.427-9.316a3.568,3.568,0,0,1,3.027-1.445A3.035,3.035,0,0,1,7.837-9.648V-15h3.3V0H8.179L8.013-1.133A3.116,3.116,0,0,1,5.435.2,3.562,3.562,0,0,1,2.446-1.25,6.659,6.659,0,0,1,1.343-5.361Zm3.291.205q0,2.813,1.641,2.813a1.62,1.62,0,0,0,1.563-.918V-7.285a1.576,1.576,0,0,0-1.543-.937q-1.523,0-1.65,2.461ZM18.12.2a5.432,5.432,0,0,1-3.936-1.45,5.008,5.008,0,0,1-1.5-3.774V-5.3a6.489,6.489,0,0,1,.6-2.861,4.395,4.395,0,0,1,1.753-1.919,5.292,5.292,0,0,1,2.734-.679A4.574,4.574,0,0,1,21.284-9.38a5.43,5.43,0,0,1,1.289,3.853v1.279H16.03a2.372,2.372,0,0,0,.771,1.4,2.3,2.3,0,0,0,1.543.508,2.958,2.958,0,0,0,2.441-1.094l1.5,1.777A4.2,4.2,0,0,1,20.547-.308,5.891,5.891,0,0,1,18.12.2Zm-.371-8.418q-1.445,0-1.719,1.914h3.32v-.254a1.63,1.63,0,0,0-.4-1.226A1.593,1.593,0,0,0,17.749-8.223Zm15.781-6L36.7-4.326l3.164-9.893H44.38V0H40.942V-3.32l.332-6.8L37.837,0H35.571L32.124-10.127l.332,6.807V0H29.028V-14.219ZM49.878,0h-3.3V-10.566h3.3Zm-3.5-13.291a1.469,1.469,0,0,1,.508-1.152,1.916,1.916,0,0,1,1.318-.449,1.916,1.916,0,0,1,1.318.449,1.469,1.469,0,0,1,.508,1.152,1.469,1.469,0,0,1-.508,1.152,1.916,1.916,0,0,1-1.318.449,1.916,1.916,0,0,1-1.318-.449A1.469,1.469,0,0,1,46.382-13.291ZM55.376,0h-3.3V-15h3.3Zm5.5,0h-3.3V-15h3.3Zm7.139.2a5.432,5.432,0,0,1-3.936-1.45,5.008,5.008,0,0,1-1.5-3.774V-5.3a6.489,6.489,0,0,1,.6-2.861,4.395,4.395,0,0,1,1.753-1.919,5.292,5.292,0,0,1,2.734-.679A4.574,4.574,0,0,1,71.177-9.38a5.43,5.43,0,0,1,1.289,3.853v1.279H65.923a2.372,2.372,0,0,0,.771,1.4,2.3,2.3,0,0,0,1.543.508,2.958,2.958,0,0,0,2.441-1.094l1.5,1.777A4.2,4.2,0,0,1,70.439-.308,5.891,5.891,0,0,1,68.013.2Zm-.371-8.418q-1.445,0-1.719,1.914h3.32v-.254a1.63,1.63,0,0,0-.4-1.226A1.593,1.593,0,0,0,67.642-8.223Zm12.539.635L79.1-7.666a1.947,1.947,0,0,0-1.992.977V0H73.813V-10.566H76.9l.107,1.357a2.548,2.548,0,0,1,2.314-1.553,3.209,3.209,0,0,1,.918.117Z" transform="translate(371 17305)" fill="#12263f"/>
  </g>
</svg>
