<svg xmlns="http://www.w3.org/2000/svg" width="822.389" height="565.012" viewBox="0 0 822.389 565.012">
  <g id="Grupo_238300" data-name="Grupo 238300" transform="translate(-530.437 -25208.5)">
    <g id="Grupo_238299" data-name="Grupo 238299" transform="translate(532 25210)">
      <path id="Trazado_200984" data-name="Trazado 200984" d="M697,269.828a4.369,4.369,0,0,1,3.775,2.178l30.69,53.155a4.38,4.38,0,0,1,0,4.361l-30.688,53.152a4.372,4.372,0,0,1-3.776,2.18H555.767a4.37,4.37,0,0,1-3.775-2.178L521.3,329.521a4.377,4.377,0,0,1,0-4.361l30.688-53.152a4.368,4.368,0,0,1,3.775-2.18Z" transform="translate(87.217 -46.336)" fill="#fff" stroke="#4545ff" stroke-miterlimit="10" stroke-width="3"/>
      <path id="Trazado_200985" data-name="Trazado 200985" d="M697,129.266a4.364,4.364,0,0,1,3.775,2.178l30.69,53.155a4.378,4.378,0,0,1,0,4.36l-30.688,53.153a4.37,4.37,0,0,1-3.776,2.18H555.765a4.365,4.365,0,0,1-3.773-2.18L521.3,188.959a4.377,4.377,0,0,1,0-4.361l30.688-53.152a4.366,4.366,0,0,1,3.775-2.18Z" transform="translate(87.215 -129.266)" fill="#fff" stroke="#4545ff" stroke-miterlimit="10" stroke-width="3"/>
      <path id="Trazado_200986" data-name="Trazado 200986" d="M505.825,410.39a4.367,4.367,0,0,1,3.773,2.178l30.69,53.155a4.377,4.377,0,0,1,0,4.361L509.6,523.237a4.369,4.369,0,0,1-3.775,2.18H364.589a4.367,4.367,0,0,1-3.773-2.178l-30.69-53.155a4.366,4.366,0,0,1,0-4.36l30.687-53.153a4.37,4.37,0,0,1,3.775-2.18Z" transform="translate(-25.577 36.595)" fill="#fff" stroke="#4545ff" stroke-miterlimit="10" stroke-width="3"/>
      <path id="Trazado_200987" data-name="Trazado 200987" d="M505.827,269.828a4.367,4.367,0,0,1,3.773,2.178l30.69,53.155a4.376,4.376,0,0,1,0,4.361L509.6,382.674a4.369,4.369,0,0,1-3.775,2.18H364.591a4.367,4.367,0,0,1-3.773-2.178l-30.69-53.155a4.369,4.369,0,0,1,0-4.361l30.687-53.152a4.369,4.369,0,0,1,3.775-2.18Z" transform="translate(-25.576 -46.336)" fill="#fff" stroke="#4545ff" stroke-miterlimit="10" stroke-width="3"/>
      <path id="Trazado_200988" data-name="Trazado 200988" d="M505.825,129.266a4.364,4.364,0,0,1,3.773,2.178l30.69,53.155a4.374,4.374,0,0,1,0,4.36L509.6,242.112a4.369,4.369,0,0,1-3.775,2.18H364.589a4.365,4.365,0,0,1-3.773-2.18l-30.69-53.153a4.369,4.369,0,0,1,0-4.361l30.687-53.152a4.366,4.366,0,0,1,3.775-2.18Z" transform="translate(-25.577 -129.266)" fill="#fff" stroke="#4545ff" stroke-miterlimit="10" stroke-width="3"/>
      <path id="Trazado_200989" data-name="Trazado 200989" d="M314.649,410.39a4.367,4.367,0,0,1,3.773,2.178l30.692,53.155a4.38,4.38,0,0,1,0,4.361l-30.69,53.152a4.37,4.37,0,0,1-3.775,2.18H173.414a4.368,4.368,0,0,1-3.775-2.178l-30.69-53.155a4.374,4.374,0,0,1,0-4.36l30.687-53.153a4.37,4.37,0,0,1,3.776-2.18Z" transform="translate(-138.368 36.595)" fill="#fff" stroke="#4545ff" stroke-miterlimit="10" stroke-width="3"/>
      <path id="Trazado_200990" data-name="Trazado 200990" d="M314.651,269.828a4.367,4.367,0,0,1,3.773,2.178l30.69,53.155a4.373,4.373,0,0,1,0,4.361l-30.688,53.152a4.37,4.37,0,0,1-3.775,2.18H173.415a4.367,4.367,0,0,1-3.773-2.178l-30.69-53.155a4.377,4.377,0,0,1,0-4.361l30.687-53.152a4.37,4.37,0,0,1,3.775-2.18Z" transform="translate(-138.367 -46.336)" fill="#fff" stroke="#4545ff" stroke-miterlimit="10" stroke-width="3"/>
      <path id="Trazado_200991" data-name="Trazado 200991" d="M314.649,129.266a4.364,4.364,0,0,1,3.773,2.178L349.113,184.6a4.378,4.378,0,0,1,0,4.36l-30.69,53.153a4.37,4.37,0,0,1-3.775,2.18H173.414a4.366,4.366,0,0,1-3.775-2.18l-30.69-53.153a4.377,4.377,0,0,1,0-4.361l30.687-53.152a4.367,4.367,0,0,1,3.776-2.18Z" transform="translate(-138.368 -129.266)" fill="#fff" stroke="#4545ff" stroke-miterlimit="10" stroke-width="3"/>
      <text id="A._Idea_o_propuesta_inicial" data-name="A. Idea o 
propuesta
inicial" transform="translate(102.554 36.489)" font-size="19" font-family="Roboto-Bold, Roboto" font-weight="700"><tspan x="-39.971" y="0">A. Idea o </tspan><tspan x="-43.005" y="23">propuesta</tspan><tspan x="-25.443" y="46">inicial</tspan></text>
      <text id="Simulación" transform="translate(103.197 285.786)" font-size="20" font-family="Roboto-Bold, Roboto" font-weight="700"><tspan x="-50.186" y="0">Simulación</tspan></text>
      <text id="F._Briefing_G._Escenario_H._Debriefing" data-name="F. Briefing
G. Escenario
H. Debriefing" transform="translate(44.434 484.476)" font-size="20" font-family="Roboto-Bold, Roboto" font-weight="700"><tspan x="0" y="0">F. Briefing</tspan><tspan x="0" y="24">G. Escenario</tspan><tspan x="0" y="48">H. Debriefing</tspan></text>
      <text id="B._Análisis_de_las_necesidades_de_la_población" data-name="B. Análisis de
las necesidades
de la población" transform="translate(406.9 37.49)" font-size="20" font-family="Roboto-Bold, Roboto" font-weight="700"><tspan x="-61.001" y="0">B. Análisis de</tspan><tspan x="-72.241" y="24">las necesidades</tspan><tspan x="-68.081" y="48">de la población</tspan></text>
      <text id="E._Diseño_del_escenario" data-name="E. Diseño del
escenario" transform="translate(407.21 272.894)" font-size="20" font-family="Roboto-Bold, Roboto" font-weight="700"><tspan x="-58.154" y="0">E. Diseño del</tspan><tspan x="-44.082" y="24">escenario</tspan></text>
      <text id="Transferencia_en_el_entorno_real" data-name="Transferencia
en el entorno real" transform="translate(406.541 496.877)" font-size="20" font-family="Roboto-Bold, Roboto" font-weight="700"><tspan x="-62.344" y="0">Transferencia</tspan><tspan x="-78.394" y="24">en el entorno real</tspan></text>
      <text id="C._Objetivos_y_resultados_esperados" data-name="C. Objetivos y
resultados
esperados" transform="translate(711.999 37.49)" font-size="20" font-family="Roboto-Bold, Roboto" font-weight="700"><tspan x="-61.792" y="0">C. Objetivos y</tspan><tspan x="-47.612" y="24">resultados</tspan><tspan x="-46.875" y="48">esperados</tspan></text>
      <text id="D._Diseño_de_la_actividad" data-name="D. Diseño de
la actividad" transform="translate(710.771 273.385)" font-size="20" font-family="Roboto-Bold, Roboto" font-weight="700"><tspan x="-56.377" y="0">D. Diseño de</tspan><tspan x="-51.445" y="24">la actividad</tspan></text>
      <g id="Grupo_238292" data-name="Grupo 238292" transform="translate(235.599 485.495)">
        <line id="Línea_558" data-name="Línea 558" x1="44.102" transform="translate(0 19.003)" fill="none" stroke="#d100c9" stroke-linecap="round" stroke-linejoin="round" stroke-width="3"/>
        <path id="Trazado_200992" data-name="Trazado 200992" d="M302.33,434.611l19,19-19,19" transform="translate(-277.231 -434.611)" fill="none" stroke="#d100c9" stroke-linecap="round" stroke-linejoin="round" stroke-width="3"/>
      </g>
      <g id="Grupo_238293" data-name="Grupo 238293" transform="translate(538.551 38.547)">
        <line id="Línea_559" data-name="Línea 559" x1="44.102" transform="translate(0 19.003)" fill="none" stroke="#d100c9" stroke-linecap="round" stroke-linejoin="round" stroke-width="3"/>
        <path id="Trazado_200993" data-name="Trazado 200993" d="M492.867,153.509l19,19-19,19" transform="translate(-467.768 -153.509)" fill="none" stroke="#d100c9" stroke-linecap="round" stroke-linejoin="round" stroke-width="3"/>
      </g>
      <g id="Grupo_238294" data-name="Grupo 238294" transform="translate(235.599 38.547)">
        <line id="Línea_560" data-name="Línea 560" x1="44.102" transform="translate(0 19.003)" fill="none" stroke="#d100c9" stroke-linecap="round" stroke-linejoin="round" stroke-width="3"/>
        <path id="Trazado_200994" data-name="Trazado 200994" d="M302.33,153.509l19,19-19,19" transform="translate(-277.231 -153.509)" fill="none" stroke="#d100c9" stroke-linecap="round" stroke-linejoin="round" stroke-width="3"/>
      </g>
      <g id="Grupo_238295" data-name="Grupo 238295" transform="translate(235.599 262.003)">
        <line id="Línea_561" data-name="Línea 561" x2="44.102" transform="translate(0 19.003)" fill="none" stroke="#d100c9" stroke-linecap="round" stroke-linejoin="round" stroke-width="3"/>
        <path id="Trazado_200995" data-name="Trazado 200995" d="M305.548,332.055l-19-19,19-19" transform="translate(-286.545 -294.048)" fill="none" stroke="#d100c9" stroke-linecap="round" stroke-linejoin="round" stroke-width="3"/>
      </g>
      <g id="Grupo_238296" data-name="Grupo 238296" transform="translate(538.551 262.003)">
        <line id="Línea_562" data-name="Línea 562" x2="44.102" transform="translate(0 19.003)" fill="none" stroke="#d100c9" stroke-linecap="round" stroke-linejoin="round" stroke-width="3"/>
        <path id="Trazado_200996" data-name="Trazado 200996" d="M496.085,332.055l-19-19,19-19" transform="translate(-477.081 -294.048)" fill="none" stroke="#d100c9" stroke-linecap="round" stroke-linejoin="round" stroke-width="3"/>
      </g>
      <g id="Grupo_238297" data-name="Grupo 238297" transform="translate(694.601 147.208)">
        <line id="Línea_563" data-name="Línea 563" y1="44.102" transform="translate(19.003)" fill="none" stroke="#d100c9" stroke-linecap="round" stroke-linejoin="round" stroke-width="3"/>
        <path id="Trazado_200997" data-name="Trazado 200997" d="M613.233,237.636l-19,19-19-19" transform="translate(-575.227 -212.537)" fill="none" stroke="#d100c9" stroke-linecap="round" stroke-linejoin="round" stroke-width="3"/>
      </g>
      <g id="Grupo_238298" data-name="Grupo 238298" transform="translate(86.659 370.701)">
        <line id="Línea_564" data-name="Línea 564" y1="44.102" transform="translate(19.003)" fill="none" stroke="#d100c9" stroke-linecap="round" stroke-linejoin="round" stroke-width="3"/>
        <path id="Trazado_200998" data-name="Trazado 200998" d="M230.878,378.2l-19,19-19-19" transform="translate(-192.872 -353.099)" fill="none" stroke="#d100c9" stroke-linecap="round" stroke-linejoin="round" stroke-width="3"/>
      </g>
      <path id="Trazado_200999" data-name="Trazado 200999" d="M454.519,165.461" transform="translate(48.158 -107.911)" fill="none" stroke="#d100c9" stroke-miterlimit="10" stroke-width="2"/>
    </g>
  </g>
</svg>
