<svg xmlns="http://www.w3.org/2000/svg" xmlns:xlink="http://www.w3.org/1999/xlink" width="648.307" height="643.121" viewBox="0 0 648.307 643.121">
  <defs>
    <linearGradient id="linear-gradient" x1="0.5" y1="0.016" x2="0.5" y2="0.979" gradientUnits="objectBoundingBox">
      <stop offset="0" stop-color="#fba6ee"/>
      <stop offset="1" stop-color="#93007c"/>
    </linearGradient>
    <linearGradient id="linear-gradient-2" x1="0.5" x2="0.5" y2="1" gradientUnits="objectBoundingBox">
      <stop offset="0" stop-color="#f5f4f2"/>
      <stop offset="1" stop-color="#d5d5d5"/>
    </linearGradient>
  </defs>
  <g id="Grupo_239786" data-name="Grupo 239786" transform="translate(-476.692 -23995.656)">
    <g id="Grupo_239785" data-name="Grupo 239785">
      <g id="Grupo_238288" data-name="Grupo 238288" transform="translate(565.101 24082.965)">
        <path id="Trazado_200965" data-name="Trazado 200965" d="M451.969,602.884c-132.842,0-240.914-108.072-240.914-240.914S319.128,121.054,451.969,121.054,692.885,229.129,692.885,361.97,584.81,602.884,451.969,602.884Zm0-466.2c-124.221,0-225.283,101.062-225.283,225.284S327.748,587.253,451.969,587.253,677.254,486.191,677.254,361.97,576.192,136.686,451.969,136.686Z" transform="translate(-211.055 -121.054)" fill="url(#linear-gradient)"/>
      </g>
      <path id="Trazado_200966" data-name="Trazado 200966" d="M503.884,113.423,474.35,62.268A14.942,14.942,0,0,0,461.41,54.8H371.268a14.942,14.942,0,0,0-12.94,7.471l-29.534,51.155" transform="translate(389.677 23941.859)" fill="none" stroke="#d3f988" stroke-linecap="round" stroke-linejoin="round" stroke-width="2"/>
      <path id="Trazado_200967" data-name="Trazado 200967" d="M461.908,230.394H374.8a9.123,9.123,0,0,1-7.9-4.559L323.353,150.4a9.115,9.115,0,0,1,0-9.118L366.9,65.845a9.12,9.12,0,0,1,7.9-4.559h87.107a9.12,9.12,0,0,1,7.9,4.559l43.552,75.435a9.115,9.115,0,0,1,0,9.118L469.8,225.834A9.121,9.121,0,0,1,461.908,230.394Z" transform="translate(387.66 23943.822)" fill="url(#linear-gradient-2)"/>
      <path id="Trazado_200968" data-name="Trazado 200968" d="M375.894,218.627a5.692,5.692,0,0,1-4.921-2.841l-40.025-69.321a5.709,5.709,0,0,1,0-5.687L370.97,71.46a5.7,5.7,0,0,1,4.924-2.844h80.044a5.7,5.7,0,0,1,4.923,2.842l40.023,69.321a5.7,5.7,0,0,1,0,5.686l-40.021,69.319a5.7,5.7,0,0,1-4.924,2.842Z" transform="translate(390.1 23946.041)" fill="#d3f988"/>
      <path id="Trazado_200969" data-name="Trazado 200969" d="M477.13,432.382H369.238a9.117,9.117,0,0,1-7.9-4.559L307.4,334.385a9.115,9.115,0,0,1,0-9.118l53.946-93.437a9.117,9.117,0,0,1,7.9-4.559H477.13a9.117,9.117,0,0,1,7.9,4.559l53.946,93.437a9.115,9.115,0,0,1,0,9.118l-53.946,93.437A9.117,9.117,0,0,1,477.13,432.382Z" transform="translate(382.831 23994.055)" fill="url(#linear-gradient-2)"/>
      <path id="Trazado_200970" data-name="Trazado 200970" d="M371.614,418.109a6.909,6.909,0,0,1-5.97-3.447L317.1,330.583a6.922,6.922,0,0,1,0-6.9l48.544-84.077a6.914,6.914,0,0,1,5.971-3.448H468.7a6.91,6.91,0,0,1,5.97,3.448l48.545,84.078a6.915,6.915,0,0,1,0,6.9l-48.54,84.077a6.915,6.915,0,0,1-5.973,3.448Z" transform="translate(385.859 23996.744)" fill="#2c04bf"/>
      <path id="Trazado_200971" data-name="Trazado 200971" d="M328.793,154.306l29.534,51.155a14.945,14.945,0,0,0,12.94,7.471H461.41a14.941,14.941,0,0,0,12.939-7.471l29.536-51.155" transform="translate(389.677 23971.973)" fill="none" stroke="#d3f988" stroke-linecap="round" stroke-linejoin="round" stroke-width="2"/>
      <path id="Trazado_231760" data-name="Trazado 231760" d="M-49.369-4.5a4.78,4.78,0,0,1-1.61,3.433A5.653,5.653,0,0,1-54.806.186a5.083,5.083,0,0,1-4.087-1.749,7.171,7.171,0,0,1-1.489-4.8V-7.19a8.1,8.1,0,0,1,.687-3.433A5.145,5.145,0,0,1-57.733-12.9a5.5,5.5,0,0,1,2.964-.793A5.507,5.507,0,0,1-51-12.441a5.137,5.137,0,0,1,1.651,3.516h-2.783a2.821,2.821,0,0,0-.728-1.9,2.7,2.7,0,0,0-1.906-.589,2.365,2.365,0,0,0-2.083,1,5.589,5.589,0,0,0-.71,3.094V-6.3A5.982,5.982,0,0,0-56.9-3.1a2.321,2.321,0,0,0,2.092,1.011,2.748,2.748,0,0,0,1.925-.589A2.661,2.661,0,0,0-52.153-4.5Zm1.234-.612a5.953,5.953,0,0,1,.575-2.663A4.211,4.211,0,0,1-45.9-9.583a4.831,4.831,0,0,1,2.51-.64A4.571,4.571,0,0,1-40.078-8.98,4.989,4.989,0,0,1-38.645-5.6l.019.687a5.247,5.247,0,0,1-1.29,3.706,4.482,4.482,0,0,1-3.46,1.4,4.5,4.5,0,0,1-3.465-1.392,5.339,5.339,0,0,1-1.294-3.785Zm2.681.19a3.752,3.752,0,0,0,.538,2.188,1.775,1.775,0,0,0,1.54.757,1.779,1.779,0,0,0,1.521-.748,4.106,4.106,0,0,0,.547-2.393,3.715,3.715,0,0,0-.547-2.174,1.779,1.779,0,0,0-1.54-.771,1.75,1.75,0,0,0-1.521.767A4.175,4.175,0,0,0-45.454-4.921Zm10.994-5.117.083,1.123a3.528,3.528,0,0,1,2.885-1.308,2.677,2.677,0,0,1,2.663,1.531,3.447,3.447,0,0,1,3.015-1.531,2.994,2.994,0,0,1,2.431.951,4.371,4.371,0,0,1,.8,2.862V0h-2.69V-6.4a1.911,1.911,0,0,0-.334-1.248,1.48,1.48,0,0,0-1.178-.394,1.673,1.673,0,0,0-1.67,1.15L-28.449,0H-31.13V-6.392a1.888,1.888,0,0,0-.343-1.262,1.5,1.5,0,0,0-1.169-.39,1.738,1.738,0,0,0-1.651.946V0h-2.681V-10.038Zm19.946,9.018A3.362,3.362,0,0,1-17.26.186a3.171,3.171,0,0,1-2.463-.928,3.96,3.96,0,0,1-.867-2.718v-6.578h2.681v6.492q0,1.57,1.429,1.57a1.936,1.936,0,0,0,1.874-.947v-7.115h2.69V0H-14.44Zm7.088-9.018.083,1.16a3.5,3.5,0,0,1,2.885-1.345,2.913,2.913,0,0,1,2.375.937,4.372,4.372,0,0,1,.8,2.8V0H-3.966V-6.42a1.739,1.739,0,0,0-.371-1.239,1.661,1.661,0,0,0-1.234-.385,1.844,1.844,0,0,0-1.7.965V0H-9.95V-10.038ZM3.576,0H.886V-10.038h2.69ZM.728-12.636a1.32,1.32,0,0,1,.4-.993,1.516,1.516,0,0,1,1.1-.39,1.52,1.52,0,0,1,1.095.39,1.313,1.313,0,0,1,.408.993,1.316,1.316,0,0,1-.413,1,1.523,1.523,0,0,1-1.09.39,1.523,1.523,0,0,1-1.09-.39A1.316,1.316,0,0,1,.728-12.636ZM9.959-1.976a1.759,1.759,0,0,0,1.206-.408,1.43,1.43,0,0,0,.482-1.085h2.514A3.439,3.439,0,0,1,13.605-1.6a3.673,3.673,0,0,1-1.5,1.317,4.689,4.689,0,0,1-2.1.469,4.358,4.358,0,0,1-3.4-1.368A5.415,5.415,0,0,1,5.367-4.963V-5.14A5.353,5.353,0,0,1,6.6-8.841a4.307,4.307,0,0,1,3.386-1.382,4.222,4.222,0,0,1,3.02,1.072A3.794,3.794,0,0,1,14.162-6.3H11.648a1.842,1.842,0,0,0-.482-1.273,1.608,1.608,0,0,0-1.225-.49,1.615,1.615,0,0,0-1.415.683,3.958,3.958,0,0,0-.478,2.216v.279a4.008,4.008,0,0,0,.473,2.23A1.635,1.635,0,0,0,9.959-1.976ZM21.51,0a2.977,2.977,0,0,1-.269-.9A3.244,3.244,0,0,1,18.708.186a3.564,3.564,0,0,1-2.445-.854,2.745,2.745,0,0,1-.969-2.152A2.837,2.837,0,0,1,16.477-5.27,5.837,5.837,0,0,1,19.9-6.132h1.234v-.575a1.654,1.654,0,0,0-.357-1.113,1.405,1.405,0,0,0-1.127-.417,1.6,1.6,0,0,0-1.062.325,1.1,1.1,0,0,0-.385.891H15.516a2.693,2.693,0,0,1,.538-1.614A3.557,3.557,0,0,1,17.576-9.8a5.545,5.545,0,0,1,2.208-.422,4.381,4.381,0,0,1,2.946.932A3.262,3.262,0,0,1,23.82-6.67v4.351a4.8,4.8,0,0,0,.4,2.162V0ZM19.292-1.865a2.309,2.309,0,0,0,1.095-.264,1.737,1.737,0,0,0,.742-.71V-4.564h-1q-2.013,0-2.143,1.392l-.009.158a1.073,1.073,0,0,0,.353.826A1.369,1.369,0,0,0,19.292-1.865Zm10.762-.111a1.759,1.759,0,0,0,1.206-.408,1.43,1.43,0,0,0,.482-1.085h2.514A3.439,3.439,0,0,1,33.7-1.6,3.673,3.673,0,0,1,32.2-.283a4.689,4.689,0,0,1-2.1.469,4.358,4.358,0,0,1-3.4-1.368,5.415,5.415,0,0,1-1.243-3.781V-5.14a5.353,5.353,0,0,1,1.234-3.7,4.307,4.307,0,0,1,3.386-1.382A4.222,4.222,0,0,1,33.1-9.152,3.794,3.794,0,0,1,34.257-6.3H31.742a1.842,1.842,0,0,0-.482-1.273,1.608,1.608,0,0,0-1.225-.49,1.615,1.615,0,0,0-1.415.683,3.958,3.958,0,0,0-.478,2.216v.279a4.008,4.008,0,0,0,.473,2.23A1.635,1.635,0,0,0,30.054-1.976ZM38.617,0h-2.69V-10.038h2.69ZM35.769-12.636a1.32,1.32,0,0,1,.4-.993,1.516,1.516,0,0,1,1.1-.39,1.52,1.52,0,0,1,1.095.39,1.313,1.313,0,0,1,.408.993,1.316,1.316,0,0,1-.413,1,1.523,1.523,0,0,1-1.09.39,1.523,1.523,0,0,1-1.09-.39A1.316,1.316,0,0,1,35.769-12.636Zm4.639,7.524a5.953,5.953,0,0,1,.575-2.663,4.211,4.211,0,0,1,1.656-1.809,4.831,4.831,0,0,1,2.51-.64A4.571,4.571,0,0,1,48.465-8.98,4.989,4.989,0,0,1,49.9-5.6l.019.687a5.247,5.247,0,0,1-1.29,3.706,4.482,4.482,0,0,1-3.46,1.4A4.5,4.5,0,0,1,41.7-1.206a5.339,5.339,0,0,1-1.294-3.785Zm2.681.19a3.752,3.752,0,0,0,.538,2.188,1.775,1.775,0,0,0,1.54.757,1.779,1.779,0,0,0,1.521-.748,4.106,4.106,0,0,0,.547-2.393,3.715,3.715,0,0,0-.547-2.174,1.779,1.779,0,0,0-1.54-.771,1.75,1.75,0,0,0-1.521.767A4.175,4.175,0,0,0,43.089-4.921Zm2.588-9.329H48.6l-2.57,2.876h-2.18Zm8.359,4.212.083,1.16A3.5,3.5,0,0,1,57-10.224a2.913,2.913,0,0,1,2.375.937,4.372,4.372,0,0,1,.8,2.8V0H57.5V-6.42a1.739,1.739,0,0,0-.371-1.239,1.661,1.661,0,0,0-1.234-.385,1.844,1.844,0,0,0-1.7.965V0H51.512V-10.038ZM-54.848,22.186a4.928,4.928,0,0,1-3.595-1.354,4.815,4.815,0,0,1-1.387-3.609v-.26a6.064,6.064,0,0,1,.584-2.7,4.289,4.289,0,0,1,1.656-1.837,4.648,4.648,0,0,1,2.445-.645,4.166,4.166,0,0,1,3.242,1.3,5.278,5.278,0,0,1,1.183,3.683v1.095h-6.392a2.491,2.491,0,0,0,.784,1.577,2.37,2.37,0,0,0,1.656.594A2.894,2.894,0,0,0-52.25,18.9l1.317,1.475a4.025,4.025,0,0,1-1.633,1.331A5.357,5.357,0,0,1-54.848,22.186Zm-.306-8.248a1.675,1.675,0,0,0-1.294.54,2.8,2.8,0,0,0-.635,1.547h3.729v-.214a2,2,0,0,0-.482-1.384A1.729,1.729,0,0,0-55.154,13.938Zm8.424-1.976.083,1.16a3.5,3.5,0,0,1,2.885-1.345,2.913,2.913,0,0,1,2.375.937,4.372,4.372,0,0,1,.8,2.8V22H-43.27V15.58a1.739,1.739,0,0,0-.371-1.239,1.661,1.661,0,0,0-1.234-.385,1.844,1.844,0,0,0-1.7.965V22h-2.681V11.962Zm20.085,6.494a1.428,1.428,0,0,0-.557-1.211,7.3,7.3,0,0,0-2-.891,14.206,14.206,0,0,1-2.292-.923,3.744,3.744,0,0,1-2.3-3.349,3.262,3.262,0,0,1,.617-1.953,4.024,4.024,0,0,1,1.772-1.341,6.669,6.669,0,0,1,2.593-.482,6.071,6.071,0,0,1,2.579.524,4.107,4.107,0,0,1,1.758,1.48,3.872,3.872,0,0,1,.626,2.171h-2.783a1.821,1.821,0,0,0-.584-1.443,2.4,2.4,0,0,0-1.642-.515,2.567,2.567,0,0,0-1.586.431,1.361,1.361,0,0,0-.566,1.136,1.3,1.3,0,0,0,.663,1.1,7.494,7.494,0,0,0,1.953.835,8.438,8.438,0,0,1,3.46,1.772,3.529,3.529,0,0,1,1.085,2.635,3.251,3.251,0,0,1-1.327,2.751,5.808,5.808,0,0,1-3.572,1,6.9,6.9,0,0,1-2.839-.571,4.492,4.492,0,0,1-1.953-1.563,4,4,0,0,1-.673-2.3h2.792q0,2.236,2.672,2.236a2.6,2.6,0,0,0,1.549-.4A1.313,1.313,0,0,0-26.645,18.456ZM-19.315,22h-2.69V11.962h2.69ZM-22.164,9.364a1.32,1.32,0,0,1,.4-.993,1.516,1.516,0,0,1,1.1-.39,1.52,1.52,0,0,1,1.095.39,1.313,1.313,0,0,1,.408.993,1.316,1.316,0,0,1-.413,1,1.523,1.523,0,0,1-1.09.39,1.523,1.523,0,0,1-1.09-.39A1.316,1.316,0,0,1-22.164,9.364Zm7.57,2.6.083,1.123a3.528,3.528,0,0,1,2.885-1.308,2.677,2.677,0,0,1,2.663,1.531,3.447,3.447,0,0,1,3.015-1.531,2.994,2.994,0,0,1,2.431.951,4.371,4.371,0,0,1,.8,2.862V22h-2.69V15.6a1.911,1.911,0,0,0-.334-1.248,1.48,1.48,0,0,0-1.178-.394,1.673,1.673,0,0,0-1.67,1.15L-8.582,22h-2.681V15.608a1.888,1.888,0,0,0-.343-1.262,1.5,1.5,0,0,0-1.169-.39,1.738,1.738,0,0,0-1.651.946V22h-2.681V11.962ZM5.353,20.979a3.362,3.362,0,0,1-2.746,1.206,3.171,3.171,0,0,1-2.463-.928A3.96,3.96,0,0,1-.724,18.54V11.962H1.958v6.492q0,1.57,1.429,1.57a1.936,1.936,0,0,0,1.874-.947V11.962h2.69V22H5.427ZM12.8,22h-2.69V7.75H12.8Zm8.025,0a2.977,2.977,0,0,1-.269-.9,3.244,3.244,0,0,1-2.533,1.085,3.564,3.564,0,0,1-2.445-.854,2.745,2.745,0,0,1-.969-2.152,2.837,2.837,0,0,1,1.183-2.449,5.837,5.837,0,0,1,3.419-.863h1.234v-.575a1.654,1.654,0,0,0-.357-1.113,1.405,1.405,0,0,0-1.127-.417,1.6,1.6,0,0,0-1.062.325,1.1,1.1,0,0,0-.385.891H14.834a2.693,2.693,0,0,1,.538-1.614A3.557,3.557,0,0,1,16.894,12.2a5.545,5.545,0,0,1,2.208-.422,4.381,4.381,0,0,1,2.946.932,3.262,3.262,0,0,1,1.09,2.621v4.351a4.8,4.8,0,0,0,.4,2.162V22ZM18.61,20.135a2.309,2.309,0,0,0,1.095-.264,1.737,1.737,0,0,0,.742-.71V17.436h-1q-2.013,0-2.143,1.392l-.009.158a1.073,1.073,0,0,0,.353.826A1.369,1.369,0,0,0,18.61,20.135Zm10.762-.111a1.759,1.759,0,0,0,1.206-.408,1.43,1.43,0,0,0,.482-1.085h2.514a3.439,3.439,0,0,1-.557,1.869,3.673,3.673,0,0,1-1.5,1.317,4.689,4.689,0,0,1-2.1.469,4.358,4.358,0,0,1-3.4-1.368,5.415,5.415,0,0,1-1.243-3.781V16.86a5.353,5.353,0,0,1,1.234-3.7A4.307,4.307,0,0,1,29.4,11.776a4.222,4.222,0,0,1,3.02,1.072A3.794,3.794,0,0,1,33.575,15.7H31.061a1.842,1.842,0,0,0-.482-1.273,1.793,1.793,0,0,0-2.639.193,3.958,3.958,0,0,0-.478,2.216v.279a4.008,4.008,0,0,0,.473,2.23A1.635,1.635,0,0,0,29.372,20.024ZM37.935,22h-2.69V11.962h2.69ZM35.087,9.364a1.32,1.32,0,0,1,.4-.993,1.739,1.739,0,0,1,2.194,0,1.417,1.417,0,0,1,0,1.995,1.72,1.72,0,0,1-2.18,0A1.316,1.316,0,0,1,35.087,9.364Zm4.639,7.524a5.953,5.953,0,0,1,.575-2.663,4.211,4.211,0,0,1,1.656-1.809,4.831,4.831,0,0,1,2.51-.64,4.571,4.571,0,0,1,3.317,1.243A4.989,4.989,0,0,1,49.216,16.4l.019.687a5.247,5.247,0,0,1-1.29,3.706,5,5,0,0,1-6.926,0,5.339,5.339,0,0,1-1.294-3.785Zm2.681.19a3.752,3.752,0,0,0,.538,2.188,1.933,1.933,0,0,0,3.062.009,4.106,4.106,0,0,0,.547-2.393,3.715,3.715,0,0,0-.547-2.174,1.779,1.779,0,0,0-1.54-.771,1.75,1.75,0,0,0-1.521.767A4.175,4.175,0,0,0,42.407,17.079ZM45,7.75h2.922l-2.57,2.876h-2.18Zm8.359,4.212.083,1.16a3.5,3.5,0,0,1,2.885-1.345,2.913,2.913,0,0,1,2.375.937,4.372,4.372,0,0,1,.8,2.8V22H56.814V15.58a1.739,1.739,0,0,0-.371-1.239,1.661,1.661,0,0,0-1.234-.385,1.844,1.844,0,0,0-1.7.965V22H50.831V11.962ZM-17.414,39.5a4.78,4.78,0,0,1-1.61,3.433,5.653,5.653,0,0,1-3.827,1.252,5.083,5.083,0,0,1-4.087-1.749,7.171,7.171,0,0,1-1.489-4.8V36.81a8.1,8.1,0,0,1,.687-3.433A5.145,5.145,0,0,1-25.777,31.1a5.5,5.5,0,0,1,2.964-.793,5.507,5.507,0,0,1,3.767,1.252A5.137,5.137,0,0,1-17.4,35.075h-2.783a2.821,2.821,0,0,0-.728-1.9,2.7,2.7,0,0,0-1.906-.589,2.365,2.365,0,0,0-2.083,1,5.589,5.589,0,0,0-.71,3.094V37.7a5.982,5.982,0,0,0,.663,3.2,2.321,2.321,0,0,0,2.092,1.011,2.748,2.748,0,0,0,1.925-.589A2.661,2.661,0,0,0-20.2,39.5Zm4.481,4.5h-2.69V29.75h2.69Zm5.1,0h-2.681V33.962H-7.83Zm-.789-14.111H-5.7l-2.57,2.876h-2.18Zm5.566,4.073.083,1.16A3.5,3.5,0,0,1-.083,33.776a2.913,2.913,0,0,1,2.375.937,4.372,4.372,0,0,1,.8,2.8V44H.408V37.58a1.739,1.739,0,0,0-.371-1.239A1.661,1.661,0,0,0-1.2,35.957a1.844,1.844,0,0,0-1.7.965V44H-5.576V33.962ZM7.951,44H5.26V33.962h2.69ZM5.1,31.364a1.32,1.32,0,0,1,.4-.993,1.516,1.516,0,0,1,1.1-.39,1.52,1.52,0,0,1,1.095.39,1.417,1.417,0,0,1,0,1.995,1.523,1.523,0,0,1-1.09.39,1.523,1.523,0,0,1-1.09-.39A1.316,1.316,0,0,1,5.1,31.364Zm9.231,10.66a1.759,1.759,0,0,0,1.206-.408,1.43,1.43,0,0,0,.482-1.085h2.514a3.439,3.439,0,0,1-.557,1.869,3.673,3.673,0,0,1-1.5,1.317,4.689,4.689,0,0,1-2.1.469,4.358,4.358,0,0,1-3.4-1.368,5.415,5.415,0,0,1-1.243-3.781V38.86a5.353,5.353,0,0,1,1.234-3.7,4.307,4.307,0,0,1,3.386-1.382,4.222,4.222,0,0,1,3.02,1.072A3.794,3.794,0,0,1,18.536,37.7H16.022a1.842,1.842,0,0,0-.482-1.273,1.608,1.608,0,0,0-1.225-.49,1.615,1.615,0,0,0-1.415.683,3.958,3.958,0,0,0-.478,2.216v.279a4.008,4.008,0,0,0,.473,2.23A1.635,1.635,0,0,0,14.333,42.024ZM25.884,44a2.977,2.977,0,0,1-.269-.9,3.244,3.244,0,0,1-2.533,1.085,3.564,3.564,0,0,1-2.445-.854,2.745,2.745,0,0,1-.969-2.152,2.837,2.837,0,0,1,1.183-2.449,5.837,5.837,0,0,1,3.419-.863H25.5v-.575a1.654,1.654,0,0,0-.357-1.113,1.405,1.405,0,0,0-1.127-.417,1.6,1.6,0,0,0-1.062.325,1.1,1.1,0,0,0-.385.891H19.891a2.693,2.693,0,0,1,.538-1.614A3.557,3.557,0,0,1,21.95,34.2a5.545,5.545,0,0,1,2.208-.422,4.381,4.381,0,0,1,2.946.932,3.262,3.262,0,0,1,1.09,2.621v4.351a4.8,4.8,0,0,0,.4,2.162V44Zm-2.217-1.865a2.309,2.309,0,0,0,1.095-.264,1.737,1.737,0,0,0,.742-.71V39.436h-1q-2.013,0-2.143,1.392l-.009.158a1.073,1.073,0,0,0,.353.826A1.369,1.369,0,0,0,23.667,42.135Z" transform="translate(806.016 24308.379)" fill="#fff"/>
      <g id="Grupo_238289" data-name="Grupo 238289" transform="translate(932.552 24229.756)">
        <path id="Trazado_200972" data-name="Trazado 200972" d="M674.892,292.369l-29.534-51.155a14.942,14.942,0,0,0-12.939-7.471H542.275a14.94,14.94,0,0,0-12.939,7.471L499.8,292.369" transform="translate(-491.123 -233.743)" fill="none" stroke="#aceaff" stroke-linecap="round" stroke-linejoin="round" stroke-width="2"/>
        <path id="Trazado_200973" data-name="Trazado 200973" d="M632.916,409.339H545.811a9.117,9.117,0,0,1-7.9-4.559l-43.553-75.435a9.121,9.121,0,0,1,0-9.118l43.553-75.435a9.117,9.117,0,0,1,7.9-4.559h87.105a9.117,9.117,0,0,1,7.9,4.559l43.553,75.435a9.121,9.121,0,0,1,0,9.118L640.813,404.78A9.117,9.117,0,0,1,632.916,409.339Z" transform="translate(-493.139 -231.779)" fill="url(#linear-gradient-2)"/>
        <path id="Trazado_200974" data-name="Trazado 200974" d="M546.9,397.573a5.7,5.7,0,0,1-4.921-2.841L501.956,325.41a5.709,5.709,0,0,1,0-5.686L541.979,250.4a5.7,5.7,0,0,1,4.923-2.842h80.045a5.7,5.7,0,0,1,4.921,2.842l40.024,69.319a5.706,5.706,0,0,1,0,5.687L631.87,394.729a5.7,5.7,0,0,1-4.923,2.844Z" transform="translate(-490.701 -229.561)" fill="#aceaff"/>
        <path id="Trazado_200975" data-name="Trazado 200975" d="M499.8,333.251l29.534,51.156a14.94,14.94,0,0,0,12.939,7.471h90.142a14.942,14.942,0,0,0,12.94-7.471l29.534-51.156" transform="translate(-491.123 -203.629)" fill="none" stroke="#aceaff" stroke-linecap="round" stroke-linejoin="round" stroke-width="2"/>
      </g>
      <path id="Trazado_200976" data-name="Trazado 200976" d="M324.938,292.369,295.4,241.214a14.942,14.942,0,0,0-12.94-7.471H192.321a14.938,14.938,0,0,0-12.939,7.471l-29.534,51.155" transform="translate(335.523 23996.014)" fill="none" stroke="#b5a7e9" stroke-linecap="round" stroke-linejoin="round" stroke-width="2"/>
      <path id="Trazado_200977" data-name="Trazado 200977" d="M282.962,409.339H195.857a9.117,9.117,0,0,1-7.9-4.559l-43.553-75.435a9.121,9.121,0,0,1,0-9.118l43.553-75.435a9.117,9.117,0,0,1,7.9-4.559h87.105a9.117,9.117,0,0,1,7.9,4.559l43.552,75.435a9.115,9.115,0,0,1,0,9.118L290.859,404.78A9.117,9.117,0,0,1,282.962,409.339Z" transform="translate(333.507 23997.977)" fill="url(#linear-gradient-2)"/>
      <path id="Trazado_200978" data-name="Trazado 200978" d="M196.948,397.573a5.7,5.7,0,0,1-4.921-2.841L152,325.41a5.706,5.706,0,0,1,0-5.686L192.025,250.4a5.7,5.7,0,0,1,4.923-2.842h80.044a5.7,5.7,0,0,1,4.923,2.842l40.023,69.319a5.706,5.706,0,0,1,0,5.687l-40.021,69.318a5.7,5.7,0,0,1-4.924,2.844Z" transform="translate(335.945 24000.195)" fill="#b5a7e9"/>
      <path id="Trazado_200979" data-name="Trazado 200979" d="M149.848,333.251l29.534,51.156a14.94,14.94,0,0,0,12.939,7.471h90.142a14.942,14.942,0,0,0,12.94-7.471l29.534-51.156" transform="translate(335.523 24026.127)" fill="none" stroke="#b5a7e9" stroke-linecap="round" stroke-linejoin="round" stroke-width="2"/>
      <path id="Trazado_200980" data-name="Trazado 200980" d="M503.884,461.083,474.35,409.928a14.942,14.942,0,0,0-12.94-7.471H371.268a14.942,14.942,0,0,0-12.94,7.471l-29.534,51.156" transform="translate(389.677 24047.07)" fill="none" stroke="#bebeff" stroke-linecap="round" stroke-linejoin="round" stroke-width="2"/>
      <path id="Trazado_200981" data-name="Trazado 200981" d="M461.908,578.055H374.8a9.12,9.12,0,0,1-7.9-4.559L323.353,498.06a9.115,9.115,0,0,1,0-9.118L366.9,413.505a9.12,9.12,0,0,1,7.9-4.559h87.107a9.12,9.12,0,0,1,7.9,4.559l43.552,75.436a9.115,9.115,0,0,1,0,9.118L469.8,573.5A9.12,9.12,0,0,1,461.908,578.055Z" transform="translate(387.66 24049.035)" fill="url(#linear-gradient-2)"/>
      <path id="Trazado_200982" data-name="Trazado 200982" d="M375.894,566.288a5.693,5.693,0,0,1-4.921-2.842l-40.025-69.321a5.709,5.709,0,0,1,0-5.687l40.022-69.318a5.7,5.7,0,0,1,4.924-2.842h80.044a5.7,5.7,0,0,1,4.923,2.841l40.023,69.321a5.706,5.706,0,0,1,0,5.687l-40.021,69.318a5.7,5.7,0,0,1-4.924,2.844Z" transform="translate(390.1 24051.254)" fill="#bebeff"/>
      <path id="Trazado_200983" data-name="Trazado 200983" d="M328.793,501.966l29.534,51.156a14.942,14.942,0,0,0,12.94,7.471H461.41a14.938,14.938,0,0,0,12.939-7.471l29.536-51.156" transform="translate(389.677 24077.186)" fill="none" stroke="#bebeff" stroke-linecap="round" stroke-linejoin="round" stroke-width="2"/>
    </g>
  </g>
</svg>
