<svg xmlns="http://www.w3.org/2000/svg" width="337.842" height="592.243" viewBox="0 0 337.842 592.243">
  <g id="Grupo_239787" data-name="Grupo 239787" transform="translate(-754.565 -73.507)">
    <path id="Trazado_201004" data-name="Trazado 201004" d="M1168.229,218.4l-40.2,40.2H870.585l-40.2-40.2V114.138l40.2-40.2h257.445l40.2,40.2Z" transform="translate(-75.821 -0.436)" fill="#b6a6eb" style="mix-blend-mode: multiply;isolation: isolate"/>
    <path id="Trazado_201005" data-name="Trazado 201005" d="M1168.229,458.624l-40.2,40.2H870.585l-40.2-40.2V350.715l40.2-40.2h257.445l40.2,40.2Z" transform="translate(-75.821 -23.793)" fill="#fba6ee" style="mix-blend-mode: multiply;isolation: isolate"/>
    <path id="Trazado_201006" data-name="Trazado 201006" d="M1168.229,669.483l-40.2,40.2H870.585l-40.2-40.2v-93.32l40.2-40.2h257.445l40.2,40.2Z" transform="translate(-75.821 -46.051)" fill="#a6ebff" style="mix-blend-mode: multiply;isolation: isolate"/>
    <g id="Capa_1" data-name="Capa 1" transform="translate(789.877 80.02)">
      <text id="ORGANIZACIONES:_-_Respuesta_a_la_necesidad_estratégica_-_Relación_con_el_incidente_adverso_-_Cambios_en_procesos_y_equipos_Agencia_regladoras_Políticas_sanitarias_Registro_de_errores_Estudios" data-name="ORGANIZACIONES:

- Respuesta a la necesidad estratégica
- Relación con el incidente adverso
- Cambios en procesos y equipos 
* Agencia regladoras
* Políticas sanitarias
* Registro de errores 
* Estudios" font-size="17.131" font-family="Roboto-Black, Roboto" font-weight="800"><tspan x="0" y="16">ORGANIZACIONES:</tspan><tspan x="0" y="36.558"></tspan><tspan font-family="Roboto-Medium, Roboto" font-weight="500"><tspan x="0" y="57.115">- Respuesta a la necesidad </tspan><tspan x="0" y="77.673">estratégica</tspan><tspan x="0" y="98.23">- Relación con el incidente adverso</tspan><tspan x="0" y="118.788">- Cambios en procesos y equipos </tspan><tspan x="0" y="139.346">* Agencia regladoras</tspan><tspan x="0" y="159.903">* Políticas sanitarias</tspan></tspan></text>
      <text id="PERSONAS:_-_Déficits_de_conocimiento_-_Déficit_de_habilidades_-_Déficit_de_actitudes_-_Déficit_organizativos_Alumnos_Expertos_Instructores" data-name="PERSONAS:

- Déficits de conocimiento
- Déficit de habilidades
- Déficit de actitudes
- Déficit organizativos
* Alumnos
* Expertos
* Instructores" transform="translate(0 214.516)" font-size="17.131" font-family="Roboto-Black, Roboto" font-weight="800"><tspan x="0" y="16">PERSONAS:</tspan><tspan x="0" y="36.558"></tspan><tspan font-family="Roboto-Medium, Roboto" font-weight="500"><tspan x="0" y="57.115">- Déficits de conocimiento</tspan><tspan x="0" y="77.673">- Déficit de habilidades</tspan><tspan x="0" y="98.23">- Déficit de actitudes</tspan><tspan x="0" y="118.788">- Déficit organizativos</tspan><tspan x="0" y="139.346">* Alumnos</tspan><tspan x="0" y="159.903">* Expertos</tspan></tspan></text>
      <text id="DOCUMENTOS:_-_Definición_de_competencias_-_Análisis_de_tareas_-_Nuevas_referencias_-_Nuevas_regulaciones_Estándares_y_protocolos_Literatura" data-name="DOCUMENTOS:

- Definición de competencias
- Análisis de tareas
- Nuevas referencias
- Nuevas regulaciones
* Estándares y protocolos 
* Literatura" transform="translate(0 418.731)" font-size="17.131" font-family="Roboto-Black, Roboto" font-weight="800"><tspan x="0" y="16">DOCUMENTOS:</tspan><tspan x="0" y="36.558"></tspan><tspan font-family="Roboto-Medium, Roboto" font-weight="500"><tspan x="0" y="57.115">- Definición de competencias</tspan><tspan x="0" y="77.673">- Análisis de tareas</tspan><tspan x="0" y="98.23">- Nuevas referencias</tspan><tspan x="0" y="118.788">- Nuevas regulaciones</tspan><tspan x="0" y="139.346">* Estándares y protocolos </tspan><tspan x="0" y="159.903">* Literatura</tspan></tspan></text>
    </g>
  </g>
</svg>
