<svg xmlns="http://www.w3.org/2000/svg" width="821.262" height="563.382" viewBox="0 0 821.262 563.382">
  <g id="Grupo_137338" data-name="Grupo 137338" transform="translate(-130.147 -181.046)">
    <line id="Línea_514" data-name="Línea 514" y1="44.209" transform="translate(236.068 328.613)" fill="none" stroke="#d100c9" stroke-linecap="round" stroke-linejoin="round" stroke-width="2"/>
    <path id="Trazado_200277" data-name="Trazado 200277" d="M165.279,296.353a4.377,4.377,0,0,1-3.782-2.184l-30.765-53.285a4.387,4.387,0,0,1,0-4.372L161.5,183.231a4.38,4.38,0,0,1,3.784-2.185H306.86a4.378,4.378,0,0,1,3.782,2.184l30.765,53.285a4.376,4.376,0,0,1,0,4.37l-30.762,53.283a4.38,4.38,0,0,1-3.784,2.185Z" transform="translate(0.001)" fill="#e4e4ff"/>
    <path id="Trazado_200278" data-name="Trazado 200278" d="M165.277,436.915a4.377,4.377,0,0,1-3.782-2.184L130.73,381.447a4.387,4.387,0,0,1,0-4.372l30.763-53.281a4.38,4.38,0,0,1,3.784-2.185h141.58a4.377,4.377,0,0,1,3.782,2.184L341.4,377.076a4.384,4.384,0,0,1,0,4.372L310.642,434.73a4.38,4.38,0,0,1-3.784,2.185Z" transform="translate(0 83.475)" fill="#bebeff"/>
    <path id="Trazado_200279" data-name="Trazado 200279" d="M165.279,577.477a4.374,4.374,0,0,1-3.782-2.184l-30.765-53.285a4.384,4.384,0,0,1,0-4.37L161.5,464.355a4.38,4.38,0,0,1,3.784-2.185H306.86a4.376,4.376,0,0,1,3.782,2.185l30.765,53.283a4.379,4.379,0,0,1,0,4.372l-30.762,53.281a4.377,4.377,0,0,1-3.784,2.185Z" transform="translate(0.001 166.951)" fill="#4545ff"/>
    <text id="Educación" transform="translate(235.098 244.124)" font-size="25" font-family="Roboto-Bold, Roboto" font-weight="700"><tspan x="-58.191" y="0">Educación</tspan></text>
    <text id="Herramientas_y_elementos_pedagógicos" data-name="Herramientas
y elementos
pedagógicos" transform="translate(234.531 441.573)" font-size="22" font-family="Roboto-Bold, Roboto" font-weight="700"><tspan x="-67.294" y="0">Herramientas</tspan><tspan x="-60.129" y="26">y elementos</tspan><tspan x="-63.54" y="52">pedagógicos</tspan></text>
    <text id="Enseñanza" transform="translate(235.88 692.387)" font-size="22" font-family="Roboto-Bold, Roboto" font-weight="700"><tspan x="-53.663" y="0">Enseñanza</tspan></text>
    <path id="Trazado_200280" data-name="Trazado 200280" d="M356.456,296.353a4.377,4.377,0,0,1-3.782-2.184l-30.765-53.285a4.384,4.384,0,0,1,0-4.372l30.763-53.281a4.38,4.38,0,0,1,3.784-2.185H498.034a4.378,4.378,0,0,1,3.784,2.184l30.765,53.285a4.385,4.385,0,0,1,0,4.37L501.82,294.168a4.381,4.381,0,0,1-3.785,2.185Z" transform="translate(113.534)" fill="#00c5ff"/>
    <path id="Trazado_200281" data-name="Trazado 200281" d="M356.454,436.915a4.378,4.378,0,0,1-3.782-2.184l-30.765-53.285a4.384,4.384,0,0,1,0-4.372l30.763-53.281a4.38,4.38,0,0,1,3.784-2.185h141.58a4.377,4.377,0,0,1,3.782,2.184l30.765,53.285a4.383,4.383,0,0,1,0,4.372L501.818,434.73a4.38,4.38,0,0,1-3.784,2.185Z" transform="translate(113.533 83.475)" fill="#a6ebff"/>
    <path id="Trazado_200282" data-name="Trazado 200282" d="M356.456,577.477a4.374,4.374,0,0,1-3.782-2.184l-30.765-53.285a4.381,4.381,0,0,1,0-4.37l30.763-53.283a4.38,4.38,0,0,1,3.784-2.185H498.034a4.376,4.376,0,0,1,3.784,2.185l30.765,53.283a4.388,4.388,0,0,1,0,4.372L501.82,575.292a4.377,4.377,0,0,1-3.785,2.185Z" transform="translate(113.534 166.951)" fill="#d9f6ff"/>
    <text id="Introducción_e_información_e_simulación" data-name="Introducción e
información e
simulación" transform="translate(540.055 217.535)" font-size="22" font-family="Roboto-Bold, Roboto" font-weight="700"><tspan x="-70.931" y="0">Introducción e</tspan><tspan x="-68.39" y="26">información e</tspan><tspan x="-54.098" y="52">simulación</tspan></text>
    <text id="Escenarios_controlados" data-name="Escenarios
controlados" transform="translate(537.803 453.961)" font-size="21" font-family="Roboto-Bold, Roboto" font-weight="700"><tspan x="-51.916" y="0">Escenarios</tspan><tspan x="-56.089" y="25">controlados</tspan></text>
    <text id="Aprendizaje" transform="translate(539.213 692.387)" font-size="22" font-family="Roboto-Bold, Roboto" font-weight="700"><tspan x="-59.125" y="0">Aprendizaje</tspan></text>
    <path id="Trazado_200283" data-name="Trazado 200283" d="M547.632,296.353a4.38,4.38,0,0,1-3.784-2.184l-30.765-53.285a4.392,4.392,0,0,1,0-4.372l30.765-53.281a4.378,4.378,0,0,1,3.784-2.185H689.21a4.38,4.38,0,0,1,3.784,2.184l30.765,53.285a4.385,4.385,0,0,1,0,4.37L693,294.168a4.383,4.383,0,0,1-3.786,2.185Z" transform="translate(227.068)" fill="#fdd9f8"/>
    <path id="Trazado_200284" data-name="Trazado 200284" d="M547.63,436.915a4.38,4.38,0,0,1-3.784-2.184l-30.765-53.285a4.391,4.391,0,0,1,0-4.372l30.765-53.281a4.378,4.378,0,0,1,3.784-2.185H689.208a4.38,4.38,0,0,1,3.784,2.184l30.765,53.285a4.387,4.387,0,0,1,0,4.372L692.994,434.73a4.383,4.383,0,0,1-3.785,2.185Z" transform="translate(227.067 83.475)" fill="#fba6ee"/>
    <path id="Trazado_200285" data-name="Trazado 200285" d="M547.632,577.477a4.377,4.377,0,0,1-3.784-2.184l-30.765-53.285a4.388,4.388,0,0,1,0-4.37l30.765-53.283a4.378,4.378,0,0,1,3.784-2.185H689.21a4.378,4.378,0,0,1,3.784,2.185l30.765,53.283a4.388,4.388,0,0,1,0,4.372L693,575.292a4.379,4.379,0,0,1-3.786,2.185Z" transform="translate(227.068 166.951)" fill="#f400ce"/>
    <text id="Guías_de_simulación_clínica" data-name="Guías de
simulación
clínica" transform="translate(845.297 217.535)" font-size="22" font-family="Roboto-Bold, Roboto" font-weight="700"><tspan x="-43.098" y="0">Guías de</tspan><tspan x="-54.098" y="26">simulación</tspan><tspan x="-32.377" y="52">clínica</tspan></text>
    <text id="Aplicación_de_técnicas_y_habilidades_pedagógicas" data-name="Aplicación de
técnicas y
habilidades
pedagógicas" transform="translate(843.949 428.185)" font-size="22" font-family="Roboto-Bold, Roboto" font-weight="700"><tspan x="-66.978" y="0">Aplicación de</tspan><tspan x="-50.026" y="26">técnicas y</tspan><tspan x="-56.891" y="52">habilidades</tspan><tspan x="-63.218" y="78">pedagógicas</tspan></text>
    <text id="Simulación_Clínica" data-name="Simulación
Clínica" transform="translate(844.733 678.807)" font-size="25" font-family="Roboto-Bold, Roboto" font-weight="700"><tspan x="-62.732" y="0">Simulación</tspan><tspan x="-38.452" y="30">Clínica</tspan></text>
    <path id="Trazado_200286" data-name="Trazado 200286" d="M222.749,289.416,203.7,308.465,184.65,289.416" transform="translate(32.368 64.357)" fill="none" stroke="#d100c9" stroke-linecap="round" stroke-linejoin="round" stroke-width="2"/>
    <line id="Línea_515" data-name="Línea 515" y1="44.209" transform="translate(236.068 552.651)" fill="none" stroke="#d100c9" stroke-linecap="round" stroke-linejoin="round" stroke-width="2"/>
    <path id="Trazado_200287" data-name="Trazado 200287" d="M222.749,429.978,203.7,449.027,184.65,429.978" transform="translate(32.368 147.833)" fill="none" stroke="#d100c9" stroke-linecap="round" stroke-linejoin="round" stroke-width="2"/>
    <g id="Grupo_137336" data-name="Grupo 137336" transform="translate(366.321 667.725)">
      <line id="Línea_516" data-name="Línea 516" x1="44.209" transform="translate(0 19.049)" fill="none" stroke="#d100c9" stroke-linecap="round" stroke-linejoin="round" stroke-width="2"/>
      <path id="Trazado_200288" data-name="Trazado 200288" d="M294.109,486.391l19.049,19.049L294.109,524.49" transform="translate(-268.949 -486.391)" fill="none" stroke="#d100c9" stroke-linecap="round" stroke-linejoin="round" stroke-width="2"/>
    </g>
    <g id="Grupo_137337" data-name="Grupo 137337" transform="translate(671.03 219.687)">
      <line id="Línea_517" data-name="Línea 517" x1="44.209" transform="translate(0 19.049)" fill="none" stroke="#d100c9" stroke-linecap="round" stroke-linejoin="round" stroke-width="2"/>
      <path id="Trazado_200289" data-name="Trazado 200289" d="M485.284,205.289l19.049,19.049-19.049,19.049" transform="translate(-460.125 -205.289)" fill="none" stroke="#d100c9" stroke-linecap="round" stroke-linejoin="round" stroke-width="2"/>
    </g>
    <line id="Línea_518" data-name="Línea 518" y1="44.209" transform="translate(845.492 328.613)" fill="none" stroke="#d100c9" stroke-linecap="round" stroke-linejoin="round" stroke-width="2"/>
    <path id="Trazado_200290" data-name="Trazado 200290" d="M605.1,289.416l-19.049,19.049-19.049-19.049" transform="translate(259.437 64.357)" fill="none" stroke="#d100c9" stroke-linecap="round" stroke-linejoin="round" stroke-width="2"/>
    <line id="Línea_519" data-name="Línea 519" y1="44.209" transform="translate(845.492 552.651)" fill="none" stroke="#d100c9" stroke-linecap="round" stroke-linejoin="round" stroke-width="2"/>
    <path id="Trazado_200291" data-name="Trazado 200291" d="M605.1,429.978l-19.049,19.049-19.049-19.049" transform="translate(259.437 147.833)" fill="none" stroke="#d100c9" stroke-linecap="round" stroke-linejoin="round" stroke-width="2"/>
    <line id="Línea_520" data-name="Línea 520" y2="44.209" transform="translate(540.78 552.651)" fill="none" stroke="#d100c9" stroke-linecap="round" stroke-linejoin="round" stroke-width="2"/>
    <path id="Trazado_200292" data-name="Trazado 200292" d="M375.828,433.242l19.049-19.049,19.049,19.049" transform="translate(145.902 138.459)" fill="none" stroke="#d100c9" stroke-linecap="round" stroke-linejoin="round" stroke-width="2"/>
    <line id="Línea_521" data-name="Línea 521" y2="44.209" transform="translate(540.78 328.613)" fill="none" stroke="#d100c9" stroke-linecap="round" stroke-linejoin="round" stroke-width="2"/>
    <path id="Trazado_200293" data-name="Trazado 200293" d="M375.828,292.68l19.049-19.049,19.049,19.049" transform="translate(145.902 54.983)" fill="none" stroke="#d100c9" stroke-linecap="round" stroke-linejoin="round" stroke-width="2"/>
    <path id="Trazado_200294" data-name="Trazado 200294" d="M446.3,217.241" transform="translate(187.752 21.495)" fill="none" stroke="#d100c9" stroke-miterlimit="10" stroke-width="2"/>
  </g>
</svg>
