<svg xmlns="http://www.w3.org/2000/svg" width="821.262" height="563.382" viewBox="0 0 821.262 563.382">
  <g id="Grupo_239786" data-name="Grupo 239786" transform="translate(-390 -8627)">
    <path id="Trazado_231810" data-name="Trazado 231810" d="M0,44.209V0" transform="translate(495.921 8774.567)" fill="none" stroke="#d100c9" stroke-linecap="round" stroke-width="2"/>
    <path id="Trazado_200277" data-name="Trazado 200277" d="M165.279,296.353a4.377,4.377,0,0,1-3.782-2.184l-30.765-53.285a4.387,4.387,0,0,1,0-4.372L161.5,183.231a4.38,4.38,0,0,1,3.784-2.185H306.86a4.378,4.378,0,0,1,3.782,2.184l30.765,53.285a4.376,4.376,0,0,1,0,4.37l-30.762,53.283a4.38,4.38,0,0,1-3.784,2.185Z" transform="translate(259.854 8445.954)" fill="#e4e4ff"/>
    <path id="Trazado_200278" data-name="Trazado 200278" d="M165.277,436.915a4.377,4.377,0,0,1-3.782-2.184L130.73,381.447a4.387,4.387,0,0,1,0-4.372l30.763-53.281a4.38,4.38,0,0,1,3.784-2.185h141.58a4.377,4.377,0,0,1,3.782,2.184L341.4,377.076a4.384,4.384,0,0,1,0,4.372L310.642,434.73a4.38,4.38,0,0,1-3.784,2.185Z" transform="translate(259.854 8529.43)" fill="#bebeff"/>
    <path id="Trazado_200279" data-name="Trazado 200279" d="M165.279,577.477a4.374,4.374,0,0,1-3.782-2.184l-30.765-53.285a4.384,4.384,0,0,1,0-4.37L161.5,464.355a4.38,4.38,0,0,1,3.784-2.185H306.86a4.376,4.376,0,0,1,3.782,2.185l30.765,53.283a4.379,4.379,0,0,1,0,4.372l-30.762,53.281a4.377,4.377,0,0,1-3.784,2.185Z" transform="translate(259.854 8612.905)" fill="#4545ff"/>
    <path id="Trazado_231811" data-name="Trazado 231811" d="M-45.795-7.7h-7.031v4.761h8.252V0H-56.488V-17.773H-44.6v2.966h-8.228v4.236h7.031Zm2.356,1a7.96,7.96,0,0,1,1.385-4.919,4.5,4.5,0,0,1,3.79-1.831,4.045,4.045,0,0,1,3.186,1.44V-18.75h3.54V0h-3.186l-.171-1.4A4.151,4.151,0,0,1-38.287.244a4.483,4.483,0,0,1-3.741-1.837A8.216,8.216,0,0,1-43.439-6.7Zm3.528.263a5.214,5.214,0,0,0,.647,2.849,2.108,2.108,0,0,0,1.88.99,2.361,2.361,0,0,0,2.307-1.381V-9.2a2.327,2.327,0,0,0-2.283-1.381Q-39.911-10.583-39.911-6.439Zm19.019,5.1A4.424,4.424,0,0,1-24.506.244,4.172,4.172,0,0,1-27.747-.977a5.211,5.211,0,0,1-1.141-3.577v-8.655h3.528v8.543q0,2.065,1.88,2.065a2.547,2.547,0,0,0,2.466-1.247v-9.361h3.54V0h-3.32ZM-9.32-2.6a2.314,2.314,0,0,0,1.587-.537A1.882,1.882,0,0,0-7.1-4.565H-3.79a4.525,4.525,0,0,1-.732,2.46A4.833,4.833,0,0,1-6.494-.372,6.17,6.17,0,0,1-9.259.244a5.734,5.734,0,0,1-4.468-1.8,7.125,7.125,0,0,1-1.636-4.974v-.232a7.044,7.044,0,0,1,1.624-4.871,5.667,5.667,0,0,1,4.456-1.819,5.555,5.555,0,0,1,3.973,1.41A4.992,4.992,0,0,1-3.79-8.289H-7.1a2.424,2.424,0,0,0-.635-1.675,2.116,2.116,0,0,0-1.611-.644,2.125,2.125,0,0,0-1.862.9,5.208,5.208,0,0,0-.629,2.916v.367a5.274,5.274,0,0,0,.623,2.934A2.151,2.151,0,0,0-9.32-2.6ZM5.878,0a3.918,3.918,0,0,1-.354-1.184A4.269,4.269,0,0,1,2.191.244,4.69,4.69,0,0,1-1.025-.879,3.612,3.612,0,0,1-2.3-3.711,3.733,3.733,0,0,1-.745-6.934a7.68,7.68,0,0,1,4.5-1.135H5.377v-.757a2.177,2.177,0,0,0-.47-1.465,1.849,1.849,0,0,0-1.483-.549,2.1,2.1,0,0,0-1.4.427A1.451,1.451,0,0,0,1.52-9.241H-2.008A3.544,3.544,0,0,1-1.3-11.365,4.68,4.68,0,0,1,.7-12.9a7.3,7.3,0,0,1,2.905-.555,5.764,5.764,0,0,1,3.876,1.227A4.292,4.292,0,0,1,8.917-8.777v5.725A6.314,6.314,0,0,0,9.442-.208V0ZM2.96-2.454A3.038,3.038,0,0,0,4.4-2.8a2.285,2.285,0,0,0,.977-.934V-6.006H4.059q-2.649,0-2.82,1.831l-.012.208a1.412,1.412,0,0,0,.464,1.086A1.8,1.8,0,0,0,2.96-2.454ZM17.12-2.6a2.314,2.314,0,0,0,1.587-.537,1.882,1.882,0,0,0,.635-1.428H22.65a4.525,4.525,0,0,1-.732,2.46A4.833,4.833,0,0,1,19.946-.372a6.17,6.17,0,0,1-2.765.616,5.734,5.734,0,0,1-4.468-1.8,7.125,7.125,0,0,1-1.636-4.974v-.232A7.044,7.044,0,0,1,12.7-11.633a5.667,5.667,0,0,1,4.456-1.819,5.555,5.555,0,0,1,3.973,1.41,4.992,4.992,0,0,1,1.52,3.754H19.342a2.424,2.424,0,0,0-.635-1.675,2.116,2.116,0,0,0-1.611-.644,2.125,2.125,0,0,0-1.862.9,5.208,5.208,0,0,0-.629,2.916v.367a5.274,5.274,0,0,0,.623,2.934A2.151,2.151,0,0,0,17.12-2.6ZM28.387,0h-3.54V-13.208h3.54ZM24.64-16.626a1.737,1.737,0,0,1,.531-1.306,2,2,0,0,1,1.447-.513,2,2,0,0,1,1.44.513,1.727,1.727,0,0,1,.537,1.306,1.732,1.732,0,0,1-.543,1.318,2,2,0,0,1-1.434.513,2,2,0,0,1-1.434-.513A1.732,1.732,0,0,1,24.64-16.626Zm6.1,9.9a7.833,7.833,0,0,1,.757-3.5,5.54,5.54,0,0,1,2.179-2.38,6.357,6.357,0,0,1,3.3-.842,6.014,6.014,0,0,1,4.364,1.636,6.565,6.565,0,0,1,1.886,4.443l.024.9a6.9,6.9,0,0,1-1.7,4.877A5.9,5.9,0,0,1,37.006.244a5.927,5.927,0,0,1-4.559-1.831,7.025,7.025,0,0,1-1.7-4.98Zm3.528.25A4.937,4.937,0,0,0,34.979-3.6a2.336,2.336,0,0,0,2.026,1,2.341,2.341,0,0,0,2-.984,5.4,5.4,0,0,0,.72-3.148,4.888,4.888,0,0,0-.72-2.861,2.341,2.341,0,0,0-2.026-1.015,2.3,2.3,0,0,0-2,1.009A5.493,5.493,0,0,0,34.271-6.476ZM37.677-18.75h3.845l-3.381,3.784H35.272Zm11,5.542.11,1.526a4.611,4.611,0,0,1,3.8-1.77,3.832,3.832,0,0,1,3.125,1.233,5.752,5.752,0,0,1,1.05,3.687V0H53.229V-8.447a2.289,2.289,0,0,0-.488-1.63,2.186,2.186,0,0,0-1.624-.507,2.427,2.427,0,0,0-2.234,1.27V0H45.355V-13.208Z" transform="translate(494.95 8690.078)"/>
    <path id="Trazado_231812" data-name="Trazado 231812" d="M-53.168,0h-3.223V-6.7h-6.284V0H-65.9V-15.641h3.223V-9.3h6.284v-6.338h3.223Zm7.96.215a5.706,5.706,0,0,1-4.163-1.568,5.575,5.575,0,0,1-1.606-4.179v-.3A7.021,7.021,0,0,1-50.3-8.964a4.967,4.967,0,0,1,1.917-2.127,5.382,5.382,0,0,1,2.831-.747,4.824,4.824,0,0,1,3.754,1.5,6.111,6.111,0,0,1,1.37,4.265V-4.8h-7.4a2.884,2.884,0,0,0,.908,1.826A2.744,2.744,0,0,0-45-2.288a3.351,3.351,0,0,0,2.8-1.3l1.525,1.708A4.66,4.66,0,0,1-42.566-.338,6.2,6.2,0,0,1-45.208.215Zm-.354-9.55a1.94,1.94,0,0,0-1.5.626A3.241,3.241,0,0,0-47.8-6.918h4.318v-.248a2.311,2.311,0,0,0-.559-1.6A2,2,0,0,0-45.563-9.335Zm13.428.623A8.434,8.434,0,0,0-33.252-8.8a2.274,2.274,0,0,0-2.31,1.192V0h-3.1V-11.623h2.933l.086,1.386a2.877,2.877,0,0,1,2.589-1.6,3.253,3.253,0,0,1,.967.14Zm8.024,0A8.434,8.434,0,0,0-25.228-8.8a2.274,2.274,0,0,0-2.31,1.192V0h-3.1V-11.623h2.933l.086,1.386a2.877,2.877,0,0,1,2.589-1.6,3.253,3.253,0,0,1,.967.14ZM-16.2,0a3.448,3.448,0,0,1-.312-1.042A3.756,3.756,0,0,1-19.449.215a4.127,4.127,0,0,1-2.831-.988A3.178,3.178,0,0,1-23.4-3.266,3.285,3.285,0,0,1-22.032-6.1a6.758,6.758,0,0,1,3.958-1h1.429v-.666a1.915,1.915,0,0,0-.414-1.289,1.627,1.627,0,0,0-1.305-.483,1.85,1.85,0,0,0-1.23.376,1.277,1.277,0,0,0-.446,1.031h-3.1A3.118,3.118,0,0,1-22.521-10a4.118,4.118,0,0,1,1.762-1.348,6.42,6.42,0,0,1,2.557-.489,5.073,5.073,0,0,1,3.411,1.08A3.777,3.777,0,0,1-13.53-7.724v5.038a5.557,5.557,0,0,0,.462,2.5V0Zm-2.567-2.159A2.674,2.674,0,0,0-17.5-2.465a2.011,2.011,0,0,0,.859-.822v-2h-1.16q-2.331,0-2.481,1.611l-.011.183a1.243,1.243,0,0,0,.408.956A1.586,1.586,0,0,0-18.772-2.159Zm10.538-9.464.1,1.3A4.085,4.085,0,0,1-4.8-11.838a3.1,3.1,0,0,1,3.083,1.772,3.991,3.991,0,0,1,3.491-1.772,3.467,3.467,0,0,1,2.814,1.1,5.061,5.061,0,0,1,.924,3.314V0H2.4V-7.412a2.213,2.213,0,0,0-.387-1.445A1.714,1.714,0,0,0,.65-9.313,1.938,1.938,0,0,0-1.284-7.981L-1.273,0h-3.1V-7.4a2.186,2.186,0,0,0-.4-1.461,1.731,1.731,0,0,0-1.354-.451,2.012,2.012,0,0,0-1.912,1.1V0h-3.1V-11.623ZM11.177,0H8.062V-11.623h3.115Zm-3.3-14.631a1.529,1.529,0,0,1,.467-1.149,1.755,1.755,0,0,1,1.273-.451,1.759,1.759,0,0,1,1.268.451,1.52,1.52,0,0,1,.473,1.149,1.524,1.524,0,0,1-.478,1.16,1.764,1.764,0,0,1-1.262.451,1.764,1.764,0,0,1-1.262-.451A1.524,1.524,0,0,1,7.879-14.631ZM19.083.215a5.706,5.706,0,0,1-4.163-1.568,5.575,5.575,0,0,1-1.606-4.179v-.3a7.021,7.021,0,0,1,.677-3.131,4.967,4.967,0,0,1,1.917-2.127,5.382,5.382,0,0,1,2.831-.747,4.824,4.824,0,0,1,3.754,1.5,6.111,6.111,0,0,1,1.37,4.265V-4.8h-7.4a2.884,2.884,0,0,0,.908,1.826,2.744,2.744,0,0,0,1.917.688,3.351,3.351,0,0,0,2.8-1.3L23.617-1.88A4.66,4.66,0,0,1,21.726-.338,6.2,6.2,0,0,1,19.083.215Zm-.354-9.55a1.94,1.94,0,0,0-1.5.626,3.241,3.241,0,0,0-.736,1.791h4.318v-.248a2.311,2.311,0,0,0-.559-1.6A2,2,0,0,0,18.729-9.335Zm9.754-2.288.1,1.343a4.058,4.058,0,0,1,3.341-1.558,3.372,3.372,0,0,1,2.75,1.085,5.062,5.062,0,0,1,.924,3.244V0h-3.1V-7.434a2.014,2.014,0,0,0-.43-1.434,1.924,1.924,0,0,0-1.429-.446A2.136,2.136,0,0,0,28.666-8.2V0h-3.1V-11.623ZM41.664-14.48v2.857h1.987v2.277H41.664v5.8a1.385,1.385,0,0,0,.247.924,1.241,1.241,0,0,0,.945.279,4.951,4.951,0,0,0,.913-.075V-.064a6.391,6.391,0,0,1-1.88.279q-3.266,0-3.33-3.3V-9.346h-1.7v-2.277h1.7V-14.48ZM52.116,0A3.447,3.447,0,0,1,51.8-1.042,3.756,3.756,0,0,1,48.872.215a4.127,4.127,0,0,1-2.831-.988,3.178,3.178,0,0,1-1.123-2.492A3.285,3.285,0,0,1,46.288-6.1a6.758,6.758,0,0,1,3.958-1h1.429v-.666a1.915,1.915,0,0,0-.414-1.289,1.627,1.627,0,0,0-1.305-.483,1.85,1.85,0,0,0-1.23.376,1.277,1.277,0,0,0-.446,1.031h-3.1A3.119,3.119,0,0,1,45.8-10a4.118,4.118,0,0,1,1.762-1.348,6.42,6.42,0,0,1,2.557-.489,5.073,5.073,0,0,1,3.411,1.08,3.777,3.777,0,0,1,1.262,3.035v5.038a5.557,5.557,0,0,0,.462,2.5V0ZM49.548-2.159a2.674,2.674,0,0,0,1.268-.306,2.011,2.011,0,0,0,.859-.822v-2h-1.16q-2.331,0-2.481,1.611l-.011.183a1.243,1.243,0,0,0,.408.956A1.586,1.586,0,0,0,49.548-2.159ZM63.47-3.212a1,1,0,0,0-.564-.9,6.406,6.406,0,0,0-1.81-.585q-4.146-.87-4.146-3.523A3.194,3.194,0,0,1,58.233-10.8a5.178,5.178,0,0,1,3.357-1.037A5.573,5.573,0,0,1,65.13-10.8a3.284,3.284,0,0,1,1.327,2.707h-3.1a1.5,1.5,0,0,0-.43-1.1,1.818,1.818,0,0,0-1.343-.435,1.858,1.858,0,0,0-1.214.354,1.119,1.119,0,0,0-.43.9.957.957,0,0,0,.489.833,5.028,5.028,0,0,0,1.649.548,13.468,13.468,0,0,1,1.955.521,3.212,3.212,0,0,1,2.46,3.126A3.032,3.032,0,0,1,65.125-.768,5.885,5.885,0,0,1,61.6.215a6.147,6.147,0,0,1-2.594-.521,4.353,4.353,0,0,1-1.778-1.429,3.32,3.32,0,0,1-.645-1.96h2.943a1.621,1.621,0,0,0,.612,1.268,2.429,2.429,0,0,0,1.525.44,2.248,2.248,0,0,0,1.348-.338A1.053,1.053,0,0,0,63.47-3.212ZM-54.6,21.606l2.148-7.229h3.33L-53.792,27.8l-.258.612a3.543,3.543,0,0,1-3.437,2.277,4.885,4.885,0,0,1-1.375-.2V28.138l.473.011a2.554,2.554,0,0,0,1.316-.269,1.764,1.764,0,0,0,.682-.892l.365-.956L-60.1,14.377h3.341Zm17.531,4.608a5.706,5.706,0,0,1-4.163-1.568,5.575,5.575,0,0,1-1.606-4.179v-.3a7.021,7.021,0,0,1,.677-3.131,4.967,4.967,0,0,1,1.917-2.127,5.382,5.382,0,0,1,2.831-.747,4.824,4.824,0,0,1,3.754,1.5,6.111,6.111,0,0,1,1.37,4.265V21.2h-7.4a2.884,2.884,0,0,0,.908,1.826,2.744,2.744,0,0,0,1.917.688,3.351,3.351,0,0,0,2.8-1.3l1.525,1.708a4.66,4.66,0,0,1-1.891,1.542A6.2,6.2,0,0,1-37.066,26.215Zm-.354-9.55a1.94,1.94,0,0,0-1.5.626,3.241,3.241,0,0,0-.736,1.791h4.318v-.248a2.311,2.311,0,0,0-.559-1.6A2,2,0,0,0-37.42,16.665ZM-27.248,26h-3.115V9.5h3.115Zm7.906.215A5.706,5.706,0,0,1-23.5,24.646a5.575,5.575,0,0,1-1.606-4.179v-.3a7.021,7.021,0,0,1,.677-3.131,4.967,4.967,0,0,1,1.917-2.127,5.382,5.382,0,0,1,2.831-.747,4.824,4.824,0,0,1,3.754,1.5,6.111,6.111,0,0,1,1.37,4.265V21.2h-7.4a2.884,2.884,0,0,0,.908,1.826,2.744,2.744,0,0,0,1.917.688,3.351,3.351,0,0,0,2.8-1.3l1.525,1.708A4.66,4.66,0,0,1-16.7,25.662,6.2,6.2,0,0,1-19.341,26.215Zm-.354-9.55a1.94,1.94,0,0,0-1.5.626,3.241,3.241,0,0,0-.736,1.791h4.318v-.248a2.311,2.311,0,0,0-.559-1.6A2,2,0,0,0-19.7,16.665Zm9.808-2.288.1,1.3a4.085,4.085,0,0,1,3.341-1.515,3.1,3.1,0,0,1,3.083,1.772A3.991,3.991,0,0,1,.124,14.162a3.467,3.467,0,0,1,2.814,1.1,5.061,5.061,0,0,1,.924,3.314V26H.747V18.588A2.213,2.213,0,0,0,.36,17.143,1.714,1.714,0,0,0-1,16.687a1.938,1.938,0,0,0-1.934,1.332L-2.927,26h-3.1V18.6a2.186,2.186,0,0,0-.4-1.461,1.731,1.731,0,0,0-1.354-.451,2.012,2.012,0,0,0-1.912,1.1V26h-3.1V14.377ZM11.6,26.215a5.706,5.706,0,0,1-4.163-1.568,5.575,5.575,0,0,1-1.606-4.179v-.3A7.021,7.021,0,0,1,6.5,17.036a4.967,4.967,0,0,1,1.917-2.127,5.382,5.382,0,0,1,2.831-.747,4.824,4.824,0,0,1,3.754,1.5,6.111,6.111,0,0,1,1.37,4.265V21.2h-7.4a2.884,2.884,0,0,0,.908,1.826,2.744,2.744,0,0,0,1.917.688,3.351,3.351,0,0,0,2.8-1.3l1.525,1.708a4.66,4.66,0,0,1-1.891,1.542A6.2,6.2,0,0,1,11.6,26.215Zm-.354-9.55a1.94,1.94,0,0,0-1.5.626,3.241,3.241,0,0,0-.736,1.791h4.318v-.248a2.311,2.311,0,0,0-.559-1.6A2,2,0,0,0,11.242,16.665ZM21,14.377l.1,1.343a4.058,4.058,0,0,1,3.341-1.558,3.372,3.372,0,0,1,2.75,1.085,5.062,5.062,0,0,1,.924,3.244V26H25V18.566a2.014,2.014,0,0,0-.43-1.434,1.924,1.924,0,0,0-1.429-.446A2.136,2.136,0,0,0,21.178,17.8V26h-3.1V14.377ZM34.176,11.52v2.857h1.987v2.277H34.176v5.8a1.385,1.385,0,0,0,.247.924,1.241,1.241,0,0,0,.945.279,4.951,4.951,0,0,0,.913-.075v2.353a6.391,6.391,0,0,1-1.88.279q-3.266,0-3.33-3.3V16.654h-1.7V14.377h1.7V11.52Zm2.911,8.562A6.893,6.893,0,0,1,37.753,17,4.876,4.876,0,0,1,39.671,14.9a5.594,5.594,0,0,1,2.906-.741,5.293,5.293,0,0,1,3.84,1.439,5.777,5.777,0,0,1,1.66,3.91l.021.795A6.075,6.075,0,0,1,46.6,24.6,5.19,5.19,0,0,1,42.6,26.215,5.216,5.216,0,0,1,38.586,24.6a6.182,6.182,0,0,1-1.5-4.383Zm3.1.22a4.345,4.345,0,0,0,.623,2.534,2.238,2.238,0,0,0,3.545.011,4.754,4.754,0,0,0,.634-2.77,4.3,4.3,0,0,0-.634-2.518,2.06,2.06,0,0,0-1.783-.893,2.027,2.027,0,0,0-1.762.888A4.834,4.834,0,0,0,40.192,20.3Zm16.113,2.487a1,1,0,0,0-.564-.9,6.406,6.406,0,0,0-1.81-.585q-4.146-.87-4.146-3.523A3.194,3.194,0,0,1,51.068,15.2a5.178,5.178,0,0,1,3.357-1.037,5.573,5.573,0,0,1,3.54,1.042,3.284,3.284,0,0,1,1.327,2.707h-3.1a1.5,1.5,0,0,0-.43-1.1,1.818,1.818,0,0,0-1.343-.435,1.858,1.858,0,0,0-1.214.354,1.119,1.119,0,0,0-.43.9.957.957,0,0,0,.489.833,5.028,5.028,0,0,0,1.649.548,13.468,13.468,0,0,1,1.955.521,3.212,3.212,0,0,1,2.46,3.126,3.032,3.032,0,0,1-1.364,2.573,5.885,5.885,0,0,1-3.523.983,6.147,6.147,0,0,1-2.594-.521,4.353,4.353,0,0,1-1.778-1.429,3.32,3.32,0,0,1-.645-1.96h2.943a1.621,1.621,0,0,0,.612,1.268,2.429,2.429,0,0,0,1.525.44,2.248,2.248,0,0,0,1.348-.338A1.053,1.053,0,0,0,56.305,22.788ZM-51.885,46.3A6.971,6.971,0,0,1-53.1,50.6,3.909,3.909,0,0,1-56.4,52.215a3.621,3.621,0,0,1-2.847-1.225v5.479h-3.1V40.377h2.879l.107,1.139a3.649,3.649,0,0,1,2.943-1.354,3.936,3.936,0,0,1,3.341,1.59,7.16,7.16,0,0,1,1.192,4.383Zm-3.1-.226a4.574,4.574,0,0,0-.575-2.5,1.872,1.872,0,0,0-1.67-.881A2.033,2.033,0,0,0-59.243,43.8v4.759a2.067,2.067,0,0,0,2.03,1.149Q-54.989,49.712-54.989,46.07Zm10.377,6.145a5.706,5.706,0,0,1-4.163-1.568,5.575,5.575,0,0,1-1.606-4.179v-.3a7.021,7.021,0,0,1,.677-3.131,4.967,4.967,0,0,1,1.917-2.127,5.382,5.382,0,0,1,2.831-.747,4.824,4.824,0,0,1,3.754,1.5,6.111,6.111,0,0,1,1.37,4.265V47.2h-7.4a2.884,2.884,0,0,0,.908,1.826,2.744,2.744,0,0,0,1.917.688,3.351,3.351,0,0,0,2.8-1.3l1.525,1.708a4.66,4.66,0,0,1-1.891,1.542A6.2,6.2,0,0,1-44.612,52.215Zm-.354-9.55a1.94,1.94,0,0,0-1.5.626,3.241,3.241,0,0,0-.736,1.791h4.318v-.248a2.311,2.311,0,0,0-.559-1.6A2,2,0,0,0-44.967,42.665Zm6.413,3.438a7,7,0,0,1,1.219-4.329A3.956,3.956,0,0,1-34,40.162a3.56,3.56,0,0,1,2.8,1.268V35.5h3.115V52h-2.8l-.15-1.235a3.653,3.653,0,0,1-2.986,1.45A3.945,3.945,0,0,1-37.313,50.6,7.23,7.23,0,0,1-38.554,46.1Zm3.1.231a4.588,4.588,0,0,0,.569,2.507,1.855,1.855,0,0,0,1.654.871A2.077,2.077,0,0,0-31.2,48.5V43.9A2.048,2.048,0,0,0-33.2,42.687Q-35.449,42.687-35.449,46.334ZM-18.938,52a3.448,3.448,0,0,1-.312-1.042,3.756,3.756,0,0,1-2.933,1.257,4.127,4.127,0,0,1-2.831-.988,3.178,3.178,0,0,1-1.123-2.492,3.285,3.285,0,0,1,1.37-2.836,6.758,6.758,0,0,1,3.958-1h1.429v-.666a1.915,1.915,0,0,0-.414-1.289,1.627,1.627,0,0,0-1.305-.483,1.85,1.85,0,0,0-1.23.376,1.277,1.277,0,0,0-.446,1.031h-3.1A3.118,3.118,0,0,1-25.255,42a4.118,4.118,0,0,1,1.762-1.348,6.42,6.42,0,0,1,2.557-.489,5.073,5.073,0,0,1,3.411,1.08,3.777,3.777,0,0,1,1.262,3.035v5.038a5.557,5.557,0,0,0,.462,2.5V52Zm-2.567-2.159a2.674,2.674,0,0,0,1.268-.306,2.011,2.011,0,0,0,.859-.822v-2h-1.16q-2.331,0-2.481,1.611l-.011.183a1.243,1.243,0,0,0,.408.956A1.586,1.586,0,0,0-21.506,49.841ZM-14.33,46.1a6.812,6.812,0,0,1,1.273-4.308,4.125,4.125,0,0,1,3.432-1.633,3.617,3.617,0,0,1,2.976,1.311l.129-1.1h2.814V51.613A4.968,4.968,0,0,1-4.4,54.267a4.45,4.45,0,0,1-1.95,1.719,6.854,6.854,0,0,1-2.943.591,6.373,6.373,0,0,1-2.492-.51,4.423,4.423,0,0,1-1.837-1.316l1.375-1.891a3.637,3.637,0,0,0,2.814,1.3A2.662,2.662,0,0,0-7.509,53.5a2.478,2.478,0,0,0,.688-1.875V51a3.591,3.591,0,0,1-2.825,1.214,4.114,4.114,0,0,1-3.389-1.638,6.81,6.81,0,0,1-1.294-4.345Zm3.1.231a4.242,4.242,0,0,0,.634,2.48,2.016,2.016,0,0,0,1.74.9,2.156,2.156,0,0,0,2.03-1.065v-4.9A2.151,2.151,0,0,0-8.83,42.687a2.029,2.029,0,0,0-1.756.915A4.781,4.781,0,0,0-11.226,46.334Zm9.421-.253A6.893,6.893,0,0,1-1.139,43,4.876,4.876,0,0,1,.779,40.9a5.594,5.594,0,0,1,2.906-.741A5.293,5.293,0,0,1,7.525,41.6a5.777,5.777,0,0,1,1.66,3.91l.021.795A6.075,6.075,0,0,1,7.713,50.6a5.19,5.19,0,0,1-4.007,1.617A5.216,5.216,0,0,1-.306,50.6a6.182,6.182,0,0,1-1.5-4.383Zm3.1.22a4.345,4.345,0,0,0,.623,2.534,2.055,2.055,0,0,0,1.783.877,2.06,2.06,0,0,0,1.762-.866,4.754,4.754,0,0,0,.634-2.77,4.3,4.3,0,0,0-.634-2.518,2.06,2.06,0,0,0-1.783-.893,2.027,2.027,0,0,0-1.762.888A4.834,4.834,0,0,0,1.3,46.3Zm3-10.8H7.681L4.705,38.83H2.181Zm6.37,10.6a6.812,6.812,0,0,1,1.273-4.308,4.125,4.125,0,0,1,3.432-1.633,3.617,3.617,0,0,1,2.976,1.311l.129-1.1h2.814V51.613a4.968,4.968,0,0,1-.693,2.653,4.45,4.45,0,0,1-1.95,1.719,6.854,6.854,0,0,1-2.943.591,6.373,6.373,0,0,1-2.492-.51,4.423,4.423,0,0,1-1.837-1.316l1.375-1.891a3.637,3.637,0,0,0,2.814,1.3,2.662,2.662,0,0,0,1.923-.661,2.478,2.478,0,0,0,.688-1.875V51a3.591,3.591,0,0,1-2.825,1.214,4.114,4.114,0,0,1-3.389-1.638,6.81,6.81,0,0,1-1.294-4.345Zm3.1.231a4.242,4.242,0,0,0,.634,2.48,2.016,2.016,0,0,0,1.74.9,2.156,2.156,0,0,0,2.03-1.065v-4.9a2.151,2.151,0,0,0-2.009-1.065,2.029,2.029,0,0,0-1.756.915A4.781,4.781,0,0,0,13.771,46.334ZM26.952,52H23.837V40.377h3.115Zm-3.3-14.631a1.529,1.529,0,0,1,.467-1.149,2.014,2.014,0,0,1,2.541,0,1.64,1.64,0,0,1-.005,2.31,1.991,1.991,0,0,1-2.524,0A1.524,1.524,0,0,1,23.654,37.369ZM34.343,49.712a2.036,2.036,0,0,0,1.4-.473,1.656,1.656,0,0,0,.559-1.257h2.911a3.982,3.982,0,0,1-.645,2.165,4.253,4.253,0,0,1-1.735,1.525,5.43,5.43,0,0,1-2.433.542,5.046,5.046,0,0,1-3.932-1.584,6.27,6.27,0,0,1-1.439-4.377v-.2a6.2,6.2,0,0,1,1.429-4.286,4.987,4.987,0,0,1,3.921-1.6,4.889,4.889,0,0,1,3.5,1.241,4.393,4.393,0,0,1,1.337,3.3H36.3a2.133,2.133,0,0,0-.559-1.474,2.076,2.076,0,0,0-3.056.224,4.583,4.583,0,0,0-.553,2.566v.323a4.641,4.641,0,0,0,.548,2.582A1.893,1.893,0,0,0,34.343,49.712ZM40.5,46.081A6.893,6.893,0,0,1,41.164,43,4.876,4.876,0,0,1,43.082,40.9a5.594,5.594,0,0,1,2.906-.741,5.293,5.293,0,0,1,3.84,1.439,5.777,5.777,0,0,1,1.66,3.91l.021.795A6.075,6.075,0,0,1,50.016,50.6a5.19,5.19,0,0,1-4.007,1.617A5.216,5.216,0,0,1,42,50.6a6.182,6.182,0,0,1-1.5-4.383Zm3.1.22a4.345,4.345,0,0,0,.623,2.534,2.238,2.238,0,0,0,3.545.011,4.754,4.754,0,0,0,.634-2.77,4.3,4.3,0,0,0-.634-2.518,2.06,2.06,0,0,0-1.783-.893,2.027,2.027,0,0,0-1.762.888A4.834,4.834,0,0,0,43.6,46.3Zm16.113,2.487a1,1,0,0,0-.564-.9,6.406,6.406,0,0,0-1.81-.585q-4.146-.87-4.146-3.523A3.194,3.194,0,0,1,54.479,41.2a5.178,5.178,0,0,1,3.357-1.037,5.573,5.573,0,0,1,3.54,1.042A3.284,3.284,0,0,1,62.7,43.911H59.6a1.5,1.5,0,0,0-.43-1.1,1.818,1.818,0,0,0-1.343-.435,1.858,1.858,0,0,0-1.214.354,1.119,1.119,0,0,0-.43.9.957.957,0,0,0,.489.833,5.028,5.028,0,0,0,1.649.548,13.468,13.468,0,0,1,1.955.521,3.212,3.212,0,0,1,2.46,3.126,3.032,3.032,0,0,1-1.364,2.573,5.885,5.885,0,0,1-3.523.983,6.147,6.147,0,0,1-2.594-.521,4.353,4.353,0,0,1-1.778-1.429,3.32,3.32,0,0,1-.645-1.96h2.943a1.621,1.621,0,0,0,.612,1.268,2.429,2.429,0,0,0,1.525.44,2.248,2.248,0,0,0,1.348-.338A1.053,1.053,0,0,0,59.716,48.788Z" transform="translate(494.385 8887.526)"/>
    <path id="Trazado_231813" data-name="Trazado 231813" d="M-42.856-6.778h-6.187v4.189h7.262V0H-52.266V-15.641H-41.8v2.61h-7.24V-9.3h6.188Zm5.618-4.845.1,1.343A4.058,4.058,0,0,1-33.8-11.838a3.372,3.372,0,0,1,2.75,1.085,5.062,5.062,0,0,1,.924,3.244V0h-3.1V-7.434a2.014,2.014,0,0,0-.43-1.434,1.924,1.924,0,0,0-1.429-.446A2.136,2.136,0,0,0-37.055-8.2V0h-3.1V-11.623Zm15.759,8.411a1,1,0,0,0-.564-.9,6.406,6.406,0,0,0-1.81-.585Q-28-5.564-28-8.218A3.194,3.194,0,0,1-26.716-10.8a5.178,5.178,0,0,1,3.357-1.037,5.573,5.573,0,0,1,3.54,1.042,3.284,3.284,0,0,1,1.327,2.707h-3.1a1.5,1.5,0,0,0-.43-1.1,1.818,1.818,0,0,0-1.343-.435,1.858,1.858,0,0,0-1.214.354,1.119,1.119,0,0,0-.43.9.957.957,0,0,0,.489.833,5.028,5.028,0,0,0,1.649.548,13.468,13.468,0,0,1,1.955.521,3.212,3.212,0,0,1,2.46,3.126A3.032,3.032,0,0,1-19.825-.768a5.885,5.885,0,0,1-3.523.983,6.147,6.147,0,0,1-2.594-.521A4.353,4.353,0,0,1-27.72-1.735a3.32,3.32,0,0,1-.645-1.96h2.943a1.621,1.621,0,0,0,.612,1.268,2.429,2.429,0,0,0,1.525.44,2.248,2.248,0,0,0,1.348-.338A1.053,1.053,0,0,0-21.479-3.212ZM-11.113.215a5.706,5.706,0,0,1-4.163-1.568,5.575,5.575,0,0,1-1.606-4.179v-.3A7.021,7.021,0,0,1-16.2-8.964a4.967,4.967,0,0,1,1.917-2.127,5.382,5.382,0,0,1,2.831-.747,4.824,4.824,0,0,1,3.754,1.5,6.111,6.111,0,0,1,1.37,4.265V-4.8h-7.4a2.884,2.884,0,0,0,.908,1.826,2.744,2.744,0,0,0,1.917.688,3.351,3.351,0,0,0,2.8-1.3L-6.58-1.88A4.66,4.66,0,0,1-8.47-.338,6.2,6.2,0,0,1-11.113.215Zm-.354-9.55a1.94,1.94,0,0,0-1.5.626A3.241,3.241,0,0,0-13.7-6.918h4.318v-.248a2.311,2.311,0,0,0-.559-1.6A2,2,0,0,0-11.467-9.335Zm9.754-2.288.1,1.343a4.058,4.058,0,0,1,3.341-1.558,3.372,3.372,0,0,1,2.75,1.085A5.062,5.062,0,0,1,5.4-7.509V0h-3.1V-7.434a2.014,2.014,0,0,0-.43-1.434A1.924,1.924,0,0,0,.435-9.313,2.136,2.136,0,0,0-1.531-8.2V0h-3.1V-11.623ZM4.453-16.36a3.007,3.007,0,0,1-.709,2.036,2.2,2.2,0,0,1-1.729.822,2.623,2.623,0,0,1-.725-.091,4.866,4.866,0,0,1-.875-.392,4.723,4.723,0,0,0-.806-.371,1.969,1.969,0,0,0-.537-.07.861.861,0,0,0-.639.269,1.044,1.044,0,0,0-.263.763l-1.8-.107a3.052,3.052,0,0,1,.7-2.03,2.17,2.17,0,0,1,1.724-.838,2.219,2.219,0,0,1,.607.081,6.683,6.683,0,0,1,.929.392,6.039,6.039,0,0,0,.892.376,2.035,2.035,0,0,0,.516.064.906.906,0,0,0,.65-.263,1,1,0,0,0,.274-.757ZM14.486,0a3.447,3.447,0,0,1-.312-1.042A3.756,3.756,0,0,1,11.242.215,4.127,4.127,0,0,1,8.411-.773,3.178,3.178,0,0,1,7.289-3.266,3.285,3.285,0,0,1,8.658-6.1a6.758,6.758,0,0,1,3.958-1h1.429v-.666a1.915,1.915,0,0,0-.414-1.289,1.627,1.627,0,0,0-1.305-.483,1.85,1.85,0,0,0-1.23.376,1.277,1.277,0,0,0-.446,1.031h-3.1A3.118,3.118,0,0,1,8.169-10a4.118,4.118,0,0,1,1.762-1.348,6.42,6.42,0,0,1,2.557-.489,5.073,5.073,0,0,1,3.411,1.08,3.777,3.777,0,0,1,1.262,3.035v5.038a5.557,5.557,0,0,0,.462,2.5V0ZM11.918-2.159a2.674,2.674,0,0,0,1.268-.306,2.011,2.011,0,0,0,.859-.822v-2h-1.16q-2.331,0-2.481,1.611l-.011.183a1.243,1.243,0,0,0,.408.956A1.586,1.586,0,0,0,11.918-2.159ZM22.4-11.623l.1,1.343a4.058,4.058,0,0,1,3.341-1.558,3.372,3.372,0,0,1,2.75,1.085,5.062,5.062,0,0,1,.924,3.244V0h-3.1V-7.434a2.014,2.014,0,0,0-.43-1.434,1.924,1.924,0,0,0-1.429-.446A2.136,2.136,0,0,0,22.585-8.2V0h-3.1V-11.623ZM35.433-2.5h5.683V0H31.469V-1.891L36.937-9.12H31.63v-2.5h9.313v1.829ZM49.8,0a3.447,3.447,0,0,1-.312-1.042A3.756,3.756,0,0,1,46.551.215a4.127,4.127,0,0,1-2.831-.988A3.178,3.178,0,0,1,42.6-3.266,3.285,3.285,0,0,1,43.968-6.1a6.758,6.758,0,0,1,3.958-1h1.429v-.666a1.915,1.915,0,0,0-.414-1.289,1.627,1.627,0,0,0-1.305-.483,1.85,1.85,0,0,0-1.23.376,1.277,1.277,0,0,0-.446,1.031h-3.1A3.119,3.119,0,0,1,43.479-10a4.118,4.118,0,0,1,1.762-1.348,6.42,6.42,0,0,1,2.557-.489,5.073,5.073,0,0,1,3.411,1.08A3.777,3.777,0,0,1,52.47-7.724v5.038a5.557,5.557,0,0,0,.462,2.5V0ZM47.228-2.159A2.674,2.674,0,0,0,48.5-2.465a2.011,2.011,0,0,0,.859-.822v-2h-1.16q-2.331,0-2.481,1.611l-.011.183a1.243,1.243,0,0,0,.408.956A1.586,1.586,0,0,0,47.228-2.159Z" transform="translate(495.733 9138.341)"/>
    <path id="Trazado_200280" data-name="Trazado 200280" d="M356.456,296.353a4.377,4.377,0,0,1-3.782-2.184l-30.765-53.285a4.384,4.384,0,0,1,0-4.372l30.763-53.281a4.38,4.38,0,0,1,3.784-2.185H498.034a4.378,4.378,0,0,1,3.784,2.184l30.765,53.285a4.385,4.385,0,0,1,0,4.37L501.82,294.168a4.381,4.381,0,0,1-3.785,2.185Z" transform="translate(373.388 8445.954)" fill="#00c5ff"/>
    <path id="Trazado_200281" data-name="Trazado 200281" d="M356.454,436.915a4.378,4.378,0,0,1-3.782-2.184l-30.765-53.285a4.384,4.384,0,0,1,0-4.372l30.763-53.281a4.38,4.38,0,0,1,3.784-2.185h141.58a4.377,4.377,0,0,1,3.782,2.184l30.765,53.285a4.383,4.383,0,0,1,0,4.372L501.818,434.73a4.38,4.38,0,0,1-3.784,2.185Z" transform="translate(373.387 8529.43)" fill="#a6ebff"/>
    <path id="Trazado_200282" data-name="Trazado 200282" d="M356.456,577.477a4.374,4.374,0,0,1-3.782-2.184l-30.765-53.285a4.381,4.381,0,0,1,0-4.37l30.763-53.283a4.38,4.38,0,0,1,3.784-2.185H498.034a4.376,4.376,0,0,1,3.784,2.185l30.765,53.283a4.388,4.388,0,0,1,0,4.372L501.82,575.292a4.377,4.377,0,0,1-3.785,2.185Z" transform="translate(373.388 8612.905)" fill="#d9f6ff"/>
    <path id="Trazado_231814" data-name="Trazado 231814" d="M-66.107,0H-69.33V-15.641h3.223Zm5.64-11.623.1,1.343a4.058,4.058,0,0,1,3.341-1.558,3.372,3.372,0,0,1,2.75,1.085,5.062,5.062,0,0,1,.924,3.244V0h-3.1V-7.434a2.014,2.014,0,0,0-.43-1.434,1.924,1.924,0,0,0-1.429-.446A2.136,2.136,0,0,0-60.285-8.2V0h-3.1V-11.623Zm13.181-2.857v2.857H-45.3v2.277h-1.987v5.8a1.385,1.385,0,0,0,.247.924,1.241,1.241,0,0,0,.945.279,4.951,4.951,0,0,0,.913-.075V-.064a6.391,6.391,0,0,1-1.88.279q-3.266,0-3.33-3.3V-9.346h-1.7v-2.277h1.7V-14.48Zm10.248,5.769A8.434,8.434,0,0,0-38.156-8.8a2.274,2.274,0,0,0-2.31,1.192V0h-3.1V-11.623h2.933l.086,1.386a2.877,2.877,0,0,1,2.589-1.6A3.253,3.253,0,0,1-37-11.7Zm.623,2.793A6.893,6.893,0,0,1-35.75-9,4.876,4.876,0,0,1-33.833-11.1a5.594,5.594,0,0,1,2.906-.741,5.293,5.293,0,0,1,3.84,1.439,5.777,5.777,0,0,1,1.66,3.91l.021.795A6.075,6.075,0,0,1-26.9-1.4,5.19,5.19,0,0,1-30.905.215,5.216,5.216,0,0,1-34.917-1.4a6.182,6.182,0,0,1-1.5-4.383Zm3.1.22a4.345,4.345,0,0,0,.623,2.534,2.055,2.055,0,0,0,1.783.877,2.06,2.06,0,0,0,1.762-.866,4.754,4.754,0,0,0,.634-2.77,4.3,4.3,0,0,0-.634-2.518,2.06,2.06,0,0,0-1.783-.893,2.027,2.027,0,0,0-1.762.888A4.834,4.834,0,0,0-33.312-5.7Zm9.335-.2a7,7,0,0,1,1.219-4.329,3.956,3.956,0,0,1,3.335-1.611,3.56,3.56,0,0,1,2.8,1.268V-16.5H-13.5V0h-2.8l-.15-1.235A3.653,3.653,0,0,1-19.443.215,3.945,3.945,0,0,1-22.736-1.4,7.23,7.23,0,0,1-23.977-5.9Zm3.1.231A4.588,4.588,0,0,0-20.3-3.16a1.855,1.855,0,0,0,1.654.871A2.077,2.077,0,0,0-16.618-3.5V-8.1a2.048,2.048,0,0,0-2.009-1.216Q-20.872-9.313-20.872-5.666ZM-4.136-1.182a3.893,3.893,0,0,1-3.18,1.4A3.672,3.672,0,0,1-10.167-.859a4.586,4.586,0,0,1-1-3.147v-7.616h3.1v7.518q0,1.817,1.654,1.817a2.242,2.242,0,0,0,2.17-1.1v-8.238h3.115V0H-4.05ZM6.048-2.288a2.036,2.036,0,0,0,1.4-.473A1.656,1.656,0,0,0,8-4.018h2.911a3.982,3.982,0,0,1-.645,2.165A4.253,4.253,0,0,1,8.535-.328,5.43,5.43,0,0,1,6.1.215,5.046,5.046,0,0,1,2.17-1.37,6.27,6.27,0,0,1,.73-5.747v-.2a6.2,6.2,0,0,1,1.429-4.286,4.987,4.987,0,0,1,3.921-1.6,4.889,4.889,0,0,1,3.5,1.241,4.393,4.393,0,0,1,1.337,3.3H8a2.133,2.133,0,0,0-.559-1.474,1.862,1.862,0,0,0-1.418-.567,1.87,1.87,0,0,0-1.638.791,4.583,4.583,0,0,0-.553,2.566v.323a4.641,4.641,0,0,0,.548,2.582A1.893,1.893,0,0,0,6.048-2.288Zm11.473,0a2.036,2.036,0,0,0,1.4-.473,1.656,1.656,0,0,0,.559-1.257h2.911a3.982,3.982,0,0,1-.645,2.165A4.253,4.253,0,0,1,20.007-.328a5.43,5.43,0,0,1-2.433.542A5.046,5.046,0,0,1,13.643-1.37,6.27,6.27,0,0,1,12.2-5.747v-.2a6.2,6.2,0,0,1,1.429-4.286,4.987,4.987,0,0,1,3.921-1.6,4.889,4.889,0,0,1,3.5,1.241,4.393,4.393,0,0,1,1.337,3.3H19.476a2.133,2.133,0,0,0-.559-1.474A1.862,1.862,0,0,0,17.5-9.335a1.87,1.87,0,0,0-1.638.791,4.583,4.583,0,0,0-.553,2.566v.323a4.641,4.641,0,0,0,.548,2.582A1.893,1.893,0,0,0,17.521-2.288ZM27.436,0H24.32V-11.623h3.115Zm-3.3-14.631A1.529,1.529,0,0,1,24.6-15.78a1.755,1.755,0,0,1,1.273-.451,1.759,1.759,0,0,1,1.268.451,1.52,1.52,0,0,1,.473,1.149,1.524,1.524,0,0,1-.478,1.16,1.764,1.764,0,0,1-1.262.451,1.764,1.764,0,0,1-1.262-.451A1.524,1.524,0,0,1,24.138-14.631Zm5.371,8.712A6.893,6.893,0,0,1,30.175-9,4.876,4.876,0,0,1,32.092-11.1,5.594,5.594,0,0,1,35-11.838a5.293,5.293,0,0,1,3.84,1.439,5.777,5.777,0,0,1,1.66,3.91l.021.795A6.075,6.075,0,0,1,39.026-1.4,5.19,5.19,0,0,1,35.02.215,5.216,5.216,0,0,1,31.007-1.4a6.182,6.182,0,0,1-1.5-4.383Zm3.1.22a4.345,4.345,0,0,0,.623,2.534,2.055,2.055,0,0,0,1.783.877,2.06,2.06,0,0,0,1.762-.866,4.754,4.754,0,0,0,.634-2.77,4.3,4.3,0,0,0-.634-2.518A2.06,2.06,0,0,0,35-9.335a2.027,2.027,0,0,0-1.762.888A4.834,4.834,0,0,0,32.613-5.7Zm3-10.8h3.384l-2.976,3.33H33.494Zm9.679,4.877.1,1.343a4.058,4.058,0,0,1,3.341-1.558,3.372,3.372,0,0,1,2.75,1.085A5.062,5.062,0,0,1,52.4-7.509V0H49.3V-7.434a2.014,2.014,0,0,0-.43-1.434,1.924,1.924,0,0,0-1.429-.446A2.136,2.136,0,0,0,45.472-8.2V0h-3.1V-11.623ZM65.581.215a5.706,5.706,0,0,1-4.163-1.568,5.575,5.575,0,0,1-1.606-4.179v-.3a7.021,7.021,0,0,1,.677-3.131,4.967,4.967,0,0,1,1.917-2.127,5.382,5.382,0,0,1,2.831-.747,4.824,4.824,0,0,1,3.754,1.5,6.111,6.111,0,0,1,1.37,4.265V-4.8h-7.4a2.884,2.884,0,0,0,.908,1.826,2.744,2.744,0,0,0,1.917.688,3.351,3.351,0,0,0,2.8-1.3L70.114-1.88A4.66,4.66,0,0,1,68.224-.338,6.2,6.2,0,0,1,65.581.215Zm-.354-9.55a1.94,1.94,0,0,0-1.5.626,3.241,3.241,0,0,0-.736,1.791h4.318v-.248a2.311,2.311,0,0,0-.559-1.6A2,2,0,0,0,65.227-9.335ZM-70.12,26h-3.115V14.377h3.115Zm-3.3-14.631a1.529,1.529,0,0,1,.467-1.149,1.755,1.755,0,0,1,1.273-.451,1.759,1.759,0,0,1,1.268.451,1.52,1.52,0,0,1,.473,1.149,1.524,1.524,0,0,1-.478,1.16,1.764,1.764,0,0,1-1.262.451,1.764,1.764,0,0,1-1.262-.451A1.524,1.524,0,0,1-73.417,11.369Zm8.712,3.008.1,1.343a4.058,4.058,0,0,1,3.341-1.558,3.372,3.372,0,0,1,2.75,1.085,5.062,5.062,0,0,1,.924,3.244V26h-3.1V18.566a2.014,2.014,0,0,0-.43-1.434,1.924,1.924,0,0,0-1.429-.446A2.136,2.136,0,0,0-64.523,17.8V26h-3.1V14.377ZM-54.393,26V16.654h-1.729V14.377h1.729v-.988a4.013,4.013,0,0,1,1.123-3.035,4.347,4.347,0,0,1,3.142-1.08,7.258,7.258,0,0,1,1.579.215l-.032,2.406a3.958,3.958,0,0,0-.945-.1q-1.751,0-1.751,1.644v.935h2.31v2.277h-2.31V26Zm6.553-5.919A6.893,6.893,0,0,1-47.174,17,4.876,4.876,0,0,1-45.257,14.9a5.594,5.594,0,0,1,2.906-.741,5.293,5.293,0,0,1,3.84,1.439,5.777,5.777,0,0,1,1.66,3.91l.021.795A6.075,6.075,0,0,1-38.323,24.6a5.19,5.19,0,0,1-4.007,1.617A5.216,5.216,0,0,1-46.342,24.6a6.182,6.182,0,0,1-1.5-4.383Zm3.1.22a4.345,4.345,0,0,0,.623,2.534,2.055,2.055,0,0,0,1.783.877,2.06,2.06,0,0,0,1.762-.866,4.754,4.754,0,0,0,.634-2.77,4.3,4.3,0,0,0-.634-2.518,2.06,2.06,0,0,0-1.783-.893,2.027,2.027,0,0,0-1.762.888A4.834,4.834,0,0,0-44.736,20.3Zm16.35-3.013A8.434,8.434,0,0,0-29.5,17.2a2.274,2.274,0,0,0-2.31,1.192V26h-3.1V14.377h2.933l.086,1.386a2.877,2.877,0,0,1,2.589-1.6,3.253,3.253,0,0,1,.967.14Zm4.4-2.911.1,1.3a4.085,4.085,0,0,1,3.341-1.515,3.1,3.1,0,0,1,3.083,1.772,3.991,3.991,0,0,1,3.491-1.772,3.467,3.467,0,0,1,2.814,1.1,5.061,5.061,0,0,1,.924,3.314V26h-3.115V18.588a2.213,2.213,0,0,0-.387-1.445,1.714,1.714,0,0,0-1.364-.457,1.938,1.938,0,0,0-1.934,1.332L-17.021,26h-3.1V18.6a2.186,2.186,0,0,0-.4-1.461,1.731,1.731,0,0,0-1.354-.451,2.012,2.012,0,0,0-1.912,1.1V26h-3.1V14.377ZM-1.112,26a3.447,3.447,0,0,1-.312-1.042,3.756,3.756,0,0,1-2.933,1.257,4.127,4.127,0,0,1-2.831-.988,3.178,3.178,0,0,1-1.123-2.492A3.285,3.285,0,0,1-6.939,19.9a6.758,6.758,0,0,1,3.958-1h1.429v-.666a1.915,1.915,0,0,0-.414-1.289,1.627,1.627,0,0,0-1.305-.483,1.85,1.85,0,0,0-1.23.376,1.277,1.277,0,0,0-.446,1.031h-3.1A3.118,3.118,0,0,1-7.428,16a4.118,4.118,0,0,1,1.762-1.348,6.42,6.42,0,0,1,2.557-.489A5.073,5.073,0,0,1,.3,15.242a3.777,3.777,0,0,1,1.262,3.035v5.038a5.557,5.557,0,0,0,.462,2.5V26Zm-2.567-2.159a2.674,2.674,0,0,0,1.268-.306,2.011,2.011,0,0,0,.859-.822v-2h-1.16q-2.331,0-2.481,1.611l-.011.183a1.243,1.243,0,0,0,.408.956A1.586,1.586,0,0,0-3.679,23.841Zm12.461-.129a2.036,2.036,0,0,0,1.4-.473,1.656,1.656,0,0,0,.559-1.257h2.911A3.982,3.982,0,0,1,13,24.147a4.253,4.253,0,0,1-1.735,1.525,5.43,5.43,0,0,1-2.433.542A5.046,5.046,0,0,1,4.9,24.63a6.27,6.27,0,0,1-1.439-4.377v-.2a6.2,6.2,0,0,1,1.429-4.286,4.987,4.987,0,0,1,3.921-1.6,4.889,4.889,0,0,1,3.5,1.241,4.393,4.393,0,0,1,1.337,3.3H10.737a2.133,2.133,0,0,0-.559-1.474,1.862,1.862,0,0,0-1.418-.567,1.87,1.87,0,0,0-1.638.791,4.583,4.583,0,0,0-.553,2.566v.323a4.641,4.641,0,0,0,.548,2.582A1.893,1.893,0,0,0,8.782,23.712ZM18.7,26H15.582V14.377H18.7ZM15.4,11.369a1.529,1.529,0,0,1,.467-1.149,1.755,1.755,0,0,1,1.273-.451,1.759,1.759,0,0,1,1.268.451,1.64,1.64,0,0,1-.005,2.31,1.991,1.991,0,0,1-2.524,0A1.524,1.524,0,0,1,15.4,11.369Zm5.371,8.712A6.893,6.893,0,0,1,21.436,17,4.876,4.876,0,0,1,23.354,14.9a5.594,5.594,0,0,1,2.906-.741A5.293,5.293,0,0,1,30.1,15.6a5.777,5.777,0,0,1,1.66,3.91l.021.795A6.075,6.075,0,0,1,30.288,24.6a5.19,5.19,0,0,1-4.007,1.617A5.216,5.216,0,0,1,22.269,24.6a6.182,6.182,0,0,1-1.5-4.383Zm3.1.22a4.345,4.345,0,0,0,.623,2.534,2.238,2.238,0,0,0,3.545.011,4.754,4.754,0,0,0,.634-2.77,4.3,4.3,0,0,0-.634-2.518,2.06,2.06,0,0,0-1.783-.893,2.027,2.027,0,0,0-1.762.888A4.834,4.834,0,0,0,23.875,20.3Zm3-10.8h3.384L27.28,12.83H24.755Zm9.679,4.877.1,1.343a4.058,4.058,0,0,1,3.341-1.558,3.372,3.372,0,0,1,2.75,1.085,5.062,5.062,0,0,1,.924,3.244V26h-3.1V18.566a2.014,2.014,0,0,0-.43-1.434,1.924,1.924,0,0,0-1.429-.446A2.136,2.136,0,0,0,36.733,17.8V26h-3.1V14.377ZM51.009,20.1a7,7,0,0,1,1.219-4.329,3.956,3.956,0,0,1,3.335-1.611,3.56,3.56,0,0,1,2.8,1.268V9.5h3.115V26h-2.8l-.15-1.235a3.653,3.653,0,0,1-2.986,1.45A3.945,3.945,0,0,1,52.25,24.6,7.23,7.23,0,0,1,51.009,20.1Zm3.1.231a4.588,4.588,0,0,0,.569,2.507,1.855,1.855,0,0,0,1.654.871,2.077,2.077,0,0,0,2.03-1.216V17.9a2.048,2.048,0,0,0-2.009-1.216Q54.114,16.687,54.114,20.334Zm15.125,5.881a5.706,5.706,0,0,1-4.163-1.568,5.575,5.575,0,0,1-1.606-4.179v-.3a7.021,7.021,0,0,1,.677-3.131,4.967,4.967,0,0,1,1.917-2.127,5.382,5.382,0,0,1,2.831-.747,4.824,4.824,0,0,1,3.754,1.5,6.111,6.111,0,0,1,1.37,4.265V21.2h-7.4a2.884,2.884,0,0,0,.908,1.826,2.744,2.744,0,0,0,1.917.688,3.351,3.351,0,0,0,2.8-1.3l1.525,1.708a4.66,4.66,0,0,1-1.891,1.542A6.2,6.2,0,0,1,69.239,26.215Zm-.354-9.55a1.94,1.94,0,0,0-1.5.626,3.241,3.241,0,0,0-.736,1.791h4.318v-.248a2.311,2.311,0,0,0-.559-1.6A2,2,0,0,0,68.884,16.665ZM-46.61,48.788a1,1,0,0,0-.564-.9,6.406,6.406,0,0,0-1.81-.585q-4.146-.87-4.146-3.523A3.194,3.194,0,0,1-51.847,41.2a5.178,5.178,0,0,1,3.357-1.037,5.573,5.573,0,0,1,3.54,1.042,3.284,3.284,0,0,1,1.327,2.707h-3.1a1.5,1.5,0,0,0-.43-1.1,1.818,1.818,0,0,0-1.343-.435,1.858,1.858,0,0,0-1.214.354,1.119,1.119,0,0,0-.43.9.957.957,0,0,0,.489.833,5.028,5.028,0,0,0,1.649.548,13.468,13.468,0,0,1,1.955.521,3.212,3.212,0,0,1,2.46,3.126,3.032,3.032,0,0,1-1.364,2.573,5.885,5.885,0,0,1-3.523.983,6.147,6.147,0,0,1-2.594-.521,4.353,4.353,0,0,1-1.778-1.429A3.32,3.32,0,0,1-53.5,48.3h2.943a1.621,1.621,0,0,0,.612,1.268,2.429,2.429,0,0,0,1.525.44,2.248,2.248,0,0,0,1.348-.338A1.053,1.053,0,0,0-46.61,48.788ZM-38.317,52h-3.115V40.377h3.115Zm-3.3-14.631a1.529,1.529,0,0,1,.467-1.149,1.755,1.755,0,0,1,1.273-.451,1.759,1.759,0,0,1,1.268.451,1.52,1.52,0,0,1,.473,1.149,1.524,1.524,0,0,1-.478,1.16,1.764,1.764,0,0,1-1.262.451,1.764,1.764,0,0,1-1.262-.451A1.524,1.524,0,0,1-41.615,37.369Zm8.766,3.008.1,1.3a4.085,4.085,0,0,1,3.341-1.515,3.1,3.1,0,0,1,3.083,1.772,3.991,3.991,0,0,1,3.491-1.772,3.467,3.467,0,0,1,2.814,1.1,5.061,5.061,0,0,1,.924,3.314V52h-3.115V44.588a2.213,2.213,0,0,0-.387-1.445,1.714,1.714,0,0,0-1.364-.457A1.938,1.938,0,0,0-25.9,44.019L-25.889,52h-3.1V44.6a2.186,2.186,0,0,0-.4-1.461,1.731,1.731,0,0,0-1.354-.451,2.012,2.012,0,0,0-1.912,1.1V52h-3.1V40.377Zm23.1,10.441a3.893,3.893,0,0,1-3.18,1.4,3.672,3.672,0,0,1-2.852-1.074,4.586,4.586,0,0,1-1-3.147V40.377h3.1v7.518q0,1.817,1.654,1.817a2.242,2.242,0,0,0,2.17-1.1V40.377h3.115V52H-9.668ZM-1.128,52H-4.243V35.5h3.115Zm9.292,0a3.447,3.447,0,0,1-.312-1.042A3.756,3.756,0,0,1,4.92,52.215a4.127,4.127,0,0,1-2.831-.988A3.178,3.178,0,0,1,.967,48.734,3.285,3.285,0,0,1,2.336,45.9a6.758,6.758,0,0,1,3.958-1H7.724v-.666a1.915,1.915,0,0,0-.414-1.289A1.627,1.627,0,0,0,6,42.461a1.85,1.85,0,0,0-1.23.376,1.277,1.277,0,0,0-.446,1.031h-3.1A3.118,3.118,0,0,1,1.848,42a4.118,4.118,0,0,1,1.762-1.348,6.42,6.42,0,0,1,2.557-.489,5.073,5.073,0,0,1,3.411,1.08,3.777,3.777,0,0,1,1.262,3.035v5.038a5.557,5.557,0,0,0,.462,2.5V52ZM5.6,49.841a2.674,2.674,0,0,0,1.268-.306,2.011,2.011,0,0,0,.859-.822v-2H6.563q-2.331,0-2.481,1.611l-.011.183a1.243,1.243,0,0,0,.408.956A1.586,1.586,0,0,0,5.6,49.841Zm12.461-.129a2.036,2.036,0,0,0,1.4-.473,1.656,1.656,0,0,0,.559-1.257h2.911a3.982,3.982,0,0,1-.645,2.165,4.253,4.253,0,0,1-1.735,1.525,5.43,5.43,0,0,1-2.433.542A5.046,5.046,0,0,1,14.18,50.63a6.27,6.27,0,0,1-1.439-4.377v-.2a6.2,6.2,0,0,1,1.429-4.286,4.987,4.987,0,0,1,3.921-1.6,4.889,4.889,0,0,1,3.5,1.241,4.393,4.393,0,0,1,1.337,3.3H20.013a2.133,2.133,0,0,0-.559-1.474,1.862,1.862,0,0,0-1.418-.567,1.87,1.87,0,0,0-1.638.791,4.583,4.583,0,0,0-.553,2.566v.323a4.641,4.641,0,0,0,.548,2.582A1.893,1.893,0,0,0,18.058,49.712ZM27.973,52H24.857V40.377h3.115Zm-3.3-14.631a1.529,1.529,0,0,1,.467-1.149,2.014,2.014,0,0,1,2.541,0,1.64,1.64,0,0,1-.005,2.31,1.991,1.991,0,0,1-2.524,0A1.524,1.524,0,0,1,24.675,37.369Zm5.371,8.712A6.893,6.893,0,0,1,30.712,43,4.876,4.876,0,0,1,32.629,40.9a5.594,5.594,0,0,1,2.906-.741,5.293,5.293,0,0,1,3.84,1.439,5.777,5.777,0,0,1,1.66,3.91l.021.795A6.075,6.075,0,0,1,39.563,50.6a5.19,5.19,0,0,1-4.007,1.617A5.216,5.216,0,0,1,31.544,50.6a6.182,6.182,0,0,1-1.5-4.383Zm3.1.22a4.345,4.345,0,0,0,.623,2.534,2.238,2.238,0,0,0,3.545.011,4.754,4.754,0,0,0,.634-2.77,4.3,4.3,0,0,0-.634-2.518,2.06,2.06,0,0,0-1.783-.893,2.027,2.027,0,0,0-1.762.888A4.834,4.834,0,0,0,33.15,46.3Zm3-10.8h3.384l-2.976,3.33H34.031Zm9.679,4.877.1,1.343a4.058,4.058,0,0,1,3.341-1.558,3.372,3.372,0,0,1,2.75,1.085,5.062,5.062,0,0,1,.924,3.244V52h-3.1V44.566a2.014,2.014,0,0,0-.43-1.434,1.924,1.924,0,0,0-1.429-.446A2.136,2.136,0,0,0,46.009,43.8V52H42.9V40.377Z" transform="translate(799.908 8663.489)"/>
    <path id="Trazado_231815" data-name="Trazado 231815" d="M-41.6-6.47h-5.906v4h6.932V0H-50.583V-14.93H-40.6v2.492h-6.911V-8.88H-41.6Zm8.644,3.4a.955.955,0,0,0-.538-.856,6.115,6.115,0,0,0-1.728-.559q-3.958-.831-3.958-3.363a3.049,3.049,0,0,1,1.225-2.466,4.943,4.943,0,0,1,3.2-.99,5.32,5.32,0,0,1,3.379.995,3.135,3.135,0,0,1,1.266,2.584h-2.963a1.434,1.434,0,0,0-.41-1.051,1.736,1.736,0,0,0-1.282-.415,1.774,1.774,0,0,0-1.159.338,1.068,1.068,0,0,0-.41.861.913.913,0,0,0,.467.795,4.8,4.8,0,0,0,1.574.523,12.856,12.856,0,0,1,1.866.5,3.066,3.066,0,0,1,2.348,2.984,2.894,2.894,0,0,1-1.3,2.456A5.618,5.618,0,0,1-34.74.205a5.867,5.867,0,0,1-2.476-.5,4.155,4.155,0,0,1-1.7-1.364,3.169,3.169,0,0,1-.615-1.871h2.81a1.547,1.547,0,0,0,.584,1.21,2.318,2.318,0,0,0,1.456.42,2.146,2.146,0,0,0,1.287-.323A1,1,0,0,0-32.956-3.066Zm9.4.882a1.944,1.944,0,0,0,1.333-.451,1.581,1.581,0,0,0,.533-1.2h2.779a3.8,3.8,0,0,1-.615,2.066A4.06,4.06,0,0,1-21.179-.313,5.183,5.183,0,0,1-23.5.205a4.817,4.817,0,0,1-3.753-1.512,5.985,5.985,0,0,1-1.374-4.178v-.195a5.917,5.917,0,0,1,1.364-4.091A4.761,4.761,0,0,1-23.522-11.3a4.667,4.667,0,0,1,3.338,1.184,4.193,4.193,0,0,1,1.277,3.153h-2.779a2.036,2.036,0,0,0-.533-1.407,1.778,1.778,0,0,0-1.354-.541,1.785,1.785,0,0,0-1.564.755,4.374,4.374,0,0,0-.528,2.449V-5.4a4.43,4.43,0,0,0,.523,2.465A1.807,1.807,0,0,0-23.553-2.184ZM-12.11.205a5.447,5.447,0,0,1-3.973-1.5,5.321,5.321,0,0,1-1.533-3.989v-.287a6.7,6.7,0,0,1,.646-2.989,4.741,4.741,0,0,1,1.83-2.03,5.137,5.137,0,0,1,2.7-.713A4.6,4.6,0,0,1-8.854-9.864,5.833,5.833,0,0,1-7.547-5.793v1.21h-7.065a2.753,2.753,0,0,0,.866,1.743,2.619,2.619,0,0,0,1.83.656A3.2,3.2,0,0,0-9.239-3.425l1.456,1.63a4.449,4.449,0,0,1-1.8,1.471A5.921,5.921,0,0,1-12.11.205Zm-.338-9.116a1.852,1.852,0,0,0-1.43.6,3.093,3.093,0,0,0-.7,1.71h4.122V-6.84a2.206,2.206,0,0,0-.533-1.529A1.91,1.91,0,0,0-12.448-8.911Zm9.311-2.184.092,1.282A3.874,3.874,0,0,1,.144-11.3a3.219,3.219,0,0,1,2.625,1.036,4.832,4.832,0,0,1,.882,3.1V0H.687V-7.1a1.923,1.923,0,0,0-.41-1.369A1.836,1.836,0,0,0-1.087-8.89,2.039,2.039,0,0,0-2.963-7.824V0H-5.927V-11.095ZM12.325,0a3.291,3.291,0,0,1-.3-.995,3.586,3.586,0,0,1-2.8,1.2,3.939,3.939,0,0,1-2.7-.943A3.034,3.034,0,0,1,5.455-3.117,3.135,3.135,0,0,1,6.762-5.824a6.451,6.451,0,0,1,3.779-.954H11.9v-.636a1.828,1.828,0,0,0-.395-1.23,1.553,1.553,0,0,0-1.246-.461,1.766,1.766,0,0,0-1.174.359,1.219,1.219,0,0,0-.426.984H5.7A2.977,2.977,0,0,1,6.3-9.546a3.931,3.931,0,0,1,1.682-1.287,6.129,6.129,0,0,1,2.44-.467,4.842,4.842,0,0,1,3.256,1.031,3.605,3.605,0,0,1,1.2,2.9v4.809a5.3,5.3,0,0,0,.441,2.389V0ZM9.875-2.061a2.552,2.552,0,0,0,1.21-.292,1.919,1.919,0,0,0,.82-.784V-5.045H10.8q-2.225,0-2.369,1.538l-.01.174a1.186,1.186,0,0,0,.39.913A1.514,1.514,0,0,0,9.875-2.061ZM23.389-8.316A8.051,8.051,0,0,0,22.323-8.4a2.171,2.171,0,0,0-2.2,1.138V0H17.155V-11.095h2.8l.082,1.323A2.746,2.746,0,0,1,22.507-11.3a3.105,3.105,0,0,1,.923.133ZM27.942,0H24.968V-11.095h2.974ZM24.794-13.966a1.459,1.459,0,0,1,.446-1.1,1.676,1.676,0,0,1,1.215-.431,1.679,1.679,0,0,1,1.21.431,1.451,1.451,0,0,1,.451,1.1,1.455,1.455,0,0,1-.456,1.107,1.684,1.684,0,0,1-1.2.431,1.684,1.684,0,0,1-1.2-.431A1.455,1.455,0,0,1,24.794-13.966ZM29.921-5.65a6.58,6.58,0,0,1,.636-2.943,4.654,4.654,0,0,1,1.83-2,5.34,5.34,0,0,1,2.774-.708,5.052,5.052,0,0,1,3.666,1.374,5.514,5.514,0,0,1,1.584,3.732l.021.759a5.8,5.8,0,0,1-1.425,4.1A4.954,4.954,0,0,1,35.181.205a4.979,4.979,0,0,1-3.83-1.538,5.9,5.9,0,0,1-1.43-4.184Zm2.963.21a4.147,4.147,0,0,0,.595,2.418,1.962,1.962,0,0,0,1.7.837,1.966,1.966,0,0,0,1.682-.827,4.538,4.538,0,0,0,.6-2.644,4.106,4.106,0,0,0-.6-2.4,1.967,1.967,0,0,0-1.7-.852,1.934,1.934,0,0,0-1.682.847A4.614,4.614,0,0,0,32.884-5.44ZM48.265-3.066a.955.955,0,0,0-.538-.856A6.115,6.115,0,0,0,46-4.481q-3.958-.831-3.958-3.363a3.049,3.049,0,0,1,1.225-2.466,4.943,4.943,0,0,1,3.2-.99,5.32,5.32,0,0,1,3.379.995,3.135,3.135,0,0,1,1.266,2.584H48.152a1.434,1.434,0,0,0-.41-1.051,1.736,1.736,0,0,0-1.282-.415,1.774,1.774,0,0,0-1.159.338,1.068,1.068,0,0,0-.41.861.913.913,0,0,0,.467.795,4.8,4.8,0,0,0,1.574.523,12.856,12.856,0,0,1,1.866.5,3.066,3.066,0,0,1,2.348,2.984,2.894,2.894,0,0,1-1.3,2.456,5.618,5.618,0,0,1-3.363.938A5.867,5.867,0,0,1,44-.292a4.155,4.155,0,0,1-1.7-1.364,3.169,3.169,0,0,1-.615-1.871H44.5a1.547,1.547,0,0,0,.584,1.21,2.318,2.318,0,0,0,1.456.42,2.146,2.146,0,0,0,1.287-.323A1,1,0,0,0,48.265-3.066Zm-98.6,25.882A1.944,1.944,0,0,0-49,22.365a1.581,1.581,0,0,0,.533-1.2h2.779a3.8,3.8,0,0,1-.615,2.066,4.06,4.06,0,0,1-1.656,1.456,5.183,5.183,0,0,1-2.323.518,4.817,4.817,0,0,1-3.753-1.512,5.985,5.985,0,0,1-1.374-4.178v-.195a5.917,5.917,0,0,1,1.364-4.091A4.761,4.761,0,0,1-50.306,13.7a4.667,4.667,0,0,1,3.338,1.184,4.193,4.193,0,0,1,1.277,3.153H-48.47A2.036,2.036,0,0,0-49,16.631a1.778,1.778,0,0,0-1.354-.541,1.785,1.785,0,0,0-1.564.755,4.374,4.374,0,0,0-.528,2.449V19.6a4.43,4.43,0,0,0,.523,2.465A1.807,1.807,0,0,0-50.336,22.816Zm5.875-3.466a6.58,6.58,0,0,1,.636-2.943,4.654,4.654,0,0,1,1.83-2,5.34,5.34,0,0,1,2.774-.708,5.052,5.052,0,0,1,3.666,1.374,5.514,5.514,0,0,1,1.584,3.732l.021.759a5.8,5.8,0,0,1-1.425,4.1A4.954,4.954,0,0,1-39.2,25.205a4.979,4.979,0,0,1-3.83-1.538,5.9,5.9,0,0,1-1.43-4.184Zm2.963.21a4.147,4.147,0,0,0,.595,2.418,1.962,1.962,0,0,0,1.7.837,1.966,1.966,0,0,0,1.682-.827,4.538,4.538,0,0,0,.6-2.644,4.106,4.106,0,0,0-.6-2.4,1.967,1.967,0,0,0-1.7-.852,1.934,1.934,0,0,0-1.682.847A4.614,4.614,0,0,0-41.5,19.56Zm12.1-5.655.092,1.282A3.874,3.874,0,0,1-26.117,13.7a3.219,3.219,0,0,1,2.625,1.036,4.832,4.832,0,0,1,.882,3.1V25h-2.963V17.9a1.923,1.923,0,0,0-.41-1.369,1.836,1.836,0,0,0-1.364-.426,2.039,2.039,0,0,0-1.876,1.066V25h-2.963V13.905Zm12.582-2.728v2.728h1.9v2.174h-1.9v5.537a1.322,1.322,0,0,0,.236.882,1.184,1.184,0,0,0,.9.267,4.726,4.726,0,0,0,.872-.072v2.246a6.1,6.1,0,0,1-1.794.267q-3.117,0-3.179-3.148V16.079H-21.4V13.905h1.62V11.178Zm9.782,5.506A8.051,8.051,0,0,0-8.1,16.6a2.171,2.171,0,0,0-2.2,1.138V25h-2.963V13.905h2.8l.082,1.323A2.746,2.746,0,0,1-7.916,13.7a3.105,3.105,0,0,1,.923.133Zm.595,2.666A6.58,6.58,0,0,1-5.8,16.407a4.654,4.654,0,0,1,1.83-2A5.34,5.34,0,0,1-1.2,13.7a5.052,5.052,0,0,1,3.666,1.374A5.515,5.515,0,0,1,4.05,18.807l.021.759a5.8,5.8,0,0,1-1.425,4.1,4.954,4.954,0,0,1-3.825,1.543,4.979,4.979,0,0,1-3.83-1.538,5.9,5.9,0,0,1-1.43-4.184Zm2.963.21a4.147,4.147,0,0,0,.595,2.418,1.962,1.962,0,0,0,1.7.837A1.966,1.966,0,0,0,.5,21.989a4.538,4.538,0,0,0,.6-2.644,4.106,4.106,0,0,0-.6-2.4,1.967,1.967,0,0,0-1.7-.852,1.934,1.934,0,0,0-1.682.847A4.614,4.614,0,0,0-3.476,19.56ZM9.023,25H6.05V9.25H9.023Zm8.87,0a3.291,3.291,0,0,1-.3-.995,3.586,3.586,0,0,1-2.8,1.2,3.939,3.939,0,0,1-2.7-.943,3.034,3.034,0,0,1-1.072-2.379,3.135,3.135,0,0,1,1.307-2.707,6.451,6.451,0,0,1,3.779-.954h1.364v-.636a1.828,1.828,0,0,0-.395-1.23,1.553,1.553,0,0,0-1.246-.461,1.766,1.766,0,0,0-1.174.359,1.219,1.219,0,0,0-.426.984H11.269a2.977,2.977,0,0,1,.595-1.784,3.931,3.931,0,0,1,1.682-1.287,6.129,6.129,0,0,1,2.44-.467,4.842,4.842,0,0,1,3.256,1.031,3.605,3.605,0,0,1,1.2,2.9v4.809a5.3,5.3,0,0,0,.441,2.389V25Zm-2.451-2.061a2.552,2.552,0,0,0,1.21-.292,1.919,1.919,0,0,0,.82-.784V19.955H16.365q-2.225,0-2.369,1.538l-.01.174a1.186,1.186,0,0,0,.39.913A1.514,1.514,0,0,0,15.442,22.939Zm6.819-3.568a6.686,6.686,0,0,1,1.164-4.132A3.776,3.776,0,0,1,26.609,13.7a3.4,3.4,0,0,1,2.676,1.21V9.25h2.974V25H29.583l-.144-1.179a3.487,3.487,0,0,1-2.851,1.384,3.766,3.766,0,0,1-3.143-1.543A6.9,6.9,0,0,1,22.261,19.371Zm2.963.221a4.38,4.38,0,0,0,.543,2.393,1.77,1.77,0,0,0,1.579.832,1.983,1.983,0,0,0,1.938-1.16V17.27a1.954,1.954,0,0,0-1.917-1.16Q25.225,16.11,25.225,19.591Zm8.87-.241a6.58,6.58,0,0,1,.636-2.943,4.654,4.654,0,0,1,1.83-2,5.34,5.34,0,0,1,2.774-.708A5.052,5.052,0,0,1,43,15.074a5.514,5.514,0,0,1,1.584,3.732l.021.759a5.8,5.8,0,0,1-1.425,4.1,4.954,4.954,0,0,1-3.825,1.543,4.979,4.979,0,0,1-3.83-1.538,5.9,5.9,0,0,1-1.43-4.184Zm2.963.21a4.147,4.147,0,0,0,.595,2.418,2.137,2.137,0,0,0,3.384.01,4.538,4.538,0,0,0,.6-2.644,4.106,4.106,0,0,0-.6-2.4,1.967,1.967,0,0,0-1.7-.852,1.934,1.934,0,0,0-1.682.847A4.614,4.614,0,0,0,37.058,19.56Zm15.381,2.374a.955.955,0,0,0-.538-.856,6.115,6.115,0,0,0-1.728-.559q-3.958-.831-3.958-3.363A3.049,3.049,0,0,1,47.44,14.69a4.943,4.943,0,0,1,3.2-.99,5.32,5.32,0,0,1,3.379.995,3.135,3.135,0,0,1,1.266,2.584H52.326a1.434,1.434,0,0,0-.41-1.051,1.736,1.736,0,0,0-1.282-.415,1.774,1.774,0,0,0-1.159.338,1.068,1.068,0,0,0-.41.861.913.913,0,0,0,.467.795,4.8,4.8,0,0,0,1.574.523,12.856,12.856,0,0,1,1.866.5,3.066,3.066,0,0,1,2.348,2.984,2.894,2.894,0,0,1-1.3,2.456,5.618,5.618,0,0,1-3.363.938,5.867,5.867,0,0,1-2.476-.5,4.155,4.155,0,0,1-1.7-1.364,3.169,3.169,0,0,1-.615-1.871h2.81a1.547,1.547,0,0,0,.584,1.21,2.318,2.318,0,0,0,1.456.42A2.146,2.146,0,0,0,52,22.78,1,1,0,0,0,52.438,21.934Z" transform="translate(797.656 8899.915)"/>
    <path id="Trazado_231816" data-name="Trazado 231816" d="M-48.539-3.223h-5.65L-55.263,0H-58.69l5.822-15.641h2.986L-44.027,0h-3.427Zm-4.78-2.61h3.91l-1.966-5.854Zm20.5.129a6.971,6.971,0,0,1-1.219,4.3A3.909,3.909,0,0,1-37.334.215,3.621,3.621,0,0,1-40.181-1.01V4.469h-3.1V-11.623h2.879l.107,1.139a3.649,3.649,0,0,1,2.943-1.354,3.936,3.936,0,0,1,3.341,1.59,7.16,7.16,0,0,1,1.192,4.383Zm-3.1-.226a4.574,4.574,0,0,0-.575-2.5,1.872,1.872,0,0,0-1.67-.881A2.033,2.033,0,0,0-40.181-8.2v4.759a2.067,2.067,0,0,0,2.03,1.149Q-35.927-2.288-35.927-5.93Zm11.559-2.782A8.434,8.434,0,0,0-25.486-8.8,2.274,2.274,0,0,0-27.8-7.605V0h-3.1V-11.623h2.933l.086,1.386a2.877,2.877,0,0,1,2.589-1.6,3.253,3.253,0,0,1,.967.14ZM-17.73.215a5.706,5.706,0,0,1-4.163-1.568A5.575,5.575,0,0,1-23.5-5.532v-.3a7.021,7.021,0,0,1,.677-3.131A4.967,4.967,0,0,1-20.9-11.091a5.382,5.382,0,0,1,2.831-.747,4.824,4.824,0,0,1,3.754,1.5,6.111,6.111,0,0,1,1.37,4.265V-4.8h-7.4a2.884,2.884,0,0,0,.908,1.826,2.744,2.744,0,0,0,1.917.688,3.351,3.351,0,0,0,2.8-1.3L-13.2-1.88A4.66,4.66,0,0,1-15.087-.338,6.2,6.2,0,0,1-17.73.215Zm-.354-9.55a1.94,1.94,0,0,0-1.5.626,3.241,3.241,0,0,0-.736,1.791H-16v-.248a2.311,2.311,0,0,0-.559-1.6A2,2,0,0,0-18.084-9.335Zm9.754-2.288.1,1.343a4.058,4.058,0,0,1,3.341-1.558,3.372,3.372,0,0,1,2.75,1.085,5.062,5.062,0,0,1,.924,3.244V0h-3.1V-7.434a2.014,2.014,0,0,0-.43-1.434,1.924,1.924,0,0,0-1.429-.446A2.136,2.136,0,0,0-8.148-8.2V0h-3.1V-11.623ZM.65-5.9a7,7,0,0,1,1.219-4.329A3.956,3.956,0,0,1,5.2-11.838a3.56,3.56,0,0,1,2.8,1.268V-16.5h3.115V0H8.32l-.15-1.235A3.653,3.653,0,0,1,5.183.215,3.945,3.945,0,0,1,1.891-1.4,7.23,7.23,0,0,1,.65-5.9Zm3.1.231A4.588,4.588,0,0,0,4.324-3.16a1.855,1.855,0,0,0,1.654.871A2.077,2.077,0,0,0,8.008-3.5V-8.1A2.048,2.048,0,0,0,6-9.313Q3.754-9.313,3.754-5.666ZM16.806,0H13.691V-11.623h3.115Zm-3.3-14.631a1.529,1.529,0,0,1,.467-1.149,1.755,1.755,0,0,1,1.273-.451,1.759,1.759,0,0,1,1.268.451,1.52,1.52,0,0,1,.473,1.149,1.524,1.524,0,0,1-.478,1.16,1.764,1.764,0,0,1-1.262.451,1.764,1.764,0,0,1-1.262-.451A1.524,1.524,0,0,1,13.508-14.631ZM22.929-2.5h5.683V0H18.965V-1.891L24.433-9.12H19.126v-2.5H28.44v1.829ZM37.292,0a3.447,3.447,0,0,1-.312-1.042A3.756,3.756,0,0,1,34.047.215a4.127,4.127,0,0,1-2.831-.988,3.178,3.178,0,0,1-1.123-2.492A3.285,3.285,0,0,1,31.464-6.1a6.758,6.758,0,0,1,3.958-1h1.429v-.666a1.915,1.915,0,0,0-.414-1.289,1.627,1.627,0,0,0-1.305-.483,1.85,1.85,0,0,0-1.23.376,1.277,1.277,0,0,0-.446,1.031h-3.1A3.118,3.118,0,0,1,30.975-10a4.118,4.118,0,0,1,1.762-1.348,6.42,6.42,0,0,1,2.557-.489,5.073,5.073,0,0,1,3.411,1.08,3.777,3.777,0,0,1,1.262,3.035v5.038a5.557,5.557,0,0,0,.462,2.5V0ZM34.724-2.159a2.674,2.674,0,0,0,1.268-.306,2.011,2.011,0,0,0,.859-.822v-2h-1.16q-2.331,0-2.481,1.611l-.011.183a1.243,1.243,0,0,0,.408.956A1.586,1.586,0,0,0,34.724-2.159Zm10.914-9.464V.634a4.158,4.158,0,0,1-1.021,2.992,3.879,3.879,0,0,1-2.943,1.069,6.312,6.312,0,0,1-1.536-.183V2.052a5.827,5.827,0,0,0,.978.1q1.407,0,1.407-1.493V-11.623Zm-3.362-3.008a1.529,1.529,0,0,1,.467-1.149,1.755,1.755,0,0,1,1.273-.451,1.755,1.755,0,0,1,1.273.451,1.529,1.529,0,0,1,.467,1.149,1.524,1.524,0,0,1-.478,1.16,1.764,1.764,0,0,1-1.262.451,1.764,1.764,0,0,1-1.262-.451A1.524,1.524,0,0,1,42.276-14.631ZM53.416.215a5.706,5.706,0,0,1-4.163-1.568,5.575,5.575,0,0,1-1.606-4.179v-.3a7.021,7.021,0,0,1,.677-3.131,4.967,4.967,0,0,1,1.917-2.127,5.382,5.382,0,0,1,2.831-.747,4.824,4.824,0,0,1,3.754,1.5A6.111,6.111,0,0,1,58.2-6.069V-4.8h-7.4A2.884,2.884,0,0,0,51.7-2.976a2.744,2.744,0,0,0,1.917.688,3.351,3.351,0,0,0,2.8-1.3L57.949-1.88A4.66,4.66,0,0,1,56.058-.338,6.2,6.2,0,0,1,53.416.215Zm-.354-9.55a1.94,1.94,0,0,0-1.5.626,3.241,3.241,0,0,0-.736,1.791h4.318v-.248a2.311,2.311,0,0,0-.559-1.6A2,2,0,0,0,53.061-9.335Z" transform="translate(799.066 9138.341)"/>
    <path id="Trazado_200283" data-name="Trazado 200283" d="M547.632,296.353a4.38,4.38,0,0,1-3.784-2.184l-30.765-53.285a4.392,4.392,0,0,1,0-4.372l30.765-53.281a4.378,4.378,0,0,1,3.784-2.185H689.21a4.38,4.38,0,0,1,3.784,2.184l30.765,53.285a4.385,4.385,0,0,1,0,4.37L693,294.168a4.383,4.383,0,0,1-3.786,2.185Z" transform="translate(486.921 8445.954)" fill="#fdd9f8"/>
    <path id="Trazado_200284" data-name="Trazado 200284" d="M547.63,436.915a4.38,4.38,0,0,1-3.784-2.184l-30.765-53.285a4.391,4.391,0,0,1,0-4.372l30.765-53.281a4.378,4.378,0,0,1,3.784-2.185H689.208a4.38,4.38,0,0,1,3.784,2.184l30.765,53.285a4.387,4.387,0,0,1,0,4.372L692.994,434.73a4.383,4.383,0,0,1-3.785,2.185Z" transform="translate(486.92 8529.43)" fill="#fba6ee"/>
    <path id="Trazado_200285" data-name="Trazado 200285" d="M547.632,577.477a4.377,4.377,0,0,1-3.784-2.184l-30.765-53.285a4.388,4.388,0,0,1,0-4.37l30.765-53.283a4.378,4.378,0,0,1,3.784-2.185H689.21a4.378,4.378,0,0,1,3.784,2.185l30.765,53.283a4.388,4.388,0,0,1,0,4.372L693,575.292a4.379,4.379,0,0,1-3.786,2.185Z" transform="translate(486.921 8612.905)" fill="#f400ce"/>
    <path id="Trazado_231817" data-name="Trazado 231817" d="M-29.326-1.977A5.594,5.594,0,0,1-31.786-.36,10.3,10.3,0,0,1-35.31.215a6.98,6.98,0,0,1-3.561-.886,5.911,5.911,0,0,1-2.363-2.573,9.055,9.055,0,0,1-.854-3.964V-8.271a9.616,9.616,0,0,1,.79-4.055,5.841,5.841,0,0,1,2.277-2.621,6.56,6.56,0,0,1,3.486-.908,6.533,6.533,0,0,1,4.351,1.327,5.67,5.67,0,0,1,1.858,3.862h-3.137a3.119,3.119,0,0,0-.951-1.966,3.036,3.036,0,0,0-2.025-.623,2.858,2.858,0,0,0-2.5,1.235,6.5,6.5,0,0,0-.87,3.674v1a6.184,6.184,0,0,0,.935,3.717,3.2,3.2,0,0,0,2.739,1.257,3.575,3.575,0,0,0,2.589-.773v-2.7h-2.933V-8.218h6.155Zm9.367.795a3.893,3.893,0,0,1-3.18,1.4A3.672,3.672,0,0,1-25.991-.859a4.586,4.586,0,0,1-1-3.147v-7.616h3.1v7.518q0,1.817,1.654,1.817a2.242,2.242,0,0,0,2.17-1.1v-8.238h3.115V0h-2.922ZM-11.258,0h-3.1V-11.623h3.1Zm-.913-16.339h3.384l-2.976,3.33h-2.524ZM-1.848,0a3.447,3.447,0,0,1-.312-1.042A3.756,3.756,0,0,1-5.092.215,4.127,4.127,0,0,1-7.922-.773,3.178,3.178,0,0,1-9.045-3.266,3.285,3.285,0,0,1-7.675-6.1a6.758,6.758,0,0,1,3.958-1h1.429v-.666A1.915,1.915,0,0,0-2.7-9.056a1.627,1.627,0,0,0-1.305-.483,1.85,1.85,0,0,0-1.23.376,1.277,1.277,0,0,0-.446,1.031h-3.1A3.118,3.118,0,0,1-8.164-10,4.118,4.118,0,0,1-6.4-11.349a6.42,6.42,0,0,1,2.557-.489,5.073,5.073,0,0,1,3.411,1.08A3.777,3.777,0,0,1,.827-7.724v5.038a5.557,5.557,0,0,0,.462,2.5V0ZM-4.415-2.159a2.674,2.674,0,0,0,1.268-.306,2.011,2.011,0,0,0,.859-.822v-2h-1.16q-2.331,0-2.481,1.611l-.011.183a1.243,1.243,0,0,0,.408.956A1.586,1.586,0,0,0-4.415-2.159ZM9.507-3.212a1,1,0,0,0-.564-.9,6.406,6.406,0,0,0-1.81-.585q-4.146-.87-4.146-3.523A3.194,3.194,0,0,1,4.27-10.8a5.178,5.178,0,0,1,3.357-1.037,5.573,5.573,0,0,1,3.54,1.042,3.284,3.284,0,0,1,1.327,2.707h-3.1a1.5,1.5,0,0,0-.43-1.1,1.818,1.818,0,0,0-1.343-.435A1.858,1.858,0,0,0,6.4-9.271a1.119,1.119,0,0,0-.43.9.957.957,0,0,0,.489.833,5.028,5.028,0,0,0,1.649.548,13.468,13.468,0,0,1,1.955.521,3.212,3.212,0,0,1,2.46,3.126A3.032,3.032,0,0,1,11.161-.768,5.885,5.885,0,0,1,7.638.215,6.147,6.147,0,0,1,5.043-.306,4.353,4.353,0,0,1,3.266-1.735,3.32,3.32,0,0,1,2.621-3.7H5.564a1.621,1.621,0,0,0,.612,1.268,2.429,2.429,0,0,0,1.525.44A2.248,2.248,0,0,0,9.05-2.326,1.053,1.053,0,0,0,9.507-3.212ZM19.519-5.9a7,7,0,0,1,1.219-4.329,3.956,3.956,0,0,1,3.335-1.611,3.56,3.56,0,0,1,2.8,1.268V-16.5h3.115V0h-2.8l-.15-1.235A3.653,3.653,0,0,1,24.052.215,3.945,3.945,0,0,1,20.759-1.4,7.23,7.23,0,0,1,19.519-5.9Zm3.1.231a4.588,4.588,0,0,0,.569,2.507,1.855,1.855,0,0,0,1.654.871A2.077,2.077,0,0,0,26.877-3.5V-8.1a2.048,2.048,0,0,0-2.009-1.216Q22.623-9.313,22.623-5.666ZM37.748.215a5.706,5.706,0,0,1-4.163-1.568,5.575,5.575,0,0,1-1.606-4.179v-.3a7.021,7.021,0,0,1,.677-3.131,4.967,4.967,0,0,1,1.917-2.127,5.382,5.382,0,0,1,2.831-.747,4.824,4.824,0,0,1,3.754,1.5,6.111,6.111,0,0,1,1.37,4.265V-4.8h-7.4a2.884,2.884,0,0,0,.908,1.826,2.744,2.744,0,0,0,1.917.688,3.351,3.351,0,0,0,2.8-1.3L42.281-1.88A4.66,4.66,0,0,1,40.391-.338,6.2,6.2,0,0,1,37.748.215Zm-.354-9.55a1.94,1.94,0,0,0-1.5.626,3.241,3.241,0,0,0-.736,1.791h4.318v-.248a2.311,2.311,0,0,0-.559-1.6A2,2,0,0,0,37.394-9.335Zm-84,32.123a1,1,0,0,0-.564-.9,6.406,6.406,0,0,0-1.81-.585q-4.146-.87-4.146-3.523A3.194,3.194,0,0,1-51.847,15.2a5.178,5.178,0,0,1,3.357-1.037,5.573,5.573,0,0,1,3.54,1.042,3.284,3.284,0,0,1,1.327,2.707h-3.1a1.5,1.5,0,0,0-.43-1.1,1.818,1.818,0,0,0-1.343-.435,1.858,1.858,0,0,0-1.214.354,1.119,1.119,0,0,0-.43.9.957.957,0,0,0,.489.833,5.028,5.028,0,0,0,1.649.548,13.468,13.468,0,0,1,1.955.521,3.212,3.212,0,0,1,2.46,3.126,3.032,3.032,0,0,1-1.364,2.573,5.885,5.885,0,0,1-3.523.983,6.147,6.147,0,0,1-2.594-.521,4.353,4.353,0,0,1-1.778-1.429A3.32,3.32,0,0,1-53.5,22.3h2.943a1.621,1.621,0,0,0,.612,1.268,2.429,2.429,0,0,0,1.525.44,2.248,2.248,0,0,0,1.348-.338A1.053,1.053,0,0,0-46.61,22.788ZM-38.317,26h-3.115V14.377h3.115Zm-3.3-14.631a1.529,1.529,0,0,1,.467-1.149,1.755,1.755,0,0,1,1.273-.451,1.759,1.759,0,0,1,1.268.451,1.52,1.52,0,0,1,.473,1.149,1.524,1.524,0,0,1-.478,1.16,1.764,1.764,0,0,1-1.262.451,1.764,1.764,0,0,1-1.262-.451A1.524,1.524,0,0,1-41.615,11.369Zm8.766,3.008.1,1.3a4.085,4.085,0,0,1,3.341-1.515,3.1,3.1,0,0,1,3.083,1.772,3.991,3.991,0,0,1,3.491-1.772,3.467,3.467,0,0,1,2.814,1.1,5.061,5.061,0,0,1,.924,3.314V26h-3.115V18.588a2.213,2.213,0,0,0-.387-1.445,1.714,1.714,0,0,0-1.364-.457A1.938,1.938,0,0,0-25.9,18.019L-25.889,26h-3.1V18.6a2.186,2.186,0,0,0-.4-1.461,1.731,1.731,0,0,0-1.354-.451,2.012,2.012,0,0,0-1.912,1.1V26h-3.1V14.377Zm23.1,10.441a3.893,3.893,0,0,1-3.18,1.4,3.672,3.672,0,0,1-2.852-1.074,4.586,4.586,0,0,1-1-3.147V14.377h3.1v7.518q0,1.817,1.654,1.817a2.242,2.242,0,0,0,2.17-1.1V14.377h3.115V26H-9.668ZM-1.128,26H-4.243V9.5h3.115Zm9.292,0a3.447,3.447,0,0,1-.312-1.042A3.756,3.756,0,0,1,4.92,26.215a4.127,4.127,0,0,1-2.831-.988A3.178,3.178,0,0,1,.967,22.734,3.285,3.285,0,0,1,2.336,19.9a6.758,6.758,0,0,1,3.958-1H7.724v-.666a1.915,1.915,0,0,0-.414-1.289A1.627,1.627,0,0,0,6,16.461a1.85,1.85,0,0,0-1.23.376,1.277,1.277,0,0,0-.446,1.031h-3.1A3.118,3.118,0,0,1,1.848,16a4.118,4.118,0,0,1,1.762-1.348,6.42,6.42,0,0,1,2.557-.489,5.073,5.073,0,0,1,3.411,1.08,3.777,3.777,0,0,1,1.262,3.035v5.038a5.557,5.557,0,0,0,.462,2.5V26ZM5.6,23.841a2.674,2.674,0,0,0,1.268-.306,2.011,2.011,0,0,0,.859-.822v-2H6.563q-2.331,0-2.481,1.611l-.011.183a1.243,1.243,0,0,0,.408.956A1.586,1.586,0,0,0,5.6,23.841Zm12.461-.129a2.036,2.036,0,0,0,1.4-.473,1.656,1.656,0,0,0,.559-1.257h2.911a3.982,3.982,0,0,1-.645,2.165,4.253,4.253,0,0,1-1.735,1.525,5.43,5.43,0,0,1-2.433.542A5.046,5.046,0,0,1,14.18,24.63a6.27,6.27,0,0,1-1.439-4.377v-.2a6.2,6.2,0,0,1,1.429-4.286,4.987,4.987,0,0,1,3.921-1.6,4.889,4.889,0,0,1,3.5,1.241,4.393,4.393,0,0,1,1.337,3.3H20.013a2.133,2.133,0,0,0-.559-1.474,1.862,1.862,0,0,0-1.418-.567,1.87,1.87,0,0,0-1.638.791,4.583,4.583,0,0,0-.553,2.566v.323a4.641,4.641,0,0,0,.548,2.582A1.893,1.893,0,0,0,18.058,23.712ZM27.973,26H24.857V14.377h3.115Zm-3.3-14.631a1.529,1.529,0,0,1,.467-1.149,2.014,2.014,0,0,1,2.541,0,1.64,1.64,0,0,1-.005,2.31,1.991,1.991,0,0,1-2.524,0A1.524,1.524,0,0,1,24.675,11.369Zm5.371,8.712A6.893,6.893,0,0,1,30.712,17,4.876,4.876,0,0,1,32.629,14.9a5.594,5.594,0,0,1,2.906-.741,5.293,5.293,0,0,1,3.84,1.439,5.777,5.777,0,0,1,1.66,3.91l.021.795A6.075,6.075,0,0,1,39.563,24.6a5.19,5.19,0,0,1-4.007,1.617A5.216,5.216,0,0,1,31.544,24.6a6.182,6.182,0,0,1-1.5-4.383Zm3.1.22a4.345,4.345,0,0,0,.623,2.534,2.238,2.238,0,0,0,3.545.011,4.754,4.754,0,0,0,.634-2.77,4.3,4.3,0,0,0-.634-2.518,2.06,2.06,0,0,0-1.783-.893,2.027,2.027,0,0,0-1.762.888A4.834,4.834,0,0,0,33.15,20.3Zm3-10.8h3.384l-2.976,3.33H34.031Zm9.679,4.877.1,1.343a4.058,4.058,0,0,1,3.341-1.558,3.372,3.372,0,0,1,2.75,1.085,5.062,5.062,0,0,1,.924,3.244V26h-3.1V18.566a2.014,2.014,0,0,0-.43-1.434,1.924,1.924,0,0,0-1.429-.446A2.136,2.136,0,0,0,46.009,17.8V26H42.9V14.377ZM-26.351,49.712a2.036,2.036,0,0,0,1.4-.473,1.656,1.656,0,0,0,.559-1.257h2.911a3.982,3.982,0,0,1-.645,2.165,4.253,4.253,0,0,1-1.735,1.525,5.43,5.43,0,0,1-2.433.542,5.046,5.046,0,0,1-3.932-1.584,6.27,6.27,0,0,1-1.439-4.377v-.2a6.2,6.2,0,0,1,1.429-4.286,4.987,4.987,0,0,1,3.921-1.6,4.889,4.889,0,0,1,3.5,1.241,4.393,4.393,0,0,1,1.337,3.3H-24.4a2.133,2.133,0,0,0-.559-1.474,1.862,1.862,0,0,0-1.418-.567,1.87,1.87,0,0,0-1.638.791,4.583,4.583,0,0,0-.553,2.566v.323a4.641,4.641,0,0,0,.548,2.582A1.893,1.893,0,0,0-26.351,49.712ZM-16.436,52h-3.115V35.5h3.115Zm5.908,0h-3.1V40.377h3.1Zm-.913-16.339h3.384l-2.976,3.33h-2.524ZM-5,40.377l.1,1.343a4.058,4.058,0,0,1,3.341-1.558,3.372,3.372,0,0,1,2.75,1.085,5.062,5.062,0,0,1,.924,3.244V52h-3.1V44.566a2.014,2.014,0,0,0-.43-1.434,1.924,1.924,0,0,0-1.429-.446A2.136,2.136,0,0,0-4.812,43.8V52h-3.1V40.377ZM7.745,52H4.63V40.377H7.745Zm-3.3-14.631a1.529,1.529,0,0,1,.467-1.149,1.755,1.755,0,0,1,1.273-.451,1.759,1.759,0,0,1,1.268.451,1.64,1.64,0,0,1-.005,2.31,1.764,1.764,0,0,1-1.262.451,1.764,1.764,0,0,1-1.262-.451A1.524,1.524,0,0,1,4.447,37.369ZM15.136,49.712a2.036,2.036,0,0,0,1.4-.473,1.656,1.656,0,0,0,.559-1.257H20a3.982,3.982,0,0,1-.645,2.165,4.253,4.253,0,0,1-1.735,1.525,5.43,5.43,0,0,1-2.433.542,5.046,5.046,0,0,1-3.932-1.584,6.27,6.27,0,0,1-1.439-4.377v-.2a6.2,6.2,0,0,1,1.429-4.286,4.987,4.987,0,0,1,3.921-1.6,4.889,4.889,0,0,1,3.5,1.241A4.393,4.393,0,0,1,20,44.706H17.091a2.133,2.133,0,0,0-.559-1.474,1.862,1.862,0,0,0-1.418-.567,1.87,1.87,0,0,0-1.638.791,4.583,4.583,0,0,0-.553,2.566v.323a4.641,4.641,0,0,0,.548,2.582A1.893,1.893,0,0,0,15.136,49.712ZM28.51,52a3.448,3.448,0,0,1-.312-1.042,3.756,3.756,0,0,1-2.933,1.257,4.127,4.127,0,0,1-2.831-.988,3.178,3.178,0,0,1-1.123-2.492,3.285,3.285,0,0,1,1.37-2.836,6.758,6.758,0,0,1,3.958-1h1.429v-.666a1.915,1.915,0,0,0-.414-1.289,1.627,1.627,0,0,0-1.305-.483,1.85,1.85,0,0,0-1.23.376,1.277,1.277,0,0,0-.446,1.031h-3.1A3.118,3.118,0,0,1,22.193,42a4.118,4.118,0,0,1,1.762-1.348,6.42,6.42,0,0,1,2.557-.489,5.073,5.073,0,0,1,3.411,1.08,3.777,3.777,0,0,1,1.262,3.035v5.038a5.557,5.557,0,0,0,.462,2.5V52Zm-2.567-2.159a2.674,2.674,0,0,0,1.268-.306,2.011,2.011,0,0,0,.859-.822v-2h-1.16q-2.331,0-2.481,1.611l-.011.183a1.243,1.243,0,0,0,.408.956A1.586,1.586,0,0,0,25.942,49.841Z" transform="translate(1105.15 8663.489)"/>
    <path id="Trazado_231818" data-name="Trazado 231818" d="M-56.493-3.223h-5.65L-63.218,0h-3.427l5.822-15.641h2.986L-51.981,0h-3.427Zm-4.78-2.61h3.91l-1.966-5.854Zm20.5.129A6.971,6.971,0,0,1-42-1.4,3.909,3.909,0,0,1-45.289.215,3.621,3.621,0,0,1-48.136-1.01V4.469h-3.1V-11.623h2.879l.107,1.139a3.649,3.649,0,0,1,2.943-1.354,3.936,3.936,0,0,1,3.341,1.59,7.16,7.16,0,0,1,1.192,4.383Zm-3.1-.226a4.574,4.574,0,0,0-.575-2.5,1.872,1.872,0,0,0-1.67-.881A2.033,2.033,0,0,0-48.136-8.2v4.759a2.067,2.067,0,0,0,2.03,1.149Q-43.882-2.288-43.882-5.93Zm8.3,5.93h-3.115V-16.5h3.115Zm5.833,0H-32.86V-11.623h3.115Zm-3.3-14.631a1.529,1.529,0,0,1,.467-1.149,1.755,1.755,0,0,1,1.273-.451,1.759,1.759,0,0,1,1.268.451,1.52,1.52,0,0,1,.473,1.149,1.524,1.524,0,0,1-.478,1.16,1.764,1.764,0,0,1-1.262.451,1.764,1.764,0,0,1-1.262-.451A1.524,1.524,0,0,1-33.043-14.631ZM-22.354-2.288a2.036,2.036,0,0,0,1.4-.473A1.656,1.656,0,0,0-20.4-4.018h2.911a3.982,3.982,0,0,1-.645,2.165A4.253,4.253,0,0,1-19.868-.328,5.43,5.43,0,0,1-22.3.215,5.046,5.046,0,0,1-26.232-1.37a6.27,6.27,0,0,1-1.439-4.377v-.2a6.2,6.2,0,0,1,1.429-4.286,4.987,4.987,0,0,1,3.921-1.6,4.889,4.889,0,0,1,3.5,1.241,4.393,4.393,0,0,1,1.337,3.3H-20.4a2.133,2.133,0,0,0-.559-1.474,1.862,1.862,0,0,0-1.418-.567,1.87,1.87,0,0,0-1.638.791,4.583,4.583,0,0,0-.553,2.566v.323a4.641,4.641,0,0,0,.548,2.582A1.893,1.893,0,0,0-22.354-2.288ZM-8.98,0a3.447,3.447,0,0,1-.312-1.042A3.756,3.756,0,0,1-12.225.215a4.127,4.127,0,0,1-2.831-.988,3.178,3.178,0,0,1-1.123-2.492A3.285,3.285,0,0,1-14.808-6.1a6.758,6.758,0,0,1,3.958-1h1.429v-.666a1.915,1.915,0,0,0-.414-1.289,1.627,1.627,0,0,0-1.305-.483,1.85,1.85,0,0,0-1.23.376,1.277,1.277,0,0,0-.446,1.031h-3.1A3.118,3.118,0,0,1-15.3-10a4.118,4.118,0,0,1,1.762-1.348,6.42,6.42,0,0,1,2.557-.489,5.073,5.073,0,0,1,3.411,1.08A3.777,3.777,0,0,1-6.306-7.724v5.038a5.557,5.557,0,0,0,.462,2.5V0Zm-2.567-2.159a2.674,2.674,0,0,0,1.268-.306,2.011,2.011,0,0,0,.859-.822v-2h-1.16q-2.331,0-2.481,1.611l-.011.183a1.243,1.243,0,0,0,.408.956A1.586,1.586,0,0,0-11.548-2.159ZM.913-2.288a2.036,2.036,0,0,0,1.4-.473,1.656,1.656,0,0,0,.559-1.257H5.779a3.982,3.982,0,0,1-.645,2.165A4.253,4.253,0,0,1,3.4-.328,5.43,5.43,0,0,1,.967.215,5.046,5.046,0,0,1-2.965-1.37,6.27,6.27,0,0,1-4.4-5.747v-.2a6.2,6.2,0,0,1,1.429-4.286,4.987,4.987,0,0,1,3.921-1.6,4.889,4.889,0,0,1,3.5,1.241,4.393,4.393,0,0,1,1.337,3.3H2.868A2.133,2.133,0,0,0,2.31-8.768,1.862,1.862,0,0,0,.892-9.335a1.87,1.87,0,0,0-1.638.791A4.583,4.583,0,0,0-1.3-5.978v.323A4.641,4.641,0,0,0-.752-3.073,1.893,1.893,0,0,0,.913-2.288ZM10.828,0H7.713V-11.623h3.115ZM7.53-14.631A1.529,1.529,0,0,1,8-15.78a1.755,1.755,0,0,1,1.273-.451,1.759,1.759,0,0,1,1.268.451,1.52,1.52,0,0,1,.473,1.149,1.524,1.524,0,0,1-.478,1.16,1.764,1.764,0,0,1-1.262.451,1.764,1.764,0,0,1-1.262-.451A1.524,1.524,0,0,1,7.53-14.631ZM12.9-5.919A6.893,6.893,0,0,1,13.567-9,4.876,4.876,0,0,1,15.485-11.1a5.594,5.594,0,0,1,2.906-.741,5.293,5.293,0,0,1,3.84,1.439,5.777,5.777,0,0,1,1.66,3.91l.021.795A6.075,6.075,0,0,1,22.419-1.4,5.19,5.19,0,0,1,18.412.215,5.216,5.216,0,0,1,14.4-1.4a6.182,6.182,0,0,1-1.5-4.383Zm3.1.22a4.345,4.345,0,0,0,.623,2.534,2.055,2.055,0,0,0,1.783.877,2.06,2.06,0,0,0,1.762-.866,4.754,4.754,0,0,0,.634-2.77,4.3,4.3,0,0,0-.634-2.518,2.06,2.06,0,0,0-1.783-.893,2.027,2.027,0,0,0-1.762.888A4.834,4.834,0,0,0,16.006-5.7Zm3-10.8h3.384l-2.976,3.33H16.887Zm9.679,4.877.1,1.343a4.058,4.058,0,0,1,3.341-1.558,3.372,3.372,0,0,1,2.75,1.085,5.062,5.062,0,0,1,.924,3.244V0h-3.1V-7.434a2.014,2.014,0,0,0-.43-1.434,1.924,1.924,0,0,0-1.429-.446A2.136,2.136,0,0,0,28.864-8.2V0h-3.1V-11.623ZM43.141-5.9a7,7,0,0,1,1.219-4.329A3.956,3.956,0,0,1,47.7-11.838a3.56,3.56,0,0,1,2.8,1.268V-16.5h3.115V0h-2.8l-.15-1.235A3.653,3.653,0,0,1,47.674.215,3.945,3.945,0,0,1,44.381-1.4,7.23,7.23,0,0,1,43.141-5.9Zm3.1.231a4.588,4.588,0,0,0,.569,2.507,1.855,1.855,0,0,0,1.654.871A2.077,2.077,0,0,0,50.5-3.5V-8.1A2.048,2.048,0,0,0,48.49-9.313Q46.245-9.313,46.245-5.666ZM61.37.215a5.706,5.706,0,0,1-4.163-1.568A5.575,5.575,0,0,1,55.6-5.532v-.3a7.021,7.021,0,0,1,.677-3.131A4.967,4.967,0,0,1,58.2-11.091a5.382,5.382,0,0,1,2.831-.747,4.824,4.824,0,0,1,3.754,1.5,6.111,6.111,0,0,1,1.37,4.265V-4.8h-7.4a2.884,2.884,0,0,0,.908,1.826,2.744,2.744,0,0,0,1.917.688,3.351,3.351,0,0,0,2.8-1.3L65.9-1.88A4.66,4.66,0,0,1,64.013-.338,6.2,6.2,0,0,1,61.37.215Zm-.354-9.55a1.94,1.94,0,0,0-1.5.626,3.241,3.241,0,0,0-.736,1.791H63.1v-.248a2.311,2.311,0,0,0-.559-1.6A2,2,0,0,0,61.016-9.335ZM-45.117,11.52v2.857h1.987v2.277h-1.987v5.8a1.385,1.385,0,0,0,.247.924,1.241,1.241,0,0,0,.945.279,4.951,4.951,0,0,0,.913-.075v2.353a6.391,6.391,0,0,1-1.88.279q-3.266,0-3.33-3.3V16.654h-1.7V14.377h1.7V11.52Zm9.066,14.7a5.706,5.706,0,0,1-4.163-1.568,5.575,5.575,0,0,1-1.606-4.179v-.3a7.021,7.021,0,0,1,.677-3.131,4.967,4.967,0,0,1,1.917-2.127,5.382,5.382,0,0,1,2.831-.747,4.824,4.824,0,0,1,3.754,1.5,6.111,6.111,0,0,1,1.37,4.265V21.2h-7.4a2.884,2.884,0,0,0,.908,1.826,2.744,2.744,0,0,0,1.917.688,3.351,3.351,0,0,0,2.8-1.3l1.525,1.708a4.66,4.66,0,0,1-1.891,1.542A6.2,6.2,0,0,1-36.051,26.215Zm-.354-9.55a1.94,1.94,0,0,0-1.5.626,3.241,3.241,0,0,0-.736,1.791h4.318v-.248a2.311,2.311,0,0,0-.559-1.6A2,2,0,0,0-36.405,16.665Zm.279-7.165h3.384l-2.976,3.33h-2.524Zm11.451,14.212a2.036,2.036,0,0,0,1.4-.473,1.656,1.656,0,0,0,.559-1.257h2.911a3.982,3.982,0,0,1-.645,2.165,4.253,4.253,0,0,1-1.735,1.525,5.43,5.43,0,0,1-2.433.542,5.046,5.046,0,0,1-3.932-1.584,6.27,6.27,0,0,1-1.439-4.377v-.2a6.2,6.2,0,0,1,1.429-4.286,4.987,4.987,0,0,1,3.921-1.6,4.889,4.889,0,0,1,3.5,1.241,4.393,4.393,0,0,1,1.337,3.3H-22.72a2.133,2.133,0,0,0-.559-1.474,1.862,1.862,0,0,0-1.418-.567,1.87,1.87,0,0,0-1.638.791,4.583,4.583,0,0,0-.553,2.566v.323a4.641,4.641,0,0,0,.548,2.582A1.893,1.893,0,0,0-24.675,23.712Zm9.5-9.335.1,1.343a4.058,4.058,0,0,1,3.341-1.558,3.372,3.372,0,0,1,2.75,1.085,5.062,5.062,0,0,1,.924,3.244V26h-3.1V18.566a2.014,2.014,0,0,0-.43-1.434,1.924,1.924,0,0,0-1.429-.446A2.136,2.136,0,0,0-15,17.8V26h-3.1V14.377ZM-2.438,26H-5.554V14.377h3.115Zm-3.3-14.631a1.529,1.529,0,0,1,.467-1.149A1.755,1.755,0,0,1-4,9.769a1.759,1.759,0,0,1,1.268.451,1.52,1.52,0,0,1,.473,1.149,1.524,1.524,0,0,1-.478,1.16A1.764,1.764,0,0,1-4,12.98a1.764,1.764,0,0,1-1.262-.451A1.524,1.524,0,0,1-5.736,11.369ZM4.952,23.712a2.036,2.036,0,0,0,1.4-.473,1.656,1.656,0,0,0,.559-1.257H9.818a3.982,3.982,0,0,1-.645,2.165,4.253,4.253,0,0,1-1.735,1.525,5.43,5.43,0,0,1-2.433.542A5.046,5.046,0,0,1,1.074,24.63,6.27,6.27,0,0,1-.365,20.253v-.2a6.2,6.2,0,0,1,1.429-4.286,4.987,4.987,0,0,1,3.921-1.6,4.889,4.889,0,0,1,3.5,1.241,4.393,4.393,0,0,1,1.337,3.3H6.907a2.133,2.133,0,0,0-.559-1.474,1.862,1.862,0,0,0-1.418-.567,1.87,1.87,0,0,0-1.638.791,4.583,4.583,0,0,0-.553,2.566v.323a4.641,4.641,0,0,0,.548,2.582A1.893,1.893,0,0,0,4.952,23.712ZM18.326,26a3.448,3.448,0,0,1-.312-1.042,3.756,3.756,0,0,1-2.933,1.257,4.127,4.127,0,0,1-2.831-.988,3.178,3.178,0,0,1-1.123-2.492A3.285,3.285,0,0,1,12.5,19.9a6.758,6.758,0,0,1,3.958-1h1.429v-.666a1.915,1.915,0,0,0-.414-1.289,1.627,1.627,0,0,0-1.305-.483,1.85,1.85,0,0,0-1.23.376,1.277,1.277,0,0,0-.446,1.031h-3.1A3.118,3.118,0,0,1,12.01,16a4.118,4.118,0,0,1,1.762-1.348,6.42,6.42,0,0,1,2.557-.489,5.073,5.073,0,0,1,3.411,1.08A3.777,3.777,0,0,1,21,18.276v5.038a5.557,5.557,0,0,0,.462,2.5V26Zm-2.567-2.159a2.674,2.674,0,0,0,1.268-.306,2.011,2.011,0,0,0,.859-.822v-2h-1.16q-2.331,0-2.481,1.611l-.011.183a1.243,1.243,0,0,0,.408.956A1.586,1.586,0,0,0,15.759,23.841Zm13.922-1.053a1,1,0,0,0-.564-.9,6.406,6.406,0,0,0-1.81-.585q-4.146-.87-4.146-3.523A3.194,3.194,0,0,1,24.444,15.2,5.178,5.178,0,0,1,27.8,14.162,5.573,5.573,0,0,1,31.34,15.2a3.284,3.284,0,0,1,1.327,2.707h-3.1a1.5,1.5,0,0,0-.43-1.1,1.818,1.818,0,0,0-1.343-.435,1.858,1.858,0,0,0-1.214.354,1.119,1.119,0,0,0-.43.9.957.957,0,0,0,.489.833,5.028,5.028,0,0,0,1.649.548,13.468,13.468,0,0,1,1.955.521,3.212,3.212,0,0,1,2.46,3.126,3.032,3.032,0,0,1-1.364,2.573,5.885,5.885,0,0,1-3.523.983,6.147,6.147,0,0,1-2.594-.521,4.353,4.353,0,0,1-1.778-1.429,3.32,3.32,0,0,1-.645-1.96h2.943a1.621,1.621,0,0,0,.612,1.268,2.429,2.429,0,0,0,1.525.44,2.248,2.248,0,0,0,1.348-.338A1.053,1.053,0,0,0,29.681,22.788Zm14.835-1.182,2.148-7.229h3.33L45.321,27.8l-.258.612a3.543,3.543,0,0,1-3.437,2.277,4.885,4.885,0,0,1-1.375-.2V28.138l.473.011a2.554,2.554,0,0,0,1.316-.269,1.764,1.764,0,0,0,.682-.892l.365-.956L39.016,14.377h3.341ZM-52.669,41.645a3.875,3.875,0,0,1,3.1-1.482q3.781,0,3.835,4.394V52h-3.1V44.642a2.159,2.159,0,0,0-.43-1.477,1.842,1.842,0,0,0-1.429-.478,2.113,2.113,0,0,0-1.977,1.053V52h-3.1V35.5h3.1ZM-36.652,52a3.447,3.447,0,0,1-.312-1.042A3.756,3.756,0,0,1-39.9,52.215a4.127,4.127,0,0,1-2.831-.988,3.178,3.178,0,0,1-1.123-2.492A3.285,3.285,0,0,1-42.48,45.9a6.758,6.758,0,0,1,3.958-1h1.429v-.666a1.915,1.915,0,0,0-.414-1.289,1.627,1.627,0,0,0-1.305-.483,1.85,1.85,0,0,0-1.23.376,1.277,1.277,0,0,0-.446,1.031h-3.1A3.119,3.119,0,0,1-42.969,42a4.118,4.118,0,0,1,1.762-1.348,6.42,6.42,0,0,1,2.557-.489,5.073,5.073,0,0,1,3.411,1.08,3.777,3.777,0,0,1,1.262,3.035v5.038a5.557,5.557,0,0,0,.462,2.5V52Zm-2.567-2.159a2.674,2.674,0,0,0,1.268-.306,2.011,2.011,0,0,0,.859-.822v-2h-1.16q-2.331,0-2.481,1.611l-.011.183a1.243,1.243,0,0,0,.408.956A1.586,1.586,0,0,0-39.22,49.841Zm18.1-3.545a7.038,7.038,0,0,1-1.192,4.356,3.95,3.95,0,0,1-3.33,1.563,3.629,3.629,0,0,1-3.019-1.45L-28.8,52h-2.793V35.5h3.1v5.919a3.536,3.536,0,0,1,2.825-1.257,3.982,3.982,0,0,1,3.335,1.563,7.048,7.048,0,0,1,1.208,4.4Zm-3.1-.226a4.624,4.624,0,0,0-.559-2.573,1.889,1.889,0,0,0-1.665-.811A2.048,2.048,0,0,0-28.488,43.9v4.587a2.076,2.076,0,0,0,2.063,1.225,1.917,1.917,0,0,0,1.977-1.482A7.647,7.647,0,0,0-24.224,46.07ZM-15.931,52h-3.115V40.377h3.115Zm-3.3-14.631a1.529,1.529,0,0,1,.467-1.149,1.755,1.755,0,0,1,1.273-.451,1.759,1.759,0,0,1,1.268.451,1.52,1.52,0,0,1,.473,1.149,1.524,1.524,0,0,1-.478,1.16,1.764,1.764,0,0,1-1.262.451,1.764,1.764,0,0,1-1.262-.451A1.524,1.524,0,0,1-19.229,37.369ZM-10.1,52h-3.115V35.5H-10.1Zm5.833,0H-7.38V40.377h3.115Zm-3.3-14.631A1.529,1.529,0,0,1-7.1,36.22a1.755,1.755,0,0,1,1.273-.451,1.759,1.759,0,0,1,1.268.451,1.52,1.52,0,0,1,.473,1.149,1.524,1.524,0,0,1-.478,1.16,1.764,1.764,0,0,1-1.262.451,1.764,1.764,0,0,1-1.262-.451A1.524,1.524,0,0,1-7.562,37.369ZM-2.191,46.1A7,7,0,0,1-.972,41.773a3.956,3.956,0,0,1,3.335-1.611,3.56,3.56,0,0,1,2.8,1.268V35.5H8.282V52h-2.8l-.15-1.235a3.653,3.653,0,0,1-2.986,1.45A3.945,3.945,0,0,1-.951,50.6,7.23,7.23,0,0,1-2.191,46.1Zm3.1.231a4.588,4.588,0,0,0,.569,2.507,1.855,1.855,0,0,0,1.654.871A2.077,2.077,0,0,0,5.167,48.5V43.9a2.048,2.048,0,0,0-2.009-1.216Q.913,42.687.913,46.334ZM17.424,52a3.448,3.448,0,0,1-.312-1.042,3.756,3.756,0,0,1-2.933,1.257,4.127,4.127,0,0,1-2.831-.988,3.178,3.178,0,0,1-1.123-2.492A3.285,3.285,0,0,1,11.6,45.9a6.758,6.758,0,0,1,3.958-1h1.429v-.666a1.915,1.915,0,0,0-.414-1.289,1.627,1.627,0,0,0-1.305-.483,1.85,1.85,0,0,0-1.23.376,1.277,1.277,0,0,0-.446,1.031h-3.1A3.118,3.118,0,0,1,11.107,42a4.118,4.118,0,0,1,1.762-1.348,6.42,6.42,0,0,1,2.557-.489,5.073,5.073,0,0,1,3.411,1.08A3.777,3.777,0,0,1,20.1,44.276v5.038a5.557,5.557,0,0,0,.462,2.5V52Zm-2.567-2.159a2.674,2.674,0,0,0,1.268-.306,2.011,2.011,0,0,0,.859-.822v-2h-1.16q-2.331,0-2.481,1.611l-.011.183a1.243,1.243,0,0,0,.408.956A1.586,1.586,0,0,0,14.856,49.841ZM22,46.1a7,7,0,0,1,1.219-4.329,3.956,3.956,0,0,1,3.335-1.611,3.56,3.56,0,0,1,2.8,1.268V35.5h3.115V52h-2.8l-.15-1.235a3.653,3.653,0,0,1-2.986,1.45A3.945,3.945,0,0,1,23.241,50.6,7.23,7.23,0,0,1,22,46.1Zm3.1.231a4.588,4.588,0,0,0,.569,2.507,1.855,1.855,0,0,0,1.654.871,2.077,2.077,0,0,0,2.03-1.216V43.9a2.048,2.048,0,0,0-2.009-1.216Q25.1,42.687,25.1,46.334Zm15.125,5.881a5.706,5.706,0,0,1-4.163-1.568,5.575,5.575,0,0,1-1.606-4.179v-.3a7.021,7.021,0,0,1,.677-3.131,4.967,4.967,0,0,1,1.917-2.127,5.382,5.382,0,0,1,2.831-.747,4.824,4.824,0,0,1,3.754,1.5,6.111,6.111,0,0,1,1.37,4.265V47.2h-7.4a2.884,2.884,0,0,0,.908,1.826,2.744,2.744,0,0,0,1.917.688,3.351,3.351,0,0,0,2.8-1.3l1.525,1.708a4.66,4.66,0,0,1-1.891,1.542A6.2,6.2,0,0,1,40.229,52.215Zm-.354-9.55a1.94,1.94,0,0,0-1.5.626,3.241,3.241,0,0,0-.736,1.791h4.318v-.248a2.311,2.311,0,0,0-.559-1.6A2,2,0,0,0,39.875,42.665Zm13.191,6.123a1,1,0,0,0-.564-.9,6.406,6.406,0,0,0-1.81-.585q-4.146-.87-4.146-3.523A3.194,3.194,0,0,1,47.83,41.2a5.178,5.178,0,0,1,3.357-1.037,5.573,5.573,0,0,1,3.54,1.042,3.284,3.284,0,0,1,1.327,2.707h-3.1a1.5,1.5,0,0,0-.43-1.1,1.818,1.818,0,0,0-1.343-.435,1.858,1.858,0,0,0-1.214.354,1.119,1.119,0,0,0-.43.9.957.957,0,0,0,.489.833,5.028,5.028,0,0,0,1.649.548,13.468,13.468,0,0,1,1.955.521,3.212,3.212,0,0,1,2.46,3.126,3.032,3.032,0,0,1-1.364,2.573,5.885,5.885,0,0,1-3.523.983,6.147,6.147,0,0,1-2.594-.521,4.353,4.353,0,0,1-1.778-1.429,3.32,3.32,0,0,1-.645-1.96h2.943a1.621,1.621,0,0,0,.612,1.268,2.429,2.429,0,0,0,1.525.44,2.248,2.248,0,0,0,1.348-.338A1.053,1.053,0,0,0,53.066,48.788ZM-51.562,72.3a6.971,6.971,0,0,1-1.219,4.3,3.909,3.909,0,0,1-3.292,1.617,3.621,3.621,0,0,1-2.847-1.225v5.479h-3.1V66.377h2.879l.107,1.139A3.649,3.649,0,0,1-56.1,66.162a3.936,3.936,0,0,1,3.341,1.59,7.16,7.16,0,0,1,1.192,4.383Zm-3.1-.226a4.574,4.574,0,0,0-.575-2.5,1.872,1.872,0,0,0-1.67-.881A2.033,2.033,0,0,0-58.921,69.8v4.759a2.067,2.067,0,0,0,2.03,1.149Q-54.667,75.712-54.667,72.07Zm10.377,6.145a5.706,5.706,0,0,1-4.163-1.568,5.575,5.575,0,0,1-1.606-4.179v-.3a7.021,7.021,0,0,1,.677-3.131,4.967,4.967,0,0,1,1.917-2.127,5.382,5.382,0,0,1,2.831-.747,4.824,4.824,0,0,1,3.754,1.5,6.111,6.111,0,0,1,1.37,4.265V73.2h-7.4A2.884,2.884,0,0,0-46,75.024a2.744,2.744,0,0,0,1.917.688,3.351,3.351,0,0,0,2.8-1.3l1.525,1.708a4.66,4.66,0,0,1-1.891,1.542A6.2,6.2,0,0,1-44.29,78.215Zm-.354-9.55a1.94,1.94,0,0,0-1.5.626,3.241,3.241,0,0,0-.736,1.791h4.318v-.248a2.311,2.311,0,0,0-.559-1.6A2,2,0,0,0-44.645,68.665Zm6.413,3.438a7,7,0,0,1,1.219-4.329,3.956,3.956,0,0,1,3.335-1.611,3.56,3.56,0,0,1,2.8,1.268V61.5h3.115V78h-2.8l-.15-1.235a3.653,3.653,0,0,1-2.986,1.45A3.945,3.945,0,0,1-36.991,76.6,7.23,7.23,0,0,1-38.231,72.1Zm3.1.231a4.588,4.588,0,0,0,.569,2.507,1.855,1.855,0,0,0,1.654.871,2.077,2.077,0,0,0,2.03-1.216V69.9a2.048,2.048,0,0,0-2.009-1.216Q-35.127,68.687-35.127,72.334ZM-18.616,78a3.448,3.448,0,0,1-.312-1.042,3.756,3.756,0,0,1-2.933,1.257,4.127,4.127,0,0,1-2.831-.988,3.178,3.178,0,0,1-1.123-2.492,3.285,3.285,0,0,1,1.37-2.836,6.758,6.758,0,0,1,3.958-1h1.429v-.666a1.915,1.915,0,0,0-.414-1.289,1.627,1.627,0,0,0-1.305-.483,1.85,1.85,0,0,0-1.23.376,1.277,1.277,0,0,0-.446,1.031h-3.1A3.118,3.118,0,0,1-24.933,68a4.118,4.118,0,0,1,1.762-1.348,6.42,6.42,0,0,1,2.557-.489,5.073,5.073,0,0,1,3.411,1.08,3.777,3.777,0,0,1,1.262,3.035v5.038a5.557,5.557,0,0,0,.462,2.5V78Zm-2.567-2.159a2.674,2.674,0,0,0,1.268-.306,2.011,2.011,0,0,0,.859-.822v-2h-1.16q-2.331,0-2.481,1.611l-.011.183a1.243,1.243,0,0,0,.408.956A1.586,1.586,0,0,0-21.184,75.841Zm7.176-3.738a6.812,6.812,0,0,1,1.273-4.308A4.125,4.125,0,0,1-9.3,66.162a3.617,3.617,0,0,1,2.976,1.311l.129-1.1h2.814V77.613a4.968,4.968,0,0,1-.693,2.653,4.45,4.45,0,0,1-1.95,1.719,6.854,6.854,0,0,1-2.943.591,6.373,6.373,0,0,1-2.492-.51A4.423,4.423,0,0,1-13.3,80.75l1.375-1.891a3.637,3.637,0,0,0,2.814,1.3A2.662,2.662,0,0,0-7.187,79.5,2.478,2.478,0,0,0-6.5,77.624V77a3.591,3.591,0,0,1-2.825,1.214,4.114,4.114,0,0,1-3.389-1.638,6.81,6.81,0,0,1-1.294-4.345Zm3.1.231a4.242,4.242,0,0,0,.634,2.48,2.016,2.016,0,0,0,1.74.9A2.156,2.156,0,0,0-6.5,74.647v-4.9a2.151,2.151,0,0,0-2.009-1.065,2.029,2.029,0,0,0-1.756.915A4.781,4.781,0,0,0-10.9,72.334Zm9.421-.253A6.893,6.893,0,0,1-.816,69,4.876,4.876,0,0,1,1.1,66.9a5.594,5.594,0,0,1,2.906-.741A5.293,5.293,0,0,1,7.847,67.6a5.777,5.777,0,0,1,1.66,3.91l.021.795A6.075,6.075,0,0,1,8.035,76.6a5.19,5.19,0,0,1-4.007,1.617A5.216,5.216,0,0,1,.016,76.6a6.182,6.182,0,0,1-1.5-4.383Zm3.1.22a4.345,4.345,0,0,0,.623,2.534,2.055,2.055,0,0,0,1.783.877,2.06,2.06,0,0,0,1.762-.866,4.754,4.754,0,0,0,.634-2.77,4.3,4.3,0,0,0-.634-2.518,2.06,2.06,0,0,0-1.783-.893,2.027,2.027,0,0,0-1.762.888A4.834,4.834,0,0,0,1.622,72.3Zm3-10.8H8L5.027,64.83H2.5Zm6.37,10.6a6.812,6.812,0,0,1,1.273-4.308,4.125,4.125,0,0,1,3.432-1.633,3.617,3.617,0,0,1,2.976,1.311l.129-1.1h2.814V77.613a4.968,4.968,0,0,1-.693,2.653,4.45,4.45,0,0,1-1.95,1.719,6.854,6.854,0,0,1-2.943.591,6.373,6.373,0,0,1-2.492-.51A4.423,4.423,0,0,1,11.7,80.75l1.375-1.891a3.637,3.637,0,0,0,2.814,1.3,2.662,2.662,0,0,0,1.923-.661,2.478,2.478,0,0,0,.688-1.875V77a3.591,3.591,0,0,1-2.825,1.214,4.114,4.114,0,0,1-3.389-1.638,6.81,6.81,0,0,1-1.294-4.345Zm3.1.231a4.242,4.242,0,0,0,.634,2.48,2.016,2.016,0,0,0,1.74.9,2.156,2.156,0,0,0,2.03-1.065v-4.9a2.151,2.151,0,0,0-2.009-1.065,2.029,2.029,0,0,0-1.756.915A4.781,4.781,0,0,0,14.094,72.334ZM27.274,78H24.159V66.377h3.115Zm-3.3-14.631a1.529,1.529,0,0,1,.467-1.149,2.014,2.014,0,0,1,2.541,0,1.64,1.64,0,0,1-.005,2.31,1.991,1.991,0,0,1-2.524,0A1.524,1.524,0,0,1,23.977,63.369ZM34.665,75.712a2.036,2.036,0,0,0,1.4-.473,1.656,1.656,0,0,0,.559-1.257h2.911a3.982,3.982,0,0,1-.645,2.165,4.253,4.253,0,0,1-1.735,1.525,5.43,5.43,0,0,1-2.433.542,5.046,5.046,0,0,1-3.932-1.584,6.27,6.27,0,0,1-1.439-4.377v-.2a6.2,6.2,0,0,1,1.429-4.286,4.987,4.987,0,0,1,3.921-1.6,4.889,4.889,0,0,1,3.5,1.241,4.393,4.393,0,0,1,1.337,3.3H36.62a2.133,2.133,0,0,0-.559-1.474,2.076,2.076,0,0,0-3.056.224,4.583,4.583,0,0,0-.553,2.566v.323A4.641,4.641,0,0,0,33,74.927,1.893,1.893,0,0,0,34.665,75.712ZM48.039,78a3.447,3.447,0,0,1-.312-1.042,3.756,3.756,0,0,1-2.933,1.257,4.127,4.127,0,0,1-2.831-.988,3.178,3.178,0,0,1-1.123-2.492,3.285,3.285,0,0,1,1.37-2.836,6.758,6.758,0,0,1,3.958-1H47.6v-.666a1.915,1.915,0,0,0-.414-1.289,1.627,1.627,0,0,0-1.305-.483,1.85,1.85,0,0,0-1.23.376,1.277,1.277,0,0,0-.446,1.031H41.1A3.118,3.118,0,0,1,41.723,68a4.118,4.118,0,0,1,1.762-1.348,6.42,6.42,0,0,1,2.557-.489,5.073,5.073,0,0,1,3.411,1.08,3.777,3.777,0,0,1,1.262,3.035v5.038a5.557,5.557,0,0,0,.462,2.5V78Zm-2.567-2.159a2.674,2.674,0,0,0,1.268-.306,2.011,2.011,0,0,0,.859-.822v-2h-1.16q-2.331,0-2.481,1.611l-.011.183a1.243,1.243,0,0,0,.408.956A1.586,1.586,0,0,0,45.472,75.841Zm13.922-1.053a1,1,0,0,0-.564-.9,6.406,6.406,0,0,0-1.81-.585q-4.146-.87-4.146-3.523A3.194,3.194,0,0,1,54.157,67.2a5.178,5.178,0,0,1,3.357-1.037,5.573,5.573,0,0,1,3.54,1.042,3.284,3.284,0,0,1,1.327,2.707h-3.1a1.5,1.5,0,0,0-.43-1.1,1.818,1.818,0,0,0-1.343-.435,1.858,1.858,0,0,0-1.214.354,1.119,1.119,0,0,0-.43.9.957.957,0,0,0,.489.833A5.028,5.028,0,0,0,58,71.012a13.468,13.468,0,0,1,1.955.521,3.212,3.212,0,0,1,2.46,3.126,3.032,3.032,0,0,1-1.364,2.573,5.885,5.885,0,0,1-3.523.983,6.147,6.147,0,0,1-2.594-.521,4.353,4.353,0,0,1-1.778-1.429,3.32,3.32,0,0,1-.645-1.96h2.943a1.621,1.621,0,0,0,.612,1.268,2.429,2.429,0,0,0,1.525.44,2.248,2.248,0,0,0,1.348-.338A1.053,1.053,0,0,0,59.394,74.788Z" transform="translate(1103.802 8874.139)"/>
    <path id="Trazado_231819" data-name="Trazado 231819" d="M-51.929-4.663a1.879,1.879,0,0,0-.732-1.593A9.607,9.607,0,0,0-55.3-7.428a18.691,18.691,0,0,1-3.015-1.215q-3.027-1.636-3.027-4.407a4.292,4.292,0,0,1,.812-2.57A5.3,5.3,0,0,1-58.2-17.383a8.776,8.776,0,0,1,3.412-.635,7.988,7.988,0,0,1,3.394.69,5.4,5.4,0,0,1,2.313,1.947,5.1,5.1,0,0,1,.824,2.856h-3.662a2.4,2.4,0,0,0-.769-1.9,3.161,3.161,0,0,0-2.161-.677,3.377,3.377,0,0,0-2.087.568,1.79,1.79,0,0,0-.745,1.5,1.715,1.715,0,0,0,.873,1.453,9.861,9.861,0,0,0,2.57,1.1,11.1,11.1,0,0,1,4.553,2.332,4.643,4.643,0,0,1,1.428,3.467A4.277,4.277,0,0,1-50-1.068,7.642,7.642,0,0,1-54.7.244a9.075,9.075,0,0,1-3.735-.751A5.911,5.911,0,0,1-61-2.563a5.268,5.268,0,0,1-.885-3.027h3.674q0,2.942,3.516,2.942a3.42,3.42,0,0,0,2.039-.531A1.728,1.728,0,0,0-51.929-4.663ZM-42.285,0h-3.54V-13.208h3.54Zm-3.748-16.626a1.737,1.737,0,0,1,.531-1.306,2,2,0,0,1,1.447-.513,2,2,0,0,1,1.44.513,1.727,1.727,0,0,1,.537,1.306,1.732,1.732,0,0,1-.543,1.318,2,2,0,0,1-1.434.513,2,2,0,0,1-1.434-.513A1.732,1.732,0,0,1-46.033-16.626Zm9.961,3.418.11,1.477a4.642,4.642,0,0,1,3.8-1.721,3.523,3.523,0,0,1,3.5,2.014,4.535,4.535,0,0,1,3.967-2.014A3.94,3.94,0,0,1-21.5-12.2a5.751,5.751,0,0,1,1.05,3.766V0h-3.54V-8.423a2.515,2.515,0,0,0-.439-1.642,1.948,1.948,0,0,0-1.55-.519,2.2,2.2,0,0,0-2.2,1.514L-28.162,0h-3.528V-8.411a2.484,2.484,0,0,0-.452-1.66,1.966,1.966,0,0,0-1.538-.513,2.286,2.286,0,0,0-2.173,1.245V0H-39.38V-13.208ZM-9.827-1.343A4.424,4.424,0,0,1-13.44.244,4.172,4.172,0,0,1-16.681-.977a5.211,5.211,0,0,1-1.141-3.577v-8.655h3.528v8.543q0,2.065,1.88,2.065A2.547,2.547,0,0,0-9.949-3.847v-9.361h3.54V0h-3.32ZM-.024,0h-3.54V-18.75h3.54ZM10.535,0a3.918,3.918,0,0,1-.354-1.184A4.269,4.269,0,0,1,6.848.244,4.69,4.69,0,0,1,3.632-.879,3.612,3.612,0,0,1,2.356-3.711,3.733,3.733,0,0,1,3.912-6.934a7.68,7.68,0,0,1,4.5-1.135h1.624v-.757a2.177,2.177,0,0,0-.47-1.465,1.849,1.849,0,0,0-1.483-.549,2.1,2.1,0,0,0-1.4.427,1.451,1.451,0,0,0-.507,1.172H2.649a3.544,3.544,0,0,1,.708-2.124,4.68,4.68,0,0,1,2-1.532,7.3,7.3,0,0,1,2.905-.555,5.764,5.764,0,0,1,3.876,1.227,4.292,4.292,0,0,1,1.434,3.448v5.725A6.314,6.314,0,0,0,14.1-.208V0ZM7.617-2.454A3.038,3.038,0,0,0,9.058-2.8a2.285,2.285,0,0,0,.977-.934V-6.006H8.716q-2.649,0-2.82,1.831l-.012.208a1.412,1.412,0,0,0,.464,1.086A1.8,1.8,0,0,0,7.617-2.454ZM21.777-2.6a2.314,2.314,0,0,0,1.587-.537A1.882,1.882,0,0,0,24-4.565h3.308a4.525,4.525,0,0,1-.732,2.46A4.833,4.833,0,0,1,24.6-.372a6.17,6.17,0,0,1-2.765.616,5.734,5.734,0,0,1-4.468-1.8,7.125,7.125,0,0,1-1.636-4.974v-.232a7.044,7.044,0,0,1,1.624-4.871,5.667,5.667,0,0,1,4.456-1.819,5.555,5.555,0,0,1,3.973,1.41,4.992,4.992,0,0,1,1.52,3.754H24a2.424,2.424,0,0,0-.635-1.675,2.116,2.116,0,0,0-1.611-.644,2.125,2.125,0,0,0-1.862.9,5.208,5.208,0,0,0-.629,2.916v.367a5.274,5.274,0,0,0,.623,2.934A2.151,2.151,0,0,0,21.777-2.6ZM33.044,0H29.5V-13.208h3.54ZM29.3-16.626a1.737,1.737,0,0,1,.531-1.306,2,2,0,0,1,1.447-.513,2,2,0,0,1,1.44.513,1.727,1.727,0,0,1,.537,1.306,1.732,1.732,0,0,1-.543,1.318,2,2,0,0,1-1.434.513,2,2,0,0,1-1.434-.513A1.732,1.732,0,0,1,29.3-16.626Zm6.1,9.9a7.833,7.833,0,0,1,.757-3.5,5.54,5.54,0,0,1,2.179-2.38,6.357,6.357,0,0,1,3.3-.842A6.014,6.014,0,0,1,46-11.816a6.565,6.565,0,0,1,1.886,4.443l.024.9a6.9,6.9,0,0,1-1.7,4.877A5.9,5.9,0,0,1,41.663.244,5.927,5.927,0,0,1,37.1-1.587a7.025,7.025,0,0,1-1.7-4.98Zm3.528.25A4.937,4.937,0,0,0,39.636-3.6a2.336,2.336,0,0,0,2.026,1,2.341,2.341,0,0,0,2-.984,5.4,5.4,0,0,0,.72-3.148,4.888,4.888,0,0,0-.72-2.861,2.341,2.341,0,0,0-2.026-1.015,2.3,2.3,0,0,0-2,1.009A5.493,5.493,0,0,0,38.928-6.476ZM42.334-18.75h3.845L42.8-14.966H39.929Zm11,5.542.11,1.526a4.611,4.611,0,0,1,3.8-1.77,3.832,3.832,0,0,1,3.125,1.233,5.752,5.752,0,0,1,1.05,3.687V0H57.886V-8.447a2.289,2.289,0,0,0-.488-1.63,2.186,2.186,0,0,0-1.624-.507,2.427,2.427,0,0,0-2.234,1.27V0H50.012V-13.208ZM-22.913,24.08A6.289,6.289,0,0,1-25.031,28.6a7.438,7.438,0,0,1-5.035,1.648,6.688,6.688,0,0,1-5.377-2.3A9.435,9.435,0,0,1-37.4,21.626V20.54a10.654,10.654,0,0,1,.9-4.517,6.769,6.769,0,0,1,2.582-3,7.232,7.232,0,0,1,3.9-1.044,7.246,7.246,0,0,1,4.956,1.648,6.759,6.759,0,0,1,2.173,4.626H-26.55a3.712,3.712,0,0,0-.958-2.5,3.548,3.548,0,0,0-2.509-.775,3.112,3.112,0,0,0-2.74,1.312,7.354,7.354,0,0,0-.934,4.071v1.343a7.871,7.871,0,0,0,.873,4.211,3.054,3.054,0,0,0,2.753,1.331,3.615,3.615,0,0,0,2.533-.775,3.5,3.5,0,0,0,.958-2.4Zm5.9,5.92h-3.54V11.25h3.54Zm6.714,0h-3.528V16.792H-10.3ZM-11.34,11.433H-7.5l-3.381,3.784h-2.869Zm7.324,5.359.11,1.526a4.611,4.611,0,0,1,3.8-1.77,3.832,3.832,0,0,1,3.125,1.233,5.752,5.752,0,0,1,1.05,3.687V30H.537V21.553a2.289,2.289,0,0,0-.488-1.63,2.186,2.186,0,0,0-1.624-.507,2.427,2.427,0,0,0-2.234,1.27V30H-7.336V16.792ZM10.461,30H6.921V16.792h3.54ZM6.714,13.374a1.737,1.737,0,0,1,.531-1.306,2,2,0,0,1,1.447-.513,2,2,0,0,1,1.44.513,1.864,1.864,0,0,1-.006,2.625,2,2,0,0,1-1.434.513,2,2,0,0,1-1.434-.513A1.732,1.732,0,0,1,6.714,13.374ZM18.86,27.4a2.314,2.314,0,0,0,1.587-.537,1.882,1.882,0,0,0,.635-1.428H24.39a4.525,4.525,0,0,1-.732,2.46,4.833,4.833,0,0,1-1.971,1.733,6.17,6.17,0,0,1-2.765.616,5.734,5.734,0,0,1-4.468-1.8,7.125,7.125,0,0,1-1.636-4.974v-.232a7.044,7.044,0,0,1,1.624-4.871A5.667,5.667,0,0,1,18.9,16.548a5.555,5.555,0,0,1,3.973,1.41,4.992,4.992,0,0,1,1.52,3.754H21.082a2.424,2.424,0,0,0-.635-1.675,2.116,2.116,0,0,0-1.611-.644,2.125,2.125,0,0,0-1.862.9,5.208,5.208,0,0,0-.629,2.916v.367a5.274,5.274,0,0,0,.623,2.934A2.151,2.151,0,0,0,18.86,27.4Zm15.2,2.6a3.918,3.918,0,0,1-.354-1.184,4.269,4.269,0,0,1-3.333,1.428,4.69,4.69,0,0,1-3.217-1.123,3.612,3.612,0,0,1-1.276-2.832,3.733,3.733,0,0,1,1.556-3.223,7.68,7.68,0,0,1,4.5-1.135h1.624v-.757a2.177,2.177,0,0,0-.47-1.465A1.849,1.849,0,0,0,31.6,19.16a2.1,2.1,0,0,0-1.4.427,1.451,1.451,0,0,0-.507,1.172H26.172a3.544,3.544,0,0,1,.708-2.124,4.68,4.68,0,0,1,2-1.532,7.3,7.3,0,0,1,2.905-.555,5.764,5.764,0,0,1,3.876,1.227A4.292,4.292,0,0,1,37.1,21.223v5.725a6.314,6.314,0,0,0,.525,2.844V30ZM31.14,27.546a3.038,3.038,0,0,0,1.44-.348,2.285,2.285,0,0,0,.977-.934V23.994H32.239q-2.649,0-2.82,1.831l-.012.208a1.412,1.412,0,0,0,.464,1.086A1.8,1.8,0,0,0,31.14,27.546Z" transform="translate(1104.586 9124.762)"/>
    <path id="Trazado_200286" data-name="Trazado 200286" d="M222.749,289.416,203.7,308.465,184.65,289.416" transform="translate(292.221 8510.312)" fill="none" stroke="#d100c9" stroke-linecap="round" stroke-linejoin="round" stroke-width="2"/>
    <path id="Trazado_231820" data-name="Trazado 231820" d="M0,44.209V0" transform="translate(495.921 8998.605)" fill="none" stroke="#d100c9" stroke-linecap="round" stroke-width="2"/>
    <path id="Trazado_200287" data-name="Trazado 200287" d="M222.749,429.978,203.7,449.027,184.65,429.978" transform="translate(292.221 8593.787)" fill="none" stroke="#d100c9" stroke-linecap="round" stroke-linejoin="round" stroke-width="2"/>
    <g id="Grupo_137336" data-name="Grupo 137336" transform="translate(626.174 9113.68)">
      <line id="Lnea_516" data-name="Lnea 516" x1="44.209" transform="translate(0 19.049)" fill="none" stroke="#d100c9" stroke-linecap="round" stroke-linejoin="round" stroke-width="2"/>
      <path id="Trazado_200288" data-name="Trazado 200288" d="M294.109,486.391l19.049,19.049L294.109,524.49" transform="translate(-268.949 -486.391)" fill="none" stroke="#d100c9" stroke-linecap="round" stroke-linejoin="round" stroke-width="2"/>
    </g>
    <g id="Grupo_137337" data-name="Grupo 137337" transform="translate(930.883 8665.641)">
      <line id="Lnea_517" data-name="Lnea 517" x1="44.209" transform="translate(0 19.049)" fill="none" stroke="#d100c9" stroke-linecap="round" stroke-linejoin="round" stroke-width="2"/>
      <path id="Trazado_200289" data-name="Trazado 200289" d="M485.284,205.289l19.049,19.049-19.049,19.049" transform="translate(-460.125 -205.289)" fill="none" stroke="#d100c9" stroke-linecap="round" stroke-linejoin="round" stroke-width="2"/>
    </g>
    <path id="Trazado_231821" data-name="Trazado 231821" d="M0,44.209V0" transform="translate(1105.345 8774.567)" fill="none" stroke="#d100c9" stroke-linecap="round" stroke-width="2"/>
    <path id="Trazado_200290" data-name="Trazado 200290" d="M605.1,289.416l-19.049,19.049-19.049-19.049" transform="translate(519.29 8510.312)" fill="none" stroke="#d100c9" stroke-linecap="round" stroke-linejoin="round" stroke-width="2"/>
    <path id="Trazado_231822" data-name="Trazado 231822" d="M0,44.209V0" transform="translate(1105.345 8998.605)" fill="none" stroke="#d100c9" stroke-linecap="round" stroke-width="2"/>
    <path id="Trazado_200291" data-name="Trazado 200291" d="M605.1,429.978l-19.049,19.049-19.049-19.049" transform="translate(519.29 8593.787)" fill="none" stroke="#d100c9" stroke-linecap="round" stroke-linejoin="round" stroke-width="2"/>
    <path id="Trazado_231823" data-name="Trazado 231823" d="M0,0V44.209" transform="translate(800.633 8998.605)" fill="none" stroke="#d100c9" stroke-linecap="round" stroke-width="2"/>
    <path id="Trazado_200292" data-name="Trazado 200292" d="M375.828,433.242l19.049-19.049,19.049,19.049" transform="translate(405.756 8584.413)" fill="none" stroke="#d100c9" stroke-linecap="round" stroke-linejoin="round" stroke-width="2"/>
    <path id="Trazado_231824" data-name="Trazado 231824" d="M0,0V44.209" transform="translate(800.633 8774.567)" fill="none" stroke="#d100c9" stroke-linecap="round" stroke-width="2"/>
    <path id="Trazado_200293" data-name="Trazado 200293" d="M375.828,292.68l19.049-19.049,19.049,19.049" transform="translate(405.756 8500.938)" fill="none" stroke="#d100c9" stroke-linecap="round" stroke-linejoin="round" stroke-width="2"/>
    <path id="Trazado_200294" data-name="Trazado 200294" d="M446.3,217.241" transform="translate(447.605 8467.449)" fill="none" stroke="#d100c9" stroke-miterlimit="10" stroke-width="2"/>
  </g>
</svg>
