<svg xmlns="http://www.w3.org/2000/svg" width="234" height="178.195" viewBox="0 0 234 178.195">
  <g id="Grupo_238397" data-name="Grupo 238397" transform="translate(-245.206 -188.621)">
    <g id="Grupo_238397-2" data-name="Grupo 238397" transform="translate(275.492 209.563)">
      <path id="Trazado_230360" data-name="Trazado 230360" d="M446.617,253.81h-.945V220.944a4.262,4.262,0,0,0-4.257-4.257H392.224v-.945h49.191a5.208,5.208,0,0,1,5.2,5.2Z" transform="translate(-308.985 -215.742)" fill="#2c2f45"/>
      <path id="Trazado_230361" data-name="Trazado 230361" d="M377.4,381.04H328.21a5.209,5.209,0,0,1-5.2-5.2V342.972h.945v32.865a4.262,4.262,0,0,0,4.257,4.257H377.4Z" transform="translate(-293.217 -244.728)" fill="#2c2f45"/>
      <rect id="Rectángulo_313918" data-name="Rectángulo 313918" width="0.946" height="42.738" transform="translate(83.239 10.748)" fill="#2c2f45"/>
      <rect id="Rectángulo_313919" data-name="Rectángulo 313919" width="0.946" height="42.738" transform="translate(83.239 82.826)" fill="#2c2f45"/>
      <path id="Trazado_230362" data-name="Trazado 230362" d="M302.545,325.885H297.98a5.209,5.209,0,0,1-5.2-5.2v-21.1a4.262,4.262,0,0,0-4.257-4.257h-4.093v-.946h4.093a4.262,4.262,0,0,0,4.257-4.257v-21.1a5.209,5.209,0,0,1,5.2-5.2h4.565v.946H297.98a4.262,4.262,0,0,0-4.257,4.257v21.1a5.211,5.211,0,0,1-3.036,4.73,5.21,5.21,0,0,1,3.036,4.73v21.1a4.262,4.262,0,0,0,4.257,4.257h4.565Z" transform="translate(-284.427 -226.694)" fill="#2c2f45"/>
      <path id="Trazado_230363" data-name="Trazado 230363" d="M344.625,325.885h-5.276v-.946h5.276a4.262,4.262,0,0,0,4.257-4.257v-21.1a5.21,5.21,0,0,1,3.035-4.73,5.211,5.211,0,0,1-3.035-4.73v-21.1a4.262,4.262,0,0,0-4.257-4.257h-5.276v-.946h5.276a5.208,5.208,0,0,1,5.2,5.2v21.1a4.262,4.262,0,0,0,4.258,4.257h11.424v.946H354.084a4.262,4.262,0,0,0-4.258,4.257v21.1A5.208,5.208,0,0,1,344.625,325.885Z" transform="translate(-296.939 -226.694)" fill="#2c2f45"/>
      <path id="Trazado_230364" data-name="Trazado 230364" d="M438.605,325.885H433.33a5.209,5.209,0,0,1-5.2-5.2v-21.1a4.262,4.262,0,0,0-4.257-4.257H412.447v-.946h11.424a4.262,4.262,0,0,0,4.257-4.257v-21.1a5.209,5.209,0,0,1,5.2-5.2h5.276v.946H433.33a4.261,4.261,0,0,0-4.256,4.257v21.1a5.211,5.211,0,0,1-3.036,4.73,5.21,5.21,0,0,1,3.036,4.73v21.1a4.261,4.261,0,0,0,4.256,4.257h5.276Z" transform="translate(-313.593 -226.694)" fill="#2c2f45"/>
      <path id="Trazado_230365" data-name="Trazado 230365" d="M482.349,325.885h-4.567v-.946h4.567a4.261,4.261,0,0,0,4.256-4.257v-21.1a5.21,5.21,0,0,1,3.036-4.73,5.211,5.211,0,0,1-3.036-4.73v-21.1a4.261,4.261,0,0,0-4.256-4.257h-4.567v-.946h4.567a5.209,5.209,0,0,1,5.2,5.2v21.1a4.262,4.262,0,0,0,4.257,4.257H495.9v.946h-4.093a4.262,4.262,0,0,0-4.257,4.257v21.1A5.209,5.209,0,0,1,482.349,325.885Z" transform="translate(-328.477 -226.694)" fill="#2c2f45"/>
    </g>
    <g id="Grupo_238398" data-name="Grupo 238398" transform="translate(245.206 188.621)">
      <circle id="Elipse_5043" data-name="Elipse 5043" cx="15.143" cy="15.143" r="15.143" transform="translate(191.703 92.466) rotate(-54.047)" fill="#3000c4"/>
      <rect id="Rectángulo_313920" data-name="Rectángulo 313920" width="25.238" height="25.238" rx="3.063" transform="translate(47.931 45.918)" fill="#4545ff"/>
      <rect id="Rectángulo_313921" data-name="Rectángulo 313921" width="25.238" height="25.238" rx="3.063" transform="translate(47.931 107.041)" fill="#4545ff"/>
      <rect id="Rectángulo_313922" data-name="Rectángulo 313922" width="25.238" height="25.238" rx="3.063" transform="translate(154.826 45.918)" fill="#00c5ff"/>
      <rect id="Rectángulo_313923" data-name="Rectángulo 313923" width="25.238" height="25.238" rx="3.063" transform="translate(154.826 107.041)" fill="#00c5ff"/>
      <circle id="Elipse_5044" data-name="Elipse 5044" cx="15.143" cy="15.143" r="15.143" transform="translate(0 73.956)" fill="#27279d"/>
      <rect id="Rectángulo_313924" data-name="Rectángulo 313924" width="30.285" height="30.285" rx="3.675" transform="translate(98.854 73.956)" fill="#f400ce"/>
      <rect id="Rectángulo_313925" data-name="Rectángulo 313925" width="30.285" height="30.285" rx="3.675" transform="translate(92.582 21.415) rotate(-45)" fill="#f400ce"/>
      <rect id="Rectángulo_313926" data-name="Rectángulo 313926" width="30.285" height="30.285" rx="3.675" transform="translate(92.582 156.782) rotate(-45)" fill="#f400ce"/>
    </g>
  </g>
</svg>
