<svg xmlns="http://www.w3.org/2000/svg" width="505" height="280" viewBox="0 0 505 280">
  <g id="Grupo_239785" data-name="Grupo 239785" transform="translate(-810 -4671)">
    <rect id="Rectángulo_32600" data-name="Rectángulo 32600" width="505" height="280" transform="translate(810 4671)" fill="#fff"/>
    <g id="Grupo_239565" data-name="Grupo 239565" transform="translate(234 2264)">
      <g id="Grupo_239564" data-name="Grupo 239564" transform="translate(432.827 2220.094)">
        <path id="Trazado_231331" data-name="Trazado 231331" d="M351.082,369.6a3.228,3.228,0,0,1-2.79-1.611l-22.689-39.3a3.236,3.236,0,0,1,0-3.224l22.688-39.3a3.231,3.231,0,0,1,2.791-1.611h89.836a3.228,3.228,0,0,1,2.79,1.611l22.69,39.3a3.236,3.236,0,0,1,0,3.224l-22.687,39.3a3.23,3.23,0,0,1-2.791,1.612Z" fill="#bebeff" stroke="#fff" stroke-miterlimit="10" stroke-width="3"/>
        <text id="Suspender_la_incredulidad_de_los_participantes" data-name="Suspender la incredulidad
de los participantes" transform="translate(350.637 309.275)" fill="#1a0272" font-size="9" font-family="Roboto-Bold, Roboto" font-weight="700" style="isolation: isolate"><tspan x="18.943" y="9">Suspender la </tspan><tspan x="20.305" y="19.8">incredulidad</tspan><tspan x="5.419" y="30.6">de los participantes</tspan></text>
        <path id="Trazado_231332" data-name="Trazado 231332" d="M351.082,279.945a3.229,3.229,0,0,1-2.79-1.61l-22.689-39.3a3.236,3.236,0,0,1,0-3.224l22.688-39.295a3.232,3.232,0,0,1,2.791-1.612h89.836a3.23,3.23,0,0,1,2.79,1.611l22.69,39.3a3.236,3.236,0,0,1,0,3.224l-22.687,39.3a3.231,3.231,0,0,1-2.791,1.611Z" fill="#b6a6eb" stroke="#fff" stroke-miterlimit="10" stroke-width="3"/>
        <path id="Trazado_231333" data-name="Trazado 231333" d="M351.082,459.253a3.228,3.228,0,0,1-2.79-1.611l-22.689-39.3a3.236,3.236,0,0,1,0-3.224l22.688-39.3a3.232,3.232,0,0,1,2.791-1.612h89.836a3.23,3.23,0,0,1,2.79,1.611l22.69,39.3a3.236,3.236,0,0,1,0,3.224l-22.687,39.3a3.23,3.23,0,0,1-2.791,1.612Z" fill="#a6ebff" stroke="#fff" stroke-miterlimit="10" stroke-width="3"/>
        <text id="Crear_un_buen_clima_de_aprendizaje" data-name="Crear un buen clima de aprendizaje" transform="translate(354.893 222.839)" fill="#1a0272" font-size="9" font-family="Roboto-Bold, Roboto" font-weight="700" style="isolation: isolate"><tspan x="0.589" y="9">Crear un buen clima </tspan><tspan x="11.446" y="19.8">de aprendizaje</tspan></text>
        <text id="Orientar_al_estudiante_para_el_logro_de_las_metas_de_la_simulación" data-name="Orientar al estudiante para el logro de las metas de la simulación" transform="translate(348.432 399.506)" fill="#1a0272" font-size="9" font-family="Roboto-Bold, Roboto" font-weight="700" style="isolation: isolate"><tspan x="3.853" y="9">Orientar al estudiante </tspan><tspan x="9.225" y="19.8">para el logro de las </tspan><tspan x="0.926" y="30.6">metas de la simulación</tspan></text>
      </g>
    </g>
  </g>
</svg>
