<svg xmlns="http://www.w3.org/2000/svg" width="1066.286" height="501.444" viewBox="0 0 1066.286 501.444">
  <g id="Grupo_239785" data-name="Grupo 239785" transform="translate(-267 -3093)">
    <path id="Trazado_231287" data-name="Trazado 231287" d="M542.335,516.7a4.655,4.655,0,0,1-4.022-2.322L505.6,457.71a4.662,4.662,0,0,1,0-4.649L538.311,396.4a4.658,4.658,0,0,1,4.024-2.324H692.9a4.655,4.655,0,0,1,4.022,2.322l32.717,56.666a4.658,4.658,0,0,1,0,4.648l-32.714,56.665A4.658,4.658,0,0,1,692.9,516.7Z" transform="translate(603.025 3077.746)" fill="#a6ebff"/>
    <path id="Trazado_231288" data-name="Trazado 231288" d="M366.9,516.7a4.655,4.655,0,0,1-4.022-2.322L330.165,457.71a4.666,4.666,0,0,1,0-4.649L362.881,396.4a4.658,4.658,0,0,1,4.024-2.324H517.47a4.655,4.655,0,0,1,4.022,2.322l32.717,56.666a4.654,4.654,0,0,1,0,4.648l-32.714,56.665a4.658,4.658,0,0,1-4.024,2.324Z" transform="translate(357.812 3077.746)" fill="#fba6ee"/>
    <path id="Trazado_231764" data-name="Trazado 231764" d="M-57.927-3.369h-5.907L-64.957,0H-68.54l6.087-16.352h3.122L-53.21,0h-3.583Zm-5-2.729h4.088l-2.055-6.121ZM-48.471,0h-3.257V-17.25h3.257Zm6.559-15.139v2.987h2.078v2.381h-2.078v6.064a1.448,1.448,0,0,0,.258.966,1.3,1.3,0,0,0,.988.292,5.176,5.176,0,0,0,.955-.079V-.067a6.682,6.682,0,0,1-1.965.292q-3.414,0-3.481-3.448V-9.771h-1.774v-2.381h1.774v-2.987ZM-30.985,0a3.6,3.6,0,0,1-.326-1.089A3.927,3.927,0,0,1-34.376.225,4.314,4.314,0,0,1-37.336-.809a3.323,3.323,0,0,1-1.174-2.605,3.434,3.434,0,0,1,1.432-2.965,7.065,7.065,0,0,1,4.138-1.044h1.494v-.7a2,2,0,0,0-.432-1.348,1.7,1.7,0,0,0-1.365-.505,1.934,1.934,0,0,0-1.286.393A1.335,1.335,0,0,0-34.994-8.5H-38.24a3.26,3.26,0,0,1,.651-1.954,4.306,4.306,0,0,1,1.842-1.409,6.712,6.712,0,0,1,2.673-.511,5.3,5.3,0,0,1,3.566,1.129,3.948,3.948,0,0,1,1.32,3.173v5.267a5.809,5.809,0,0,0,.483,2.617V0Zm-2.684-2.257a2.8,2.8,0,0,0,1.325-.32,2.1,2.1,0,0,0,.9-.859V-5.525h-1.213q-2.437,0-2.594,1.685l-.011.191a1.3,1.3,0,0,0,.427,1A1.658,1.658,0,0,0-33.669-2.257ZM-19.182,0V-9.771H-20.99v-2.381h1.808v-.562a4.557,4.557,0,0,1,1.409-3.532,5.671,5.671,0,0,1,3.914-1.241,12.982,12.982,0,0,1,3.684.663l-.472,2.684a14.372,14.372,0,0,0-1.707-.421,8.387,8.387,0,0,0-1.3-.1q-2.269,0-2.269,2.01v.494h2.392v2.381h-2.392V0ZM-8.659,0h-3.257V-12.151h3.257ZM-6.48-6.166a7.323,7.323,0,0,1,1.275-4.526,4.136,4.136,0,0,1,3.487-1.685,3.722,3.722,0,0,1,2.931,1.325v-6.2H4.47V0H1.539L1.381-1.292A3.819,3.819,0,0,1-1.741.225a4.125,4.125,0,0,1-3.442-1.69A7.559,7.559,0,0,1-6.48-6.166Zm3.246.242a4.8,4.8,0,0,0,.6,2.621A1.939,1.939,0,0,0-.91-2.392,2.172,2.172,0,0,0,1.213-3.663v-4.8a2.141,2.141,0,0,0-2.1-1.271Q-3.234-9.737-3.234-5.924ZM12.578.225a5.965,5.965,0,0,1-4.352-1.64A5.828,5.828,0,0,1,6.547-5.784V-6.1a7.341,7.341,0,0,1,.708-3.274,5.192,5.192,0,0,1,2-2.224,5.627,5.627,0,0,1,2.959-.781A5.043,5.043,0,0,1,16.144-10.8a6.389,6.389,0,0,1,1.432,4.458V-5.02H9.838a3.015,3.015,0,0,0,.949,1.909,2.869,2.869,0,0,0,2,.719,3.5,3.5,0,0,0,2.931-1.359l1.595,1.786A4.872,4.872,0,0,1,15.341-.354,6.485,6.485,0,0,1,12.578.225Zm-.371-9.984a2.028,2.028,0,0,0-1.567.654,3.388,3.388,0,0,0-.769,1.873h4.515v-.26A2.416,2.416,0,0,0,13.8-9.167,2.092,2.092,0,0,0,12.208-9.759ZM22.843,0H19.586V-17.25h3.257Zm6.1,0H25.684V-12.151h3.257ZM25.493-15.3a1.6,1.6,0,0,1,.489-1.2,1.835,1.835,0,0,1,1.331-.472,1.839,1.839,0,0,1,1.325.472,1.589,1.589,0,0,1,.494,1.2,1.593,1.593,0,0,1-.5,1.213,1.844,1.844,0,0,1-1.32.472,1.844,1.844,0,0,1-1.32-.472A1.593,1.593,0,0,1,25.493-15.3Zm5.615,9.13a7.323,7.323,0,0,1,1.275-4.526,4.136,4.136,0,0,1,3.487-1.685A3.722,3.722,0,0,1,38.8-11.051v-6.2h3.257V0H39.127L38.97-1.292A3.819,3.819,0,0,1,35.848.225a4.125,4.125,0,0,1-3.442-1.69A7.559,7.559,0,0,1,31.108-6.166Zm3.246.242a4.8,4.8,0,0,0,.6,2.621,1.939,1.939,0,0,0,1.729.911A2.172,2.172,0,0,0,38.8-3.663v-4.8a2.141,2.141,0,0,0-2.1-1.271Q34.354-9.737,34.354-5.924ZM51.615,0a3.6,3.6,0,0,1-.326-1.089A3.927,3.927,0,0,1,48.224.225,4.314,4.314,0,0,1,45.264-.809a3.323,3.323,0,0,1-1.174-2.605,3.434,3.434,0,0,1,1.432-2.965,7.065,7.065,0,0,1,4.138-1.044h1.494v-.7a2,2,0,0,0-.432-1.348,1.7,1.7,0,0,0-1.365-.505,1.934,1.934,0,0,0-1.286.393A1.335,1.335,0,0,0,47.606-8.5H44.36a3.26,3.26,0,0,1,.651-1.954,4.306,4.306,0,0,1,1.842-1.409,6.712,6.712,0,0,1,2.673-.511,5.3,5.3,0,0,1,3.566,1.129,3.948,3.948,0,0,1,1.32,3.173v5.267a5.809,5.809,0,0,0,.483,2.617V0ZM48.931-2.257a2.8,2.8,0,0,0,1.325-.32,2.1,2.1,0,0,0,.9-.859V-5.525H49.942q-2.437,0-2.594,1.685l-.011.191a1.3,1.3,0,0,0,.427,1A1.658,1.658,0,0,0,48.931-2.257ZM56.4-6.166a7.323,7.323,0,0,1,1.275-4.526,4.136,4.136,0,0,1,3.487-1.685,3.722,3.722,0,0,1,2.931,1.325v-6.2h3.257V0H64.418l-.157-1.292A3.819,3.819,0,0,1,61.139.225,4.125,4.125,0,0,1,57.7-1.466,7.559,7.559,0,0,1,56.4-6.166Zm3.246.242a4.8,4.8,0,0,0,.6,2.621,1.939,1.939,0,0,0,1.729.911,2.172,2.172,0,0,0,2.123-1.271v-4.8a2.141,2.141,0,0,0-2.1-1.271Q59.645-9.737,59.645-5.924Z" transform="translate(1220 3538.642)"/>
    <path id="Trazado_231762" data-name="Trazado 231762" d="M-86.508-16.352l4.2,11.859,4.178-11.859h4.425V0h-3.38V-4.47l.337-7.715L-81.163,0h-2.313l-4.4-12.174.337,7.7V0h-3.369V-16.352ZM-65.384.225a5.965,5.965,0,0,1-4.352-1.64,5.828,5.828,0,0,1-1.679-4.369V-6.1a7.341,7.341,0,0,1,.708-3.274,5.192,5.192,0,0,1,2-2.224,5.627,5.627,0,0,1,2.959-.781A5.043,5.043,0,0,1-61.818-10.8a6.389,6.389,0,0,1,1.432,4.458V-5.02h-7.738a3.015,3.015,0,0,0,.949,1.909,2.869,2.869,0,0,0,2,.719,3.5,3.5,0,0,0,2.931-1.359l1.595,1.786A4.872,4.872,0,0,1-62.621-.354,6.485,6.485,0,0,1-65.384.225Zm-.371-9.984a2.028,2.028,0,0,0-1.567.654,3.388,3.388,0,0,0-.769,1.873h4.515v-.26a2.416,2.416,0,0,0-.584-1.675A2.092,2.092,0,0,0-65.754-9.759Zm6.7,3.594a7.323,7.323,0,0,1,1.275-4.526,4.136,4.136,0,0,1,3.487-1.685,3.722,3.722,0,0,1,2.931,1.325v-6.2H-48.1V0h-2.931l-.157-1.292A3.819,3.819,0,0,1-54.311.225a4.125,4.125,0,0,1-3.442-1.69A7.559,7.559,0,0,1-59.05-6.166Zm3.246.242a4.8,4.8,0,0,0,.6,2.621,1.939,1.939,0,0,0,1.729.911,2.172,2.172,0,0,0,2.123-1.271v-4.8a2.141,2.141,0,0,0-2.1-1.271Q-55.8-9.737-55.8-5.924ZM-42.159,0h-3.257V-12.151h3.257Zm-3.448-15.3a1.6,1.6,0,0,1,.489-1.2,1.835,1.835,0,0,1,1.331-.472,1.839,1.839,0,0,1,1.325.472,1.589,1.589,0,0,1,.494,1.2,1.593,1.593,0,0,1-.5,1.213,1.844,1.844,0,0,1-1.32.472,1.844,1.844,0,0,1-1.32-.472A1.593,1.593,0,0,1-45.607-15.3ZM-32.445,0a3.6,3.6,0,0,1-.326-1.089A3.927,3.927,0,0,1-35.836.225,4.314,4.314,0,0,1-38.8-.809a3.323,3.323,0,0,1-1.174-2.605,3.434,3.434,0,0,1,1.432-2.965A7.065,7.065,0,0,1-34.4-7.423h1.494v-.7a2,2,0,0,0-.432-1.348A1.7,1.7,0,0,0-34.7-9.973a1.934,1.934,0,0,0-1.286.393A1.335,1.335,0,0,0-36.454-8.5H-39.7a3.26,3.26,0,0,1,.651-1.954,4.306,4.306,0,0,1,1.842-1.409,6.712,6.712,0,0,1,2.673-.511,5.3,5.3,0,0,1,3.566,1.129,3.948,3.948,0,0,1,1.32,3.173v5.267a5.809,5.809,0,0,0,.483,2.617V0Zm-2.684-2.257a2.8,2.8,0,0,0,1.325-.32,2.1,2.1,0,0,0,.9-.859V-5.525h-1.213q-2.437,0-2.594,1.685l-.011.191a1.3,1.3,0,0,0,.427,1A1.658,1.658,0,0,0-35.129-2.257Zm10.961-9.894.1,1.4a4.242,4.242,0,0,1,3.493-1.628A3.526,3.526,0,0,1-17.7-11.242a5.292,5.292,0,0,1,.966,3.392V0h-3.246V-7.771a2.106,2.106,0,0,0-.449-1.5,2.011,2.011,0,0,0-1.494-.466,2.233,2.233,0,0,0-2.055,1.168V0h-3.246V-12.151ZM-7.232,0a3.6,3.6,0,0,1-.326-1.089A3.927,3.927,0,0,1-10.624.225,4.314,4.314,0,0,1-13.583-.809a3.323,3.323,0,0,1-1.174-2.605,3.434,3.434,0,0,1,1.432-2.965A7.065,7.065,0,0,1-9.187-7.423h1.494v-.7a2,2,0,0,0-.432-1.348A1.7,1.7,0,0,0-9.49-9.973a1.934,1.934,0,0,0-1.286.393A1.335,1.335,0,0,0-11.242-8.5h-3.246a3.26,3.26,0,0,1,.651-1.954,4.306,4.306,0,0,1,1.842-1.409,6.712,6.712,0,0,1,2.673-.511,5.3,5.3,0,0,1,3.566,1.129,3.948,3.948,0,0,1,1.32,3.173v5.267A5.809,5.809,0,0,0-3.953-.191V0ZM-9.917-2.257a2.8,2.8,0,0,0,1.325-.32,2.1,2.1,0,0,0,.9-.859V-5.525H-8.906q-2.437,0-2.594,1.685l-.011.191a1.3,1.3,0,0,0,.427,1A1.658,1.658,0,0,0-9.917-2.257ZM4.571,0V-9.771H2.763v-2.381H4.571v-.562A4.557,4.557,0,0,1,5.98-16.245a5.671,5.671,0,0,1,3.914-1.241,12.982,12.982,0,0,1,3.684.663l-.472,2.684A14.372,14.372,0,0,0,11.4-14.56a8.387,8.387,0,0,0-1.3-.1q-2.269,0-2.269,2.01v.494H10.22v2.381H7.828V0ZM15.094,0H11.837V-12.151h3.257Zm2.179-6.166a7.323,7.323,0,0,1,1.275-4.526,4.136,4.136,0,0,1,3.487-1.685,3.722,3.722,0,0,1,2.931,1.325v-6.2h3.257V0H25.291l-.157-1.292A3.819,3.819,0,0,1,22.012.225a4.125,4.125,0,0,1-3.442-1.69A7.559,7.559,0,0,1,17.272-6.166Zm3.246.242a4.8,4.8,0,0,0,.6,2.621,1.939,1.939,0,0,0,1.729.911,2.172,2.172,0,0,0,2.123-1.271v-4.8a2.141,2.141,0,0,0-2.1-1.271Q20.518-9.737,20.518-5.924ZM36.331.225a5.965,5.965,0,0,1-4.352-1.64A5.828,5.828,0,0,1,30.3-5.784V-6.1a7.341,7.341,0,0,1,.708-3.274,5.192,5.192,0,0,1,2-2.224,5.627,5.627,0,0,1,2.959-.781A5.043,5.043,0,0,1,39.9-10.8a6.389,6.389,0,0,1,1.432,4.458V-5.02H33.59a3.015,3.015,0,0,0,.949,1.909,2.869,2.869,0,0,0,2,.719,3.5,3.5,0,0,0,2.931-1.359L41.07-1.965A4.872,4.872,0,0,1,39.093-.354,6.485,6.485,0,0,1,36.331.225ZM35.96-9.759a2.028,2.028,0,0,0-1.567.654,3.388,3.388,0,0,0-.769,1.873h4.515v-.26a2.416,2.416,0,0,0-.584-1.675A2.092,2.092,0,0,0,35.96-9.759ZM46.6,0H43.338V-17.25H46.6Zm6.1,0H49.437V-12.151h3.257ZM49.246-15.3a1.6,1.6,0,0,1,.489-1.2,1.835,1.835,0,0,1,1.331-.472,1.839,1.839,0,0,1,1.325.472,1.589,1.589,0,0,1,.494,1.2,1.593,1.593,0,0,1-.5,1.213,1.844,1.844,0,0,1-1.32.472,1.844,1.844,0,0,1-1.32-.472A1.593,1.593,0,0,1,49.246-15.3Zm5.615,9.13a7.323,7.323,0,0,1,1.275-4.526,4.136,4.136,0,0,1,3.487-1.685,3.722,3.722,0,0,1,2.931,1.325v-6.2h3.257V0H62.879l-.157-1.292A3.819,3.819,0,0,1,59.6.225a4.125,4.125,0,0,1-3.442-1.69A7.559,7.559,0,0,1,54.861-6.166Zm3.246.242A4.8,4.8,0,0,0,58.7-3.3a1.939,1.939,0,0,0,1.729.911,2.172,2.172,0,0,0,2.123-1.271v-4.8a2.141,2.141,0,0,0-2.1-1.271Q58.106-9.737,58.106-5.924ZM75.368,0a3.6,3.6,0,0,1-.326-1.089A3.927,3.927,0,0,1,71.976.225,4.314,4.314,0,0,1,69.017-.809a3.323,3.323,0,0,1-1.174-2.605,3.434,3.434,0,0,1,1.432-2.965,7.065,7.065,0,0,1,4.138-1.044h1.494v-.7a2,2,0,0,0-.432-1.348,1.7,1.7,0,0,0-1.365-.505,1.934,1.934,0,0,0-1.286.393A1.335,1.335,0,0,0,71.358-8.5H68.113a3.26,3.26,0,0,1,.651-1.954,4.306,4.306,0,0,1,1.842-1.409,6.712,6.712,0,0,1,2.673-.511,5.3,5.3,0,0,1,3.566,1.129,3.948,3.948,0,0,1,1.32,3.173v5.267a5.809,5.809,0,0,0,.483,2.617V0ZM72.684-2.257a2.8,2.8,0,0,0,1.325-.32,2.1,2.1,0,0,0,.9-.859V-5.525H73.694q-2.437,0-2.594,1.685l-.011.191a1.3,1.3,0,0,0,.427,1A1.658,1.658,0,0,0,72.684-2.257Zm7.468-3.908a7.323,7.323,0,0,1,1.275-4.526,4.136,4.136,0,0,1,3.487-1.685,3.722,3.722,0,0,1,2.931,1.325v-6.2H91.1V0H88.17l-.157-1.292A3.819,3.819,0,0,1,84.891.225a4.125,4.125,0,0,1-3.442-1.69A7.559,7.559,0,0,1,80.152-6.166Zm3.246.242a4.8,4.8,0,0,0,.6,2.621,1.939,1.939,0,0,0,1.729.911,2.172,2.172,0,0,0,2.123-1.271v-4.8a2.141,2.141,0,0,0-2.1-1.271Q83.4-9.737,83.4-5.924Z" transform="translate(797.079 3538.641)"/>
    <path id="Trazado_231761" data-name="Trazado 231761" d="M0,79.6V0" transform="translate(800 3385.466)" fill="none" stroke="#d100c9" stroke-linecap="round" stroke-width="2"/>
    <path id="Trazado_231289" data-name="Trazado 231289" d="M411.96,383.414l-11.319,11.319-11.319-11.319" transform="translate(399.358 3070.336)" fill="none" stroke="#d100c9" stroke-linecap="round" stroke-linejoin="round" stroke-width="2"/>
    <path id="Trazado_231765" data-name="Trazado 231765" d="M0,241.244V0" transform="translate(1220.5 3223.824)" fill="none" stroke="#d100c9" stroke-linecap="round" stroke-width="2"/>
    <path id="Trazado_231291" data-name="Trazado 231291" d="M587.39,383.414l-11.319,11.319-11.319-11.319" transform="translate(643.748 3070.336)" fill="none" stroke="#d100c9" stroke-linecap="round" stroke-linejoin="round" stroke-width="2"/>
    <path id="Trazado_231293" data-name="Trazado 231293" d="M0,0H860" transform="translate(370.5 3223.821)" fill="none" stroke="#d100c9" stroke-linecap="round" stroke-width="5" opacity="0.3"/>
    <path id="Trazado_231292" data-name="Trazado 231292" d="M515.894,461.516H395.382l-85.2-85.212V255.791l85.212-85.207H515.905L601.112,255.8l-.005,120.5Z" transform="translate(344.354 2922.416)" fill="#3720bc"/>
    <path id="Trazado_231760" data-name="Trazado 231760" d="M-62.4,0h-4.1l-7.984-13.1V0h-4.1V-19.906h4.1l8,13.125V-19.906H-62.4Zm7.492,0h-3.965V-14.793h3.965Zm-4.2-18.621a1.946,1.946,0,0,1,.595-1.463,2.234,2.234,0,0,1,1.62-.574,2.239,2.239,0,0,1,1.613.574,1.935,1.935,0,0,1,.6,1.463,1.94,1.94,0,0,1-.608,1.477,2.245,2.245,0,0,1-1.606.574,2.245,2.245,0,0,1-1.606-.574A1.94,1.94,0,0,1-59.1-18.621ZM-46.115-4.826l2.748-9.967h4.129L-44.229,0H-48l-4.99-14.793h4.129Zm15.422,5.1a7.262,7.262,0,0,1-5.3-2,7.1,7.1,0,0,1-2.044-5.318v-.383a8.936,8.936,0,0,1,.861-3.985,6.321,6.321,0,0,1,2.44-2.707,6.85,6.85,0,0,1,3.6-.95,6.139,6.139,0,0,1,4.778,1.914,7.778,7.778,0,0,1,1.743,5.428v1.613h-9.42a3.671,3.671,0,0,0,1.155,2.324,3.492,3.492,0,0,0,2.44.875,4.265,4.265,0,0,0,3.568-1.654l1.941,2.174A5.931,5.931,0,0,1-27.33-.431,7.9,7.9,0,0,1-30.693.273Zm-.451-12.154a2.469,2.469,0,0,0-1.907.8,4.124,4.124,0,0,0-.937,2.28h5.5v-.316A2.942,2.942,0,0,0-29.2-11.16,2.547,2.547,0,0,0-31.145-11.881ZM-18.2,0h-3.965V-21H-18.2ZM-8.135.273a7.262,7.262,0,0,1-5.3-2,7.1,7.1,0,0,1-2.044-5.318v-.383a8.936,8.936,0,0,1,.861-3.985,6.321,6.321,0,0,1,2.44-2.707,6.85,6.85,0,0,1,3.6-.95,6.139,6.139,0,0,1,4.778,1.914A7.778,7.778,0,0,1-2.051-7.725v1.613h-9.42a3.671,3.671,0,0,0,1.155,2.324,3.492,3.492,0,0,0,2.44.875A4.265,4.265,0,0,0-4.307-4.566l1.941,2.174A5.931,5.931,0,0,1-4.771-.431,7.9,7.9,0,0,1-8.135.273Zm-.451-12.154a2.469,2.469,0,0,0-1.907.8A4.124,4.124,0,0,0-11.43-8.8h5.5v-.316a2.942,2.942,0,0,0-.711-2.039A2.547,2.547,0,0,0-8.586-11.881ZM8.2-4.088a1.273,1.273,0,0,0-.718-1.142,8.153,8.153,0,0,0-2.3-.745Q-.1-7.082-.1-10.459a4.065,4.065,0,0,1,1.634-3.288,6.591,6.591,0,0,1,4.272-1.319,7.093,7.093,0,0,1,4.5,1.326A4.179,4.179,0,0,1,12-10.295H8.053a1.912,1.912,0,0,0-.547-1.4A2.314,2.314,0,0,0,5.8-12.25a2.365,2.365,0,0,0-1.545.451,1.424,1.424,0,0,0-.547,1.148,1.217,1.217,0,0,0,.622,1.06,6.4,6.4,0,0,0,2.1.7,17.141,17.141,0,0,1,2.488.663q3.131,1.148,3.131,3.979A3.859,3.859,0,0,1,10.309-.978,7.49,7.49,0,0,1,5.824.273a7.823,7.823,0,0,1-3.3-.663A5.54,5.54,0,0,1,.26-2.208a4.225,4.225,0,0,1-.82-2.5H3.186A2.063,2.063,0,0,0,3.965-3.09a3.091,3.091,0,0,0,1.941.561A2.861,2.861,0,0,0,7.622-2.96,1.34,1.34,0,0,0,8.2-4.088ZM20.945-7.506a8.915,8.915,0,0,1,1.552-5.51,5.035,5.035,0,0,1,4.245-2.051,4.531,4.531,0,0,1,3.568,1.613V-21h3.965V0H30.707l-.191-1.572a4.65,4.65,0,0,1-3.8,1.846,5.021,5.021,0,0,1-4.19-2.058A9.2,9.2,0,0,1,20.945-7.506Zm3.951.294a5.84,5.84,0,0,0,.725,3.19,2.36,2.36,0,0,0,2.105,1.109,2.644,2.644,0,0,0,2.584-1.547v-5.847a2.606,2.606,0,0,0-2.557-1.547Q24.9-11.854,24.9-7.212ZM44.146.273a7.262,7.262,0,0,1-5.3-2A7.1,7.1,0,0,1,36.8-7.041v-.383a8.936,8.936,0,0,1,.861-3.985,6.321,6.321,0,0,1,2.44-2.707,6.85,6.85,0,0,1,3.6-.95,6.139,6.139,0,0,1,4.778,1.914A7.778,7.778,0,0,1,50.23-7.725v1.613h-9.42a3.671,3.671,0,0,0,1.155,2.324,3.492,3.492,0,0,0,2.44.875,4.265,4.265,0,0,0,3.568-1.654l1.941,2.174A5.931,5.931,0,0,1,47.51-.431,7.9,7.9,0,0,1,44.146.273ZM43.7-11.881a2.469,2.469,0,0,0-1.907.8,4.124,4.124,0,0,0-.937,2.28h5.5v-.316a2.942,2.942,0,0,0-.711-2.039A2.547,2.547,0,0,0,43.7-11.881ZM63.615,0H59.65V-21h3.965ZM75.441,0a4.388,4.388,0,0,1-.4-1.326,4.781,4.781,0,0,1-3.732,1.6,5.252,5.252,0,0,1-3.6-1.258,4.045,4.045,0,0,1-1.429-3.172,4.18,4.18,0,0,1,1.743-3.609,8.6,8.6,0,0,1,5.038-1.271h1.818v-.848a2.438,2.438,0,0,0-.526-1.641,2.071,2.071,0,0,0-1.661-.615,2.354,2.354,0,0,0-1.565.479,1.626,1.626,0,0,0-.567,1.313H66.609a3.969,3.969,0,0,1,.793-2.379,5.242,5.242,0,0,1,2.242-1.716,8.172,8.172,0,0,1,3.254-.622,6.456,6.456,0,0,1,4.341,1.374A4.807,4.807,0,0,1,78.846-9.83v6.412a7.072,7.072,0,0,0,.588,3.186V0ZM72.174-2.748a3.4,3.4,0,0,0,1.613-.39,2.559,2.559,0,0,0,1.094-1.046V-6.727H73.4q-2.967,0-3.158,2.051l-.014.232a1.582,1.582,0,0,0,.52,1.217A2.018,2.018,0,0,0,72.174-2.748ZM-101.24,29.912a1.273,1.273,0,0,0-.718-1.142,8.153,8.153,0,0,0-2.3-.745q-5.277-1.107-5.277-4.484a4.065,4.065,0,0,1,1.634-3.288,6.591,6.591,0,0,1,4.272-1.319,7.093,7.093,0,0,1,4.5,1.326,4.179,4.179,0,0,1,1.688,3.445h-3.951a1.912,1.912,0,0,0-.547-1.4,2.314,2.314,0,0,0-1.709-.554,2.365,2.365,0,0,0-1.545.451,1.424,1.424,0,0,0-.547,1.148,1.217,1.217,0,0,0,.622,1.06,6.4,6.4,0,0,0,2.1.7,17.141,17.141,0,0,1,2.488.663q3.131,1.148,3.131,3.979a3.859,3.859,0,0,1-1.736,3.274,7.49,7.49,0,0,1-4.484,1.251,7.823,7.823,0,0,1-3.3-.663,5.54,5.54,0,0,1-2.263-1.818,4.225,4.225,0,0,1-.82-2.5h3.746a2.063,2.063,0,0,0,.779,1.613,3.091,3.091,0,0,0,1.941.561,2.861,2.861,0,0,0,1.716-.431A1.34,1.34,0,0,0-101.24,29.912ZM-90.686,34H-94.65V19.207h3.965Zm-4.2-18.621a1.946,1.946,0,0,1,.595-1.463,2.234,2.234,0,0,1,1.62-.574,2.239,2.239,0,0,1,1.613.574,1.935,1.935,0,0,1,.6,1.463,1.94,1.94,0,0,1-.608,1.477,2.245,2.245,0,0,1-1.606.574,2.245,2.245,0,0,1-1.606-.574A1.94,1.94,0,0,1-94.883,15.379Zm11.156,3.828.123,1.654a5.2,5.2,0,0,1,4.252-1.928,3.945,3.945,0,0,1,3.924,2.256,5.079,5.079,0,0,1,4.443-2.256,4.412,4.412,0,0,1,3.582,1.4,6.441,6.441,0,0,1,1.176,4.218V34h-3.965V24.566a2.817,2.817,0,0,0-.492-1.839,2.181,2.181,0,0,0-1.736-.581,2.466,2.466,0,0,0-2.461,1.7L-74.867,34h-3.951V24.58a2.783,2.783,0,0,0-.506-1.859,2.2,2.2,0,0,0-1.723-.574,2.561,2.561,0,0,0-2.434,1.395V34h-3.951V19.207ZM-54.332,32.5a4.955,4.955,0,0,1-4.047,1.777,4.673,4.673,0,0,1-3.63-1.367A5.836,5.836,0,0,1-63.287,28.9V19.207h3.951v9.568q0,2.313,2.105,2.313a2.853,2.853,0,0,0,2.762-1.4V19.207H-50.5V34h-3.719ZM-43.354,34h-3.965V13h3.965Zm11.826,0a4.388,4.388,0,0,1-.4-1.326,4.781,4.781,0,0,1-3.732,1.6,5.252,5.252,0,0,1-3.6-1.258,4.045,4.045,0,0,1-1.429-3.172,4.18,4.18,0,0,1,1.743-3.609,8.6,8.6,0,0,1,5.038-1.271h1.818v-.848a2.438,2.438,0,0,0-.526-1.641,2.071,2.071,0,0,0-1.661-.615,2.354,2.354,0,0,0-1.565.479,1.626,1.626,0,0,0-.567,1.313h-3.951a3.969,3.969,0,0,1,.793-2.379,5.242,5.242,0,0,1,2.242-1.716,8.172,8.172,0,0,1,3.254-.622,6.456,6.456,0,0,1,4.341,1.374,4.807,4.807,0,0,1,1.606,3.862v6.412a7.072,7.072,0,0,0,.588,3.186V34Zm-3.268-2.748a3.4,3.4,0,0,0,1.613-.39,2.559,2.559,0,0,0,1.094-1.046V27.273h-1.477q-2.967,0-3.158,2.051l-.014.232a1.582,1.582,0,0,0,.52,1.217A2.018,2.018,0,0,0-34.795,31.252Zm15.859-.164a2.592,2.592,0,0,0,1.777-.6,2.108,2.108,0,0,0,.711-1.6h3.705a5.068,5.068,0,0,1-.82,2.755,5.413,5.413,0,0,1-2.208,1.941,6.91,6.91,0,0,1-3.1.69,6.422,6.422,0,0,1-5-2.017A7.98,7.98,0,0,1-25.7,26.686v-.26a7.889,7.889,0,0,1,1.818-5.455,6.347,6.347,0,0,1,4.99-2.037,6.222,6.222,0,0,1,4.45,1.579,5.591,5.591,0,0,1,1.7,4.2h-3.705a2.715,2.715,0,0,0-.711-1.876,2.37,2.37,0,0,0-1.8-.722,2.38,2.38,0,0,0-2.085,1.006,5.833,5.833,0,0,0-.7,3.266V26.8a5.907,5.907,0,0,0,.7,3.286A2.41,2.41,0,0,0-18.936,31.088ZM-6.316,34h-3.965V19.207h3.965Zm-4.2-18.621a1.946,1.946,0,0,1,.595-1.463,2.234,2.234,0,0,1,1.62-.574,2.239,2.239,0,0,1,1.613.574,1.935,1.935,0,0,1,.6,1.463,1.94,1.94,0,0,1-.608,1.477A2.245,2.245,0,0,1-8.3,17.43a2.245,2.245,0,0,1-1.606-.574A1.94,1.94,0,0,1-10.514,15.379Zm6.836,11.088a8.773,8.773,0,0,1,.848-3.924A6.205,6.205,0,0,1-.39,19.877a7.12,7.12,0,0,1,3.7-.943A6.736,6.736,0,0,1,8.2,20.766a7.353,7.353,0,0,1,2.112,4.977l.027,1.012a7.732,7.732,0,0,1-1.9,5.462,6.606,6.606,0,0,1-5.1,2.058,6.639,6.639,0,0,1-5.106-2.051,7.868,7.868,0,0,1-1.907-5.578Zm3.951.28a5.53,5.53,0,0,0,.793,3.225,2.616,2.616,0,0,0,2.27,1.116,2.622,2.622,0,0,0,2.242-1.1,6.051,6.051,0,0,0,.807-3.526,5.474,5.474,0,0,0-.807-3.2,2.622,2.622,0,0,0-2.27-1.136,2.579,2.579,0,0,0-2.242,1.13A6.153,6.153,0,0,0,.273,26.747ZM4.088,13H8.395L4.607,17.238H1.395Zm12.318,6.207.123,1.709a5.165,5.165,0,0,1,4.252-1.982,4.292,4.292,0,0,1,3.5,1.381,6.443,6.443,0,0,1,1.176,4.129V34H21.506V24.539a2.563,2.563,0,0,0-.547-1.825,2.448,2.448,0,0,0-1.818-.567,2.718,2.718,0,0,0-2.5,1.422V34H12.688V19.207ZM43.436,29.912a1.273,1.273,0,0,0-.718-1.142,8.153,8.153,0,0,0-2.3-.745q-5.277-1.107-5.277-4.484a4.065,4.065,0,0,1,1.634-3.288,6.591,6.591,0,0,1,4.272-1.319,7.093,7.093,0,0,1,4.5,1.326,4.179,4.179,0,0,1,1.688,3.445H43.285a1.912,1.912,0,0,0-.547-1.4,2.314,2.314,0,0,0-1.709-.554,2.365,2.365,0,0,0-1.545.451,1.424,1.424,0,0,0-.547,1.148,1.217,1.217,0,0,0,.622,1.06,6.4,6.4,0,0,0,2.1.7,17.141,17.141,0,0,1,2.488.663q3.131,1.148,3.131,3.979a3.859,3.859,0,0,1-1.736,3.274,7.49,7.49,0,0,1-4.484,1.251,7.823,7.823,0,0,1-3.3-.663,5.54,5.54,0,0,1-2.263-1.818,4.225,4.225,0,0,1-.82-2.5h3.746A2.063,2.063,0,0,0,39.2,30.91a3.091,3.091,0,0,0,1.941.561,2.861,2.861,0,0,0,1.716-.431A1.34,1.34,0,0,0,43.436,29.912Zm13.193,4.361a7.262,7.262,0,0,1-5.3-2,7.1,7.1,0,0,1-2.044-5.318v-.383a8.936,8.936,0,0,1,.861-3.985,6.321,6.321,0,0,1,2.44-2.707,6.85,6.85,0,0,1,3.6-.95,6.139,6.139,0,0,1,4.778,1.914,7.778,7.778,0,0,1,1.743,5.428v1.613h-9.42a3.671,3.671,0,0,0,1.155,2.324,3.492,3.492,0,0,0,2.44.875,4.265,4.265,0,0,0,3.568-1.654L62.4,31.607a5.931,5.931,0,0,1-2.406,1.962A7.9,7.9,0,0,1,56.629,34.273Zm-.451-12.154a2.469,2.469,0,0,0-1.907.8,4.124,4.124,0,0,0-.937,2.28h5.5v-.316a2.942,2.942,0,0,0-.711-2.039A2.547,2.547,0,0,0,56.178,22.119Zm8.2,4.375A8.67,8.67,0,0,1,66,21.012a5.25,5.25,0,0,1,4.368-2.078A4.6,4.6,0,0,1,74.156,20.6l.164-1.395H77.9v14.3a6.322,6.322,0,0,1-.882,3.377,5.663,5.663,0,0,1-2.481,2.188,8.723,8.723,0,0,1-3.746.752,8.112,8.112,0,0,1-3.172-.649A5.63,5.63,0,0,1,65.283,37.5l1.75-2.406a4.628,4.628,0,0,0,3.582,1.654,3.388,3.388,0,0,0,2.447-.841,3.154,3.154,0,0,0,.875-2.386v-.793a4.57,4.57,0,0,1-3.6,1.545,5.236,5.236,0,0,1-4.313-2.085,8.667,8.667,0,0,1-1.647-5.53Zm3.951.294a5.4,5.4,0,0,0,.807,3.156,2.566,2.566,0,0,0,2.215,1.143,2.744,2.744,0,0,0,2.584-1.356V23.5a2.737,2.737,0,0,0-2.557-1.356,2.582,2.582,0,0,0-2.235,1.164A6.084,6.084,0,0,0,68.332,26.788ZM89.8,32.5a4.955,4.955,0,0,1-4.047,1.777,4.673,4.673,0,0,1-3.63-1.367A5.836,5.836,0,0,1,80.842,28.9V19.207h3.951v9.568q0,2.313,2.105,2.313a2.853,2.853,0,0,0,2.762-1.4V19.207h3.965V34H89.906ZM88.033,13H92.34l-3.787,4.238H85.34Zm12.209,6.207.123,1.709a5.165,5.165,0,0,1,4.252-1.982,4.292,4.292,0,0,1,3.5,1.381,6.443,6.443,0,0,1,1.176,4.129V34h-3.951V24.539a2.563,2.563,0,0,0-.547-1.825,2.448,2.448,0,0,0-1.818-.567,2.718,2.718,0,0,0-2.5,1.422V34H96.523V19.207ZM-63.67,63.912a1.273,1.273,0,0,0-.718-1.142,8.153,8.153,0,0,0-2.3-.745q-5.277-1.107-5.277-4.484a4.065,4.065,0,0,1,1.634-3.288,6.59,6.59,0,0,1,4.272-1.319,7.093,7.093,0,0,1,4.5,1.326,4.179,4.179,0,0,1,1.688,3.445H-63.82a1.912,1.912,0,0,0-.547-1.4,2.314,2.314,0,0,0-1.709-.554,2.365,2.365,0,0,0-1.545.451,1.424,1.424,0,0,0-.547,1.148,1.217,1.217,0,0,0,.622,1.06,6.4,6.4,0,0,0,2.1.7,17.141,17.141,0,0,1,2.488.663q3.131,1.148,3.131,3.979a3.859,3.859,0,0,1-1.736,3.274,7.49,7.49,0,0,1-4.484,1.251,7.823,7.823,0,0,1-3.3-.663,5.54,5.54,0,0,1-2.263-1.818,4.225,4.225,0,0,1-.82-2.5h3.746a2.063,2.063,0,0,0,.779,1.613,3.091,3.091,0,0,0,1.941.561,2.861,2.861,0,0,0,1.716-.431A1.34,1.34,0,0,0-63.67,63.912ZM-48.426,66.5a4.955,4.955,0,0,1-4.047,1.777,4.673,4.673,0,0,1-3.63-1.367A5.836,5.836,0,0,1-57.381,62.9V53.207h3.951v9.568q0,2.313,2.105,2.313a2.853,2.853,0,0,0,2.762-1.4V53.207H-44.6V68h-3.719ZM-33.687,68V56.105h-2.2v-2.9h2.2v-.684a5.548,5.548,0,0,1,1.716-4.3,6.9,6.9,0,0,1,4.765-1.511,15.8,15.8,0,0,1,4.484.807l-.574,3.268a17.5,17.5,0,0,0-2.078-.513,10.211,10.211,0,0,0-1.586-.116q-2.762,0-2.762,2.447v.6h2.912v2.9h-2.912V68Zm12.811,0h-3.965V53.207h3.965Zm2.652-7.506a8.915,8.915,0,0,1,1.552-5.51,5.035,5.035,0,0,1,4.245-2.051,4.531,4.531,0,0,1,3.568,1.613V47h3.965V68H-8.463l-.191-1.572a4.65,4.65,0,0,1-3.8,1.846,5.021,5.021,0,0,1-4.19-2.058A9.2,9.2,0,0,1-18.225,60.494Zm3.951.294a5.84,5.84,0,0,0,.725,3.19,2.36,2.36,0,0,0,2.105,1.109,2.644,2.644,0,0,0,2.584-1.547V57.694a2.606,2.606,0,0,0-2.557-1.547Q-14.273,56.146-14.273,60.788Zm19.25,7.485a7.262,7.262,0,0,1-5.3-2,7.1,7.1,0,0,1-2.044-5.318v-.383A8.936,8.936,0,0,1-1.5,56.591a6.321,6.321,0,0,1,2.44-2.707,6.85,6.85,0,0,1,3.6-.95,6.139,6.139,0,0,1,4.778,1.914,7.778,7.778,0,0,1,1.743,5.428v1.613H1.641A3.671,3.671,0,0,0,2.8,64.213a3.492,3.492,0,0,0,2.44.875A4.265,4.265,0,0,0,8.8,63.434l1.941,2.174A5.931,5.931,0,0,1,8.34,67.569,7.9,7.9,0,0,1,4.977,68.273ZM4.525,56.119a2.469,2.469,0,0,0-1.907.8,4.124,4.124,0,0,0-.937,2.28h5.5v-.316a2.942,2.942,0,0,0-.711-2.039A2.547,2.547,0,0,0,4.525,56.119ZM17.473,68H13.508V47h3.965ZM24.9,68H20.932V53.207H24.9ZM20.7,49.379a1.946,1.946,0,0,1,.595-1.463,2.234,2.234,0,0,1,1.62-.574,2.239,2.239,0,0,1,1.613.574,2.088,2.088,0,0,1-.007,2.939,2.534,2.534,0,0,1-3.213,0A1.94,1.94,0,0,1,20.7,49.379Zm6.836,11.115a8.915,8.915,0,0,1,1.552-5.51,5.035,5.035,0,0,1,4.245-2.051A4.531,4.531,0,0,1,36.9,54.547V47h3.965V68H37.3l-.191-1.572a4.65,4.65,0,0,1-3.8,1.846,5.021,5.021,0,0,1-4.19-2.058A9.2,9.2,0,0,1,27.535,60.494Zm3.951.294a5.84,5.84,0,0,0,.725,3.19,2.36,2.36,0,0,0,2.105,1.109A2.644,2.644,0,0,0,36.9,63.541V57.694a2.606,2.606,0,0,0-2.557-1.547Q31.486,56.146,31.486,60.788ZM52.5,68a4.388,4.388,0,0,1-.4-1.326,4.781,4.781,0,0,1-3.732,1.6,5.252,5.252,0,0,1-3.6-1.258,4.045,4.045,0,0,1-1.429-3.172,4.18,4.18,0,0,1,1.743-3.609,8.6,8.6,0,0,1,5.038-1.271h1.818v-.848a2.438,2.438,0,0,0-.526-1.641,2.071,2.071,0,0,0-1.661-.615,2.354,2.354,0,0,0-1.565.479,1.626,1.626,0,0,0-.567,1.313H43.668a3.969,3.969,0,0,1,.793-2.379A5.242,5.242,0,0,1,46.7,53.556a8.171,8.171,0,0,1,3.254-.622A6.456,6.456,0,0,1,54.3,54.308,4.807,4.807,0,0,1,55.9,58.17v6.412a7.072,7.072,0,0,0,.588,3.186V68Zm-3.268-2.748a3.4,3.4,0,0,0,1.613-.39,2.559,2.559,0,0,0,1.094-1.046V61.273H50.463q-2.967,0-3.158,2.051l-.014.232a1.582,1.582,0,0,0,.52,1.217A2.018,2.018,0,0,0,49.232,65.252Zm9.092-4.758a8.915,8.915,0,0,1,1.552-5.51,5.035,5.035,0,0,1,4.245-2.051,4.531,4.531,0,0,1,3.568,1.613V47h3.965V68H68.086l-.191-1.572a4.65,4.65,0,0,1-3.8,1.846,5.021,5.021,0,0,1-4.19-2.058A9.2,9.2,0,0,1,58.324,60.494Zm3.951.294A5.84,5.84,0,0,0,63,63.979a2.36,2.36,0,0,0,2.105,1.109,2.644,2.644,0,0,0,2.584-1.547V57.694a2.606,2.606,0,0,0-2.557-1.547Q62.275,56.146,62.275,60.788Z" transform="translate(797.432 3210.833)" fill="#fff"/>
    <path id="Trazado_231286" data-name="Trazado 231286" d="M191.476,516.7a4.656,4.656,0,0,1-4.024-2.322L154.735,457.71a4.67,4.67,0,0,1,0-4.649L187.451,396.4a4.659,4.659,0,0,1,4.026-2.324H342.04a4.655,4.655,0,0,1,4.022,2.322l32.719,56.666a4.663,4.663,0,0,1,0,4.648l-32.716,56.665a4.658,4.658,0,0,1-4.024,2.324Z" transform="translate(112.885 3077.746)" fill="#bebeff"/>
    <path id="Trazado_231763" data-name="Trazado 231763" d="M-68.978,0V-16.352h5.728a7.521,7.521,0,0,1,4.515,1.14A3.9,3.9,0,0,1-57.2-11.871a3.694,3.694,0,0,1-.618,2.117,3.568,3.568,0,0,1-1.718,1.342,3.452,3.452,0,0,1,1.982,1.269,3.752,3.752,0,0,1,.724,2.336,4.315,4.315,0,0,1-1.5,3.571A6.775,6.775,0,0,1-62.621,0Zm3.369-7.12v4.414h2.886a2.785,2.785,0,0,0,1.859-.567A1.945,1.945,0,0,0-60.2-4.84,2.053,2.053,0,0,0-62.52-7.12Zm0-2.381h2.493q2.549-.045,2.549-2.033a1.878,1.878,0,0,0-.646-1.6,3.4,3.4,0,0,0-2.038-.489h-2.358ZM-47.471,0A3.6,3.6,0,0,1-47.8-1.089,3.927,3.927,0,0,1-50.863.225,4.314,4.314,0,0,1-53.822-.809,3.323,3.323,0,0,1-55-3.414a3.434,3.434,0,0,1,1.432-2.965,7.065,7.065,0,0,1,4.138-1.044h1.494v-.7a2,2,0,0,0-.432-1.348,1.7,1.7,0,0,0-1.365-.505,1.934,1.934,0,0,0-1.286.393A1.335,1.335,0,0,0-51.48-8.5h-3.246a3.26,3.26,0,0,1,.651-1.954,4.306,4.306,0,0,1,1.842-1.409,6.712,6.712,0,0,1,2.673-.511,5.3,5.3,0,0,1,3.566,1.129,3.948,3.948,0,0,1,1.32,3.173v5.267a5.809,5.809,0,0,0,.483,2.617V0Zm-2.684-2.257a2.8,2.8,0,0,0,1.325-.32,2.1,2.1,0,0,0,.9-.859V-5.525h-1.213q-2.437,0-2.594,1.685l-.011.191a1.3,1.3,0,0,0,.427,1A1.658,1.658,0,0,0-50.155-2.257Zm11.41-9.894V.663A4.347,4.347,0,0,1-39.812,3.79a4.055,4.055,0,0,1-3.077,1.117A6.6,6.6,0,0,1-44.5,4.717V2.145a6.092,6.092,0,0,0,1.022.1Q-42,2.246-42,.685V-12.151ZM-42.26-15.3a1.6,1.6,0,0,1,.489-1.2,1.835,1.835,0,0,1,1.331-.472,1.835,1.835,0,0,1,1.331.472,1.6,1.6,0,0,1,.489,1.2,1.593,1.593,0,0,1-.5,1.213,1.844,1.844,0,0,1-1.32.472,1.844,1.844,0,0,1-1.32-.472A1.593,1.593,0,0,1-42.26-15.3ZM-29.166,0a3.6,3.6,0,0,1-.326-1.089A3.927,3.927,0,0,1-32.557.225,4.314,4.314,0,0,1-35.516-.809,3.323,3.323,0,0,1-36.69-3.414a3.434,3.434,0,0,1,1.432-2.965A7.065,7.065,0,0,1-31.12-7.423h1.494v-.7a2,2,0,0,0-.432-1.348,1.7,1.7,0,0,0-1.365-.505,1.934,1.934,0,0,0-1.286.393A1.335,1.335,0,0,0-33.175-8.5H-36.42a3.26,3.26,0,0,1,.651-1.954,4.306,4.306,0,0,1,1.842-1.409,6.712,6.712,0,0,1,2.673-.511,5.3,5.3,0,0,1,3.566,1.129,3.948,3.948,0,0,1,1.32,3.173v5.267a5.809,5.809,0,0,0,.483,2.617V0ZM-31.85-2.257a2.8,2.8,0,0,0,1.325-.32,2.1,2.1,0,0,0,.9-.859V-5.525h-1.213q-2.437,0-2.594,1.685l-.011.191a1.3,1.3,0,0,0,.427,1A1.658,1.658,0,0,0-31.85-2.257ZM-17.362,0V-9.771H-19.17v-2.381h1.808v-.562a4.557,4.557,0,0,1,1.409-3.532,5.671,5.671,0,0,1,3.914-1.241,12.982,12.982,0,0,1,3.684.663l-.472,2.684a14.372,14.372,0,0,0-1.707-.421,8.387,8.387,0,0,0-1.3-.1q-2.269,0-2.269,2.01v.494h2.392v2.381h-2.392V0ZM-6.839,0H-10.1V-12.151h3.257Zm2.179-6.166a7.323,7.323,0,0,1,1.275-4.526A4.136,4.136,0,0,1,.1-12.376a3.722,3.722,0,0,1,2.931,1.325v-6.2H6.289V0H3.358L3.2-1.292A3.819,3.819,0,0,1,.079.225a4.125,4.125,0,0,1-3.442-1.69A7.559,7.559,0,0,1-4.661-6.166Zm3.246.242A4.8,4.8,0,0,0-.82-3.3,1.939,1.939,0,0,0,.91-2.392,2.172,2.172,0,0,0,3.032-3.663v-4.8a2.141,2.141,0,0,0-2.1-1.271Q-1.415-9.737-1.415-5.924ZM14.4.225a5.965,5.965,0,0,1-4.352-1.64A5.828,5.828,0,0,1,8.367-5.784V-6.1a7.341,7.341,0,0,1,.708-3.274,5.192,5.192,0,0,1,2-2.224,5.627,5.627,0,0,1,2.959-.781A5.043,5.043,0,0,1,17.963-10.8,6.389,6.389,0,0,1,19.4-6.345V-5.02H11.657a3.015,3.015,0,0,0,.949,1.909,2.869,2.869,0,0,0,2,.719,3.5,3.5,0,0,0,2.931-1.359l1.595,1.786A4.872,4.872,0,0,1,17.16-.354,6.485,6.485,0,0,1,14.4.225Zm-.371-9.984a2.028,2.028,0,0,0-1.567.654,3.388,3.388,0,0,0-.769,1.873h4.515v-.26a2.416,2.416,0,0,0-.584-1.675A2.092,2.092,0,0,0,14.027-9.759ZM24.662,0H21.405V-17.25h3.257Zm6.1,0H27.5V-12.151H30.76ZM27.313-15.3a1.6,1.6,0,0,1,.489-1.2,1.835,1.835,0,0,1,1.331-.472,1.839,1.839,0,0,1,1.325.472,1.589,1.589,0,0,1,.494,1.2,1.593,1.593,0,0,1-.5,1.213,1.844,1.844,0,0,1-1.32.472,1.844,1.844,0,0,1-1.32-.472A1.593,1.593,0,0,1,27.313-15.3Zm5.615,9.13A7.323,7.323,0,0,1,34.2-10.691a4.136,4.136,0,0,1,3.487-1.685,3.722,3.722,0,0,1,2.931,1.325v-6.2h3.257V0H40.946l-.157-1.292A3.819,3.819,0,0,1,37.667.225a4.125,4.125,0,0,1-3.442-1.69A7.559,7.559,0,0,1,32.928-6.166Zm3.246.242a4.8,4.8,0,0,0,.6,2.621,1.939,1.939,0,0,0,1.729.911,2.172,2.172,0,0,0,2.123-1.271v-4.8a2.141,2.141,0,0,0-2.1-1.271Q36.173-9.737,36.173-5.924ZM53.435,0a3.6,3.6,0,0,1-.326-1.089A3.927,3.927,0,0,1,50.043.225,4.314,4.314,0,0,1,47.084-.809,3.323,3.323,0,0,1,45.91-3.414a3.434,3.434,0,0,1,1.432-2.965A7.065,7.065,0,0,1,51.48-7.423h1.494v-.7a2,2,0,0,0-.432-1.348,1.7,1.7,0,0,0-1.365-.505,1.934,1.934,0,0,0-1.286.393A1.335,1.335,0,0,0,49.425-8.5H46.18a3.26,3.26,0,0,1,.651-1.954,4.306,4.306,0,0,1,1.842-1.409,6.712,6.712,0,0,1,2.673-.511,5.3,5.3,0,0,1,3.566,1.129,3.948,3.948,0,0,1,1.32,3.173v5.267a5.809,5.809,0,0,0,.483,2.617V0ZM50.75-2.257a2.8,2.8,0,0,0,1.325-.32,2.1,2.1,0,0,0,.9-.859V-5.525H51.761q-2.437,0-2.594,1.685l-.011.191a1.3,1.3,0,0,0,.427,1A1.658,1.658,0,0,0,50.75-2.257Zm7.468-3.908a7.323,7.323,0,0,1,1.275-4.526,4.136,4.136,0,0,1,3.487-1.685,3.722,3.722,0,0,1,2.931,1.325v-6.2h3.257V0H66.237L66.08-1.292A3.819,3.819,0,0,1,62.958.225a4.125,4.125,0,0,1-3.442-1.69A7.559,7.559,0,0,1,58.219-6.166Zm3.246.242a4.8,4.8,0,0,0,.6,2.621,1.939,1.939,0,0,0,1.729.911,2.172,2.172,0,0,0,2.123-1.271v-4.8a2.141,2.141,0,0,0-2.1-1.271Q61.464-9.737,61.464-5.924Z" transform="translate(380 3538.642)"/>
    <path id="Trazado_231759" data-name="Trazado 231759" d="M0,241.244V0" transform="translate(380.5 3223.824)" fill="none" stroke="#d100c9" stroke-linecap="round" stroke-width="2"/>
    <path id="Trazado_231290" data-name="Trazado 231290" d="M236.53,383.414l-11.319,11.319-11.319-11.319" transform="translate(154.608 3070.336)" fill="none" stroke="#d100c9" stroke-linecap="round" stroke-linejoin="round" stroke-width="2"/>
  </g>
</svg>
