<svg xmlns="http://www.w3.org/2000/svg" xmlns:xlink="http://www.w3.org/1999/xlink" width="394.489" height="382.342" viewBox="0 0 394.489 382.342">
  <defs>
    <radialGradient id="radial-gradient" cx="0.5" cy="0.5" r="0.5" gradientTransform="matrix(0.985, -0.171, 0.171, 0.985, -2.079, -0.722)" gradientUnits="objectBoundingBox">
      <stop offset="0" stop-color="#ff8279"/>
      <stop offset="1" stop-color="#ffa280"/>
    </radialGradient>
    <radialGradient id="radial-gradient-2" cx="0.5" cy="0.5" r="0.5" gradientTransform="matrix(-0.963, -0.269, -0.269, 0.963, 516.428, 70.837)" xlink:href="#radial-gradient"/>
  </defs>
  <g id="Grupo_238287" data-name="Grupo 238287" transform="translate(-2012.943 -2048.914)">
    <path id="Trazado_200783" data-name="Trazado 200783" d="M2045.715,2262.5c18.461-36.863-37.6-98.578-.9-136.982,41.131-43.051,86.976-20.616,115-47.143,56.811-53.776,193.846-38.047,227.722,10.583,28.476,40.877,24.514,77.97,0,131.465-13.739,29.981-19.546,53.73,5.108,95.307,19.692,33.209,19.642,142.626-92.784,102.543-63.421-22.611-220.146,37.354-268.832-11.445C2008.877,2384.624,2000.193,2353.39,2045.715,2262.5Z" transform="translate(0 4.28)" fill="#e4e4ff"/>
    <g id="Grupo_238076" data-name="Grupo 238076" transform="translate(2178.758 2061.433)">
      <g id="Grupo_238075" data-name="Grupo 238075" transform="translate(104.346 35.96)">
        <path id="Trazado_200784" data-name="Trazado 200784" d="M2648.3,2127.179a20.811,20.811,0,0,0-31.654,3.105,12.376,12.376,0,0,1-14.052,4.772,20.63,20.63,0,0,0-6.443-1.025,21.039,21.039,0,0,0-19.281,12.791H2648.3Z" transform="translate(-2576.868 -2121.28)" fill="#fff"/>
      </g>
      <path id="Trazado_200785" data-name="Trazado 200785" d="M2344.186,2273.039V2041.093h180.685v231.946Zm172.866-224.127H2352v216.31h165.048Z" transform="translate(-2344.186 -2041.093)" fill="#fff"/>
      <rect id="Rectángulo_313897" data-name="Rectángulo 313897" width="3.024" height="221.648" transform="translate(88.83 4.362)" fill="#fff"/>
      <rect id="Rectángulo_313898" data-name="Rectángulo 313898" width="3.024" height="174.738" transform="translate(4.188 81.435) rotate(-90)" fill="#fff"/>
      <rect id="Rectángulo_313899" data-name="Rectángulo 313899" width="3.024" height="174.738" transform="translate(4.188 153.538) rotate(-90)" fill="#fff"/>
    </g>
    <g id="Grupo_238147" data-name="Grupo 238147" transform="translate(2178.907 2108.278)">
      <g id="Grupo_238080" data-name="Grupo 238080" transform="translate(50.485 50.834)">
        <g id="Grupo_238079" data-name="Grupo 238079">
          <g id="Grupo_238078" data-name="Grupo 238078">
            <g id="Grupo_238077" data-name="Grupo 238077">
              <path id="Trazado_200786" data-name="Trazado 200786" d="M2504.589,2329.536c.876-2.381-4.082-10.466-13.673-14.262s-10.722-9.81-21.547-10.435-17.516,7.48-6.984,12.408,25.345,13,32.084,15.014C2501.321,2334.312,2503.712,2331.917,2504.589,2329.536Z" transform="translate(-2457.094 -2304.805)" fill="#584164"/>
            </g>
          </g>
        </g>
      </g>
      <g id="Grupo_238082" data-name="Grupo 238082" transform="translate(0.132 49.864)">
        <g id="Grupo_238081" data-name="Grupo 238081">
          <path id="Trazado_200787" data-name="Trazado 200787" d="M2346.142,2341.51c-2.992-4.476-.931-9.3,6.152-16.8s6.832-15.394,16.375-20.542,15.4,3.683,7.94,12.605-15.231,17.815-20.484,22.5C2350.786,2344.024,2347.552,2343.619,2346.142,2341.51Z" transform="translate(-2344.812 -2302.642)" fill="#584164"/>
        </g>
      </g>
      <g id="Grupo_238113" data-name="Grupo 238113" transform="translate(22.521 0)">
        <g id="Grupo_238093" data-name="Grupo 238093" transform="translate(0 45.488)">
          <g id="Grupo_238092" data-name="Grupo 238092">
            <g id="Grupo_238086" data-name="Grupo 238086" transform="translate(1.573 45.639)">
              <g id="Grupo_238085" data-name="Grupo 238085">
                <g id="Grupo_238084" data-name="Grupo 238084">
                  <g id="Grupo_238083" data-name="Grupo 238083">
                    <path id="Trazado_200788" data-name="Trazado 200788" d="M2417.478,2451.882c8.317,1,31.415,1.368,29.706-9.869-2.719-17.885-13.084-29.479-13.106-35.653s-12.185-11.705-12.185-11.705a23.786,23.786,0,0,0-12.155,12.17c-3.773,8.945-8.944,27.295-11.37,38.723C2396.711,2453.36,2411.98,2451.223,2417.478,2451.882Z" transform="translate(-2398.244 -2394.655)" fill="#452b52"/>
                  </g>
                </g>
              </g>
            </g>
            <g id="Grupo_238088" data-name="Grupo 238088" transform="translate(1.136 83.598)">
              <path id="Trazado_200789" data-name="Trazado 200789" d="M2408.01,2479.788c19.574-4.885,16.17,28.082,15.364,43s2.906,41.4-.972,44.6-15.093,3.606-16.725-3.965-9.435-49.4-8.294-66.341S2402.035,2481.279,2408.01,2479.788Z" transform="translate(-2397.27 -2479.299)" fill="#452b52"/>
              <path id="Trazado_200790" data-name="Trazado 200790" d="M2443.943,2750.89c.964,10.514,2.122,20.324,3.1,24.587a133.063,133.063,0,0,1,2.767,15.386l-6.439,1.219s-.776-4.771-5.559-20.018c-2.644-8.427-5.879-14.9-8.547-21.174Z" transform="translate(-2414.918 -2629.094)" fill="#ffa280"/>
              <path id="Trazado_200791" data-name="Trazado 200791" d="M2428.338,2718.994q-.3-.968-.622-2c-4.784-15.246-8.724-28-10.514-40.872-.7-5.018-1.683-15.461-.936-20.962.97-7.153,4.238-8.955,8.4-10.436,8.627-3.072,10.324,3.468,10,13.588-.308,9.682,2.569,45.224,4.767,56.772Z" transform="translate(-2407.6 -2570.118)" fill="#452b52"/>
              <g id="Grupo_238087" data-name="Grupo 238087" transform="translate(24.207 148.152)">
                <path id="Trazado_200792" data-name="Trazado 200792" d="M2467.306,2839.905a7.553,7.553,0,0,0-.233-2.7c-.818-2.91-4.195-13.494-5.117-19.1a30.051,30.051,0,0,0-2.421-8.44l-4.362,2.529s-3.153,18.5-2.677,24.176a7.635,7.635,0,0,0,1.238,3.539Z" transform="translate(-2451.91 -2809.662)" fill="#ffa280"/>
                <path id="Trazado_200793" data-name="Trazado 200793" d="M2467.478,2865.371a9.164,9.164,0,0,0-1.229-5.915c-4.308-7.812-19.74-1.661-13.559,5.915Z" transform="translate(-2451.249 -2835.127)" fill="#452b52"/>
              </g>
            </g>
            <g id="Grupo_238090" data-name="Grupo 238090" transform="translate(26.269 82.491)">
              <path id="Trazado_200794" data-name="Trazado 200794" d="M2466.716,2476.95c-20.04-2.323-12.417,29.93-9.7,44.623s3.459,39.424,7.715,42.089,15.64,7.036,16.284-.682,1.825-52.406-1.489-69.062S2472.834,2477.658,2466.716,2476.95Z" transform="translate(-2453.314 -2476.831)" fill="#452b52"/>
              <path id="Trazado_200795" data-name="Trazado 200795" d="M2499.328,2750.89c2.639,10.417,4.866,20.292,5.368,24.707,1.123,9.883,1.588,15.572,1.588,15.572l7.392-1.131s-.854-4.758-1.408-20.727a154.314,154.314,0,0,1,.7-18.42Z" transform="translate(-2478.693 -2627.987)" fill="#ffa280"/>
              <path id="Trazado_200796" data-name="Trazado 200796" d="M2500.316,2703.108q-.1-2.191-.187-4.751c-.554-15.969.614-26.345-1.975-39.08-1.795-8.83-7.5-31.823-13.2-36.544-1.67-1.385-2.5,9.415-4.273,9.409-9.157-.03-8.585,6.7-4.92,16.14,3.5,9,10.452,45.216,12.254,56.938Z" transform="translate(-2464.322 -2557.235)" fill="#452b52"/>
              <g id="Grupo_238089" data-name="Grupo 238089" transform="translate(20.432 149.259)">
                <path id="Trazado_200797" data-name="Trazado 200797" d="M2500.073,2839.905a7.622,7.622,0,0,1,.23-3.222c.876-2.893,4.466-13.406,5.5-18.994s3-7.994,3-7.994l3.585-.033s3.091,20.811,2.5,26.479a7.7,7.7,0,0,1-1.485,3.764Z" transform="translate(-2499.493 -2809.662)" fill="#ffa280"/>
                <path id="Trazado_200798" data-name="Trazado 200798" d="M2499.44,2866.346c-1.208-1.4-.152-3.942.173-4.869,4.979-8.031,14.937-1.093,14.937-1.093a7.562,7.562,0,0,1-.892,5.962Z" transform="translate(-2498.875 -2836.103)" fill="#452b52"/>
              </g>
            </g>
            <path id="Trazado_200799" data-name="Trazado 200799" d="M2425.581,2312.719c-7.547-2.2-12.2-7.758-14.661-14.484,8.055-3.737,18.973-4.955,18.973-4.955a80.475,80.475,0,0,1,16.082,4.484C2444.954,2306.772,2435.108,2314.35,2425.581,2312.719Z" transform="translate(-2403.662 -2293.102)" fill="#ffa280"/>
            <g id="Grupo_238091" data-name="Grupo 238091">
              <rect id="Rectángulo_313900" data-name="Rectángulo 313900" width="28.545" height="58.559" transform="translate(39.477 61.914) rotate(180)" fill="#fff"/>
              <path id="Trazado_200800" data-name="Trazado 200800" d="M2427.715,2420.418a33.783,33.783,0,0,0,9.1,1.179,34.171,34.171,0,0,0,8.668-1.061v5.918a34.2,34.2,0,0,1-8.668,1.06,33.783,33.783,0,0,1-9.1-1.179Z" transform="translate(-2412.926 -2363.225)" fill="#584164"/>
              <path id="Trazado_200801" data-name="Trazado 200801" d="M2459.651,2351.827c.265-15.366-.028-31.383,3.469-42.591,2.9-9.3,1.72-13.677-.633-15.661,6.871,1.717,17.582,4.7,18.2,5.25,7.494,6.658-12.17,33.213-4.335,66.3.6,2.523-8.858,5.789-13.4,3.163-2.43-1.406-3.506-11.623-3.14-14.551A3.879,3.879,0,0,0,2459.651,2351.827Z" transform="translate(-2430.54 -2293.265)" fill="#584164"/>
              <path id="Trazado_200802" data-name="Trazado 200802" d="M2396.811,2298.648c4.664-3.668,11.056-4.143,15.012-5.061q1.709-.395,3.115-.7c-9.405,6.4-2.088,50.673-2.487,67.486,0,2.147.542,4.908-1.5,6.763-3.225,2.927-10.368-2-10.368-2,4.021-15.715.567-39.4-2-46.829C2396.517,2312.352,2392.146,2302.316,2396.811,2298.648Z" transform="translate(-2394.737 -2292.884)" fill="#584164"/>
            </g>
          </g>
        </g>
        <path id="Trazado_200803" data-name="Trazado 200803" d="M2446.634,2230.587a1.947,1.947,0,0,0-1.018,2.753,1.951,1.951,0,0,0-.8,3.135,1.944,1.944,0,0,0-1.447,2.844,1.963,1.963,0,0,1-2.339,1.493c-.054-.011-.1-.034-.154-.051a3.205,3.205,0,0,0-1.631,4.085,12.813,12.813,0,0,0-5.512,2.542.549.549,0,1,0-.994-.22,1.962,1.962,0,0,1-3.34.927c0,.028,0,.054-.01.082a9.037,9.037,0,0,0-5.867,1.458,1.96,1.96,0,0,0-3.442-.426,1.945,1.945,0,0,0-3.134-.469,1.953,1.953,0,0,0-3.4-1.644,1.962,1.962,0,0,1-1.493-2.34,2,2,0,0,1,.082-.25,2.78,2.78,0,0,0-3.27-1.5,1.956,1.956,0,0,1-1.148-3.085c-.01,0-.02,0-.03,0a1.952,1.952,0,0,0-2.7-1.416,8.294,8.294,0,0,0-1.441-5.939,1.948,1.948,0,0,0-.454-3.338,1.954,1.954,0,0,0-.012-3.315,1.956,1.956,0,0,0-.02-3.615,1.949,1.949,0,0,0,.718-3.079,1.963,1.963,0,0,1,2.34-1.493c.036.008.067.024.1.034a2.42,2.42,0,0,0-.227-3,1.954,1.954,0,0,1,3-1.2,1.812,1.812,0,0,1,.024-.21,1.962,1.962,0,0,1,2.339-1.493,1.911,1.911,0,0,1,.51.2,12.642,12.642,0,0,0,5.311-1.779,1.962,1.962,0,0,1,1.493,2.34c-.009.041-.027.077-.038.117l16.1,3.737a32.513,32.513,0,0,0,7.17-.022,1.962,1.962,0,0,1,1.493,2.34c-.011.052-.034.1-.049.148a33.682,33.682,0,0,0,3.746,8.894,1.94,1.94,0,0,0-.462,2.764Z" transform="translate(-2399.301 -2201.805)" fill="#452b52"/>
        <path id="Trazado_200804" data-name="Trazado 200804" d="M2408.682,2208.991a1.733,1.733,0,0,0,.84-2.475,1.737,1.737,0,0,0,.641-2.809,1.731,1.731,0,0,0,1.22-2.566,1.748,1.748,0,0,1,2.047-1.385c.049.01.092.029.138.042a2.856,2.856,0,0,0,1.354-3.676,1.747,1.747,0,0,1,2.047-1.385,1.723,1.723,0,0,1,.757.358,1.74,1.74,0,0,1,2.906-.92,1.815,1.815,0,0,1,.025-.275,1.748,1.748,0,0,1,2.951-.906c0-.024,0-.048.006-.073a8.049,8.049,0,0,0,5.188-1.438,1.745,1.745,0,0,0,3.074.3,1.732,1.732,0,0,0,2.8.343,1.739,1.739,0,0,0,3.062,1.382,1.747,1.747,0,0,1,1.385,2.047,1.678,1.678,0,0,1-.068.225,1.724,1.724,0,0,1,.583.006,1.742,1.742,0,0,0,2.363,1.247,1.741,1.741,0,0,1,1.1,2.719l.026,0a1.738,1.738,0,0,0,2.439,1.2,7.39,7.39,0,0,0,1.426,5.251,1.734,1.734,0,0,0,.484,2.96,1.741,1.741,0,0,0,.09,2.951,1.741,1.741,0,0,0,.1,3.217,1.737,1.737,0,0,0-.565,2.758,1.747,1.747,0,0,1-2.046,1.385c-.032-.007-.06-.02-.091-.028a1.8,1.8,0,0,1-.027.3,1.724,1.724,0,0,0,.3,2.365,1.74,1.74,0,0,1-2.646,1.145,1.641,1.641,0,0,1-.017.188,1.747,1.747,0,0,1-2.047,1.385,1.723,1.723,0,0,1-.458-.166,11.275,11.275,0,0,0-4.684,1.711,1.747,1.747,0,0,1-1.385-2.047c.007-.036.022-.069.031-.1l-14.422-2.94a1.742,1.742,0,0,1-2,1.234,1.707,1.707,0,0,0-1.967.116,1.736,1.736,0,0,0-2.413-1.158,1.746,1.746,0,0,1-1.385-2.046c.009-.046.027-.088.04-.133a29.982,29.982,0,0,0-3.547-7.827,1.726,1.726,0,0,0,.344-2.471Z" transform="translate(-2402.221 -2191.451)" fill="#452b52"/>
        <g id="Grupo_238098" data-name="Grupo 238098" transform="translate(13.142 41.193)">
          <g id="Grupo_238095" data-name="Grupo 238095">
            <g id="Grupo_238094" data-name="Grupo 238094">
              <path id="Trazado_200805" data-name="Trazado 200805" d="M2430.34,2293.192c-1.483-2.367-6.3,3.881-6.3,3.881s1.179-14.48,12.16-13.737c15.55,1.052,13.39,16.264,13.39,16.264s-2.712-7.081-8.375-3.268S2430.34,2293.192,2430.34,2293.192Z" transform="translate(-2424.041 -2283.309)" fill="#fff"/>
            </g>
          </g>
          <g id="Grupo_238097" data-name="Grupo 238097" transform="translate(5.889 1.469)">
            <g id="Grupo_238096" data-name="Grupo 238096">
              <path id="Trazado_200806" data-name="Trazado 200806" d="M2450.512,2295.1c-.808,4.568-5.461,9.3-7.9,8.757-3.479-.767-6.1-7.152-5.289-11.719s3.326-6.251,8.3-5.3C2451.287,2287.927,2451.32,2290.535,2450.512,2295.1Z" transform="translate(-2437.173 -2286.585)" fill="#ffa280"/>
            </g>
          </g>
        </g>
        <g id="Grupo_238112" data-name="Grupo 238112" transform="translate(12.754 8.312)">
          <g id="Grupo_238111" data-name="Grupo 238111">
            <g id="Grupo_238109" data-name="Grupo 238109">
              <g id="Grupo_238107" data-name="Grupo 238107">
                <path id="Trazado_200807" data-name="Trazado 200807" d="M2439.078,2267.458a6.053,6.053,0,1,1,12.106.092c-.006.818-.029,10.642-.035,11.46a6.054,6.054,0,0,1-12.107-.092C2439.049,2278.125,2439.072,2268.276,2439.078,2267.458Z" transform="translate(-2431.928 -2238.371)" fill="#ffa280"/>
                <path id="Trazado_200808" data-name="Trazado 200808" d="M2439.121,2269.136V2267.5a6.053,6.053,0,0,1,12.106,0v4.9c0,.189-.009.376-.026.561a10.308,10.308,0,0,1-12.08-3.824Z" transform="translate(-2431.971 -2238.372)" fill="#fc9673"/>
                <g id="Grupo_238101" data-name="Grupo 238101" transform="translate(0 8.732)">
                  <g id="Grupo_238099" data-name="Grupo 238099">
                    <path id="Trazado_200809" data-name="Trazado 200809" d="M2423.235,2232.267a2.3,2.3,0,0,1,4.488-1.018c.069.3.32,1.41.388,1.713a2.3,2.3,0,0,1-4.488,1.018C2423.557,2233.686,2423.3,2232.57,2423.235,2232.267Z" transform="translate(-2423.177 -2229.457)" fill="#ffa280"/>
                    <path id="Trazado_200810" data-name="Trazado 200810" d="M2424.9,2233.111a1.556,1.556,0,0,1,3.035-.688c.046.205.216.953.262,1.158a1.556,1.556,0,0,1-3.035.689C2425.117,2234.07,2424.946,2233.316,2424.9,2233.111Z" transform="translate(-2424.106 -2230.424)" fill="#fc9673"/>
                  </g>
                  <g id="Grupo_238100" data-name="Grupo 238100" transform="translate(21.931 4.608)">
                    <path id="Trazado_200811" data-name="Trazado 200811" d="M2477.277,2243.369a2.3,2.3,0,0,0-3.748-2.672l-1.019,1.43a2.3,2.3,0,0,0,3.747,2.672Z" transform="translate(-2472.082 -2239.732)" fill="#8f503d"/>
                    <path id="Trazado_200812" data-name="Trazado 200812" d="M2477.938,2243.93a1.556,1.556,0,1,0-2.534-1.807l-.689.967a1.556,1.556,0,0,0,2.534,1.806Z" transform="translate(-2473.375 -2240.691)" fill="#804836"/>
                  </g>
                </g>
                <path id="Trazado_200813" data-name="Trazado 200813" d="M2427.652,2219.914a11.2,11.2,0,0,1,13.416-9.689,11.338,11.338,0,0,1,8.643,13.375s-1.779,8.773-1.864,9.068c-.75,3.4-7.019,11.038-13.416,9.688-5.614-1.184-9.36-9.646-8.643-13.375l1.639-8.168C2427.49,2220.508,2427.568,2220.209,2427.652,2219.914Z" transform="translate(-2424.569 -2209.986)" fill="#ffa280"/>
                <g id="Grupo_238106" data-name="Grupo 238106" transform="translate(6.735 12.107)">
                  <g id="Grupo_238103" data-name="Grupo 238103">
                    <g id="Grupo_238102" data-name="Grupo 238102">
                      <path id="Trazado_200814" data-name="Trazado 200814" d="M2442.616,2238.912a.294.294,0,0,0,.3-.452,3.313,3.313,0,0,0-4.59-.922.295.295,0,0,0,.326.49,2.724,2.724,0,0,1,3.773.758A.293.293,0,0,0,2442.616,2238.912Z" transform="translate(-2438.196 -2236.984)" fill="#452b52"/>
                    </g>
                  </g>
                  <g id="Grupo_238105" data-name="Grupo 238105" transform="translate(8.956 1.798)">
                    <g id="Grupo_238104" data-name="Grupo 238104">
                      <path id="Trazado_200815" data-name="Trazado 200815" d="M2462.588,2242.922a.295.295,0,0,0,.3-.453,3.314,3.314,0,0,0-4.59-.921.295.295,0,0,0,.327.491,2.725,2.725,0,0,1,3.773.757A.3.3,0,0,0,2462.588,2242.922Z" transform="translate(-2458.167 -2240.994)" fill="#452b52"/>
                    </g>
                  </g>
                </g>
              </g>
              <g id="Grupo_238108" data-name="Grupo 238108" transform="translate(3.387 12.026)">
                <path id="Trazado_200816" data-name="Trazado 200816" d="M2430.73,2236.828l0-.026C2430.736,2236.815,2430.734,2236.825,2430.73,2236.828Z" transform="translate(-2430.73 -2236.802)" fill="#452b52"/>
                <path id="Trazado_200817" data-name="Trazado 200817" d="M2476.211,2245.933l-.006.026S2476.2,2245.946,2476.211,2245.933Z" transform="translate(-2455.811 -2241.838)" fill="#452b52"/>
              </g>
            </g>
            <path id="Trazado_200818" data-name="Trazado 200818" d="M2439.713,2240.785a.762.762,0,1,0,.9-.6A.763.763,0,0,0,2439.713,2240.785Z" transform="translate(-2432.29 -2226.635)" fill="#452b52"/>
            <path id="Trazado_200819" data-name="Trazado 200819" d="M2459.276,2245a.762.762,0,1,0,.9-.6A.763.763,0,0,0,2459.276,2245Z" transform="translate(-2443.079 -2228.96)" fill="#452b52"/>
            <g id="Grupo_238110" data-name="Grupo 238110" transform="translate(7.233 22.928)">
              <path id="Trazado_200820" data-name="Trazado 200820" d="M2439.962,2261.123c-.458-.083-.81.341-.585.711a5.623,5.623,0,0,0,8.372,1.514.5.5,0,0,0-.3-.871Z" transform="translate(-2439.308 -2261.112)" fill="#fff"/>
            </g>
          </g>
        </g>
        <path id="Trazado_200821" data-name="Trazado 200821" d="M2430.157,2213.705l-.9-3.437,5.4-5.342,8.252.3s10.76,3.37,10.848,3.387,2.8,6.532,2.8,6.532l-3.424,5.239a1.556,1.556,0,0,1,.4,1.369,1.575,1.575,0,1,1-2.481-1.559,1.851,1.851,0,0,1-.764-3.266,1.568,1.568,0,0,1-.547-1.506,1.541,1.541,0,0,1,.145-.406,1.841,1.841,0,0,1-.842.039,1.862,1.862,0,0,1-1.476-2.181,1.822,1.822,0,0,1,.074-.247,1.551,1.551,0,0,1-1.858-.634,1.857,1.857,0,0,1-2.1,1.215h0c0,.022,0,.043-.006.064a1.844,1.844,0,0,1-2.16,1.462,1.662,1.662,0,0,1-.185-.056,1.843,1.843,0,1,1-3.6.07c0-.026.016-.048.022-.073a3.953,3.953,0,0,0-3.4-1.563c-.057-.011-.109-.033-.164-.049a1.591,1.591,0,0,1-.022.244,1.5,1.5,0,0,1-2.008,1.181,1.845,1.845,0,1,1-1.993-.78Z" transform="translate(-2413.503 -2198.883)" fill="#452b52"/>
      </g>
      <g id="Grupo_238115" data-name="Grupo 238115" transform="translate(63.379 35.08)">
        <g id="Grupo_238114" data-name="Grupo 238114">
          <path id="Trazado_200822" data-name="Trazado 200822" d="M2487.054,2275.4c8.082,12.884,16.329,28.673,23.207,33.869s10.383,2.633,10.122-1.528c-.486-7.753-18.17-23.711-27.9-33.639C2482.027,2263.439,2487.054,2275.4,2487.054,2275.4Z" transform="translate(-2485.846 -2269.677)" fill="#ffa280"/>
        </g>
      </g>
      <g id="Grupo_238133" data-name="Grupo 238133" transform="translate(0 81.304)">
        <g id="Grupo_238116" data-name="Grupo 238116" transform="translate(1.343 1.762)">
          <path id="Trazado_200823" data-name="Trazado 200823" d="M2373.967,2403.892c-7.863-9.134-13.8-22.178-19.246-25.667s-7.474-.452-7.183,2.981c.545,6.4,13.165,17.125,20.93,24.207,3.636,3.317,5.031,3.352,5.578,2.449C2374.754,2406.695,2373.967,2403.892,2373.967,2403.892Z" transform="translate(-2347.511 -2376.679)" fill="#ffa280"/>
        </g>
        <g id="Grupo_238117" data-name="Grupo 238117">
          <path id="Trazado_200824" data-name="Trazado 200824" d="M2367.826,2394.76c-5.293-8.411-9.847-17.617-14.08-20.327-5.447-3.49-9.507-.994-9.215,2.439.351,4.121,10.3,17.561,16.533,23.038Z" transform="translate(-2344.517 -2372.75)" fill="#584164"/>
        </g>
        <g id="Grupo_238132" data-name="Grupo 238132" transform="translate(24.6 17.884)">
          <path id="Trazado_200825" data-name="Trazado 200825" d="M2399.387,2426c-.268,6.777,3.066,5.557,5.548,4.215s3.237-2.444,3.521-3.15-.913-6.043-.913-6.043l-1.128-3Z" transform="translate(-2399.372 -2415.605)" fill="#ffa280"/>
          <g id="Grupo_238119" data-name="Grupo 238119" transform="translate(3.781)">
            <g id="Grupo_238118" data-name="Grupo 238118">
              <path id="Trazado_200826" data-name="Trazado 200826" d="M2408.23,2420.284h0a1.2,1.2,0,0,1-.148-1.689l4.66-5.539a1.208,1.208,0,0,1,1.694-.148h0a1.2,1.2,0,0,1,.148,1.689l-4.66,5.539A1.209,1.209,0,0,1,2408.23,2420.284Z" transform="translate(-2407.802 -2412.629)" fill="#ffa280"/>
            </g>
          </g>
          <g id="Grupo_238121" data-name="Grupo 238121" transform="translate(3.627 3.141)">
            <g id="Grupo_238120" data-name="Grupo 238120">
              <path id="Trazado_200827" data-name="Trazado 200827" d="M2407.566,2424.262h0a1.185,1.185,0,0,1,.584-1.568l6.5-2.957a1.192,1.192,0,0,1,1.572.587h0a1.185,1.185,0,0,1-.584,1.568l-6.5,2.957A1.192,1.192,0,0,1,2407.566,2424.262Z" transform="translate(-2407.459 -2419.632)" fill="#ffa280"/>
            </g>
          </g>
          <g id="Grupo_238123" data-name="Grupo 238123" transform="translate(7.312 9.235)">
            <g id="Grupo_238122" data-name="Grupo 238122">
              <path id="Trazado_200828" data-name="Trazado 200828" d="M2416.063,2433.469l8.056-.247a1.045,1.045,0,0,1,1.081,1h0a1.038,1.038,0,0,1-.993,1.078l-8.056.246C2415.581,2435.565,2415.493,2433.491,2416.063,2433.469Z" transform="translate(-2415.677 -2433.221)" fill="#ffa280"/>
            </g>
          </g>
          <g id="Grupo_238125" data-name="Grupo 238125" transform="translate(12.046 6.304)">
            <g id="Grupo_238124" data-name="Grupo 238124">
              <path id="Trazado_200829" data-name="Trazado 200829" d="M2426.6,2426.686h5.732a1.044,1.044,0,0,1,1.081,1h0a1.038,1.038,0,0,1-.993,1.078l-5.686.345C2426.164,2429.129,2426.03,2426.709,2426.6,2426.686Z" transform="translate(-2426.234 -2426.686)" fill="#ffa280"/>
            </g>
          </g>
          <g id="Grupo_238127" data-name="Grupo 238127" transform="translate(10.283 3.14)">
            <g id="Grupo_238126" data-name="Grupo 238126">
              <path id="Trazado_200830" data-name="Trazado 200830" d="M2423.408,2419.631l7.58.678a1.045,1.045,0,0,1,.965,1.109h0a1.038,1.038,0,0,1-1.105.962l-8.37-.367C2421.909,2421.973,2422.839,2419.591,2423.408,2419.631Z" transform="translate(-2422.301 -2419.631)" fill="#ffa280"/>
            </g>
          </g>
          <g id="Grupo_238129" data-name="Grupo 238129" transform="translate(9.314)">
            <g id="Grupo_238128" data-name="Grupo 238128">
              <path id="Trazado_200831" data-name="Trazado 200831" d="M2420.415,2412.629c2.4.148,6.695.316,6.695.316a1.038,1.038,0,0,1-.14,2.071s-4.4.1-6.828-.05Z" transform="translate(-2420.141 -2412.629)" fill="#ffa280"/>
            </g>
          </g>
          <g id="Grupo_238131" data-name="Grupo 238131" transform="translate(3.877 6.304)">
            <g id="Grupo_238130" data-name="Grupo 238130">
              <path id="Trazado_200832" data-name="Trazado 200832" d="M2408.034,2429.323h0a1.218,1.218,0,0,1,1-1.4l7.246-1.216a1.226,1.226,0,0,1,1.407,1h0a1.218,1.218,0,0,1-1,1.4l-7.246,1.216A1.226,1.226,0,0,1,2408.034,2429.323Z" transform="translate(-2408.016 -2426.687)" fill="#ffa280"/>
            </g>
          </g>
        </g>
      </g>
      <g id="Grupo_238134" data-name="Grupo 238134" transform="translate(52.301 10.399)">
        <path id="Trazado_200833" data-name="Trazado 200833" d="M2462.03,2238.273l8.14,3.7a1.515,1.515,0,0,0,2.008-.753l9.407-20.738a1.515,1.515,0,0,0-.752-2.006l-8.14-3.7a1.516,1.516,0,0,0-2.008.754l-9.407,20.738A1.516,1.516,0,0,0,2462.03,2238.273Z" transform="translate(-2461.142 -2214.64)" fill="#b6a6eb"/>
        <path id="Trazado_200834" data-name="Trazado 200834" d="M2463.9,2238.273l8.14,3.7a1.515,1.515,0,0,0,2.008-.753l9.408-20.738a1.516,1.516,0,0,0-.752-2.006l-8.14-3.7a1.516,1.516,0,0,0-2.008.754l-9.408,20.738A1.516,1.516,0,0,0,2463.9,2238.273Z" transform="translate(-2462.172 -2214.64)" fill="#8198cc"/>
      </g>
      <g id="Grupo_238136" data-name="Grupo 238136" transform="translate(71.242 48.824)">
        <g id="Grupo_238135" data-name="Grupo 238135">
          <path id="Trazado_200835" data-name="Trazado 200835" d="M2503.38,2303.761c6.075,10.7,10.978,20.651,16.17,24.573,6.878,5.2,11.813.418,11.552-3.742-.324-5.176-9.563-16.029-18.045-24.269Z" transform="translate(-2503.38 -2300.324)" fill="#584164"/>
        </g>
      </g>
      <g id="Grupo_238140" data-name="Grupo 238140" transform="translate(61.693 14.583)">
        <g id="Grupo_238139" data-name="Grupo 238139">
          <g id="Grupo_238138" data-name="Grupo 238138">
            <g id="Grupo_238137" data-name="Grupo 238137">
              <path id="Trazado_200836" data-name="Trazado 200836" d="M2489,2247.335l2.188-9.175a2.966,2.966,0,0,0,.066-.994l-.825-11.887c-.112-1.644-2.477-1.929-2.322.251l.5,6.751-.958,2.2a5.409,5.409,0,0,1-.859,2.86l-2.077,3.227s-4.733,3.419-1.5,7.378c2.027,2.483,3.9,1.631,4.888.837A2.632,2.632,0,0,0,2489,2247.335Z" transform="translate(-2482.085 -2223.97)" fill="#ffa280"/>
            </g>
          </g>
        </g>
      </g>
      <g id="Grupo_238142" data-name="Grupo 238142" transform="translate(62.297 19.289)">
        <g id="Grupo_238141" data-name="Grupo 238141">
          <path id="Trazado_200837" data-name="Trazado 200837" d="M2490.93,2240.6h0a1.152,1.152,0,0,1-1.614.2l-5.445-4.281a1.154,1.154,0,0,1-.192-1.616h0a1.151,1.151,0,0,1,1.613-.2l5.445,4.281A1.157,1.157,0,0,1,2490.93,2240.6Z" transform="translate(-2483.434 -2234.464)" fill="#ffa280"/>
        </g>
      </g>
      <g id="Grupo_238144" data-name="Grupo 238144" transform="translate(64.167 16.142)">
        <g id="Grupo_238143" data-name="Grupo 238143">
          <path id="Trazado_200838" data-name="Trazado 200838" d="M2492.473,2235.772h0a1.15,1.15,0,0,1-1.549-.488l-3.192-6.155a1.158,1.158,0,0,1,.49-1.553h0a1.151,1.151,0,0,1,1.549.489l3.191,6.154A1.158,1.158,0,0,1,2492.473,2235.772Z" transform="translate(-2487.604 -2227.447)" fill="#ffa280"/>
        </g>
      </g>
      <g id="Grupo_238146" data-name="Grupo 238146" transform="translate(68.375 15.578)">
        <g id="Grupo_238145" data-name="Grupo 238145">
          <path id="Trazado_200839" data-name="Trazado 200839" d="M2497.921,2239.582h0a1.15,1.15,0,0,1-.914-1.343l2.2-11.116a1.157,1.157,0,0,1,1.347-.916h0a1.151,1.151,0,0,1,.914,1.344l-2.2,11.115A1.158,1.158,0,0,1,2497.921,2239.582Z" transform="translate(-2496.987 -2226.187)" fill="#ffa280"/>
        </g>
      </g>
      <path id="Trazado_200840" data-name="Trazado 200840" d="M2487.983,2219.681a.863.863,0,0,1-.775.587.426.426,0,0,1-.423-.587.864.864,0,0,1,.775-.587A.426.426,0,0,1,2487.983,2219.681Z" transform="translate(-2422.971 -2206.698)" fill="#452b52"/>
      <path id="Trazado_200841" data-name="Trazado 200841" d="M2486.59,2223.525a.862.862,0,0,1-.775.587.426.426,0,0,1-.423-.587.864.864,0,0,1,.776-.588A.426.426,0,0,1,2486.59,2223.525Z" transform="translate(-2422.203 -2208.817)" fill="#452b52"/>
      <path id="Trazado_200842" data-name="Trazado 200842" d="M2485.2,2227.37a.863.863,0,0,1-.774.587.426.426,0,0,1-.423-.587.865.865,0,0,1,.775-.587A.425.425,0,0,1,2485.2,2227.37Z" transform="translate(-2421.435 -2210.938)" fill="#452b52"/>
    </g>
    <g id="Grupo_238149" data-name="Grupo 238149" transform="translate(2302.721 2284.856)">
      <g id="Grupo_238148" data-name="Grupo 238148" transform="translate(0 0)">
        <path id="Trazado_200843" data-name="Trazado 200843" d="M2642.652,2590.12v-1.326l-10.922-3.191a10.057,10.057,0,0,0-6.377.252,8.757,8.757,0,0,0-4.623,3.955,1.316,1.316,0,0,0-.12.31h3.6a6.379,6.379,0,0,1,6.544-1.82l6.228,1.82Z" transform="translate(-2620.61 -2585.202)" fill="#8198cc"/>
      </g>
    </g>
    <g id="Grupo_238151" data-name="Grupo 238151" transform="translate(2210.557 2195.669)">
      <path id="Trazado_200844" data-name="Trazado 200844" d="M2439.38,2386.323a40.4,40.4,0,0,1-.333,21.623l-13.111,47.328a40.4,40.4,0,0,1-10.841,18.711Z" transform="translate(-2415.095 -2386.323)" fill="#8198cc"/>
      <g id="Grupo_238150" data-name="Grupo 238150" transform="translate(0.418 59.52)">
        <path id="Trazado_200845" data-name="Trazado 200845" d="M2442.8,2553.709h-26.055a.721.721,0,1,1,0-1.442H2442.8a3.5,3.5,0,0,0,2.922-5.428l-17.6-26.675a.721.721,0,0,1,1.2-.794l17.6,26.674a4.943,4.943,0,0,1-4.126,7.665Z" transform="translate(-2416.028 -2519.046)" fill="#8198cc"/>
      </g>
    </g>
    <g id="Grupo_238153" data-name="Grupo 238153" transform="translate(2255.929 2195.669)">
      <path id="Trazado_200846" data-name="Trazado 200846" d="M2532.189,2386.323a40.4,40.4,0,0,0,.333,21.623l13.111,47.328a40.4,40.4,0,0,0,10.841,18.711Z" transform="translate(-2524.324 -2386.323)" fill="#8198cc"/>
      <g id="Grupo_238152" data-name="Grupo 238152" transform="translate(0 59.52)">
        <path id="Trazado_200847" data-name="Trazado 200847" d="M2521.222,2553.709h26.055a.721.721,0,1,0,0-1.442h-26.055a3.5,3.5,0,0,1-2.921-5.428l17.6-26.675a.721.721,0,0,0-1.2-.794l-17.6,26.674a4.943,4.943,0,0,0,4.126,7.665Z" transform="translate(-2516.268 -2519.046)" fill="#8198cc"/>
      </g>
    </g>
    <g id="Grupo_238235" data-name="Grupo 238235" transform="translate(2078.63 2189.015)">
      <g id="Grupo_238167" data-name="Grupo 238167" transform="translate(0 43.853)">
        <g id="Grupo_238166" data-name="Grupo 238166">
          <g id="Grupo_238156" data-name="Grupo 238156" transform="translate(6.341 98.422)">
            <g id="Grupo_238154" data-name="Grupo 238154">
              <path id="Trazado_200848" data-name="Trazado 200848" d="M2135.752,2773.3a.609.609,0,0,1-.073,0,.7.7,0,0,1-.626-.77l8.607-83.155a.7.7,0,0,1,1.4.145l-8.607,83.154A.7.7,0,0,1,2135.752,2773.3Z" transform="translate(-2135.05 -2688.745)" fill="#8198cc"/>
            </g>
            <g id="Grupo_238155" data-name="Grupo 238155" transform="translate(23.615)">
              <path id="Trazado_200849" data-name="Trazado 200849" d="M2188.411,2773.3a.626.626,0,0,1-.073,0,.7.7,0,0,1-.626-.77l8.607-83.155a.7.7,0,0,1,1.4.145l-8.607,83.154A.7.7,0,0,1,2188.411,2773.3Z" transform="translate(-2187.708 -2688.745)" fill="#8198cc"/>
            </g>
          </g>
          <g id="Grupo_238165" data-name="Grupo 238165">
            <g id="Grupo_238164" data-name="Grupo 238164">
              <g id="Grupo_238159" data-name="Grupo 238159" transform="translate(57.181 98.422)">
                <g id="Grupo_238157" data-name="Grupo 238157" transform="translate(23.669 0.526)">
                  <path id="Trazado_200850" data-name="Trazado 200850" d="M2310.45,2773.95a.7.7,0,0,1-.7-.63l-8.552-82.629a.7.7,0,0,1,1.4-.144l8.552,82.629a.7.7,0,0,1-.626.77A.626.626,0,0,1,2310.45,2773.95Z" transform="translate(-2301.197 -2689.917)" fill="#8198cc"/>
                </g>
                <g id="Grupo_238158" data-name="Grupo 238158">
                  <path id="Trazado_200851" data-name="Trazado 200851" d="M2257.726,2773.3a.7.7,0,0,1-.7-.63l-8.606-83.154a.7.7,0,0,1,1.4-.145l8.607,83.155a.7.7,0,0,1-.626.77A.619.619,0,0,1,2257.726,2773.3Z" transform="translate(-2248.417 -2688.745)" fill="#8198cc"/>
                </g>
              </g>
              <path id="Trazado_200852" data-name="Trazado 200852" d="M2180.644,2539.294c-.526-7.983,6.526-40.41-7.675-70.021h-52.06c14.2,29.612,4.735,74.931,5.26,82.914s.522,16.737,16.823,16.737h68.021C2194.712,2568.923,2181.169,2547.277,2180.644,2539.294Z" transform="translate(-2120.909 -2469.273)" fill="#b6a6eb"/>
              <g id="Grupo_238163" data-name="Grupo 238163" transform="translate(34.682 73.605)">
                <g id="Grupo_238162" data-name="Grupo 238162">
                  <g id="Grupo_238161" data-name="Grupo 238161">
                    <g id="Grupo_238160" data-name="Grupo 238160">
                      <path id="Trazado_200853" data-name="Trazado 200853" d="M2198.247,2633.4" transform="translate(-2198.247 -2633.404)" fill="#1a437d"/>
                    </g>
                  </g>
                </g>
              </g>
            </g>
          </g>
        </g>
      </g>
      <g id="Grupo_238168" data-name="Grupo 238168" transform="translate(53.096 142.801)">
        <path id="Trazado_200854" data-name="Trazado 200854" d="M2279.106,2691.322h-39.1a.7.7,0,0,1,0-1.4h39.1a.7.7,0,0,1,0,1.4Z" transform="translate(-2239.308 -2689.918)" fill="#8198cc"/>
      </g>
      <g id="Grupo_238225" data-name="Grupo 238225" transform="translate(3.924 11.818)">
        <path id="Trazado_200855" data-name="Trazado 200855" d="M2403.953,2734.948c5.388-1.881,6.5-8.809,6.5-8.809a16.09,16.09,0,0,0-9.248,1.275,13.184,13.184,0,0,0-5.832,5.672S2400.465,2736.166,2403.953,2734.948Z" transform="translate(-2276.216 -2578.804)" fill="#452b52"/>
        <g id="Grupo_238177" data-name="Grupo 238177" transform="translate(120.79 145.332)">
          <g id="Grupo_238170" data-name="Grupo 238170">
            <g id="Grupo_238169" data-name="Grupo 238169">
              <path id="Trazado_200856" data-name="Trazado 200856" d="M2409.335,2721.913l9.723,26.046,3.768,5.475,1.763,3.858-14.722-4.41,2.219-4.529-13.076-22.219Z" transform="translate(-2399.01 -2721.913)" fill="#ffa280"/>
            </g>
            <path id="Trazado_200857" data-name="Trazado 200857" d="M2417.964,2790.786l4.151-7.984s-.339,2.452,3.568,3.764c6.216,2.087,7.6.451,7.6.451.317.244,13.434,9.36,13.434,9.36l-.125,4.257-25.228-6.87Z" transform="translate(-2409.464 -2755.496)" fill="#8198cc"/>
            <rect id="Rectángulo_313901" data-name="Rectángulo 313901" width="2.08" height="35.718" transform="translate(7.823 37.256) rotate(-71.014)" fill="#fff"/>
            <path id="Trazado_200858" data-name="Trazado 200858" d="M2483.7,2819.1c1.524-4.432-5.025-6.03-5.025-6.03l-2.76,3.351Z" transform="translate(-2441.43 -2772.191)" fill="#fff"/>
          </g>
          <g id="Grupo_238176" data-name="Grupo 238176" transform="translate(22.996 31.6)">
            <g id="Grupo_238171" data-name="Grupo 238171">
              <path id="Trazado_200859" data-name="Trazado 200859" d="M2450.948,2795.965a.659.659,0,0,0,.532-.269l1.667-2.269a.659.659,0,0,0-1.063-.781l-1.667,2.269a.659.659,0,0,0,.531,1.05Z" transform="translate(-2450.288 -2792.378)" fill="#fff"/>
            </g>
            <g id="Grupo_238172" data-name="Grupo 238172" transform="translate(2.34 1.526)">
              <path id="Trazado_200860" data-name="Trazado 200860" d="M2456.164,2799.085a.661.661,0,0,0,.533-.269l1.458-1.985a.66.66,0,0,0-1.063-.781l-1.458,1.985a.66.66,0,0,0,.531,1.05Z" transform="translate(-2455.505 -2795.781)" fill="#fff"/>
            </g>
            <g id="Grupo_238173" data-name="Grupo 238173" transform="translate(4.679 3.052)">
              <path id="Trazado_200861" data-name="Trazado 200861" d="M2461.381,2802.2a.661.661,0,0,0,.532-.269l1.25-1.7a.66.66,0,1,0-1.063-.781l-1.25,1.7a.66.66,0,0,0,.531,1.051Z" transform="translate(-2460.722 -2799.183)" fill="#fff"/>
            </g>
            <g id="Grupo_238174" data-name="Grupo 238174" transform="translate(7.019 4.578)">
              <path id="Trazado_200862" data-name="Trazado 200862" d="M2466.6,2805.323a.658.658,0,0,0,.532-.269l1.042-1.417a.66.66,0,0,0-1.063-.781l-1.042,1.417a.659.659,0,0,0,.531,1.05Z" transform="translate(-2465.939 -2802.586)" fill="#fff"/>
            </g>
            <g id="Grupo_238175" data-name="Grupo 238175" transform="translate(9.358 6.104)">
              <path id="Trazado_200863" data-name="Trazado 200863" d="M2471.814,2808.442a.658.658,0,0,0,.532-.268l.833-1.135a.659.659,0,1,0-1.063-.78l-.834,1.134a.659.659,0,0,0,.531,1.05Z" transform="translate(-2471.155 -2805.989)" fill="#fff"/>
            </g>
          </g>
        </g>
        <g id="Grupo_238179" data-name="Grupo 238179" transform="translate(98.177 92.601)">
          <g id="Grupo_238178" data-name="Grupo 238178">
            <path id="Trazado_200864" data-name="Trazado 200864" d="M2372.349,2667.731l-23.138-45.454c-4.312-15.546,14.9-25.818,18.76-10.12l16.586,52.059C2385.91,2667.111,2375.289,2671.289,2372.349,2667.731Z" transform="translate(-2348.584 -2604.33)" fill="#452b52"/>
          </g>
        </g>
        <path id="Trazado_200865" data-name="Trazado 200865" d="M2291.217,2659.74l-66.577-10.657c-15.818-3.171-10.5-27.975,5.25-24.334l67.594,14.222C2313.3,2642.14,2306.967,2663.38,2291.217,2659.74Z" transform="translate(-2176.785 -2522.79)" fill="#594265"/>
        <g id="Grupo_238197" data-name="Grupo 238197" transform="translate(23.486 20.47)">
          <g id="Grupo_238196" data-name="Grupo 238196" transform="translate(38.441)">
            <g id="Grupo_238194" data-name="Grupo 238194" transform="translate(0 18.299)">
              <g id="Grupo_238183" data-name="Grupo 238183" transform="translate(22.276 1.51)">
                <g id="Grupo_238182" data-name="Grupo 238182">
                  <g id="Grupo_238181" data-name="Grupo 238181">
                    <g id="Grupo_238180" data-name="Grupo 238180">
                      <path id="Trazado_200866" data-name="Trazado 200866" d="M2328.106,2514.791c3.469-8.274,6.593-16.646,8.646-22.222,2.323-6.457-3.446-5.739-5.572-2.465s-9.317,13.819-13.757,20.631Z" transform="translate(-2317.422 -2487.657)" fill="#ffa280"/>
                    </g>
                  </g>
                </g>
              </g>
              <g id="Grupo_238188" data-name="Grupo 238188" transform="translate(15.038 10.233)">
                <g id="Grupo_238187" data-name="Grupo 238187">
                  <g id="Grupo_238186" data-name="Grupo 238186">
                    <g id="Grupo_238185" data-name="Grupo 238185">
                      <g id="Grupo_238184" data-name="Grupo 238184">
                        <path id="Trazado_200867" data-name="Trazado 200867" d="M2317.345,2507.109c-7.4,11-14.234,21.009-15.614,27.764-1.832,8.965,2.3,14.616,6.168,12.464,5.615-3.127,12.787-20.276,18.566-35.336Z" transform="translate(-2301.283 -2507.109)" fill="#c400a6"/>
                      </g>
                    </g>
                  </g>
                </g>
              </g>
              <g id="Grupo_238193" data-name="Grupo 238193">
                <g id="Grupo_238192" data-name="Grupo 238192">
                  <g id="Grupo_238191" data-name="Grupo 238191">
                    <g id="Grupo_238190" data-name="Grupo 238190">
                      <g id="Grupo_238189" data-name="Grupo 238189">
                        <path id="Trazado_200868" data-name="Trazado 200868" d="M2278.279,2484.291c7,14.983,9.656,30.723,12.448,37.027,3.706,8.366.876,14.771-3.36,13.494-6.155-1.855-10.75-24.381-19.616-37.858Z" transform="translate(-2267.75 -2484.291)" fill="#c400a6"/>
                      </g>
                    </g>
                  </g>
                </g>
              </g>
            </g>
            <g id="Grupo_238195" data-name="Grupo 238195" transform="translate(33.194)">
              <path id="Trazado_200869" data-name="Trazado 200869" d="M2348.327,2468.78c-2.422-.812-4.044-3.51-4.205-8.279a71.208,71.208,0,0,1,.057-10.936,18.465,18.465,0,0,1,.728-3.447c.836-1.6,2.079-1.255,1.567,2.028-.66,4.238-.273,5.742-.273,5.742a39.723,39.723,0,0,1,.746-5.482c.472-1.666.787-5,1.808-4.918s1.355,1.329.618,4.076a20.341,20.341,0,0,0-.247,6.527,22.807,22.807,0,0,1,2.049-6.227c1.331-2.192,1.613-2.963,2.329-2.614s1.106,1.993.017,3.632a10.511,10.511,0,0,0-1.426,4.943c-.074,1.162.51.963.706.347s1.524-3.2,1.984-4.113,2.541-1.441,1.822.555-2.11,2.588-2.2,6.763,1.2,3.932.541,7.3S2350.01,2469.343,2348.327,2468.78Z" transform="translate(-2342.969 -2443.486)" fill="#ffa280"/>
              <path id="Trazado_200870" data-name="Trazado 200870" d="M2342.339,2467.367c1.692-.855,2.264,2.3,2.618,4.41s2.034,1.672,3.421,3.788,1.222,5.524-.638,5.916a4.408,4.408,0,0,1-4.732-3.8C2342.379,2474.3,2340.99,2468.049,2342.339,2467.367Z" transform="translate(-2341.769 -2456.578)" fill="#ffb093"/>
            </g>
          </g>
          <path id="Trazado_200871" data-name="Trazado 200871" d="M2216.025,2588.072c8.234-20.61-24.841-10.829-29.627.8-11.863,28.829,1.892,44.636,23.783,37.14,13.618-4.664,8.27-16.329,5.844-20.753S2213.3,2594.9,2216.025,2588.072Z" transform="translate(-2182.03 -2516.612)" fill="#452b52"/>
          <path id="Trazado_200872" data-name="Trazado 200872" d="M2240.923,2492.292c.61-2.758-1.458-21.042-4.724-23.717-4.547-3.724-16.073-5.558-16.073-5.558s-6.456-.666-11.364,1.217c-7.9,2.391-4.01,27.3-4.01,27.3-.133,9.141-.648,19.444-3.105,29.1,5.2,10.35,22.828,11.073,24.671,5.726C2233.311,2506.075,2239.265,2499.784,2240.923,2492.292Z" transform="translate(-2192.85 -2454.195)" fill="#fff"/>
          <path id="Trazado_200873" data-name="Trazado 200873" d="M2257.081,2464.688c7.608,4.635,13.546,27.133,10.573,32.573s-9.074,16.407-11.762,23.041c-2.176,5.373-3.319,12.482-2.267,16.463s6.134,2.209,6.134,2.209a15.982,15.982,0,0,1-2.165-13.509c2.167-8.061,4.8-16.869,9.252-23.94s4.074-10.581,5.374-16.366c1.134-5.047.658-11.376-1.915-13.882S2257.081,2464.688,2257.081,2464.688Z" transform="translate(-2221.299 -2455.18)" fill="#f400ce"/>
          <path id="Trazado_200874" data-name="Trazado 200874" d="M2258.358,2462.9c3.924,1.333,8.83,3.364,12.185,9.078a79.4,79.4,0,0,0,4.95,7.742l-3.429,3.4,3.906,1.439s-.237,6.246-2.649,9.71-6.555,10.046-8.35,13.167-6.612,12.482-6.612,12.482,8.951-21.158,10.405-26.418.213-15.295-1.714-19.145c-1.725-3.447-3.387-7.342-6.657-8.345S2258.358,2462.9,2258.358,2462.9Z" transform="translate(-2224.002 -2454.195)" fill="#c400a6"/>
        </g>
        <path id="Trazado_200875" data-name="Trazado 200875" d="M2276.219,2621.385l-52.045,18.633c-15.556,4.275-26.686-22.963-10.978-26.788l62.526-10.736C2291.277,2598.218,2291.926,2617.56,2276.219,2621.385Z" transform="translate(-2171.545 -2510.378)" fill="#452b52"/>
        <path id="Trazado_200876" data-name="Trazado 200876" d="M2207.121,2481.255c5.71,18.111-6.017,42.41-7.716,50.583s-14.286,7.728-18.652,4.672-5.937-8.916-5.937-8.916,9.912-5.1,11.35-14.193-1.919-21.765-.747-33.942-3.4-10.995,1.372-15.43c4.516-4.2,20.22-2.046,20.22-2.046S2202.748,2467.381,2207.121,2481.255Z" transform="translate(-2154.566 -2432.914)" fill="#f400ce"/>
        <path id="Trazado_200877" data-name="Trazado 200877" d="M2241.069,2461.433c-3.909.19-4.032,3.92-2.482,10.814s4.915,15.168,4.4,20.813c-.748,8.14-7.292,24.55-7.292,24.55s2.914-17.854,2.2-22.576c-.629-4.179-3.662-8.909-3.662-8.909l3.565-2.01-4.072-3.327s-2.091-12.42.5-16.948a7.078,7.078,0,0,1,6.811-3.924Z" transform="translate(-2186.618 -2432.062)" fill="#c400a6"/>
        <path id="Trazado_200878" data-name="Trazado 200878" d="M2179.562,2405.955c1.487-2.789-4.137-11.555-12.973-6.656-6.637,3.679-2.837,10.841-6.938,16.644-4.4,6.219-7.452,3.279-13.526,5.578-9.833,3.721-4.839,13.818-16.464,8.55,1.844,8.489,9.785,13.664,21.216,12.316,8.678-1.024,8.4-12.2,16.048-15.595,9.152-4.059,5.443-9.509,5.847-17.085C2173.163,2402.4,2179.562,2405.955,2179.562,2405.955Z" transform="translate(-2129.66 -2397.838)" fill="#594265"/>
        <g id="Grupo_238200" data-name="Grupo 238200" transform="translate(51.316 3.889)">
          <g id="Grupo_238199" data-name="Grupo 238199">
            <g id="Grupo_238198" data-name="Grupo 238198">
              <path id="Trazado_200879" data-name="Trazado 200879" d="M2252.078,2406.51l11.736,6.109-7.19,24.8c-4.072,14.023-13.458-.172-12.46-3.612Z" transform="translate(-2244.091 -2406.51)" fill="#ffa280"/>
            </g>
          </g>
        </g>
        <g id="Grupo_238201" data-name="Grupo 238201" transform="translate(16.48 30.334)">
          <path id="Trazado_200880" data-name="Trazado 200880" d="M2182.972,2509.954c2.809-11.795,12.742-20.723,11.655-33.421s-14.159-15.635-18.127-2.557-11.071,36.312-9.98,44.508S2180.163,2521.748,2182.972,2509.954Z" transform="translate(-2166.408 -2465.48)" fill="#c400a6"/>
        </g>
        <g id="Grupo_238213" data-name="Grupo 238213" transform="translate(17.994 71.573)">
          <g id="Grupo_238211" data-name="Grupo 238211" transform="translate(0 0.182)">
            <g id="Grupo_238205" data-name="Grupo 238205" transform="translate(24.792)">
              <g id="Grupo_238204" data-name="Grupo 238204">
                <g id="Grupo_238203" data-name="Grupo 238203">
                  <g id="Grupo_238202" data-name="Grupo 238202">
                    <path id="Trazado_200881" data-name="Trazado 200881" d="M2229.917,2573.568c8.249-3.526,16.319-7.365,21.673-9.94,6.162-3.021,1.521-6.52-2.286-5.648s-16.307,3.439-24.236,5.24Z" transform="translate(-2225.068 -2557.844)" fill="#ffa280"/>
                  </g>
                </g>
              </g>
            </g>
            <g id="Grupo_238210" data-name="Grupo 238210" transform="translate(0 0.837)">
              <g id="Grupo_238209" data-name="Grupo 238209">
                <g id="Grupo_238208" data-name="Grupo 238208">
                  <g id="Grupo_238207" data-name="Grupo 238207">
                    <g id="Grupo_238206" data-name="Grupo 238206">
                      <path id="Trazado_200882" data-name="Trazado 200882" d="M2213.279,2559.71c-12.972,2.747-33.028-.31-38.72,3.581-7.554,5.163-4.887,12.089-.612,13.234,6.209,1.662,27.845-.163,42.477-6.956Z" transform="translate(-2169.784 -2559.71)" fill="#c400a6"/>
                    </g>
                  </g>
                </g>
              </g>
            </g>
          </g>
          <g id="Grupo_238212" data-name="Grupo 238212" transform="translate(47.634)">
            <path id="Trazado_200883" data-name="Trazado 200883" d="M2301.831,2564.934c1.407.4,6.915-.208,6.969,0s6.632,3.665,6.632,3.665a1.825,1.825,0,0,1-1.85,1.2c-1.489-.021-6.163-3.066-6.163-3.066l-4.891,1.461Z" transform="translate(-2290.249 -2561.549)" fill="#ffa280"/>
            <path id="Trazado_200884" data-name="Trazado 200884" d="M2277.661,2558.083c-2.752,3.121-2.013,6.031,1.739,8.032a18.058,18.058,0,0,0,7.509,2.031s3.671,2.381,6.145,4.307,3.691-.255,1.564-1.831-6-4.9-6-4.9l4.427,2.057s3.391,2.807,4.8,3.209,2.146-.486,1.055-1.666a75.663,75.663,0,0,0-6.328-4.844l2.148.661a47.108,47.108,0,0,0,5.4,3.15c1.122.34,2.061-1.25,1.891-1.386s-7.212-4.436-7.212-4.436a90.112,90.112,0,0,1-8.822-2.74C2282.959,2558.486,2279.175,2556.367,2277.661,2558.083Z" transform="translate(-2276.003 -2557.439)" fill="#ffa280"/>
          </g>
        </g>
        <path id="Trazado_200885" data-name="Trazado 200885" d="M2399.526,2740.182a17.984,17.984,0,0,0,13.065-5.917l-2.133-7.885c-3.5,4.036-9.283,6.134-15.08,6.947Z" transform="translate(-2276.216 -2579.045)" fill="#594265"/>
        <g id="Grupo_238222" data-name="Grupo 238222" transform="translate(59.117 163.528)">
          <g id="Grupo_238215" data-name="Grupo 238215" transform="translate(0)">
            <g id="Grupo_238214" data-name="Grupo 238214" transform="translate(10.623)">
              <path id="Trazado_200886" data-name="Trazado 200886" d="M2306.548,2768.42l-17.867,24.63-3.508,2.384,1.881-15.253,2.767.787,9.122-18.48Z" transform="translate(-2285.174 -2762.489)" fill="#ffa280"/>
            </g>
            <path id="Trazado_200887" data-name="Trazado 200887" d="M2272.944,2798.376l7.424,2.387s-1.331.445-1.969,4.515c-1.016,6.479.828,7.566.828,7.566-.187.354-6.976,14.812-6.976,14.812l-4.218.59,2.546-26.023Z" transform="translate(-2265.097 -2782.282)" fill="#8198cc"/>
            <rect id="Rectángulo_313902" data-name="Rectángulo 313902" width="35.718" height="2.08" transform="matrix(0.162, -0.987, 0.987, 0.162, 0, 51.001)" fill="#fff"/>
            <path id="Trazado_200888" data-name="Trazado 200888" d="M2266.062,2866.977c4.624.76,5.1-5.964,5.1-5.964l-3.766-2.159Z" transform="translate(-2264.01 -2815.638)" fill="#fff"/>
          </g>
          <g id="Grupo_238221" data-name="Grupo 238221" transform="translate(7.148 30.248)">
            <g id="Grupo_238216" data-name="Grupo 238216" transform="translate(3.331)">
              <path id="Trazado_200889" data-name="Trazado 200889" d="M2288.062,2832.519a.659.659,0,0,0,.261-1.248l-2.515-1.263a.66.66,0,1,0-.592,1.179l2.515,1.263A.658.658,0,0,0,2288.062,2832.519Z" transform="translate(-2284.852 -2829.938)" fill="#fff"/>
            </g>
            <g id="Grupo_238217" data-name="Grupo 238217" transform="translate(2.499 2.515)">
              <path id="Trazado_200890" data-name="Trazado 200890" d="M2285.891,2837.969a.66.66,0,0,0,.262-1.249l-2.2-1.1a.66.66,0,0,0-.592,1.179l2.2,1.1A.658.658,0,0,0,2285.891,2837.969Z" transform="translate(-2282.996 -2835.545)" fill="#fff"/>
            </g>
            <g id="Grupo_238218" data-name="Grupo 238218" transform="translate(1.665 5.029)">
              <path id="Trazado_200891" data-name="Trazado 200891" d="M2283.719,2843.418a.66.66,0,0,0,.261-1.248l-1.887-.948a.659.659,0,1,0-.591,1.179l1.886.947A.653.653,0,0,0,2283.719,2843.418Z" transform="translate(-2281.138 -2841.153)" fill="#fff"/>
            </g>
            <g id="Grupo_238219" data-name="Grupo 238219" transform="translate(0.833 7.544)">
              <path id="Trazado_200892" data-name="Trazado 200892" d="M2281.548,2848.867a.66.66,0,0,0,.261-1.248l-1.573-.789a.659.659,0,1,0-.591,1.178l1.572.79A.664.664,0,0,0,2281.548,2848.867Z" transform="translate(-2279.281 -2846.76)" fill="#fff"/>
            </g>
            <g id="Grupo_238220" data-name="Grupo 238220" transform="translate(0 10.059)">
              <path id="Trazado_200893" data-name="Trazado 200893" d="M2279.376,2854.317a.66.66,0,0,0,.261-1.249l-1.258-.631a.66.66,0,1,0-.593,1.179l1.258.631A.661.661,0,0,0,2279.376,2854.317Z" transform="translate(-2277.424 -2852.368)" fill="#fff"/>
            </g>
          </g>
        </g>
        <g id="Grupo_238224" data-name="Grupo 238224" transform="translate(81.176 129.585)">
          <path id="Trazado_200894" data-name="Trazado 200894" d="M2315.5,2763.547c4.365,3.836,10.99,1.375,10.99,1.375a16.6,16.6,0,0,0-5.781-7.559,13.349,13.349,0,0,0-7.906-2.343S2312.676,2761.063,2315.5,2763.547Z" transform="translate(-2311.849 -2724.417)" fill="#452b52"/>
          <g id="Grupo_238223" data-name="Grupo 238223">
            <path id="Trazado_200895" data-name="Trazado 200895" d="M2311.358,2721.58c7.082-11.384,3.058-12.037,11.494-23.8,8.207-11.438,42.137-15.855,31.3-3.856l-34.092,35.448C2317.076,2730.748,2308.156,2726.727,2311.358,2721.58Z" transform="translate(-2310.675 -2686.8)" fill="#594265"/>
          </g>
        </g>
        <path id="Trazado_200896" data-name="Trazado 200896" d="M2305,2763.073c3.143,4.848,5.822,6.1,10.891,7.393l6.295-5.524c-5.3-1.087-10.051-5.17-13.687-9.9Z" transform="translate(-2226.37 -2594.853)" fill="#452b52"/>
      </g>
      <g id="Grupo_238232" data-name="Grupo 238232" transform="translate(49.273 0)">
        <g id="Grupo_238231" data-name="Grupo 238231" transform="translate(1.835 3.127)">
          <g id="Grupo_238230" data-name="Grupo 238230">
            <path id="Trazado_200897" data-name="Trazado 200897" d="M2235.1,2396.2a15,15,0,0,1,12.215-17.333c8.16-1.413,13.376.643,16.237,9.161,2.636,7.851-.81,18.879-11.118,20.388C2244.236,2409.617,2235.662,2399.473,2235.1,2396.2Z" transform="translate(-2234.873 -2378.459)" fill="#ffa280"/>
            <path id="Trazado_200898" data-name="Trazado 200898" d="M2274.473,2402.67l-3.733-4.317c-.284-1.641-1.465-3.885-1.588-4.6-1.184-6.833-5.157-8.4-11.99-7.215s-11.782,4.486-10.6,11.32c.29,1.672,6.644,4.349,6.934,6.021.719,4.153,1.049,10.384,4.577,12.084,2.135,1.029,6.391,4.159,11.68,3.243,4.017-.7,3.122-3.173,2.962-7.346,0,0,1.041-.786.4-1.669l.086-2.066c.245-.184.592-.459.512-.862-.135-.688-.789-1.392-.465-1.859C2273.807,2404.6,2275.291,2403.938,2274.473,2402.67Z" transform="translate(-2241.224 -2382.718)" fill="#ffa280"/>
            <g id="Grupo_238226" data-name="Grupo 238226" transform="translate(21.085 19.385)">
              <path id="Trazado_200899" data-name="Trazado 200899" d="M2289.086,2424.583a3.635,3.635,0,1,1-4.063-2.863,3.636,3.636,0,0,1,4.063,2.863" transform="translate(-2281.891 -2421.686)" fill="url(#radial-gradient)"/>
            </g>
            <g id="Grupo_238228" data-name="Grupo 238228" transform="translate(23.586 13.459)">
              <g id="Grupo_238227" data-name="Grupo 238227">
                <path id="Trazado_200900" data-name="Trazado 200900" d="M2292.567,2409.742a.327.327,0,0,1-.247-.055,3.055,3.055,0,0,0-4.252.736.33.33,0,1,1-.54-.381,3.716,3.716,0,0,1,5.172-.9.33.33,0,0,1-.134.6Z" transform="translate(-2287.468 -2408.471)" fill="#452b52"/>
              </g>
            </g>
            <path id="Trazado_200901" data-name="Trazado 200901" d="M2296.921,2414.677a.855.855,0,1,1-.989-.7A.855.855,0,0,1,2296.921,2414.677Z" transform="translate(-2268.16 -2398.044)" fill="#452b52"/>
            <g id="Grupo_238229" data-name="Grupo 238229" transform="translate(28.235 25.409)">
              <path id="Trazado_200902" data-name="Trazado 200902" d="M2301.578,2435.118a16.735,16.735,0,0,1-3.229.194.493.493,0,0,0-.307.893,4.281,4.281,0,0,0,3.46.978Z" transform="translate(-2297.835 -2435.118)" fill="#fff"/>
            </g>
          </g>
        </g>
        <path id="Trazado_200903" data-name="Trazado 200903" d="M2253.173,2387.741c-9.257,2.5-11.339,8.614-11.339,8.614s.025-2.624-2.227-3.038-3.107,1.254-2.557,3.212c1.115,3.968,3.728,4.643,3.728,4.643l-1.535,4.974s-1.139-5.716-4.318-8.314c-3.412-2.788-4.92-9.234-3.753-14.535,1.1-5,4.733-10.588,14.445-11.712C2257.423,2370.219,2269.664,2383.294,2253.173,2387.741Z" transform="translate(-2230.782 -2371.485)" fill="#594265"/>
      </g>
      <g id="Grupo_238234" data-name="Grupo 238234" transform="translate(87.041 95.878)">
        <g id="Grupo_238233" data-name="Grupo 238233">
          <path id="Trazado_200904" data-name="Trazado 200904" d="M2315,2590.2v-1.325l10.922-3.192a10.061,10.061,0,0,1,6.378.252,8.757,8.757,0,0,1,4.623,3.955,1.348,1.348,0,0,1,.12.31h-3.6a6.381,6.381,0,0,0-6.544-1.82l-6.228,1.82Z" transform="translate(-2315.001 -2585.285)" fill="#8198cc"/>
        </g>
      </g>
    </g>
    <g id="Grupo_238281" data-name="Grupo 238281" transform="translate(2251.595 2177.227)">
      <g id="Grupo_238241" data-name="Grupo 238241" transform="translate(69.864 43.136)">
        <g id="Grupo_238240" data-name="Grupo 238240">
          <g id="Grupo_238239" data-name="Grupo 238239">
            <g id="Grupo_238238" data-name="Grupo 238238">
              <g id="Grupo_238237" data-name="Grupo 238237">
                <g id="Grupo_238236" data-name="Grupo 238236">
                  <path id="Trazado_200905" data-name="Trazado 200905" d="M2666.565,2490.146c-7.271-5.193-4-9.813,1.944-18.818s5.052-20.029,13.954-27.055,21.312-.3,15.242,10.234-12.613,25.539-17.179,31.309C2675.885,2491.681,2669.039,2491.914,2666.565,2490.146Z" transform="translate(-2662.396 -2441.387)" fill="#594265"/>
                </g>
              </g>
            </g>
          </g>
        </g>
      </g>
      <g id="Grupo_238244" data-name="Grupo 238244" transform="translate(63.69 31.998)">
        <g id="Grupo_238243" data-name="Grupo 238243" transform="translate(0.003)">
          <path id="Trazado_200906" data-name="Trazado 200906" d="M2659.944,2440.761c-5.448-1.136-11.119-.229-11.307-2.654s13.878-10.839,15.59-5.382C2665.2,2435.844,2659.944,2440.761,2659.944,2440.761Z" transform="translate(-2648.635 -2424.475)" fill="#452b52"/>
          <path id="Trazado_200907" data-name="Trazado 200907" d="M2661.622,2436.4c5.755-.812,6.86-4.126,6.479-7.008s-11.116-.232-10.847,2.875S2661.622,2436.4,2661.622,2436.4Z" transform="translate(-2653.386 -2422.954)" fill="#fff"/>
          <g id="Grupo_238242" data-name="Grupo 238242" transform="translate(4.956)">
            <path id="Trazado_200908" data-name="Trazado 200908" d="M2662.016,2421.558c-2.837,15.555-3.321,40.764-.126,48.962s9.038,5.727,11.509,2.263c7.336-10.282-3.064-34.648-3.883-48.77C2668.635,2408.8,2662.016,2421.558,2662.016,2421.558Z" transform="translate(-2659.685 -2416.551)" fill="#ffa280"/>
          </g>
          <path id="Trazado_200909" data-name="Trazado 200909" d="M2667.185,2430.919c-1.26,4.214-10.848,2.875-10.848,2.875a72.283,72.283,0,0,1-.75,11.141l13.931-2.893Z" transform="translate(-2652.469 -2424.476)" fill="#fff"/>
        </g>
        <path id="Trazado_200910" data-name="Trazado 200910" d="M2652.484,2476.286c1.362,8.079,10.12,14.5,14.949,10.31,8.32-7.218-3.21-51.648-3.21-51.648-.672,4.481-14.278,7.809-15.594,5.218C2648.628,2440.166,2651.121,2468.208,2652.484,2476.286Z" transform="translate(-2648.628 -2426.698)" fill="#594265"/>
      </g>
      <g id="Grupo_238249" data-name="Grupo 238249" transform="translate(70.095 13.867)">
        <g id="Grupo_238246" data-name="Grupo 238246">
          <g id="Grupo_238245" data-name="Grupo 238245" transform="translate(0 7.858)">
            <path id="Trazado_200911" data-name="Trazado 200911" d="M2675.626,2406.863c.114-.623.626-2.912.929-4.361l-11.978-2.615a46.507,46.507,0,0,0-1.664,11.935c-.168,4.644,8.186,1.7,8.186,1.7C2674.151,2412.544,2674.9,2409.743,2675.626,2406.863Z" transform="translate(-2662.91 -2397.087)" fill="#ffa280"/>
            <path id="Trazado_200912" data-name="Trazado 200912" d="M2667.93,2395.911h0a1.471,1.471,0,0,0-1.742,1.137l-.62,2.979a1.471,1.471,0,0,0,1.138,1.741h0a1.47,1.47,0,0,0,1.742-1.138l.62-2.976A1.472,1.472,0,0,0,2667.93,2395.911Z" transform="translate(-2664.359 -2394.876)" fill="#ffa280"/>
            <path id="Trazado_200913" data-name="Trazado 200913" d="M2682.072,2393.934h0a1.652,1.652,0,0,0-1.956,1.28l-1.307,5.909a1.653,1.653,0,0,0,1.278,1.957h0a1.653,1.653,0,0,0,1.958-1.279l1.306-5.91A1.654,1.654,0,0,0,2682.072,2393.934Z" transform="translate(-2671.66 -2393.784)" fill="#ffa280"/>
            <path id="Trazado_200914" data-name="Trazado 200914" d="M2674.414,2393.745h0a1.514,1.514,0,0,0-1.96.867l-2.03,5.071a1.516,1.516,0,0,0,.867,1.959h0a1.516,1.516,0,0,0,1.96-.867l2.03-5.071A1.515,1.515,0,0,0,2674.414,2393.745Z" transform="translate(-2666.998 -2393.643)" fill="#ffa280"/>
            <path id="Trazado_200915" data-name="Trazado 200915" d="M2678.027,2397.244h0a1.56,1.56,0,0,0-1.9,1.127l-1.235,4.874a1.559,1.559,0,0,0,1.128,1.9h0a1.559,1.559,0,0,0,1.895-1.128l1.235-4.871A1.559,1.559,0,0,0,2678.027,2397.244Z" transform="translate(-2669.495 -2395.602)" fill="#ffa280"/>
          </g>
          <path id="Trazado_200916" data-name="Trazado 200916" d="M2691.736,2376.178h0a1.492,1.492,0,0,0-1.841,1.019l-3.188,11.89a1.494,1.494,0,0,0,1.026,1.84h0a1.491,1.491,0,0,0,1.841-1.019l3.187-11.891A1.5,1.5,0,0,0,2691.736,2376.178Z" transform="translate(-2676.004 -2376.121)" fill="#ffa280"/>
        </g>
        <g id="Grupo_238248" data-name="Grupo 238248" transform="translate(5.517 12.445)">
          <g id="Grupo_238247" data-name="Grupo 238247">
            <path id="Trazado_200917" data-name="Trazado 200917" d="M2677.963,2416.442h0a3.007,3.007,0,0,1-2.635-3.815l.092-.324a3.021,3.021,0,0,1,2.285-2.13l3.1-1.078a4.842,4.842,0,0,0,2.49-2.182l.8-1.3c.826-1.368,2.966-2.205,3.865-1.459h0a.979.979,0,0,1,.126,1.38l-7.46,9.738A3.024,3.024,0,0,1,2677.963,2416.442Z" transform="translate(-2675.213 -2403.872)" fill="#ffa280"/>
          </g>
        </g>
      </g>
      <g id="Grupo_238250" data-name="Grupo 238250" transform="translate(84.419 58.123)">
        <path id="Trazado_200918" data-name="Trazado 200918" d="M2708.032,2555.155l-2.4-6.25c-8.177-21.341-8.722-41.844-1.541-63.541l3.494-10.558h50.978l-3.494,10.558c-7.18,21.7-6.635,42.2,1.542,63.541l2.394,6.25a14.113,14.113,0,0,1-13.179,19.164h-50.977A14.114,14.114,0,0,0,2708.032,2555.155Z" transform="translate(-2694.852 -2474.806)" fill="#b6a6eb"/>
      </g>
      <g id="Grupo_238253" data-name="Grupo 238253" transform="translate(113.941 156.94)">
        <g id="Grupo_238251" data-name="Grupo 238251" transform="translate(23.812)">
          <path id="Trazado_200919" data-name="Trazado 200919" d="M2823.156,2777.446a.7.7,0,0,1-.691-.621l-8.678-80.9a.7.7,0,0,1,1.382-.148l8.679,80.9a.7.7,0,0,1-.617.765A.719.719,0,0,1,2823.156,2777.446Z" transform="translate(-2813.782 -2695.158)" fill="#8198cc"/>
        </g>
        <g id="Grupo_238252" data-name="Grupo 238252">
          <path id="Trazado_200920" data-name="Trazado 200920" d="M2770.056,2777.446a.7.7,0,0,1-.691-.621l-8.679-80.9a.7.7,0,0,1,1.383-.148l8.679,80.9a.7.7,0,0,1-.692.769Z" transform="translate(-2760.683 -2695.158)" fill="#8198cc"/>
        </g>
      </g>
      <g id="Grupo_238256" data-name="Grupo 238256" transform="translate(67.042 156.94)">
        <g id="Grupo_238254" data-name="Grupo 238254">
          <path id="Trazado_200921" data-name="Trazado 200921" d="M2656.8,2777.446a.712.712,0,0,1-.075,0,.7.7,0,0,1-.617-.765l8.679-80.9a.7.7,0,0,1,1.383.148l-8.679,80.9A.7.7,0,0,1,2656.8,2777.446Z" transform="translate(-2656.103 -2695.158)" fill="#8198cc"/>
        </g>
        <g id="Grupo_238255" data-name="Grupo 238255" transform="translate(23.812)">
          <path id="Trazado_200922" data-name="Trazado 200922" d="M2709.9,2777.446a.695.695,0,0,1-.691-.769l8.678-80.9a.7.7,0,0,1,1.382.148l-8.679,80.9A.7.7,0,0,1,2709.9,2777.446Z" transform="translate(-2709.202 -2695.158)" fill="#8198cc"/>
        </g>
      </g>
      <path id="Trazado_200923" data-name="Trazado 200923" d="M2680.193,2620.42c.16-11.732-12.786-13.665-28.425-16.621-22.4-4.234-49.92-6.341-57.061-5.884-6.9.442-16.552,9.614,2.2,18.892,22.776,11.268,60.63,21.208,73.792,13.922s9.491-10.309,9.491-10.309" transform="translate(-2550.392 -2484.55)" fill="#584164"/>
      <path id="Trazado_200924" data-name="Trazado 200924" d="M2705.839,2508.192c5.038,7.252,18.893,9.24,27,9.833s19.192-48.232,19.683-59.374-6.091-22.317-10.6-26.069-8.686-4.94-15.914.193-20.592,25.567-21.284,44.162A194.009,194.009,0,0,0,2705.839,2508.192Z" transform="translate(-2615.795 -2391.604)" fill="#b6a6eb"/>
      <path id="Trazado_200925" data-name="Trazado 200925" d="M2740.284,2606.941c-22.705,3.356-29.044-1.615-33.652-8.95.443,2.437-.564,3.385-.564,3.385s5.6,13.657,33.767,8.937c7.6-1.273,9.012-4.778,9.182-6.747C2747.3,2605,2744.584,2606.305,2740.284,2606.941Z" transform="translate(-2616.619 -2484.626)" fill="#452b52"/>
      <path id="Trazado_200926" data-name="Trazado 200926" d="M2704.473,2440.681c-15.169,15.445-.969,65-4.167,70.741,5.172,5.454,5.057-2.568,6.21-14.659s7.449-59.968,16.137-62.206C2722.653,2434.556,2709.313,2434.936,2704.473,2440.681Z" transform="translate(-2611.798 -2394.483)" fill="#594265"/>
      <g id="Grupo_238257" data-name="Grupo 238257" transform="translate(98.114 47.045)" opacity="0.27" style="mix-blend-mode: multiply;isolation: isolate">
        <path id="Trazado_200927" data-name="Trazado 200927" d="M2742.162,2461.283l2.734-5.229c1.877.08,2.756,3.674,2.756,3.674l4.752-1.158-.479-6.59-9.716-.353-9.414-1.524-.559,7.189s5.192-2.916,6.59-1.877-.394,4.328-.394,4.328c-3.92,8.734-14.043,31.841-12.962,66.569l5.718,9.47,7.039-6.493a416.169,416.169,0,0,1,3.9-68.017Z" transform="translate(-2725.39 -2450.103)" fill="#b1c3eb"/>
      </g>
      <g id="Grupo_238260" data-name="Grupo 238260" transform="translate(96.949 47.259)">
        <g id="Grupo_238258" data-name="Grupo 238258" transform="translate(0 2.554)">
          <path id="Trazado_200928" data-name="Trazado 200928" d="M2739.494,2456.276l-2.149,2.4s-15.811,26.773-14.472,69.735l5.717,9.47,7.039-6.493c-5.01-34.77,5-73.086,5-73.086Z" transform="translate(-2722.792 -2456.276)" fill="#c400a6"/>
        </g>
        <g id="Grupo_238259" data-name="Grupo 238259" transform="translate(12.219)">
          <path id="Trazado_200929" data-name="Trazado 200929" d="M2750.039,2451.688l.881,7.5,3.671,1.044,4.4-7.812-4.356-1.843Z" transform="translate(-2750.039 -2450.581)" fill="#93007c"/>
        </g>
      </g>
      <path id="Trazado_200930" data-name="Trazado 200930" d="M2729.719,2432.979c-8.389,2.515-15.67,16.128-15.67,16.128l3.339,5.494-6.254,2.911s.106,7.992.535,16.711,2.462,21.67,2.462,21.67.815-20.728,5.393-35.78c2.494-8.2,5.18-15.152,7.189-19.951.5-1.191,2.513-5.43,2.983-6.331Z" transform="translate(-2619.413 -2393.614)" fill="#452b52"/>
      <path id="Trazado_200931" data-name="Trazado 200931" d="M2527.948,2850.1c4.868.731,8.131,1.915,12.111,1.156,1.4-.267,1.557,10.82,1.557,10.82l-10.005.038-1.475-1.031-7.882,1.067-15.638.059-.01-2.406s12.1-3.3,14.323-4.614A77.858,77.858,0,0,0,2527.948,2850.1Z" transform="translate(-2506.606 -2623.677)" fill="#584164"/>
      <path id="Trazado_200932" data-name="Trazado 200932" d="M2685.62,2646.082c4-4.185,3.8-13.678-.722-15.53-21.954-8.992-70.494,9.725-80.3,12.021-11.831,2.768-21.155,16.383,4.188,18.25C2633.822,2662.667,2675.221,2656.955,2685.62,2646.082Z" transform="translate(-2554.081 -2501.246)" fill="#452b52"/>
      <path id="Trazado_200933" data-name="Trazado 200933" d="M2573.655,2675.919c7.188-.555,12.118,7.2,11.691,12.256-2.171,25.745-20.437,71.191-20.437,71.191l-19.268-5.35s18.071-64.021,20.949-70.975S2573.655,2675.919,2573.655,2675.919Z" transform="translate(-2528.135 -2527.591)" fill="#452b52"/>
      <path id="Trazado_200934" data-name="Trazado 200934" d="M2765.9,2434.366c8.4,3.159-2.621,24.177-6.983,42.72-3.136,13.331-6.966,58.167,5.751,66.12,18.475,11.552,17.281-2.3,16.762-9.421s-2.017-21.019-.216-37.873,12.877-43.751,8.683-49.983S2765.9,2434.366,2765.9,2434.366Z" transform="translate(-2644.061 -2394.379)" fill="#594265"/>
      <path id="Trazado_200935" data-name="Trazado 200935" d="M2770.3,2436.573c-.887,7.583-5.875,24.12-6.676,26.912s-5.293,16.014-6.435,25.187c-.529,4.25-1.177,11.492-1.177,11.492l16.328-36.038-4.268-3.787,6.266-2.883a71.37,71.37,0,0,0,0-11.314C2773.747,2438.608,2770.3,2436.573,2770.3,2436.573Z" transform="translate(-2644.169 -2395.596)" fill="#452b52"/>
      <path id="Trazado_200936" data-name="Trazado 200936" d="M2535.4,2771.67c4.854-.823,8.323-.714,11.868-2.676,1.25-.691,4.852,9.8,4.852,9.8l-9.5,3.155-1.722-.52-7.157,3.469-14.84,4.929-.76-2.282s10.473-6.9,12.172-8.847A77.916,77.916,0,0,0,2535.4,2771.67Z" transform="translate(-2512.971 -2578.924)" fill="#584164"/>
      <path id="Trazado_200937" data-name="Trazado 200937" d="M2573.375,2597.87c7.137-1.014,12.554,6.406,12.452,11.482-.519,25.831-15.713,70.356-15.713,70.356l-18-1.979s12.239-65.177,14.666-72.3S2573.375,2597.87,2573.375,2597.87Z" transform="translate(-2531.706 -2484.508)" fill="#584164"/>
      <g id="Grupo_238265" data-name="Grupo 238265" transform="translate(110.199 21.306)">
        <g id="Grupo_238264" data-name="Grupo 238264">
          <g id="Grupo_238263" data-name="Grupo 238263">
            <g id="Grupo_238262" data-name="Grupo 238262">
              <g id="Grupo_238261" data-name="Grupo 238261">
                <path id="Trazado_200938" data-name="Trazado 200938" d="M2768.94,2401.1a7.946,7.946,0,1,0-15.867-.9c-.061,1.073-.661,11.679-.721,12.751-.248,4.381,3.132,6.211,7.513,6.459s8.106-1.18,8.354-5.562C2768.278,2412.817,2768.88,2402.177,2768.94,2401.1Z" transform="translate(-2752.339 -2392.709)" fill="#fc9673"/>
              </g>
            </g>
          </g>
        </g>
      </g>
      <path id="Trazado_200939" data-name="Trazado 200939" d="M2740.792,2440.277c2.061-4.628,4.635-5.4,4.635-5.4s-.193,6.056,5.278,6.143c6.2.1,10.86-6.018,10.86-6.018a12.64,12.64,0,0,1,1.626,5.364c.247,3.2-7.32,10.283-7.32,10.283s-1.13-7.393-6.989-7.789c-5.25-.354-9.137,6.326-9.137,6.326S2739.185,2443.885,2740.792,2440.277Z" transform="translate(-2635.142 -2394.662)" fill="#fff"/>
      <g id="Grupo_238267" data-name="Grupo 238267" transform="translate(125.777 46.641)">
        <g id="Grupo_238266" data-name="Grupo 238266">
          <path id="Trazado_200940" data-name="Trazado 200940" d="M2794.079,2511.214c-5.819-1.018-8.04-8.081-6.555-19.922s-.09-23.3,4.6-34.819c5.836-14.335,19.113-5.265,18.228,8.173s-3.729,31.338-7.481,38.464S2794.079,2511.214,2794.079,2511.214Z" transform="translate(-2787.077 -2449.202)" fill="#452b52"/>
        </g>
      </g>
      <g id="Grupo_238271" data-name="Grupo 238271" transform="translate(65.496 91.862)">
        <g id="Grupo_238268" data-name="Grupo 238268" transform="translate(0 4.547)">
          <path id="Trazado_200941" data-name="Trazado 200941" d="M2687.076,2572.181a38.375,38.375,0,0,1-13.356-1.626c-2.388-.923-1.385-2-3.139-4.224-1.971-2.5-.19-3.989,2.456-3.586,1.963.3,10,.778,15.067,1.047C2692.063,2564,2691.13,2571.81,2687.076,2572.181Z" transform="translate(-2662.079 -2561.558)" fill="#ffa280"/>
          <rect id="Rectángulo_313903" data-name="Rectángulo 313903" width="3.651" height="8.694" rx="1.825" transform="translate(3.093 3.606) rotate(-80.98)" fill="#ffa280"/>
          <path id="Trazado_200942" data-name="Trazado 200942" d="M2667.982,2573.2l5.094.893c1.007.031,1.8-1.5,1.828-2.508h0a1.826,1.826,0,0,0-1.769-1.88l-5.041-.154a1.825,1.825,0,0,0-1.88,1.768h0A1.825,1.825,0,0,0,2667.982,2573.2Z" transform="translate(-2660.133 -2565.35)" fill="#ffa280"/>
          <path id="Trazado_200943" data-name="Trazado 200943" d="M2674.552,2579l4.7-2.343a1.763,1.763,0,0,0,.625-2.415h0c-.494-.839-2.272-1.969-3.111-1.475l-4.059,3.776c-.839.494-.562,1.123-.068,1.961h0A1.2,1.2,0,0,0,2674.552,2579Z" transform="translate(-2663.42 -2567.057)" fill="#ffa280"/>
          <path id="Trazado_200944" data-name="Trazado 200944" d="M2655.4,2568.408l3.313-5.052a1.493,1.493,0,0,0-.43-2.067h0a1.493,1.493,0,0,0-2.068.43l-3.313,5.052a1.493,1.493,0,0,0,.43,2.068h0A1.493,1.493,0,0,0,2655.4,2568.408Z" transform="translate(-2652.655 -2560.656)" fill="#ffa280"/>
          <path id="Trazado_200945" data-name="Trazado 200945" d="M2657.581,2576.273l4.947-3.469a1.493,1.493,0,0,0,.365-2.08h0a1.493,1.493,0,0,0-2.08-.365l-4.947,3.469a1.493,1.493,0,0,0-.365,2.08h0A1.493,1.493,0,0,0,2657.581,2576.273Z" transform="translate(-2654.075 -2565.644)" fill="#ffa280"/>
          <path id="Trazado_200946" data-name="Trazado 200946" d="M2664.9,2585.506l4.947-3.469a1.494,1.494,0,0,0,.365-2.081h0a1.493,1.493,0,0,0-2.08-.365l-4.947,3.469a1.494,1.494,0,0,0-.366,2.08h0A1.5,1.5,0,0,0,2664.9,2585.506Z" transform="translate(-2658.114 -2570.737)" fill="#ffa280"/>
        </g>
        <path id="Trazado_200947" data-name="Trazado 200947" d="M2706.835,2577.473c-2.135-.153-6.934-3.154-6.934-3.154l1.824-9.875,5.615.313,4.333,4.291Z" transform="translate(-2678.714 -2557.985)" fill="#fff"/>
        <g id="Grupo_238270" data-name="Grupo 238270" transform="translate(22.822)">
          <g id="Grupo_238269" data-name="Grupo 238269">
            <path id="Trazado_200948" data-name="Trazado 200948" d="M2705.616,2556.527c10.244-1.3,33.222-3.243,43.225-6.487,8.205,1.969,3.693,14.055.354,16.522-9.305,5.486-30.177,6.013-45.65,4.609Z" transform="translate(-2703.545 -2550.041)" fill="#452b52"/>
          </g>
        </g>
      </g>
      <g id="Grupo_238280" data-name="Grupo 238280" transform="translate(102.731 0)">
        <path id="Trazado_200949" data-name="Trazado 200949" d="M2764.236,2349.68c-6.775-5.028-14.885-2.9-16.388,3.263a14.071,14.071,0,0,0,1.439,10.55Z" transform="translate(-2742.158 -2346.124)" fill="#452b52"/>
        <g id="Grupo_238279" data-name="Grupo 238279" transform="translate(0 0.465)">
          <path id="Trazado_200950" data-name="Trazado 200950" d="M2772.985,2371.729a14.355,14.355,0,0,0-9.961-17.689,13.851,13.851,0,0,0-17.216,9.939c-2.134,7.635,1.852,15.577,9.487,17.711S2772.129,2374.79,2772.985,2371.729Z" transform="translate(-2740.953 -2350.245)" fill="#ffa280"/>
          <path id="Trazado_200951" data-name="Trazado 200951" d="M2736.2,2371.454l3.776-3.11c.429-1.537,1.913-2.513,2.1-3.18,1.788-6.395,5.723-7.5,12.118-5.715s10.788,5.411,9,11.8c-.437,1.565-6.748,3.5-7.185,5.065-1.086,3.886-2,9.79-5.527,11.068-2.133.774-7.422,3.083-12.372,1.7-3.759-1.051-2.144-5.892-1.7-7.483a1.166,1.166,0,0,1,.293-2.018l.577-2.037c-.264-.152-.771-.528-.6-1.093a6.958,6.958,0,0,1,.885-1.57c-.13-.071-.686-.4-.686-.4C2735.753,2373.582,2735.3,2372.583,2736.2,2371.454Z" transform="translate(-2735.685 -2353.101)" fill="#ffa280"/>
          <g id="Grupo_238272" data-name="Grupo 238272" transform="translate(4.708 20.665)">
            <path id="Trazado_200952" data-name="Trazado 200952" d="M2746.345,2394.751a3.48,3.48,0,1,0,4.146-2.334,3.48,3.48,0,0,0-4.146,2.334" transform="translate(-2746.183 -2392.318)" fill="url(#radial-gradient-2)"/>
          </g>
          <g id="Grupo_238273" data-name="Grupo 238273" transform="translate(4.135 11.645)">
            <path id="Trazado_200953" data-name="Trazado 200953" d="M2745.23,2380.667a.448.448,0,0,0,.129.015.425.425,0,0,0,.41-.438,32.27,32.27,0,0,1,.615-7.5.424.424,0,1,0-.817-.229,32.433,32.433,0,0,0-.647,7.76A.425.425,0,0,0,2745.23,2380.667Z" transform="translate(-2744.906 -2372.202)" fill="#452b52"/>
          </g>
          <g id="Grupo_238274" data-name="Grupo 238274" transform="translate(5.712 14.816)">
            <path id="Trazado_200954" data-name="Trazado 200954" d="M2749.144,2379.305a.818.818,0,0,1-.441,1.576.808.808,0,0,1-.281-.142c.029-.448.065-.909.115-1.367A.818.818,0,0,1,2749.144,2379.305Z" transform="translate(-2748.422 -2379.275)" fill="#452b52"/>
          </g>
          <path id="Trazado_200955" data-name="Trazado 200955" d="M2746.055,2374.475a.313.313,0,0,1,.1-.144.317.317,0,0,1,.3-.054l18.562,6.267a.317.317,0,0,1-.2.6l-9.4-3.176a.292.292,0,0,1-.312.466l-.006,0-8.843-3.006a.291.291,0,0,1-.181-.37.286.286,0,0,1,.181-.181A.316.316,0,0,1,2746.055,2374.475Z" transform="translate(-2741.395 -2361.692)" fill="#452b52"/>
          <g id="Grupo_238275" data-name="Grupo 238275" transform="translate(22.606 6.52)">
            <circle id="Elipse_5042" data-name="Elipse 5042" cx="3.545" cy="3.545" r="3.545" transform="matrix(0.958, -0.287, 0.287, 0.958, 0, 2.037)" fill="#452b52"/>
          </g>
          <g id="Grupo_238276" data-name="Grupo 238276" transform="translate(20.583)">
            <path id="Trazado_200956" data-name="Trazado 200956" d="M2783.476,2346.236c9.376,2.62,15.785,7.18,14.012,16.627-2.04,10.875-10.916,10.631-12.467,16.18l-.758-.211-.009-.025a10.544,10.544,0,0,1-.2-6.32l1.192-4.265a2,2,0,0,0-1.386-2.46h0a1.994,1.994,0,0,0-1.686.293c-.228-.951-.591-1.013-.591-1.013l1.468-10.467Z" transform="translate(-2781.583 -2346.236)" fill="#452b52"/>
          </g>
          <g id="Grupo_238278" data-name="Grupo 238278" transform="translate(19.142 18.157)">
            <g id="Grupo_238277" data-name="Grupo 238277">
              <path id="Trazado_200957" data-name="Trazado 200957" d="M2778.417,2392.36a1.249,1.249,0,0,0,1.311,1.584,2.823,2.823,0,0,0,1.9-1.008l1.382-1.661a2.834,2.834,0,0,0-1.076-4.42,1.712,1.712,0,0,0-2.3,1.135Z" transform="translate(-2778.37 -2386.724)" fill="#fc9673"/>
              <path id="Trazado_200958" data-name="Trazado 200958" d="M2780.7,2393.554a1.914,1.914,0,0,0,1.926-.636l.934-1.123a1.915,1.915,0,0,0-1.491-3.139Z" transform="translate(-2779.656 -2387.789)" fill="#ffa280"/>
            </g>
          </g>
        </g>
        <path id="Trazado_200959" data-name="Trazado 200959" d="M2776.246,2365.3c6.459-7.189,3.115-16.806-7.023-19.64-4.467-1.249-8.973.091-11.327,3.13-3.831,4.946-1.385,11.982-1.385,11.982s-.136-8.54,6.063-9.33,11.124,2.063,13.086,6.231A10.23,10.23,0,0,1,2776.246,2365.3Z" transform="translate(-2746.747 -2345.198)" fill="#452b52"/>
        <path id="Trazado_200960" data-name="Trazado 200960" d="M2776.122,2369.151c-.084-.458,2.042-2.991,1.917-3.488-1.782-7.074-8.307-8.1-11.465-7.882-5.139.362-5.341,5.82-5.341,5.82s2.3-3.908,5.809-2.208c2.745,1.331,3.887,4.159,3.513,8.234,0,0,3.354.611,5.51-.448Z" transform="translate(-2749.776 -2352.123)" fill="#452b52"/>
        <path id="Trazado_200961" data-name="Trazado 200961" d="M2738.537,2400.756a15.9,15.9,0,0,0,3.056.5.472.472,0,0,1,.206.881,5.213,5.213,0,0,1-3.84.659Z" transform="translate(-2736.94 -2375.841)" fill="#fff"/>
      </g>
    </g>
    <g id="Grupo_238286" data-name="Grupo 238286" transform="translate(2148.901 2289.76)">
      <g id="Grupo_238282" data-name="Grupo 238282" transform="translate(0 0)">
        <path id="Trazado_200962" data-name="Trazado 200962" d="M2478.2,2597.541H2278.309a.7.7,0,0,1,0-1.4H2478.2a.7.7,0,1,1,0,1.4Z" transform="translate(-2277.607 -2596.137)" fill="#8198cc"/>
      </g>
      <g id="Grupo_238284" data-name="Grupo 238284" transform="translate(172.401 0)">
        <g id="Grupo_238283" data-name="Grupo 238283">
          <path id="Trazado_200963" data-name="Trazado 200963" d="M2676.185,2722.225a.7.7,0,0,1-.7-.626l-13.441-124.685a.7.7,0,1,1,1.4-.15l13.44,124.685a.7.7,0,0,1-.622.773A.67.67,0,0,1,2676.185,2722.225Z" transform="translate(-2662.042 -2596.137)" fill="#8198cc"/>
        </g>
      </g>
      <g id="Grupo_238285" data-name="Grupo 238285" transform="translate(12.162 0)">
        <path id="Trazado_200964" data-name="Trazado 200964" d="M2305.43,2722.226a.66.66,0,0,1-.076,0,.7.7,0,0,1-.623-.773l13.441-124.685a.7.7,0,1,1,1.4.15L2306.127,2721.6A.7.7,0,0,1,2305.43,2722.226Z" transform="translate(-2304.727 -2596.137)" fill="#8198cc"/>
      </g>
    </g>
  </g>
</svg>
