<svg xmlns="http://www.w3.org/2000/svg" xmlns:xlink="http://www.w3.org/1999/xlink" width="610.201" height="616.196" viewBox="0 0 610.201 616.196">
  <defs>
    <linearGradient id="linear-gradient" x1="-0.01" y1="0.5" x2="0.994" y2="0.5" gradientUnits="objectBoundingBox">
      <stop offset="0" stop-color="#b6a6eb"/>
      <stop offset="1" stop-color="#fba6ee"/>
    </linearGradient>
  </defs>
  <g id="Grupo_240998" data-name="Grupo 240998" transform="translate(-495 -2801)">
    <g id="Grupo_239554" data-name="Grupo 239554" transform="translate(583.086 2892.093)">
      <g id="Grupo_239553" data-name="Grupo 239553">
        <path id="Trazado_231297" data-name="Trazado 231297" d="M466.105,593.019c-119.607,0-216.914-97.307-216.914-216.914S346.5,159.191,466.105,159.191,683.019,256.5,683.019,376.105,585.711,593.019,466.105,593.019Zm0-418.36c-111.077,0-201.446,90.368-201.446,201.446s90.368,201.446,201.446,201.446,201.446-90.368,201.446-201.446S577.183,174.659,466.105,174.659Z" transform="translate(-249.191 -159.191)" fill="url(#linear-gradient)"/>
      </g>
    </g>
    <path id="Trazado_231298" data-name="Trazado 231298" d="M544.759,406.539l-43.991-43.994V300.331l43.994-43.991,62.217,0,43.991,43.991v62.217l-43.994,43.991Z" transform="translate(454.231 2779.659)" fill="#e4e4ff"/>
    <path id="Trazado_231299" data-name="Trazado 231299" d="M283.415,511.852l-43.991-44V405.644l43.991-43.992h62.219l43.992,43.992v62.213l-43.992,44Z" transform="translate(329.576 2829.349)" fill="#fba6ee"/>
    <path id="Trazado_231300" data-name="Trazado 231300" d="M556.321,298.127H494.1l-43.988-43.993V191.915l43.993-43.99h62.218l43.99,44,0,62.212Z" transform="translate(429.885 2727.075)" fill="#bebeff"/>
    <path id="Trazado_231301" data-name="Trazado 231301" d="M388.726,563.336l-43.994-43.991V457.13l43.994-43.991H450.94l43.994,43.991v62.211L450.94,563.336" transform="translate(379.268 2853.86)" fill="#a6ebff"/>
    <path id="Trazado_231302" data-name="Trazado 231302" d="M450.115,467.863V405.645L494.1,361.652h62.218l43.993,43.993,0,62.212-43.99,44H494.108Z" transform="translate(429.885 2829.348)" fill="#baefff"/>
    <path id="Trazado_231303" data-name="Trazado 231303" d="M189.574,300.333l43.992-43.992h62.219l43.991,44v62.21l-43.995,43.992H233.566l-43.992-43.992" transform="translate(305.426 2779.659)" fill="#e1d9f7"/>
    <path id="Trazado_231304" data-name="Trazado 231304" d="M239.424,254.135V191.918l43.992-43.992h62.219l43.991,44v62.21l-43.995,43.992H283.416Z" transform="translate(329.576 2727.073)" fill="#b6a6eb"/>
    <path id="Trazado_233378" data-name="Trazado 233378" d="M-.378,0H-9.149V-1.74l4.14-4.412A10.212,10.212,0,0,0-3.749-7.778,2.612,2.612,0,0,0-3.34-9.1a1.955,1.955,0,0,0-.431-1.34A1.555,1.555,0,0,0-5-10.925a1.677,1.677,0,0,0-1.358.593,2.35,2.35,0,0,0-.5,1.56H-9.4a4.2,4.2,0,0,1,.558-2.136,3.934,3.934,0,0,1,1.578-1.516,4.8,4.8,0,0,1,2.312-.549,4.54,4.54,0,0,1,3.072.949A3.358,3.358,0,0,1-.791-9.343a4.3,4.3,0,0,1-.492,1.934A10.745,10.745,0,0,1-2.971-5.115L-5.88-2.048h5.5ZM1.415-1.248a1.279,1.279,0,0,1,.409-.984A1.45,1.45,0,0,1,2.848-2.61a1.462,1.462,0,0,1,1.033.378,1.279,1.279,0,0,1,.409.984,1.261,1.261,0,0,1-.4.971A1.468,1.468,0,0,1,2.848.1,1.456,1.456,0,0,1,1.819-.277,1.261,1.261,0,0,1,1.415-1.248ZM-46.982,21h-2.637V8.2h2.637Zm4.614-9.51.079,1.1a3.32,3.32,0,0,1,2.733-1.274,2.759,2.759,0,0,1,2.25.888,4.142,4.142,0,0,1,.756,2.654V21h-2.54V14.918a1.648,1.648,0,0,0-.352-1.173,1.574,1.574,0,0,0-1.169-.365,1.747,1.747,0,0,0-1.608.914V21h-2.54V11.49Zm10.784-2.338V11.49h1.626v1.863h-1.626V18.1a1.133,1.133,0,0,0,.2.756,1.015,1.015,0,0,0,.773.229,4.051,4.051,0,0,0,.747-.062v1.925a5.229,5.229,0,0,1-1.538.229,2.425,2.425,0,0,1-2.725-2.7V13.354h-1.389V11.49h1.389V9.152Zm8.385,4.72a6.9,6.9,0,0,0-.914-.07,1.86,1.86,0,0,0-1.89.976V21h-2.54V11.49h2.4l.07,1.134a2.354,2.354,0,0,1,2.118-1.31,2.662,2.662,0,0,1,.791.114Zm.51,2.285a5.64,5.64,0,0,1,.545-2.522,3.989,3.989,0,0,1,1.569-1.714,4.577,4.577,0,0,1,2.377-.606,4.33,4.33,0,0,1,3.142,1.178,4.727,4.727,0,0,1,1.358,3.2l.018.65A4.97,4.97,0,0,1-14.9,19.853a4.247,4.247,0,0,1-3.278,1.323,4.268,4.268,0,0,1-3.283-1.318,5.058,5.058,0,0,1-1.226-3.586Zm2.54.18a3.555,3.555,0,0,0,.51,2.073,1.682,1.682,0,0,0,1.459.717,1.686,1.686,0,0,0,1.441-.709,3.89,3.89,0,0,0,.519-2.267,3.519,3.519,0,0,0-.519-2.06,1.686,1.686,0,0,0-1.459-.731,1.658,1.658,0,0,0-1.441.726A3.955,3.955,0,0,0-20.149,16.338Zm7.638-.163a5.731,5.731,0,0,1,1-3.542,3.237,3.237,0,0,1,2.729-1.318,2.913,2.913,0,0,1,2.294,1.037V7.5h2.549V21H-6.236l-.123-1.011A2.989,2.989,0,0,1-8.8,21.176,3.228,3.228,0,0,1-11.5,19.853,5.916,5.916,0,0,1-12.511,16.175Zm2.54.189a3.754,3.754,0,0,0,.466,2.051,1.517,1.517,0,0,0,1.354.713,1.7,1.7,0,0,0,1.661-.995V14.375a1.675,1.675,0,0,0-1.644-.995Q-9.971,13.38-9.971,16.364ZM3.722,20.033a3.185,3.185,0,0,1-2.6,1.143A3,3,0,0,1-1.213,20.3a3.752,3.752,0,0,1-.822-2.575V11.49H.505v6.151q0,1.487,1.354,1.487a1.834,1.834,0,0,0,1.775-.9V11.49H6.183V21H3.792Zm8.332-.905a1.666,1.666,0,0,0,1.143-.387,1.355,1.355,0,0,0,.457-1.028h2.382a3.258,3.258,0,0,1-.527,1.771,3.48,3.48,0,0,1-1.419,1.248,4.442,4.442,0,0,1-1.991.444,4.129,4.129,0,0,1-3.217-1.3A5.13,5.13,0,0,1,7.7,16.3v-.167a5.071,5.071,0,0,1,1.169-3.507,4.08,4.08,0,0,1,3.208-1.31,4,4,0,0,1,2.861,1.015,3.594,3.594,0,0,1,1.094,2.7H13.654a1.745,1.745,0,0,0-.457-1.206,1.524,1.524,0,0,0-1.16-.464,1.53,1.53,0,0,0-1.34.647,3.749,3.749,0,0,0-.453,2.1v.264a3.8,3.8,0,0,0,.448,2.113A1.549,1.549,0,0,0,12.054,19.128Zm9.387,0a1.666,1.666,0,0,0,1.143-.387,1.355,1.355,0,0,0,.457-1.028h2.382a3.258,3.258,0,0,1-.527,1.771,3.48,3.48,0,0,1-1.419,1.248,4.442,4.442,0,0,1-1.991.444,4.129,4.129,0,0,1-3.217-1.3A5.13,5.13,0,0,1,17.09,16.3v-.167a5.071,5.071,0,0,1,1.169-3.507,4.08,4.08,0,0,1,3.208-1.31,4,4,0,0,1,2.861,1.015,3.594,3.594,0,0,1,1.094,2.7H23.041a1.745,1.745,0,0,0-.457-1.206,1.7,1.7,0,0,0-2.5.183,3.749,3.749,0,0,0-.453,2.1v.264a3.8,3.8,0,0,0,.448,2.113A1.549,1.549,0,0,0,21.441,19.128ZM29.553,21H27V11.49h2.549Zm-2.7-11.971a1.251,1.251,0,0,1,.382-.94,1.648,1.648,0,0,1,2.079,0,1.342,1.342,0,0,1,0,1.89,1.629,1.629,0,0,1-2.065,0A1.247,1.247,0,0,1,26.855,9.029Zm4.395,7.128a5.64,5.64,0,0,1,.545-2.522,3.989,3.989,0,0,1,1.569-1.714,4.577,4.577,0,0,1,2.377-.606,4.33,4.33,0,0,1,3.142,1.178,4.727,4.727,0,0,1,1.358,3.2l.018.65a4.97,4.97,0,0,1-1.222,3.511,4.247,4.247,0,0,1-3.278,1.323,4.268,4.268,0,0,1-3.283-1.318,5.058,5.058,0,0,1-1.226-3.586Zm2.54.18a3.555,3.555,0,0,0,.51,2.073,1.831,1.831,0,0,0,2.9.009,3.89,3.89,0,0,0,.519-2.267,3.519,3.519,0,0,0-.519-2.06,1.686,1.686,0,0,0-1.459-.731,1.658,1.658,0,0,0-1.441.726A3.955,3.955,0,0,0,33.79,16.338ZM36.242,7.5H39.01l-2.435,2.725H34.51Zm7.919,3.99.079,1.1a3.32,3.32,0,0,1,2.733-1.274,2.759,2.759,0,0,1,2.25.888,4.142,4.142,0,0,1,.756,2.654V21h-2.54V14.918a1.648,1.648,0,0,0-.352-1.173,1.574,1.574,0,0,0-1.169-.365,1.747,1.747,0,0,0-1.608.914V21H41.77V11.49Z" transform="translate(955 2947)"/>
    <path id="Trazado_233382" data-name="Trazado 233382" d="M-4.324-7.523h1.354a1.907,1.907,0,0,0,1.433-.483A1.771,1.771,0,0,0-1.072-9.29a1.566,1.566,0,0,0-.461-1.2,1.788,1.788,0,0,0-1.27-.431,1.874,1.874,0,0,0-1.222.4,1.279,1.279,0,0,0-.492,1.042h-2.54a3.124,3.124,0,0,1,.541-1.8,3.6,3.6,0,0,1,1.512-1.244,5.045,5.045,0,0,1,2.14-.448A4.785,4.785,0,0,1,.316-12,3.314,3.314,0,0,1,1.468-9.325,2.693,2.693,0,0,1,.932-7.708,3.483,3.483,0,0,1-.475-6.574a3.18,3.18,0,0,1,1.613,1.16A3.147,3.147,0,0,1,1.67-3.586,3.369,3.369,0,0,1,.426-.853,5,5,0,0,1-2.865.176,4.741,4.741,0,0,1-6-.835,3.3,3.3,0,0,1-7.216-3.507h2.54a1.472,1.472,0,0,0,.541,1.178A1.992,1.992,0,0,0-2.8-1.872a2,2,0,0,0,1.419-.479A1.654,1.654,0,0,0-.87-3.621q0-1.916-2.109-1.916H-4.324Zm7.98,6.275a1.279,1.279,0,0,1,.409-.984A1.45,1.45,0,0,1,5.089-2.61a1.462,1.462,0,0,1,1.033.378,1.279,1.279,0,0,1,.409.984,1.261,1.261,0,0,1-.4.971A1.468,1.468,0,0,1,5.089.1,1.456,1.456,0,0,1,4.061-.277,1.261,1.261,0,0,1,3.656-1.248ZM-47.4,21h-2.637V8.2H-47.4Zm4.614-9.51.079,1.1a3.32,3.32,0,0,1,2.733-1.274,2.759,2.759,0,0,1,2.25.888,4.142,4.142,0,0,1,.756,2.654V21H-39.5V14.918a1.648,1.648,0,0,0-.352-1.173,1.574,1.574,0,0,0-1.169-.365,1.747,1.747,0,0,0-1.608.914V21h-2.54V11.49Zm7.348,4.685a5.731,5.731,0,0,1,1-3.542,3.237,3.237,0,0,1,2.729-1.318,2.913,2.913,0,0,1,2.294,1.037V7.5h2.549V21h-2.294l-.123-1.011a2.989,2.989,0,0,1-2.443,1.187,3.228,3.228,0,0,1-2.694-1.323A5.916,5.916,0,0,1-35.433,16.175Zm2.54.189a3.754,3.754,0,0,0,.466,2.051,1.517,1.517,0,0,0,1.354.713,1.7,1.7,0,0,0,1.661-.995V14.375a1.675,1.675,0,0,0-1.644-.995Q-32.893,13.38-32.893,16.364ZM-22.214,21h-2.549V11.49h2.549Zm-2.7-11.971a1.251,1.251,0,0,1,.382-.94,1.436,1.436,0,0,1,1.042-.369,1.44,1.44,0,0,1,1.037.369,1.244,1.244,0,0,1,.387.94,1.247,1.247,0,0,1-.391.949,1.443,1.443,0,0,1-1.033.369,1.443,1.443,0,0,1-1.033-.369A1.247,1.247,0,0,1-24.913,9.029Zm8.745,10.1a1.666,1.666,0,0,0,1.143-.387,1.355,1.355,0,0,0,.457-1.028h2.382a3.258,3.258,0,0,1-.527,1.771,3.48,3.48,0,0,1-1.419,1.248,4.442,4.442,0,0,1-1.991.444,4.129,4.129,0,0,1-3.217-1.3A5.13,5.13,0,0,1-20.518,16.3v-.167a5.071,5.071,0,0,1,1.169-3.507,4.08,4.08,0,0,1,3.208-1.31A4,4,0,0,1-13.28,12.33a3.594,3.594,0,0,1,1.094,2.7h-2.382a1.745,1.745,0,0,0-.457-1.206,1.524,1.524,0,0,0-1.16-.464,1.53,1.53,0,0,0-1.34.647,3.749,3.749,0,0,0-.453,2.1v.264a3.8,3.8,0,0,0,.448,2.113A1.549,1.549,0,0,0-16.167,19.128ZM-5.225,21a2.821,2.821,0,0,1-.255-.853,3.073,3.073,0,0,1-2.4,1.028,3.376,3.376,0,0,1-2.316-.809,2.6,2.6,0,0,1-.918-2.039,2.687,2.687,0,0,1,1.121-2.32,5.529,5.529,0,0,1,3.239-.817h1.169v-.545a1.567,1.567,0,0,0-.338-1.055,1.331,1.331,0,0,0-1.068-.4A1.513,1.513,0,0,0-8,13.5a1.045,1.045,0,0,0-.365.844H-10.9a2.551,2.551,0,0,1,.51-1.529,3.37,3.37,0,0,1,1.441-1.1,5.253,5.253,0,0,1,2.092-.4,4.15,4.15,0,0,1,2.791.883,3.09,3.09,0,0,1,1.033,2.483V18.8a4.546,4.546,0,0,0,.378,2.048V21Zm-2.1-1.767a2.188,2.188,0,0,0,1.037-.25,1.645,1.645,0,0,0,.7-.672V16.676h-.949q-1.907,0-2.03,1.318l-.009.149a1.017,1.017,0,0,0,.334.782A1.3,1.3,0,0,0-7.326,19.233Zm10.2-.105a1.666,1.666,0,0,0,1.143-.387,1.355,1.355,0,0,0,.457-1.028H6.851a3.258,3.258,0,0,1-.527,1.771A3.48,3.48,0,0,1,4.9,20.732a4.442,4.442,0,0,1-1.991.444A4.129,4.129,0,0,1-.3,19.879,5.13,5.13,0,0,1-1.481,16.3v-.167A5.071,5.071,0,0,1-.312,12.624,4.08,4.08,0,0,1,2.9,11.314,4,4,0,0,1,5.757,12.33a3.594,3.594,0,0,1,1.094,2.7H4.469a1.745,1.745,0,0,0-.457-1.206,1.524,1.524,0,0,0-1.16-.464,1.53,1.53,0,0,0-1.34.647,3.749,3.749,0,0,0-.453,2.1v.264a3.8,3.8,0,0,0,.448,2.113A1.549,1.549,0,0,0,2.87,19.128ZM10.982,21H8.433V11.49h2.549ZM8.284,9.029a1.251,1.251,0,0,1,.382-.94A1.436,1.436,0,0,1,9.708,7.72a1.44,1.44,0,0,1,1.037.369,1.342,1.342,0,0,1,0,1.89,1.443,1.443,0,0,1-1.033.369,1.443,1.443,0,0,1-1.033-.369A1.247,1.247,0,0,1,8.284,9.029Zm4.395,7.128a5.64,5.64,0,0,1,.545-2.522,3.989,3.989,0,0,1,1.569-1.714,4.577,4.577,0,0,1,2.377-.606,4.33,4.33,0,0,1,3.142,1.178,4.727,4.727,0,0,1,1.358,3.2l.018.65a4.97,4.97,0,0,1-1.222,3.511,4.247,4.247,0,0,1-3.278,1.323A4.268,4.268,0,0,1,13.9,19.857a5.058,5.058,0,0,1-1.226-3.586Zm2.54.18a3.555,3.555,0,0,0,.51,2.073,1.831,1.831,0,0,0,2.9.009,3.89,3.89,0,0,0,.519-2.267,3.519,3.519,0,0,0-.519-2.06,1.686,1.686,0,0,0-1.459-.731,1.658,1.658,0,0,0-1.441.726A3.955,3.955,0,0,0,15.218,16.338ZM25.589,11.49l.079,1.1A3.32,3.32,0,0,1,28.4,11.314a2.759,2.759,0,0,1,2.25.888,4.142,4.142,0,0,1,.756,2.654V21h-2.54V14.918a1.648,1.648,0,0,0-.352-1.173,1.574,1.574,0,0,0-1.169-.365,1.747,1.747,0,0,0-1.608.914V21H23.2V11.49Zm12.12,9.686A4.668,4.668,0,0,1,34.3,19.893a4.561,4.561,0,0,1-1.314-3.419v-.246a5.745,5.745,0,0,1,.554-2.562,4.064,4.064,0,0,1,1.569-1.74,4.4,4.4,0,0,1,2.316-.611,3.947,3.947,0,0,1,3.072,1.23,5,5,0,0,1,1.121,3.489v1.037H35.565a2.36,2.36,0,0,0,.743,1.494,2.245,2.245,0,0,0,1.569.563,2.742,2.742,0,0,0,2.294-1.063l1.248,1.4a3.813,3.813,0,0,1-1.547,1.261A5.075,5.075,0,0,1,37.709,21.176Zm-.29-7.813a1.587,1.587,0,0,0-1.226.512,2.651,2.651,0,0,0-.6,1.466h3.533v-.2a1.891,1.891,0,0,0-.457-1.311A1.638,1.638,0,0,0,37.419,13.362Zm10.793,5.01a.818.818,0,0,0-.461-.734,5.241,5.241,0,0,0-1.481-.479q-3.393-.712-3.393-2.883a2.613,2.613,0,0,1,1.05-2.114,4.237,4.237,0,0,1,2.747-.848,4.56,4.56,0,0,1,2.9.853,2.687,2.687,0,0,1,1.085,2.215h-2.54a1.229,1.229,0,0,0-.352-.9,1.488,1.488,0,0,0-1.1-.356,1.52,1.52,0,0,0-.993.29.916.916,0,0,0-.352.738.783.783,0,0,0,.4.681,4.114,4.114,0,0,0,1.349.448,11.019,11.019,0,0,1,1.6.426,2.628,2.628,0,0,1,2.013,2.558,2.481,2.481,0,0,1-1.116,2.1,4.815,4.815,0,0,1-2.883.8,5.029,5.029,0,0,1-2.123-.426,3.561,3.561,0,0,1-1.455-1.169,2.716,2.716,0,0,1-.527-1.6h2.408a1.326,1.326,0,0,0,.5,1.037,1.987,1.987,0,0,0,1.248.36,1.839,1.839,0,0,0,1.1-.277A.861.861,0,0,0,48.212,18.372ZM-41.155,32.49l.079,1.063a3.342,3.342,0,0,1,2.733-1.239,2.536,2.536,0,0,1,2.522,1.45,3.265,3.265,0,0,1,2.856-1.45,2.836,2.836,0,0,1,2.3.9,4.141,4.141,0,0,1,.756,2.711V42h-2.549V35.936a1.811,1.811,0,0,0-.316-1.182,1.4,1.4,0,0,0-1.116-.374,1.585,1.585,0,0,0-1.582,1.09l.009,6.53H-38V35.944a1.789,1.789,0,0,0-.325-1.2,1.416,1.416,0,0,0-1.107-.369,1.646,1.646,0,0,0-1.564.9V42h-2.54V32.49ZM-22.443,42a2.821,2.821,0,0,1-.255-.853,3.073,3.073,0,0,1-2.4,1.028,3.376,3.376,0,0,1-2.316-.809,2.6,2.6,0,0,1-.918-2.039,2.687,2.687,0,0,1,1.121-2.32,5.529,5.529,0,0,1,3.239-.817H-22.8v-.545a1.567,1.567,0,0,0-.338-1.055,1.331,1.331,0,0,0-1.068-.4,1.513,1.513,0,0,0-1.006.308,1.045,1.045,0,0,0-.365.844h-2.54a2.551,2.551,0,0,1,.51-1.529,3.37,3.37,0,0,1,1.441-1.1,5.253,5.253,0,0,1,2.092-.4,4.15,4.15,0,0,1,2.791.883,3.09,3.09,0,0,1,1.033,2.483V39.8a4.546,4.546,0,0,0,.378,2.048V42Zm-2.1-1.767a2.188,2.188,0,0,0,1.037-.25,1.645,1.645,0,0,0,.7-.672V37.676h-.949q-1.907,0-2.03,1.318l-.009.149a1.017,1.017,0,0,0,.334.782A1.3,1.3,0,0,0-24.543,40.233Zm8.578-7.743.079,1.1a3.32,3.32,0,0,1,2.733-1.274,2.759,2.759,0,0,1,2.25.888,4.142,4.142,0,0,1,.756,2.654V42h-2.54V35.918a1.648,1.648,0,0,0-.352-1.173,1.574,1.574,0,0,0-1.169-.365,1.747,1.747,0,0,0-1.608.914V42h-2.54V32.49Zm12.12,9.686a4.668,4.668,0,0,1-3.406-1.283,4.561,4.561,0,0,1-1.314-3.419v-.246a5.745,5.745,0,0,1,.554-2.562,4.064,4.064,0,0,1,1.569-1.74,4.4,4.4,0,0,1,2.316-.611,3.947,3.947,0,0,1,3.072,1.23A5,5,0,0,1,.066,37.034v1.037H-5.99a2.36,2.36,0,0,0,.743,1.494,2.245,2.245,0,0,0,1.569.563,2.742,2.742,0,0,0,2.294-1.063l1.248,1.4a3.813,3.813,0,0,1-1.547,1.261A5.075,5.075,0,0,1-3.845,42.176Zm-.29-7.813a1.587,1.587,0,0,0-1.226.512,2.651,2.651,0,0,0-.6,1.466H-2.43v-.2a1.891,1.891,0,0,0-.457-1.311A1.638,1.638,0,0,0-4.135,34.362ZM4.2,32.49V42.519a3.4,3.4,0,0,1-.835,2.448,3.174,3.174,0,0,1-2.408.875A5.165,5.165,0,0,1-.3,45.691V43.679a4.768,4.768,0,0,0,.8.079q1.151,0,1.151-1.222V32.49ZM1.446,30.029a1.251,1.251,0,0,1,.382-.94A1.436,1.436,0,0,1,2.87,28.72a1.436,1.436,0,0,1,1.042.369,1.348,1.348,0,0,1-.009,1.89,1.443,1.443,0,0,1-1.033.369,1.443,1.443,0,0,1-1.033-.369A1.247,1.247,0,0,1,1.446,30.029Zm4.342,7.128a5.64,5.64,0,0,1,.545-2.522A3.989,3.989,0,0,1,7.9,32.921a4.577,4.577,0,0,1,2.377-.606,4.33,4.33,0,0,1,3.142,1.178,4.727,4.727,0,0,1,1.358,3.2l.018.65a4.97,4.97,0,0,1-1.222,3.511A4.247,4.247,0,0,1,10.3,42.176a4.268,4.268,0,0,1-3.283-1.318,5.058,5.058,0,0,1-1.226-3.586Zm2.54.18a3.555,3.555,0,0,0,.51,2.073,1.682,1.682,0,0,0,1.459.717,1.686,1.686,0,0,0,1.441-.709,3.89,3.89,0,0,0,.519-2.267,3.519,3.519,0,0,0-.519-2.06,1.686,1.686,0,0,0-1.459-.731,1.658,1.658,0,0,0-1.441.726A3.955,3.955,0,0,0,8.328,37.338Zm12.12-.163a5.731,5.731,0,0,1,1-3.542,3.237,3.237,0,0,1,2.729-1.318,2.913,2.913,0,0,1,2.294,1.037V28.5h2.549V42H26.723L26.6,40.989a2.989,2.989,0,0,1-2.443,1.187,3.228,3.228,0,0,1-2.694-1.323A5.916,5.916,0,0,1,20.448,37.175Zm2.54.189a3.754,3.754,0,0,0,.466,2.051,1.517,1.517,0,0,0,1.354.713,1.7,1.7,0,0,0,1.661-.995V35.375a1.675,1.675,0,0,0-1.644-.995Q22.988,34.38,22.988,37.364Zm12.375,4.812a4.668,4.668,0,0,1-3.406-1.283,4.561,4.561,0,0,1-1.314-3.419v-.246a5.745,5.745,0,0,1,.554-2.562,4.064,4.064,0,0,1,1.569-1.74,4.4,4.4,0,0,1,2.316-.611,3.947,3.947,0,0,1,3.072,1.23,5,5,0,0,1,1.121,3.489v1.037H33.218a2.36,2.36,0,0,0,.743,1.494,2.245,2.245,0,0,0,1.569.563,2.742,2.742,0,0,0,2.294-1.063l1.248,1.4a3.813,3.813,0,0,1-1.547,1.261A5.075,5.075,0,0,1,35.363,42.176Zm-.29-7.813a1.587,1.587,0,0,0-1.226.512,2.651,2.651,0,0,0-.6,1.466h3.533v-.2a1.891,1.891,0,0,0-.457-1.311A1.638,1.638,0,0,0,35.073,34.362ZM43.4,42H40.847V28.5H43.4ZM-34.37,60.372a.818.818,0,0,0-.461-.734,5.241,5.241,0,0,0-1.481-.479q-3.393-.712-3.393-2.883a2.613,2.613,0,0,1,1.05-2.114,4.237,4.237,0,0,1,2.747-.848,4.56,4.56,0,0,1,2.9.853,2.687,2.687,0,0,1,1.085,2.215h-2.54a1.229,1.229,0,0,0-.352-.9,1.488,1.488,0,0,0-1.1-.356,1.52,1.52,0,0,0-.993.29.916.916,0,0,0-.352.738.783.783,0,0,0,.4.681,4.114,4.114,0,0,0,1.349.448,11.019,11.019,0,0,1,1.6.426A2.628,2.628,0,0,1-31.9,60.267a2.481,2.481,0,0,1-1.116,2.1,4.815,4.815,0,0,1-2.883.8,5.029,5.029,0,0,1-2.123-.426,3.561,3.561,0,0,1-1.455-1.169,2.716,2.716,0,0,1-.527-1.6H-37.6a1.326,1.326,0,0,0,.5,1.037,1.987,1.987,0,0,0,1.248.36,1.839,1.839,0,0,0,1.1-.277A.861.861,0,0,0-34.37,60.372ZM-27.584,63h-2.549V53.49h2.549Zm-2.7-11.971a1.251,1.251,0,0,1,.382-.94,1.436,1.436,0,0,1,1.042-.369,1.44,1.44,0,0,1,1.037.369,1.244,1.244,0,0,1,.387.94,1.247,1.247,0,0,1-.391.949,1.443,1.443,0,0,1-1.033.369,1.443,1.443,0,0,1-1.033-.369A1.247,1.247,0,0,1-30.283,51.029Zm7.172,2.461.079,1.063A3.342,3.342,0,0,1-20.3,53.314a2.536,2.536,0,0,1,2.522,1.45,3.265,3.265,0,0,1,2.856-1.45,2.836,2.836,0,0,1,2.3.9,4.141,4.141,0,0,1,.756,2.711V63H-14.41V56.936a1.811,1.811,0,0,0-.316-1.182,1.4,1.4,0,0,0-1.116-.374,1.585,1.585,0,0,0-1.582,1.09l.009,6.53h-2.54V56.944a1.789,1.789,0,0,0-.325-1.2,1.416,1.416,0,0,0-1.107-.369,1.646,1.646,0,0,0-1.564.9V63h-2.54V53.49Zm18.9,8.543a3.185,3.185,0,0,1-2.6,1.143A3,3,0,0,1-9.149,62.3a3.752,3.752,0,0,1-.822-2.575V53.49h2.54v6.151q0,1.487,1.354,1.487a1.834,1.834,0,0,0,1.775-.9V53.49h2.549V63H-4.144ZM2.843,63H.294V49.5H2.843Zm7.6,0a2.821,2.821,0,0,1-.255-.853,3.073,3.073,0,0,1-2.4,1.028,3.376,3.376,0,0,1-2.316-.809,2.6,2.6,0,0,1-.918-2.039,2.687,2.687,0,0,1,1.121-2.32,5.529,5.529,0,0,1,3.239-.817h1.169v-.545a1.567,1.567,0,0,0-.338-1.055,1.331,1.331,0,0,0-1.068-.4,1.513,1.513,0,0,0-1.006.308,1.045,1.045,0,0,0-.365.844H4.768a2.551,2.551,0,0,1,.51-1.529,3.37,3.37,0,0,1,1.441-1.1,5.253,5.253,0,0,1,2.092-.4A4.15,4.15,0,0,1,11.6,54.2a3.09,3.09,0,0,1,1.033,2.483V60.8a4.546,4.546,0,0,0,.378,2.048V63Zm-2.1-1.767a2.188,2.188,0,0,0,1.037-.25,1.645,1.645,0,0,0,.7-.672V58.676H9.136q-1.907,0-2.03,1.318l-.009.149a1.017,1.017,0,0,0,.334.782A1.3,1.3,0,0,0,8.345,61.233Zm5.845-3.059a5.731,5.731,0,0,1,1-3.542,3.237,3.237,0,0,1,2.729-1.318,2.913,2.913,0,0,1,2.294,1.037V49.5h2.549V63H20.465l-.123-1.011A2.989,2.989,0,0,1,17.9,63.176a3.228,3.228,0,0,1-2.694-1.323A5.916,5.916,0,0,1,14.19,58.175Zm2.54.189a3.754,3.754,0,0,0,.466,2.051,1.517,1.517,0,0,0,1.354.713,1.7,1.7,0,0,0,1.661-.995V56.375a1.675,1.675,0,0,0-1.644-.995Q16.73,55.38,16.73,58.364Zm7.6-.207a5.64,5.64,0,0,1,.545-2.522,3.989,3.989,0,0,1,1.569-1.714,4.577,4.577,0,0,1,2.377-.606,4.33,4.33,0,0,1,3.142,1.178,4.727,4.727,0,0,1,1.358,3.2l.018.65a4.97,4.97,0,0,1-1.222,3.511,4.247,4.247,0,0,1-3.278,1.323,4.268,4.268,0,0,1-3.283-1.318,5.058,5.058,0,0,1-1.226-3.586Zm2.54.18a3.555,3.555,0,0,0,.51,2.073,1.831,1.831,0,0,0,2.9.009,3.89,3.89,0,0,0,.519-2.267,3.519,3.519,0,0,0-.519-2.06,1.686,1.686,0,0,0-1.459-.731,1.658,1.658,0,0,0-1.441.726A3.955,3.955,0,0,0,26.873,58.338ZM40.25,55.872a6.9,6.9,0,0,0-.914-.07,1.86,1.86,0,0,0-1.89.976V63h-2.54V53.49h2.4l.07,1.134a2.354,2.354,0,0,1,2.118-1.31,2.662,2.662,0,0,1,.791.114Z" transform="translate(1030 3086)"/>
    <path id="Trazado_233383" data-name="Trazado 233383" d="M.606-4.816h1.45v2.048H.606V0h-2.54V-2.769H-7.181l-.114-1.6L-1.96-12.8H.606Zm-5.37,0h2.83V-9.334l-.167.29Zm8.42,3.568a1.279,1.279,0,0,1,.409-.984A1.45,1.45,0,0,1,5.089-2.61a1.462,1.462,0,0,1,1.033.378,1.279,1.279,0,0,1,.409.984,1.261,1.261,0,0,1-.4.971A1.468,1.468,0,0,1,5.089.1,1.456,1.456,0,0,1,4.061-.277,1.261,1.261,0,0,1,3.656-1.248ZM-14.928,10.339h-3.92V21h-2.637V10.339h-3.867V8.2h10.424ZM-10,21.176A4.668,4.668,0,0,1-13.4,19.893a4.561,4.561,0,0,1-1.314-3.419v-.246a5.745,5.745,0,0,1,.554-2.562,4.064,4.064,0,0,1,1.569-1.74,4.4,4.4,0,0,1,2.316-.611,3.947,3.947,0,0,1,3.072,1.23,5,5,0,0,1,1.121,3.489v1.037h-6.056a2.36,2.36,0,0,0,.743,1.494,2.245,2.245,0,0,0,1.569.563,2.742,2.742,0,0,0,2.294-1.063l1.248,1.4a3.813,3.813,0,0,1-1.547,1.261A5.075,5.075,0,0,1-10,21.176Zm-.29-7.813a1.587,1.587,0,0,0-1.226.512,2.651,2.651,0,0,0-.6,1.466h3.533v-.2a1.891,1.891,0,0,0-.457-1.311A1.638,1.638,0,0,0-10.288,13.362Zm5.247,2.795A5.64,5.64,0,0,1-4.5,13.635a3.989,3.989,0,0,1,1.569-1.714,4.577,4.577,0,0,1,2.377-.606,4.33,4.33,0,0,1,3.142,1.178,4.727,4.727,0,0,1,1.358,3.2l.018.65a4.97,4.97,0,0,1-1.222,3.511A4.247,4.247,0,0,1-.532,21.176a4.268,4.268,0,0,1-3.283-1.318,5.058,5.058,0,0,1-1.226-3.586Zm2.54.18a3.555,3.555,0,0,0,.51,2.073,1.682,1.682,0,0,0,1.459.717A1.686,1.686,0,0,0,.91,18.419a3.89,3.89,0,0,0,.519-2.267,3.519,3.519,0,0,0-.519-2.06,1.686,1.686,0,0,0-1.459-.731,1.658,1.658,0,0,0-1.441.726A3.955,3.955,0,0,0-2.5,16.338Zm13.377-2.465a6.9,6.9,0,0,0-.914-.07,1.86,1.86,0,0,0-1.89.976V21H5.533V11.49h2.4L8,12.624a2.354,2.354,0,0,1,2.118-1.31,2.662,2.662,0,0,1,.791.114ZM14.84,21H12.3V11.49h2.54ZM14.093,7.632h2.769l-2.435,2.725H12.362ZM22.54,21a2.821,2.821,0,0,1-.255-.853,3.073,3.073,0,0,1-2.4,1.028,3.376,3.376,0,0,1-2.316-.809,2.6,2.6,0,0,1-.918-2.039,2.687,2.687,0,0,1,1.121-2.32,5.529,5.529,0,0,1,3.239-.817h1.169v-.545a1.567,1.567,0,0,0-.338-1.055,1.331,1.331,0,0,0-1.068-.4,1.513,1.513,0,0,0-1.006.308,1.045,1.045,0,0,0-.365.844h-2.54a2.551,2.551,0,0,1,.51-1.529,3.37,3.37,0,0,1,1.441-1.1,5.253,5.253,0,0,1,2.092-.4A4.15,4.15,0,0,1,23.7,12.2a3.09,3.09,0,0,1,1.033,2.483V18.8a4.546,4.546,0,0,0,.378,2.048V21Zm-2.1-1.767a2.188,2.188,0,0,0,1.037-.25,1.645,1.645,0,0,0,.7-.672V16.676H21.23q-1.907,0-2.03,1.318l-.009.149a1.017,1.017,0,0,0,.334.782A1.3,1.3,0,0,0,20.439,19.233Z" transform="translate(955 3263)"/>
    <path id="Trazado_233384" data-name="Trazado 233384" d="M-.018-12.929v2.092H-.264a4.315,4.315,0,0,0-2.773.9A3.642,3.642,0,0,0-4.3-7.523,3.46,3.46,0,0,1-1.723-8.561a3.26,3.26,0,0,1,2.654,1.2,4.792,4.792,0,0,1,.984,3.146A4.713,4.713,0,0,1,1.375-1.96,3.877,3.877,0,0,1-.154-.387,4.443,4.443,0,0,1-2.391.176,4.15,4.15,0,0,1-5.656-1.23,5.459,5.459,0,0,1-6.9-4.983V-5.9a8.215,8.215,0,0,1,.787-3.678,5.768,5.768,0,0,1,2.259-2.47,6.619,6.619,0,0,1,3.415-.883ZM-2.5-6.513a2.029,2.029,0,0,0-1.116.32,1.929,1.929,0,0,0-.738.847v.772a3.42,3.42,0,0,0,.5,1.987,1.619,1.619,0,0,0,1.406.715,1.6,1.6,0,0,0,1.323-.645A2.63,2.63,0,0,0-.615-4.188a2.625,2.625,0,0,0-.51-1.684A1.661,1.661,0,0,0-2.5-6.513ZM3.656-1.248a1.279,1.279,0,0,1,.409-.984A1.45,1.45,0,0,1,5.089-2.61a1.462,1.462,0,0,1,1.033.378,1.279,1.279,0,0,1,.409.984,1.261,1.261,0,0,1-.4.971A1.468,1.468,0,0,1,5.089.1,1.456,1.456,0,0,1,4.061-.277,1.261,1.261,0,0,1,3.656-1.248Zm-34.686,15.7h-5.062v3.428h5.941V20h-8.578V7.2h8.561V9.339h-5.924v3.05h5.063Zm7.409,2.918a.818.818,0,0,0-.461-.734,5.241,5.241,0,0,0-1.481-.479q-3.393-.712-3.393-2.883a2.613,2.613,0,0,1,1.05-2.114,4.237,4.237,0,0,1,2.747-.848,4.56,4.56,0,0,1,2.9.853,2.687,2.687,0,0,1,1.085,2.215h-2.54a1.229,1.229,0,0,0-.352-.9,1.488,1.488,0,0,0-1.1-.356,1.52,1.52,0,0,0-.993.29.916.916,0,0,0-.352.738.783.783,0,0,0,.4.681,4.114,4.114,0,0,0,1.349.448,11.019,11.019,0,0,1,1.6.426,2.628,2.628,0,0,1,2.013,2.558,2.481,2.481,0,0,1-1.116,2.1,4.815,4.815,0,0,1-2.883.8,5.029,5.029,0,0,1-2.123-.426,3.561,3.561,0,0,1-1.455-1.169,2.716,2.716,0,0,1-.527-1.6h2.408a1.326,1.326,0,0,0,.5,1.037,1.987,1.987,0,0,0,1.248.36,1.839,1.839,0,0,0,1.1-.277A.861.861,0,0,0-23.621,17.372Zm8.06.756a1.666,1.666,0,0,0,1.143-.387,1.355,1.355,0,0,0,.457-1.028h2.382a3.258,3.258,0,0,1-.527,1.771,3.48,3.48,0,0,1-1.419,1.248,4.442,4.442,0,0,1-1.991.444,4.129,4.129,0,0,1-3.217-1.3A5.13,5.13,0,0,1-19.912,15.3v-.167a5.071,5.071,0,0,1,1.169-3.507,4.08,4.08,0,0,1,3.208-1.31,4,4,0,0,1,2.861,1.015,3.594,3.594,0,0,1,1.094,2.7h-2.382a1.745,1.745,0,0,0-.457-1.206,1.524,1.524,0,0,0-1.16-.464,1.53,1.53,0,0,0-1.34.647,3.749,3.749,0,0,0-.453,2.1v.264a3.8,3.8,0,0,0,.448,2.113A1.549,1.549,0,0,0-15.561,18.128Zm9.809,2.048a4.668,4.668,0,0,1-3.406-1.283,4.561,4.561,0,0,1-1.314-3.419v-.246a5.745,5.745,0,0,1,.554-2.562,4.064,4.064,0,0,1,1.569-1.74,4.4,4.4,0,0,1,2.316-.611,3.947,3.947,0,0,1,3.072,1.23,5,5,0,0,1,1.121,3.489v1.037H-7.9a2.36,2.36,0,0,0,.743,1.494,2.245,2.245,0,0,0,1.569.563,2.742,2.742,0,0,0,2.294-1.063l1.248,1.4A3.813,3.813,0,0,1-3.59,19.723,5.075,5.075,0,0,1-5.752,20.176Zm-.29-7.813a1.587,1.587,0,0,0-1.226.512,2.651,2.651,0,0,0-.6,1.466h3.533v-.2a1.891,1.891,0,0,0-.457-1.311A1.638,1.638,0,0,0-6.042,12.362Zm7.98-1.872.079,1.1A3.32,3.32,0,0,1,4.75,10.314,2.759,2.759,0,0,1,7,11.2a4.142,4.142,0,0,1,.756,2.654V20H5.216V13.918a1.648,1.648,0,0,0-.352-1.173A1.574,1.574,0,0,0,3.7,12.38a1.747,1.747,0,0,0-1.608.914V20H-.453V10.49ZM15.192,20a2.821,2.821,0,0,1-.255-.853,3.073,3.073,0,0,1-2.4,1.028,3.376,3.376,0,0,1-2.316-.809A2.6,2.6,0,0,1,9.3,17.328a2.687,2.687,0,0,1,1.121-2.32,5.529,5.529,0,0,1,3.239-.817h1.169v-.545a1.567,1.567,0,0,0-.338-1.055,1.331,1.331,0,0,0-1.068-.4,1.513,1.513,0,0,0-1.006.308,1.045,1.045,0,0,0-.365.844H9.514a2.551,2.551,0,0,1,.51-1.529,3.37,3.37,0,0,1,1.441-1.1,5.253,5.253,0,0,1,2.092-.4,4.15,4.15,0,0,1,2.791.883,3.09,3.09,0,0,1,1.033,2.483V17.8a4.546,4.546,0,0,0,.378,2.048V20Zm-2.1-1.767a2.188,2.188,0,0,0,1.037-.25,1.645,1.645,0,0,0,.7-.672V15.676h-.949q-1.907,0-2.03,1.318l-.009.149a1.017,1.017,0,0,0,.334.782A1.3,1.3,0,0,0,13.091,18.233Zm11.584-5.361a6.9,6.9,0,0,0-.914-.07,1.86,1.86,0,0,0-1.89.976V20h-2.54V10.49h2.4l.07,1.134a2.354,2.354,0,0,1,2.118-1.31,2.662,2.662,0,0,1,.791.114ZM28.578,20H26.029V10.49h2.549Zm-2.7-11.971a1.251,1.251,0,0,1,.382-.94,1.648,1.648,0,0,1,2.079,0,1.342,1.342,0,0,1,0,1.89,1.629,1.629,0,0,1-2.065,0A1.247,1.247,0,0,1,25.879,8.029Zm4.395,7.128a5.64,5.64,0,0,1,.545-2.522,3.989,3.989,0,0,1,1.569-1.714,4.577,4.577,0,0,1,2.377-.606,4.33,4.33,0,0,1,3.142,1.178,4.727,4.727,0,0,1,1.358,3.2l.018.65a4.97,4.97,0,0,1-1.222,3.511,4.247,4.247,0,0,1-3.278,1.323A4.268,4.268,0,0,1,31.5,18.857a5.058,5.058,0,0,1-1.226-3.586Zm2.54.18a3.555,3.555,0,0,0,.51,2.073,1.831,1.831,0,0,0,2.9.009,3.89,3.89,0,0,0,.519-2.267,3.519,3.519,0,0,0-.519-2.06,1.686,1.686,0,0,0-1.459-.731,1.658,1.658,0,0,0-1.441.726A3.955,3.955,0,0,0,32.814,15.338Z" transform="translate(644 3263)"/>
    <path id="Trazado_233379" data-name="Trazado 233379" d="M1.433-9.4A2.977,2.977,0,0,1,.967-7.743,3.353,3.353,0,0,1-.316-6.592,3.711,3.711,0,0,1,1.16-5.357a3.168,3.168,0,0,1,.545,1.85A3.354,3.354,0,0,1,.545-.813,4.706,4.706,0,0,1-2.61.176,4.727,4.727,0,0,1-5.774-.817,3.346,3.346,0,0,1-6.943-3.507,3.188,3.188,0,0,1-6.4-5.361a3.644,3.644,0,0,1,1.468-1.23A3.318,3.318,0,0,1-6.209-7.743,3,3,0,0,1-6.671-9.4,3.317,3.317,0,0,1-5.581-12a4.291,4.291,0,0,1,2.962-.971,4.319,4.319,0,0,1,2.958.962A3.3,3.3,0,0,1,1.433-9.4Zm-2.276,5.7a1.843,1.843,0,0,0-.483-1.336,1.724,1.724,0,0,0-1.3-.5,1.72,1.72,0,0,0-1.292.5A1.839,1.839,0,0,0-4.4-3.691a1.838,1.838,0,0,0,.475,1.318,1.729,1.729,0,0,0,1.318.5,1.725,1.725,0,0,0,1.3-.483A1.835,1.835,0,0,0-.844-3.691Zm-.264-5.581a1.758,1.758,0,0,0-.4-1.2,1.4,1.4,0,0,0-1.116-.453,1.413,1.413,0,0,0-1.107.439,1.748,1.748,0,0,0-.4,1.213,1.837,1.837,0,0,0,.4,1.23,1.384,1.384,0,0,0,1.116.466A1.371,1.371,0,0,0-1.5-8.042,1.85,1.85,0,0,0-1.107-9.272ZM3.656-1.248a1.279,1.279,0,0,1,.409-.984A1.45,1.45,0,0,1,5.089-2.61a1.462,1.462,0,0,1,1.033.378,1.279,1.279,0,0,1,.409.984,1.261,1.261,0,0,1-.4.971A1.468,1.468,0,0,1,5.089.1,1.456,1.456,0,0,1,4.061-.277,1.261,1.261,0,0,1,3.656-1.248ZM-34.088,16.737a4.528,4.528,0,0,1-1.525,3.252,5.355,5.355,0,0,1-3.625,1.187,4.816,4.816,0,0,1-3.872-1.657,6.793,6.793,0,0,1-1.411-4.548v-.782a7.671,7.671,0,0,1,.65-3.252,4.874,4.874,0,0,1,1.859-2.158A5.207,5.207,0,0,1-39.2,8.027a5.217,5.217,0,0,1,3.568,1.187,4.866,4.866,0,0,1,1.564,3.331h-2.637a2.673,2.673,0,0,0-.69-1.8,2.555,2.555,0,0,0-1.806-.558,2.24,2.24,0,0,0-1.973.945,5.3,5.3,0,0,0-.672,2.931v.967a5.667,5.667,0,0,0,.628,3.032,2.2,2.2,0,0,0,1.982.958,2.6,2.6,0,0,0,1.824-.558,2.521,2.521,0,0,0,.69-1.727Zm1.169-.58a5.64,5.64,0,0,1,.545-2.522,3.989,3.989,0,0,1,1.569-1.714,4.577,4.577,0,0,1,2.377-.606,4.33,4.33,0,0,1,3.142,1.178,4.727,4.727,0,0,1,1.358,3.2l.018.65a4.97,4.97,0,0,1-1.222,3.511,4.247,4.247,0,0,1-3.278,1.323,4.268,4.268,0,0,1-3.283-1.318,5.058,5.058,0,0,1-1.226-3.586Zm2.54.18a3.555,3.555,0,0,0,.51,2.073,1.682,1.682,0,0,0,1.459.717,1.686,1.686,0,0,0,1.441-.709,3.89,3.89,0,0,0,.519-2.267,3.519,3.519,0,0,0-.519-2.06,1.686,1.686,0,0,0-1.459-.731,1.658,1.658,0,0,0-1.441.726A3.955,3.955,0,0,0-30.379,16.338Zm10.371-4.847.079,1.1A3.32,3.32,0,0,1-17.2,11.314a2.759,2.759,0,0,1,2.25.888,4.142,4.142,0,0,1,.756,2.654V21h-2.54V14.918a1.648,1.648,0,0,0-.352-1.173,1.574,1.574,0,0,0-1.169-.365,1.747,1.747,0,0,0-1.608.914V21H-22.4V11.49Zm11.7,7.638a1.666,1.666,0,0,0,1.143-.387,1.355,1.355,0,0,0,.457-1.028h2.382a3.258,3.258,0,0,1-.527,1.771,3.48,3.48,0,0,1-1.419,1.248,4.442,4.442,0,0,1-1.991.444,4.129,4.129,0,0,1-3.217-1.3A5.13,5.13,0,0,1-12.661,16.3v-.167a5.071,5.071,0,0,1,1.169-3.507,4.08,4.08,0,0,1,3.208-1.31A4,4,0,0,1-5.423,12.33a3.594,3.594,0,0,1,1.094,2.7H-6.71a1.745,1.745,0,0,0-.457-1.206,1.524,1.524,0,0,0-1.16-.464,1.53,1.53,0,0,0-1.34.647,3.749,3.749,0,0,0-.453,2.1v.264a3.8,3.8,0,0,0,.448,2.113A1.549,1.549,0,0,0-8.31,19.128ZM-.2,21H-2.747V7.5H-.2Zm7.787-.967a3.185,3.185,0,0,1-2.6,1.143A3,3,0,0,1,2.654,20.3a3.752,3.752,0,0,1-.822-2.575V11.49h2.54v6.151q0,1.487,1.354,1.487a1.834,1.834,0,0,0,1.775-.9V11.49H10.05V21H7.66Zm9.527-1.661a.818.818,0,0,0-.461-.734,5.241,5.241,0,0,0-1.481-.479q-3.393-.712-3.393-2.883a2.613,2.613,0,0,1,1.05-2.114,4.237,4.237,0,0,1,2.747-.848,4.56,4.56,0,0,1,2.9.853,2.687,2.687,0,0,1,1.085,2.215H17.02a1.229,1.229,0,0,0-.352-.9,1.488,1.488,0,0,0-1.1-.356,1.52,1.52,0,0,0-.993.29.916.916,0,0,0-.352.738.783.783,0,0,0,.4.681,4.114,4.114,0,0,0,1.349.448,11.019,11.019,0,0,1,1.6.426,2.628,2.628,0,0,1,2.013,2.558,2.481,2.481,0,0,1-1.116,2.1,4.815,4.815,0,0,1-2.883.8,5.029,5.029,0,0,1-2.123-.426,3.561,3.561,0,0,1-1.455-1.169,2.716,2.716,0,0,1-.527-1.6h2.408a1.326,1.326,0,0,0,.5,1.037,1.987,1.987,0,0,0,1.248.36,1.839,1.839,0,0,0,1.1-.277A.861.861,0,0,0,17.117,18.372ZM23.9,21H21.353V11.49H23.9ZM21.2,9.029a1.251,1.251,0,0,1,.382-.94,1.648,1.648,0,0,1,2.079,0,1.342,1.342,0,0,1,0,1.89,1.629,1.629,0,0,1-2.065,0A1.247,1.247,0,0,1,21.2,9.029ZM25.6,16.157a5.64,5.64,0,0,1,.545-2.522,3.989,3.989,0,0,1,1.569-1.714,4.577,4.577,0,0,1,2.377-.606,4.33,4.33,0,0,1,3.142,1.178,4.727,4.727,0,0,1,1.358,3.2l.018.65a4.97,4.97,0,0,1-1.222,3.511,4.247,4.247,0,0,1-3.278,1.323,4.268,4.268,0,0,1-3.283-1.318A5.058,5.058,0,0,1,25.6,16.271Zm2.54.18a3.555,3.555,0,0,0,.51,2.073,1.831,1.831,0,0,0,2.9.009,3.89,3.89,0,0,0,.519-2.267,3.519,3.519,0,0,0-.519-2.06,1.686,1.686,0,0,0-1.459-.731,1.658,1.658,0,0,0-1.441.726A3.955,3.955,0,0,0,28.138,16.338ZM30.59,7.5h2.769l-2.435,2.725H28.859Zm7.919,3.99.079,1.1a3.32,3.32,0,0,1,2.733-1.274,2.759,2.759,0,0,1,2.25.888,4.142,4.142,0,0,1,.756,2.654V21h-2.54V14.918a1.648,1.648,0,0,0-.352-1.173,1.574,1.574,0,0,0-1.169-.365,1.747,1.747,0,0,0-1.608.914V21h-2.54V11.49Z" transform="translate(644 2947)"/>
    <path id="Trazado_233380" data-name="Trazado 233380" d="M1.793-11.379-3.155,0H-5.836L-.879-10.749H-7.242V-12.8H1.793ZM3.656-1.248a1.279,1.279,0,0,1,.409-.984A1.45,1.45,0,0,1,5.089-2.61a1.462,1.462,0,0,1,1.033.378,1.279,1.279,0,0,1,.409.984,1.261,1.261,0,0,1-.4.971A1.468,1.468,0,0,1,5.089.1,1.456,1.456,0,0,1,4.061-.277,1.261,1.261,0,0,1,3.656-1.248ZM-40.926,21-38.7,8.2l3.674.009A5.032,5.032,0,0,1-32.7,8.8a4.393,4.393,0,0,1,1.674,1.6,5.493,5.493,0,0,1,.773,2.355,7.775,7.775,0,0,1-.018,1.564l-.062.466a7.309,7.309,0,0,1-2.21,4.513A6.253,6.253,0,0,1-36.971,21Zm4.43-10.661-1.485,8.543,1.072.009a3.518,3.518,0,0,0,2.852-1.3,6.723,6.723,0,0,0,1.235-3.929l.018-.281a3.544,3.544,0,0,0-.554-2.224,2.114,2.114,0,0,0-1.731-.809Zm11.364,10.837a4.137,4.137,0,0,1-2.21-.611,3.7,3.7,0,0,1-1.437-1.652,4.605,4.605,0,0,1-.369-2.316l.026-.352a6.148,6.148,0,0,1,.809-2.549,4.884,4.884,0,0,1,1.74-1.789,4.306,4.306,0,0,1,2.355-.593,3.29,3.29,0,0,1,2.782,1.351A4.631,4.631,0,0,1-20.72,16l-.141,1.083h-5.827a2.041,2.041,0,0,0,.448,1.477,1.711,1.711,0,0,0,1.318.571,3.041,3.041,0,0,0,2.373-1.055l1.134,1.406a3.527,3.527,0,0,1-1.547,1.261A5.059,5.059,0,0,1-25.132,21.176Zm.791-7.813a1.761,1.761,0,0,0-1.217.431,3.784,3.784,0,0,0-.954,1.556h3.41l.053-.229a2.33,2.33,0,0,0,.009-.668,1.276,1.276,0,0,0-.431-.8A1.35,1.35,0,0,0-24.341,13.362Zm13.359,2.909a6.819,6.819,0,0,1-1.371,3.6,3.412,3.412,0,0,1-2.865,1.31A2.652,2.652,0,0,1-17.5,19.972L-17.864,21h-2.259l2.338-13.5H-15.3l-.958,4.86a2.963,2.963,0,0,1,2.32-1.046,2.683,2.683,0,0,1,2.167.989,4.376,4.376,0,0,1,.839,2.685A10.274,10.274,0,0,1-10.982,16.271Zm-2.461-.185a7.373,7.373,0,0,0,.053-1.164q-.1-1.534-1.266-1.56a2.062,2.062,0,0,0-1.819,1l-.686,3.791a1.415,1.415,0,0,0,1.424.987q1.828.053,2.241-2.662ZM-3.7,13.872a5.117,5.117,0,0,0-.835-.088,2.4,2.4,0,0,0-2.1.993L-7.73,21h-2.479l1.652-9.51,2.329-.009-.229,1.16A2.615,2.615,0,0,1-4.241,11.3a3.615,3.615,0,0,1,.861.123ZM-1.129,21h-2.5l1.652-9.51h2.5ZM-1.683,9.073A1.238,1.238,0,0,1-1.3,8.1a1.36,1.36,0,0,1,.976-.387,1.367,1.367,0,0,1,.976.343,1.233,1.233,0,0,1,.431.932,1.273,1.273,0,0,1-.365.949,1.367,1.367,0,0,1-1,.422,1.39,1.39,0,0,1-.971-.334A1.227,1.227,0,0,1-1.683,9.073Zm7.172,12.1a4.137,4.137,0,0,1-2.21-.611,3.7,3.7,0,0,1-1.437-1.652A4.605,4.605,0,0,1,1.472,16.6l.026-.352A6.148,6.148,0,0,1,2.307,13.7a4.884,4.884,0,0,1,1.74-1.789A4.306,4.306,0,0,1,6.4,11.314a3.29,3.29,0,0,1,2.782,1.351A4.631,4.631,0,0,1,9.9,16L9.76,17.08H3.933a2.041,2.041,0,0,0,.448,1.477,1.711,1.711,0,0,0,1.318.571,3.041,3.041,0,0,0,2.373-1.055l1.134,1.406A3.527,3.527,0,0,1,7.66,20.741,5.059,5.059,0,0,1,5.489,21.176Zm.791-7.813a1.761,1.761,0,0,0-1.217.431,3.784,3.784,0,0,0-.954,1.556h3.41l.053-.229a2.33,2.33,0,0,0,.009-.668,1.276,1.276,0,0,0-.431-.8A1.35,1.35,0,0,0,6.28,13.362ZM11.1,21l1.327-7.646h-1.38l.334-1.863h1.283l.079-.457A4.469,4.469,0,0,1,14.26,8.26,4.608,4.608,0,0,1,17.328,7.3a7.465,7.465,0,0,1,1.428.171q.7.154,1.393.347l-.536,2.118A7.242,7.242,0,0,0,17.372,9.5a2.34,2.34,0,0,0-1.433.417,1.918,1.918,0,0,0-.729,1.173l-.079.4h1.925l-.334,1.863H14.911L13.583,21ZM19.1,21h-2.5l1.652-9.51h2.487Zm6.029-9.519-.211,1.125a3.422,3.422,0,0,1,2.769-1.292,2.281,2.281,0,0,1,1.986.984,3.966,3.966,0,0,1,.466,2.654L29.14,21H26.662l1.02-6.073A2.844,2.844,0,0,0,27.7,14.3a1.007,1.007,0,0,0-1.125-.923,2.133,2.133,0,0,0-1.749.905L23.638,21H21.16l1.652-9.51Zm6.425,4.755a6.58,6.58,0,0,1,1.437-3.582,3.647,3.647,0,0,1,2.958-1.349,2.667,2.667,0,0,1,2.268,1.1l.325-.923,2.276.009-1.556,9.185a4.481,4.481,0,0,1-1.617,3.006,5.03,5.03,0,0,1-3.375,1.072,4.689,4.689,0,0,1-1.881-.426,4.022,4.022,0,0,1-1.477-1.121l1.23-1.512a2.642,2.642,0,0,0,2.074,1.081,2.436,2.436,0,0,0,1.652-.505,2.7,2.7,0,0,0,.932-1.525l.141-.571a3.092,3.092,0,0,1-2.329,1,2.732,2.732,0,0,1-2.206-1.033,4.44,4.44,0,0,1-.9-2.641A8.876,8.876,0,0,1,31.557,16.236Zm2.435,1.043a2.273,2.273,0,0,0,.347,1.325,1.215,1.215,0,0,0,1.006.524,2.219,2.219,0,0,0,1.793-.863l.738-4.031a1.458,1.458,0,0,0-1.4-.863,1.944,1.944,0,0,0-1.608.766,4.006,4.006,0,0,0-.826,2.1A9.241,9.241,0,0,0,33.992,17.279Z" transform="translate(570 3108)"/>
    <path id="Trazado_233385" data-name="Trazado 233385" d="M-6.167-5.943l.7-6.143H1.3v2H-3.5l-.3,2.6a3.8,3.8,0,0,1,1.818-.457A3.484,3.484,0,0,1,.722-6.873a4.277,4.277,0,0,1,.979,3,4.382,4.382,0,0,1-.494,2.1A3.486,3.486,0,0,1-.208-.344a4.418,4.418,0,0,1-2.175.51A4.692,4.692,0,0,1-4.416-.278,3.607,3.607,0,0,1-5.9-1.527a3.4,3.4,0,0,1-.577-1.834H-4.1a1.773,1.773,0,0,0,.527,1.175,1.671,1.671,0,0,0,1.183.419,1.475,1.475,0,0,0,1.253-.585A2.711,2.711,0,0,0-.7-4.009,2.242,2.242,0,0,0-1.2-5.586,1.858,1.858,0,0,0-2.64-6.134a2.077,2.077,0,0,0-1.386.448l-.232.216ZM3.453-1.179a1.208,1.208,0,0,1,.386-.93,1.37,1.37,0,0,1,.967-.357,1.381,1.381,0,0,1,.975.357,1.208,1.208,0,0,1,.386.93,1.191,1.191,0,0,1-.382.917,1.387,1.387,0,0,1-.979.353,1.375,1.375,0,0,1-.971-.353A1.191,1.191,0,0,1,3.453-1.179ZM-43.571,16.829a1.278,1.278,0,0,0-.5-1.083,6.533,6.533,0,0,0-1.793-.8,12.71,12.71,0,0,1-2.05-.826,3.35,3.35,0,0,1-2.059-3,2.919,2.919,0,0,1,.552-1.747,3.6,3.6,0,0,1,1.585-1.2,5.967,5.967,0,0,1,2.32-.432,5.432,5.432,0,0,1,2.308.469,3.674,3.674,0,0,1,1.573,1.324,3.464,3.464,0,0,1,.56,1.942h-2.49a1.63,1.63,0,0,0-.523-1.291,2.15,2.15,0,0,0-1.469-.461,2.3,2.3,0,0,0-1.419.386,1.217,1.217,0,0,0-.506,1.017,1.166,1.166,0,0,0,.594.988,6.705,6.705,0,0,0,1.747.747,7.55,7.55,0,0,1,3.1,1.585,3.157,3.157,0,0,1,.971,2.357,2.909,2.909,0,0,1-1.187,2.461,5.2,5.2,0,0,1-3.2.892,6.171,6.171,0,0,1-2.54-.51,4.019,4.019,0,0,1-1.747-1.4,3.582,3.582,0,0,1-.6-2.059h2.5q0,2,2.391,2a2.326,2.326,0,0,0,1.386-.361A1.175,1.175,0,0,0-43.571,16.829Zm3.652-1.4a5.327,5.327,0,0,1,.515-2.382,3.767,3.767,0,0,1,1.482-1.619,4.323,4.323,0,0,1,2.245-.573,4.09,4.09,0,0,1,2.968,1.112,4.464,4.464,0,0,1,1.282,3.021l.017.614a4.694,4.694,0,0,1-1.154,3.316,4.011,4.011,0,0,1-3.1,1.249,4.031,4.031,0,0,1-3.1-1.245,4.777,4.777,0,0,1-1.158-3.387Zm2.4.17a3.357,3.357,0,0,0,.481,1.958,1.588,1.588,0,0,0,1.378.678,1.592,1.592,0,0,0,1.361-.669,3.674,3.674,0,0,0,.49-2.141,3.324,3.324,0,0,0-.49-1.945,1.592,1.592,0,0,0-1.378-.69,1.566,1.566,0,0,0-1.361.686A3.735,3.735,0,0,0-37.52,15.6ZM-26.2,18.232a1.573,1.573,0,0,0,1.079-.365,1.28,1.28,0,0,0,.432-.971h2.25a3.077,3.077,0,0,1-.5,1.673,3.286,3.286,0,0,1-1.341,1.179,4.2,4.2,0,0,1-1.88.419,3.9,3.9,0,0,1-3.038-1.224,4.845,4.845,0,0,1-1.112-3.383V15.4a4.79,4.79,0,0,1,1.1-3.312,3.854,3.854,0,0,1,3.03-1.237,3.778,3.778,0,0,1,2.7.959,3.4,3.4,0,0,1,1.033,2.552h-2.25a1.648,1.648,0,0,0-.432-1.139,1.439,1.439,0,0,0-1.1-.438,1.445,1.445,0,0,0-1.266.611,3.541,3.541,0,0,0-.427,1.983v.249a3.586,3.586,0,0,0,.423,2A1.463,1.463,0,0,0-26.2,18.232ZM-18.536,20h-2.407V11.019h2.407ZM-21.084,8.694a1.181,1.181,0,0,1,.361-.888,1.356,1.356,0,0,1,.984-.349,1.36,1.36,0,0,1,.979.349,1.175,1.175,0,0,1,.365.888,1.178,1.178,0,0,1-.369.9,1.363,1.363,0,0,1-.975.349,1.363,1.363,0,0,1-.975-.349A1.178,1.178,0,0,1-21.084,8.694ZM-11.355,20a2.664,2.664,0,0,1-.241-.805,2.9,2.9,0,0,1-2.266.971A3.189,3.189,0,0,1-16.05,19.4a2.456,2.456,0,0,1-.867-1.926,2.538,2.538,0,0,1,1.058-2.191,5.222,5.222,0,0,1,3.059-.772h1.1V14a1.48,1.48,0,0,0-.32-1,1.257,1.257,0,0,0-1.009-.374,1.429,1.429,0,0,0-.95.291.987.987,0,0,0-.344.8h-2.4a2.41,2.41,0,0,1,.481-1.444,3.182,3.182,0,0,1,1.361-1.042,4.961,4.961,0,0,1,1.976-.378,3.92,3.92,0,0,1,2.635.834,2.918,2.918,0,0,1,.975,2.345v3.893a4.294,4.294,0,0,0,.357,1.934V20Zm-1.984-1.668a2.066,2.066,0,0,0,.979-.237,1.554,1.554,0,0,0,.664-.635V15.916h-.9q-1.8,0-1.917,1.245l-.008.141a.96.96,0,0,0,.315.739A1.225,1.225,0,0,0-13.339,18.332ZM-4.914,20H-7.321V7.25h2.407Zm4.507,0H-2.814V11.019H-.407ZM-2.955,8.694a1.181,1.181,0,0,1,.361-.888,1.356,1.356,0,0,1,.984-.349,1.36,1.36,0,0,1,.979.349,1.175,1.175,0,0,1,.365.888,1.178,1.178,0,0,1-.369.9,1.363,1.363,0,0,1-.975.349,1.363,1.363,0,0,1-.975-.349A1.178,1.178,0,0,1-2.955,8.694Zm7.28,9.372H8.716V20H1.262V18.539l4.225-5.586h-4.1V11.019h7.2v1.413ZM15.423,20a2.664,2.664,0,0,1-.241-.805,2.9,2.9,0,0,1-2.266.971,3.189,3.189,0,0,1-2.187-.764,2.456,2.456,0,0,1-.867-1.926,2.538,2.538,0,0,1,1.058-2.191,5.222,5.222,0,0,1,3.059-.772h1.1V14a1.48,1.48,0,0,0-.32-1,1.257,1.257,0,0,0-1.009-.374,1.429,1.429,0,0,0-.95.291.987.987,0,0,0-.344.8h-2.4a2.41,2.41,0,0,1,.481-1.444A3.182,3.182,0,0,1,11.9,11.23a4.961,4.961,0,0,1,1.976-.378,3.92,3.92,0,0,1,2.635.834,2.918,2.918,0,0,1,.975,2.345v3.893a4.294,4.294,0,0,0,.357,1.934V20Zm-1.984-1.668a2.066,2.066,0,0,0,.979-.237,1.554,1.554,0,0,0,.664-.635V15.916h-.9q-1.8,0-1.917,1.245l-.008.141a.96.96,0,0,0,.315.739A1.225,1.225,0,0,0,13.439,18.332Zm9.629-.1a1.573,1.573,0,0,0,1.079-.365,1.28,1.28,0,0,0,.432-.971h2.25a3.077,3.077,0,0,1-.5,1.673,3.286,3.286,0,0,1-1.341,1.179,4.2,4.2,0,0,1-1.88.419,3.9,3.9,0,0,1-3.038-1.224,4.845,4.845,0,0,1-1.112-3.383V15.4a4.79,4.79,0,0,1,1.1-3.312,3.854,3.854,0,0,1,3.03-1.237,3.778,3.778,0,0,1,2.7.959,3.4,3.4,0,0,1,1.033,2.552h-2.25a1.648,1.648,0,0,0-.432-1.139,1.6,1.6,0,0,0-2.362.173,3.541,3.541,0,0,0-.427,1.983v.249a3.586,3.586,0,0,0,.423,2A1.463,1.463,0,0,0,23.068,18.232ZM30.729,20H28.322V11.019h2.407ZM28.181,8.694a1.181,1.181,0,0,1,.361-.888,1.556,1.556,0,0,1,1.963,0,1.268,1.268,0,0,1,0,1.785,1.539,1.539,0,0,1-1.951,0A1.178,1.178,0,0,1,28.181,8.694Zm4.15,6.732a5.327,5.327,0,0,1,.515-2.382,3.767,3.767,0,0,1,1.482-1.619,4.323,4.323,0,0,1,2.245-.573,4.09,4.09,0,0,1,2.968,1.112,4.464,4.464,0,0,1,1.282,3.021l.017.614a4.694,4.694,0,0,1-1.154,3.316,4.011,4.011,0,0,1-3.1,1.249,4.031,4.031,0,0,1-3.1-1.245,4.777,4.777,0,0,1-1.158-3.387Zm2.4.17a3.357,3.357,0,0,0,.481,1.958,1.73,1.73,0,0,0,2.739.008,3.674,3.674,0,0,0,.49-2.141,3.324,3.324,0,0,0-.49-1.945,1.592,1.592,0,0,0-1.378-.69,1.566,1.566,0,0,0-1.361.686A3.735,3.735,0,0,0,34.73,15.6ZM37.046,7.25h2.615l-2.3,2.573H35.411Zm7.479,3.769.075,1.038a3.136,3.136,0,0,1,2.582-1.2,2.606,2.606,0,0,1,2.125.838,3.912,3.912,0,0,1,.714,2.507V20h-2.4V14.256a1.556,1.556,0,0,0-.332-1.108,1.486,1.486,0,0,0-1.1-.344,1.65,1.65,0,0,0-1.519.863V20h-2.4V11.019Zm-75.9,24.424a5.413,5.413,0,0,1,.942-3.345,3.057,3.057,0,0,1,2.577-1.245,2.751,2.751,0,0,1,2.167.979V27.25h2.407V40h-2.167l-.116-.955a2.823,2.823,0,0,1-2.308,1.121,3.049,3.049,0,0,1-2.544-1.249A5.587,5.587,0,0,1-31.373,35.443Zm2.4.179a3.546,3.546,0,0,0,.44,1.937,1.433,1.433,0,0,0,1.278.673,1.605,1.605,0,0,0,1.569-.939v-3.55a1.582,1.582,0,0,0-1.552-.939Q-28.974,32.8-28.974,35.621Zm11.688,4.545A4.409,4.409,0,0,1-20.5,38.954a4.308,4.308,0,0,1-1.241-3.229v-.232a5.426,5.426,0,0,1,.523-2.42,3.838,3.838,0,0,1,1.482-1.644,4.159,4.159,0,0,1,2.187-.577,3.727,3.727,0,0,1,2.9,1.162,4.722,4.722,0,0,1,1.058,3.3v.979h-5.719a2.229,2.229,0,0,0,.7,1.411,2.12,2.12,0,0,0,1.482.531,2.589,2.589,0,0,0,2.167-1l1.179,1.32a3.6,3.6,0,0,1-1.461,1.191A4.793,4.793,0,0,1-17.286,40.166Zm-.274-7.379a1.5,1.5,0,0,0-1.158.484,2.5,2.5,0,0,0-.569,1.384h3.337v-.192a1.786,1.786,0,0,0-.432-1.238A1.547,1.547,0,0,0-17.56,32.787ZM-9.7,40h-2.407V27.25H-9.7ZM.245,38.232a1.573,1.573,0,0,0,1.079-.365,1.28,1.28,0,0,0,.432-.971h2.25a3.077,3.077,0,0,1-.5,1.673,3.286,3.286,0,0,1-1.341,1.179,4.2,4.2,0,0,1-1.88.419,3.9,3.9,0,0,1-3.038-1.224,4.845,4.845,0,0,1-1.112-3.383V35.4a4.79,4.79,0,0,1,1.1-3.312A3.854,3.854,0,0,1,.27,30.853a3.778,3.778,0,0,1,2.7.959,3.4,3.4,0,0,1,1.033,2.552H1.756a1.648,1.648,0,0,0-.432-1.139,1.439,1.439,0,0,0-1.1-.438,1.445,1.445,0,0,0-1.266.611,3.541,3.541,0,0,0-.427,1.983v.249a3.586,3.586,0,0,0,.423,2A1.463,1.463,0,0,0,.245,38.232ZM10.579,40a2.664,2.664,0,0,1-.241-.805,2.9,2.9,0,0,1-2.266.971A3.189,3.189,0,0,1,5.885,39.4a2.456,2.456,0,0,1-.867-1.926,2.538,2.538,0,0,1,1.058-2.191,5.222,5.222,0,0,1,3.059-.772h1.1V34a1.48,1.48,0,0,0-.32-1,1.257,1.257,0,0,0-1.009-.374,1.429,1.429,0,0,0-.95.291.987.987,0,0,0-.344.8h-2.4A2.41,2.41,0,0,1,5.7,32.272,3.182,3.182,0,0,1,7.06,31.23a4.961,4.961,0,0,1,1.976-.378,3.92,3.92,0,0,1,2.635.834,2.918,2.918,0,0,1,.975,2.345v3.893A4.294,4.294,0,0,0,13,39.859V40ZM8.6,38.332a2.066,2.066,0,0,0,.979-.237,1.554,1.554,0,0,0,.664-.635V35.916h-.9q-1.8,0-1.917,1.245l-.008.141a.96.96,0,0,0,.315.739A1.225,1.225,0,0,0,8.6,38.332Zm10.758-.813a.773.773,0,0,0-.436-.693,4.95,4.95,0,0,0-1.4-.452q-3.2-.672-3.2-2.723a2.468,2.468,0,0,1,.992-2,4,4,0,0,1,2.594-.8,4.307,4.307,0,0,1,2.735.805,2.538,2.538,0,0,1,1.025,2.092h-2.4a1.161,1.161,0,0,0-.332-.851,1.405,1.405,0,0,0-1.038-.336,1.436,1.436,0,0,0-.938.274.865.865,0,0,0-.332.7.739.739,0,0,0,.378.643,3.885,3.885,0,0,0,1.274.423,10.407,10.407,0,0,1,1.511.4,2.482,2.482,0,0,1,1.9,2.416,2.343,2.343,0,0,1-1.054,1.988,4.548,4.548,0,0,1-2.723.76,4.75,4.75,0,0,1-2-.4,3.363,3.363,0,0,1-1.374-1.1,2.565,2.565,0,0,1-.5-1.515h2.274a1.252,1.252,0,0,0,.473.979,1.877,1.877,0,0,0,1.179.34A1.737,1.737,0,0,0,19,38.2.814.814,0,0,0,19.353,37.518Zm3.5-2.092a5.327,5.327,0,0,1,.515-2.382,3.768,3.768,0,0,1,1.482-1.619,4.323,4.323,0,0,1,2.245-.573,4.09,4.09,0,0,1,2.968,1.112,4.464,4.464,0,0,1,1.282,3.021l.017.614a4.694,4.694,0,0,1-1.154,3.316,4.011,4.011,0,0,1-3.1,1.249,4.031,4.031,0,0,1-3.1-1.245,4.777,4.777,0,0,1-1.158-3.387Zm2.4.17a3.357,3.357,0,0,0,.481,1.958,1.73,1.73,0,0,0,2.739.008,3.674,3.674,0,0,0,.49-2.141,3.324,3.324,0,0,0-.49-1.945,1.592,1.592,0,0,0-1.378-.69,1.566,1.566,0,0,0-1.361.686A3.735,3.735,0,0,0,25.255,35.6ZM-20.611,58.232a1.573,1.573,0,0,0,1.079-.365A1.28,1.28,0,0,0-19.1,56.9h2.25a3.077,3.077,0,0,1-.5,1.673,3.286,3.286,0,0,1-1.341,1.179,4.2,4.2,0,0,1-1.88.419,3.9,3.9,0,0,1-3.038-1.224,4.845,4.845,0,0,1-1.112-3.383V55.4a4.79,4.79,0,0,1,1.1-3.312,3.854,3.854,0,0,1,3.03-1.237,3.778,3.778,0,0,1,2.7.959,3.4,3.4,0,0,1,1.033,2.552H-19.1a1.648,1.648,0,0,0-.432-1.139,1.439,1.439,0,0,0-1.1-.438,1.445,1.445,0,0,0-1.266.611,3.541,3.541,0,0,0-.427,1.983v.249a3.586,3.586,0,0,0,.423,2A1.463,1.463,0,0,0-20.611,58.232ZM-12.949,60h-2.407V47.25h2.407Zm4.565,0h-2.4V51.019h2.4Zm-.706-12.625h2.615l-2.3,2.573h-1.951Zm4.98,3.644.075,1.038a3.136,3.136,0,0,1,2.582-1.2,2.606,2.606,0,0,1,2.125.838A3.912,3.912,0,0,1,1.386,54.2V60h-2.4V54.256a1.556,1.556,0,0,0-.332-1.108,1.486,1.486,0,0,0-1.1-.344,1.65,1.65,0,0,0-1.519.863V60h-2.4V51.019ZM5.736,60H3.329V51.019H5.736ZM3.188,48.694a1.181,1.181,0,0,1,.361-.888,1.356,1.356,0,0,1,.984-.349,1.36,1.36,0,0,1,.979.349,1.268,1.268,0,0,1,0,1.785,1.363,1.363,0,0,1-.975.349,1.363,1.363,0,0,1-.975-.349A1.178,1.178,0,0,1,3.188,48.694Zm8.259,9.538a1.573,1.573,0,0,0,1.079-.365,1.28,1.28,0,0,0,.432-.971h2.25a3.077,3.077,0,0,1-.5,1.673,3.286,3.286,0,0,1-1.341,1.179,4.2,4.2,0,0,1-1.88.419A3.9,3.9,0,0,1,8.45,58.942a4.845,4.845,0,0,1-1.112-3.383V55.4a4.79,4.79,0,0,1,1.1-3.312,3.854,3.854,0,0,1,3.03-1.237,3.778,3.778,0,0,1,2.7.959,3.4,3.4,0,0,1,1.033,2.552h-2.25a1.648,1.648,0,0,0-.432-1.139,1.439,1.439,0,0,0-1.1-.438,1.445,1.445,0,0,0-1.266.611,3.541,3.541,0,0,0-.427,1.983v.249a3.586,3.586,0,0,0,.423,2A1.463,1.463,0,0,0,11.447,58.232ZM16.2,55.426a5.327,5.327,0,0,1,.515-2.382A3.768,3.768,0,0,1,18.2,51.425a4.323,4.323,0,0,1,2.245-.573,4.09,4.09,0,0,1,2.968,1.112,4.464,4.464,0,0,1,1.282,3.021l.017.614a4.694,4.694,0,0,1-1.154,3.316,4.011,4.011,0,0,1-3.1,1.249,4.031,4.031,0,0,1-3.1-1.245A4.777,4.777,0,0,1,16.2,55.534Zm2.4.17a3.357,3.357,0,0,0,.481,1.958,1.73,1.73,0,0,0,2.739.008,3.674,3.674,0,0,0,.49-2.141,3.324,3.324,0,0,0-.49-1.945,1.592,1.592,0,0,0-1.378-.69,1.566,1.566,0,0,0-1.361.686A3.735,3.735,0,0,0,18.6,55.6Z" transform="translate(799 3319)"/>
    <path id="Trazado_231305" data-name="Trazado 231305" d="M494.934,203.41,450.94,247.4H388.726L344.732,203.41V141.2l43.994-43.991H450.94L494.934,141.2Z" transform="translate(379.268 2703.795)" fill="#7070fc"/>
    <path id="Trazado_233381" data-name="Trazado 233381" d="M-.738,0h-2.54V-9.791l-3.032.94v-2.065l5.3-1.9h.272ZM3.656-1.248a1.279,1.279,0,0,1,.409-.984A1.45,1.45,0,0,1,5.089-2.61a1.462,1.462,0,0,1,1.033.378,1.279,1.279,0,0,1,.409.984,1.261,1.261,0,0,1-.4.971A1.468,1.468,0,0,1,5.089.1,1.456,1.456,0,0,1,4.061-.277,1.261,1.261,0,0,1,3.656-1.248ZM-45.141,21h-2.637V8.2h2.637Zm4.614-9.51.079,1.1a3.32,3.32,0,0,1,2.733-1.274,2.759,2.759,0,0,1,2.25.888,4.142,4.142,0,0,1,.756,2.654V21h-2.54V14.918a1.648,1.648,0,0,0-.352-1.173,1.574,1.574,0,0,0-1.169-.365,1.747,1.747,0,0,0-1.608.914V21h-2.54V11.49ZM-32.089,21V13.354H-33.5V11.49h1.415v-.809A3.283,3.283,0,0,1-31.17,8.2,3.557,3.557,0,0,1-28.6,7.315a5.938,5.938,0,0,1,1.292.176l-.026,1.969a3.238,3.238,0,0,0-.773-.079q-1.433,0-1.433,1.345v.765h1.89v1.863h-1.89V21Zm5.361-4.843a5.64,5.64,0,0,1,.545-2.522,3.989,3.989,0,0,1,1.569-1.714,4.577,4.577,0,0,1,2.377-.606,4.33,4.33,0,0,1,3.142,1.178,4.727,4.727,0,0,1,1.358,3.2l.018.65a4.97,4.97,0,0,1-1.222,3.511,4.247,4.247,0,0,1-3.278,1.323A4.268,4.268,0,0,1-25.5,19.857a5.058,5.058,0,0,1-1.226-3.586Zm2.54.18a3.555,3.555,0,0,0,.51,2.073,1.682,1.682,0,0,0,1.459.717,1.686,1.686,0,0,0,1.441-.709,3.89,3.89,0,0,0,.519-2.267,3.519,3.519,0,0,0-.519-2.06,1.686,1.686,0,0,0-1.459-.731,1.658,1.658,0,0,0-1.441.726A3.955,3.955,0,0,0-24.187,16.338Zm13.377-2.465a6.9,6.9,0,0,0-.914-.07,1.86,1.86,0,0,0-1.89.976V21h-2.54V11.49h2.4l.07,1.134a2.354,2.354,0,0,1,2.118-1.31,2.662,2.662,0,0,1,.791.114Zm3.6-2.382.079,1.063a3.342,3.342,0,0,1,2.733-1.239,2.536,2.536,0,0,1,2.522,1.45,3.265,3.265,0,0,1,2.856-1.45,2.836,2.836,0,0,1,2.3.9,4.141,4.141,0,0,1,.756,2.711V21H1.494V14.936a1.811,1.811,0,0,0-.316-1.182A1.4,1.4,0,0,0,.062,13.38a1.585,1.585,0,0,0-1.582,1.09L-1.512,21h-2.54V14.944a1.789,1.789,0,0,0-.325-1.2,1.416,1.416,0,0,0-1.107-.369,1.646,1.646,0,0,0-1.564.9V21h-2.54V11.49ZM11.5,21a2.821,2.821,0,0,1-.255-.853,3.073,3.073,0,0,1-2.4,1.028,3.376,3.376,0,0,1-2.316-.809,2.6,2.6,0,0,1-.918-2.039,2.687,2.687,0,0,1,1.121-2.32,5.529,5.529,0,0,1,3.239-.817h1.169v-.545a1.567,1.567,0,0,0-.338-1.055,1.331,1.331,0,0,0-1.068-.4,1.513,1.513,0,0,0-1.006.308,1.045,1.045,0,0,0-.365.844H5.827a2.551,2.551,0,0,1,.51-1.529,3.37,3.37,0,0,1,1.441-1.1,5.253,5.253,0,0,1,2.092-.4,4.15,4.15,0,0,1,2.791.883,3.09,3.09,0,0,1,1.033,2.483V18.8a4.546,4.546,0,0,0,.378,2.048V21ZM9.4,19.233a2.188,2.188,0,0,0,1.037-.25,1.645,1.645,0,0,0,.7-.672V16.676H10.2q-1.907,0-2.03,1.318l-.009.149a1.017,1.017,0,0,0,.334.782A1.3,1.3,0,0,0,9.4,19.233Zm10.2-.105a1.666,1.666,0,0,0,1.143-.387,1.355,1.355,0,0,0,.457-1.028h2.382a3.258,3.258,0,0,1-.527,1.771,3.48,3.48,0,0,1-1.419,1.248,4.442,4.442,0,0,1-1.991.444,4.129,4.129,0,0,1-3.217-1.3A5.13,5.13,0,0,1,15.249,16.3v-.167a5.071,5.071,0,0,1,1.169-3.507,4.08,4.08,0,0,1,3.208-1.31,4,4,0,0,1,2.861,1.015,3.594,3.594,0,0,1,1.094,2.7H21.2a1.745,1.745,0,0,0-.457-1.206,1.7,1.7,0,0,0-2.5.183,3.749,3.749,0,0,0-.453,2.1v.264a3.8,3.8,0,0,0,.448,2.113A1.549,1.549,0,0,0,19.6,19.128ZM27.712,21H25.163V11.49h2.549Zm-2.7-11.971a1.251,1.251,0,0,1,.382-.94,1.648,1.648,0,0,1,2.079,0,1.342,1.342,0,0,1,0,1.89,1.629,1.629,0,0,1-2.065,0A1.247,1.247,0,0,1,25.014,9.029Zm4.395,7.128a5.64,5.64,0,0,1,.545-2.522,3.989,3.989,0,0,1,1.569-1.714,4.577,4.577,0,0,1,2.377-.606,4.33,4.33,0,0,1,3.142,1.178,4.727,4.727,0,0,1,1.358,3.2l.018.65A4.97,4.97,0,0,1,37.2,19.853a4.247,4.247,0,0,1-3.278,1.323,4.268,4.268,0,0,1-3.283-1.318,5.058,5.058,0,0,1-1.226-3.586Zm2.54.18a3.555,3.555,0,0,0,.51,2.073,1.831,1.831,0,0,0,2.9.009,3.89,3.89,0,0,0,.519-2.267,3.519,3.519,0,0,0-.519-2.06,1.686,1.686,0,0,0-1.459-.731,1.658,1.658,0,0,0-1.441.726A3.955,3.955,0,0,0,31.948,16.338ZM34.4,7.5h2.769l-2.435,2.725H32.669Zm7.919,3.99.079,1.1a3.32,3.32,0,0,1,2.733-1.274,2.759,2.759,0,0,1,2.25.888,4.142,4.142,0,0,1,.756,2.654V21H45.6V14.918a1.648,1.648,0,0,0-.352-1.173,1.574,1.574,0,0,0-1.169-.365,1.747,1.747,0,0,0-1.608.914V21h-2.54V11.49ZM-15.3,37.333a5.7,5.7,0,0,1-1,3.52,3.2,3.2,0,0,1-2.694,1.323,2.963,2.963,0,0,1-2.329-1v4.482h-2.54V32.49H-21.5l.088.932a2.985,2.985,0,0,1,2.408-1.107,3.22,3.22,0,0,1,2.733,1.3A5.858,5.858,0,0,1-15.3,37.2Zm-2.54-.185a3.743,3.743,0,0,0-.47-2.048,1.532,1.532,0,0,0-1.367-.721,1.663,1.663,0,0,0-1.644.914v3.894a1.692,1.692,0,0,0,1.661.94Q-17.837,40.128-17.837,37.148Zm9.457-2.276a6.9,6.9,0,0,0-.914-.07,1.86,1.86,0,0,0-1.89.976V42h-2.54V32.49h2.4l.07,1.134a2.354,2.354,0,0,1,2.118-1.31,2.662,2.662,0,0,1,.791.114Zm5.432,7.3a4.668,4.668,0,0,1-3.406-1.283,4.561,4.561,0,0,1-1.314-3.419v-.246a5.745,5.745,0,0,1,.554-2.562,4.064,4.064,0,0,1,1.569-1.74,4.4,4.4,0,0,1,2.316-.611,3.947,3.947,0,0,1,3.072,1.23A5,5,0,0,1,.962,37.034v1.037H-5.093a2.36,2.36,0,0,0,.743,1.494,2.245,2.245,0,0,0,1.569.563A2.742,2.742,0,0,0-.488,39.064l1.248,1.4A3.813,3.813,0,0,1-.787,41.723,5.075,5.075,0,0,1-2.949,42.176Zm-.29-7.813a1.587,1.587,0,0,0-1.226.512,2.651,2.651,0,0,0-.6,1.466h3.533v-.2a1.891,1.891,0,0,0-.457-1.311A1.638,1.638,0,0,0-3.239,34.362ZM5.849,38.9,7.616,32.49H10.27L7.062,42H4.636L1.428,32.49H4.083ZM14.067,42H11.518V32.49h2.549Zm-2.7-11.971a1.251,1.251,0,0,1,.382-.94,1.436,1.436,0,0,1,1.042-.369,1.44,1.44,0,0,1,1.037.369,1.342,1.342,0,0,1,0,1.89,1.443,1.443,0,0,1-1.033.369,1.443,1.443,0,0,1-1.033-.369A1.247,1.247,0,0,1,11.369,30.029ZM21.669,42a2.821,2.821,0,0,1-.255-.853,3.073,3.073,0,0,1-2.4,1.028,3.376,3.376,0,0,1-2.316-.809,2.6,2.6,0,0,1-.918-2.039,2.687,2.687,0,0,1,1.121-2.32,5.529,5.529,0,0,1,3.239-.817h1.169v-.545a1.567,1.567,0,0,0-.338-1.055,1.331,1.331,0,0,0-1.068-.4A1.513,1.513,0,0,0,18.9,34.5a1.045,1.045,0,0,0-.365.844h-2.54a2.551,2.551,0,0,1,.51-1.529,3.37,3.37,0,0,1,1.441-1.1,5.253,5.253,0,0,1,2.092-.4,4.15,4.15,0,0,1,2.791.883,3.09,3.09,0,0,1,1.033,2.483V39.8a4.546,4.546,0,0,0,.378,2.048V42Zm-2.1-1.767a2.188,2.188,0,0,0,1.037-.25,1.645,1.645,0,0,0,.7-.672V37.676H20.36q-1.907,0-2.03,1.318l-.009.149a1.017,1.017,0,0,0,.334.782A1.3,1.3,0,0,0,19.569,40.233Z" transform="translate(799 2862)"/>
  </g>
</svg>
