<svg xmlns="http://www.w3.org/2000/svg" xmlns:xlink="http://www.w3.org/1999/xlink" width="185.351" height="569.615" viewBox="0 0 185.351 569.615">
  <defs>
    <linearGradient id="linear-gradient" x1="0.493" y1="0.05" x2="0.493" y2="0.938" gradientUnits="objectBoundingBox">
      <stop offset="0" stop-color="#f4f3f1"/>
      <stop offset="1" stop-color="#d3d3d3"/>
    </linearGradient>
    <linearGradient id="linear-gradient-2" x1="3.124" y1="-2.284" x2="3.124" y2="-1.396" xlink:href="#linear-gradient"/>
  </defs>
  <g id="Grupo_240998" data-name="Grupo 240998" transform="translate(-707.5 -2987)">
    <path id="Trazado_200207" data-name="Trazado 200207" d="M333.807,399.783l95.212-53.968a12.79,12.79,0,0,0,6.4-11.078v-77.17a12.792,12.792,0,0,0-6.4-11.078L385.226,221.2" transform="translate(434.745 2772.426)" fill="none" stroke="#a3e8fe" stroke-linecap="round" stroke-linejoin="round" stroke-width="3"/>
    <path id="Trazado_200208" data-name="Trazado 200208" d="M306.622,333.506v-68.6a12.985,12.985,0,0,1,6.489-11.241l59.41-34.3a12.973,12.973,0,0,1,12.979,0l59.408,34.3a12.985,12.985,0,0,1,6.489,11.241v68.6a12.982,12.982,0,0,1-6.489,11.239l-59.408,34.3a12.973,12.973,0,0,1-12.979,0l-59.41-34.3A12.982,12.982,0,0,1,306.622,333.506Z" transform="translate(411.527 2769.371)" fill="url(#linear-gradient)"/>
    <path id="Trazado_200209" data-name="Trazado 200209" d="M311.031,261.172a4.874,4.874,0,0,1,2.432-4.212l59.347-34.265a4.888,4.888,0,0,1,4.869,0l59.343,34.263a4.877,4.877,0,0,1,2.434,4.214V329.7a4.878,4.878,0,0,1-2.434,4.214l-59.345,34.263a4.883,4.883,0,0,1-4.869,0l-59.343-34.263a4.878,4.878,0,0,1-2.434-4.214Z" transform="translate(414.969 2772.955)" fill="#a3e8fe"/>
    <path id="Trazado_200210" data-name="Trazado 200210" d="M351.877,221.2l-43.793,25.284a12.792,12.792,0,0,0-6.4,11.078v77.17a12.79,12.79,0,0,0,6.4,11.078L351.877,371.1" transform="translate(407.313 2772.426)" fill="none" stroke="#a3e8fe" stroke-linecap="round" stroke-linejoin="round" stroke-width="3"/>
    <path id="Trazado_233378" data-name="Trazado 233378" d="M-20.383-2.977h-4.766L-26.219,0h-1.547l4.344-11.375h1.313L-17.758,0H-19.3ZM-24.7-4.2h3.867l-1.937-5.32ZM-16.8-4.3a4.952,4.952,0,0,1,.922-3.129,2.915,2.915,0,0,1,2.414-1.184,2.932,2.932,0,0,1,2.352,1.016V-12h1.445V0H-11l-.07-.906A2.943,2.943,0,0,1-13.484.156a2.887,2.887,0,0,1-2.395-1.2A5.008,5.008,0,0,1-16.8-4.187Zm1.445.164a3.749,3.749,0,0,0,.594,2.25,1.92,1.92,0,0,0,1.641.813A2.108,2.108,0,0,0-11.117-2.3V-6.187a2.125,2.125,0,0,0-1.992-1.2,1.929,1.929,0,0,0-1.656.82A4.128,4.128,0,0,0-15.359-4.133ZM-7.781-4.3a4.961,4.961,0,0,1,.914-3.152,2.962,2.962,0,0,1,2.453-1.16A2.96,2.96,0,0,1-2.047-7.6l.063-.852H-.656V3.25H-2.1V-.781A3.033,3.033,0,0,1-4.43.156,2.915,2.915,0,0,1-6.871-1.035a5.072,5.072,0,0,1-.91-3.16Zm1.445.164a3.761,3.761,0,0,0,.613,2.281,1.951,1.951,0,0,0,1.652.828A2.164,2.164,0,0,0-2.1-2.164V-6.3A2.171,2.171,0,0,0-4.055-7.422a1.965,1.965,0,0,0-1.664.832A4.094,4.094,0,0,0-6.336-4.133ZM6.883-.836A3.07,3.07,0,0,1,4.406.156,2.628,2.628,0,0,1,2.348-.629a3.4,3.4,0,0,1-.715-2.324v-5.5H3.078v5.461q0,1.922,1.563,1.922A2.163,2.163,0,0,0,6.844-2.3V-8.453H8.289V0H6.914ZM12.055,0H10.609V-8.453h1.445ZM10.492-10.7a.863.863,0,0,1,.215-.594.807.807,0,0,1,.637-.242.819.819,0,0,1,.641.242.854.854,0,0,1,.219.594.826.826,0,0,1-.219.586.834.834,0,0,1-.641.234.821.821,0,0,1-.637-.234A.834.834,0,0,1,10.492-10.7Zm7.961,3.539a4.331,4.331,0,0,0-.711-.055A1.9,1.9,0,0,0,15.813-6V0H14.367V-8.453h1.406l.023.977a2.251,2.251,0,0,1,2.016-1.133,1.477,1.477,0,0,1,.641.109ZM21.352,0H19.906V-8.453h1.445ZM19.789-10.7A.863.863,0,0,1,20-11.289a.807.807,0,0,1,.637-.242.819.819,0,0,1,.641.242.854.854,0,0,1,.219.594.826.826,0,0,1-.219.586.834.834,0,0,1-.641.234A.821.821,0,0,1,20-10.109.834.834,0,0,1,19.789-10.7ZM27.75-7.156a4.331,4.331,0,0,0-.711-.055A1.9,1.9,0,0,0,25.109-6V0H23.664V-8.453H25.07l.023.977a2.251,2.251,0,0,1,2.016-1.133,1.477,1.477,0,0,1,.641.109ZM-48.2,17.977a2.082,2.082,0,0,0,1.352-.469,1.649,1.649,0,0,0,.641-1.172h1.367a2.621,2.621,0,0,1-.5,1.383,3.293,3.293,0,0,1-1.23,1.047,3.55,3.55,0,0,1-1.629.391A3.482,3.482,0,0,1-50.945,18a4.59,4.59,0,0,1-1.02-3.152v-.242a5.089,5.089,0,0,1,.453-2.2,3.451,3.451,0,0,1,1.3-1.492,3.7,3.7,0,0,1,2-.531,3.39,3.39,0,0,1,2.363.852,3.043,3.043,0,0,1,1,2.211h-1.367a1.992,1.992,0,0,0-.621-1.348,1.932,1.932,0,0,0-1.379-.527,2.023,2.023,0,0,0-1.707.793,3.724,3.724,0,0,0-.605,2.293v.273a3.65,3.65,0,0,0,.6,2.25A2.033,2.033,0,0,0-48.2,17.977Zm4.6-3.281a4.993,4.993,0,0,1,.488-2.234A3.643,3.643,0,0,1-41.75,10.93a3.7,3.7,0,0,1,1.988-.539,3.565,3.565,0,0,1,2.793,1.2,4.6,4.6,0,0,1,1.066,3.18v.1a5.036,5.036,0,0,1-.473,2.215,3.589,3.589,0,0,1-1.352,1.527,3.743,3.743,0,0,1-2.02.547,3.556,3.556,0,0,1-2.785-1.2A4.575,4.575,0,0,1-43.6,14.8Zm1.453.172a3.616,3.616,0,0,0,.652,2.258,2.088,2.088,0,0,0,1.746.852A2.075,2.075,0,0,0-38,17.113a3.955,3.955,0,0,0,.648-2.418,3.61,3.61,0,0,0-.66-2.254,2.1,2.1,0,0,0-1.754-.863,2.075,2.075,0,0,0-1.727.852A3.925,3.925,0,0,0-42.145,14.867Zm9.422-4.32.047,1.063a3.08,3.08,0,0,1,2.531-1.219q2.68,0,2.7,3.023V19h-1.445V13.406a1.946,1.946,0,0,0-.418-1.352,1.675,1.675,0,0,0-1.277-.437,2.086,2.086,0,0,0-1.234.375,2.546,2.546,0,0,0-.828.984V19H-34.09V10.547Zm7.078,4.148a4.993,4.993,0,0,1,.488-2.234A3.643,3.643,0,0,1-23.8,10.93a3.7,3.7,0,0,1,1.988-.539,3.565,3.565,0,0,1,2.793,1.2,4.6,4.6,0,0,1,1.066,3.18v.1a5.036,5.036,0,0,1-.473,2.215,3.589,3.589,0,0,1-1.352,1.527,3.743,3.743,0,0,1-2.02.547,3.556,3.556,0,0,1-2.785-1.2A4.575,4.575,0,0,1-25.645,14.8Zm1.453.172a3.616,3.616,0,0,0,.652,2.258,2.088,2.088,0,0,0,1.746.852,2.075,2.075,0,0,0,1.75-.863,3.955,3.955,0,0,0,.648-2.418,3.61,3.61,0,0,0-.66-2.254,2.1,2.1,0,0,0-1.754-.863,2.075,2.075,0,0,0-1.727.852A3.925,3.925,0,0,0-24.191,14.867Zm11.445,3.109a2.082,2.082,0,0,0,1.352-.469,1.649,1.649,0,0,0,.641-1.172h1.367a2.621,2.621,0,0,1-.5,1.383,3.293,3.293,0,0,1-1.23,1.047,3.55,3.55,0,0,1-1.629.391A3.482,3.482,0,0,1-15.492,18a4.59,4.59,0,0,1-1.02-3.152v-.242a5.089,5.089,0,0,1,.453-2.2,3.451,3.451,0,0,1,1.3-1.492,3.7,3.7,0,0,1,2-.531,3.39,3.39,0,0,1,2.363.852,3.043,3.043,0,0,1,1,2.211h-1.367a1.992,1.992,0,0,0-.621-1.348,1.932,1.932,0,0,0-1.379-.527,2.023,2.023,0,0,0-1.707.793,3.724,3.724,0,0,0-.605,2.293v.273a3.65,3.65,0,0,0,.6,2.25A2.033,2.033,0,0,0-12.746,17.977ZM-6.191,19H-7.637V10.547h1.445ZM-7.754,8.3a.863.863,0,0,1,.215-.594A.807.807,0,0,1-6.9,7.469a.819.819,0,0,1,.641.242.854.854,0,0,1,.219.594.826.826,0,0,1-.219.586.834.834,0,0,1-.641.234.821.821,0,0,1-.637-.234A.834.834,0,0,1-7.754,8.3Zm5.234,2.242.039.938A3.122,3.122,0,0,1,.027,10.391,2.417,2.417,0,0,1,2.441,11.75a3.2,3.2,0,0,1,1.1-.984,3.242,3.242,0,0,1,1.6-.375q2.781,0,2.828,2.945V19H6.52V13.422a1.941,1.941,0,0,0-.414-1.355,1.823,1.823,0,0,0-1.391-.449,1.916,1.916,0,0,0-1.336.48,1.949,1.949,0,0,0-.617,1.293V19H1.309V13.461A1.613,1.613,0,0,0-.5,11.617a1.934,1.934,0,0,0-1.945,1.211V19H-3.887V10.547ZM11.715,19H10.27V10.547h1.445ZM10.152,8.3a.863.863,0,0,1,.215-.594A.807.807,0,0,1,11,7.469a.819.819,0,0,1,.641.242.854.854,0,0,1,.219.594.826.826,0,0,1-.219.586A.834.834,0,0,1,11,9.125a.821.821,0,0,1-.637-.234A.834.834,0,0,1,10.152,8.3Zm7.383,10.852a3.693,3.693,0,0,1-2.8-1.129,4.19,4.19,0,0,1-1.078-3.02v-.266a5.073,5.073,0,0,1,.48-2.246,3.748,3.748,0,0,1,1.344-1.547,3.378,3.378,0,0,1,1.871-.559,3.166,3.166,0,0,1,2.563,1.086,4.7,4.7,0,0,1,.914,3.109v.6H15.105a3,3,0,0,0,.73,2.02,2.3,2.3,0,0,0,1.777.77,2.517,2.517,0,0,0,1.3-.312,3.259,3.259,0,0,0,.93-.828l.883.688A3.55,3.55,0,0,1,17.535,19.156Zm-.18-7.578a1.928,1.928,0,0,0-1.469.637A3.1,3.1,0,0,0,15.152,14h4.234v-.109a2.753,2.753,0,0,0-.594-1.707A1.815,1.815,0,0,0,17.355,11.578Zm6.516-1.031.047,1.063a3.08,3.08,0,0,1,2.531-1.219q2.68,0,2.7,3.023V19H27.707V13.406a1.946,1.946,0,0,0-.418-1.352,1.675,1.675,0,0,0-1.277-.437,2.086,2.086,0,0,0-1.234.375,2.546,2.546,0,0,0-.828.984V19H22.5V10.547ZM33.293,8.5v2.047h1.578v1.117H33.293v5.249a1.173,1.173,0,0,0,.211.763.888.888,0,0,0,.719.254,3.5,3.5,0,0,0,.688-.094V19a4.215,4.215,0,0,1-1.109.155,1.8,1.8,0,0,1-1.461-.586,2.517,2.517,0,0,1-.492-1.664V11.664H30.309V10.547h1.539V8.5Zm2.727,6.2a4.993,4.993,0,0,1,.488-2.234,3.643,3.643,0,0,1,1.359-1.531,3.7,3.7,0,0,1,1.988-.539,3.565,3.565,0,0,1,2.793,1.2,4.6,4.6,0,0,1,1.066,3.18v.1a5.036,5.036,0,0,1-.473,2.215,3.589,3.589,0,0,1-1.352,1.527,3.743,3.743,0,0,1-2.02.547,3.556,3.556,0,0,1-2.785-1.2A4.575,4.575,0,0,1,36.02,14.8Zm1.453.172a3.616,3.616,0,0,0,.652,2.258,2.211,2.211,0,0,0,3.5-.012A3.955,3.955,0,0,0,42.27,14.7a3.61,3.61,0,0,0-.66-2.254,2.1,2.1,0,0,0-1.754-.863,2.075,2.075,0,0,0-1.727.852A3.925,3.925,0,0,0,37.473,14.867Zm12.977,1.891a1.064,1.064,0,0,0-.441-.91,4.249,4.249,0,0,0-1.539-.559,7.277,7.277,0,0,1-1.742-.562,2.479,2.479,0,0,1-.953-.781,1.869,1.869,0,0,1-.309-1.078,2.193,2.193,0,0,1,.879-1.758,3.432,3.432,0,0,1,2.246-.719,3.532,3.532,0,0,1,2.332.742,2.357,2.357,0,0,1,.895,1.9H50.363a1.3,1.3,0,0,0-.5-1.023,1.888,1.888,0,0,0-1.27-.43,1.976,1.976,0,0,0-1.234.344,1.082,1.082,0,0,0-.445.9.877.877,0,0,0,.414.789,5.1,5.1,0,0,0,1.5.508,7.8,7.8,0,0,1,1.754.578,2.558,2.558,0,0,1,1,.809,1.988,1.988,0,0,1,.324,1.152,2.163,2.163,0,0,1-.906,1.816,3.8,3.8,0,0,1-2.352.684,4.257,4.257,0,0,1-1.8-.359,2.922,2.922,0,0,1-1.223-1,2.42,2.42,0,0,1-.441-1.395h1.445a1.5,1.5,0,0,0,.582,1.152,2.258,2.258,0,0,0,1.434.426,2.331,2.331,0,0,0,1.316-.332A1.02,1.02,0,0,0,50.449,16.758Z" transform="translate(791 3066)" fill="#010201"/>
    <path id="Trazado_200211" data-name="Trazado 200211" d="M333.807,605.171,429.019,551.2a12.792,12.792,0,0,0,6.4-11.078V462.953a12.789,12.789,0,0,0-6.4-11.076l-43.793-25.286" transform="translate(434.745 2947.839)" fill="none" stroke="#00c5ff" stroke-linecap="round" stroke-linejoin="round" stroke-width="3"/>
    <path id="Trazado_200212" data-name="Trazado 200212" d="M306.622,538.892v-68.6a12.98,12.98,0,0,1,6.489-11.239l59.41-34.3a12.983,12.983,0,0,1,12.979,0l59.408,34.3a12.98,12.98,0,0,1,6.489,11.239v68.6a12.98,12.98,0,0,1-6.489,11.239l-59.408,34.3a12.982,12.982,0,0,1-12.979,0l-59.41-34.3A12.98,12.98,0,0,1,306.622,538.892Z" transform="translate(411.527 2944.785)" fill="url(#linear-gradient-2)"/>
    <path id="Trazado_200213" data-name="Trazado 200213" d="M311.031,466.559a4.88,4.88,0,0,1,2.432-4.214L372.81,428.08a4.892,4.892,0,0,1,4.869,0l59.343,34.263a4.883,4.883,0,0,1,2.434,4.216v68.526a4.872,4.872,0,0,1-2.434,4.212l-59.345,34.265a4.883,4.883,0,0,1-4.869,0L313.465,539.3a4.878,4.878,0,0,1-2.434-4.214Z" transform="translate(414.969 2948.569)" fill="#00c5ff"/>
    <path id="Trazado_200214" data-name="Trazado 200214" d="M351.877,426.591l-43.793,25.286a12.789,12.789,0,0,0-6.4,11.076v77.172a12.792,12.792,0,0,0,6.4,11.078l43.793,25.284" transform="translate(407.313 2947.839)" fill="none" stroke="#00c5ff" stroke-linecap="round" stroke-linejoin="round" stroke-width="3"/>
    <path id="Trazado_233379" data-name="Trazado 233379" d="M-33.293-10.148h-3.656V0h-1.492V-10.148H-42.09v-1.227h8.8Zm4.961,2.992a4.331,4.331,0,0,0-.711-.055A1.9,1.9,0,0,0-30.973-6V0h-1.445V-8.453h1.406l.023.977a2.251,2.251,0,0,1,2.016-1.133,1.477,1.477,0,0,1,.641.109ZM-22.1,0a3.036,3.036,0,0,1-.2-.891A3.225,3.225,0,0,1-24.707.156a2.984,2.984,0,0,1-2.051-.707,2.287,2.287,0,0,1-.8-1.793,2.39,2.39,0,0,1,1-2.051,4.733,4.733,0,0,1,2.824-.73h1.406v-.664A1.623,1.623,0,0,0-22.777-7a1.821,1.821,0,0,0-1.336-.449,2.108,2.108,0,0,0-1.3.391,1.151,1.151,0,0,0-.523.945h-1.453a2,2,0,0,1,.449-1.223,3.066,3.066,0,0,1,1.219-.934,4.1,4.1,0,0,1,1.691-.344,3.342,3.342,0,0,1,2.289.73,2.635,2.635,0,0,1,.859,2.012v3.891a4.757,4.757,0,0,0,.3,1.852V0Zm-2.4-1.1a2.54,2.54,0,0,0,1.289-.352,2.127,2.127,0,0,0,.883-.914V-4.1h-1.133q-2.656,0-2.656,1.555a1.316,1.316,0,0,0,.453,1.063A1.742,1.742,0,0,0-24.5-1.1Zm7.25-7.352.047,1.063a3.08,3.08,0,0,1,2.531-1.219q2.68,0,2.7,3.023V0H-13.41V-5.594a1.946,1.946,0,0,0-.418-1.352,1.675,1.675,0,0,0-1.277-.437,2.086,2.086,0,0,0-1.234.375,2.546,2.546,0,0,0-.828.984V0h-1.445V-8.453ZM-4.863-2.242a1.064,1.064,0,0,0-.441-.91,4.249,4.249,0,0,0-1.539-.559,7.277,7.277,0,0,1-1.742-.562,2.479,2.479,0,0,1-.953-.781,1.869,1.869,0,0,1-.309-1.078,2.193,2.193,0,0,1,.879-1.758,3.432,3.432,0,0,1,2.246-.719,3.532,3.532,0,0,1,2.332.742,2.357,2.357,0,0,1,.895,1.9H-4.949a1.3,1.3,0,0,0-.5-1.023,1.888,1.888,0,0,0-1.27-.43,1.976,1.976,0,0,0-1.234.344,1.082,1.082,0,0,0-.445.9.877.877,0,0,0,.414.789,5.1,5.1,0,0,0,1.5.508A7.8,7.8,0,0,1-4.738-4.3a2.558,2.558,0,0,1,1,.809,1.988,1.988,0,0,1,.324,1.152A2.163,2.163,0,0,1-4.324-.527,3.8,3.8,0,0,1-6.676.156,4.257,4.257,0,0,1-8.473-.2a2.922,2.922,0,0,1-1.223-1A2.42,2.42,0,0,1-10.137-2.6h1.445a1.5,1.5,0,0,0,.582,1.152,2.258,2.258,0,0,0,1.434.426,2.331,2.331,0,0,0,1.316-.332A1.02,1.02,0,0,0-4.863-2.242ZM-.824,0V-7.336H-2.16V-8.453H-.824V-9.32a2.878,2.878,0,0,1,.727-2.1,2.745,2.745,0,0,1,2.055-.742,3.816,3.816,0,0,1,.992.132l-.078,1.165a4.151,4.151,0,0,0-.781-.07A1.41,1.41,0,0,0,1-10.526a1.669,1.669,0,0,0-.383,1.18v.893h1.8v1.117H.621V0ZM7.34.156a3.693,3.693,0,0,1-2.8-1.129,4.19,4.19,0,0,1-1.078-3.02v-.266A5.073,5.073,0,0,1,3.945-6.5,3.748,3.748,0,0,1,5.289-8.051,3.378,3.378,0,0,1,7.16-8.609,3.166,3.166,0,0,1,9.723-7.523a4.7,4.7,0,0,1,.914,3.109v.6H4.91a3,3,0,0,0,.73,2.02,2.3,2.3,0,0,0,1.777.77,2.517,2.517,0,0,0,1.3-.312,3.259,3.259,0,0,0,.93-.828l.883.688A3.55,3.55,0,0,1,7.34.156ZM7.16-7.422a1.928,1.928,0,0,0-1.469.637A3.1,3.1,0,0,0,4.957-5H9.191v-.109A2.753,2.753,0,0,0,8.6-6.816,1.815,1.815,0,0,0,7.16-7.422Zm9.234.266a4.331,4.331,0,0,0-.711-.055A1.9,1.9,0,0,0,13.754-6V0H12.309V-8.453h1.406l.023.977a2.251,2.251,0,0,1,2.016-1.133,1.477,1.477,0,0,1,.641.109ZM19.293,0H17.848V-8.453h1.445ZM17.73-10.7a.863.863,0,0,1,.215-.594.807.807,0,0,1,.637-.242.819.819,0,0,1,.641.242.854.854,0,0,1,.219.594.826.826,0,0,1-.219.586.834.834,0,0,1-.641.234.821.821,0,0,1-.637-.234A.834.834,0,0,1,17.73-10.7Zm7.961,3.539a4.331,4.331,0,0,0-.711-.055A1.9,1.9,0,0,0,23.051-6V0H21.605V-8.453h1.406l.023.977a2.251,2.251,0,0,1,2.016-1.133,1.477,1.477,0,0,1,.641.109ZM36.2,0A3.036,3.036,0,0,1,36-.891,3.225,3.225,0,0,1,33.59.156a2.984,2.984,0,0,1-2.051-.707,2.287,2.287,0,0,1-.8-1.793,2.39,2.39,0,0,1,1-2.051,4.733,4.733,0,0,1,2.824-.73h1.406v-.664A1.623,1.623,0,0,0,35.52-7a1.821,1.821,0,0,0-1.336-.449,2.107,2.107,0,0,0-1.3.391,1.151,1.151,0,0,0-.523.945H30.91a2,2,0,0,1,.449-1.223,3.066,3.066,0,0,1,1.219-.934,4.1,4.1,0,0,1,1.691-.344,3.342,3.342,0,0,1,2.289.73,2.635,2.635,0,0,1,.859,2.012v3.891a4.757,4.757,0,0,0,.3,1.852V0ZM33.8-1.1a2.54,2.54,0,0,0,1.289-.352,2.127,2.127,0,0,0,.883-.914V-4.1H34.84q-2.656,0-2.656,1.555a1.316,1.316,0,0,0,.453,1.063A1.742,1.742,0,0,0,33.8-1.1ZM41.254,0H39.809V-12h1.445ZM-51.785,17.977a2.082,2.082,0,0,0,1.352-.469,1.649,1.649,0,0,0,.641-1.172h1.367a2.621,2.621,0,0,1-.5,1.383,3.293,3.293,0,0,1-1.23,1.047,3.55,3.55,0,0,1-1.629.391A3.482,3.482,0,0,1-54.531,18a4.59,4.59,0,0,1-1.02-3.152v-.242a5.089,5.089,0,0,1,.453-2.2,3.451,3.451,0,0,1,1.3-1.492,3.7,3.7,0,0,1,2-.531,3.39,3.39,0,0,1,2.363.852,3.043,3.043,0,0,1,1,2.211h-1.367a1.992,1.992,0,0,0-.621-1.348,1.932,1.932,0,0,0-1.379-.527,2.023,2.023,0,0,0-1.707.793,3.724,3.724,0,0,0-.605,2.293v.273a3.65,3.65,0,0,0,.6,2.25A2.033,2.033,0,0,0-51.785,17.977Zm4.6-3.281a4.993,4.993,0,0,1,.488-2.234,3.643,3.643,0,0,1,1.359-1.531,3.7,3.7,0,0,1,1.988-.539,3.565,3.565,0,0,1,2.793,1.2,4.6,4.6,0,0,1,1.066,3.18v.1a5.036,5.036,0,0,1-.473,2.215,3.589,3.589,0,0,1-1.352,1.527,3.743,3.743,0,0,1-2.02.547,3.556,3.556,0,0,1-2.785-1.2A4.575,4.575,0,0,1-47.184,14.8Zm1.453.172a3.616,3.616,0,0,0,.652,2.258,2.088,2.088,0,0,0,1.746.852,2.075,2.075,0,0,0,1.75-.863,3.955,3.955,0,0,0,.648-2.418,3.61,3.61,0,0,0-.66-2.254,2.1,2.1,0,0,0-1.754-.863,2.075,2.075,0,0,0-1.727.852A3.925,3.925,0,0,0-45.73,14.867Zm9.422-4.32.047,1.063a3.08,3.08,0,0,1,2.531-1.219q2.68,0,2.7,3.023V19h-1.445V13.406a1.946,1.946,0,0,0-.418-1.352,1.675,1.675,0,0,0-1.277-.437,2.086,2.086,0,0,0-1.234.375,2.546,2.546,0,0,0-.828.984V19h-1.445V10.547ZM-26.887,8.5v2.047h1.578v1.117h-1.578v5.249a1.173,1.173,0,0,0,.211.763.888.888,0,0,0,.719.254,3.5,3.5,0,0,0,.688-.094V19a4.215,4.215,0,0,1-1.109.155,1.8,1.8,0,0,1-1.461-.586,2.517,2.517,0,0,1-.492-1.664V11.664h-1.539V10.547h1.539V8.5Zm6.773,10.656a3.693,3.693,0,0,1-2.8-1.129,4.19,4.19,0,0,1-1.078-3.02v-.266a5.073,5.073,0,0,1,.48-2.246,3.748,3.748,0,0,1,1.344-1.547,3.378,3.378,0,0,1,1.871-.559,3.166,3.166,0,0,1,2.563,1.086,4.7,4.7,0,0,1,.914,3.109v.6h-5.727a3,3,0,0,0,.73,2.02,2.3,2.3,0,0,0,1.777.77,2.517,2.517,0,0,0,1.3-.312,3.259,3.259,0,0,0,.93-.828l.883.688A3.55,3.55,0,0,1-20.113,19.156Zm-.18-7.578a1.928,1.928,0,0,0-1.469.637A3.1,3.1,0,0,0-22.5,14h4.234v-.109a2.753,2.753,0,0,0-.594-1.707A1.815,1.815,0,0,0-20.293,11.578Zm7.984,2.055,1.875-3.086h1.688l-2.766,4.18L-8.66,19h-1.672l-1.953-3.164L-14.238,19h-1.68l2.852-4.273-2.766-4.18h1.672ZM-5.254,8.5v2.047h1.578v1.117H-5.254v5.249a1.173,1.173,0,0,0,.211.763.888.888,0,0,0,.719.254,3.5,3.5,0,0,0,.688-.094V19a4.215,4.215,0,0,1-1.109.155,1.8,1.8,0,0,1-1.461-.586A2.517,2.517,0,0,1-6.7,16.906V11.664H-8.238V10.547H-6.7V8.5Zm2.727,6.2a4.993,4.993,0,0,1,.488-2.234A3.643,3.643,0,0,1-.68,10.93a3.7,3.7,0,0,1,1.988-.539,3.565,3.565,0,0,1,2.793,1.2,4.6,4.6,0,0,1,1.066,3.18v.1A5.036,5.036,0,0,1,4.7,17.082a3.589,3.589,0,0,1-1.352,1.527,3.743,3.743,0,0,1-2.02.547,3.556,3.556,0,0,1-2.785-1.2A4.575,4.575,0,0,1-2.527,14.8Zm1.453.172a3.616,3.616,0,0,0,.652,2.258,2.088,2.088,0,0,0,1.746.852,2.075,2.075,0,0,0,1.75-.863A3.955,3.955,0,0,0,3.723,14.7a3.61,3.61,0,0,0-.66-2.254,2.1,2.1,0,0,0-1.754-.863,2.075,2.075,0,0,0-1.727.852A3.925,3.925,0,0,0-1.074,14.867Zm15.406,3.109a2.082,2.082,0,0,0,1.352-.469,1.649,1.649,0,0,0,.641-1.172h1.367a2.621,2.621,0,0,1-.5,1.383,3.293,3.293,0,0,1-1.23,1.047,3.55,3.55,0,0,1-1.629.391A3.482,3.482,0,0,1,11.586,18a4.59,4.59,0,0,1-1.02-3.152v-.242a5.089,5.089,0,0,1,.453-2.2,3.451,3.451,0,0,1,1.3-1.492,3.7,3.7,0,0,1,2-.531,3.39,3.39,0,0,1,2.363.852,3.043,3.043,0,0,1,1,2.211H16.324a1.992,1.992,0,0,0-.621-1.348,1.932,1.932,0,0,0-1.379-.527,2.023,2.023,0,0,0-1.707.793,3.724,3.724,0,0,0-.605,2.293v.273a3.65,3.65,0,0,0,.6,2.25A2.033,2.033,0,0,0,14.332,17.977ZM20.887,19H19.441V7h1.445Zm3.883,0H23.316V10.547H24.77Zm.016-11.992h1.75L24.441,9.3l-1.164,0Zm3.734,3.539.047,1.063A3.08,3.08,0,0,1,31.1,10.391q2.68,0,2.7,3.023V19H32.355V13.406a1.946,1.946,0,0,0-.418-1.352,1.675,1.675,0,0,0-1.277-.437,2.086,2.086,0,0,0-1.234.375,2.546,2.546,0,0,0-.828.984V19H27.152V10.547ZM37.551,19H36.105V10.547h1.445ZM35.988,8.3a.863.863,0,0,1,.215-.594.807.807,0,0,1,.637-.242.819.819,0,0,1,.641.242A.854.854,0,0,1,37.7,8.3a.826.826,0,0,1-.219.586.834.834,0,0,1-.641.234.821.821,0,0,1-.637-.234A.834.834,0,0,1,35.988,8.3Zm7.266,9.672a2.082,2.082,0,0,0,1.352-.469,1.649,1.649,0,0,0,.641-1.172h1.367a2.621,2.621,0,0,1-.5,1.383,3.293,3.293,0,0,1-1.23,1.047,3.55,3.55,0,0,1-1.629.391A3.482,3.482,0,0,1,40.508,18a4.59,4.59,0,0,1-1.02-3.152v-.242a5.089,5.089,0,0,1,.453-2.2,3.451,3.451,0,0,1,1.3-1.492,3.7,3.7,0,0,1,2-.531,3.39,3.39,0,0,1,2.363.852,3.043,3.043,0,0,1,1,2.211H45.246a1.992,1.992,0,0,0-.621-1.348,1.932,1.932,0,0,0-1.379-.527,2.023,2.023,0,0,0-1.707.793,3.724,3.724,0,0,0-.605,2.293v.273a3.65,3.65,0,0,0,.6,2.25A2.033,2.033,0,0,0,43.254,17.977Zm4.6-3.281a4.993,4.993,0,0,1,.488-2.234A3.643,3.643,0,0,1,49.7,10.93a3.7,3.7,0,0,1,1.988-.539,3.565,3.565,0,0,1,2.793,1.2,4.6,4.6,0,0,1,1.066,3.18v.1a5.036,5.036,0,0,1-.473,2.215,3.589,3.589,0,0,1-1.352,1.527,3.743,3.743,0,0,1-2.02.547,3.556,3.556,0,0,1-2.785-1.2A4.575,4.575,0,0,1,47.855,14.8Zm1.453.172a3.616,3.616,0,0,0,.652,2.258,2.211,2.211,0,0,0,3.5-.012,3.955,3.955,0,0,0,.648-2.418,3.61,3.61,0,0,0-.66-2.254,2.1,2.1,0,0,0-1.754-.863,2.075,2.075,0,0,0-1.727.852A3.925,3.925,0,0,0,49.309,14.867Z" transform="translate(791 3446)" fill="#010201"/>
    <path id="Trazado_200215" data-name="Trazado 200215" d="M372.969,473.362l43.793-25.284a12.79,12.79,0,0,0,6.4-11.078V359.83a12.79,12.79,0,0,0-6.4-11.078l-43.793-25.284" transform="translate(468.192 2859.765)" fill="none" stroke="#87e3fe" stroke-linecap="round" stroke-linejoin="round" stroke-width="3"/>
    <path id="Trazado_200216" data-name="Trazado 200216" d="M318.052,435.769v-68.6a12.98,12.98,0,0,1,6.489-11.239l59.408-34.3a12.974,12.974,0,0,1,12.978,0l59.408,34.3a12.98,12.98,0,0,1,6.489,11.239v68.6a12.98,12.98,0,0,1-6.489,11.239l-59.408,34.3a12.973,12.973,0,0,1-12.978,0l-59.408-34.3A12.98,12.98,0,0,1,318.052,435.769Z" transform="translate(421.289 2856.711)" fill="url(#linear-gradient)"/>
    <path id="Trazado_200217" data-name="Trazado 200217" d="M322.461,363.435a4.87,4.87,0,0,1,2.433-4.212l59.345-34.265a4.883,4.883,0,0,1,4.869,0l59.343,34.263a4.877,4.877,0,0,1,2.434,4.214v68.526a4.874,4.874,0,0,1-2.432,4.212l-59.345,34.265a4.878,4.878,0,0,1-4.869,0l-59.345-34.261a4.876,4.876,0,0,1-2.433-4.214Z" transform="translate(425.539 2860.692)" fill="#87e3fe"/>
    <path id="Trazado_233380" data-name="Trazado 233380" d="M-23.863-4.6h-2.672V0h-1.508V-11.375h3.766a4.457,4.457,0,0,1,2.957.875,3.148,3.148,0,0,1,1.035,2.547A3.062,3.062,0,0,1-20.859-6.1a3.428,3.428,0,0,1-1.6,1.18l2.672,4.828V0h-1.609Zm-2.672-1.227h2.3a2.6,2.6,0,0,0,1.777-.579,1.959,1.959,0,0,0,.66-1.55,2.062,2.062,0,0,0-.629-1.62,2.663,2.663,0,0,0-1.816-.571h-2.3ZM-14.9.156A3.693,3.693,0,0,1-17.7-.973a4.19,4.19,0,0,1-1.078-3.02v-.266A5.073,5.073,0,0,1-18.3-6.5a3.748,3.748,0,0,1,1.344-1.547,3.378,3.378,0,0,1,1.871-.559A3.166,3.166,0,0,1-12.52-7.523a4.7,4.7,0,0,1,.914,3.109v.6h-5.727a3,3,0,0,0,.73,2.02,2.3,2.3,0,0,0,1.777.77,2.517,2.517,0,0,0,1.3-.312,3.259,3.259,0,0,0,.93-.828l.883.688A3.55,3.55,0,0,1-14.9.156Zm-.18-7.578a1.928,1.928,0,0,0-1.469.637A3.1,3.1,0,0,0-17.285-5h4.234v-.109a2.753,2.753,0,0,0-.594-1.707A1.815,1.815,0,0,0-15.082-7.422ZM-7.973-10.5v2.047h1.578v1.117H-7.973v5.249a1.173,1.173,0,0,0,.211.763.888.888,0,0,0,.719.254,3.5,3.5,0,0,0,.688-.094V0A4.215,4.215,0,0,1-7.465.156,1.8,1.8,0,0,1-8.926-.43a2.517,2.517,0,0,1-.492-1.664V-7.336h-1.539V-8.453h1.539V-10.5ZM-1.2.156A3.693,3.693,0,0,1-4-.973a4.19,4.19,0,0,1-1.078-3.02v-.266A5.073,5.073,0,0,1-4.594-6.5,3.748,3.748,0,0,1-3.25-8.051a3.378,3.378,0,0,1,1.871-.559A3.166,3.166,0,0,1,1.184-7.523,4.7,4.7,0,0,1,2.1-4.414v.6H-3.629a3,3,0,0,0,.73,2.02,2.3,2.3,0,0,0,1.777.77,2.517,2.517,0,0,0,1.3-.312,3.259,3.259,0,0,0,.93-.828l.883.688A3.55,3.55,0,0,1-1.2.156Zm-.18-7.578a1.928,1.928,0,0,0-1.469.637A3.1,3.1,0,0,0-3.582-5H.652v-.109A2.753,2.753,0,0,0,.059-6.816,1.815,1.815,0,0,0-1.379-7.422ZM5.137-8.453l.047,1.063A3.08,3.08,0,0,1,7.715-8.609q2.68,0,2.7,3.023V0H8.973V-5.594a1.946,1.946,0,0,0-.418-1.352,1.675,1.675,0,0,0-1.277-.437,2.086,2.086,0,0,0-1.234.375,2.546,2.546,0,0,0-.828.984V0H3.77V-8.453ZM16.105.156a3.693,3.693,0,0,1-2.8-1.129,4.19,4.19,0,0,1-1.078-3.02v-.266a5.073,5.073,0,0,1,.48-2.246,3.748,3.748,0,0,1,1.344-1.547,3.378,3.378,0,0,1,1.871-.559,3.166,3.166,0,0,1,2.563,1.086A4.7,4.7,0,0,1,19.4-4.414v.6H13.676a3,3,0,0,0,.73,2.02,2.3,2.3,0,0,0,1.777.77,2.517,2.517,0,0,0,1.3-.312,3.259,3.259,0,0,0,.93-.828l.883.688A3.55,3.55,0,0,1,16.105.156Zm-.18-7.578a1.928,1.928,0,0,0-1.469.637A3.1,3.1,0,0,0,13.723-5h4.234v-.109a2.753,2.753,0,0,0-.594-1.707A1.815,1.815,0,0,0,15.926-7.422Zm9.234.266a4.331,4.331,0,0,0-.711-.055A1.9,1.9,0,0,0,22.52-6V0H21.074V-8.453H22.48l.023.977A2.251,2.251,0,0,1,24.52-8.609a1.477,1.477,0,0,1,.641.109ZM-40.207,19h-1.445V10.547h1.445ZM-41.77,8.3a.863.863,0,0,1,.215-.594.807.807,0,0,1,.637-.242.819.819,0,0,1,.641.242.854.854,0,0,1,.219.594.826.826,0,0,1-.219.586.834.834,0,0,1-.641.234.821.821,0,0,1-.637-.234A.834.834,0,0,1-41.77,8.3Zm5.242,2.242.047,1.063a3.08,3.08,0,0,1,2.531-1.219q2.68,0,2.7,3.023V19h-1.445V13.406a1.946,1.946,0,0,0-.418-1.352,1.675,1.675,0,0,0-1.277-.437,2.086,2.086,0,0,0-1.234.375,2.546,2.546,0,0,0-.828.984V19h-1.445V10.547ZM-28.355,19V11.664h-1.336V10.547h1.336V9.68a2.878,2.878,0,0,1,.727-2.1,2.745,2.745,0,0,1,2.055-.742,3.816,3.816,0,0,1,.992.132l-.078,1.165a4.151,4.151,0,0,0-.781-.07,1.41,1.41,0,0,0-1.086.411,1.669,1.669,0,0,0-.383,1.18v.893h1.8v1.117h-1.8V19Zm4.461-4.3a4.993,4.993,0,0,1,.488-2.234,3.643,3.643,0,0,1,1.359-1.531,3.7,3.7,0,0,1,1.988-.539,3.565,3.565,0,0,1,2.793,1.2,4.6,4.6,0,0,1,1.066,3.18v.1a5.036,5.036,0,0,1-.473,2.215,3.589,3.589,0,0,1-1.352,1.527,3.743,3.743,0,0,1-2.02.547,3.556,3.556,0,0,1-2.785-1.2A4.575,4.575,0,0,1-23.895,14.8Zm1.453.172a3.616,3.616,0,0,0,.652,2.258,2.088,2.088,0,0,0,1.746.852,2.075,2.075,0,0,0,1.75-.863,3.955,3.955,0,0,0,.648-2.418,3.61,3.61,0,0,0-.66-2.254,2.1,2.1,0,0,0-1.754-.863,2.075,2.075,0,0,0-1.727.852A3.925,3.925,0,0,0-22.441,14.867ZM-10.3,11.844a4.331,4.331,0,0,0-.711-.055A1.9,1.9,0,0,0-12.941,13v6h-1.445V10.547h1.406l.023.977a2.251,2.251,0,0,1,2.016-1.133,1.477,1.477,0,0,1,.641.109Zm2.688-1.3.039.938a3.122,3.122,0,0,1,2.508-1.094A2.417,2.417,0,0,1-2.652,11.75a3.2,3.2,0,0,1,1.1-.984,3.242,3.242,0,0,1,1.6-.375q2.781,0,2.828,2.945V19H1.426V13.422a1.941,1.941,0,0,0-.414-1.355,1.823,1.823,0,0,0-1.391-.449,1.916,1.916,0,0,0-1.336.48,1.949,1.949,0,0,0-.617,1.293V19H-3.785V13.461a1.613,1.613,0,0,0-1.8-1.844,1.934,1.934,0,0,0-1.945,1.211V19H-8.98V10.547ZM10.27,19a3.036,3.036,0,0,1-.2-.891A3.225,3.225,0,0,1,7.66,19.156a2.984,2.984,0,0,1-2.051-.707,2.287,2.287,0,0,1-.8-1.793,2.39,2.39,0,0,1,1-2.051,4.733,4.733,0,0,1,2.824-.73h1.406v-.664A1.623,1.623,0,0,0,9.59,12a1.821,1.821,0,0,0-1.336-.449,2.107,2.107,0,0,0-1.3.391,1.151,1.151,0,0,0-.523.945H4.98a2,2,0,0,1,.449-1.223,3.066,3.066,0,0,1,1.219-.934,4.1,4.1,0,0,1,1.691-.344,3.342,3.342,0,0,1,2.289.73,2.635,2.635,0,0,1,.859,2.012v3.891a4.757,4.757,0,0,0,.3,1.852V19Zm-2.4-1.1a2.54,2.54,0,0,0,1.289-.352,2.127,2.127,0,0,0,.883-.914V14.9H8.91q-2.656,0-2.656,1.555a1.316,1.316,0,0,0,.453,1.063A1.742,1.742,0,0,0,7.871,17.9Zm9.273.078a2.082,2.082,0,0,0,1.352-.469,1.649,1.649,0,0,0,.641-1.172H20.5a2.621,2.621,0,0,1-.5,1.383,3.293,3.293,0,0,1-1.23,1.047,3.55,3.55,0,0,1-1.629.391A3.482,3.482,0,0,1,14.4,18a4.59,4.59,0,0,1-1.02-3.152v-.242a5.089,5.089,0,0,1,.453-2.2,3.451,3.451,0,0,1,1.3-1.492,3.7,3.7,0,0,1,2-.531,3.39,3.39,0,0,1,2.363.852,3.043,3.043,0,0,1,1,2.211H19.137a1.992,1.992,0,0,0-.621-1.348,1.932,1.932,0,0,0-1.379-.527,2.023,2.023,0,0,0-1.707.793,3.724,3.724,0,0,0-.605,2.293v.273a3.65,3.65,0,0,0,.6,2.25A2.033,2.033,0,0,0,17.145,17.977ZM23.7,19H22.254V10.547H23.7ZM22.137,8.3a.863.863,0,0,1,.215-.594.807.807,0,0,1,.637-.242.819.819,0,0,1,.641.242.854.854,0,0,1,.219.594.826.826,0,0,1-.219.586.834.834,0,0,1-.641.234.821.821,0,0,1-.637-.234A.834.834,0,0,1,22.137,8.3ZM25.629,14.7a4.993,4.993,0,0,1,.488-2.234,3.643,3.643,0,0,1,1.359-1.531,3.7,3.7,0,0,1,1.988-.539,3.565,3.565,0,0,1,2.793,1.2,4.6,4.6,0,0,1,1.066,3.18v.1a5.036,5.036,0,0,1-.473,2.215A3.589,3.589,0,0,1,31.5,18.609a3.743,3.743,0,0,1-2.02.547,3.556,3.556,0,0,1-2.785-1.2A4.575,4.575,0,0,1,25.629,14.8Zm1.453.172a3.616,3.616,0,0,0,.652,2.258,2.211,2.211,0,0,0,3.5-.012,3.955,3.955,0,0,0,.648-2.418,3.61,3.61,0,0,0-.66-2.254,2.1,2.1,0,0,0-1.754-.863,2.075,2.075,0,0,0-1.727.852A3.925,3.925,0,0,0,27.082,14.867ZM30.121,7h1.75L29.777,9.3l-1.164,0ZM36.5,10.547l.047,1.063a3.08,3.08,0,0,1,2.531-1.219q2.68,0,2.7,3.023V19H40.34V13.406a1.946,1.946,0,0,0-.418-1.352,1.675,1.675,0,0,0-1.277-.437,2.086,2.086,0,0,0-1.234.375,2.546,2.546,0,0,0-.828.984V19H35.137V10.547Z" transform="translate(812 3255)" fill="#010201"/>
    <path id="Trazado_200218" data-name="Trazado 200218" d="M353.084,328.041H333.043V308" transform="translate(434.092 2846.554)" fill="none" stroke="#a3e8fe" stroke-linecap="round" stroke-linejoin="round" stroke-width="3"/>
    <path id="Trazado_200219" data-name="Trazado 200219" d="M332.87,513.235v20.042h20.042" transform="translate(433.944 3021.838)" fill="none" stroke="#00c5ff" stroke-linecap="round" stroke-linejoin="round" stroke-width="3"/>
    <g id="Grupo_137320" data-name="Grupo 137320" transform="translate(730.191 3183.232)">
      <g id="Grupo_137319" data-name="Grupo 137319">
        <g id="Grupo_137317" data-name="Grupo 137317">
          <path id="Trazado_200220" data-name="Trazado 200220" d="M414.724,503.023l-95.212-54.945A12.788,12.788,0,0,1,313.117,437V359.83a12.788,12.788,0,0,1,6.395-11.078l43.795-25.284" transform="translate(-313.117 -323.468)" fill="none" stroke="#87e3fe" stroke-linecap="round" stroke-linejoin="round" stroke-width="3"/>
        </g>
        <g id="Grupo_137318" data-name="Grupo 137318" transform="translate(83.303 160.642)">
          <path id="Trazado_200221" data-name="Trazado 200221" d="M378.088,410.111v20.042H358.047" transform="translate(-358.047 -410.111)" fill="none" stroke="#87e3fe" stroke-linecap="round" stroke-linejoin="round" stroke-width="3"/>
        </g>
      </g>
    </g>
  </g>
</svg>
