<svg xmlns="http://www.w3.org/2000/svg" width="822.389" height="565.012" viewBox="0 0 822.389 565.012">
  <g id="Grupo_240998" data-name="Grupo 240998" transform="translate(-388.437 -24952.16)">
    <path id="Trazado_200984" data-name="Trazado 200984" d="M697,269.828a4.369,4.369,0,0,1,3.775,2.178l30.69,53.155a4.38,4.38,0,0,1,0,4.361l-30.688,53.152a4.372,4.372,0,0,1-3.776,2.18H555.767a4.37,4.37,0,0,1-3.775-2.178L521.3,329.521a4.377,4.377,0,0,1,0-4.361l30.688-53.152a4.368,4.368,0,0,1,3.775-2.18Z" transform="translate(477.217 24907.324)" fill="#fff" stroke="#4545ff" stroke-miterlimit="10" stroke-width="3"/>
    <path id="Trazado_200985" data-name="Trazado 200985" d="M697,129.266a4.364,4.364,0,0,1,3.775,2.178l30.69,53.155a4.378,4.378,0,0,1,0,4.36l-30.688,53.153a4.37,4.37,0,0,1-3.776,2.18H555.765a4.365,4.365,0,0,1-3.773-2.18L521.3,188.959a4.377,4.377,0,0,1,0-4.361l30.688-53.152a4.366,4.366,0,0,1,3.775-2.18Z" transform="translate(477.216 24824.395)" fill="#fff" stroke="#4545ff" stroke-miterlimit="10" stroke-width="3"/>
    <path id="Trazado_200986" data-name="Trazado 200986" d="M505.825,410.39a4.367,4.367,0,0,1,3.773,2.178l30.69,53.155a4.377,4.377,0,0,1,0,4.361L509.6,523.237a4.369,4.369,0,0,1-3.775,2.18H364.589a4.367,4.367,0,0,1-3.773-2.178l-30.69-53.155a4.366,4.366,0,0,1,0-4.36l30.687-53.153a4.37,4.37,0,0,1,3.775-2.18Z" transform="translate(364.424 24990.256)" fill="#fff" stroke="#4545ff" stroke-miterlimit="10" stroke-width="3"/>
    <path id="Trazado_200987" data-name="Trazado 200987" d="M505.827,269.828a4.367,4.367,0,0,1,3.773,2.178l30.69,53.155a4.376,4.376,0,0,1,0,4.361L509.6,382.674a4.369,4.369,0,0,1-3.775,2.18H364.591a4.367,4.367,0,0,1-3.773-2.178l-30.69-53.155a4.369,4.369,0,0,1,0-4.361l30.687-53.152a4.369,4.369,0,0,1,3.775-2.18Z" transform="translate(364.425 24907.324)" fill="#fff" stroke="#4545ff" stroke-miterlimit="10" stroke-width="3"/>
    <path id="Trazado_200988" data-name="Trazado 200988" d="M505.825,129.266a4.364,4.364,0,0,1,3.773,2.178l30.69,53.155a4.374,4.374,0,0,1,0,4.36L509.6,242.112a4.369,4.369,0,0,1-3.775,2.18H364.589a4.365,4.365,0,0,1-3.773-2.18l-30.69-53.153a4.369,4.369,0,0,1,0-4.361l30.687-53.152a4.366,4.366,0,0,1,3.775-2.18Z" transform="translate(364.424 24824.395)" fill="#fff" stroke="#4545ff" stroke-miterlimit="10" stroke-width="3"/>
    <path id="Trazado_200989" data-name="Trazado 200989" d="M314.649,410.39a4.367,4.367,0,0,1,3.773,2.178l30.692,53.155a4.38,4.38,0,0,1,0,4.361l-30.69,53.152a4.37,4.37,0,0,1-3.775,2.18H173.414a4.368,4.368,0,0,1-3.775-2.178l-30.69-53.155a4.374,4.374,0,0,1,0-4.36l30.687-53.153a4.37,4.37,0,0,1,3.776-2.18Z" transform="translate(251.632 24990.256)" fill="#fff" stroke="#4545ff" stroke-miterlimit="10" stroke-width="3"/>
    <path id="Trazado_200990" data-name="Trazado 200990" d="M314.651,269.828a4.367,4.367,0,0,1,3.773,2.178l30.69,53.155a4.373,4.373,0,0,1,0,4.361l-30.688,53.152a4.37,4.37,0,0,1-3.775,2.18H173.415a4.367,4.367,0,0,1-3.773-2.178l-30.69-53.155a4.377,4.377,0,0,1,0-4.361l30.687-53.152a4.37,4.37,0,0,1,3.775-2.18Z" transform="translate(251.633 24907.324)" fill="#fff" stroke="#4545ff" stroke-miterlimit="10" stroke-width="3"/>
    <path id="Trazado_200991" data-name="Trazado 200991" d="M314.649,129.266a4.364,4.364,0,0,1,3.773,2.178L349.113,184.6a4.378,4.378,0,0,1,0,4.36l-30.69,53.153a4.37,4.37,0,0,1-3.775,2.18H173.414a4.366,4.366,0,0,1-3.775-2.18l-30.69-53.153a4.377,4.377,0,0,1,0-4.361l30.687-53.152a4.367,4.367,0,0,1,3.776-2.18Z" transform="translate(251.632 24824.395)" fill="#fff" stroke="#4545ff" stroke-miterlimit="10" stroke-width="3"/>
    <path id="Trazado_233378" data-name="Trazado 233378" d="M-31.139-2.783h-4.88L-36.947,0h-2.959l5.028-13.508H-32.3L-27.243,0H-30.2Zm-4.128-2.254h3.377l-1.7-5.056Zm9.25,3.72a1.35,1.35,0,0,1,.431-1.039,1.531,1.531,0,0,1,1.081-.4,1.543,1.543,0,0,1,1.09.4,1.35,1.35,0,0,1,.431,1.039,1.331,1.331,0,0,1-.427,1.025A1.55,1.55,0,0,1-24.506.1a1.537,1.537,0,0,1-1.085-.394A1.331,1.331,0,0,1-26.018-1.317ZM-12.77,0h-2.783V-13.508h2.783Zm1.985-5.093A6.049,6.049,0,0,1-9.732-8.832a3.417,3.417,0,0,1,2.881-1.392A3.074,3.074,0,0,1-4.43-9.129V-14.25h2.69V0H-4.161l-.13-1.067A3.155,3.155,0,0,1-6.87.186a3.407,3.407,0,0,1-2.844-1.4A6.244,6.244,0,0,1-10.785-5.093Zm2.681.2a3.963,3.963,0,0,0,.492,2.165,1.6,1.6,0,0,0,1.429.753A1.794,1.794,0,0,0-4.43-3.026V-6.994a1.768,1.768,0,0,0-1.735-1.05Q-8.1-8.043-8.1-4.894ZM4.959.186A4.928,4.928,0,0,1,1.364-1.169,4.815,4.815,0,0,1-.023-4.778v-.26a6.064,6.064,0,0,1,.584-2.7A4.289,4.289,0,0,1,2.217-9.579a4.648,4.648,0,0,1,2.445-.645A4.166,4.166,0,0,1,7.9-8.925,5.278,5.278,0,0,1,9.087-5.242v1.095H2.7A2.491,2.491,0,0,0,3.479-2.57a2.37,2.37,0,0,0,1.656.594A2.894,2.894,0,0,0,7.556-3.1L8.874-1.624A4.025,4.025,0,0,1,7.241-.292,5.357,5.357,0,0,1,4.959.186ZM4.653-8.062a1.675,1.675,0,0,0-1.294.54,2.8,2.8,0,0,0-.635,1.547H6.452v-.214A2,2,0,0,0,5.97-7.573,1.729,1.729,0,0,0,4.653-8.062ZM16.426,0a2.977,2.977,0,0,1-.269-.9A3.244,3.244,0,0,1,13.624.186a3.564,3.564,0,0,1-2.445-.854A2.745,2.745,0,0,1,10.21-2.82,2.837,2.837,0,0,1,11.393-5.27a5.837,5.837,0,0,1,3.419-.863h1.234v-.575a1.654,1.654,0,0,0-.357-1.113,1.405,1.405,0,0,0-1.127-.417,1.6,1.6,0,0,0-1.062.325,1.1,1.1,0,0,0-.385.891H10.432a2.693,2.693,0,0,1,.538-1.614A3.557,3.557,0,0,1,12.492-9.8a5.545,5.545,0,0,1,2.208-.422,4.381,4.381,0,0,1,2.946.932,3.262,3.262,0,0,1,1.09,2.621v4.351a4.8,4.8,0,0,0,.4,2.162V0ZM14.208-1.865A2.309,2.309,0,0,0,15.3-2.129a1.737,1.737,0,0,0,.742-.71V-4.564h-1q-2.013,0-2.143,1.392l-.009.158a1.073,1.073,0,0,0,.353.826A1.369,1.369,0,0,0,14.208-1.865Zm10.9-3.247a5.953,5.953,0,0,1,.575-2.663A4.211,4.211,0,0,1,27.34-9.583a4.831,4.831,0,0,1,2.51-.64A4.571,4.571,0,0,1,33.167-8.98,4.989,4.989,0,0,1,34.6-5.6l.019.687a5.247,5.247,0,0,1-1.29,3.706,4.482,4.482,0,0,1-3.46,1.4A4.5,4.5,0,0,1,26.4-1.206a5.339,5.339,0,0,1-1.294-3.785Zm2.681.19a3.752,3.752,0,0,0,.538,2.188,1.775,1.775,0,0,0,1.54.757,1.779,1.779,0,0,0,1.521-.748,4.106,4.106,0,0,0,.547-2.393,3.715,3.715,0,0,0-.547-2.174,1.779,1.779,0,0,0-1.54-.771,1.75,1.75,0,0,0-1.521.767A4.175,4.175,0,0,0,27.79-4.921Zm-60.729,23a6.02,6.02,0,0,1-1.053,3.716,3.376,3.376,0,0,1-2.844,1.4,3.127,3.127,0,0,1-2.458-1.058v4.731h-2.681v-13.9h2.486l.093.983a3.151,3.151,0,0,1,2.542-1.169,3.4,3.4,0,0,1,2.885,1.373,6.183,6.183,0,0,1,1.03,3.785Zm-2.681-.195a3.951,3.951,0,0,0-.5-2.162,1.617,1.617,0,0,0-1.443-.761,1.756,1.756,0,0,0-1.735.965v4.11a1.786,1.786,0,0,0,1.753.993Q-35.62,21.024-35.62,17.879Zm9.982-2.4A7.284,7.284,0,0,0-26.6,15.4a1.964,1.964,0,0,0-1.995,1.03V23h-2.681V12.962h2.533l.074,1.2a2.484,2.484,0,0,1,2.236-1.382,2.809,2.809,0,0,1,.835.121Zm.538,2.412a5.953,5.953,0,0,1,.575-2.663,4.211,4.211,0,0,1,1.656-1.809,4.831,4.831,0,0,1,2.51-.64,4.571,4.571,0,0,1,3.317,1.243A4.989,4.989,0,0,1-15.609,17.4l.019.687a5.247,5.247,0,0,1-1.29,3.706,4.482,4.482,0,0,1-3.46,1.4,4.5,4.5,0,0,1-3.465-1.392A5.339,5.339,0,0,1-25.1,18.009Zm2.681.19a3.752,3.752,0,0,0,.538,2.188,1.775,1.775,0,0,0,1.54.757,1.779,1.779,0,0,0,1.521-.748,4.106,4.106,0,0,0,.547-2.393,3.715,3.715,0,0,0-.547-2.174,1.779,1.779,0,0,0-1.54-.771,1.75,1.75,0,0,0-1.521.767A4.175,4.175,0,0,0-22.419,18.079Zm17.516,0a6.02,6.02,0,0,1-1.053,3.716,3.376,3.376,0,0,1-2.844,1.4,3.127,3.127,0,0,1-2.458-1.058v4.731h-2.681v-13.9h2.486l.093.983a3.151,3.151,0,0,1,2.542-1.169,3.4,3.4,0,0,1,2.885,1.373A6.183,6.183,0,0,1-4.9,17.935Zm-2.681-.195a3.951,3.951,0,0,0-.5-2.162,1.617,1.617,0,0,0-1.443-.761,1.756,1.756,0,0,0-1.735.965v4.11a1.786,1.786,0,0,0,1.753.993Q-7.584,21.024-7.584,17.879Zm10.354,4.1A3.362,3.362,0,0,1,.023,23.186a3.171,3.171,0,0,1-2.463-.928,3.96,3.96,0,0,1-.867-2.718V12.962H-.626v6.492q0,1.57,1.429,1.57a1.936,1.936,0,0,0,1.874-.947V12.962h2.69V23H2.844Zm9.24,1.206a4.928,4.928,0,0,1-3.595-1.354,4.815,4.815,0,0,1-1.387-3.609v-.26a6.064,6.064,0,0,1,.584-2.7,4.289,4.289,0,0,1,1.656-1.837,4.648,4.648,0,0,1,2.445-.645,4.166,4.166,0,0,1,3.242,1.3,5.278,5.278,0,0,1,1.183,3.683v1.095H9.746a2.491,2.491,0,0,0,.784,1.577,2.37,2.37,0,0,0,1.656.594A2.894,2.894,0,0,0,14.607,19.9l1.317,1.475a4.025,4.025,0,0,1-1.633,1.331A5.357,5.357,0,0,1,12.01,23.186ZM11.7,14.938a1.675,1.675,0,0,0-1.294.54,2.8,2.8,0,0,0-.635,1.547H13.5v-.214a2,2,0,0,0-.482-1.384A1.729,1.729,0,0,0,11.7,14.938ZM23.1,20.226a.864.864,0,0,0-.487-.775,5.533,5.533,0,0,0-1.563-.506q-3.581-.751-3.581-3.043a2.758,2.758,0,0,1,1.109-2.231,4.472,4.472,0,0,1,2.9-.9,4.813,4.813,0,0,1,3.057.9,2.836,2.836,0,0,1,1.146,2.338H22.994a1.3,1.3,0,0,0-.371-.951,1.57,1.57,0,0,0-1.16-.376,1.6,1.6,0,0,0-1.048.306.966.966,0,0,0-.371.779.826.826,0,0,0,.422.719,4.342,4.342,0,0,0,1.424.473,11.631,11.631,0,0,1,1.688.45,2.774,2.774,0,0,1,2.125,2.7,2.618,2.618,0,0,1-1.178,2.222,5.083,5.083,0,0,1-3.043.849,5.309,5.309,0,0,1-2.24-.45A3.759,3.759,0,0,1,17.706,21.5a2.867,2.867,0,0,1-.557-1.693h2.542A1.4,1.4,0,0,0,20.22,20.9a2.1,2.1,0,0,0,1.317.38,1.941,1.941,0,0,0,1.164-.292A.909.909,0,0,0,23.1,20.226Zm7.542-9.732v2.468h1.716v1.967H30.638v5.01a1.2,1.2,0,0,0,.213.8,1.072,1.072,0,0,0,.816.241,4.276,4.276,0,0,0,.789-.065v2.032a5.52,5.52,0,0,1-1.624.241,2.56,2.56,0,0,1-2.876-2.848V14.929H26.491V12.962h1.466V10.494ZM39.665,23a2.977,2.977,0,0,1-.269-.9,3.244,3.244,0,0,1-2.533,1.085,3.564,3.564,0,0,1-2.445-.854,2.745,2.745,0,0,1-.969-2.152,2.837,2.837,0,0,1,1.183-2.449,5.837,5.837,0,0,1,3.419-.863h1.234v-.575a1.654,1.654,0,0,0-.357-1.113,1.405,1.405,0,0,0-1.127-.417,1.6,1.6,0,0,0-1.062.325,1.1,1.1,0,0,0-.385.891H33.672a2.693,2.693,0,0,1,.538-1.614A3.557,3.557,0,0,1,35.732,13.2a5.545,5.545,0,0,1,2.208-.422,4.381,4.381,0,0,1,2.946.932,3.262,3.262,0,0,1,1.09,2.621v4.351a4.8,4.8,0,0,0,.4,2.162V23Zm-2.217-1.865a2.309,2.309,0,0,0,1.095-.264,1.737,1.737,0,0,0,.742-.71V18.436h-1q-2.013,0-2.143,1.392l-.009.158a1.073,1.073,0,0,0,.353.826A1.369,1.369,0,0,0,37.448,21.135ZM-21.584,46h-2.69V35.962h2.69Zm-2.848-12.636a1.32,1.32,0,0,1,.4-.993,1.516,1.516,0,0,1,1.1-.39,1.52,1.52,0,0,1,1.095.39,1.313,1.313,0,0,1,.408.993,1.316,1.316,0,0,1-.413,1,1.523,1.523,0,0,1-1.09.39,1.523,1.523,0,0,1-1.09-.39A1.316,1.316,0,0,1-24.432,33.364Zm7.524,2.6.083,1.16a3.5,3.5,0,0,1,2.885-1.345,2.913,2.913,0,0,1,2.375.937,4.372,4.372,0,0,1,.8,2.8V46h-2.681V39.58a1.739,1.739,0,0,0-.371-1.239,1.661,1.661,0,0,0-1.234-.385,1.844,1.844,0,0,0-1.7.965V46h-2.681V35.962ZM-5.905,46H-8.6V35.962h2.69ZM-8.753,33.364a1.32,1.32,0,0,1,.4-.993,1.516,1.516,0,0,1,1.1-.39,1.52,1.52,0,0,1,1.095.39,1.313,1.313,0,0,1,.408.993,1.316,1.316,0,0,1-.413,1,1.523,1.523,0,0,1-1.09.39,1.523,1.523,0,0,1-1.09-.39A1.316,1.316,0,0,1-8.753,33.364ZM.478,44.024a1.759,1.759,0,0,0,1.206-.408,1.43,1.43,0,0,0,.482-1.085H4.68A3.439,3.439,0,0,1,4.124,44.4a3.673,3.673,0,0,1-1.5,1.317,4.689,4.689,0,0,1-2.1.469,4.358,4.358,0,0,1-3.4-1.368,5.415,5.415,0,0,1-1.243-3.781V40.86a5.353,5.353,0,0,1,1.234-3.7A4.307,4.307,0,0,1,.506,35.776a4.222,4.222,0,0,1,3.02,1.072A3.794,3.794,0,0,1,4.68,39.7H2.166a1.842,1.842,0,0,0-.482-1.273,1.608,1.608,0,0,0-1.225-.49,1.615,1.615,0,0,0-1.415.683,3.958,3.958,0,0,0-.478,2.216v.279a4.008,4.008,0,0,0,.473,2.23A1.635,1.635,0,0,0,.478,44.024ZM9.041,46H6.35V35.962h2.69ZM6.193,33.364a1.32,1.32,0,0,1,.4-.993,1.516,1.516,0,0,1,1.1-.39,1.52,1.52,0,0,1,1.095.39,1.417,1.417,0,0,1,0,1.995,1.523,1.523,0,0,1-1.09.39,1.523,1.523,0,0,1-1.09-.39A1.316,1.316,0,0,1,6.193,33.364ZM17.066,46a2.977,2.977,0,0,1-.269-.9,3.244,3.244,0,0,1-2.533,1.085,3.564,3.564,0,0,1-2.445-.854,2.745,2.745,0,0,1-.969-2.152,2.837,2.837,0,0,1,1.183-2.449,5.837,5.837,0,0,1,3.419-.863h1.234v-.575a1.654,1.654,0,0,0-.357-1.113,1.405,1.405,0,0,0-1.127-.417,1.6,1.6,0,0,0-1.062.325,1.1,1.1,0,0,0-.385.891H11.073a2.693,2.693,0,0,1,.538-1.614A3.557,3.557,0,0,1,13.132,36.2a5.545,5.545,0,0,1,2.208-.422,4.381,4.381,0,0,1,2.946.932,3.262,3.262,0,0,1,1.09,2.621v4.351a4.8,4.8,0,0,0,.4,2.162V46Zm-2.217-1.865a2.309,2.309,0,0,0,1.095-.264,1.737,1.737,0,0,0,.742-.71V41.436h-1q-2.013,0-2.143,1.392l-.009.158a1.073,1.073,0,0,0,.353.826A1.369,1.369,0,0,0,14.848,44.135ZM24.265,46h-2.69V31.75h2.69Z" transform="translate(492.554 24990.148)"/>
    <path id="Trazado_233379" data-name="Trazado 233379" d="M-41.543-3.73A1.5,1.5,0,0,0-42.129-5a7.685,7.685,0,0,0-2.109-.937,14.953,14.953,0,0,1-2.412-.972,3.941,3.941,0,0,1-2.422-3.525,3.434,3.434,0,0,1,.649-2.056,4.236,4.236,0,0,1,1.865-1.411,7.021,7.021,0,0,1,2.729-.508,6.39,6.39,0,0,1,2.715.552A4.323,4.323,0,0,1-39.263-12.3,4.076,4.076,0,0,1-38.6-10.02h-2.93a1.917,1.917,0,0,0-.615-1.519,2.529,2.529,0,0,0-1.729-.542,2.7,2.7,0,0,0-1.67.454,1.432,1.432,0,0,0-.6,1.2,1.372,1.372,0,0,0,.7,1.162,7.889,7.889,0,0,0,2.056.879,8.882,8.882,0,0,1,3.643,1.865A3.715,3.715,0,0,1-38.6-3.75,3.422,3.422,0,0,1-40-.854,6.113,6.113,0,0,1-43.76.2a7.26,7.26,0,0,1-2.988-.6A4.729,4.729,0,0,1-48.8-2.051a4.214,4.214,0,0,1-.708-2.422h2.939q0,2.354,2.813,2.354a2.736,2.736,0,0,0,1.631-.425A1.382,1.382,0,0,0-41.543-3.73ZM-33.828,0H-36.66V-10.566h2.832Zm-3-13.3a1.39,1.39,0,0,1,.425-1.045,1.6,1.6,0,0,1,1.157-.41,1.6,1.6,0,0,1,1.152.41,1.382,1.382,0,0,1,.43,1.045,1.386,1.386,0,0,1-.435,1.055,1.6,1.6,0,0,1-1.147.41,1.6,1.6,0,0,1-1.147-.41A1.386,1.386,0,0,1-36.826-13.3Zm7.969,2.734.088,1.182a3.713,3.713,0,0,1,3.037-1.377,2.818,2.818,0,0,1,2.8,1.611,3.628,3.628,0,0,1,3.174-1.611,3.152,3.152,0,0,1,2.559,1,4.6,4.6,0,0,1,.84,3.013V0h-2.832V-6.738a2.012,2.012,0,0,0-.352-1.313,1.558,1.558,0,0,0-1.24-.415,1.761,1.761,0,0,0-1.758,1.211L-22.529,0h-2.822V-6.729a1.988,1.988,0,0,0-.361-1.328,1.573,1.573,0,0,0-1.23-.41,1.829,1.829,0,0,0-1.738,1V0H-31.5V-10.566Zm21,9.492A3.539,3.539,0,0,1-10.752.2a3.338,3.338,0,0,1-2.593-.977,4.169,4.169,0,0,1-.913-2.861v-6.924h2.822v6.834q0,1.652,1.5,1.652a2.038,2.038,0,0,0,1.973-1v-7.489h2.832V0H-7.783ZM-.02,0H-2.852V-15H-.02ZM8.428,0a3.134,3.134,0,0,1-.283-.947A3.415,3.415,0,0,1,5.479.2,3.752,3.752,0,0,1,2.905-.7,2.89,2.89,0,0,1,1.885-2.969,2.986,2.986,0,0,1,3.13-5.547a6.144,6.144,0,0,1,3.6-.908h1.3v-.605a1.741,1.741,0,0,0-.376-1.172,1.479,1.479,0,0,0-1.187-.439,1.682,1.682,0,0,0-1.118.342,1.161,1.161,0,0,0-.405.938H2.119a2.835,2.835,0,0,1,.566-1.7,3.744,3.744,0,0,1,1.6-1.226,5.837,5.837,0,0,1,2.324-.444,4.611,4.611,0,0,1,3.1.981,3.433,3.433,0,0,1,1.147,2.759v4.58a5.052,5.052,0,0,0,.42,2.275V0ZM6.094-1.963a2.431,2.431,0,0,0,1.152-.278,1.828,1.828,0,0,0,.781-.747V-4.8H6.973Q4.854-4.8,4.717-3.34l-.01.166a1.13,1.13,0,0,0,.371.869A1.441,1.441,0,0,0,6.094-1.963ZM17.422-2.08a1.851,1.851,0,0,0,1.27-.43A1.506,1.506,0,0,0,19.2-3.652h2.646a3.62,3.62,0,0,1-.586,1.968A3.866,3.866,0,0,1,19.683-.3,4.936,4.936,0,0,1,17.471.2,4.587,4.587,0,0,1,13.9-1.245a5.7,5.7,0,0,1-1.309-3.979V-5.41a5.635,5.635,0,0,1,1.3-3.9,4.534,4.534,0,0,1,3.564-1.455A4.444,4.444,0,0,1,20.63-9.634a3.994,3.994,0,0,1,1.216,3H19.2a1.939,1.939,0,0,0-.508-1.34A1.693,1.693,0,0,0,17.4-8.486a1.7,1.7,0,0,0-1.489.719,4.166,4.166,0,0,0-.5,2.333v.293a4.219,4.219,0,0,0,.5,2.347A1.721,1.721,0,0,0,17.422-2.08ZM26.436,0H23.6V-10.566h2.832Zm-3-13.3a1.39,1.39,0,0,1,.425-1.045,1.6,1.6,0,0,1,1.157-.41,1.6,1.6,0,0,1,1.152.41A1.382,1.382,0,0,1,26.6-13.3a1.386,1.386,0,0,1-.435,1.055,1.6,1.6,0,0,1-1.147.41,1.6,1.6,0,0,1-1.147-.41A1.386,1.386,0,0,1,23.438-13.3Zm4.883,7.92a6.266,6.266,0,0,1,.605-2.8,4.432,4.432,0,0,1,1.743-1.9,5.086,5.086,0,0,1,2.642-.674A4.812,4.812,0,0,1,36.8-9.453,5.252,5.252,0,0,1,38.311-5.9l.02.723a5.523,5.523,0,0,1-1.357,3.9A4.718,4.718,0,0,1,33.33.2,4.742,4.742,0,0,1,29.683-1.27,5.62,5.62,0,0,1,28.32-5.254Zm2.822.2a3.95,3.95,0,0,0,.566,2.3,1.868,1.868,0,0,0,1.621.8,1.873,1.873,0,0,0,1.6-.787,4.322,4.322,0,0,0,.576-2.518,3.91,3.91,0,0,0-.576-2.289,1.873,1.873,0,0,0-1.621-.812,1.842,1.842,0,0,0-1.6.807A4.395,4.395,0,0,0,31.143-5.181ZM33.867-15h3.076l-2.705,3.027H31.943Zm8.8,4.434.088,1.221a3.689,3.689,0,0,1,3.037-1.416,3.066,3.066,0,0,1,2.5.986,4.6,4.6,0,0,1,.84,2.949V0H46.309V-6.758a1.831,1.831,0,0,0-.391-1.3,1.749,1.749,0,0,0-1.3-.405,1.942,1.942,0,0,0-1.787,1.016V0H40.01V-10.566Z" transform="translate(493.197 25239.447)"/>
    <path id="Trazado_233380" data-name="Trazado 233380" d="M9.824-5.811H4.2V0H1.27V-14.219h9.258v2.373H4.2v3.672H9.824ZM9.512-1.387A1.421,1.421,0,0,1,9.966-2.48,1.611,1.611,0,0,1,11.1-2.9a1.624,1.624,0,0,1,1.147.42,1.421,1.421,0,0,1,.454,1.094,1.4,1.4,0,0,1-.449,1.079A1.631,1.631,0,0,1,11.1.107,1.618,1.618,0,0,1,9.961-.308,1.4,1.4,0,0,1,9.512-1.387ZM19.277,0l2.471-14.219,4.434.01A5.881,5.881,0,0,1,29.893-13.2a3.11,3.11,0,0,1,1.123,2.8,3.581,3.581,0,0,1-2.49,3.154,2.389,2.389,0,0,1,1.318,1.1,3.288,3.288,0,0,1,.4,1.9,4.114,4.114,0,0,1-1.577,3.13A6.255,6.255,0,0,1,24.736,0Zm3.945-6.191-.674,3.838,2.256.01a2.909,2.909,0,0,0,1.768-.522,2.073,2.073,0,0,0,.85-1.411,1.752,1.752,0,0,0-.239-1.372,1.586,1.586,0,0,0-1.265-.532Zm.352-2.07,1.943.02A3.094,3.094,0,0,0,27.29-8.75a1.969,1.969,0,0,0,.825-1.357q.244-1.719-1.807-1.729l-2.109-.01Zm15.244.342a5.686,5.686,0,0,0-.928-.1,2.67,2.67,0,0,0-2.334,1.1L34.336,0H31.582l1.836-10.566,2.588-.01-.254,1.289a2.906,2.906,0,0,1,2.461-1.494,4.017,4.017,0,0,1,.957.137ZM41.67,0H38.9l1.836-10.566h2.773Zm-.615-13.252a1.376,1.376,0,0,1,.43-1.084,1.512,1.512,0,0,1,1.084-.43,1.519,1.519,0,0,1,1.084.381,1.37,1.37,0,0,1,.479,1.035,1.415,1.415,0,0,1-.405,1.055,1.519,1.519,0,0,1-1.108.469,1.544,1.544,0,0,1-1.079-.371A1.363,1.363,0,0,1,41.055-13.252ZM49.023.2a4.6,4.6,0,0,1-2.456-.679,4.115,4.115,0,0,1-1.6-1.836,5.117,5.117,0,0,1-.41-2.573l.029-.391a6.831,6.831,0,0,1,.9-2.832A5.427,5.427,0,0,1,47.422-10.1a4.784,4.784,0,0,1,2.617-.659,3.655,3.655,0,0,1,3.091,1.5,5.146,5.146,0,0,1,.8,3.7l-.156,1.2H47.295a2.267,2.267,0,0,0,.5,1.641,1.9,1.9,0,0,0,1.465.635,3.379,3.379,0,0,0,2.637-1.172l1.26,1.563a3.919,3.919,0,0,1-1.719,1.4A5.621,5.621,0,0,1,49.023.2ZM49.9-8.486a1.957,1.957,0,0,0-1.353.479,4.2,4.2,0,0,0-1.06,1.729h3.789l.059-.254a2.588,2.588,0,0,0,.01-.742,1.418,1.418,0,0,0-.479-.884A1.5,1.5,0,0,0,49.9-8.486ZM55.254,0l1.475-8.5H55.2l.371-2.07h1.426l.088-.508a4.966,4.966,0,0,1,1.689-3.081,5.12,5.12,0,0,1,3.408-1.069,8.294,8.294,0,0,1,1.587.19q.776.171,1.548.386l-.6,2.354a8.047,8.047,0,0,0-2.49-.488,2.6,2.6,0,0,0-1.592.464,2.131,2.131,0,0,0-.811,1.3l-.088.449h2.139L61.5-8.5H59.492L58.018,0Zm8.9,0H61.377l1.836-10.566h2.764Zm6.7-10.576-.234,1.25a3.8,3.8,0,0,1,3.076-1.436A2.535,2.535,0,0,1,75.9-9.668a4.407,4.407,0,0,1,.518,2.949L75.3,0H72.549l1.133-6.748a3.16,3.16,0,0,0,.02-.693,1.118,1.118,0,0,0-1.25-1.025,2.37,2.37,0,0,0-1.943,1.006L69.189,0H66.436l1.836-10.566Zm7.139,5.283a7.311,7.311,0,0,1,1.6-3.979,4.052,4.052,0,0,1,3.286-1.5,2.963,2.963,0,0,1,2.52,1.221l.361-1.025,2.529.01L86.553-.361a4.979,4.979,0,0,1-1.8,3.34,5.589,5.589,0,0,1-3.75,1.191,5.21,5.21,0,0,1-2.09-.474,4.469,4.469,0,0,1-1.641-1.245L78.643.771a2.936,2.936,0,0,0,2.3,1.2,2.707,2.707,0,0,0,1.836-.562A3,3,0,0,0,83.818-.283l.156-.635A3.436,3.436,0,0,1,81.387.2,3.035,3.035,0,0,1,78.936-.952a4.934,4.934,0,0,1-1-2.935A9.862,9.862,0,0,1,77.988-5.293Zm2.705,1.159a2.525,2.525,0,0,0,.386,1.472A1.35,1.35,0,0,0,82.2-2.08a2.466,2.466,0,0,0,1.992-.959l.82-4.479a1.62,1.62,0,0,0-1.553-.959,2.16,2.16,0,0,0-1.787.851,4.451,4.451,0,0,0-.918,2.338A10.269,10.269,0,0,0,80.693-4.134ZM12.52,22.2a5.085,5.085,0,0,1-2.236,1.47,9.365,9.365,0,0,1-3.2.522,6.345,6.345,0,0,1-3.237-.806,5.374,5.374,0,0,1-2.148-2.339,8.232,8.232,0,0,1-.776-3.6V16.48a8.742,8.742,0,0,1,.718-3.687,5.31,5.31,0,0,1,2.07-2.383,5.964,5.964,0,0,1,3.169-.825,5.939,5.939,0,0,1,3.955,1.206A5.154,5.154,0,0,1,12.52,14.3H9.668A2.835,2.835,0,0,0,8.8,12.516a2.76,2.76,0,0,0-1.841-.566,2.6,2.6,0,0,0-2.275,1.123,5.905,5.905,0,0,0-.791,3.34v.908a5.622,5.622,0,0,0,.85,3.379,2.909,2.909,0,0,0,2.49,1.143,3.25,3.25,0,0,0,2.354-.7V18.688H6.924V16.529h5.6Zm2.334.41a1.421,1.421,0,0,1,.454-1.094,1.764,1.764,0,0,1,2.285,0,1.421,1.421,0,0,1,.454,1.094,1.4,1.4,0,0,1-.449,1.079,1.794,1.794,0,0,1-2.295,0A1.4,1.4,0,0,1,14.854,22.613ZM34,17.838H28.555l-.664,3.809H34.3L33.887,24H24.619L27.09,9.781h9.248l-.42,2.373H29.541l-.6,3.389h5.469Zm7.568,3.184q.156-.781-1.084-1.133l-.889-.225q-3.154-.869-3.066-3.066a3.035,3.035,0,0,1,1.323-2.437,4.927,4.927,0,0,1,3.071-.923,4.42,4.42,0,0,1,2.891.947,3.121,3.121,0,0,1,1.123,2.471l-2.734-.01a1.2,1.2,0,0,0-1.348-1.377,1.939,1.939,0,0,0-1.118.322,1.327,1.327,0,0,0-.581.869q-.146.781,1.182,1.1l.391.088a7.856,7.856,0,0,1,2.061.737,3.11,3.11,0,0,1,1.1,1.03,2.55,2.55,0,0,1,.356,1.475,2.814,2.814,0,0,1-.649,1.758,3.975,3.975,0,0,1-1.7,1.162,5.92,5.92,0,0,1-2.271.381,4.461,4.461,0,0,1-2.93-1.011,3.259,3.259,0,0,1-1.191-2.563l2.6.02a1.428,1.428,0,0,0,1.621,1.533,2.306,2.306,0,0,0,1.255-.312A1.234,1.234,0,0,0,41.572,21.021Zm8.574.908a1.809,1.809,0,0,0,1.27-.415,2.04,2.04,0,0,0,.664-1.157l2.588-.01a3.8,3.8,0,0,1-.7,2,4.242,4.242,0,0,1-1.68,1.387,4.808,4.808,0,0,1-2.212.469,3.9,3.9,0,0,1-3.047-1.328,4.956,4.956,0,0,1-1.084-3.457l.029-.537.01-.107a6.605,6.605,0,0,1,1.738-4.087,4.7,4.7,0,0,1,3.643-1.45A3.809,3.809,0,0,1,54.2,14.405a4.122,4.122,0,0,1,1.03,2.974H52.666a2.163,2.163,0,0,0-.371-1.338,1.41,1.41,0,0,0-1.113-.527q-1.973-.059-2.393,2.881a9.728,9.728,0,0,0-.107,1.8Q48.779,21.9,50.146,21.93ZM60.752,24.2a4.6,4.6,0,0,1-2.456-.679,4.115,4.115,0,0,1-1.6-1.836,5.117,5.117,0,0,1-.41-2.573l.029-.391a6.831,6.831,0,0,1,.9-2.832A5.427,5.427,0,0,1,59.15,13.9a4.784,4.784,0,0,1,2.617-.659,3.655,3.655,0,0,1,3.091,1.5,5.146,5.146,0,0,1,.8,3.7l-.156,1.2H59.023a2.267,2.267,0,0,0,.5,1.641,1.9,1.9,0,0,0,1.465.635,3.379,3.379,0,0,0,2.637-1.172l1.26,1.563a3.919,3.919,0,0,1-1.719,1.4A5.621,5.621,0,0,1,60.752,24.2Zm.879-8.682a1.957,1.957,0,0,0-1.353.479,4.2,4.2,0,0,0-1.06,1.729h3.789l.059-.254a2.588,2.588,0,0,0,.01-.742,1.418,1.418,0,0,0-.479-.884A1.5,1.5,0,0,0,61.631,15.514Zm9.043-2.09-.234,1.25a3.8,3.8,0,0,1,3.076-1.436,2.535,2.535,0,0,1,2.207,1.094,4.407,4.407,0,0,1,.518,2.949L75.127,24H72.373l1.133-6.748a3.16,3.16,0,0,0,.02-.693,1.118,1.118,0,0,0-1.25-1.025,2.37,2.37,0,0,0-1.943,1.006L69.014,24H66.26L68.1,13.434ZM83.4,24a2.851,2.851,0,0,1-.107-.957A3.579,3.579,0,0,1,80.6,24.2a3.243,3.243,0,0,1-2.3-.9,2.733,2.733,0,0,1-.854-2.183,3.159,3.159,0,0,1,1.45-2.651,6.583,6.583,0,0,1,3.706-.923l1.289.02.137-.635a2.2,2.2,0,0,0,.029-.615,1.058,1.058,0,0,0-.347-.718,1.194,1.194,0,0,0-.786-.269,1.682,1.682,0,0,0-1.094.317,1.538,1.538,0,0,0-.576.972l-2.764.01a3.072,3.072,0,0,1,1.392-2.456,5.389,5.389,0,0,1,3.267-.923,3.9,3.9,0,0,1,2.813,1.069,3.128,3.128,0,0,1,.85,2.651L86,22.018l-.049.625a3.015,3.015,0,0,0,.166,1.172L86.1,24Zm-2.119-1.943a2.522,2.522,0,0,0,2.08-1.035L83.7,19.2l-.957-.01a2.674,2.674,0,0,0-2.2.928,1.615,1.615,0,0,0-.3.791.937.937,0,0,0,.22.835A1.113,1.113,0,0,0,81.279,22.057ZM95.02,16.08a5.686,5.686,0,0,0-.928-.1,2.67,2.67,0,0,0-2.334,1.1L90.537,24H87.783l1.836-10.566,2.588-.01-.254,1.289a2.906,2.906,0,0,1,2.461-1.494,4.017,4.017,0,0,1,.957.137ZM97.871,24H95.1l1.836-10.566h2.773Zm-.615-13.252a1.376,1.376,0,0,1,.43-1.084,1.653,1.653,0,0,1,2.168-.049,1.37,1.37,0,0,1,.479,1.035,1.415,1.415,0,0,1-.405,1.055,1.519,1.519,0,0,1-1.108.469,1.544,1.544,0,0,1-1.079-.371A1.363,1.363,0,0,1,97.256,10.748Zm8.994,2.49a4.238,4.238,0,0,1,2.407.718,4.042,4.042,0,0,1,1.484,1.924,5.952,5.952,0,0,1,.337,2.72,6.429,6.429,0,0,1-1.753,4.077,4.95,4.95,0,0,1-3.774,1.519,4.225,4.225,0,0,1-2.383-.708,4.027,4.027,0,0,1-1.484-1.909,5.821,5.821,0,0,1-.342-2.7,6.619,6.619,0,0,1,1.777-4.16A4.847,4.847,0,0,1,106.25,13.238Zm-2.783,6.644a2.438,2.438,0,0,0,.439,1.477,1.46,1.46,0,0,0,1.182.561,2.141,2.141,0,0,0,1.992-1.165,5.808,5.808,0,0,0,.674-3.164,2.652,2.652,0,0,0-.454-1.5,1.436,1.436,0,0,0-1.187-.58,2.143,2.143,0,0,0-1.968,1.155A5.748,5.748,0,0,0,103.467,19.882ZM12.842,48H9.912V41.906H4.2V48H1.27V33.781H4.2v5.762H9.912V33.781h2.93Zm2.52-1.387a1.421,1.421,0,0,1,.454-1.094,1.764,1.764,0,0,1,2.285,0,1.421,1.421,0,0,1,.454,1.094,1.4,1.4,0,0,1-.449,1.079,1.794,1.794,0,0,1-2.295,0A1.4,1.4,0,0,1,15.361,46.613ZM25.127,48,27.6,33.781l4.082.01a5.591,5.591,0,0,1,2.583.649,4.882,4.882,0,0,1,1.86,1.782,6.1,6.1,0,0,1,.859,2.617,8.639,8.639,0,0,1-.02,1.738l-.068.518a8.122,8.122,0,0,1-2.456,5.015A6.948,6.948,0,0,1,29.521,48Zm4.922-11.846L28.4,45.646l1.191.01a3.909,3.909,0,0,0,3.169-1.445,7.47,7.47,0,0,0,1.372-4.365l.02-.312a3.938,3.938,0,0,0-.615-2.471,2.349,2.349,0,0,0-1.924-.9ZM42.676,48.2a4.6,4.6,0,0,1-2.456-.679,4.115,4.115,0,0,1-1.6-1.836,5.117,5.117,0,0,1-.41-2.573l.029-.391a6.831,6.831,0,0,1,.9-2.832A5.427,5.427,0,0,1,41.074,37.9a4.784,4.784,0,0,1,2.617-.659,3.655,3.655,0,0,1,3.091,1.5,5.146,5.146,0,0,1,.8,3.7l-.156,1.2H40.947a2.267,2.267,0,0,0,.5,1.641,1.9,1.9,0,0,0,1.465.635,3.379,3.379,0,0,0,2.637-1.172l1.26,1.563a3.919,3.919,0,0,1-1.719,1.4A5.621,5.621,0,0,1,42.676,48.2Zm.879-8.682a1.957,1.957,0,0,0-1.353.479,4.2,4.2,0,0,0-1.06,1.729h3.789l.059-.254a2.588,2.588,0,0,0,.01-.742,1.418,1.418,0,0,0-.479-.884A1.5,1.5,0,0,0,43.555,39.514ZM58.4,42.746a7.577,7.577,0,0,1-1.523,4,3.791,3.791,0,0,1-3.184,1.455,2.946,2.946,0,0,1-2.539-1.348L50.752,48h-2.51l2.6-15H53.6l-1.064,5.4a3.292,3.292,0,0,1,2.578-1.162,2.981,2.981,0,0,1,2.407,1.1,4.862,4.862,0,0,1,.933,2.983A11.416,11.416,0,0,1,58.4,42.746Zm-2.734-.206a8.192,8.192,0,0,0,.059-1.293q-.107-1.7-1.406-1.734a2.292,2.292,0,0,0-2.021,1.107l-.762,4.212a1.572,1.572,0,0,0,1.582,1.1q2.031.059,2.49-2.958Zm10.83-2.46a5.685,5.685,0,0,0-.928-.1,2.67,2.67,0,0,0-2.334,1.1L62.012,48H59.258l1.836-10.566,2.588-.01-.254,1.289a2.906,2.906,0,0,1,2.461-1.494,4.017,4.017,0,0,1,.957.137ZM69.346,48H66.572l1.836-10.566h2.773ZM68.73,34.748a1.376,1.376,0,0,1,.43-1.084,1.653,1.653,0,0,1,2.168-.049,1.37,1.37,0,0,1,.479,1.035,1.415,1.415,0,0,1-.405,1.055,1.519,1.519,0,0,1-1.108.469,1.544,1.544,0,0,1-1.079-.371A1.363,1.363,0,0,1,68.73,34.748ZM76.7,48.2a4.6,4.6,0,0,1-2.456-.679,4.115,4.115,0,0,1-1.6-1.836,5.117,5.117,0,0,1-.41-2.573l.029-.391a6.831,6.831,0,0,1,.9-2.832A5.427,5.427,0,0,1,75.1,37.9a4.784,4.784,0,0,1,2.617-.659,3.655,3.655,0,0,1,3.091,1.5,5.146,5.146,0,0,1,.8,3.7l-.156,1.2H74.971a2.267,2.267,0,0,0,.5,1.641,1.9,1.9,0,0,0,1.465.635,3.379,3.379,0,0,0,2.637-1.172l1.26,1.563a3.919,3.919,0,0,1-1.719,1.4A5.621,5.621,0,0,1,76.7,48.2Zm.879-8.682a1.957,1.957,0,0,0-1.353.479,4.2,4.2,0,0,0-1.06,1.729h3.789l.059-.254a2.588,2.588,0,0,0,.01-.742,1.418,1.418,0,0,0-.479-.884A1.5,1.5,0,0,0,77.578,39.514ZM82.93,48,84.4,39.5H82.871l.371-2.07h1.426l.088-.508a4.966,4.966,0,0,1,1.689-3.081,5.12,5.12,0,0,1,3.408-1.069,8.293,8.293,0,0,1,1.587.19q.776.171,1.548.386l-.6,2.354a8.047,8.047,0,0,0-2.49-.488,2.6,2.6,0,0,0-1.592.464,2.131,2.131,0,0,0-.811,1.3l-.088.449h2.139L89.18,39.5H87.168L85.693,48Zm8.9,0H89.053l1.836-10.566h2.764Zm6.7-10.576-.234,1.25a3.8,3.8,0,0,1,3.076-1.436,2.535,2.535,0,0,1,2.207,1.094,4.407,4.407,0,0,1,.518,2.949L102.979,48h-2.754l1.133-6.748a3.16,3.16,0,0,0,.02-.693,1.118,1.118,0,0,0-1.25-1.025,2.37,2.37,0,0,0-1.943,1.006L96.865,48H94.111l1.836-10.566Zm7.139,5.283a7.311,7.311,0,0,1,1.6-3.979,4.052,4.052,0,0,1,3.286-1.5,2.963,2.963,0,0,1,2.52,1.221l.361-1.025,2.529.01-1.729,10.205a4.979,4.979,0,0,1-1.8,3.34,5.589,5.589,0,0,1-3.75,1.191,5.21,5.21,0,0,1-2.09-.474,4.469,4.469,0,0,1-1.641-1.245l1.367-1.68a2.936,2.936,0,0,0,2.3,1.2,2.707,2.707,0,0,0,1.836-.562,3,3,0,0,0,1.035-1.694l.156-.635a3.436,3.436,0,0,1-2.588,1.113,3.035,3.035,0,0,1-2.451-1.147,4.934,4.934,0,0,1-1-2.935A9.862,9.862,0,0,1,105.664,42.707Zm2.705,1.159a2.525,2.525,0,0,0,.386,1.472,1.35,1.35,0,0,0,1.118.582,2.466,2.466,0,0,0,1.992-.959l.82-4.479a1.62,1.62,0,0,0-1.553-.959,2.16,2.16,0,0,0-1.787.851,4.451,4.451,0,0,0-.918,2.338A10.269,10.269,0,0,0,108.369,43.866Z" transform="translate(434.434 25438.137)"/>
    <path id="Trazado_233381" data-name="Trazado 233381" d="M-59.731,0V-14.219h4.98a6.54,6.54,0,0,1,3.926.991,3.389,3.389,0,0,1,1.338,2.905,3.212,3.212,0,0,1-.537,1.841,3.1,3.1,0,0,1-1.494,1.167,3,3,0,0,1,1.724,1.1,3.262,3.262,0,0,1,.63,2.031,3.752,3.752,0,0,1-1.309,3.105A5.891,5.891,0,0,1-54.2,0Zm2.93-6.191v3.838h2.51a2.422,2.422,0,0,0,1.616-.493,1.691,1.691,0,0,0,.581-1.362,1.786,1.786,0,0,0-2.021-1.982Zm0-2.07h2.168q2.217-.039,2.217-1.768a1.633,1.633,0,0,0-.562-1.392,2.953,2.953,0,0,0-1.772-.425H-56.8Zm9.795,6.875a1.421,1.421,0,0,1,.454-1.094,1.611,1.611,0,0,1,1.138-.42,1.624,1.624,0,0,1,1.147.42,1.421,1.421,0,0,1,.454,1.094,1.4,1.4,0,0,1-.449,1.079,1.631,1.631,0,0,1-1.152.415,1.618,1.618,0,0,1-1.143-.415A1.4,1.4,0,0,1-47.007-1.387ZM-28.149-2.93h-5.137L-34.263,0h-3.115l5.293-14.219h2.715L-24.048,0h-3.115ZM-32.5-5.3h3.555l-1.787-5.322Zm11.719-5.264.088,1.221a3.689,3.689,0,0,1,3.037-1.416,3.066,3.066,0,0,1,2.5.986,4.6,4.6,0,0,1,.84,2.949V0h-2.822V-6.758a1.831,1.831,0,0,0-.391-1.3,1.749,1.749,0,0,0-1.3-.405A1.942,1.942,0,0,0-20.61-7.451V0h-2.822V-10.566ZM-6.05,0a3.134,3.134,0,0,1-.283-.947A3.415,3.415,0,0,1-9,.2a3.752,3.752,0,0,1-2.573-.9,2.89,2.89,0,0,1-1.021-2.266,2.986,2.986,0,0,1,1.245-2.578,6.144,6.144,0,0,1,3.6-.908h1.3v-.605a1.741,1.741,0,0,0-.376-1.172,1.479,1.479,0,0,0-1.187-.439,1.682,1.682,0,0,0-1.118.342,1.161,1.161,0,0,0-.405.938h-2.822a2.835,2.835,0,0,1,.566-1.7,3.744,3.744,0,0,1,1.6-1.226,5.837,5.837,0,0,1,2.324-.444,4.611,4.611,0,0,1,3.1.981A3.433,3.433,0,0,1-3.618-7.021v4.58A5.052,5.052,0,0,0-3.2-.166V0ZM-8.384-1.963a2.431,2.431,0,0,0,1.152-.278,1.828,1.828,0,0,0,.781-.747V-4.8H-7.5q-2.119,0-2.256,1.465l-.01.166A1.13,1.13,0,0,0-9.4-2.3,1.441,1.441,0,0,0-8.384-1.963ZM-7.31-15h3.076l-2.705,3.027H-9.233ZM1.528,0H-1.3V-15H1.528Zm5.3,0H4V-10.566H6.831Zm-3-13.3a1.39,1.39,0,0,1,.425-1.045,1.6,1.6,0,0,1,1.157-.41,1.6,1.6,0,0,1,1.152.41A1.382,1.382,0,0,1,7-13.3a1.386,1.386,0,0,1-.435,1.055,1.6,1.6,0,0,1-1.147.41,1.6,1.6,0,0,1-1.147-.41A1.386,1.386,0,0,1,3.833-13.3ZM14.878-2.92a.909.909,0,0,0-.513-.815,5.824,5.824,0,0,0-1.646-.532q-3.77-.791-3.77-3.2a2.9,2.9,0,0,1,1.167-2.349,4.708,4.708,0,0,1,3.052-.942,5.067,5.067,0,0,1,3.218.947,2.985,2.985,0,0,1,1.206,2.461H14.771a1.366,1.366,0,0,0-.391-1,1.653,1.653,0,0,0-1.221-.4,1.689,1.689,0,0,0-1.1.322,1.017,1.017,0,0,0-.391.82.87.87,0,0,0,.444.757,4.571,4.571,0,0,0,1.5.5,12.244,12.244,0,0,1,1.777.474,2.92,2.92,0,0,1,2.236,2.842A2.756,2.756,0,0,1,16.382-.7a5.35,5.35,0,0,1-3.2.894A5.588,5.588,0,0,1,10.82-.278,3.957,3.957,0,0,1,9.2-1.577a3.018,3.018,0,0,1-.586-1.782h2.676a1.473,1.473,0,0,0,.557,1.152,2.208,2.208,0,0,0,1.387.4,2.044,2.044,0,0,0,1.226-.308A.957.957,0,0,0,14.878-2.92ZM22.417,0H19.585V-10.566h2.832Zm-3-13.3a1.39,1.39,0,0,1,.425-1.045A1.6,1.6,0,0,1,21-14.756a1.6,1.6,0,0,1,1.152.41,1.382,1.382,0,0,1,.43,1.045,1.386,1.386,0,0,1-.435,1.055,1.6,1.6,0,0,1-1.147.41,1.6,1.6,0,0,1-1.147-.41A1.386,1.386,0,0,1,19.419-13.3ZM30.464-2.92a.909.909,0,0,0-.513-.815,5.824,5.824,0,0,0-1.646-.532q-3.77-.791-3.77-3.2A2.9,2.9,0,0,1,25.7-9.819a4.708,4.708,0,0,1,3.052-.942,5.067,5.067,0,0,1,3.218.947,2.985,2.985,0,0,1,1.206,2.461H30.356a1.366,1.366,0,0,0-.391-1,1.653,1.653,0,0,0-1.221-.4,1.689,1.689,0,0,0-1.1.322,1.017,1.017,0,0,0-.391.82.87.87,0,0,0,.444.757,4.571,4.571,0,0,0,1.5.5,12.244,12.244,0,0,1,1.777.474,2.92,2.92,0,0,1,2.236,2.842A2.756,2.756,0,0,1,31.968-.7a5.35,5.35,0,0,1-3.2.894,5.588,5.588,0,0,1-2.358-.474,3.957,3.957,0,0,1-1.616-1.3A3.018,3.018,0,0,1,24.2-3.359H26.88a1.473,1.473,0,0,0,.557,1.152,2.208,2.208,0,0,0,1.387.4,2.044,2.044,0,0,0,1.226-.308A.957.957,0,0,0,30.464-2.92Zm9.1-2.441A6.368,6.368,0,0,1,40.674-9.3a3.6,3.6,0,0,1,3.032-1.465,3.236,3.236,0,0,1,2.549,1.152V-15h2.832V0H46.538L46.4-1.123A3.321,3.321,0,0,1,43.687.2a3.587,3.587,0,0,1-2.993-1.47A6.573,6.573,0,0,1,39.565-5.361Zm2.822.21a4.171,4.171,0,0,0,.518,2.279,1.686,1.686,0,0,0,1.5.792,1.888,1.888,0,0,0,1.846-1.105V-7.362a1.861,1.861,0,0,0-1.826-1.105Q42.388-8.467,42.388-5.151ZM56.138.2A5.187,5.187,0,0,1,52.354-1.23a5.068,5.068,0,0,1-1.46-3.8V-5.3a6.383,6.383,0,0,1,.615-2.847,4.515,4.515,0,0,1,1.743-1.934,4.893,4.893,0,0,1,2.573-.679,4.385,4.385,0,0,1,3.413,1.367,5.555,5.555,0,0,1,1.245,3.877v1.152H53.755a2.622,2.622,0,0,0,.825,1.66,2.5,2.5,0,0,0,1.743.625,3.046,3.046,0,0,0,2.549-1.182l1.387,1.553a4.237,4.237,0,0,1-1.719,1.4A5.639,5.639,0,0,1,56.138.2Zm-.322-8.682a1.764,1.764,0,0,0-1.362.569,2.946,2.946,0,0,0-.669,1.628H57.71v-.226A2.1,2.1,0,0,0,57.2-7.971,1.819,1.819,0,0,0,55.815-8.486ZM-68.179,24h-2.832V9h2.832Zm8.447,0a3.134,3.134,0,0,1-.283-.947A3.415,3.415,0,0,1-62.681,24.2a3.752,3.752,0,0,1-2.573-.9,2.89,2.89,0,0,1-1.021-2.266,2.986,2.986,0,0,1,1.245-2.578,6.144,6.144,0,0,1,3.6-.908h1.3v-.605a1.741,1.741,0,0,0-.376-1.172,1.479,1.479,0,0,0-1.187-.439,1.682,1.682,0,0,0-1.118.342,1.161,1.161,0,0,0-.405.938H-66.04a2.835,2.835,0,0,1,.566-1.7,3.744,3.744,0,0,1,1.6-1.226,5.837,5.837,0,0,1,2.324-.444,4.611,4.611,0,0,1,3.1.981A3.433,3.433,0,0,1-57.3,16.979v4.58a5.052,5.052,0,0,0,.42,2.275V24Zm-2.334-1.963a2.431,2.431,0,0,0,1.152-.278,1.828,1.828,0,0,0,.781-.747V19.2h-1.055q-2.119,0-2.256,1.465l-.01.166a1.13,1.13,0,0,0,.371.869A1.441,1.441,0,0,0-62.065,22.037Zm12.656-.957a.909.909,0,0,0-.513-.815,5.824,5.824,0,0,0-1.646-.532q-3.77-.791-3.77-3.2a2.9,2.9,0,0,1,1.167-2.349,4.708,4.708,0,0,1,3.052-.942,5.067,5.067,0,0,1,3.218.947,2.985,2.985,0,0,1,1.206,2.461h-2.822a1.366,1.366,0,0,0-.391-1,1.653,1.653,0,0,0-1.221-.4,1.689,1.689,0,0,0-1.1.322,1.017,1.017,0,0,0-.391.82.87.87,0,0,0,.444.757,4.571,4.571,0,0,0,1.5.5,12.244,12.244,0,0,1,1.777.474,2.92,2.92,0,0,1,2.236,2.842,2.756,2.756,0,0,1-1.24,2.339,5.35,5.35,0,0,1-3.2.894,5.588,5.588,0,0,1-2.358-.474,3.957,3.957,0,0,1-1.616-1.3,3.018,3.018,0,0,1-.586-1.782h2.676a1.473,1.473,0,0,0,.557,1.152,2.208,2.208,0,0,0,1.387.4,2.044,2.044,0,0,0,1.226-.308A.957.957,0,0,0-49.409,21.08Zm12.139-7.646.088,1.221a3.689,3.689,0,0,1,3.037-1.416,3.066,3.066,0,0,1,2.5.986,4.6,4.6,0,0,1,.84,2.949V24h-2.822V17.242a1.831,1.831,0,0,0-.391-1.3,1.749,1.749,0,0,0-1.3-.405A1.942,1.942,0,0,0-37.1,16.549V24h-2.822V13.434ZM-23.8,24.2a5.187,5.187,0,0,1-3.784-1.426,5.068,5.068,0,0,1-1.46-3.8V18.7a6.383,6.383,0,0,1,.615-2.847,4.515,4.515,0,0,1,1.743-1.934,4.893,4.893,0,0,1,2.573-.679A4.385,4.385,0,0,1-20.7,14.605a5.555,5.555,0,0,1,1.245,3.877v1.152h-6.729a2.622,2.622,0,0,0,.825,1.66,2.5,2.5,0,0,0,1.743.625,3.046,3.046,0,0,0,2.549-1.182l1.387,1.553a4.237,4.237,0,0,1-1.719,1.4A5.639,5.639,0,0,1-23.8,24.2Zm-.322-8.682a1.764,1.764,0,0,0-1.362.569,2.946,2.946,0,0,0-.669,1.628h3.926v-.226a2.1,2.1,0,0,0-.508-1.457A1.819,1.819,0,0,0-24.126,15.514Zm10.664,6.406a1.851,1.851,0,0,0,1.27-.43,1.506,1.506,0,0,0,.508-1.143h2.646a3.62,3.62,0,0,1-.586,1.968A3.866,3.866,0,0,1-11.2,23.7a4.936,4.936,0,0,1-2.212.493,4.587,4.587,0,0,1-3.574-1.44A5.7,5.7,0,0,1-18.3,18.775V18.59a5.635,5.635,0,0,1,1.3-3.9,4.534,4.534,0,0,1,3.564-1.455,4.444,4.444,0,0,1,3.179,1.128,3.994,3.994,0,0,1,1.216,3h-2.646a1.939,1.939,0,0,0-.508-1.34,1.693,1.693,0,0,0-1.289-.515,1.7,1.7,0,0,0-1.489.719,4.166,4.166,0,0,0-.5,2.333v.293a4.219,4.219,0,0,0,.5,2.347A1.721,1.721,0,0,0-13.462,21.92Zm10.9,2.275A5.187,5.187,0,0,1-6.348,22.77a5.068,5.068,0,0,1-1.46-3.8V18.7a6.383,6.383,0,0,1,.615-2.847,4.515,4.515,0,0,1,1.743-1.934,4.893,4.893,0,0,1,2.573-.679A4.385,4.385,0,0,1,.537,14.605a5.555,5.555,0,0,1,1.245,3.877v1.152H-4.946a2.622,2.622,0,0,0,.825,1.66,2.5,2.5,0,0,0,1.743.625A3.046,3.046,0,0,0,.171,20.738l1.387,1.553a4.237,4.237,0,0,1-1.719,1.4A5.639,5.639,0,0,1-2.563,24.2Zm-.322-8.682a1.764,1.764,0,0,0-1.362.569,2.946,2.946,0,0,0-.669,1.628H-.991v-.226A2.1,2.1,0,0,0-1.5,16.029,1.819,1.819,0,0,0-2.886,15.514ZM9.106,21.08a.909.909,0,0,0-.513-.815,5.824,5.824,0,0,0-1.646-.532q-3.77-.791-3.77-3.2a2.9,2.9,0,0,1,1.167-2.349A4.708,4.708,0,0,1,7.4,13.238a5.067,5.067,0,0,1,3.218.947,2.985,2.985,0,0,1,1.206,2.461H9a1.366,1.366,0,0,0-.391-1,1.653,1.653,0,0,0-1.221-.4,1.689,1.689,0,0,0-1.1.322,1.017,1.017,0,0,0-.391.82.87.87,0,0,0,.444.757,4.571,4.571,0,0,0,1.5.5,12.244,12.244,0,0,1,1.777.474,2.92,2.92,0,0,1,2.236,2.842A2.756,2.756,0,0,1,10.61,23.3a5.35,5.35,0,0,1-3.2.894,5.588,5.588,0,0,1-2.358-.474,3.957,3.957,0,0,1-1.616-1.3,3.018,3.018,0,0,1-.586-1.782H5.522a1.473,1.473,0,0,0,.557,1.152,2.208,2.208,0,0,0,1.387.4,2.044,2.044,0,0,0,1.226-.308A.957.957,0,0,0,9.106,21.08ZM16.646,24H13.813V13.434h2.832Zm-3-13.3a1.39,1.39,0,0,1,.425-1.045,1.6,1.6,0,0,1,1.157-.41,1.6,1.6,0,0,1,1.152.41,1.491,1.491,0,0,1,0,2.1,1.81,1.81,0,0,1-2.295,0A1.386,1.386,0,0,1,13.647,10.7Zm4.883,7.939A6.368,6.368,0,0,1,19.639,14.7a3.6,3.6,0,0,1,3.032-1.465,3.236,3.236,0,0,1,2.549,1.152V9h2.832V24H25.5l-.137-1.123A3.321,3.321,0,0,1,22.651,24.2a3.587,3.587,0,0,1-2.993-1.47A6.573,6.573,0,0,1,18.53,18.639Zm2.822.21a4.171,4.171,0,0,0,.518,2.279,1.686,1.686,0,0,0,1.5.792,1.888,1.888,0,0,0,1.846-1.105V16.638a1.861,1.861,0,0,0-1.826-1.105Q21.353,15.533,21.353,18.849ZM36.362,24a3.134,3.134,0,0,1-.283-.947A3.415,3.415,0,0,1,33.413,24.2a3.752,3.752,0,0,1-2.573-.9,2.89,2.89,0,0,1-1.021-2.266,2.986,2.986,0,0,1,1.245-2.578,6.144,6.144,0,0,1,3.6-.908h1.3v-.605a1.741,1.741,0,0,0-.376-1.172,1.479,1.479,0,0,0-1.187-.439,1.682,1.682,0,0,0-1.118.342,1.161,1.161,0,0,0-.405.938H30.054a2.835,2.835,0,0,1,.566-1.7,3.744,3.744,0,0,1,1.6-1.226,5.837,5.837,0,0,1,2.324-.444,4.611,4.611,0,0,1,3.1.981,3.433,3.433,0,0,1,1.147,2.759v4.58a5.052,5.052,0,0,0,.42,2.275V24Zm-2.334-1.963a2.431,2.431,0,0,0,1.152-.278,1.828,1.828,0,0,0,.781-.747V19.2H34.907q-2.119,0-2.256,1.465l-.01.166a1.13,1.13,0,0,0,.371.869A1.441,1.441,0,0,0,34.028,22.037Zm6.494-3.4A6.368,6.368,0,0,1,41.631,14.7a3.6,3.6,0,0,1,3.032-1.465,3.236,3.236,0,0,1,2.549,1.152V9h2.832V24H47.5l-.137-1.123A3.321,3.321,0,0,1,44.644,24.2a3.587,3.587,0,0,1-2.993-1.47A6.573,6.573,0,0,1,40.522,18.639Zm2.822.21a4.171,4.171,0,0,0,.518,2.279,1.686,1.686,0,0,0,1.5.792,1.888,1.888,0,0,0,1.846-1.105V16.638a1.861,1.861,0,0,0-1.826-1.105Q43.345,15.533,43.345,18.849ZM57.095,24.2a5.187,5.187,0,0,1-3.784-1.426,5.068,5.068,0,0,1-1.46-3.8V18.7a6.383,6.383,0,0,1,.615-2.847,4.515,4.515,0,0,1,1.743-1.934,4.893,4.893,0,0,1,2.573-.679A4.385,4.385,0,0,1,60.2,14.605a5.555,5.555,0,0,1,1.245,3.877v1.152H54.712a2.622,2.622,0,0,0,.825,1.66,2.5,2.5,0,0,0,1.743.625,3.046,3.046,0,0,0,2.549-1.182l1.387,1.553a4.237,4.237,0,0,1-1.719,1.4A5.639,5.639,0,0,1,57.095,24.2Zm-.322-8.682a1.764,1.764,0,0,0-1.362.569,2.946,2.946,0,0,0-.669,1.628h3.926v-.226a2.1,2.1,0,0,0-.508-1.457A1.819,1.819,0,0,0,56.772,15.514ZM68.765,21.08a.909.909,0,0,0-.513-.815,5.824,5.824,0,0,0-1.646-.532q-3.77-.791-3.77-3.2A2.9,2.9,0,0,1,64,14.181a4.708,4.708,0,0,1,3.052-.942,5.067,5.067,0,0,1,3.218.947,2.985,2.985,0,0,1,1.206,2.461H68.657a1.366,1.366,0,0,0-.391-1,1.653,1.653,0,0,0-1.221-.4,1.689,1.689,0,0,0-1.1.322,1.017,1.017,0,0,0-.391.82.87.87,0,0,0,.444.757,4.571,4.571,0,0,0,1.5.5,12.244,12.244,0,0,1,1.777.474,2.92,2.92,0,0,1,2.236,2.842,2.756,2.756,0,0,1-1.24,2.339,5.35,5.35,0,0,1-3.2.894,5.588,5.588,0,0,1-2.358-.474,3.957,3.957,0,0,1-1.616-1.3,3.018,3.018,0,0,1-.586-1.782h2.676a1.473,1.473,0,0,0,.557,1.152,2.208,2.208,0,0,0,1.387.4,2.044,2.044,0,0,0,1.226-.308A.957.957,0,0,0,68.765,21.08Zm-136.2,21.559A6.368,6.368,0,0,1-66.328,38.7,3.6,3.6,0,0,1-63.3,37.238a3.236,3.236,0,0,1,2.549,1.152V33h2.832V48h-2.549l-.137-1.123A3.321,3.321,0,0,1-63.315,48.2a3.587,3.587,0,0,1-2.993-1.47A6.573,6.573,0,0,1-67.437,42.639Zm2.822.21a4.171,4.171,0,0,0,.518,2.279,1.686,1.686,0,0,0,1.5.792,1.888,1.888,0,0,0,1.846-1.105V40.638a1.861,1.861,0,0,0-1.826-1.105Q-64.614,39.533-64.614,42.849Zm13.75,5.347a5.187,5.187,0,0,1-3.784-1.426,5.068,5.068,0,0,1-1.46-3.8V42.7a6.383,6.383,0,0,1,.615-2.847,4.515,4.515,0,0,1,1.743-1.934,4.893,4.893,0,0,1,2.573-.679,4.385,4.385,0,0,1,3.413,1.367,5.555,5.555,0,0,1,1.245,3.877v1.152h-6.729a2.622,2.622,0,0,0,.825,1.66,2.494,2.494,0,0,0,1.743.625,3.046,3.046,0,0,0,2.549-1.182l1.387,1.553a4.237,4.237,0,0,1-1.719,1.4A5.639,5.639,0,0,1-50.864,48.2Zm-.322-8.682a1.764,1.764,0,0,0-1.362.569,2.946,2.946,0,0,0-.669,1.628h3.926v-.226a2.1,2.1,0,0,0-.508-1.457A1.819,1.819,0,0,0-51.187,39.514ZM-36.958,48H-39.79V33h2.832Zm8.447,0a3.134,3.134,0,0,1-.283-.947A3.415,3.415,0,0,1-31.46,48.2a3.752,3.752,0,0,1-2.573-.9,2.89,2.89,0,0,1-1.021-2.266,2.986,2.986,0,0,1,1.245-2.578,6.144,6.144,0,0,1,3.6-.908h1.3v-.605a1.741,1.741,0,0,0-.376-1.172,1.479,1.479,0,0,0-1.187-.439,1.682,1.682,0,0,0-1.118.342,1.161,1.161,0,0,0-.405.938h-2.822a2.835,2.835,0,0,1,.566-1.7,3.744,3.744,0,0,1,1.6-1.226,5.837,5.837,0,0,1,2.324-.444,4.611,4.611,0,0,1,3.1.981,3.433,3.433,0,0,1,1.147,2.759v4.58a5.052,5.052,0,0,0,.42,2.275V48Zm-2.334-1.963a2.431,2.431,0,0,0,1.152-.278,1.828,1.828,0,0,0,.781-.747V43.2h-1.055q-2.119,0-2.256,1.465l-.01.166a1.13,1.13,0,0,0,.371.869A1.441,1.441,0,0,0-30.845,46.037Zm21.426-3.223a6.337,6.337,0,0,1-1.108,3.911,3.554,3.554,0,0,1-2.993,1.47,3.292,3.292,0,0,1-2.588-1.113v4.98h-2.822V37.434h2.617l.1,1.035a3.317,3.317,0,0,1,2.676-1.23A3.578,3.578,0,0,1-10.5,38.684a6.509,6.509,0,0,1,1.084,3.984Zm-2.822-.205a4.159,4.159,0,0,0-.522-2.275,1.7,1.7,0,0,0-1.519-.8,1.848,1.848,0,0,0-1.826,1.016v4.326a1.879,1.879,0,0,0,1.846,1.045Q-12.241,45.92-12.241,42.609Zm4.131.01a6.267,6.267,0,0,1,.605-2.8,4.432,4.432,0,0,1,1.743-1.9,5.086,5.086,0,0,1,2.642-.674A4.812,4.812,0,0,1,.371,38.547,5.252,5.252,0,0,1,1.88,42.1l.02.723a5.523,5.523,0,0,1-1.357,3.9A4.718,4.718,0,0,1-3.1,48.2,4.742,4.742,0,0,1-6.748,46.73,5.62,5.62,0,0,1-8.11,42.746Zm2.822.2a3.95,3.95,0,0,0,.566,2.3,1.868,1.868,0,0,0,1.621.8,1.873,1.873,0,0,0,1.6-.787,4.322,4.322,0,0,0,.576-2.518A3.91,3.91,0,0,0-1.5,40.325a1.873,1.873,0,0,0-1.621-.812,1.842,1.842,0,0,0-1.6.807A4.395,4.395,0,0,0-5.288,42.819Zm18.447-.005a6.4,6.4,0,0,1-1.084,3.96A3.591,3.591,0,0,1,9.048,48.2,3.3,3.3,0,0,1,6.3,46.877L6.177,48H3.638V33H6.46v5.381a3.214,3.214,0,0,1,2.568-1.143,3.62,3.62,0,0,1,3.032,1.421,6.408,6.408,0,0,1,1.1,4Zm-2.822-.205a4.2,4.2,0,0,0-.508-2.339,1.717,1.717,0,0,0-1.514-.737,1.862,1.862,0,0,0-1.855,1.1v4.17A1.887,1.887,0,0,0,8.335,45.92a1.742,1.742,0,0,0,1.8-1.348A6.952,6.952,0,0,0,10.337,42.609ZM17.876,48H15.044V33h2.832Zm8.447,0a3.134,3.134,0,0,1-.283-.947A3.415,3.415,0,0,1,23.374,48.2a3.752,3.752,0,0,1-2.573-.9,2.89,2.89,0,0,1-1.021-2.266,2.986,2.986,0,0,1,1.245-2.578,6.144,6.144,0,0,1,3.6-.908h1.3v-.605a1.741,1.741,0,0,0-.376-1.172,1.479,1.479,0,0,0-1.187-.439,1.682,1.682,0,0,0-1.118.342,1.161,1.161,0,0,0-.405.938H20.015a2.835,2.835,0,0,1,.566-1.7,3.744,3.744,0,0,1,1.6-1.226,5.837,5.837,0,0,1,2.324-.444,4.611,4.611,0,0,1,3.1.981,3.433,3.433,0,0,1,1.147,2.759v4.58a5.052,5.052,0,0,0,.42,2.275V48Zm-2.334-1.963a2.431,2.431,0,0,0,1.152-.278,1.828,1.828,0,0,0,.781-.747V43.2H24.868q-2.119,0-2.256,1.465l-.01.166a1.13,1.13,0,0,0,.371.869A1.441,1.441,0,0,0,23.989,46.037Zm11.328-.117a1.851,1.851,0,0,0,1.27-.43,1.506,1.506,0,0,0,.508-1.143h2.646a3.62,3.62,0,0,1-.586,1.968A3.866,3.866,0,0,1,37.578,47.7a4.936,4.936,0,0,1-2.212.493,4.587,4.587,0,0,1-3.574-1.44,5.7,5.7,0,0,1-1.309-3.979V42.59a5.635,5.635,0,0,1,1.3-3.9,4.534,4.534,0,0,1,3.564-1.455,4.444,4.444,0,0,1,3.179,1.128,3.994,3.994,0,0,1,1.216,3H37.095a1.939,1.939,0,0,0-.508-1.34,1.887,1.887,0,0,0-2.778.2,4.166,4.166,0,0,0-.5,2.333v.293a4.219,4.219,0,0,0,.5,2.347A1.721,1.721,0,0,0,35.317,45.92ZM44.331,48H41.5V37.434h2.832Zm-3-13.3a1.39,1.39,0,0,1,.425-1.045,1.831,1.831,0,0,1,2.31,0,1.491,1.491,0,0,1,0,2.1,1.81,1.81,0,0,1-2.295,0A1.386,1.386,0,0,1,41.333,34.7Zm4.883,7.92a6.267,6.267,0,0,1,.605-2.8,4.432,4.432,0,0,1,1.743-1.9,5.086,5.086,0,0,1,2.642-.674A4.812,4.812,0,0,1,54.7,38.547,5.252,5.252,0,0,1,56.206,42.1l.02.723a5.523,5.523,0,0,1-1.357,3.9,5.261,5.261,0,0,1-7.29,0,5.62,5.62,0,0,1-1.362-3.984Zm2.822.2a3.95,3.95,0,0,0,.566,2.3,2.035,2.035,0,0,0,3.223.01,4.322,4.322,0,0,0,.576-2.518,3.91,3.91,0,0,0-.576-2.289,1.873,1.873,0,0,0-1.621-.812,1.842,1.842,0,0,0-1.6.807A4.395,4.395,0,0,0,49.038,42.819ZM51.763,33h3.076l-2.705,3.027H49.839Zm8.8,4.434.088,1.221a3.689,3.689,0,0,1,3.037-1.416,3.066,3.066,0,0,1,2.5.986,4.6,4.6,0,0,1,.84,2.949V48H64.2V41.242a1.831,1.831,0,0,0-.391-1.3,1.749,1.749,0,0,0-1.3-.405,1.942,1.942,0,0,0-1.787,1.016V48H57.905V37.434Z" transform="translate(796.9 24991.15)"/>
    <path id="Trazado_233382" data-name="Trazado 233382" d="M-48.33-6.162h-5.625v3.809h6.6V0h-9.531V-14.219h9.512v2.373h-6.582v3.389h5.625Zm2.656,4.775A1.421,1.421,0,0,1-45.22-2.48a1.611,1.611,0,0,1,1.138-.42,1.624,1.624,0,0,1,1.147.42,1.421,1.421,0,0,1,.454,1.094A1.4,1.4,0,0,1-42.93-.308a1.631,1.631,0,0,1-1.152.415,1.618,1.618,0,0,1-1.143-.415A1.4,1.4,0,0,1-45.674-1.387ZM-34.844,0V-14.219h4.375a6.644,6.644,0,0,1,3.354.845,5.89,5.89,0,0,1,2.31,2.4,7.41,7.41,0,0,1,.83,3.54v.654a7.431,7.431,0,0,1-.815,3.525,5.84,5.84,0,0,1-2.3,2.393A6.694,6.694,0,0,1-30.439,0Zm2.93-11.846v9.492H-30.5a3.181,3.181,0,0,0,2.627-1.123,5.075,5.075,0,0,0,.928-3.213v-.752a5.156,5.156,0,0,0-.9-3.286,3.171,3.171,0,0,0-2.627-1.118ZM-19.053,0h-2.832V-10.566h2.832Zm-3-13.3a1.39,1.39,0,0,1,.425-1.045,1.6,1.6,0,0,1,1.157-.41,1.6,1.6,0,0,1,1.152.41,1.382,1.382,0,0,1,.43,1.045,1.386,1.386,0,0,1-.435,1.055,1.6,1.6,0,0,1-1.147.41,1.6,1.6,0,0,1-1.147-.41A1.386,1.386,0,0,1-22.051-13.3ZM-11.006-2.92a.909.909,0,0,0-.513-.815,5.824,5.824,0,0,0-1.646-.532q-3.77-.791-3.77-3.2a2.9,2.9,0,0,1,1.167-2.349,4.708,4.708,0,0,1,3.052-.942A5.067,5.067,0,0,1-9.5-9.814,2.985,2.985,0,0,1-8.291-7.354h-2.822a1.366,1.366,0,0,0-.391-1,1.653,1.653,0,0,0-1.221-.4,1.689,1.689,0,0,0-1.1.322,1.017,1.017,0,0,0-.391.82.87.87,0,0,0,.444.757,4.571,4.571,0,0,0,1.5.5,12.244,12.244,0,0,1,1.777.474A2.92,2.92,0,0,1-8.262-3.037,2.756,2.756,0,0,1-9.5-.7a5.35,5.35,0,0,1-3.2.894,5.588,5.588,0,0,1-2.358-.474,3.957,3.957,0,0,1-1.616-1.3,3.018,3.018,0,0,1-.586-1.782h2.676a1.473,1.473,0,0,0,.557,1.152,2.208,2.208,0,0,0,1.387.4,2.044,2.044,0,0,0,1.226-.308A.957.957,0,0,0-11.006-2.92ZM-1.582.2A5.187,5.187,0,0,1-5.366-1.23a5.068,5.068,0,0,1-1.46-3.8V-5.3a6.383,6.383,0,0,1,.615-2.847,4.515,4.515,0,0,1,1.743-1.934,4.893,4.893,0,0,1,2.573-.679A4.385,4.385,0,0,1,1.519-9.395,5.555,5.555,0,0,1,2.764-5.518v1.152H-3.965a2.622,2.622,0,0,0,.825,1.66A2.5,2.5,0,0,0-1.4-2.08,3.046,3.046,0,0,0,1.152-3.262L2.539-1.709A4.237,4.237,0,0,1,.82-.308,5.639,5.639,0,0,1-1.582.2ZM-1.9-8.486a1.764,1.764,0,0,0-1.362.569,2.946,2.946,0,0,0-.669,1.628H-.01v-.226A2.1,2.1,0,0,0-.518-7.971,1.819,1.819,0,0,0-1.9-8.486Zm8.867-2.08.088,1.221a3.689,3.689,0,0,1,3.037-1.416,3.066,3.066,0,0,1,2.5.986,4.6,4.6,0,0,1,.84,2.949V0H10.605V-6.758a1.831,1.831,0,0,0-.391-1.3,1.749,1.749,0,0,0-1.3-.405A1.942,1.942,0,0,0,7.129-7.451V0H4.307V-10.566Zm5.605-4.307a2.733,2.733,0,0,1-.645,1.851,2,2,0,0,1-1.572.747,2.385,2.385,0,0,1-.659-.083,4.423,4.423,0,0,1-.8-.356,4.293,4.293,0,0,0-.732-.337,1.79,1.79,0,0,0-.488-.063.783.783,0,0,0-.581.244.949.949,0,0,0-.239.693l-1.641-.1a2.775,2.775,0,0,1,.64-1.846,1.973,1.973,0,0,1,1.567-.762,2.018,2.018,0,0,1,.552.073,6.076,6.076,0,0,1,.845.356,5.49,5.49,0,0,0,.811.342,1.85,1.85,0,0,0,.469.059.824.824,0,0,0,.591-.239.91.91,0,0,0,.249-.688Zm2.559,9.492a6.267,6.267,0,0,1,.605-2.8,4.432,4.432,0,0,1,1.743-1.9,5.086,5.086,0,0,1,2.642-.674,4.812,4.812,0,0,1,3.491,1.309A5.252,5.252,0,0,1,25.117-5.9l.02.723a5.523,5.523,0,0,1-1.357,3.9A4.718,4.718,0,0,1,20.137.2,4.742,4.742,0,0,1,16.489-1.27a5.62,5.62,0,0,1-1.362-3.984Zm2.822.2a3.95,3.95,0,0,0,.566,2.3,1.868,1.868,0,0,0,1.621.8,1.873,1.873,0,0,0,1.6-.787,4.322,4.322,0,0,0,.576-2.518,3.91,3.91,0,0,0-.576-2.289,1.873,1.873,0,0,0-1.621-.812,1.842,1.842,0,0,0-1.6.807A4.395,4.395,0,0,0,17.949-5.181Zm13.467-.181A6.368,6.368,0,0,1,32.524-9.3a3.6,3.6,0,0,1,3.032-1.465,3.236,3.236,0,0,1,2.549,1.152V-15h2.832V0H38.389l-.137-1.123A3.321,3.321,0,0,1,35.537.2a3.587,3.587,0,0,1-2.993-1.47A6.573,6.573,0,0,1,31.416-5.361Zm2.822.21a4.171,4.171,0,0,0,.518,2.279,1.686,1.686,0,0,0,1.5.792,1.888,1.888,0,0,0,1.846-1.105V-7.362a1.861,1.861,0,0,0-1.826-1.105Q34.238-8.467,34.238-5.151ZM47.988.2A5.187,5.187,0,0,1,44.2-1.23a5.068,5.068,0,0,1-1.46-3.8V-5.3a6.383,6.383,0,0,1,.615-2.847A4.515,4.515,0,0,1,45.1-10.083a4.893,4.893,0,0,1,2.573-.679,4.385,4.385,0,0,1,3.413,1.367,5.555,5.555,0,0,1,1.245,3.877v1.152H45.605a2.622,2.622,0,0,0,.825,1.66,2.5,2.5,0,0,0,1.743.625,3.046,3.046,0,0,0,2.549-1.182l1.387,1.553a4.237,4.237,0,0,1-1.719,1.4A5.639,5.639,0,0,1,47.988.2Zm-.322-8.682a1.764,1.764,0,0,0-1.362.569,2.946,2.946,0,0,0-.669,1.628h3.926v-.226a2.1,2.1,0,0,0-.508-1.457A1.819,1.819,0,0,0,47.666-8.486ZM56.914,0H54.082V-15h2.832ZM-38.135,24.2a5.187,5.187,0,0,1-3.784-1.426,5.068,5.068,0,0,1-1.46-3.8V18.7a6.383,6.383,0,0,1,.615-2.847,4.515,4.515,0,0,1,1.743-1.934,4.893,4.893,0,0,1,2.573-.679,4.385,4.385,0,0,1,3.413,1.367,5.555,5.555,0,0,1,1.245,3.877v1.152h-6.729a2.622,2.622,0,0,0,.825,1.66,2.5,2.5,0,0,0,1.743.625A3.046,3.046,0,0,0-35.4,20.738l1.387,1.553a4.237,4.237,0,0,1-1.719,1.4A5.639,5.639,0,0,1-38.135,24.2Zm-.322-8.682a1.764,1.764,0,0,0-1.362.569,2.946,2.946,0,0,0-.669,1.628h3.926v-.226a2.1,2.1,0,0,0-.508-1.457A1.819,1.819,0,0,0-38.457,15.514Zm11.992,5.566a.909.909,0,0,0-.513-.815,5.824,5.824,0,0,0-1.646-.532q-3.77-.791-3.77-3.2a2.9,2.9,0,0,1,1.167-2.349,4.708,4.708,0,0,1,3.052-.942,5.067,5.067,0,0,1,3.218.947,2.985,2.985,0,0,1,1.206,2.461h-2.822a1.366,1.366,0,0,0-.391-1,1.653,1.653,0,0,0-1.221-.4,1.689,1.689,0,0,0-1.1.322,1.017,1.017,0,0,0-.391.82.87.87,0,0,0,.444.757,4.571,4.571,0,0,0,1.5.5,12.244,12.244,0,0,1,1.777.474,2.92,2.92,0,0,1,2.236,2.842,2.756,2.756,0,0,1-1.24,2.339,5.35,5.35,0,0,1-3.2.894,5.588,5.588,0,0,1-2.358-.474,3.957,3.957,0,0,1-1.616-1.3,3.018,3.018,0,0,1-.586-1.782h2.676a1.473,1.473,0,0,0,.557,1.152,2.208,2.208,0,0,0,1.387.4,2.044,2.044,0,0,0,1.226-.308A.957.957,0,0,0-26.465,21.08Zm8.955.84a1.851,1.851,0,0,0,1.27-.43,1.506,1.506,0,0,0,.508-1.143h2.646a3.62,3.62,0,0,1-.586,1.968A3.866,3.866,0,0,1-15.249,23.7a4.936,4.936,0,0,1-2.212.493,4.587,4.587,0,0,1-3.574-1.44,5.7,5.7,0,0,1-1.309-3.979V18.59a5.635,5.635,0,0,1,1.3-3.9,4.534,4.534,0,0,1,3.564-1.455A4.444,4.444,0,0,1-14.3,14.366a3.994,3.994,0,0,1,1.216,3h-2.646a1.939,1.939,0,0,0-.508-1.34,1.693,1.693,0,0,0-1.289-.515,1.7,1.7,0,0,0-1.489.719,4.166,4.166,0,0,0-.5,2.333v.293a4.219,4.219,0,0,0,.5,2.347A1.721,1.721,0,0,0-17.51,21.92Zm10.9,2.275A5.187,5.187,0,0,1-10.4,22.77a5.068,5.068,0,0,1-1.46-3.8V18.7a6.383,6.383,0,0,1,.615-2.847A4.515,4.515,0,0,1-9.5,13.917a4.893,4.893,0,0,1,2.573-.679,4.385,4.385,0,0,1,3.413,1.367,5.555,5.555,0,0,1,1.245,3.877v1.152H-8.994a2.622,2.622,0,0,0,.825,1.66,2.5,2.5,0,0,0,1.743.625,3.046,3.046,0,0,0,2.549-1.182l1.387,1.553a4.237,4.237,0,0,1-1.719,1.4A5.639,5.639,0,0,1-6.611,24.2Zm-.322-8.682a1.764,1.764,0,0,0-1.362.569,2.946,2.946,0,0,0-.669,1.628h3.926v-.226a2.1,2.1,0,0,0-.508-1.457A1.819,1.819,0,0,0-6.934,15.514Zm8.867-2.08.088,1.221a3.689,3.689,0,0,1,3.037-1.416,3.066,3.066,0,0,1,2.5.986,4.6,4.6,0,0,1,.84,2.949V24H5.576V17.242a1.831,1.831,0,0,0-.391-1.3,1.749,1.749,0,0,0-1.3-.405A1.942,1.942,0,0,0,2.1,16.549V24H-.723V13.434ZM16.66,24a3.134,3.134,0,0,1-.283-.947A3.415,3.415,0,0,1,13.711,24.2a3.752,3.752,0,0,1-2.573-.9,2.89,2.89,0,0,1-1.021-2.266,2.986,2.986,0,0,1,1.245-2.578,6.144,6.144,0,0,1,3.6-.908h1.3v-.605a1.741,1.741,0,0,0-.376-1.172,1.479,1.479,0,0,0-1.187-.439,1.682,1.682,0,0,0-1.118.342,1.161,1.161,0,0,0-.405.938H10.352a2.835,2.835,0,0,1,.566-1.7,3.744,3.744,0,0,1,1.6-1.226,5.837,5.837,0,0,1,2.324-.444,4.611,4.611,0,0,1,3.1.981,3.433,3.433,0,0,1,1.147,2.759v4.58a5.052,5.052,0,0,0,.42,2.275V24Zm-2.334-1.963a2.431,2.431,0,0,0,1.152-.278,1.828,1.828,0,0,0,.781-.747V19.2H15.205q-2.119,0-2.256,1.465l-.01.166a1.13,1.13,0,0,0,.371.869A1.441,1.441,0,0,0,14.326,22.037ZM27.2,16.08A7.667,7.667,0,0,0,26.182,16a2.067,2.067,0,0,0-2.1,1.084V24H21.26V13.434h2.666L24,14.693a2.615,2.615,0,0,1,2.354-1.455,2.957,2.957,0,0,1,.879.127ZM31.533,24H28.7V13.434h2.832Zm-3-13.3a1.39,1.39,0,0,1,.425-1.045,1.831,1.831,0,0,1,2.31,0,1.491,1.491,0,0,1,0,2.1,1.81,1.81,0,0,1-2.295,0A1.386,1.386,0,0,1,28.535,10.7Zm4.883,7.92a6.267,6.267,0,0,1,.605-2.8,4.432,4.432,0,0,1,1.743-1.9,5.086,5.086,0,0,1,2.642-.674A4.812,4.812,0,0,1,41.9,14.547,5.252,5.252,0,0,1,43.408,18.1l.02.723a5.523,5.523,0,0,1-1.357,3.9,4.718,4.718,0,0,1-3.643,1.47A4.742,4.742,0,0,1,34.78,22.73a5.62,5.62,0,0,1-1.362-3.984Zm2.822.2a3.95,3.95,0,0,0,.566,2.3,2.035,2.035,0,0,0,3.223.01,4.322,4.322,0,0,0,.576-2.518,3.91,3.91,0,0,0-.576-2.289,1.873,1.873,0,0,0-1.621-.812,1.842,1.842,0,0,0-1.6.807A4.395,4.395,0,0,0,36.24,18.819Z" transform="translate(797.21 25226.555)"/>
    <path id="Trazado_233383" data-name="Trazado 233383" d="M-50.161-11.846h-4.355V0h-2.93V-11.846h-4.3v-2.373h11.582Zm6.787,3.926A7.667,7.667,0,0,0-44.39-8a2.067,2.067,0,0,0-2.1,1.084V0h-2.822V-10.566h2.666l.078,1.26a2.615,2.615,0,0,1,2.354-1.455,2.957,2.957,0,0,1,.879.127ZM-36.187,0a3.134,3.134,0,0,1-.283-.947A3.415,3.415,0,0,1-39.136.2a3.752,3.752,0,0,1-2.573-.9,2.89,2.89,0,0,1-1.021-2.266,2.986,2.986,0,0,1,1.245-2.578,6.144,6.144,0,0,1,3.6-.908h1.3v-.605a1.741,1.741,0,0,0-.376-1.172,1.479,1.479,0,0,0-1.187-.439,1.682,1.682,0,0,0-1.118.342,1.161,1.161,0,0,0-.405.938H-42.5a2.835,2.835,0,0,1,.566-1.7,3.744,3.744,0,0,1,1.6-1.226A5.837,5.837,0,0,1-38-10.762a4.611,4.611,0,0,1,3.1.981,3.433,3.433,0,0,1,1.147,2.759v4.58a5.052,5.052,0,0,0,.42,2.275V0Zm-2.334-1.963a2.431,2.431,0,0,0,1.152-.278,1.828,1.828,0,0,0,.781-.747V-4.8h-1.055q-2.119,0-2.256,1.465l-.01.166a1.13,1.13,0,0,0,.371.869A1.441,1.441,0,0,0-38.521-1.963Zm9.531-8.6.088,1.221a3.689,3.689,0,0,1,3.037-1.416,3.066,3.066,0,0,1,2.5.986,4.6,4.6,0,0,1,.84,2.949V0h-2.822V-6.758a1.831,1.831,0,0,0-.391-1.3,1.749,1.749,0,0,0-1.3-.405,1.942,1.942,0,0,0-1.787,1.016V0h-2.822V-10.566ZM-14.663-2.92a.909.909,0,0,0-.513-.815,5.824,5.824,0,0,0-1.646-.532q-3.77-.791-3.77-3.2a2.9,2.9,0,0,1,1.167-2.349,4.708,4.708,0,0,1,3.052-.942,5.067,5.067,0,0,1,3.218.947,2.985,2.985,0,0,1,1.206,2.461h-2.822a1.366,1.366,0,0,0-.391-1,1.653,1.653,0,0,0-1.221-.4,1.689,1.689,0,0,0-1.1.322,1.017,1.017,0,0,0-.391.82.87.87,0,0,0,.444.757,4.571,4.571,0,0,0,1.5.5,12.244,12.244,0,0,1,1.777.474,2.92,2.92,0,0,1,2.236,2.842A2.756,2.756,0,0,1-13.159-.7a5.35,5.35,0,0,1-3.2.894,5.588,5.588,0,0,1-2.358-.474,3.957,3.957,0,0,1-1.616-1.3,3.018,3.018,0,0,1-.586-1.782h2.676a1.473,1.473,0,0,0,.557,1.152,2.208,2.208,0,0,0,1.387.4,2.044,2.044,0,0,0,1.226-.308A.957.957,0,0,0-14.663-2.92ZM-9.331,0V-8.5H-10.9v-2.07h1.572v-.9a3.648,3.648,0,0,1,1.021-2.759,3.952,3.952,0,0,1,2.856-.981,6.6,6.6,0,0,1,1.436.2l-.029,2.188a3.6,3.6,0,0,0-.859-.088q-1.592,0-1.592,1.494v.85h2.1V-8.5H-6.5V0ZM1.694.2A5.187,5.187,0,0,1-2.09-1.23a5.068,5.068,0,0,1-1.46-3.8V-5.3a6.383,6.383,0,0,1,.615-2.847,4.515,4.515,0,0,1,1.743-1.934,4.893,4.893,0,0,1,2.573-.679A4.385,4.385,0,0,1,4.795-9.395,5.555,5.555,0,0,1,6.04-5.518v1.152H-.688a2.622,2.622,0,0,0,.825,1.66A2.5,2.5,0,0,0,1.88-2.08,3.046,3.046,0,0,0,4.429-3.262L5.815-1.709A4.237,4.237,0,0,1,4.1-.308,5.639,5.639,0,0,1,1.694.2ZM1.372-8.486A1.764,1.764,0,0,0,.01-7.917,2.946,2.946,0,0,0-.659-6.289H3.267v-.226a2.1,2.1,0,0,0-.508-1.457A1.819,1.819,0,0,0,1.372-8.486Zm12.207.566A7.667,7.667,0,0,0,12.563-8a2.067,2.067,0,0,0-2.1,1.084V0H7.642V-10.566h2.666l.078,1.26a2.615,2.615,0,0,1,2.354-1.455,2.957,2.957,0,0,1,.879.127ZM19.614.2A5.187,5.187,0,0,1,15.83-1.23a5.068,5.068,0,0,1-1.46-3.8V-5.3a6.383,6.383,0,0,1,.615-2.847,4.515,4.515,0,0,1,1.743-1.934,4.893,4.893,0,0,1,2.573-.679,4.385,4.385,0,0,1,3.413,1.367A5.555,5.555,0,0,1,23.96-5.518v1.152H17.231a2.622,2.622,0,0,0,.825,1.66A2.5,2.5,0,0,0,19.8-2.08a3.046,3.046,0,0,0,2.549-1.182l1.387,1.553a4.237,4.237,0,0,1-1.719,1.4A5.639,5.639,0,0,1,19.614.2Zm-.322-8.682a1.764,1.764,0,0,0-1.362.569,2.946,2.946,0,0,0-.669,1.628h3.926v-.226a2.1,2.1,0,0,0-.508-1.457A1.819,1.819,0,0,0,19.292-8.486Zm8.867-2.08.088,1.221a3.689,3.689,0,0,1,3.037-1.416,3.066,3.066,0,0,1,2.5.986,4.6,4.6,0,0,1,.84,2.949V0H31.8V-6.758a1.831,1.831,0,0,0-.391-1.3,1.749,1.749,0,0,0-1.3-.405,1.942,1.942,0,0,0-1.787,1.016V0H25.5V-10.566Zm13,8.486a1.851,1.851,0,0,0,1.27-.43,1.506,1.506,0,0,0,.508-1.143h2.646A3.62,3.62,0,0,1,45-1.685,3.866,3.866,0,0,1,43.418-.3,4.936,4.936,0,0,1,41.206.2a4.587,4.587,0,0,1-3.574-1.44,5.7,5.7,0,0,1-1.309-3.979V-5.41a5.635,5.635,0,0,1,1.3-3.9,4.534,4.534,0,0,1,3.564-1.455,4.444,4.444,0,0,1,3.179,1.128,3.994,3.994,0,0,1,1.216,3H42.935a1.939,1.939,0,0,0-.508-1.34,1.693,1.693,0,0,0-1.289-.515,1.7,1.7,0,0,0-1.489.719,4.166,4.166,0,0,0-.5,2.333v.293a4.219,4.219,0,0,0,.5,2.347A1.721,1.721,0,0,0,41.157-2.08ZM50.171,0H47.339V-10.566h2.832Zm-3-13.3a1.39,1.39,0,0,1,.425-1.045,1.6,1.6,0,0,1,1.157-.41,1.6,1.6,0,0,1,1.152.41,1.382,1.382,0,0,1,.43,1.045,1.386,1.386,0,0,1-.435,1.055,1.6,1.6,0,0,1-1.147.41,1.6,1.6,0,0,1-1.147-.41A1.386,1.386,0,0,1,47.173-13.3ZM58.618,0a3.134,3.134,0,0,1-.283-.947A3.415,3.415,0,0,1,55.669.2,3.752,3.752,0,0,1,53.1-.7a2.89,2.89,0,0,1-1.021-2.266A2.986,2.986,0,0,1,53.32-5.547a6.144,6.144,0,0,1,3.6-.908h1.3v-.605a1.741,1.741,0,0,0-.376-1.172,1.479,1.479,0,0,0-1.187-.439,1.682,1.682,0,0,0-1.118.342,1.161,1.161,0,0,0-.405.938H52.31a2.835,2.835,0,0,1,.566-1.7,3.744,3.744,0,0,1,1.6-1.226,5.837,5.837,0,0,1,2.324-.444,4.611,4.611,0,0,1,3.1.981A3.433,3.433,0,0,1,61.05-7.021v4.58a5.052,5.052,0,0,0,.42,2.275V0ZM56.284-1.963a2.431,2.431,0,0,0,1.152-.278,1.828,1.828,0,0,0,.781-.747V-4.8H57.163q-2.119,0-2.256,1.465l-.01.166a1.13,1.13,0,0,0,.371.869A1.441,1.441,0,0,0,56.284-1.963ZM-72.354,24.2a5.187,5.187,0,0,1-3.784-1.426,5.068,5.068,0,0,1-1.46-3.8V18.7a6.383,6.383,0,0,1,.615-2.847,4.515,4.515,0,0,1,1.743-1.934,4.893,4.893,0,0,1,2.573-.679,4.385,4.385,0,0,1,3.413,1.367,5.555,5.555,0,0,1,1.245,3.877v1.152h-6.729a2.622,2.622,0,0,0,.825,1.66,2.5,2.5,0,0,0,1.743.625,3.046,3.046,0,0,0,2.549-1.182l1.387,1.553a4.237,4.237,0,0,1-1.719,1.4A5.639,5.639,0,0,1-72.354,24.2Zm-.322-8.682a1.764,1.764,0,0,0-1.362.569,2.946,2.946,0,0,0-.669,1.628h3.926v-.226a2.1,2.1,0,0,0-.508-1.457A1.819,1.819,0,0,0-72.676,15.514Zm8.867-2.08.088,1.221a3.689,3.689,0,0,1,3.037-1.416,3.066,3.066,0,0,1,2.5.986,4.6,4.6,0,0,1,.84,2.949V24h-2.822V17.242a1.831,1.831,0,0,0-.391-1.3,1.749,1.749,0,0,0-1.3-.405,1.942,1.942,0,0,0-1.787,1.016V24h-2.822V13.434ZM-45.361,24.2a5.187,5.187,0,0,1-3.784-1.426,5.068,5.068,0,0,1-1.46-3.8V18.7a6.383,6.383,0,0,1,.615-2.847,4.515,4.515,0,0,1,1.743-1.934,4.893,4.893,0,0,1,2.573-.679,4.385,4.385,0,0,1,3.413,1.367,5.555,5.555,0,0,1,1.245,3.877v1.152h-6.729a2.622,2.622,0,0,0,.825,1.66,2.5,2.5,0,0,0,1.743.625,3.046,3.046,0,0,0,2.549-1.182l1.387,1.553a4.237,4.237,0,0,1-1.719,1.4A5.639,5.639,0,0,1-45.361,24.2Zm-.322-8.682a1.764,1.764,0,0,0-1.362.569,2.946,2.946,0,0,0-.669,1.628h3.926v-.226a2.1,2.1,0,0,0-.508-1.457A1.819,1.819,0,0,0-45.684,15.514ZM-36.436,24h-2.832V9h2.832Zm12.168.2a5.187,5.187,0,0,1-3.784-1.426,5.068,5.068,0,0,1-1.46-3.8V18.7a6.383,6.383,0,0,1,.615-2.847,4.515,4.515,0,0,1,1.743-1.934,4.893,4.893,0,0,1,2.573-.679,4.385,4.385,0,0,1,3.413,1.367,5.555,5.555,0,0,1,1.245,3.877v1.152H-26.65a2.622,2.622,0,0,0,.825,1.66,2.5,2.5,0,0,0,1.743.625,3.046,3.046,0,0,0,2.549-1.182l1.387,1.553a4.237,4.237,0,0,1-1.719,1.4A5.639,5.639,0,0,1-24.268,24.2Zm-.322-8.682a1.764,1.764,0,0,0-1.362.569,2.946,2.946,0,0,0-.669,1.628H-22.7v-.226a2.1,2.1,0,0,0-.508-1.457A1.819,1.819,0,0,0-24.59,15.514Zm8.867-2.08.088,1.221A3.689,3.689,0,0,1-12.6,13.238a3.066,3.066,0,0,1,2.5.986,4.6,4.6,0,0,1,.84,2.949V24H-12.08V17.242a1.831,1.831,0,0,0-.391-1.3,1.749,1.749,0,0,0-1.3-.405,1.942,1.942,0,0,0-1.787,1.016V24h-2.822V13.434Zm11.982-2.6v2.6h1.807V15.5H-3.74v5.273a1.259,1.259,0,0,0,.225.84,1.128,1.128,0,0,0,.859.254,4.5,4.5,0,0,0,.83-.068v2.139a5.81,5.81,0,0,1-1.709.254q-2.969,0-3.027-3V15.5H-8.105v-2.07h1.543v-2.6Zm2.646,7.783a6.266,6.266,0,0,1,.605-2.8,4.432,4.432,0,0,1,1.743-1.9A5.086,5.086,0,0,1,3.9,13.238a4.812,4.812,0,0,1,3.491,1.309A5.252,5.252,0,0,1,8.9,18.1l.02.723a5.523,5.523,0,0,1-1.357,3.9A4.718,4.718,0,0,1,3.916,24.2,4.742,4.742,0,0,1,.269,22.73a5.62,5.62,0,0,1-1.362-3.984Zm2.822.2a3.95,3.95,0,0,0,.566,2.3,1.868,1.868,0,0,0,1.621.8,1.873,1.873,0,0,0,1.6-.787,4.322,4.322,0,0,0,.576-2.518,3.91,3.91,0,0,0-.576-2.289A1.873,1.873,0,0,0,3.9,15.514a1.842,1.842,0,0,0-1.6.807A4.395,4.395,0,0,0,1.729,18.819ZM16.592,16.08A7.667,7.667,0,0,0,15.576,16a2.067,2.067,0,0,0-2.1,1.084V24H10.654V13.434H13.32l.078,1.26a2.615,2.615,0,0,1,2.354-1.455,2.957,2.957,0,0,1,.879.127Zm3.955-2.646.088,1.221a3.689,3.689,0,0,1,3.037-1.416,3.066,3.066,0,0,1,2.5.986,4.6,4.6,0,0,1,.84,2.949V24H24.189V17.242a1.831,1.831,0,0,0-.391-1.3,1.749,1.749,0,0,0-1.3-.405,1.942,1.942,0,0,0-1.787,1.016V24H17.891V13.434Zm8.164,5.186a6.266,6.266,0,0,1,.605-2.8,4.432,4.432,0,0,1,1.743-1.9,5.086,5.086,0,0,1,2.642-.674,4.812,4.812,0,0,1,3.491,1.309A5.252,5.252,0,0,1,38.7,18.1l.02.723a5.523,5.523,0,0,1-1.357,3.9,4.718,4.718,0,0,1-3.643,1.47,4.742,4.742,0,0,1-3.647-1.465,5.62,5.62,0,0,1-1.362-3.984Zm2.822.2a3.95,3.95,0,0,0,.566,2.3,2.035,2.035,0,0,0,3.223.01,4.322,4.322,0,0,0,.576-2.518,3.91,3.91,0,0,0-.576-2.289,1.873,1.873,0,0,0-1.621-.812,1.842,1.842,0,0,0-1.6.807A4.395,4.395,0,0,0,31.533,18.819ZM51.377,16.08A7.667,7.667,0,0,0,50.361,16a2.067,2.067,0,0,0-2.1,1.084V24H45.439V13.434h2.666l.078,1.26a2.615,2.615,0,0,1,2.354-1.455,2.957,2.957,0,0,1,.879.127ZM57.412,24.2a5.187,5.187,0,0,1-3.784-1.426,5.068,5.068,0,0,1-1.46-3.8V18.7a6.383,6.383,0,0,1,.615-2.847,4.515,4.515,0,0,1,1.743-1.934,4.893,4.893,0,0,1,2.573-.679,4.385,4.385,0,0,1,3.413,1.367,5.555,5.555,0,0,1,1.245,3.877v1.152H55.029a2.622,2.622,0,0,0,.825,1.66,2.5,2.5,0,0,0,1.743.625,3.046,3.046,0,0,0,2.549-1.182l1.387,1.553a4.237,4.237,0,0,1-1.719,1.4A5.639,5.639,0,0,1,57.412,24.2Zm-.322-8.682a1.764,1.764,0,0,0-1.362.569,2.946,2.946,0,0,0-.669,1.628h3.926v-.226a2.1,2.1,0,0,0-.508-1.457A1.819,1.819,0,0,0,57.09,15.514ZM69.482,24a3.134,3.134,0,0,1-.283-.947A3.415,3.415,0,0,1,66.533,24.2a3.752,3.752,0,0,1-2.573-.9,2.89,2.89,0,0,1-1.021-2.266,2.986,2.986,0,0,1,1.245-2.578,6.144,6.144,0,0,1,3.6-.908h1.3v-.605a1.741,1.741,0,0,0-.376-1.172,1.479,1.479,0,0,0-1.187-.439,1.682,1.682,0,0,0-1.118.342,1.161,1.161,0,0,0-.405.938H63.174a2.835,2.835,0,0,1,.566-1.7,3.744,3.744,0,0,1,1.6-1.226,5.837,5.837,0,0,1,2.324-.444,4.611,4.611,0,0,1,3.1.981,3.433,3.433,0,0,1,1.147,2.759v4.58a5.052,5.052,0,0,0,.42,2.275V24Zm-2.334-1.963a2.431,2.431,0,0,0,1.152-.278,1.828,1.828,0,0,0,.781-.747V19.2H68.027q-2.119,0-2.256,1.465l-.01.166a1.13,1.13,0,0,0,.371.869A1.441,1.441,0,0,0,67.148,22.037ZM77.061,24H74.229V9h2.832Z" transform="translate(796.541 25450.537)"/>
    <path id="Trazado_233384" data-name="Trazado 233384" d="M-49.36-4.736a5.031,5.031,0,0,1-1.694,3.613A5.951,5.951,0,0,1-55.083.2a5.351,5.351,0,0,1-4.3-1.841A7.548,7.548,0,0,1-60.952-6.7v-.869a8.523,8.523,0,0,1,.723-3.613,5.415,5.415,0,0,1,2.065-2.4,5.786,5.786,0,0,1,3.12-.835A5.8,5.8,0,0,1-51.079-13.1a5.407,5.407,0,0,1,1.738,3.7h-2.93a2.97,2.97,0,0,0-.767-2,2.839,2.839,0,0,0-2.007-.62,2.489,2.489,0,0,0-2.192,1.05,5.883,5.883,0,0,0-.747,3.257v1.074a6.3,6.3,0,0,0,.7,3.369,2.443,2.443,0,0,0,2.2,1.064,2.892,2.892,0,0,0,2.026-.62,2.8,2.8,0,0,0,.767-1.919Zm1.885,3.35a1.421,1.421,0,0,1,.454-1.094,1.611,1.611,0,0,1,1.138-.42,1.624,1.624,0,0,1,1.147.42,1.421,1.421,0,0,1,.454,1.094,1.4,1.4,0,0,1-.449,1.079,1.631,1.631,0,0,1-1.152.415,1.618,1.618,0,0,1-1.143-.415A1.4,1.4,0,0,1-47.476-1.387Zm22.51-5.4a8.584,8.584,0,0,1-.742,3.682A5.589,5.589,0,0,1-27.832-.664,5.875,5.875,0,0,1-31,.2a5.915,5.915,0,0,1-3.154-.85A5.644,5.644,0,0,1-36.3-3.081a8.338,8.338,0,0,1-.771-3.628v-.7a8.538,8.538,0,0,1,.757-3.7A5.635,5.635,0,0,1-34.18-13.56a5.883,5.883,0,0,1,3.159-.854,5.883,5.883,0,0,1,3.159.854,5.635,5.635,0,0,1,2.139,2.451,8.514,8.514,0,0,1,.757,3.687Zm-2.969-.645a5.984,5.984,0,0,0-.8-3.4,2.61,2.61,0,0,0-2.285-1.162A2.611,2.611,0,0,0-33.3-10.845a5.915,5.915,0,0,0-.811,3.364v.693a6.058,6.058,0,0,0,.8,3.379,2.6,2.6,0,0,0,2.3,1.2,2.579,2.579,0,0,0,2.266-1.157,6.023,6.023,0,0,0,.8-3.374ZM-13.5-5.186a6.4,6.4,0,0,1-1.084,3.96A3.591,3.591,0,0,1-17.612.2a3.3,3.3,0,0,1-2.744-1.318L-20.483,0h-2.539V-15H-20.2v5.381a3.214,3.214,0,0,1,2.568-1.143A3.62,3.62,0,0,1-14.6-9.341a6.408,6.408,0,0,1,1.1,4Zm-2.822-.205a4.2,4.2,0,0,0-.508-2.339,1.717,1.717,0,0,0-1.514-.737,1.862,1.862,0,0,0-1.855,1.1v4.17A1.887,1.887,0,0,0-18.325-2.08a1.742,1.742,0,0,0,1.8-1.348A6.952,6.952,0,0,0-16.323-5.391Zm7.549-5.176V.576A3.78,3.78,0,0,1-9.7,3.3a3.526,3.526,0,0,1-2.676.972,5.738,5.738,0,0,1-1.4-.166V1.865a5.3,5.3,0,0,0,.889.088q1.279,0,1.279-1.357V-10.566ZM-11.831-13.3a1.39,1.39,0,0,1,.425-1.045,1.6,1.6,0,0,1,1.157-.41,1.6,1.6,0,0,1,1.157.41A1.39,1.39,0,0,1-8.667-13.3,1.386,1.386,0,0,1-9.1-12.246a1.6,1.6,0,0,1-1.147.41,1.6,1.6,0,0,1-1.147-.41A1.386,1.386,0,0,1-11.831-13.3ZM-1.7.2A5.187,5.187,0,0,1-5.488-1.23a5.068,5.068,0,0,1-1.46-3.8V-5.3a6.383,6.383,0,0,1,.615-2.847A4.515,4.515,0,0,1-4.59-10.083a4.893,4.893,0,0,1,2.573-.679A4.385,4.385,0,0,1,1.4-9.395,5.555,5.555,0,0,1,2.642-5.518v1.152H-4.087a2.622,2.622,0,0,0,.825,1.66,2.5,2.5,0,0,0,1.743.625A3.046,3.046,0,0,0,1.03-3.262L2.417-1.709A4.237,4.237,0,0,1,.7-.308,5.639,5.639,0,0,1-1.7.2Zm-.322-8.682a1.764,1.764,0,0,0-1.362.569,2.946,2.946,0,0,0-.669,1.628H-.132v-.226A2.1,2.1,0,0,0-.64-7.971,1.819,1.819,0,0,0-2.026-8.486Zm9.648-4.678v2.6H9.429V-8.5H7.622v5.273a1.259,1.259,0,0,0,.225.84,1.128,1.128,0,0,0,.859.254,4.5,4.5,0,0,0,.83-.068V-.059A5.81,5.81,0,0,1,7.827.2Q4.858.2,4.8-2.8V-8.5H3.257v-2.07H4.8v-2.6ZM13.979,0H11.147V-10.566h2.832Zm-3-13.3a1.39,1.39,0,0,1,.425-1.045,1.6,1.6,0,0,1,1.157-.41,1.6,1.6,0,0,1,1.152.41,1.382,1.382,0,0,1,.43,1.045,1.386,1.386,0,0,1-.435,1.055,1.6,1.6,0,0,1-1.147.41,1.6,1.6,0,0,1-1.147-.41A1.386,1.386,0,0,1,10.981-13.3Zm9.277,9.854,1.963-7.119h2.949L21.606,0h-2.7L15.347-10.566H18.3Zm5.566-1.934a6.266,6.266,0,0,1,.605-2.8,4.432,4.432,0,0,1,1.743-1.9,5.086,5.086,0,0,1,2.642-.674,4.812,4.812,0,0,1,3.491,1.309A5.252,5.252,0,0,1,35.815-5.9l.02.723a5.523,5.523,0,0,1-1.357,3.9A4.718,4.718,0,0,1,30.835.2,4.742,4.742,0,0,1,27.188-1.27a5.62,5.62,0,0,1-1.362-3.984Zm2.822.2a3.95,3.95,0,0,0,.566,2.3,1.868,1.868,0,0,0,1.621.8,1.873,1.873,0,0,0,1.6-.787,4.322,4.322,0,0,0,.576-2.518,3.91,3.91,0,0,0-.576-2.289,1.873,1.873,0,0,0-1.621-.812,1.842,1.842,0,0,0-1.6.807A4.395,4.395,0,0,0,28.647-5.181ZM43.3-2.92a.909.909,0,0,0-.513-.815,5.824,5.824,0,0,0-1.646-.532q-3.77-.791-3.77-3.2a2.9,2.9,0,0,1,1.167-2.349,4.708,4.708,0,0,1,3.052-.942,5.067,5.067,0,0,1,3.218.947,2.985,2.985,0,0,1,1.206,2.461H43.188a1.366,1.366,0,0,0-.391-1,1.653,1.653,0,0,0-1.221-.4,1.689,1.689,0,0,0-1.1.322,1.017,1.017,0,0,0-.391.82.87.87,0,0,0,.444.757,4.571,4.571,0,0,0,1.5.5,12.244,12.244,0,0,1,1.777.474A2.92,2.92,0,0,1,46.04-3.037,2.756,2.756,0,0,1,44.8-.7,5.35,5.35,0,0,1,41.6.2a5.588,5.588,0,0,1-2.358-.474,3.957,3.957,0,0,1-1.616-1.3,3.018,3.018,0,0,1-.586-1.782h2.676a1.473,1.473,0,0,0,.557,1.152,2.208,2.208,0,0,0,1.387.4,2.044,2.044,0,0,0,1.226-.308A.957.957,0,0,0,43.3-2.92ZM56.782-3.994l1.953-6.572h3.027L57.515,1.641,57.28,2.2a3.221,3.221,0,0,1-3.125,2.07,4.441,4.441,0,0,1-1.25-.186V1.943l.43.01a2.322,2.322,0,0,0,1.2-.244A1.6,1.6,0,0,0,55.151.9l.332-.869-3.7-10.6h3.037ZM-40.5,16.08A7.667,7.667,0,0,0-41.514,16a2.067,2.067,0,0,0-2.1,1.084V24h-2.822V13.434h2.666l.078,1.26a2.615,2.615,0,0,1,2.354-1.455,2.957,2.957,0,0,1,.879.127Zm6.035,8.115a5.187,5.187,0,0,1-3.784-1.426,5.068,5.068,0,0,1-1.46-3.8V18.7a6.383,6.383,0,0,1,.615-2.847,4.515,4.515,0,0,1,1.743-1.934,4.893,4.893,0,0,1,2.573-.679,4.385,4.385,0,0,1,3.413,1.367,5.555,5.555,0,0,1,1.245,3.877v1.152h-6.729a2.622,2.622,0,0,0,.825,1.66,2.5,2.5,0,0,0,1.743.625,3.046,3.046,0,0,0,2.549-1.182l1.387,1.553a4.237,4.237,0,0,1-1.719,1.4A5.639,5.639,0,0,1-34.463,24.2Zm-.322-8.682a1.764,1.764,0,0,0-1.362.569,2.946,2.946,0,0,0-.669,1.628h3.926v-.226a2.1,2.1,0,0,0-.508-1.457A1.819,1.819,0,0,0-34.785,15.514Zm11.992,5.566a.909.909,0,0,0-.513-.815,5.824,5.824,0,0,0-1.646-.532q-3.77-.791-3.77-3.2a2.9,2.9,0,0,1,1.167-2.349,4.708,4.708,0,0,1,3.052-.942,5.067,5.067,0,0,1,3.218.947,2.985,2.985,0,0,1,1.206,2.461H-22.9a1.366,1.366,0,0,0-.391-1,1.653,1.653,0,0,0-1.221-.4,1.689,1.689,0,0,0-1.1.322,1.017,1.017,0,0,0-.391.82.87.87,0,0,0,.444.757,4.571,4.571,0,0,0,1.5.5,12.244,12.244,0,0,1,1.777.474,2.92,2.92,0,0,1,2.236,2.842,2.756,2.756,0,0,1-1.24,2.339,5.35,5.35,0,0,1-3.2.894,5.588,5.588,0,0,1-2.358-.474,3.957,3.957,0,0,1-1.616-1.3,3.018,3.018,0,0,1-.586-1.782h2.676a1.473,1.473,0,0,0,.557,1.152,2.208,2.208,0,0,0,1.387.4,2.044,2.044,0,0,0,1.226-.308A.957.957,0,0,0-22.793,21.08ZM-11.9,22.926a3.539,3.539,0,0,1-2.891,1.27,3.338,3.338,0,0,1-2.593-.977,4.169,4.169,0,0,1-.913-2.861V13.434h2.822v6.834q0,1.652,1.5,1.652a2.038,2.038,0,0,0,1.973-1V13.434H-9.17V24h-2.656ZM-4.062,24H-6.895V9h2.832Zm5.7-13.164v2.6H3.447V15.5H1.641v5.273a1.259,1.259,0,0,0,.225.84,1.128,1.128,0,0,0,.859.254,4.5,4.5,0,0,0,.83-.068v2.139a5.81,5.81,0,0,1-1.709.254q-2.969,0-3.027-3V15.5H-2.725v-2.07h1.543v-2.6ZM11.143,24a3.134,3.134,0,0,1-.283-.947A3.415,3.415,0,0,1,8.193,24.2a3.752,3.752,0,0,1-2.573-.9A2.89,2.89,0,0,1,4.6,21.031a2.986,2.986,0,0,1,1.245-2.578,6.144,6.144,0,0,1,3.6-.908h1.3v-.605a1.741,1.741,0,0,0-.376-1.172,1.479,1.479,0,0,0-1.187-.439,1.682,1.682,0,0,0-1.118.342,1.161,1.161,0,0,0-.405.938H4.834a2.835,2.835,0,0,1,.566-1.7A3.744,3.744,0,0,1,7,13.683a5.837,5.837,0,0,1,2.324-.444,4.611,4.611,0,0,1,3.1.981,3.433,3.433,0,0,1,1.147,2.759v4.58a5.052,5.052,0,0,0,.42,2.275V24ZM8.809,22.037a2.431,2.431,0,0,0,1.152-.278,1.828,1.828,0,0,0,.781-.747V19.2H9.688q-2.119,0-2.256,1.465l-.01.166a1.13,1.13,0,0,0,.371.869A1.441,1.441,0,0,0,8.809,22.037Zm6.494-3.4A6.368,6.368,0,0,1,16.411,14.7a3.6,3.6,0,0,1,3.032-1.465,3.236,3.236,0,0,1,2.549,1.152V9h2.832V24H22.275l-.137-1.123A3.321,3.321,0,0,1,19.424,24.2a3.587,3.587,0,0,1-2.993-1.47A6.573,6.573,0,0,1,15.3,18.639Zm2.822.21a4.171,4.171,0,0,0,.518,2.279,1.686,1.686,0,0,0,1.5.792,1.888,1.888,0,0,0,1.846-1.105V16.638a1.861,1.861,0,0,0-1.826-1.105Q18.125,15.533,18.125,18.849Zm8.447-.23a6.266,6.266,0,0,1,.605-2.8,4.432,4.432,0,0,1,1.743-1.9,5.086,5.086,0,0,1,2.642-.674,4.812,4.812,0,0,1,3.491,1.309A5.252,5.252,0,0,1,36.563,18.1l.02.723a5.523,5.523,0,0,1-1.357,3.9,4.718,4.718,0,0,1-3.643,1.47,4.742,4.742,0,0,1-3.647-1.465,5.62,5.62,0,0,1-1.362-3.984Zm2.822.2a3.95,3.95,0,0,0,.566,2.3,2.035,2.035,0,0,0,3.223.01,4.322,4.322,0,0,0,.576-2.518,3.91,3.91,0,0,0-.576-2.289,1.873,1.873,0,0,0-1.621-.812,1.842,1.842,0,0,0-1.6.807A4.395,4.395,0,0,0,29.395,18.819ZM44.043,21.08a.909.909,0,0,0-.513-.815,5.824,5.824,0,0,0-1.646-.532q-3.77-.791-3.77-3.2a2.9,2.9,0,0,1,1.167-2.349,4.708,4.708,0,0,1,3.052-.942,5.067,5.067,0,0,1,3.218.947,2.985,2.985,0,0,1,1.206,2.461H43.936a1.366,1.366,0,0,0-.391-1,1.653,1.653,0,0,0-1.221-.4,1.689,1.689,0,0,0-1.1.322,1.017,1.017,0,0,0-.391.82.87.87,0,0,0,.444.757,4.571,4.571,0,0,0,1.5.5,12.244,12.244,0,0,1,1.777.474,2.92,2.92,0,0,1,2.236,2.842,2.756,2.756,0,0,1-1.24,2.339,5.35,5.35,0,0,1-3.2.894,5.588,5.588,0,0,1-2.358-.474,3.957,3.957,0,0,1-1.616-1.3,3.018,3.018,0,0,1-.586-1.782h2.676a1.473,1.473,0,0,0,.557,1.152,2.208,2.208,0,0,0,1.387.4,2.044,2.044,0,0,0,1.226-.308A.957.957,0,0,0,44.043,21.08ZM-40.928,48.2a5.187,5.187,0,0,1-3.784-1.426,5.068,5.068,0,0,1-1.46-3.8V42.7a6.383,6.383,0,0,1,.615-2.847,4.515,4.515,0,0,1,1.743-1.934,4.893,4.893,0,0,1,2.573-.679,4.385,4.385,0,0,1,3.413,1.367,5.555,5.555,0,0,1,1.245,3.877v1.152h-6.729a2.622,2.622,0,0,0,.825,1.66,2.494,2.494,0,0,0,1.743.625,3.046,3.046,0,0,0,2.549-1.182l1.387,1.553a4.237,4.237,0,0,1-1.719,1.4A5.639,5.639,0,0,1-40.928,48.2Zm-.322-8.682a1.764,1.764,0,0,0-1.362.569,2.946,2.946,0,0,0-.669,1.628h3.926v-.226a2.1,2.1,0,0,0-.508-1.457A1.819,1.819,0,0,0-41.25,39.514Zm11.992,5.566a.909.909,0,0,0-.513-.815,5.824,5.824,0,0,0-1.646-.532q-3.77-.791-3.77-3.2a2.9,2.9,0,0,1,1.167-2.349,4.708,4.708,0,0,1,3.052-.942,5.067,5.067,0,0,1,3.218.947,2.985,2.985,0,0,1,1.206,2.461h-2.822a1.366,1.366,0,0,0-.391-1,1.653,1.653,0,0,0-1.221-.4,1.689,1.689,0,0,0-1.1.322,1.017,1.017,0,0,0-.391.82.87.87,0,0,0,.444.757,4.571,4.571,0,0,0,1.5.5,12.244,12.244,0,0,1,1.777.474,2.92,2.92,0,0,1,2.236,2.842,2.756,2.756,0,0,1-1.24,2.339,5.35,5.35,0,0,1-3.2.894,5.588,5.588,0,0,1-2.358-.474,3.957,3.957,0,0,1-1.616-1.3,3.018,3.018,0,0,1-.586-1.782h2.676a1.473,1.473,0,0,0,.557,1.152,2.208,2.208,0,0,0,1.387.4,2.044,2.044,0,0,0,1.226-.308A.957.957,0,0,0-29.258,45.08Zm14.072-2.266a6.337,6.337,0,0,1-1.108,3.911,3.554,3.554,0,0,1-2.993,1.47,3.292,3.292,0,0,1-2.588-1.113v4.98H-24.7V37.434h2.617l.1,1.035a3.317,3.317,0,0,1,2.676-1.23,3.578,3.578,0,0,1,3.037,1.445,6.509,6.509,0,0,1,1.084,3.984Zm-2.822-.205a4.159,4.159,0,0,0-.522-2.275,1.7,1.7,0,0,0-1.519-.8,1.848,1.848,0,0,0-1.826,1.016v4.326a1.879,1.879,0,0,0,1.846,1.045Q-18.008,45.92-18.008,42.609ZM-8.574,48.2a5.187,5.187,0,0,1-3.784-1.426,5.068,5.068,0,0,1-1.46-3.8V42.7a6.383,6.383,0,0,1,.615-2.847,4.515,4.515,0,0,1,1.743-1.934,4.893,4.893,0,0,1,2.573-.679,4.385,4.385,0,0,1,3.413,1.367,5.555,5.555,0,0,1,1.245,3.877v1.152h-6.729a2.622,2.622,0,0,0,.825,1.66,2.494,2.494,0,0,0,1.743.625A3.046,3.046,0,0,0-5.84,44.738l1.387,1.553a4.237,4.237,0,0,1-1.719,1.4A5.639,5.639,0,0,1-8.574,48.2ZM-8.9,39.514a1.764,1.764,0,0,0-1.362.569,2.946,2.946,0,0,0-.669,1.628H-7v-.226a2.1,2.1,0,0,0-.508-1.457A1.819,1.819,0,0,0-8.9,39.514Zm12.207.566A7.667,7.667,0,0,0,2.295,40,2.067,2.067,0,0,0,.2,41.086V48H-2.627V37.434H.039l.078,1.26a2.615,2.615,0,0,1,2.354-1.455,2.957,2.957,0,0,1,.879.127ZM10.5,48a3.134,3.134,0,0,1-.283-.947A3.415,3.415,0,0,1,7.549,48.2a3.752,3.752,0,0,1-2.573-.9,2.89,2.89,0,0,1-1.021-2.266A2.986,2.986,0,0,1,5.2,42.453a6.144,6.144,0,0,1,3.6-.908h1.3v-.605a1.741,1.741,0,0,0-.376-1.172,1.479,1.479,0,0,0-1.187-.439,1.682,1.682,0,0,0-1.118.342,1.161,1.161,0,0,0-.405.938H4.189a2.835,2.835,0,0,1,.566-1.7,3.744,3.744,0,0,1,1.6-1.226,5.837,5.837,0,0,1,2.324-.444,4.611,4.611,0,0,1,3.1.981,3.433,3.433,0,0,1,1.147,2.759v4.58a5.052,5.052,0,0,0,.42,2.275V48ZM8.164,46.037a2.431,2.431,0,0,0,1.152-.278,1.828,1.828,0,0,0,.781-.747V43.2H9.043q-2.119,0-2.256,1.465l-.01.166a1.13,1.13,0,0,0,.371.869A1.441,1.441,0,0,0,8.164,46.037Zm6.494-3.4A6.368,6.368,0,0,1,15.767,38.7,3.6,3.6,0,0,1,18.8,37.238a3.236,3.236,0,0,1,2.549,1.152V33H24.18V48H21.631l-.137-1.123A3.321,3.321,0,0,1,18.779,48.2a3.587,3.587,0,0,1-2.993-1.47A6.573,6.573,0,0,1,14.658,42.639Zm2.822.21A4.171,4.171,0,0,0,18,45.128a1.686,1.686,0,0,0,1.5.792,1.888,1.888,0,0,0,1.846-1.105V40.638a1.861,1.861,0,0,0-1.826-1.105Q17.48,39.533,17.48,42.849Zm8.447-.23a6.266,6.266,0,0,1,.605-2.8,4.432,4.432,0,0,1,1.743-1.9,5.086,5.086,0,0,1,2.642-.674,4.812,4.812,0,0,1,3.491,1.309A5.252,5.252,0,0,1,35.918,42.1l.02.723a5.523,5.523,0,0,1-1.357,3.9,4.718,4.718,0,0,1-3.643,1.47A4.742,4.742,0,0,1,27.29,46.73a5.62,5.62,0,0,1-1.362-3.984Zm2.822.2a3.95,3.95,0,0,0,.566,2.3,2.035,2.035,0,0,0,3.223.01,4.322,4.322,0,0,0,.576-2.518,3.91,3.91,0,0,0-.576-2.289,1.873,1.873,0,0,0-1.621-.812,1.842,1.842,0,0,0-1.6.807A4.395,4.395,0,0,0,28.75,42.819ZM43.4,45.08a.909.909,0,0,0-.513-.815,5.824,5.824,0,0,0-1.646-.532q-3.77-.791-3.77-3.2a2.9,2.9,0,0,1,1.167-2.349,4.708,4.708,0,0,1,3.052-.942,5.067,5.067,0,0,1,3.218.947,2.985,2.985,0,0,1,1.206,2.461H43.291a1.366,1.366,0,0,0-.391-1,1.653,1.653,0,0,0-1.221-.4,1.689,1.689,0,0,0-1.1.322,1.017,1.017,0,0,0-.391.82.87.87,0,0,0,.444.757,4.571,4.571,0,0,0,1.5.5,12.244,12.244,0,0,1,1.777.474,2.92,2.92,0,0,1,2.236,2.842A2.756,2.756,0,0,1,44.9,47.3a5.35,5.35,0,0,1-3.2.894,5.588,5.588,0,0,1-2.358-.474,3.957,3.957,0,0,1-1.616-1.3,3.018,3.018,0,0,1-.586-1.782h2.676a1.473,1.473,0,0,0,.557,1.152,2.208,2.208,0,0,0,1.387.4,2.044,2.044,0,0,0,1.226-.308A.957.957,0,0,0,43.4,45.08Z" transform="translate(1101.999 24991.15)"/>
    <path id="Trazado_233385" data-name="Trazado 233385" d="M-54.512,0V-14.219h4.375a6.644,6.644,0,0,1,3.354.845,5.89,5.89,0,0,1,2.31,2.4,7.41,7.41,0,0,1,.83,3.54v.654a7.431,7.431,0,0,1-.815,3.525,5.84,5.84,0,0,1-2.3,2.393A6.694,6.694,0,0,1-50.107,0Zm2.93-11.846v9.492h1.416a3.181,3.181,0,0,0,2.627-1.123,5.075,5.075,0,0,0,.928-3.213v-.752a5.156,5.156,0,0,0-.9-3.286,3.171,3.171,0,0,0-2.627-1.118Zm8.838,10.459A1.421,1.421,0,0,1-42.29-2.48a1.611,1.611,0,0,1,1.138-.42A1.624,1.624,0,0,1-40-2.48a1.421,1.421,0,0,1,.454,1.094A1.4,1.4,0,0,1-40-.308a1.631,1.631,0,0,1-1.152.415,1.618,1.618,0,0,1-1.143-.415A1.4,1.4,0,0,1-42.744-1.387ZM-31.914,0V-14.219h4.375a6.644,6.644,0,0,1,3.354.845,5.89,5.89,0,0,1,2.31,2.4,7.41,7.41,0,0,1,.83,3.54v.654a7.431,7.431,0,0,1-.815,3.525,5.84,5.84,0,0,1-2.3,2.393A6.694,6.694,0,0,1-27.51,0Zm2.93-11.846v9.492h1.416a3.181,3.181,0,0,0,2.627-1.123,5.075,5.075,0,0,0,.928-3.213v-.752a5.156,5.156,0,0,0-.9-3.286,3.171,3.171,0,0,0-2.627-1.118ZM-16.123,0h-2.832V-10.566h2.832Zm-3-13.3a1.39,1.39,0,0,1,.425-1.045,1.6,1.6,0,0,1,1.157-.41,1.6,1.6,0,0,1,1.152.41,1.382,1.382,0,0,1,.43,1.045,1.386,1.386,0,0,1-.435,1.055,1.6,1.6,0,0,1-1.147.41,1.6,1.6,0,0,1-1.147-.41A1.386,1.386,0,0,1-19.121-13.3ZM-8.076-2.92a.909.909,0,0,0-.513-.815,5.824,5.824,0,0,0-1.646-.532Q-14-5.059-14-7.471a2.9,2.9,0,0,1,1.167-2.349,4.708,4.708,0,0,1,3.052-.942,5.067,5.067,0,0,1,3.218.947A2.985,2.985,0,0,1-5.361-7.354H-8.184a1.366,1.366,0,0,0-.391-1,1.653,1.653,0,0,0-1.221-.4,1.689,1.689,0,0,0-1.1.322,1.017,1.017,0,0,0-.391.82.87.87,0,0,0,.444.757,4.571,4.571,0,0,0,1.5.5,12.244,12.244,0,0,1,1.777.474A2.92,2.92,0,0,1-5.332-3.037,2.756,2.756,0,0,1-6.572-.7,5.35,5.35,0,0,1-9.775.2a5.588,5.588,0,0,1-2.358-.474,3.957,3.957,0,0,1-1.616-1.3,3.018,3.018,0,0,1-.586-1.782h2.676A1.473,1.473,0,0,0-11.1-2.207a2.208,2.208,0,0,0,1.387.4,2.044,2.044,0,0,0,1.226-.308A.957.957,0,0,0-8.076-2.92ZM1.348.2A5.187,5.187,0,0,1-2.437-1.23a5.068,5.068,0,0,1-1.46-3.8V-5.3a6.383,6.383,0,0,1,.615-2.847,4.515,4.515,0,0,1,1.743-1.934,4.893,4.893,0,0,1,2.573-.679A4.385,4.385,0,0,1,4.448-9.395,5.555,5.555,0,0,1,5.693-5.518v1.152H-1.035A2.622,2.622,0,0,0-.21-2.705a2.5,2.5,0,0,0,1.743.625A3.046,3.046,0,0,0,4.082-3.262L5.469-1.709A4.237,4.237,0,0,1,3.75-.308,5.639,5.639,0,0,1,1.348.2ZM1.025-8.486a1.764,1.764,0,0,0-1.362.569,2.946,2.946,0,0,0-.669,1.628H2.92v-.226a2.1,2.1,0,0,0-.508-1.457A1.819,1.819,0,0,0,1.025-8.486Zm8.867-2.08L9.98-9.346a3.689,3.689,0,0,1,3.037-1.416,3.066,3.066,0,0,1,2.5.986,4.6,4.6,0,0,1,.84,2.949V0H13.535V-6.758a1.831,1.831,0,0,0-.391-1.3,1.749,1.749,0,0,0-1.3-.405,1.942,1.942,0,0,0-1.787,1.016V0H7.236V-10.566ZM15.5-14.873a2.733,2.733,0,0,1-.645,1.851,2,2,0,0,1-1.572.747,2.385,2.385,0,0,1-.659-.083,4.423,4.423,0,0,1-.8-.356,4.293,4.293,0,0,0-.732-.337,1.79,1.79,0,0,0-.488-.063.783.783,0,0,0-.581.244.949.949,0,0,0-.239.693l-1.641-.1a2.775,2.775,0,0,1,.64-1.846,1.973,1.973,0,0,1,1.567-.762,2.018,2.018,0,0,1,.552.073,6.076,6.076,0,0,1,.845.356,5.49,5.49,0,0,0,.811.342,1.85,1.85,0,0,0,.469.059.824.824,0,0,0,.591-.239.91.91,0,0,0,.249-.688Zm2.559,9.492a6.266,6.266,0,0,1,.605-2.8,4.432,4.432,0,0,1,1.743-1.9,5.086,5.086,0,0,1,2.642-.674,4.812,4.812,0,0,1,3.491,1.309A5.252,5.252,0,0,1,28.047-5.9l.02.723a5.523,5.523,0,0,1-1.357,3.9A4.718,4.718,0,0,1,23.066.2,4.742,4.742,0,0,1,19.419-1.27a5.62,5.62,0,0,1-1.362-3.984Zm2.822.2a3.95,3.95,0,0,0,.566,2.3,1.868,1.868,0,0,0,1.621.8,1.873,1.873,0,0,0,1.6-.787,4.322,4.322,0,0,0,.576-2.518,3.91,3.91,0,0,0-.576-2.289,1.873,1.873,0,0,0-1.621-.812,1.842,1.842,0,0,0-1.6.807A4.395,4.395,0,0,0,20.879-5.181Zm13.467-.181A6.368,6.368,0,0,1,35.454-9.3a3.6,3.6,0,0,1,3.032-1.465,3.236,3.236,0,0,1,2.549,1.152V-15h2.832V0H41.318l-.137-1.123A3.321,3.321,0,0,1,38.467.2a3.587,3.587,0,0,1-2.993-1.47A6.573,6.573,0,0,1,34.346-5.361Zm2.822.21a4.171,4.171,0,0,0,.518,2.279,1.686,1.686,0,0,0,1.5.792,1.888,1.888,0,0,0,1.846-1.105V-7.362a1.861,1.861,0,0,0-1.826-1.105Q37.168-8.467,37.168-5.151ZM50.918.2A5.187,5.187,0,0,1,47.134-1.23a5.068,5.068,0,0,1-1.46-3.8V-5.3a6.383,6.383,0,0,1,.615-2.847,4.515,4.515,0,0,1,1.743-1.934,4.893,4.893,0,0,1,2.573-.679,4.385,4.385,0,0,1,3.413,1.367,5.555,5.555,0,0,1,1.245,3.877v1.152H48.535a2.622,2.622,0,0,0,.825,1.66A2.5,2.5,0,0,0,51.1-2.08a3.046,3.046,0,0,0,2.549-1.182l1.387,1.553a4.237,4.237,0,0,1-1.719,1.4A5.639,5.639,0,0,1,50.918.2ZM50.6-8.486a1.764,1.764,0,0,0-1.362.569,2.946,2.946,0,0,0-.669,1.628H52.49v-.226a2.1,2.1,0,0,0-.508-1.457A1.819,1.819,0,0,0,50.6-8.486ZM-47.383,24h-2.832V9h2.832Zm8.447,0a3.134,3.134,0,0,1-.283-.947A3.415,3.415,0,0,1-41.885,24.2a3.752,3.752,0,0,1-2.573-.9,2.89,2.89,0,0,1-1.021-2.266,2.986,2.986,0,0,1,1.245-2.578,6.144,6.144,0,0,1,3.6-.908h1.3v-.605a1.741,1.741,0,0,0-.376-1.172,1.479,1.479,0,0,0-1.187-.439,1.682,1.682,0,0,0-1.118.342,1.161,1.161,0,0,0-.405.938h-2.822a2.835,2.835,0,0,1,.566-1.7,3.744,3.744,0,0,1,1.6-1.226,5.837,5.837,0,0,1,2.324-.444,4.611,4.611,0,0,1,3.1.981A3.433,3.433,0,0,1-36.5,16.979v4.58a5.052,5.052,0,0,0,.42,2.275V24Zm-2.334-1.963a2.431,2.431,0,0,0,1.152-.278,1.828,1.828,0,0,0,.781-.747V19.2h-1.055q-2.119,0-2.256,1.465l-.01.166a1.13,1.13,0,0,0,.371.869A1.441,1.441,0,0,0-41.27,22.037ZM-23.232,24a3.134,3.134,0,0,1-.283-.947A3.415,3.415,0,0,1-26.182,24.2a3.752,3.752,0,0,1-2.573-.9,2.89,2.89,0,0,1-1.021-2.266,2.986,2.986,0,0,1,1.245-2.578,6.144,6.144,0,0,1,3.6-.908h1.3v-.605a1.741,1.741,0,0,0-.376-1.172,1.479,1.479,0,0,0-1.187-.439,1.682,1.682,0,0,0-1.118.342,1.161,1.161,0,0,0-.405.938h-2.822a2.835,2.835,0,0,1,.566-1.7,3.744,3.744,0,0,1,1.6-1.226,5.837,5.837,0,0,1,2.324-.444,4.611,4.611,0,0,1,3.1.981A3.433,3.433,0,0,1-20.8,16.979v4.58a5.052,5.052,0,0,0,.42,2.275V24Zm-2.334-1.963a2.431,2.431,0,0,0,1.152-.278,1.828,1.828,0,0,0,.781-.747V19.2h-1.055q-2.119,0-2.256,1.465l-.01.166a1.13,1.13,0,0,0,.371.869A1.441,1.441,0,0,0-25.566,22.037Zm11.328-.117a1.851,1.851,0,0,0,1.27-.43,1.506,1.506,0,0,0,.508-1.143h2.646a3.62,3.62,0,0,1-.586,1.968A3.866,3.866,0,0,1-11.978,23.7a4.936,4.936,0,0,1-2.212.493,4.587,4.587,0,0,1-3.574-1.44,5.7,5.7,0,0,1-1.309-3.979V18.59a5.635,5.635,0,0,1,1.3-3.9,4.534,4.534,0,0,1,3.564-1.455,4.444,4.444,0,0,1,3.179,1.128,3.994,3.994,0,0,1,1.216,3h-2.646a1.939,1.939,0,0,0-.508-1.34,1.693,1.693,0,0,0-1.289-.515,1.7,1.7,0,0,0-1.489.719,4.166,4.166,0,0,0-.5,2.333v.293a4.219,4.219,0,0,0,.5,2.347A1.721,1.721,0,0,0-14.238,21.92Zm9.414-11.084v2.6h1.807V15.5H-4.824v5.273a1.259,1.259,0,0,0,.225.84,1.128,1.128,0,0,0,.859.254,4.5,4.5,0,0,0,.83-.068v2.139a5.81,5.81,0,0,1-1.709.254q-2.969,0-3.027-3V15.5H-9.189v-2.07h1.543v-2.6ZM1.533,24H-1.3V13.434H1.533Zm-3-13.3A1.39,1.39,0,0,1-1.04,9.654a1.6,1.6,0,0,1,1.157-.41,1.6,1.6,0,0,1,1.152.41A1.382,1.382,0,0,1,1.7,10.7a1.386,1.386,0,0,1-.435,1.055,1.6,1.6,0,0,1-1.147.41,1.6,1.6,0,0,1-1.147-.41A1.386,1.386,0,0,1-1.465,10.7Zm9.277,9.854,1.963-7.119h2.949L9.16,24h-2.7L2.9,13.434H5.85ZM16.943,24H14.111V13.434h2.832Zm-3-13.3a1.39,1.39,0,0,1,.425-1.045,1.6,1.6,0,0,1,1.157-.41,1.6,1.6,0,0,1,1.152.41,1.491,1.491,0,0,1,0,2.1,1.81,1.81,0,0,1-2.295,0A1.386,1.386,0,0,1,13.945,10.7Zm4.883,7.939A6.368,6.368,0,0,1,19.937,14.7a3.6,3.6,0,0,1,3.032-1.465,3.236,3.236,0,0,1,2.549,1.152V9H28.35V24H25.8l-.137-1.123A3.321,3.321,0,0,1,22.949,24.2a3.587,3.587,0,0,1-2.993-1.47A6.573,6.573,0,0,1,18.828,18.639Zm2.822.21a4.171,4.171,0,0,0,.518,2.279,1.686,1.686,0,0,0,1.5.792,1.888,1.888,0,0,0,1.846-1.105V16.638a1.861,1.861,0,0,0-1.826-1.105Q21.65,15.533,21.65,18.849ZM36.66,24a3.134,3.134,0,0,1-.283-.947A3.415,3.415,0,0,1,33.711,24.2a3.752,3.752,0,0,1-2.573-.9,2.89,2.89,0,0,1-1.021-2.266,2.986,2.986,0,0,1,1.245-2.578,6.144,6.144,0,0,1,3.6-.908h1.3v-.605a1.741,1.741,0,0,0-.376-1.172,1.479,1.479,0,0,0-1.187-.439,1.682,1.682,0,0,0-1.118.342,1.161,1.161,0,0,0-.405.938H30.352a2.835,2.835,0,0,1,.566-1.7,3.744,3.744,0,0,1,1.6-1.226,5.837,5.837,0,0,1,2.324-.444,4.611,4.611,0,0,1,3.1.981,3.433,3.433,0,0,1,1.147,2.759v4.58a5.052,5.052,0,0,0,.42,2.275V24Zm-2.334-1.963a2.431,2.431,0,0,0,1.152-.278,1.828,1.828,0,0,0,.781-.747V19.2H35.205q-2.119,0-2.256,1.465l-.01.166a1.13,1.13,0,0,0,.371.869A1.441,1.441,0,0,0,34.326,22.037Zm6.494-3.4A6.368,6.368,0,0,1,41.929,14.7a3.6,3.6,0,0,1,3.032-1.465,3.236,3.236,0,0,1,2.549,1.152V9h2.832V24H47.793l-.137-1.123A3.321,3.321,0,0,1,44.941,24.2a3.587,3.587,0,0,1-2.993-1.47A6.573,6.573,0,0,1,40.82,18.639Zm2.822.21a4.171,4.171,0,0,0,.518,2.279,1.686,1.686,0,0,0,1.5.792,1.888,1.888,0,0,0,1.846-1.105V16.638a1.861,1.861,0,0,0-1.826-1.105Q43.643,15.533,43.643,18.849Z" transform="translate(1100.771 25227.045)"/>
    <g id="Grupo_238292" data-name="Grupo 238292" transform="translate(625.599 25439.156)">
      <line id="Lnea_558" data-name="Lnea 558" x1="44.102" transform="translate(0 19.003)" fill="none" stroke="#d100c9" stroke-linecap="round" stroke-linejoin="round" stroke-width="3"/>
      <path id="Trazado_200992" data-name="Trazado 200992" d="M302.33,434.611l19,19-19,19" transform="translate(-277.231 -434.611)" fill="none" stroke="#d100c9" stroke-linecap="round" stroke-linejoin="round" stroke-width="3"/>
    </g>
    <g id="Grupo_238293" data-name="Grupo 238293" transform="translate(928.551 24992.207)">
      <line id="Lnea_559" data-name="Lnea 559" x1="44.102" transform="translate(0 19.003)" fill="none" stroke="#d100c9" stroke-linecap="round" stroke-linejoin="round" stroke-width="3"/>
      <path id="Trazado_200993" data-name="Trazado 200993" d="M492.867,153.509l19,19-19,19" transform="translate(-467.768 -153.509)" fill="none" stroke="#d100c9" stroke-linecap="round" stroke-linejoin="round" stroke-width="3"/>
    </g>
    <g id="Grupo_238294" data-name="Grupo 238294" transform="translate(625.599 24992.207)">
      <line id="Lnea_560" data-name="Lnea 560" x1="44.102" transform="translate(0 19.003)" fill="none" stroke="#d100c9" stroke-linecap="round" stroke-linejoin="round" stroke-width="3"/>
      <path id="Trazado_200994" data-name="Trazado 200994" d="M302.33,153.509l19,19-19,19" transform="translate(-277.231 -153.509)" fill="none" stroke="#d100c9" stroke-linecap="round" stroke-linejoin="round" stroke-width="3"/>
    </g>
    <g id="Grupo_238295" data-name="Grupo 238295" transform="translate(625.599 25215.662)">
      <line id="Lnea_561" data-name="Lnea 561" x2="44.102" transform="translate(0 19.003)" fill="none" stroke="#d100c9" stroke-linecap="round" stroke-linejoin="round" stroke-width="3"/>
      <path id="Trazado_200995" data-name="Trazado 200995" d="M305.548,332.055l-19-19,19-19" transform="translate(-286.545 -294.048)" fill="none" stroke="#d100c9" stroke-linecap="round" stroke-linejoin="round" stroke-width="3"/>
    </g>
    <g id="Grupo_238296" data-name="Grupo 238296" transform="translate(928.551 25215.662)">
      <line id="Lnea_562" data-name="Lnea 562" x2="44.102" transform="translate(0 19.003)" fill="none" stroke="#d100c9" stroke-linecap="round" stroke-linejoin="round" stroke-width="3"/>
      <path id="Trazado_200996" data-name="Trazado 200996" d="M496.085,332.055l-19-19,19-19" transform="translate(-477.081 -294.048)" fill="none" stroke="#d100c9" stroke-linecap="round" stroke-linejoin="round" stroke-width="3"/>
    </g>
    <g id="Grupo_238297" data-name="Grupo 238297" transform="translate(1084.602 25100.869)">
      <line id="Lnea_563" data-name="Lnea 563" y1="44.102" transform="translate(19.003)" fill="none" stroke="#d100c9" stroke-linecap="round" stroke-linejoin="round" stroke-width="3"/>
      <path id="Trazado_200997" data-name="Trazado 200997" d="M613.233,237.636l-19,19-19-19" transform="translate(-575.227 -212.537)" fill="none" stroke="#d100c9" stroke-linecap="round" stroke-linejoin="round" stroke-width="3"/>
    </g>
    <g id="Grupo_238298" data-name="Grupo 238298" transform="translate(476.659 25324.361)">
      <line id="Lnea_564" data-name="Lnea 564" y1="44.102" transform="translate(19.003)" fill="none" stroke="#d100c9" stroke-linecap="round" stroke-linejoin="round" stroke-width="3"/>
      <path id="Trazado_200998" data-name="Trazado 200998" d="M230.878,378.2l-19,19-19-19" transform="translate(-192.872 -353.099)" fill="none" stroke="#d100c9" stroke-linecap="round" stroke-linejoin="round" stroke-width="3"/>
    </g>
    <path id="Trazado_200999" data-name="Trazado 200999" d="M454.519,165.461" transform="translate(438.158 24845.748)" fill="none" stroke="#d100c9" stroke-miterlimit="10" stroke-width="2"/>
  </g>
</svg>
