<svg xmlns="http://www.w3.org/2000/svg" width="234" height="126.244" viewBox="0 0 234 126.244">
  <g id="Grupo_238472" data-name="Grupo 238472" transform="translate(-230.757 -159.814)">
    <g id="Grupo_238408" data-name="Grupo 238408" transform="translate(230.757 159.814)">
      <path id="Trazado_230366" data-name="Trazado 230366" d="M532.552,389.085c-29.106,16.041-78.6-31.793-113.764-17.467-24.164,9.845-22.128,42.393,2.551,51.031S532.552,389.085,532.552,389.085Z" transform="translate(-387.531 -351.564)" fill="#fba6ee"/>
      <path id="Trazado_230367" data-name="Trazado 230367" d="M252.712,337.669c-8.637-9.741-17.546-19.979-20.862-32.567s.9-28.194,12.765-33.562c8.206-3.714,17.787-1.8,26.659-3.355,23.264-4.078,37.283-30.618,60.4-35.44,14.276-2.977,28.787,3.066,41.741,9.766s25.554,6.911,40.125,7.519c11.115.464,24.436,3.077,33.462,9.579,28.826,20.766,17.755,68.175.487,76.09s-56.51-.1-75.485.789l-97.792,4.579Z" transform="translate(-230.757 -225.982)" fill="#bebeff"/>
      <path id="Trazado_230368" data-name="Trazado 230368" d="M441.377,1436.929c26.237,1.2,51.158.315,67.587.725,10.59.264,18.28,2.471,17.281,7.866-1.872,10.108-43.485,10.384-51.831,10.634-42.124,1.262-132.263.739-148.661-.985-34.147-3.59-24.085-14.56-9.7-15.129C372.085,1437.824,409.534,1435.475,441.377,1436.929Z" transform="translate(-296.736 -1330.607)" fill="#8d8dff"/>
      <circle id="Elipse_5045" data-name="Elipse 5045" cx="3.667" cy="3.667" r="3.667" transform="translate(129.192 5.187) rotate(-45)" fill="#fdd9f8"/>
      <circle id="Elipse_5046" data-name="Elipse 5046" cx="3.667" cy="3.667" r="3.667" transform="translate(43.19 7.243) rotate(-10.901)" fill="#fdd9f8"/>
      <circle id="Elipse_5047" data-name="Elipse 5047" cx="1.766" cy="1.766" r="1.766" transform="translate(224.023 23.006) rotate(-16.845)" fill="#bebeff"/>
      <circle id="Elipse_5048" data-name="Elipse 5048" cx="1.766" cy="1.766" r="1.766" transform="matrix(0.139, -0.99, 0.99, 0.139, 5.917, 38.267)" fill="#fdd9f8"/>
      <path id="Trazado_230369" data-name="Trazado 230369" d="M1247.957,170.3a1.766,1.766,0,1,1-1.765-1.766A1.765,1.765,0,0,1,1247.957,170.3Z" transform="translate(-1160.363 -167.81)" fill="#fdd9f8"/>
      <path id="Trazado_230370" data-name="Trazado 230370" d="M2252.061,230a1.765,1.765,0,1,1-1.766-1.766A1.765,1.765,0,0,1,2252.061,230Z" transform="translate(-2081.198 -222.562)" fill="#bebeff"/>
      <circle id="Elipse_5049" data-name="Elipse 5049" cx="4.115" cy="4.115" r="4.115" transform="translate(192.762 11.008) rotate(-45)" fill="#bebeff"/>
    </g>
    <g id="Grupo_238412" data-name="Grupo 238412" transform="translate(242.671 161.457)">
      <g id="Grupo_238409" data-name="Grupo 238409" transform="translate(0 13.343)">
        <path id="Trazado_230371" data-name="Trazado 230371" d="M418.906,374.379s-17.482-1.625-30.277-13.071c-12.075-10.8-14.21-20.782-14.21-20.782l21.764,14.556a54.129,54.129,0,0,1,13.722,11.263Z" transform="translate(-374.419 -340.526)" fill="#a6ebff"/>
        <path id="Trazado_230372" data-name="Trazado 230372" d="M424.8,383.98h0a.14.14,0,0,1-.2.027L424.58,384a136.839,136.839,0,0,1-41.268-30.918l-1.035-1.138a.14.14,0,0,1-.029-.2h0a.14.14,0,0,1,.2-.027l1.048,1.152a136.84,136.84,0,0,0,41.275,30.913h0A.14.14,0,0,1,424.8,383.98Z" transform="translate(-381.573 -350.765)" fill="#fff"/>
      </g>
      <g id="Grupo_238410" data-name="Grupo 238410" transform="translate(14.119 0)">
        <path id="Trazado_230373" data-name="Trazado 230373" d="M575.9,226.384s-18.619-11.8-24.7-25.059c-7.377-16.09-6.5-21.7-6.5-21.7s14.312,16.094,20.023,23.477S575.9,226.384,575.9,226.384Z" transform="translate(-544.671 -179.628)" fill="#a6ebff"/>
        <path id="Trazado_230374" data-name="Trazado 230374" d="M578.88,239.709h0a.132.132,0,0,0,.023-.185l-.067-.076a210.685,210.685,0,0,1-30.251-44.565l-.021-.041a.132.132,0,0,0-.185-.024h0a.132.132,0,0,0-.023.185h0A210.673,210.673,0,0,0,578.6,239.574l.1.11A.132.132,0,0,0,578.88,239.709Z" transform="translate(-548.024 -193.533)" fill="#fff"/>
      </g>
      <g id="Grupo_238411" data-name="Grupo 238411" transform="translate(5.216 39.656)">
        <path id="Trazado_230375" data-name="Trazado 230375" d="M437.319,658.093a62.663,62.663,0,0,1,18.909,1.095c7.275,1.476,20.483,5.916,21.618,6.3-1.187.414-13.145,2.643-22.806.482C442.6,663.186,437.319,658.093,437.319,658.093Z" transform="translate(-437.319 -657.819)" fill="#a6ebff"/>
        <path id="Trazado_230376" data-name="Trazado 230376" d="M443.7,662.44l.012-.033a.127.127,0,0,1,.158-.084l3.65,1.071a163.74,163.74,0,0,0,35.239,6.035l.127.008a.127.127,0,0,1,.068.165l-.012.033a.127.127,0,0,1-.158.084h0a163.731,163.731,0,0,1-35.277-6.019l-3.739-1.095A.127.127,0,0,1,443.7,662.44Z" transform="translate(-443.161 -661.943)" fill="#fff"/>
      </g>
    </g>
    <g id="Grupo_238414" data-name="Grupo 238414" transform="translate(404.817 161.639)">
      <path id="Trazado_230377" data-name="Trazado 230377" d="M2349.874,505.873s-4.824-.949-5.759-8.031c-.557-4.224,3.161-12.764,3.161-12.764s6.194,5.9,7.169,11.483c.85,4.861-1.582,8.29-2.591,8.938A3.224,3.224,0,0,1,2349.874,505.873Z" transform="translate(-2342.864 -459.929)" fill="#a6ebff"/>
      <path id="Trazado_230378" data-name="Trazado 230378" d="M2514.3,717.557s-.166-4.127,5.439-6.273c3.343-1.28,11.048.091,11.048.091s-3.614,6.214-7.985,8.1c-3.807,1.643-7.083.326-7.81-.373A2.709,2.709,0,0,1,2514.3,717.557Z" transform="translate(-2498.992 -666.875)" fill="#a6ebff"/>
      <path id="Trazado_230379" data-name="Trazado 230379" d="M2338.789,798.511a2.391,2.391,0,0,1-1.924.454,7.965,7.965,0,0,1-3.806-2.375c-1.927-1.9-3.4-7.623-3.4-7.623s5.4.538,8.068,2.952c2.322,2.1,2.3,4.476,1.867,5.534A2.009,2.009,0,0,1,2338.789,798.511Z" transform="translate(-2329.663 -738.617)" fill="#a6ebff"/>
      <path id="Trazado_230380" data-name="Trazado 230380" d="M2518.564,900.993s.593-2.995,4.992-3.57c2.624-.343,7.924,1.972,7.924,1.972s-3.669,3.842-7.136,4.444a5.972,5.972,0,0,1-5.549-1.615A2,2,0,0,1,2518.564,900.993Z" transform="translate(-2502.883 -838.047)" fill="#a6ebff"/>
      <path id="Trazado_230381" data-name="Trazado 230381" d="M2499.208,350.994a.97.97,0,0,1-.374.028c-.95-.111-5.088-.945-6.985-7.11-1.282-4.17,1.016-13.425,1.016-13.425s7.259,4.9,9.194,10.371c1.686,4.763.086,7.942-.927,9.093A4.271,4.271,0,0,1,2499.208,350.994Z" transform="translate(-2478.043 -318.159)" fill="#a6ebff"/>
      <path id="Trazado_230382" data-name="Trazado 230382" d="M2696.114,206.03s-3.971-3.343-1.815-11.565c1.286-4.9,9.223-12.639,9.223-12.639s4.168,9.287,2.731,15.874a11.312,11.312,0,0,1-7.729,8.33A6.5,6.5,0,0,1,2696.114,206.03Z" transform="translate(-2663.471 -181.826)" fill="#a6ebff"/>
      <path id="Trazado_230383" data-name="Trazado 230383" d="M2673.759,523.253s.856-4.819,7.889-5.879c4.2-.632,11.411,2.388,11.411,2.388s-4.409,6.8-9.947,7.872c-4.823.935-8.281-1.423-8.945-2.415A3.21,3.21,0,0,1,2673.759,523.253Z" transform="translate(-2645.207 -489.468)" fill="#a6ebff"/>
      <g id="Grupo_238413" data-name="Grupo 238413" transform="translate(2.065 3.183)">
        <path id="Trazado_230384" data-name="Trazado 230384" d="M2463.215,289.443l.038.016a.173.173,0,0,0,.226-.094l-.67-5.159a40.159,40.159,0,0,1,4.009-23.333h0a35.132,35.132,0,0,1,7.927-10.31l4.8-4.291q.915-.818,1.757-1.7a29.816,29.816,0,0,0,7.442-14.379l2.066-9.728a.173.173,0,0,0-.094-.226l-.038-.016a.173.173,0,0,0-.226.094l-2.073,9.754a29.815,29.815,0,0,1-7.418,14.349q-.838.884-1.75,1.7l-4.844,4.34a35.134,35.134,0,0,0-7.935,10.363l-.036.073a40.156,40.156,0,0,0-3.937,23.408l.659,4.916A.173.173,0,0,0,2463.215,289.443Z" transform="translate(-2453.186 -220.205)" fill="#a7d4f9"/>
        <path id="Trazado_230385" data-name="Trazado 230385" d="M2536.094,402.756l.013,0c.086-.019.157-.187.1-.345l-.094-.41c-.424-1.516-.8-4.856-1.646-8.2a65.38,65.38,0,0,0-3.086-9.041l-.048-.109c-.056-.157-.171-.27-.258-.251l-.013,0c-.086.018-.111.161-.055.318h0a66.538,66.538,0,0,1,3.134,9.189c.84,3.3,1.2,6.574,1.62,8.072l.118.572C2535.936,402.7,2536.008,402.774,2536.094,402.756Z" transform="translate(-2516.348 -370.775)" fill="#a7d4f9"/>
        <path id="Trazado_230386" data-name="Trazado 230386" d="M2393.543,537.866h0a.158.158,0,0,0,.093-.2l-1.888-4.569a66.2,66.2,0,0,1-4.517-17.145l-.627-5.063a.159.159,0,0,0-.2-.093h0a.159.159,0,0,0-.093.2l.635,5.105a66.22,66.22,0,0,0,4.525,17.144l1.874,4.528A.159.159,0,0,0,2393.543,537.866Z" transform="translate(-2383.664 -486.684)" fill="#a7d4f9"/>
        <path id="Trazado_230387" data-name="Trazado 230387" d="M2534.806,564.229h0a.176.176,0,0,0,.236.079h0a70.858,70.858,0,0,1,27.533-9.854l.346-.047a.176.176,0,0,0,.079-.236h0a.176.176,0,0,0-.236-.079l-.3.04a70.858,70.858,0,0,0-27.538,9.834l-.044.027A.176.176,0,0,0,2534.806,564.229Z" transform="translate(-2519.841 -526.386)" fill="#a7d4f9"/>
        <path id="Trazado_230388" data-name="Trazado 230388" d="M2466.428,925.275l.005.009a.126.126,0,0,0,.171.052h0c4.53-2.811,9.4-5.891,14.681-5.143l1.035.116c.075-.009.095-.1.075-.166l0-.011c-.021-.045-.07-.048-.22-.065l-.846-.1c-5.275-.752-10.287,2.314-14.818,5.118l-.026.016A.127.127,0,0,0,2466.428,925.275Z" transform="translate(-2457.137 -861.833)" fill="#a7d4f9"/>
        <path id="Trazado_230389" data-name="Trazado 230389" d="M2363.863,819.863l-.01,0a.127.127,0,0,1-.158-.084h0a22.74,22.74,0,0,0-8.478-12.994l-.638-.485c-.047-.059,0-.138.064-.171l.011,0c.046-.018.083.015.2.109l.6.46a22.742,22.742,0,0,1,8.489,12.978l.007.029A.127.127,0,0,1,2363.863,819.863Z" transform="translate(-2354.561 -757.534)" fill="#a7d4f9"/>
        <path id="Trazado_230390" data-name="Trazado 230390" d="M2468.276,739.768l.01.009a.159.159,0,0,0,.225-.007h0a28.733,28.733,0,0,1,16.857-10.006l.994-.195c.087-.041.073-.158.022-.229l-.01-.011c-.042-.046-.1-.029-.289.012l-.932.189a28.733,28.733,0,0,0-16.86,9.983l-.024.029A.159.159,0,0,0,2468.276,739.768Z" transform="translate(-2458.799 -687.083)" fill="#a7d4f9"/>
      </g>
    </g>
    <g id="Grupo_238417" data-name="Grupo 238417" transform="translate(285.592 263.13)">
      <g id="Grupo_238415" data-name="Grupo 238415" transform="translate(0 0)">
        <rect id="Rectángulo_313947" data-name="Rectángulo 313947" width="24.369" height="15.476" rx="7.738" transform="translate(0.443 2.015)" fill="#82bff5"/>
        <path id="Trazado_230391" data-name="Trazado 230391" d="M920.767,1429.953H898.245a.923.923,0,0,0-.923.923v13.63a.919.919,0,0,0,.138.484,70.216,70.216,0,0,0,9.389-.437c7.926-.768,14.462-6.183,14.825-13.849A.923.923,0,0,0,920.767,1429.953Z" transform="translate(-896.879 -1427.938)" fill="#9eccfb"/>
        <path id="Trazado_230392" data-name="Trazado 230392" d="M971.788,1407.177l-.391-.758a.784.784,0,0,0-.8-.764h-6.872a.784.784,0,0,0-.8.769h0l-.388.753a.3.3,0,0,1-.269.161h-1.859a.214.214,0,0,0-.218.21v.123h2.84v-.293l.421-.845a.2.2,0,0,1,.179-.108H970.7a.2.2,0,0,1,.179.108l.421.845v.293h2.84v-.123a.214.214,0,0,0-.218-.21h-1.859A.3.3,0,0,1,971.788,1407.177Z" transform="translate(-954.537 -1405.655)" fill="#4545ff"/>
        <rect id="Rectángulo_313948" data-name="Rectángulo 313948" width="24.297" height="1.32" transform="translate(0.443 5.062)" fill="#6cadf1"/>
        <rect id="Rectángulo_313949" data-name="Rectángulo 313949" width="25.255" height="1.122" rx="0.561" transform="translate(0 4.588)" fill="#4545ff"/>
      </g>
      <g id="Grupo_238416" data-name="Grupo 238416" transform="translate(8.294 6.858)">
        <ellipse id="Elipse_5050" data-name="Elipse 5050" cx="4.333" cy="4.172" rx="4.333" ry="4.172" fill="#4545ff"/>
        <path id="Trazado_230393" data-name="Trazado 230393" d="M1009.037,1501.01l-2.331.011v-2.2h-2.314v2.216l-2.342.011.012,2.189,2.33-.011v2.2h2.314v-2.216l2.342-.011Z" transform="translate(-1001.216 -1497.949)" fill="#fff"/>
      </g>
    </g>
    <g id="Grupo_238431" data-name="Grupo 238431" transform="translate(278.953 173.988)">
      <g id="Grupo_238418" data-name="Grupo 238418" transform="translate(0 0)">
        <path id="Trazado_230394" data-name="Trazado 230394" d="M816.2,330.726h129.06c2.36,0,4.274,2.182,4.274,4.873v74.548c0,2.691-1.913,4.873-4.274,4.873H816.2c-2.36,0-4.274-2.182-4.274-4.873V335.6C811.928,332.908,813.841,330.726,816.2,330.726Z" transform="translate(-811.928 -330.726)" fill="#4545ff"/>
        <path id="Rectángulo_313950" data-name="Rectángulo 313950" d="M20.6,0H106.94a20.6,20.6,0,0,1,20.6,20.6V53.626a20.6,20.6,0,0,1-20.6,20.6H20.6A20.6,20.6,0,0,1,0,53.626V20.6A20.6,20.6,0,0,1,20.6,0Z" transform="translate(5.032 5.033)" fill="#9eccfb"/>
        <rect id="Rectángulo_313951" data-name="Rectángulo 313951" width="29.72" height="16.772" transform="translate(53.944 84.294)" fill="#4545ff"/>
        <rect id="Rectángulo_313952" data-name="Rectángulo 313952" width="29.72" height="5.824" transform="translate(53.944 84.294)" fill="#004db3"/>
        <rect id="Rectángulo_313953" data-name="Rectángulo 313953" width="55.984" height="4.917" transform="translate(40.812 101.066)" fill="#043f7a"/>
      </g>
      <g id="Grupo_238422" data-name="Grupo 238422" transform="translate(13.599 10.292)">
        <g id="Grupo_238420" data-name="Grupo 238420">
          <rect id="Rectángulo_313954" data-name="Rectángulo 313954" width="75.855" height="19.541" rx="9.771" fill="#53a7fb"/>
          <g id="Grupo_238419" data-name="Grupo 238419" transform="translate(4.618 3.041)">
            <ellipse id="Elipse_5051" data-name="Elipse 5051" cx="2.99" cy="3.069" rx="2.99" ry="3.069" transform="translate(3.276)" fill="#fff"/>
            <path id="Trazado_230395" data-name="Trazado 230395" d="M1039.208,573.8a.761.761,0,0,0-.409.023,2.918,2.918,0,0,1-1.86,0,.761.761,0,0,0-.409-.023,6.4,6.4,0,0,0-4.927,6.286v.034a.3.3,0,0,0,.3.3h11.927a.3.3,0,0,0,.3-.3v-.034A6.4,6.4,0,0,0,1039.208,573.8Z" transform="translate(-1031.603 -566.96)" fill="#fff"/>
          </g>
        </g>
        <g id="Grupo_238421" data-name="Grupo 238421" transform="translate(21.049 3.661)">
          <path id="Trazado_230396" data-name="Trazado 230396" d="M1233.951,500.049l.9,1.819a.387.387,0,0,0,.292.212l2.007.292a.388.388,0,0,1,.215.661l-1.452,1.416a.388.388,0,0,0-.111.343l.343,2a.388.388,0,0,1-.562.409l-1.8-.944a.387.387,0,0,0-.361,0l-1.8.944a.387.387,0,0,1-.562-.409l.343-2a.388.388,0,0,0-.112-.343l-1.452-1.416a.388.388,0,0,1,.215-.661l2.007-.292a.388.388,0,0,0,.292-.212l.9-1.819A.388.388,0,0,1,1233.951,500.049Z" transform="translate(-1229.727 -499.762)" fill="#f9e255"/>
          <path id="Trazado_230397" data-name="Trazado 230397" d="M1356.237,499.2l.9,1.819a.388.388,0,0,0,.292.212l2.007.292a.388.388,0,0,1,.215.661L1358.2,503.6a.387.387,0,0,0-.111.343l.343,2a.388.388,0,0,1-.562.409l-1.8-.944a.387.387,0,0,0-.361,0l-1.8.944a.388.388,0,0,1-.562-.409l.343-2a.387.387,0,0,0-.111-.343l-1.452-1.416a.388.388,0,0,1,.215-.661l2.007-.292a.387.387,0,0,0,.292-.212l.9-1.819A.388.388,0,0,1,1356.237,499.2Z" transform="translate(-1341.872 -498.981)" fill="#f9e255"/>
          <path id="Trazado_230398" data-name="Trazado 230398" d="M1478.524,500.475l.9,1.819a.387.387,0,0,0,.292.212l2.007.292a.388.388,0,0,1,.215.661l-1.453,1.416a.388.388,0,0,0-.111.343l.343,2a.388.388,0,0,1-.562.409l-1.8-.944a.387.387,0,0,0-.361,0l-1.8.944a.388.388,0,0,1-.562-.409l.343-2a.388.388,0,0,0-.112-.343l-1.453-1.416a.388.388,0,0,1,.215-.661l2.007-.292a.387.387,0,0,0,.292-.212l.9-1.819A.388.388,0,0,1,1478.524,500.475Z" transform="translate(-1454.018 -500.153)" fill="#f9e255"/>
          <path id="Trazado_230399" data-name="Trazado 230399" d="M1600.81,499.623l.9,1.819a.387.387,0,0,0,.292.212l2.007.292a.388.388,0,0,1,.215.661l-1.452,1.416a.388.388,0,0,0-.112.343l.343,2a.388.388,0,0,1-.562.409l-1.8-.944a.387.387,0,0,0-.361,0l-1.8.944a.388.388,0,0,1-.562-.409l.343-2a.387.387,0,0,0-.112-.343l-1.452-1.416a.388.388,0,0,1,.215-.661l2.007-.292a.388.388,0,0,0,.292-.212l.9-1.819A.387.387,0,0,1,1600.81,499.623Z" transform="translate(-1566.163 -499.372)" fill="#f9e255"/>
          <path id="Trazado_230400" data-name="Trazado 230400" d="M1723.1,500.9l.9,1.819a.388.388,0,0,0,.292.212l2.007.292a.387.387,0,0,1,.215.661l-1.452,1.416a.388.388,0,0,0-.111.343l.343,2a.388.388,0,0,1-.562.409l-1.8-.944a.387.387,0,0,0-.361,0l-1.8.944a.388.388,0,0,1-.562-.409l.343-2a.388.388,0,0,0-.112-.343l-1.452-1.416a.387.387,0,0,1,.215-.661l2.007-.292a.387.387,0,0,0,.292-.212l.9-1.819A.388.388,0,0,1,1723.1,500.9Z" transform="translate(-1678.308 -500.543)" fill="#4545ff"/>
        </g>
        <rect id="Rectángulo_313955" data-name="Rectángulo 313955" width="45.105" height="1.889" rx="0.944" transform="translate(22.655 14.431)" fill="#fff"/>
      </g>
      <g id="Grupo_238426" data-name="Grupo 238426" transform="translate(26.216 33.033)">
        <g id="Grupo_238424" data-name="Grupo 238424">
          <rect id="Rectángulo_313956" data-name="Rectángulo 313956" width="75.855" height="19.541" rx="9.771" fill="#53a7fb"/>
          <g id="Grupo_238423" data-name="Grupo 238423" transform="translate(4.618 3.041)">
            <ellipse id="Elipse_5052" data-name="Elipse 5052" cx="2.99" cy="3.069" rx="2.99" ry="3.069" transform="translate(3.276)" fill="#fff"/>
            <path id="Trazado_230401" data-name="Trazado 230401" d="M1191.353,848.027a.762.762,0,0,0-.409.023,2.916,2.916,0,0,1-1.86,0,.762.762,0,0,0-.409-.023,6.4,6.4,0,0,0-4.927,6.286c0,.011,0,.022,0,.034a.3.3,0,0,0,.3.3h11.927a.3.3,0,0,0,.3-.3v-.034A6.4,6.4,0,0,0,1191.353,848.027Z" transform="translate(-1183.748 -841.186)" fill="#fff"/>
          </g>
        </g>
        <g id="Grupo_238425" data-name="Grupo 238425" transform="translate(20.935 3.537)">
          <path id="Trazado_230402" data-name="Trazado 230402" d="M1384.753,772.718l1.009,2.045a.289.289,0,0,0,.217.158l2.257.328a.289.289,0,0,1,.16.492l-1.633,1.592a.289.289,0,0,0-.083.255l.386,2.248a.289.289,0,0,1-.419.3l-2.019-1.061a.289.289,0,0,0-.269,0l-2.019,1.061a.289.289,0,0,1-.419-.3l.385-2.248a.289.289,0,0,0-.083-.255l-1.633-1.592a.289.289,0,0,1,.16-.492l2.257-.328a.288.288,0,0,0,.217-.158l1.009-2.045A.289.289,0,0,1,1384.753,772.718Z" transform="translate(-1380.504 -772.486)" fill="#f9e255"/>
          <path id="Trazado_230403" data-name="Trazado 230403" d="M1507.038,771.866l1.009,2.045a.288.288,0,0,0,.217.158l2.257.328a.289.289,0,0,1,.16.492l-1.633,1.592a.288.288,0,0,0-.083.255l.385,2.248a.289.289,0,0,1-.419.3l-2.019-1.061a.288.288,0,0,0-.269,0l-2.019,1.061a.289.289,0,0,1-.419-.3l.385-2.248a.288.288,0,0,0-.083-.255l-1.633-1.592a.289.289,0,0,1,.16-.492l2.257-.328a.288.288,0,0,0,.217-.158l1.009-2.045A.289.289,0,0,1,1507.038,771.866Z" transform="translate(-1492.649 -771.705)" fill="#f9e255"/>
          <path id="Trazado_230404" data-name="Trazado 230404" d="M1629.326,773.144l1.009,2.045a.289.289,0,0,0,.217.158l2.257.328a.289.289,0,0,1,.16.492l-1.633,1.592a.289.289,0,0,0-.083.256l.385,2.248a.289.289,0,0,1-.419.3l-2.018-1.061a.289.289,0,0,0-.269,0l-2.019,1.061a.289.289,0,0,1-.419-.3l.385-2.248a.289.289,0,0,0-.083-.256l-1.633-1.592a.289.289,0,0,1,.16-.492l2.257-.328a.289.289,0,0,0,.218-.158l1.009-2.045A.289.289,0,0,1,1629.326,773.144Z" transform="translate(-1604.795 -772.877)" fill="#f9e255"/>
          <path id="Trazado_230405" data-name="Trazado 230405" d="M1751.611,772.292l1.009,2.045a.288.288,0,0,0,.217.158l2.257.328a.289.289,0,0,1,.16.492l-1.633,1.592a.289.289,0,0,0-.083.255l.385,2.248a.289.289,0,0,1-.419.3l-2.019-1.061a.289.289,0,0,0-.269,0l-2.019,1.061a.289.289,0,0,1-.419-.3l.385-2.248a.289.289,0,0,0-.083-.255l-1.633-1.592a.289.289,0,0,1,.16-.492l2.257-.328a.288.288,0,0,0,.217-.158l1.009-2.045A.289.289,0,0,1,1751.611,772.292Z" transform="translate(-1716.94 -772.095)" fill="#4545ff"/>
          <path id="Trazado_230406" data-name="Trazado 230406" d="M1873.9,773.57l1.009,2.045a.289.289,0,0,0,.217.158l2.257.328a.289.289,0,0,1,.16.492l-1.633,1.592a.288.288,0,0,0-.083.255l.385,2.248a.289.289,0,0,1-.419.3l-2.019-1.061a.288.288,0,0,0-.269,0l-2.019,1.061a.289.289,0,0,1-.419-.3l.385-2.248a.288.288,0,0,0-.083-.255l-1.633-1.592a.289.289,0,0,1,.16-.492l2.257-.328a.289.289,0,0,0,.217-.158l1.009-2.045A.289.289,0,0,1,1873.9,773.57Z" transform="translate(-1829.085 -773.267)" fill="#4545ff"/>
        </g>
        <path id="Trazado_230407" data-name="Trazado 230407" d="M1445.4,904.956h-43.216a.944.944,0,0,1-.944-.944h0a.944.944,0,0,1,.944-.944H1445.4a.944.944,0,0,1,.944.944h0A.944.944,0,0,1,1445.4,904.956Z" transform="translate(-1378.585 -888.636)" fill="#fff"/>
      </g>
      <g id="Grupo_238430" data-name="Grupo 238430" transform="translate(46.918 55.774)">
        <g id="Grupo_238428" data-name="Grupo 238428">
          <rect id="Rectángulo_313957" data-name="Rectángulo 313957" width="75.855" height="19.541" rx="9.771" fill="#53a7fb"/>
          <g id="Grupo_238427" data-name="Grupo 238427" transform="translate(4.618 3.041)">
            <ellipse id="Elipse_5053" data-name="Elipse 5053" cx="2.99" cy="3.069" rx="2.99" ry="3.069" transform="translate(3.276)" fill="#fff"/>
            <path id="Trazado_230408" data-name="Trazado 230408" d="M1440.98,1122.252a.762.762,0,0,0-.409.023,2.917,2.917,0,0,1-1.86,0,.761.761,0,0,0-.409-.023,6.4,6.4,0,0,0-4.927,6.286c0,.011,0,.022,0,.034a.3.3,0,0,0,.3.3H1445.6a.3.3,0,0,0,.3-.3v-.034A6.4,6.4,0,0,0,1440.98,1122.252Z" transform="translate(-1433.375 -1115.411)" fill="#fff"/>
          </g>
        </g>
        <g id="Grupo_238429" data-name="Grupo 238429" transform="translate(20.997 3.605)">
          <path id="Trazado_230409" data-name="Trazado 230409" d="M1635.111,1047.79l.948,1.922a.343.343,0,0,0,.258.187l2.121.308a.342.342,0,0,1,.19.584l-1.535,1.5a.343.343,0,0,0-.1.3l.362,2.112a.342.342,0,0,1-.5.361l-1.9-1a.343.343,0,0,0-.319,0l-1.9,1a.342.342,0,0,1-.5-.361l.362-2.112a.342.342,0,0,0-.1-.3l-1.535-1.5a.342.342,0,0,1,.19-.584l2.121-.308a.342.342,0,0,0,.258-.187l.949-1.922A.342.342,0,0,1,1635.111,1047.79Z" transform="translate(-1630.876 -1047.529)" fill="#f9e255"/>
          <path id="Trazado_230410" data-name="Trazado 230410" d="M1757.4,1046.938l.948,1.922a.342.342,0,0,0,.258.187l2.121.308a.343.343,0,0,1,.19.584l-1.535,1.5a.343.343,0,0,0-.1.3l.362,2.112a.342.342,0,0,1-.5.361l-1.9-1a.343.343,0,0,0-.319,0l-1.9,1a.342.342,0,0,1-.5-.361l.362-2.112a.343.343,0,0,0-.1-.3l-1.535-1.5a.343.343,0,0,1,.19-.584l2.121-.308a.342.342,0,0,0,.258-.187l.948-1.922A.343.343,0,0,1,1757.4,1046.938Z" transform="translate(-1743.021 -1046.748)" fill="#f9e255"/>
          <path id="Trazado_230411" data-name="Trazado 230411" d="M1879.684,1048.216l.948,1.922a.343.343,0,0,0,.258.187l2.121.308a.342.342,0,0,1,.19.584l-1.535,1.5a.341.341,0,0,0-.1.3l.362,2.112a.343.343,0,0,1-.5.361l-1.9-1a.341.341,0,0,0-.319,0l-1.9,1a.342.342,0,0,1-.5-.361l.362-2.112a.342.342,0,0,0-.1-.3l-1.535-1.5a.342.342,0,0,1,.19-.584l2.121-.308a.343.343,0,0,0,.258-.187l.948-1.922A.343.343,0,0,1,1879.684,1048.216Z" transform="translate(-1855.167 -1047.92)" fill="#f9e255"/>
          <path id="Trazado_230412" data-name="Trazado 230412" d="M2001.97,1047.364l.949,1.922a.342.342,0,0,0,.258.187l2.121.308a.342.342,0,0,1,.19.584l-1.534,1.5a.343.343,0,0,0-.1.3l.363,2.112a.343.343,0,0,1-.5.361l-1.9-1a.343.343,0,0,0-.319,0l-1.9,1a.343.343,0,0,1-.5-.361l.362-2.112a.342.342,0,0,0-.1-.3l-1.535-1.5a.342.342,0,0,1,.19-.584l2.121-.308a.343.343,0,0,0,.258-.187l.948-1.922A.342.342,0,0,1,2001.97,1047.364Z" transform="translate(-1967.312 -1047.138)" fill="#f9e255"/>
          <path id="Trazado_230413" data-name="Trazado 230413" d="M2124.257,1048.642l.948,1.922a.343.343,0,0,0,.258.187l2.121.308a.342.342,0,0,1,.19.584l-1.535,1.5a.343.343,0,0,0-.1.3l.362,2.112a.343.343,0,0,1-.5.361l-1.9-1a.343.343,0,0,0-.319,0l-1.9,1a.342.342,0,0,1-.5-.361l.362-2.112a.344.344,0,0,0-.1-.3l-1.535-1.5a.342.342,0,0,1,.19-.584l2.121-.308a.342.342,0,0,0,.258-.187l.949-1.922A.342.342,0,0,1,2124.257,1048.642Z" transform="translate(-2079.458 -1048.31)" fill="#f9e255"/>
        </g>
        <path id="Trazado_230414" data-name="Trazado 230414" d="M1695.027,1179.181h-43.216a.944.944,0,0,1-.944-.944h0a.944.944,0,0,1,.944-.944h43.216a.944.944,0,0,1,.944.944h0A.944.944,0,0,1,1695.027,1179.181Z" transform="translate(-1628.212 -1162.861)" fill="#fff"/>
      </g>
    </g>
    <g id="Grupo_238458" data-name="Grupo 238458" transform="translate(259.553 200.585)">
      <rect id="Rectángulo_313958" data-name="Rectángulo 313958" width="7.552" height="12.22" transform="translate(9.539 43.705)" fill="#baddff"/>
      <g id="Grupo_238433" data-name="Grupo 238433" transform="translate(15.126 12.495)">
        <g id="Grupo_238432" data-name="Grupo 238432" transform="translate(4.131 27.652)">
          <path id="Trazado_230415" data-name="Trazado 230415" d="M816.747,1175.14c-.011.007-.955.6-1.019.68-.077.1-.076.327-.011.341.034.008-.01.086.017.186s.122.355.4.168a7.062,7.062,0,0,0,.926-1.368Z" transform="translate(-815.215 -1171.859)" fill="#ffceb4"/>
          <path id="Trazado_230416" data-name="Trazado 230416" d="M831.455,1135.933s.507,1.842.5,2.013a10.591,10.591,0,0,1-.414,1.469,3.327,3.327,0,0,1-.509.484l.06-3.974Z" transform="translate(-829.307 -1135.896)" fill="#eab9a1"/>
          <path id="Trazado_230417" data-name="Trazado 230417" d="M810.667,1135.571a11.088,11.088,0,0,0-.468,1.547,5.74,5.74,0,0,1,.114,1.167c-.008.14-.126.711-.011.742a.369.369,0,0,0,.207-.019.666.666,0,0,0,.436-.5,1.123,1.123,0,0,0,.02-.447c-.061-.225.123-.411.18-.553s.1-.149.185-.115.154.173.17.429.084.574.072.694a1.825,1.825,0,0,0-.02.407c.008.083-.1.189-.165.5-.049.239-.286.478-.342.635a.337.337,0,0,0,.142.387c.088.023.31-.007.773-.764a3.188,3.188,0,0,0,.394-.629,5.674,5.674,0,0,0,.373-1.381,12.68,12.68,0,0,0-.517-2.059Z" transform="translate(-810.198 -1135.571)" fill="#ffceb4"/>
        </g>
        <path id="Trazado_230418" data-name="Trazado 230418" d="M760.389,802.125c0-.018,1.5.77,1.6.82a5.3,5.3,0,0,1,2.1,1.74c.526.856,1.97,3.928,2.646,11.949.7,8.3.606,13.288.606,13.288l-3.134,0L762.8,817.09l-.637-6.852Z" transform="translate(-760.389 -802.125)" fill="#b1dafc"/>
      </g>
      <g id="Grupo_238436" data-name="Grupo 238436" transform="translate(5.631 0)">
        <g id="Grupo_238434" data-name="Grupo 238434" transform="translate(0 8.76)">
          <path id="Trazado_230419" data-name="Trazado 230419" d="M654.456,757.872s-.122,1.916-.053,2.533c.034.306.442.269.442.269l.744,1.458s.385,1.934.363,2.049.235.875-.085,1.128a14.922,14.922,0,0,0-1.218,1.082,16.1,16.1,0,0,1-3.162.691,18.056,18.056,0,0,1-2.008-.23c-.15-.046-1.068-.461-1.068-.461a12.047,12.047,0,0,1-.791-.99c-.128-.23-1.111-.944-1.261-1.22s-.47-1.059-.47-1.059l.171-.691s2.057-1.109,2.424-1.294a4.717,4.717,0,0,0,1.509-1.278c.43-.662-.091-2.778-.091-2.778Z" transform="translate(-645.888 -757.082)" fill="#ffceb4"/>
          <path id="Trazado_230420" data-name="Trazado 230420" d="M684.771,819.207h-9.015l.2-3.767,3.725-.412c2.31,0,5.47,1.343,5.24,3.236Z" transform="translate(-673.279 -810.223)" fill="#ffceb4"/>
          <path id="Trazado_230421" data-name="Trazado 230421" d="M698.763,760.016c-.013-.8.073-2.144.073-2.144l-4.555-.79a11.188,11.188,0,0,1,.21,1.171,7.234,7.234,0,0,0,3.587,1.961A1.32,1.32,0,0,0,698.763,760.016Z" transform="translate(-690.268 -757.082)" fill="#eab9a1"/>
        </g>
        <g id="Grupo_238435" data-name="Grupo 238435" transform="translate(1.541)">
          <path id="Trazado_230422" data-name="Trazado 230422" d="M685.78,684.986c-.256,2.5-1.325,5.156-2.766,5.145-1.226-.01-5.181-2.356-5.16-4.872s3.128-4.252,4.921-4.324C685.375,680.83,686.214,680.741,685.78,684.986Z" transform="translate(-676.744 -678.461)" fill="#ffceb4"/>
          <path id="Trazado_230423" data-name="Trazado 230423" d="M667.121,660.847a.147.147,0,0,1-.242.111,10.253,10.253,0,0,1-2.4-5.433,3.683,3.683,0,0,1,3.166-3.2,42.691,42.691,0,0,1,4.216-.835c2.6-.263,2.918.685,2.956,2.068a1.909,1.909,0,0,1-1.708,1.786,16.439,16.439,0,0,1-3.835.2c-1.271-.03-1.415.265-1.291,1.344.01.091.037.181.039.273h0c.034.519.2,1.459-.312,1.421-.318-.024-.327-.5-.764-.611a.584.584,0,0,0-.792.615,1.8,1.8,0,0,0,.659,1.095.993.993,0,0,1,.3.686Z" transform="translate(-664.472 -651.45)" fill="#043f7a"/>
        </g>
      </g>
      <g id="Grupo_238441" data-name="Grupo 238441" transform="translate(5.647 35.327)">
        <g id="Grupo_238438" data-name="Grupo 238438">
          <g id="Grupo_238437" data-name="Grupo 238437" transform="translate(1.102 40.51)">
            <path id="Trazado_230424" data-name="Trazado 230424" d="M666.241,1565.96l-.04.336a1.873,1.873,0,0,0,.208,1.895c.181.217.32.588.662.661l2.332,1.12s.255-.015.151-.034-5.99-.718-6.116-.758a1.162,1.162,0,0,1-.125-.8,2.9,2.9,0,0,0,.383-1.89l-.025-.558Z" transform="translate(-662.964 -1565.934)" fill="#ffceb4"/>
            <path id="Trazado_230425" data-name="Trazado 230425" d="M659.989,1588.183a.091.091,0,0,0-.127-.018,1.893,1.893,0,0,0-.479,1.459c.02.388.368.881,1.323.8a6.617,6.617,0,0,1,2.916.5,4.741,4.741,0,0,0,2.247.142c.357-.072.948-.4.76-.8a11.236,11.236,0,0,0-2.789-1.217c-.573-.2-.943-.868-1.145-.9s-.193.225-.442.384a1.922,1.922,0,0,1-1.922-.069A1.2,1.2,0,0,1,659.989,1588.183Z" transform="translate(-659.38 -1586.302)" fill="#043f7a"/>
          </g>
          <path id="Trazado_230426" data-name="Trazado 230426" d="M646.895,1082.933s-.319,15.367-.369,15.687c-1.123,7.157.176,15.62,1.009,20.49h3.224s1.28-12.218,1.877-19.927c.3-3.813,1.974-15.924,2.049-18.335.113-3.667-1.1-3.2-1.1-3.2l-7.05-.2Z" transform="translate(-646.088 -1077.441)" fill="#043f7a"/>
        </g>
        <g id="Grupo_238440" data-name="Grupo 238440" transform="translate(7.107 0.039)">
          <g id="Grupo_238439" data-name="Grupo 238439" transform="translate(1.601 40.472)">
            <path id="Trazado_230427" data-name="Trazado 230427" d="M757.951,1565.96l-.04.336a1.874,1.874,0,0,0,.208,1.895c.181.217.32.588.662.661l2.332,1.12s.255-.015.151-.034-5.99-.718-6.116-.758a1.162,1.162,0,0,1-.125-.8,2.9,2.9,0,0,0,.383-1.89l-.025-.558Z" transform="translate(-754.674 -1565.934)" fill="#ffceb4"/>
            <path id="Trazado_230428" data-name="Trazado 230428" d="M751.7,1588.183a.091.091,0,0,0-.127-.018,1.893,1.893,0,0,0-.479,1.459c.019.388.368.881,1.323.8a6.617,6.617,0,0,1,2.916.5,4.741,4.741,0,0,0,2.248.142c.357-.072.948-.4.76-.8a11.237,11.237,0,0,0-2.789-1.217c-.573-.2-.943-.868-1.145-.9s-.193.225-.442.384a1.922,1.922,0,0,1-1.922-.069A1.2,1.2,0,0,1,751.7,1588.183Z" transform="translate(-751.091 -1586.302)" fill="#043f7a"/>
          </g>
          <path id="Trazado_230429" data-name="Trazado 230429" d="M731.811,1083.363s.741,15.587.73,15.911a95.693,95.693,0,0,0,.994,20.263h3.236s1.393-12.058,1.9-19.9c.249-3.816-.366-16.014-.291-18.426.113-3.667-.123-2.928-.123-2.928l-6.479-.372Z" transform="translate(-731.783 -1077.907)" fill="#043f7a"/>
        </g>
      </g>
      <path id="Trazado_230430" data-name="Trazado 230430" d="M670.124,813.759l1.439,15.206.436,7.111h0c-4.36,1.365-7.772.815-12.26-.38v-.312l.638-5.42-.548-16.877,1.339-.656c.517,1.251,1.418,2.729,4.948,2.668,1.445-.025,2.774-.522,2.715-1.956Z" transform="translate(-652.96 -799.083)" fill="#fb6773"/>
      <g id="Grupo_238442" data-name="Grupo 238442" transform="translate(3.701 13.028)">
        <path id="Trazado_230431" data-name="Trazado 230431" d="M767.315,822.187l.376,4.371q.014,1.03.091,2.058l1.643,21.715a1.064,1.064,0,0,1-1.088,1.12h-2.421a.553.553,0,0,1-.564-.531l-.526-30.544-.9-11.821.063.018h0a2.744,2.744,0,0,1,1.8,1.46,15.624,15.624,0,0,1,1.036,4.356Z" transform="translate(-752.212 -808.554)" fill="#baddff"/>
        <path id="Trazado_230432" data-name="Trazado 230432" d="M631.08,824.3l-.038,30.169a.932.932,0,0,1-.959.911h-.091l-5.553,0a.932.932,0,0,1-.952-.933l-.037-2.582a134.31,134.31,0,0,1,1.362-21.1l.036-.248c0-2.276-.166-7.356-.439-9.887-.408-3.788-1.785-5.059-1.785-6.343a5.763,5.763,0,0,1,1.585-.808l1.923-.592a.962.962,0,0,1,1.2.581L631.08,824.3Z" transform="translate(-622.623 -812.483)" fill="#baddff"/>
      </g>
      <g id="Grupo_238446" data-name="Grupo 238446" transform="translate(0 12.427)">
        <path id="Trazado_230433" data-name="Trazado 230433" d="M639.568,1155.809c.106.366.218.842.018.862s-.663-.425-.7-.8.032-1.215.23-1.247C639.223,1154.6,639.536,1155.7,639.568,1155.809Z" transform="translate(-633.823 -1125.32)" fill="#ffceb4"/>
        <g id="Grupo_238444" data-name="Grupo 238444" transform="translate(0.211 29.266)">
          <path id="Trazado_230434" data-name="Trazado 230434" d="M580.537,1160.83l9.576,2.188.1-6.632-9.576-2.189Z" transform="translate(-580.537 -1154.197)" fill="#28517a"/>
          <path id="Trazado_230435" data-name="Trazado 230435" d="M595.427,1179.677s-1.444-.439-1.837-.227a3.5,3.5,0,0,1-1.92.466,15.123,15.123,0,0,0-1.621-.551c-.247-.02-.707-.144-.692-.261a.775.775,0,0,1,.848-.345c.288.052,1.314.428,1.313.295a1.949,1.949,0,0,0-1.255-.672,18.322,18.322,0,0,1-2.552-.507c-.172-.051-.462-.211-.42-.36.063-.223.5-.215.619-.184s2.736.426,2.6.218a11.921,11.921,0,0,0-2.05-.931c-.154-.061-1.027-.472-1.1-.666a.216.216,0,0,1,.212-.286,5.106,5.106,0,0,1,1.005.336c.193.092.57.172.71.266a11.355,11.355,0,0,0,1.34.571c.206.006.377-.04.109-.213a4.714,4.714,0,0,0-.719-.43,3.035,3.035,0,0,1-.428-.246c-.149-.088-.411-.2-.55-.294-.09-.058-.4-.316-.549-.411-.2-.129-.182-.372-.039-.382a2.554,2.554,0,0,1,.74.264c.051.042.814.416.884.443s1.411.824,1.445.637-1.848-1.238-1.778-1.5c.09-.331,1.5.407,2.089.841s2.1,1.057,2.393,1.348a10.455,10.455,0,0,0,2.149.823l-.035,2.247Z" transform="translate(-586.727 -1172.932)" fill="#335977"/>
          <g id="Grupo_238443" data-name="Grupo 238443" transform="translate(0.647 1.783)">
            <path id="Trazado_230436" data-name="Trazado 230436" d="M590.159,1188.114c.029.014.065.052.043.131s-.065.192-.143.2c-.1.009-.089-.067-.138-.1a.965.965,0,0,0-.288-.123c-.085-.011-.239-.036-.142-.223.07-.135.186-.1.22-.046a.529.529,0,0,0,.347.16A.122.122,0,0,1,590.159,1188.114Z" transform="translate(-589.368 -1186.893)" fill="#fff"/>
            <path id="Trazado_230437" data-name="Trazado 230437" d="M610.519,1183.55a.12.12,0,0,1,.061.147c-.02.067-.074.189-.174.181-.131-.011-.116-.089-.18-.133a1.707,1.707,0,0,0-.373-.187c-.109-.029-.306-.086-.191-.264a.172.172,0,0,1,.279,0,.926.926,0,0,0,.451.239A.2.2,0,0,1,610.519,1183.55Z" transform="translate(-607.862 -1182.596)" fill="#fff"/>
            <path id="Trazado_230438" data-name="Trazado 230438" d="M625.859,1179.564a.088.088,0,0,1,.045.108c-.015.049-.054.139-.127.133-.1-.008-.085-.065-.132-.1a1.247,1.247,0,0,0-.273-.137c-.08-.021-.224-.063-.14-.193a.126.126,0,0,1,.2,0,.675.675,0,0,0,.33.175A.15.15,0,0,1,625.859,1179.564Z" transform="translate(-622.149 -1179.021)" fill="#fff"/>
            <path id="Trazado_230439" data-name="Trazado 230439" d="M598.878,1192.455a.121.121,0,0,1,.075.141c-.013.069-.056.2-.156.2-.131,0-.124-.078-.192-.117a1.725,1.725,0,0,0-.389-.154c-.111-.02-.313-.059-.215-.246a.172.172,0,0,1,.277-.029.93.93,0,0,0,.472.2A.2.2,0,0,1,598.878,1192.455Z" transform="translate(-597.176 -1190.82)" fill="#fff"/>
            <path id="Trazado_230440" data-name="Trazado 230440" d="M598.6,1210.114a.109.109,0,0,1,.09.113c0,.067-.006.2-.088.219-.108.032-.118-.043-.182-.062a1.3,1.3,0,0,0-.351-.049c-.1.009-.269.022-.227-.177a.141.141,0,0,1,.222-.094.7.7,0,0,0,.428.07A.154.154,0,0,1,598.6,1210.114Z" transform="translate(-597.05 -1207.191)" fill="#fff"/>
            <path id="Trazado_230441" data-name="Trazado 230441" d="M626.31,1228.821a.136.136,0,0,1,.1.145c-.005.076-.035.217-.145.228-.146.015-.149-.071-.229-.106a2.016,2.016,0,0,0-.453-.124c-.126-.009-.356-.029-.273-.242a.193.193,0,0,1,.3-.062,1.083,1.083,0,0,0,.551.163A.234.234,0,0,1,626.31,1228.821Z" transform="translate(-622.23 -1224.224)" fill="#fff"/>
            <path id="Trazado_230442" data-name="Trazado 230442" d="M611.2,1197.357a.207.207,0,0,1,.145.207c-.014.092-.07.259-.239.242-.223-.023-.22-.13-.341-.195a4.022,4.022,0,0,0-.679-.28c-.191-.046-.538-.135-.4-.376.1-.174.372-.077.466.009a2.153,2.153,0,0,0,.825.356A.452.452,0,0,1,611.2,1197.357Z" transform="translate(-607.891 -1195.103)" fill="#fff"/>
            <path id="Trazado_230443" data-name="Trazado 230443" d="M622,1189.177a.174.174,0,0,1,.085.209c-.031.088-.113.244-.256.216-.189-.037-.166-.139-.257-.21a2.864,2.864,0,0,0-.535-.314c-.157-.057-.441-.166-.269-.388.124-.16.339-.049.4.039a1.534,1.534,0,0,0,.646.4A.331.331,0,0,1,622,1189.177Z" transform="translate(-618.031 -1187.538)" fill="#fff"/>
            <path id="Trazado_230444" data-name="Trazado 230444" d="M633.97,1184.206a.144.144,0,0,1,.035.193c-.041.083-.137.231-.253.21-.153-.028-.116-.125-.18-.188a1.729,1.729,0,0,0-.4-.276c-.123-.049-.343-.141-.16-.354a.2.2,0,0,1,.333.024.938.938,0,0,0,.476.35A.213.213,0,0,1,633.97,1184.206Z" transform="translate(-629.247 -1183.045)" fill="#fff"/>
            <path id="Trazado_230445" data-name="Trazado 230445" d="M610.071,1211.211a.183.183,0,0,1,.18.144c.017.091.024.266-.115.308-.184.055-.215-.045-.331-.065a2.972,2.972,0,0,0-.626-.028c-.167.023-.47.059-.432-.215.027-.2.272-.2.373-.152a1.588,1.588,0,0,0,.766.049A.334.334,0,0,1,610.071,1211.211Z" transform="translate(-607.051 -1208.235)" fill="#fff"/>
            <path id="Trazado_230446" data-name="Trazado 230446" d="M630.024,1213.84c.1.023.234.084.243.211.008.107-.017.3-.237.312-.29.011-.317-.111-.489-.165a6.189,6.189,0,0,0-.943-.206c-.257-.021-.724-.065-.61-.361.082-.213.453-.147.6-.066a3.287,3.287,0,0,0,1.15.269A.676.676,0,0,1,630.024,1213.84Z" transform="translate(-624.683 -1210.354)" fill="#fff"/>
            <path id="Trazado_230447" data-name="Trazado 230447" d="M639.9,1199.457c.071.04.167.118.148.213a.2.2,0,0,1-.253.172c-.231-.062-.227-.157-.351-.238a5.493,5.493,0,0,0-.7-.376c-.2-.077-.558-.221-.406-.411.109-.137.388,0,.485.094a2.931,2.931,0,0,0,.853.472A.6.6,0,0,1,639.9,1199.457Z" transform="translate(-634.157 -1196.846)" fill="#fff"/>
            <path id="Trazado_230448" data-name="Trazado 230448" d="M647.2,1193.336c.061.053.138.148.1.237a.2.2,0,0,1-.285.119c-.213-.106-.189-.2-.293-.3a5.389,5.389,0,0,0-.607-.506c-.178-.114-.5-.326-.31-.482.136-.112.38.076.455.187a2.86,2.86,0,0,0,.734.629A.589.589,0,0,1,647.2,1193.336Z" transform="translate(-640.982 -1190.985)" fill="#fff"/>
            <path id="Trazado_230449" data-name="Trazado 230449" d="M632.725,1204.774c.089.037.213.117.2.242-.01.1-.067.293-.282.268-.284-.033-.29-.155-.448-.234a6,6,0,0,0-.884-.342c-.246-.059-.693-.173-.534-.443.115-.2.464-.075.591.025a3.2,3.2,0,0,0,1.075.435A.659.659,0,0,1,632.725,1204.774Z" transform="translate(-627.228 -1201.799)" fill="#fff"/>
            <path id="Trazado_230450" data-name="Trazado 230450" d="M641.282,1227.5a.189.189,0,0,1,.221.075c.049.079.119.241,0,.327-.152.113-.218.029-.334.049a2.938,2.938,0,0,0-.6.182c-.148.077-.419.211-.483-.058-.046-.194.183-.277.295-.267a1.576,1.576,0,0,0,.736-.209A.324.324,0,0,1,641.282,1227.5Z" transform="translate(-635.795 -1223.198)" fill="#fff"/>
            <path id="Trazado_230451" data-name="Trazado 230451" d="M589.029,1208.337c.031.008.074.038.07.12s-.023.2-.1.223c-.1.029-.1-.049-.156-.071a.983.983,0,0,0-.308-.063c-.086.005-.241.012-.186-.191.04-.146.161-.131.206-.088a.536.536,0,0,0,.374.089A.123.123,0,0,1,589.029,1208.337Z" transform="translate(-588.34 -1205.538)" fill="#fff"/>
            <path id="Trazado_230452" data-name="Trazado 230452" d="M601.889,1178.592c.026.018.056.06.023.136s-.093.181-.172.177c-.1-.005-.078-.079-.121-.118a.957.957,0,0,0-.266-.161c-.083-.023-.231-.068-.107-.24.089-.124.2-.069.225-.015a.52.52,0,0,0,.32.207A.123.123,0,0,1,601.889,1178.592Z" transform="translate(-600.132 -1178.093)" fill="#fff"/>
            <path id="Trazado_230453" data-name="Trazado 230453" d="M619.544,1175.885c.018.012.039.041.016.093s-.064.124-.117.121c-.071,0-.053-.054-.083-.081a.655.655,0,0,0-.182-.11c-.057-.016-.158-.047-.073-.165.061-.085.136-.048.154-.01a.355.355,0,0,0,.219.142A.084.084,0,0,1,619.544,1175.885Z" transform="translate(-616.523 -1175.692)" fill="#fff"/>
            <path id="Trazado_230454" data-name="Trazado 230454" d="M613.871,1227.24s-.286-.023-.277.09.317.114.407.161.153.053.3.115.257-.228.183-.3a.2.2,0,0,0-.158-.05A3.436,3.436,0,0,1,613.871,1227.24Z" transform="translate(-611.5 -1222.963)" fill="#fff"/>
            <path id="Trazado_230455" data-name="Trazado 230455" d="M663.232,1210.325s.28.164.272.283-.226.106-.384.053-.239-.117-.208-.178.136-.236.263-.192A.246.246,0,0,1,663.232,1210.325Z" transform="translate(-656.722 -1207.416)" fill="#fff"/>
            <path id="Trazado_230456" data-name="Trazado 230456" d="M667.833,1208.453s-.249-.205-.22-.322.241-.07.388.007.216.153.176.208-.175.212-.292.148A.238.238,0,0,1,667.833,1208.453Z" transform="translate(-661.037 -1205.377)" fill="#fff"/>
            <path id="Trazado_230457" data-name="Trazado 230457" d="M659.566,1214.054s.472.134.507.31-.285.237-.535.219-.394-.082-.373-.181.1-.392.3-.375A.376.376,0,0,1,659.566,1214.054Z" transform="translate(-653.29 -1210.848)" fill="#fff"/>
            <path id="Trazado_230458" data-name="Trazado 230458" d="M671.147,1213.089s.152.046.141.118-.113.458-.2.472-.3-.041-.281-.211a.973.973,0,0,1,.043-.222A.351.351,0,0,1,671.147,1213.089Z" transform="translate(-663.964 -1209.988)" fill="#fff"/>
            <path id="Trazado_230459" data-name="Trazado 230459" d="M657.239,1220.7s.166-.049.235.036c.054.066.186.49.106.555s-.324.128-.407-.052a.577.577,0,0,1-.075-.256S657.028,1220.825,657.239,1220.7Z" transform="translate(-651.386 -1216.953)" fill="#fff"/>
            <path id="Trazado_230460" data-name="Trazado 230460" d="M664.672,1221.073s.327-.079.241.1a.707.707,0,0,1-.427.29c-.032-.013-.286-.057-.283-.192s.149-.144.263-.166A1.813,1.813,0,0,1,664.672,1221.073Z" transform="translate(-657.911 -1217.293)" fill="#fff"/>
            <path id="Trazado_230461" data-name="Trazado 230461" d="M670.7,1216.422a.081.081,0,0,1,.028.11,1.3,1.3,0,0,0-.138.32c-.043.182-.022.524-.12.647-.031.039-.551.1-.524-.14s.482-.671.562-.811c.044-.076.056-.18.115-.165A.284.284,0,0,1,670.7,1216.422Z" transform="translate(-663.178 -1213.008)" fill="#fff"/>
            <path id="Trazado_230462" data-name="Trazado 230462" d="M679.654,1209.464s-.993-.269-1.12-.325-.368-.1-.344,0,.215.14.185.279-.035.27.073.29.692.012.858.044.416.083.416.083l.005-.347Z" transform="translate(-670.737 -1206.31)" fill="#fff"/>
            <path id="Trazado_230463" data-name="Trazado 230463" d="M678.4,1218.216a5.743,5.743,0,0,1-1.127-.394.185.185,0,0,0-.3.026,1.18,1.18,0,0,0-.131.57.623.623,0,0,1-.083.323c-.012.048.06.131.172.1a3.382,3.382,0,0,1,.727-.027c.048.019.734.184.734.184l.012-.778Z" transform="translate(-669.423 -1214.266)" fill="#fff"/>
          </g>
        </g>
        <g id="Grupo_238445" data-name="Grupo 238445" transform="translate(2.787 27.351)">
          <path id="Trazado_230464" data-name="Trazado 230464" d="M611.593,1131.309l.086.769c.007.066.012.132.013.2l.022.873a2.027,2.027,0,0,1-.034.429,2.04,2.04,0,0,0-.033.856,2.594,2.594,0,0,0,.145.354c.144.3.445,1.032.606,1.491.046.13.13.149.253.124.15-.03.113-.385.192.243a.353.353,0,0,0,.362.354c.149-.012.184-.195.19-.176a.357.357,0,0,0,.387.288c.189-.013.175-.379.175-.379.008.058.164.311.29.306.334-.015.284-.3.293-.369a11.25,11.25,0,0,0-.144-1.347c-.019-.106-.074-.236-.112-.444a4.788,4.788,0,0,0-.177-1.932,6.048,6.048,0,0,1-.467-1.836Z" transform="translate(-611.593 -1131.11)" fill="#ffceb4"/>
          <path id="Trazado_230465" data-name="Trazado 230465" d="M636.3,1173.846a10.633,10.633,0,0,0-.186-1.379.939.939,0,0,1-.071-.486c.009,0,.1.446.113.486s.092.486.1.537.105,1.029.1,1.051-.006.041-.015.027S636.3,1173.846,636.3,1173.846Z" transform="translate(-634.004 -1168.592)" fill="#eab9a1"/>
          <path id="Trazado_230466" data-name="Trazado 230466" d="M628.452,1174.981c-.1-.692-.211-.866-.273-1.26-.065-.416-.1-.543-.073-.548a3.433,3.433,0,0,1,.115.534c.005.071.1.458.15.632s.152.86.151.885-.007.034-.016.017S628.452,1174.981,628.452,1174.981Z" transform="translate(-626.73 -1169.685)" fill="#eab9a1"/>
          <path id="Trazado_230467" data-name="Trazado 230467" d="M621.044,1175.718c0,.043.124.291.139.344.01.037.022.036.2.953a.5.5,0,0,0,.011.06c.008.03.03.009.029,0s-.2-.958-.217-1.021c-.033-.1-.127-.3-.155-.358Z" transform="translate(-620.26 -1171.995)" fill="#eab9a1"/>
        </g>
        <path id="Trazado_230468" data-name="Trazado 230468" d="M586.307,801.3s-4.5.831-5.122,2.026c-1.723,3.319-3.2,11.239-3.2,12.824,0,.889,2.186,14.083,2.186,14.083l3.179-.555-.325-13.911,1.739-5.993Z" transform="translate(-577.99 -801.297)" fill="#baddff"/>
      </g>
      <g id="Grupo_238447" data-name="Grupo 238447" transform="translate(6.588 11.892)">
        <path id="Trazado_230469" data-name="Trazado 230469" d="M748.659,796.052h0c.116.292.831.427,1.322,3.613.529,3.438.683,8.11.828,9.088l1.224-8.416-1.155-.494,1.036-.68h0a6.726,6.726,0,0,0-3.255-3.111Z" transform="translate(-741.094 -795.953)" fill="#fff"/>
        <path id="Trazado_230470" data-name="Trazado 230470" d="M660.292,794.852h0a1.392,1.392,0,0,0-.465.892,6.126,6.126,0,0,0,.137,2.666c.5,1.954,1.233,4.186,1.856,5.986.665,1.925,1.2,3.338,1.184,3.413l-5.313-7.925,1.3-.76-1.554-.483.076-.412c.343-1.285.617-3,2.5-3.342Z" transform="translate(-657.434 -794.852)" fill="#fff"/>
      </g>
      <g id="Grupo_238457" data-name="Grupo 238457" transform="translate(6.695 11.828)">
        <g id="Grupo_238449" data-name="Grupo 238449" transform="translate(7.44 0.129)">
          <path id="Trazado_230471" data-name="Trazado 230471" d="M749.432,803.071a.139.139,0,0,1-.063-.015.132.132,0,0,1-.065-.155c1.445-5.215-.275-6.63-.8-6.968h0a.326.326,0,0,1-.065-.175,1.012,1.012,0,0,1-.01-.127.967.967,0,0,1,.241.094l.014.009a3.054,3.054,0,0,1,1.108,1.515,10.071,10.071,0,0,1-.233,5.727A.134.134,0,0,1,749.432,803.071Zm-.686-7.27Zm0,0Zm0,0h0Zm0,0h0Zm0,0h0Zm0,0h0Zm0,0h0Zm0,0h0Zm0,0Zm0,0h0Zm0,0h0Zm0,0h0Zm0,0h0Zm0,0h0Zm0,0h0Zm0,0h0Zm0,0Z" transform="translate(-748.431 -795.631)" fill="#043f7a"/>
          <g id="Grupo_238448" data-name="Grupo 238448" transform="translate(0.284 6.863)">
            <path id="Trazado_230472" data-name="Trazado 230472" d="M753.234,879.048a.689.689,0,1,1-.688-.658A.673.673,0,0,1,753.234,879.048Z" transform="translate(-751.858 -878.39)" fill="#043f7a"/>
            <path id="Trazado_230473" data-name="Trazado 230473" d="M756.344,882.315a.379.379,0,1,1-.379-.362A.371.371,0,0,1,756.344,882.315Z" transform="translate(-755.277 -881.657)" fill="#9eccfb"/>
          </g>
        </g>
        <g id="Grupo_238456" data-name="Grupo 238456">
          <g id="Grupo_238451" data-name="Grupo 238451" transform="translate(1.737)">
            <g id="Grupo_238450" data-name="Grupo 238450">
              <path id="Trazado_230474" data-name="Trazado 230474" d="M679.894,797.734a.119.119,0,0,1-.146-.078,2.566,2.566,0,0,1-.075-.954,3.641,3.641,0,0,1,.661-2.48c.176-.128.3-.169.405-.141l-.086.09a1.271,1.271,0,0,0-.136.152,1.4,1.4,0,0,0-.172.277,5.281,5.281,0,0,0-.4,2.107,3.205,3.205,0,0,0,.07.9c.008.064-.041.106-.108.121Z" transform="translate(-679.672 -794.072)" fill="#043f7a"/>
            </g>
          </g>
          <g id="Grupo_238455" data-name="Grupo 238455" transform="translate(0 3.42)">
            <g id="Grupo_238452" data-name="Grupo 238452" transform="translate(0.073 2.429)">
              <path id="Trazado_230475" data-name="Trazado 230475" d="M663.823,868.162c-1.588,1.41-3.029.155-3.482-1.223a21.236,21.236,0,0,1-.527-2.331l-.213.027a15.015,15.015,0,0,0,.534,2.358c.466,1.429,2,2.863,3.777,1.345Z" transform="translate(-659.602 -864.608)" fill="#f4f4f4"/>
              <path id="Trazado_230476" data-name="Trazado 230476" d="M710.075,903.5l.154.173a.081.081,0,0,1-.014.121l-.278.2a.1.1,0,0,1-.125-.013l-.117-.13a.086.086,0,0,1,.005-.12l.247-.234A.09.09,0,0,1,710.075,903.5Z" transform="translate(-705.521 -900.245)" fill="#043f7a"/>
            </g>
            <g id="Grupo_238454" data-name="Grupo 238454">
              <g id="Grupo_238453" data-name="Grupo 238453" transform="translate(0.705 1.923)">
                <path id="Trazado_230477" data-name="Trazado 230477" d="M673.032,863.126c2.129,1.02,3.137-.716,3.2-2.212a14.938,14.938,0,0,0-.13-2.41l-.213.027a21.132,21.132,0,0,1,.129,2.381c-.06,1.443-1.027,2.984-2.945,2.021Z" transform="translate(-672.55 -858.504)" fill="#f4f4f4"/>
                <path id="Trazado_230478" data-name="Trazado 230478" d="M667.332,908.817l-.1.205a.082.082,0,0,0,.047.114l.323.123a.094.094,0,0,0,.117-.044l.077-.155a.086.086,0,0,0-.038-.115l-.3-.164A.089.089,0,0,0,667.332,908.817Z" transform="translate(-667.221 -904.601)" fill="#043f7a"/>
              </g>
              <path id="Trazado_230479" data-name="Trazado 230479" d="M662.932,837.292a.118.118,0,0,0,.1-.139,2.2,2.2,0,0,0-2.44-1.821,2.142,2.142,0,0,0-1.865,2.37.122.122,0,0,0,.138.108l.122-.016a.117.117,0,0,0,.105-.124,1.794,1.794,0,0,1,1.535-2.079,1.848,1.848,0,0,1,2.056,1.621.121.121,0,0,0,.136.094Z" transform="translate(-658.721 -835.313)" fill="#043f7a"/>
            </g>
          </g>
        </g>
      </g>
    </g>
    <g id="Grupo_238470" data-name="Grupo 238470" transform="translate(399.112 200.962)">
      <g id="Grupo_238459" data-name="Grupo 238459" transform="translate(0 14.178)">
        <path id="Trazado_230480" data-name="Trazado 230480" d="M2266.081,1022.806a7.468,7.468,0,0,1,.421,1.486,8.773,8.773,0,0,1-2.428,1.05c-.05,0-1.375.516-1.51.547s-.289-.145-.087-.32c.1-.089,1.046-.5,1.079-.583s.005-.1-.057-.083c-.3.077-.476.154-.665.214-.1.03-.326.093-.569.157s-.489.124-.635.154c-.222.046-.326.019-.347-.161-.018-.158.186-.277.542-.376a9.634,9.634,0,0,0,1.405-.453c-.011-.057-.118-.044-.182-.02a7.22,7.22,0,0,1-.962.216,5.529,5.529,0,0,1-1.075.168.245.245,0,0,1-.146-.228c-.014-.112.142-.225.3-.262,1.047-.246,1.811-.378,1.908-.409.119-.039.086-.119.02-.127a5.548,5.548,0,0,0-.567.056,2.522,2.522,0,0,1-.381.035,8.186,8.186,0,0,1-1.111.055c-.075-.011-.2-.312.131-.423s1.978-.283,2.193-.335.751-.23.839-.447c.124-.306-.7-.674-.784-.78-.142-.174-.282-.6-.087-.8.108-.112.041-.016.452.342a2.423,2.423,0,0,0,1,.559c.077.044.917.585.917.585Z" transform="translate(-2260.866 -1004.99)" fill="#ffceb4"/>
        <path id="Trazado_230481" data-name="Trazado 230481" d="M2333.124,844.487a35.893,35.893,0,0,1-10.7,2.493l-.563-2.8,7.951-2.821.441-4.305c.614-4.866,1.185-6.583,1.614-7.485a4.585,4.585,0,0,1,1.707-1.869c.06-.041.83-.417,1.318-.711a.2.2,0,0,1,.3.22l-.738,3.112Z" transform="translate(-2316.798 -826.964)" fill="#e05c67"/>
      </g>
      <g id="Grupo_238462" data-name="Grupo 238462" transform="translate(16.182 0)">
        <g id="Grupo_238460" data-name="Grupo 238460" transform="translate(0.555 9.131)">
          <path id="Trazado_230482" data-name="Trazado 230482" d="M2474.727,771.721s.128,1.916.062,2.533c-.033.306-1.485,1.268-1.485,1.268l-.822.551s.126,1.574.148,1.689a3.993,3.993,0,0,0,.712,1.4,14.9,14.9,0,0,1,1.221,1.078,16.107,16.107,0,0,0,3.165.68,18.018,18.018,0,0,0,2.008-.237c.149-.047,1.067-.464,1.067-.464a12.029,12.029,0,0,0,.787-.993c.127-.231,1.108-.948,1.256-1.225s.467-1.061.467-1.061l-.125-.438a1.23,1.23,0,0,0-.725-.8c-.588-.236-1.463-.591-1.7-.71a3,3,0,0,1-1.546-1.535,5.114,5.114,0,0,1,.063-2.539Z" transform="translate(-2471.67 -770.517)" fill="#ffceb4"/>
          <path id="Trazado_230483" data-name="Trazado 230483" d="M2462.852,833.154l9.015-.031-.208-3.766-3.726-.4c-2.31.008-5.465,1.362-5.229,3.254Z" transform="translate(-2462.692 -823.745)" fill="#ffceb4"/>
          <path id="Trazado_230484" data-name="Trazado 230484" d="M2500.466,769.051c-.005-.28,0-.391,0-.391l4.474-2.558s-.033.5-.143,1.133a7.51,7.51,0,0,1-3.644,2.012A1.32,1.32,0,0,1,2500.466,769.051Z" transform="translate(-2497.331 -766.102)" fill="#eab9a1"/>
        </g>
        <g id="Grupo_238461" data-name="Grupo 238461">
          <path id="Trazado_230485" data-name="Trazado 230485" d="M2473.92,694.961c.265,2.5,1.343,5.151,2.783,5.135,1.226-.014,5.173-2.374,5.143-4.889s-3.143-4.242-4.936-4.308C2474.311,690.8,2473.471,690.718,2473.92,694.961Z" transform="translate(-2472.329 -687.98)" fill="#ffceb4"/>
          <path id="Trazado_230486" data-name="Trazado 230486" d="M2463.989,665.828a.146.146,0,0,0,.242.11,7.022,7.022,0,0,0,2.383-5.441c-.194-2.049-1.029-3.128-3.35-2.957-1.985.147-3.108-1.026-3.924-1.307-2.491-.857-3.343.771-3.339,2.154,0,1.485,1.207,1.844,1.983,1.961a16.437,16.437,0,0,0,3.835.187c1.271-.034,1.416.26,1.3,1.34-.01.091-.036.181-.039.273h0c-.032.519-.192,1.46.317,1.42.318-.025.325-.5.762-.614a.584.584,0,0,1,.794.612,1.8,1.8,0,0,1-.656,1.1.994.994,0,0,0-.3.687Z" transform="translate(-2456.001 -655.995)" fill="#043f7a"/>
        </g>
      </g>
      <g id="Grupo_238467" data-name="Grupo 238467" transform="translate(14.057 34.283)">
        <g id="Grupo_238464" data-name="Grupo 238464" transform="translate(7.101)">
          <g id="Grupo_238463" data-name="Grupo 238463" transform="translate(0 42.273)">
            <path id="Trazado_230487" data-name="Trazado 230487" d="M2527.428,1579.176l.041.336a1.874,1.874,0,0,1-.208,1.9c-.181.217-.321.588-.663.661l-2.332,1.121s-.255-.015-.151-.034,5.99-.718,6.116-.758a1.165,1.165,0,0,0,.125-.8,2.9,2.9,0,0,1-.383-1.89l.025-.558Z" transform="translate(-2523.42 -1579.15)" fill="#ffceb4"/>
            <path id="Trazado_230488" data-name="Trazado 230488" d="M2522.683,1601.4a.09.09,0,0,1,.127-.018,1.892,1.892,0,0,1,.479,1.459c-.02.388-.368.882-1.323.8a6.614,6.614,0,0,0-2.916.5,4.747,4.747,0,0,1-2.248.142c-.357-.072-.948-.4-.76-.8a11.233,11.233,0,0,1,2.789-1.217c.573-.2.943-.868,1.145-.9s.193.225.442.384a1.921,1.921,0,0,0,1.922-.069A1.2,1.2,0,0,0,2522.683,1601.4Z" transform="translate(-2516.007 -1599.519)" fill="#043f7a"/>
          </g>
          <path id="Trazado_230489" data-name="Trazado 230489" d="M2526.924,1069.911a31.206,31.206,0,0,1,1.245,13.148c-.591,3.863-1.212,8.011-1.186,8.188,1.411,9.627-.138,16.5-.954,21.579h-3.183s-1.564-12.941-2.35-21.071c-.384-3.968-.82-16.146-.9-18.66-.126-3.823.258-3.7.258-3.7l7.072.511Z" transform="translate(-2519.272 -1069.399)" fill="#043f7a"/>
        </g>
        <g id="Grupo_238466" data-name="Grupo 238466" transform="translate(0 0.744)">
          <g id="Grupo_238465" data-name="Grupo 238465" transform="translate(0 41.529)">
            <path id="Trazado_230490" data-name="Trazado 230490" d="M2441.8,1579.176l.041.336a1.874,1.874,0,0,1-.208,1.9c-.182.217-.32.588-.662.661l-2.332,1.121s-.255-.015-.151-.034,5.99-.718,6.116-.758a1.163,1.163,0,0,0,.125-.8,2.9,2.9,0,0,1-.383-1.89l.025-.558Z" transform="translate(-2437.79 -1579.15)" fill="#ffceb4"/>
            <path id="Trazado_230491" data-name="Trazado 230491" d="M2437.052,1601.4a.091.091,0,0,1,.127-.018,1.892,1.892,0,0,1,.479,1.459c-.019.388-.368.882-1.323.8a6.614,6.614,0,0,0-2.916.5,4.746,4.746,0,0,1-2.248.142c-.357-.072-.948-.4-.76-.8a11.235,11.235,0,0,1,2.789-1.217c.573-.2.943-.868,1.146-.9s.193.225.442.384a1.921,1.921,0,0,0,1.922-.069A1.2,1.2,0,0,0,2437.052,1601.4Z" transform="translate(-2430.376 -1599.519)" fill="#043f7a"/>
          </g>
          <path id="Trazado_230492" data-name="Trazado 230492" d="M2448.13,1085.1s-2.9,14.642-2.868,14.964c.937,8.107.782,16.485.04,20.987h-3.236s-2.419-13.313-3.09-21.014a144.111,144.111,0,0,1,.524-19.025c.733-4.957,4.378-1.424,4.378-1.424l3.034-.185Z" transform="translate(-2438.146 -1078.371)" fill="#043f7a"/>
        </g>
      </g>
      <path id="Trazado_230493" data-name="Trazado 230493" d="M2444.632,844.966a10.949,10.949,0,0,1-1.848-.386.538.538,0,0,1-.363-.517l.858-5.4-.381-10.84a15.892,15.892,0,0,1,.206-3.9,5.248,5.248,0,0,1,.613-1.84,8.681,8.681,0,0,1,2.192-1.324l.168-.064h0c-.509.593-.84,1.3-.316,1.881a3.605,3.605,0,0,0,2.795.865c3.19.047,4.63-1.108,4.7-3.01l.862.365,1,.393a15.82,15.82,0,0,1,1.9.789c.492.331.378.718.423,1.3.037.483.084,1.068.105,1.191l-2.346,9.039.368,4.995,1.192,4.171a3.248,3.248,0,0,1,.231.892.629.629,0,0,1-.5.622l-2.245.51a22.206,22.206,0,0,1-3.984.542,28.242,28.242,0,0,1-3.52-.037C2446.052,845.147,2445.345,845.063,2444.632,844.966Z" transform="translate(-2427.365 -806.797)" fill="#fb6773"/>
      <g id="Grupo_238469" data-name="Grupo 238469" transform="translate(15.784 14.861)">
        <g id="Grupo_238468" data-name="Grupo 238468" transform="translate(0 19.957)">
          <path id="Trazado_230494" data-name="Trazado 230494" d="M2452.859,1100.034c-.012-.007-.984-.546-1.089-.561-.125-.018-.322.092-.3.156.01.033-.08.033-.154.105s-.251.279.048.433a7.063,7.063,0,0,0,1.646.145Z" transform="translate(-2451.192 -1097.512)" fill="#ffceb4"/>
          <path id="Trazado_230495" data-name="Trazado 230495" d="M2468.5,1090.247s-1.365,1.338-1.516,1.417a10.618,10.618,0,0,1-1.485.351,3.327,3.327,0,0,1-.67-.21l3.5-1.876Z" transform="translate(-2463.701 -1088.761)" fill="#eab9a1"/>
          <path id="Trazado_230496" data-name="Trazado 230496" d="M2455.369,1075.849a11.086,11.086,0,0,0-1.58.342,5.742,5.742,0,0,1-.965.666c-.126.061-.683.235-.654.351a.369.369,0,0,0,.117.172.665.665,0,0,0,.652.137,1.128,1.128,0,0,0,.4-.2c.167-.163.42-.092.571-.111s.177.012.191.106-.077.218-.293.357-.461.352-.571.4a1.812,1.812,0,0,0-.366.18c-.068.047-.215,0-.515.1a3.944,3.944,0,0,1-.721.01c-.168.029-.292.223-.269.312s.156.267,1.042.305a3.177,3.177,0,0,0,.741.039,5.675,5.675,0,0,0,1.388-.345,12.684,12.684,0,0,0,1.549-1.452Z" transform="translate(-2451.349 -1075.849)" fill="#ffceb4"/>
        </g>
        <path id="Trazado_230497" data-name="Trazado 230497" d="M2502.57,837.874c.275-2.432,1.406-3.463,3.034-2.014a2.9,2.9,0,0,1,.657,1.12c1,3.222,2.3,12.145,1.748,13.656-.694,1.911-11.819,6.615-11.819,6.615l-1.3-2.746,8.91-6.2-.162-.937a81.7,81.7,0,0,1-1.07-9.491Z" transform="translate(-2491.268 -835.196)" fill="#e05c67"/>
      </g>
    </g>
    <g id="Grupo_238471" data-name="Grupo 238471" transform="translate(391.948 190.574)">
      <path id="Trazado_230498" data-name="Trazado 230498" d="M2181.355,530.736c-1.763.007-5.135.458-6.193,1.869-1.61,2.148-.14,8.5,1.743,10.268,1.685,1.584,4.154,1.923,6.451,2.185.7.08,1.419.151,2.139.181a7.73,7.73,0,0,0,4.751,2.62,5.9,5.9,0,0,1-1.1-3.039,5.243,5.243,0,0,0,1.712-.975,6.413,6.413,0,0,0,1.954-4.857C2192.822,537.188,2191.855,530.7,2181.355,530.736Z" transform="translate(-2174.472 -530.736)" fill="#4545ff"/>
      <path id="Trazado_230499" data-name="Trazado 230499" d="M2228.445,578.932h-9.225a.577.577,0,0,1-.575-.575h0a.577.577,0,0,1,.575-.575h9.225a.577.577,0,0,1,.575.575h0A.577.577,0,0,1,2228.445,578.932Z" transform="translate(-2214.982 -573.88)" fill="#fff"/>
      <rect id="Rectángulo_313959" data-name="Rectángulo 313959" width="10.375" height="1.15" rx="0.575" transform="translate(3.663 6.683)" fill="#fff"/>
      <path id="Trazado_230500" data-name="Trazado 230500" d="M2228.445,646.007h-9.225a.577.577,0,0,1-.575-.575h0a.577.577,0,0,1,.575-.575h9.225a.577.577,0,0,1,.575.575h0A.576.576,0,0,1,2228.445,646.007Z" transform="translate(-2214.982 -635.393)" fill="#fff"/>
    </g>
  </g>
</svg>
